<svg xmlns="http://www.w3.org/2000/svg" width="72.15" height="69.959" viewBox="0 0 72.15 69.959">
  <g id="services-healthcare" transform="translate(-17 -24.419)">
    <g id="Group_3355" data-name="Group 3355" transform="translate(17 24.419)">
      <path id="Path_1201" data-name="Path 1201" d="M87.792,55.722h-3.7a24.5,24.5,0,0,0,1.3-7.623A14.767,14.767,0,0,0,72.215,33.443V25.775a1.359,1.359,0,0,0-2.672-.347l-2.2,8.241c-4.694.906-7.577,3.834-10.083,8.211-3.034-5.313-6.641-8.5-13.389-8.5A14.758,14.758,0,0,0,29.121,48.129a26.74,26.74,0,0,0,2.657,11.109H18.358a1.358,1.358,0,1,0,0,2.717H33.136a57.267,57.267,0,0,0,4.619,7.064c4.5,5.992,10.355,12.015,16.226,17.887H41.241a1.358,1.358,0,1,0,0,2.717H73.286a1.358,1.358,0,1,0,0-2.717H60.547C66.418,81.035,72.275,75,76.773,69a51.118,51.118,0,0,0,6.309-10.551h4.709a1.366,1.366,0,0,0,0-2.732ZM82.675,48.1a22.191,22.191,0,0,1-1.449,7.623H72.215V36.175A12.064,12.064,0,0,1,82.675,48.1Zm-50.852,0a12.053,12.053,0,0,1,12.03-12.03c5.63,0,8.709,2.34,12.181,9.283a1.367,1.367,0,0,0,1.223.755,1.335,1.335,0,0,0,1.208-.755c2.521-5.041,4.83-7.653,8.06-8.709l-6.9,25.705-4.272-7.381a1.36,1.36,0,0,0-2.355,0l-3.17,5.479-4.5-7.789a1.36,1.36,0,0,0-2.355,0L39.2,59.193H34.766A25.191,25.191,0,0,1,31.823,48.1ZM57.256,86.318C49.2,78.257,41.105,70.046,36.275,61.91H40a1.356,1.356,0,0,0,1.177-.679l3-5.192,4.5,7.789a1.36,1.36,0,0,0,2.355,0l3.17-5.479,4.724,8.181a1.356,1.356,0,0,0,1.177.679.735.735,0,0,0,.181-.015,1.359,1.359,0,0,0,1.132-1L69.5,36.084h.015V57.05a1.353,1.353,0,0,0,1.358,1.358h9.238C75.717,67.707,66.464,77.11,57.256,86.318Z" transform="translate(-17 -24.419)" fill="#1f73fa"/>
      <path id="Path_1202" data-name="Path 1202" d="M243.86,469.9h-13.9a1.358,1.358,0,1,0,0,2.717h13.9a1.358,1.358,0,1,0,0-2.717Z" transform="translate(-196.661 -402.658)" fill="#1f73fa"/>
    </g>
  </g>
</svg>
