<svg xmlns="http://www.w3.org/2000/svg" width="74.25" height="66" viewBox="0 0 74.25 66">
  <g id="service-building" transform="translate(-173 -2263)">
    <path id="Path_763" data-name="Path 763" d="M75.375,68.75H65.75V15.125a1.375,1.375,0,0,0-.825-1.375L40.175,5.5H38.8a1.375,1.375,0,0,0-.55,1.1V16.775L14.325,24.75a1.375,1.375,0,0,0-.825,1.375V68.75H3.875a1.375,1.375,0,0,0,0,2.75h71.5a1.375,1.375,0,0,0,0-2.75Zm-44,0h-8.25V55h8.25Zm6.875,0H34.125V53.625A1.375,1.375,0,0,0,32.75,52.25h-11a1.375,1.375,0,0,0-1.375,1.375V68.75H16.25V27.225l22-7.425Zm17.875,0h-8.25V55h8.25Zm6.875,0H58.875V53.625A1.375,1.375,0,0,0,57.5,52.25h-11a1.375,1.375,0,0,0-1.375,1.375V68.75H41V8.8l22,7.425Z" transform="translate(170.5 2257.5)" fill="#2c7bfa"/>
    <path id="Path_764" data-name="Path 764" d="M10.375,18.25h11a1.375,1.375,0,1,0,0-2.75h-11a1.375,1.375,0,0,0,0,2.75Z" transform="translate(181.875 2275)" fill="#2c7bfa"/>
    <path id="Path_765" data-name="Path 765" d="M10.375,21.25h11a1.375,1.375,0,1,0,0-2.75h-11a1.375,1.375,0,0,0,0,2.75Z" transform="translate(181.875 2280.25)" fill="#2c7bfa"/>
    <path id="Path_766" data-name="Path 766" d="M19.375,18.25h11a1.375,1.375,0,1,0,0-2.75h-11a1.375,1.375,0,1,0,0,2.75Z" transform="translate(197.625 2275)" fill="#2c7bfa"/>
    <path id="Path_767" data-name="Path 767" d="M19.375,15.15h11a1.375,1.375,0,0,0,0-2.75h-11a1.375,1.375,0,0,0,0,2.75Z" transform="translate(197.625 2269.575)" fill="#2c7bfa"/>
    <path id="Path_768" data-name="Path 768" d="M19.375,21.15h11a1.375,1.375,0,1,0,0-2.75h-11a1.375,1.375,0,1,0,0,2.75Z" transform="translate(197.625 2280.075)" fill="#2c7bfa"/>
  </g>
</svg>
