<svg xmlns="http://www.w3.org/2000/svg" width="65.33" height="66.953" viewBox="0 0 65.33 66.953">
  <g id="service-well" transform="translate(-538.647 -2262)">
    <path id="Path_1222" data-name="Path 1222" d="M81.228,36.686A4.78,4.78,0,0,0,74.67,38.1l-4.795,7.192a4.123,4.123,0,0,0-3.314,1.058l-9.872,8.6a8.464,8.464,0,0,0-2.75,4.936l-1.34,9.1v8.6a1.67,1.67,0,0,0,1.692,1.692H66.279a1.67,1.67,0,0,0,1.692-1.692V70.25l7.051-5.5a14.029,14.029,0,0,0,4.936-7.827l3.314-15.16A4.743,4.743,0,0,0,81.228,36.686ZM56.055,75.89V71.1h8.532V75.89ZM76.645,56.147A10.331,10.331,0,0,1,72.978,62l-7.263,5.641H56.267l1.128-7.263a4.7,4.7,0,0,1,1.551-2.891l9.872-8.6a.833.833,0,0,1,1.269,1.058l-1.692,2.891a11.563,11.563,0,0,1-2.4,2.82l-2.75,2.468a1.748,1.748,0,1,0,2.327,2.609l2.75-2.468a16.109,16.109,0,0,0,2.961-3.6l1.763-2.75a4.249,4.249,0,0,0-.141-4.795l4.654-7.051a1.358,1.358,0,0,1,1.833-.423,1.238,1.238,0,0,1,.564,1.41Z" transform="translate(520.564 2249.607)" fill="#2c7bfa"/>
    <path id="Path_1223" data-name="Path 1223" d="M33.088,59.884a8.1,8.1,0,0,0-2.75-4.936l-9.872-8.6a4.123,4.123,0,0,0-3.314-1.058L12.428,38.1a4.788,4.788,0,0,0-8.673,3.667l3.314,15.16A13.663,13.663,0,0,0,12,64.75l7.051,5.5v7.4a1.67,1.67,0,0,0,1.692,1.692H32.735a1.67,1.67,0,0,0,1.692-1.692V68.769ZM14.12,62a10.331,10.331,0,0,1-3.667-5.852L7.139,41.058a1.341,1.341,0,0,1,.564-1.41,1.358,1.358,0,0,1,1.833.423l4.654,7.051a4.132,4.132,0,0,0-.141,4.795l1.763,2.75a18.3,18.3,0,0,0,2.961,3.6l2.75,2.468a1.748,1.748,0,1,0,2.327-2.609L21.1,55.654a15.374,15.374,0,0,1-2.4-2.82l-1.763-2.75a.841.841,0,0,1,.141-1.058.858.858,0,0,1,1.128,0l9.872,8.6a4.522,4.522,0,0,1,1.551,2.891l1.128,7.263H21.383ZM22.511,75.89V71.1h8.532V75.89Z" transform="translate(535 2249.607)" fill="#2c7bfa"/>
    <path id="Path_1224" data-name="Path 1224" d="M59.434,23.667a12.214,12.214,0,0,0,3.6-9.378,12.62,12.62,0,0,0-4.513-9.026A12.777,12.777,0,0,0,41.524,6.392l-.987.987-1.34-1.2a12.214,12.214,0,0,0-9.378-3.6,12.025,12.025,0,0,0-8.955,4.442A12.777,12.777,0,0,0,21.992,24.02L37.223,39.251a4.749,4.749,0,0,0,3.385,1.41,4.872,4.872,0,0,0,3.385-1.41ZM39.62,36.783,24.46,21.552a9.237,9.237,0,0,1-.917-12.34A8.7,8.7,0,0,1,30.03,5.969h.423A8.9,8.9,0,0,1,36.8,8.578l2.538,2.538a1.7,1.7,0,0,0,2.468,0L44.062,8.86A9.314,9.314,0,0,1,56.4,7.943a8.7,8.7,0,0,1,3.244,6.487A8.92,8.92,0,0,1,57.036,21.2L41.524,36.712A1.344,1.344,0,0,1,39.62,36.783Z" transform="translate(530.724 2259.453)" fill="#2c7bfa"/>
  </g>
</svg>
