<svg xmlns="http://www.w3.org/2000/svg" width="73.103" height="66.425" viewBox="0 0 73.103 66.425">
  <path id="service-book" d="M72.442,8.646H67.458V3.661A1.661,1.661,0,0,0,65.8,2h-.831a44.593,44.593,0,0,0-27.414,9.537A44.394,44.394,0,0,0,10.138,2H9.307A1.661,1.661,0,0,0,7.646,3.661V8.646H2.661A1.661,1.661,0,0,0,1,10.307V63.473a1.661,1.661,0,0,0,1.661,1.661H25.589a21.732,21.732,0,0,1,7.908,1.5l3.323,1.661h0a1.562,1.562,0,0,0,1.263,0h0l3.323-1.628a22.3,22.3,0,0,1,8.108-1.529H72.442A1.661,1.661,0,0,0,74.1,63.473V10.307A1.661,1.661,0,0,0,72.442,8.646ZM39.213,63.407V14.428a41.038,41.038,0,0,1,24.922-9.1V55.166a44.959,44.959,0,0,0-24.922,8.241ZM10.969,5.323a41.27,41.27,0,0,1,24.922,9.1V63.407a44.959,44.959,0,0,0-24.922-8.241ZM4.323,61.812V11.969H7.646V56.827a1.661,1.661,0,0,0,1.661,1.661h.731a41.5,41.5,0,0,1,16.182,3.323Zm66.458,0h-21.9a41.5,41.5,0,0,1,16.182-3.323H65.8a1.661,1.661,0,0,0,1.661-1.661V11.969H70.78Z" transform="translate(-1 -2)" fill="#2c7bfa"/>
</svg>
