<svg id="service-ondemand" xmlns="http://www.w3.org/2000/svg" width="83.68" height="77" viewBox="0 0 83.68 77">
  <path id="Path_1215" data-name="Path 1215" d="M9.985,289.327v23.241H2.514l11.953,15.94,11.953-15.94H18.95V289.327Zm2.988,2.988h2.988v23.241h4.483l-5.977,7.967L8.49,315.557h4.483Z" transform="translate(19.905 -289.327)" fill="#f26b1d"/>
  <path id="Path_1216" data-name="Path 1216" d="M31.4,293.3a4.483,4.483,0,1,0,0,8.965h7.728a1.494,1.494,0,1,1,0,2.988H23.759L7.253,298.584a4.886,4.886,0,0,0-4.278,8.761L34.09,325.357a6.034,6.034,0,0,0,4.115.711L66.279,320.9v2.276h17.93v-26.9H66.279v1.78L56.742,293.3Zm-.111,2.988H56.041L66.279,301.4v16.459l-28.617,5.265a3.044,3.044,0,0,1-2.072-.356L4.469,304.754a1.9,1.9,0,0,1,1.663-3.4v.006l16.506,6.665a2.987,2.987,0,0,0,1.121.216H39.127a4.483,4.483,0,1,0,0-8.965H31.4a1.5,1.5,0,0,1-.111-2.989Zm37.979,2.988H81.22v20.918H69.267Z" transform="translate(-0.529 -249.168)" fill="#f26b1d"/>
  <path id="Path_1217" data-name="Path 1217" d="M13.172,297.118a3.094,3.094,0,1,0-3.094,3.095,3.094,3.094,0,0,0,3.094-3.095Z" transform="translate(65.918 -241.492)" fill="#f26b1d"/>
</svg>
