<svg id="service-cart" xmlns="http://www.w3.org/2000/svg" width="79.7" height="69.305" viewBox="0 0 79.7 69.305">
  <path id="Path_1213" data-name="Path 1213" d="M6.6,962.362a2.6,2.6,0,1,0,0,5.2H16.968c4.3,10.653,8.538,21.326,12.805,32l-3.925,9.448a2.6,2.6,0,0,0,2.409,3.6H71.572a2.6,2.6,0,1,0,0-5.2H32.155l2.247-5.36,41.718-3.33a2.672,2.672,0,0,0,2.328-2l5.2-22.524a2.72,2.72,0,0,0-2.545-3.167H23.952l-2.815-7.039a2.665,2.665,0,0,0-2.409-1.624Zm19.438,13.861H77.826l-4.034,17.489-39.5,3.14Zm10.883,38.118A8.663,8.663,0,1,0,45.583,1023,8.7,8.7,0,0,0,36.92,1014.341Zm25.989,0A8.663,8.663,0,1,0,71.572,1023,8.7,8.7,0,0,0,62.909,1014.341Zm-25.989,5.2A3.465,3.465,0,1,1,33.455,1023,3.426,3.426,0,0,1,36.92,1019.538Zm25.989,0A3.465,3.465,0,1,1,59.444,1023,3.427,3.427,0,0,1,62.909,1019.538Z" transform="translate(-4 -962.362)" fill="#f26b1d"/>
</svg>
