<svg xmlns="http://www.w3.org/2000/svg" width="68.596" height="67" viewBox="0 0 68.596 67">
  <g id="service-chat" transform="translate(-4.969 -958.379)">
    <path id="Path_1209" data-name="Path 1209" d="M11.062,958.379a6.114,6.114,0,0,0-6.093,6.093v30.466a6.114,6.114,0,0,0,6.093,6.093h5.165l-1.357,13.543a1.523,1.523,0,0,0,2.594,1.238l14.781-14.781h4.713v11.663a4.961,4.961,0,0,0,4.856,5l13.591.072,7.95,7.212a1.523,1.523,0,0,0,2.547-1.285l-.6-5.927h3.38a4.969,4.969,0,0,0,4.879-5V992.344a4.955,4.955,0,0,0-4.879-4.974l-7.355-.024V964.472a6.114,6.114,0,0,0-6.093-6.093Zm0,3.047H55.238a3.007,3.007,0,0,1,3.047,3.047v22.873L41.837,987.3a4.962,4.962,0,0,0-4.879,5v5.689H31.627a1.523,1.523,0,0,0-1.071.452l-12.21,12.21,1.095-11a1.523,1.523,0,0,0-1.523-1.666H11.062a3.007,3.007,0,0,1-3.047-3.047V964.472A3.007,3.007,0,0,1,11.062,961.425Zm30.752,28.919,26.872.072a1.842,1.842,0,0,1,1.833,1.928v20.422a1.865,1.865,0,0,1-1.833,1.952h-5.07a1.523,1.523,0,0,0-1.523,1.666l.357,3.666L57,1015.1a1.523,1.523,0,0,0-1.023-.381l-14.138-.072A1.865,1.865,0,0,1,40,1012.694V992.3a1.848,1.848,0,0,1,1.809-1.952Z" fill="#f26b1d"/>
  </g>
</svg>
