<svg xmlns="http://www.w3.org/2000/svg" width="106.037" height="65.119" viewBox="0 0 106.037 65.119">
  <g id="service-car" transform="translate(-1.7 -13.881)">
    <path id="Path_1225" data-name="Path 1225" d="M38.6,41.2a1.648,1.648,0,1,0,2.33,0A1.609,1.609,0,0,0,38.6,41.2Z" transform="translate(24.193 17.825)" fill="#1f73fa"/>
    <path id="Path_1226" data-name="Path 1226" d="M35.9,38.4a1.648,1.648,0,1,0,2.33,0A1.606,1.606,0,0,0,35.9,38.4Z" transform="translate(22.398 15.964)" fill="#1f73fa"/>
    <path id="Path_1227" data-name="Path 1227" d="M34.3,41.2a1.648,1.648,0,1,0,2.33,0A1.609,1.609,0,0,0,34.3,41.2Z" transform="translate(21.335 17.825)" fill="#1f73fa"/>
    <path id="Path_1228" data-name="Path 1228" d="M31.5,38.4a1.648,1.648,0,1,0,2.33,0A1.609,1.609,0,0,0,31.5,38.4Z" transform="translate(19.474 15.964)" fill="#1f73fa"/>
    <path id="Path_1229" data-name="Path 1229" d="M29.9,41.2a1.648,1.648,0,1,0,2.33,0A1.609,1.609,0,0,0,29.9,41.2Z" transform="translate(18.41 17.825)" fill="#1f73fa"/>
    <path id="Path_1230" data-name="Path 1230" d="M27.1,38.375a1.648,1.648,0,1,0,2.33,0C28.93,37.709,27.765,37.876,27.1,38.375Z" transform="translate(16.549 15.988)" fill="#1f73fa"/>
    <path id="Path_1231" data-name="Path 1231" d="M18.9,45.7a1.648,1.648,0,1,0,2.33,0A1.609,1.609,0,0,0,18.9,45.7Z" transform="translate(11.099 20.816)" fill="#1f73fa"/>
    <path id="Path_1232" data-name="Path 1232" d="M49,45.7a1.648,1.648,0,1,0,2.33,0A1.609,1.609,0,0,0,49,45.7Z" transform="translate(31.105 20.816)" fill="#1f73fa"/>
    <path id="Path_1233" data-name="Path 1233" d="M99.581,46.54H84.432c-1.165-2.83-4.328-10.82-5.493-13.983-.832-2.164-3.662-8.49-9.156-8.49H62.626v-5.16a5.08,5.08,0,0,0-5.66-4.994L40.985,15.744a5.025,5.025,0,0,0-4.328,4.994v3.329H33a11.948,11.948,0,0,0-11.652,8.989l-3,10.654a4.1,4.1,0,0,1-4,3A7.282,7.282,0,0,0,7.027,54.03V65.849H3.365a1.665,1.665,0,1,0,0,3.329H19.678A11.5,11.5,0,0,0,31.164,79,11.65,11.65,0,0,0,42.65,69.179H69.784A11.5,11.5,0,0,0,81.27,79a11.65,11.65,0,0,0,11.486-9.821h13.317a1.665,1.665,0,1,0,0-3.329H102.91l2.5-12.485A5.869,5.869,0,0,0,99.581,46.54Zm-59.428-25.8a1.77,1.77,0,0,1,1.5-1.665l15.981-2a1.618,1.618,0,0,1,1.831,1.665v5.327H40.153ZM10.356,54.03a4.051,4.051,0,0,1,4-4,7.3,7.3,0,0,0,7.158-5.493l3-10.654A8.743,8.743,0,0,1,33,27.4H69.617q3.246,0,5.993,6.492c1.5,3.662,5.826,14.815,5.993,14.982a1.456,1.456,0,0,0,1.5,1H99.414a2.685,2.685,0,0,1,2.5,3l-.666,3.163H97.084a1.665,1.665,0,1,0,0,3.329h3.5l-1.332,6.492H92.589A11.5,11.5,0,0,0,81.1,56.028a11.65,11.65,0,0,0-11.486,9.821H42.65a11.5,11.5,0,0,0-11.486-9.821,11.65,11.65,0,0,0-11.486,9.821H10.356ZM31.164,75.837a8.157,8.157,0,1,1,8.157-8.157A8.065,8.065,0,0,1,31.164,75.837Zm50.106,0a8.157,8.157,0,1,1,8.157-8.157A8.17,8.17,0,0,1,81.27,75.837Z" transform="translate(0 0)" fill="#1f73fa"/>
    <path id="Path_1234" data-name="Path 1234" d="M18.291,40.048H63.4a1.573,1.573,0,0,0,1.665-1.665,1.272,1.272,0,0,0-.333-.832c-1.165-2.663-4.495-10.987-4.994-11.819a1.7,1.7,0,0,0-1.332-.832H21.62a2,2,0,0,0-1.665,1.165L16.626,37.718a1.7,1.7,0,0,0,.333,1.5A1.371,1.371,0,0,0,18.291,40.048Zm42.781-3.329H42.1V28.4H57.576C58.242,30.06,59.907,33.889,61.072,36.719ZM22.785,28.4H38.6v8.323H20.455Z" transform="translate(9.877 7.324)" fill="#1f73fa"/>
  </g>
</svg>
