<svg viewBox="0 0 500 500" xmlns="http://www.w3.org/2000/svg"><path d="M377 196.62a14.59 14.59 0 01-5.51-10.77c-1.46-21.69 11.09-60.9-13.48-70.93-19.13-7.82-36.74 13.91-55.75 7.1C282.2 114.83 274.16 97 246 93.36s-32.3 27.57-49.89 36.64-49.18-14.3-62.06-4.39-1.34 71-12.59 85.37-31.34 2.7-37.77 23.37 4 53.93 4 67.41-12 12.58-12.85 27S84.49 353 84.49 353h331.92s11.25-19.77 12.06-43.14-13.66-27-24.11-36.85c-9.67-9.15 3.19-32.29 5.16-43.11 1-5.17.87-10.87-1.63-15.35-6.36-11.39-21.67-11.04-30.89-17.93z" fill="#ffc100"/><path d="M377 196.62a14.59 14.59 0 01-5.51-10.77c-1.46-21.69 11.09-60.9-13.48-70.93-19.13-7.82-36.74 13.91-55.75 7.1C282.2 114.83 274.16 97 246 93.36s-32.3 27.57-49.89 36.64-49.18-14.3-62.06-4.39-1.34 71-12.59 85.37-31.34 2.7-37.77 23.37 4 53.93 4 67.41-12 12.58-12.85 27S84.49 353 84.49 353h331.92s11.25-19.77 12.06-43.14-13.66-27-24.11-36.85c-9.67-9.15 3.19-32.29 5.16-43.11 1-5.17.87-10.87-1.63-15.35-6.36-11.39-21.67-11.04-30.89-17.93z" fill="#fff" opacity=".7"/><path d="M175.92 397s-.38 4.94 1 6.4 13.28 2 14.63.18.58-8.59.58-8.59-4.85 1.6-16.21 2.01z" fill="#ffc100" stroke="#263238" stroke-linecap="round" stroke-linejoin="round"/><path d="M188.05 402.63c-6.49.17-10-.25-11.84-.75a3.34 3.34 0 00.68 1.48c1.34 1.46 13.28 2 14.63.18a3.16 3.16 0 00.45-1.06c-1.2.06-2.49.11-3.92.15z" fill="#fff" stroke="#263238" stroke-linecap="round" stroke-linejoin="round"/><path d="M211.35 403.16a30.07 30.07 0 0010.23 5.84c5.58 1.65 7.12 2.56 6.54 4.39s-5.39 2.38-16.94 2.75-20.24-1.13-21.78-2.23-.58-3.11 0-3.65 19.83-8.56 21.95-7.1z" fill="#ffc100" stroke="#263238" stroke-linecap="round" stroke-linejoin="round"/><path d="M228.12 413.43a1.62 1.62 0 00-.26-1.66c-2.69 1.1-7.5 1.43-18.6 1.3-9.76-.12-15.72-1.55-20.6-1.36a2 2 0 00.74 2.24c1.54 1.1 10.23 2.59 21.78 2.23s16.37-.92 16.94-2.75z" fill="#fff" stroke="#263238" stroke-linecap="round" stroke-linejoin="round"/><path d="M187.67 296.36s-.39 21.95-4.62 40.79-6.93 27.62-7.7 39.51a144.36 144.36 0 00.19 21.4s2.12 1.09 7.32.73a17.23 17.23 0 008.08-2.38s.58-20.49.58-31.83 5-42.43 5.39-53.95-3.08-17.38-5.58-19.21-3.66 4.94-3.66 4.94z" fill="#263238" stroke="#263238" stroke-linecap="round" stroke-linejoin="round"/><path d="M213.08 270.75s-.19 11-.19 24.88-3.08 46.46-5.58 62-.77 36.75-.39 38.4 1.16 1.1 2.5 2.74a34.43 34.43 0 012.89 4.57s-7.51 5.13-13.28 7-7.9 2.56-9.24 2.56-1.35-1.28-2.31-4.39-1-16.1-1-16.1-2.69-18.46-2.69-29.8 5.2-18.29 5.2-29.26-3.28-40.61-5.2-45-5.59-10.42-6-13.53-.58-5.13-.58-5.13z" fill="#263238" stroke="#263238" stroke-linecap="round" stroke-linejoin="round"/><path d="M208.08 219.35s7.31-6.95 8.66-9.32.39-6.95 1.93-8.23 6.73-3.3 7.5-4.94 1.74-2.2 2.31.55-1.34 4-2.5 5.3l-1.15 1.29 7.7-1.83s-1.35-5.67.38-6.95 2.89 6.95 3.08 9.33-2.11 4.21-6.35 5.85a68.58 68.58 0 01-8.09 2.56l-8.66 20.85z" fill="#fff" stroke="#263238" stroke-linecap="round" stroke-linejoin="round"/><path d="M234.07 203.62c.38-1.82-.19-7.86 1.35-8.77s1.73 3.47 1.73 3.47.77 4.39-.19 6.22-2.31 2.19-2.31.91" fill="#fff" stroke="#263238" stroke-linecap="round" stroke-linejoin="round"/><path d="M222.77 210.31s-.45-1.93 2.63-2.84 8.28-2 8.28-2 3.85-10.6 5.2-7.31-1.73 10.06-2.89 11-9.82 2.56-9.82 2.56" fill="#fff" stroke="#263238" stroke-linecap="round" stroke-linejoin="round"/><path d="M188.82 174.18S181.12 187 178.43 198s-5.2 32.75-6 45.18-2.5 29.63-2.5 29.63a86.4 86.4 0 0023.48 2.75 139.71 139.71 0 0025.8-2.93s-4.21-35.9-8.21-56.75-7.89-34-7.89-34-10.44-8.44-14.29-7.7z" fill="#ffc100" stroke="#263238" stroke-linecap="round" stroke-linejoin="round"/><path d="M193.83 150.22a22.07 22.07 0 01.19 10.6c-1.35 5.67-2.12 9.7-2.12 9.7s11.17 11.89 11.17 11.34.39-6.77 2.12-10.61 2.89-6 2.89-6a14.87 14.87 0 01-6-6.76c-2.12-4.76-2.31-12.26-5.2-12.44s-3.05 4.17-3.05 4.17z" fill="#fff" stroke="#263238" stroke-linecap="round" stroke-linejoin="round"/><path d="M220.4 133.94s0 10.79.77 13.17 3.46 2.92 3.08 4.2-4 2-4 2-1 9.15-1.74 11.71-2.69 3.11-6.93 2.74-9-1.64-11-4.39-3.08-7.68-3.08-7.68a120.27 120.27 0 01-1-13.17c0-5.85-.77-9 7.32-12.07s16.18.93 16.58 3.49z" fill="#fff" stroke="#263238" stroke-linecap="round" stroke-linejoin="round"/><path d="M211.54 155.52l3.85 2.38s-1.92 3.47-3.27 2.56-.58-4.94-.58-4.94z" fill="none" stroke="#263238" stroke-linecap="round" stroke-linejoin="round"/><path d="M217.32 147.75c0 1.06-.3 1.92-.68 1.92s-.67-.86-.67-1.92.3-1.92.67-1.92.68.86.68 1.92z" fill="#263238"/><path d="M213.27 143.81s1-3.47 3.86-3.29" fill="none" stroke="#263238" stroke-linecap="round" stroke-linejoin="round"/><path d="M199.61 152l4-1.09s-2.31-3.48.19-5.12 6.16-2.93 5.2-4.58-7.32-2.56-4.24-4.57 7.32-3.11 8.09-2.38 0 1.65 5 1.65 7.7-1.83 6.16-7.68-9.82-8.05-15-6-6.74 3.48-6.74 3.48-11 .36-14.25 8-1.92 12.44.39 15 5.77 5.31 7.12 5.31 4.08-2.02 4.08-2.02z" fill="#263238" stroke="#263238" stroke-linecap="round" stroke-linejoin="round"/><path d="M189.62 144.5c3.8-1.26 5.92-5.07 11-8.45a18.35 18.35 0 0110.56-3s-2.12-6.34 3-5.92 6.76 3.8 2.12 3.38" fill="none" stroke="#fff" stroke-linecap="round" stroke-linejoin="round" stroke-width=".75"/><path d="M201.34 154.24c0-.55-1.54-8.23-4.43-8.23s-4.43 2-3.27 6.58 4.62 6 7.31 3.66" fill="#fff" stroke="#263238" stroke-linecap="round" stroke-linejoin="round"/><path d="M189.59 166.13l15.21 13.53 1.54 8.6-20.6-13.72z" fill="#ffc100" stroke="#263238" stroke-linecap="round" stroke-linejoin="round"/><path d="M169.84 313.54a2.23 2.23 0 01-2.27-2l-1.48-17.93a5.41 5.41 0 015.1-5.7l30.45-2.41a5.55 5.55 0 016 4.78l1.81 18.14a2.2 2.2 0 01-2.06 2.37 2.27 2.27 0 01-2.49-2l-1.81-18.14a1 1 0 00-1.09-.86l-30.45 2.41a1 1 0 00-.92 1l1.47 17.93a2.21 2.21 0 01-2.1 2.34z" fill="#263238" stroke="#fff" stroke-miterlimit="10"/><g stroke-linecap="round" stroke-linejoin="round"><path d="M153.48 311.71l4.1 29.53a4 4 0 004.3 3.48l58.55-4.64a4 4 0 003.71-4v-30.56l-35 7.16z" fill="#ffc100" stroke="#263238"/><path d="M165.77 341.18l-.8.06a.84.84 0 01-.91-.74l-1.8-21.91a.81.81 0 01.78-.87l.8-.06a.83.83 0 01.91.74l1.8 21.91a.81.81 0 01-.78.87zM172.87 340.66l-.79.06a.85.85 0 01-.92-.75l-1.8-21.91a.82.82 0 01.78-.87l.8-.06a.83.83 0 01.91.75l1.81 21.91a.84.84 0 01-.79.87zM180 340.13l-.79.06a.85.85 0 01-.92-.75l-1.8-21.91a.82.82 0 01.78-.87l.8-.05a.84.84 0 01.92.74l1.8 21.91a.84.84 0 01-.79.87zM187.08 339.6l-.8.06a.84.84 0 01-.92-.74l-1.8-21.92a.83.83 0 01.79-.87l.79-.06a.84.84 0 01.92.74l1.8 21.91a.81.81 0 01-.78.88zM194.18 339.07l-.8.06a.82.82 0 01-.91-.74l-1.81-21.91a.83.83 0 01.79-.87l.79-.06a.85.85 0 01.92.74L195 338.2a.81.81 0 01-.82.87zM201.28 338.55l-.8.06a.83.83 0 01-.91-.75l-1.8-21.86a.82.82 0 01.78-.87l.79-.06a.85.85 0 01.92.75l1.8 21.91a.82.82 0 01-.78.82zM208.38 338l-.79.06a.85.85 0 01-.92-.75l-1.8-21.9a.81.81 0 01.78-.87l.8-.06a.82.82 0 01.91.74l1.8 21.91a.81.81 0 01-.78.87zM215.48 337.49l-.79.06a.84.84 0 01-.92-.74L212 314.9a.81.81 0 01.78-.87l.8-.06a.83.83 0 01.91.74l1.81 21.91a.83.83 0 01-.82.87z" fill="#fff" stroke="#263238"/><path d="M149.24 307.53l39.28 2.38 39.66-9.51.96 5.85-40.43 8.78-38.5-2.2z" fill="#ffc100" stroke="#263238"/><path d="M179.58 227s-2.31 5.85-1.54 17.74 7.51 32.37 7.51 33.47-4.62 5.67-4.43 7.68a14.22 14.22 0 001.93 4.76s-2.12.73-1.93 1.65.77 1.28 2.31 1.28 4 1.28 5.59-.37 2.31-2.56 2.69-5.12-.38-6.59-.38-13.17-2.89-36.58-1.93-39.69a42.63 42.63 0 012.12-5.49z" fill="#fff" stroke="#263238"/><path d="M189.21 188.44a20.69 20.69 0 00-7.32 5.12c-2.69 3.3-1.73 7.32-1.54 9.88a42.09 42.09 0 01-.19 6.22l-4.24 16.65s1.35 2.19 10.4 4 11.94 1.83 11.94 1.83-.77-19 0-26.71 1.73-11.34-1-14.08M275.2 393.46s-10.76 5.75-13 8 3.34 4.45 7.42 4.45 5.93.56 12.24-1.85 5.38-3.9 10.94-2.42 7.8-.55 7.8-.55l-7.05-8z" fill="#ffc100" stroke="#263238"/><path d="M297.08 397.07a34.33 34.33 0 00-9.82 2.14c-4.82 1.86-7.79 3.71-15 4.27a19.36 19.36 0 01-10.18-1.83c-1.69 2.15 3.63 4.24 7.59 4.24s5.93.56 12.24-1.85 5.38-3.9 10.94-2.42 7.8-.55 7.8-.55z" fill="#fff" stroke="#263238"/><path d="M297.3 398.66s-13.67 9.71-15.91 12.28 1.22 5.15 7.55 5.15 20.61-5.35 22.24-8.71-13.88-8.72-13.88-8.72z" fill="#ffc100" stroke="#263238"/><path d="M288.94 416.09c6.32 0 20.61-5.35 22.24-8.71.32-.67 0-1.41-.79-2.17a56 56 0 01-17 7.32c-6.36 1.54-10.38 1.06-12.69.33.39 1.8 3.51 3.23 8.24 3.23z" fill="#fff" stroke="#263238"/><path d="M271.49 241.17s-10.76 26-8 44.33 8.16 41.74 8.9 46-.19 13 1.11 21.14 2.6 28.94 2 33.21-1.67 9.27-1.67 9.27 6.87 3 9.46 3.71a64 64 0 009.09 1.12s-1.85-1.12 2.42 1.85a40.84 40.84 0 0012.61 5.57c2.6.55 3.9 2 4.08.55s.19-6.12.19-8a241.68 241.68 0 00.55-28.57c-.74-15-5.93-24.67-4.82-40.07s8.35-32.83 6.86-53.42-7.16-34.86-7.16-34.86-28.75-.54-35.62-1.83z" fill="#263238" stroke="#263238"/><path d="M282.44 269.73l5.56 5.75s-1.11 22.45-1.11 37.47-.19 25.6 1.3 34.51 5.56 37.65 5.93 43.41.56 5.38-.55 6.86a4.43 4.43 0 00-1.12 2.23" fill="none" stroke="#fff"/><path d="M330.48 188.85c-.93.93-5-.37-4.26-3.52s5.93-11.87 1.11-22.26-16.14-10.57-16.14-10.57l-1.06 2.73c0-1.87-.08-3.32-.08-3.32-1-2.51-12.54-6.77-13-3.26s-2.25 14.29 2 17.3c2.88 2 5.76 1 7.79-.79a53.76 53.76 0 00-1.19 15.72c.93 12.43 10.21 13.72 17.07 13s8.69-5.95 7.76-5.03z" fill="#263238" stroke="#263238"/><path d="M311.89 155.31s12.05 6 12.8 15.06-5.27 14.56-2.76 18.08 5.27 2.25 5.27 2.25M309.63 157.32s5.53 9.79 2.51 18.58-.75 15.56 6.78 17.31" fill="none" stroke="#fff" stroke-width=".75"/><path d="M287.45 184.4a53.22 53.22 0 01-10.76 3.9c-6.13 1.48-7.24 2.41-7.79 3.71s-8.54 14.28-14.1 22.26-8.54 13.35-7.42 16.88 3.89 4.82 6.68 2.41 14.46-21.33 14.46-21.33 2.23 14.28 2.23 20.77-.37 10.39-.37 10.39 5.94 1.67 19.48 1.67 17.25-2 17.25-2-3-7.42-1.86-13.91a56.56 56.56 0 013-11s7.24 17.44 9.09 18.92 11.69 4.83 11.69-3-9.65-29.31-12.06-36.55-2.6-6.3-6.68-7.79-16.69-4.08-16.69-4.08z" fill="#ffc100" stroke="#263238"/><path d="M247.38 231.15c1.11 3.52 3.89 4.82 6.68 2.41 2-1.72 8.53-11.89 12.1-17.55a9.32 9.32 0 00-1.16-1.51 10.7 10.7 0 00-8.43-2.78c-.6.89-1.18 1.75-1.74 2.55-5.6 7.97-8.57 13.35-7.45 16.88zM329 234.12c0-2.3-.84-5.79-2.09-9.76a24.57 24.57 0 00-14.72 3c2 4.46 4.21 9 5.12 9.74 1.86 1.47 11.69 4.81 11.69-2.98zM258 217.96l-5.53 2.79M288.56 181.06s-4.64.19-6.68 4.08-4.45 18.55-4.45 18.55 8.9-2 9.64-1.85S298 207.4 298 207.4s4.82-14.65 3.15-21.88-9.07-5.38-12.59-4.46z" fill="#fff" stroke="#263238"/><path d="M287.45 176.8s.37 2.59-1.67 10.76-1.12 15.76 2.22 13.35 8.16-12.43 8.53-16.32 1.47-10.76 1.47-10.76-2.76 2.97-10.55 2.97z" fill="#fff" stroke="#263238"/><path d="M279.65 151.94s-1.48 12.06-.18 19.11 6.12 9.83 13.73 7.6 11.5-10.2 11.5-10.2 5.38.56 6.68-2.78-.19-6.68-2.79-6.5-5.38 6.13-7.23 5.2-1.64-7.8-.9-10.21-3.28-4.51-10-5.81-9.61-1-10.16-.62-.65 4.21-.65 4.21z" fill="#fff" stroke="#263238"/><path d="M287.44 157.77s-.37 3.53-1.29 4.27-2.6 1.3-1.49 2a7.43 7.43 0 002.6.93M283.55 167.61a7 7 0 005.56.55 7.9 7.9 0 004.08-3.15" fill="none" stroke="#263238"/></g><path d="M292.45 158.7a1.05 1.05 0 11-1-1.3 1.18 1.18 0 011 1.3zM284.57 157a1.05 1.05 0 11-1-1.3 1.19 1.19 0 011 1.3z" fill="#263238"/><path d="M281.28 152.86s.93-4 4.33-1.54M290.66 152.86a2.46 2.46 0 013.07 2.85" fill="none" stroke="#263238" stroke-linecap="round" stroke-linejoin="round"/><path d="M280.21 148.42s1.11-7.8 3.34-10.95 10.2-5 19.11-1.48 11.13 8.53 10.38 13.17a57.94 57.94 0 01-3.33 10.76s-5.57-6.68-10.95-8.91-18.55-2.59-18.55-2.59z" fill="#ffc100" stroke="#263238" stroke-linecap="round" stroke-linejoin="round"/><path d="M306.68 156.65s-2.69-5.39-11.2-9.13a32.48 32.48 0 00-20.54-1.86c-3.94 1-8.3 3.32-4.77 5.39s4.15-1 12.24.42 24.9 6.63 24.9 6.63z" fill="#ffc100" stroke="#263238" stroke-linecap="round" stroke-linejoin="round"/><path d="M280.54 151.05s-11-2.7-11.41-1.24 4.98 3.32 11.41 1.24zM293.57 224.66l-4.08-12.62-30.24-2.41 11.5 36.73 29.68 5.38zM260.32 225.62s1.15 3.32 2.88 4.33 2.17-.29 1.16-1.73a13.79 13.79 0 01-1.59-2.6 1.45 1.45 0 00-2.45 0z" fill="#fff" stroke="#263238" stroke-linecap="round" stroke-linejoin="round"/><path d="M259.74 223.16s-.15 2.31.86 3.18 5.35 1.88 5.49.72.29-1.15-2.45-2a11.63 11.63 0 01-3.9-1.9z" fill="#fff" stroke="#263238" stroke-linecap="round" stroke-linejoin="round"/><path d="M259.59 218.25s-2 3.76-1.3 4.77 7.23 2.45 7.8 1.73-1-2.89-2.45-3.76-4.05-2.74-4.05-2.74z" fill="#fff" stroke="#263238" stroke-linecap="round" stroke-linejoin="round"/><path d="M261.18 215.94s-3.18.29-3.18 2 5.64 5.35 6.5 4.48.44-1.45-.86-3a37.23 37.23 0 01-2.46-3.48zM280.77 211.86l-3.57-.56-.41-4.21-5.56-.96 1.48 4.47-3.82-.6 2.23 5.94 10.76 1.48zM296.91 222.59a41.22 41.22 0 00-8.32-1.09c-1.77 0-9.14 2.57-7.87 3.08s6.35 0 7.11 0a10.35 10.35 0 012.29.52s-4.57.51-5.59.77-5.08 1.54-4.06 2.31 5.08.26 5.08.26l4.31.26a52.32 52.32 0 01-5.84 1c-1.27 0-.51 1.54 1 1.54s6.09.52 6.09.52-4.57 1-4.82 2.05 3.81.52 5.08 0 5.84-3.08 6.85-3.34 3.56-1 3.56-1 9.39 4.11 12.18 6.16 5.08 4.37 9.65 4.37 5.34-3.85 5.34-6.94-4.83-5.14-8.89-5.65-13.2-3.34-16-3.6a66.24 66.24 0 01-7.15-1.22z" fill="#fff" stroke="#263238" stroke-linecap="round" stroke-linejoin="round"/></svg>