<svg viewBox="0 0 500 500" xmlns="http://www.w3.org/2000/svg"><path d="M374.53 50.87h73.88v73.88h-73.88z" fill="#ebebeb"/><path d="M412.7 62.72a2.49 2.49 0 012.51 2.51v1.29a21.31 21.31 0 019.05 3.21 3.12 3.12 0 011.74 2.81 3.21 3.21 0 01-3.27 3.21 3.41 3.41 0 01-1.75-.53 21.41 21.41 0 00-6-2.57v11.22c8.88 2.22 12.68 5.78 12.68 12 0 6.43-5 10.69-12.44 11.39v3.51a2.49 2.49 0 01-2.51 2.51 2.54 2.54 0 01-2.57-2.51v-3.63a25.25 25.25 0 01-12-4.55 3.21 3.21 0 01-1.57-2.81 3.16 3.16 0 013.21-3.21 3.26 3.26 0 011.93.64 20.7 20.7 0 008.64 3.92V89.65c-8.53-2.22-12.5-5.43-12.5-12 0-6.25 5-10.57 12.27-11.16v-1.26a2.54 2.54 0 012.58-2.51zm-2.34 19.92V72.3c-3.74.35-5.61 2.34-5.61 4.91s1.11 3.97 5.61 5.43zm4.64 8.12v10.63c3.74-.41 5.79-2.28 5.79-5.08-.03-2.57-1.32-4.15-5.79-5.55z" fill="#fff"/><path d="M118 302.39a352.34 352.34 0 00-.51-37.48 477 477 0 00-11.74-76.36c-3.27-14.13-7.31-28-11.51-41.9-.12-.41-.79-.3-.68.14 13 48.92 23.65 99.4 22.92 150.25-.21 14.23-1.85 28.2-3.21 42.35 0 .37.59.52.68.14 2.68-12.11 3.55-24.78 4.05-37.14z" fill="#ebebeb"/><path d="M93.56 146.79s-19.68 50-15.27 61.69 13.49 14.25 13.49 14.25-12 17.19-3.63 33.31 27.11 15.37 28.35 33.65c0 0 1.05-76.44-22.94-142.9z" fill="#ebebeb"/><path d="M114.37 258.12a.47.47 0 000-.26c-2.77-34-8.79-67.82-19.09-100.49 0-.09-.19-.06-.17 0q5.85 21.92 10.34 44.07a21.85 21.85 0 00-9.4-5.24c-.06 0-.09.08 0 .1 3.64 1.58 7.13 3.4 9.7 6.49.57 2.89 1.14 5.79 1.67 8.69-4.4-4.92-10.5-7.36-16.6-9.67-.09 0-.13.1 0 .13 6.36 2.59 12.69 5.92 17 11.4q2.25 12.44 4 25a23.71 23.71 0 00-11.74-6.72c-.13 0-.21.17-.07.21a24.7 24.7 0 0111.9 7.62l.07.05q.6 4.41 1.12 8.82a30.4 30.4 0 00-8.23-5c-.08 0-.12.09 0 .13a28.35 28.35 0 018.24 5.45.18.18 0 00.1 0c.33 2.8.65 5.6.94 8.4a40 40 0 00-16.69-11.92.11.11 0 00-.08.2 43.4 43.4 0 0116.45 12.66.38.38 0 00.42.13c.42 4.3.81 8.6 1.12 12.92 0 .06.1.06.1 0q-.56-6.54-1.1-13.17z" fill="#fff"/><path d="M98.55 191.28c-3.41-2.35-7.75-3.35-11.82-3.69a.08.08 0 000 .15c4.24.63 7.8 2.17 11.69 3.82.16.08.28-.18.13-.28zM100.94 244.17a24.93 24.93 0 00-8.87-3c-.11 0-.12.15 0 .17a33.22 33.22 0 018.78 3.08.12.12 0 00.09-.25z" fill="#fff"/><path d="M169.74 209.3A133.74 133.74 0 00147 229.21a81.83 81.83 0 00-16 27.09 202.39 202.39 0 00-11.9 64.79 157.56 157.56 0 003.5 36.44.35.35 0 00.68-.13 204.58 204.58 0 01.36-63.69c3.39-20.66 8.69-43.15 21.83-59.94 7.15-9.14 16.07-16.34 24.89-23.77.45-.39-.14-1-.62-.7z" fill="#ebebeb"/><path d="M122 306.22A122.24 122.24 0 01138.59 285c9.84-9.84 18.13-16.84 19.41-23.35s-9.86-11.3-9.86-11.3 13.62 2.45 17.35-3.27 5.51-38.85 5.51-38.85-24.79 17.7-36.33 42.51S122 306.22 122 306.22z" fill="#ebebeb"/><path d="M162.44 216.72C152 227 141.52 237.88 135.38 251.34a132.58 132.58 0 00-5.48 14.27l-.94 2.94a.34.34 0 00-.05.17 280.36 280.36 0 00-7 30.59c0 .07.09.1.1 0a378.32 378.32 0 013.56-15.58h.15a21.58 21.58 0 016.51-1.65c.14 0 .13-.27 0-.27a24.24 24.24 0 00-6.43 1.18c1.2-4.69 2.5-9.37 4-14a68.8 68.8 0 0114.7-1.92c.05 0 .06-.08 0-.08a55.66 55.66 0 00-14.5 1.26c.26-.79.53-1.57.79-2.36a73.71 73.71 0 019.78-1.66c.06 0 .06-.11 0-.1a46.73 46.73 0 00-9.58 1.16c1.35-4 2.8-7.92 4.42-11.76a71.35 71.35 0 014.68-9.08A61 61 0 01148 243c.08 0 .07-.12 0-.13a21.59 21.59 0 00-7.42.73c1.3-2.1 2.67-4.16 4.14-6.16 5.56-1.23 11.19-2.38 16.88-1.31.1 0 .13-.14 0-.17-5.41-1.42-10.78-.6-16.17.46.59-.78 1.19-1.55 1.8-2.32a37.19 37.19 0 0110.38-1.63c.08 0 .09-.11 0-.11a26.81 26.81 0 00-9.68.86c4.6-5.71 9.67-11.08 14.69-16.38.25-.22.07-.36-.18-.12z" fill="#fff"/><path d="M162.17 239.3a22 22 0 00-4.93-.17c-.2 0-.18.34 0 .35 1.63.05 3.26-.08 4.89 0a.1.1 0 00.04-.18zM144.33 271.42a22.23 22.23 0 00-7.64 1.54c-.06 0 0 .12 0 .11 2.53-.61 5.08-.85 7.63-1.27a.19.19 0 00.01-.38zM139 260.33a16 16 0 00-3.24.29.1.1 0 000 .19 16.06 16.06 0 003.25-.15.17.17 0 00-.01-.33z" fill="#fff"/><path d="M49.33 244.44a112.67 112.67 0 0123 10.85 68.86 68.86 0 0119.19 18.23 170.39 170.39 0 0124.61 49.69 132.89 132.89 0 015.58 30.3.29.29 0 01-.58.05 172 172 0 00-15-51.46c-7.51-15.94-17-32.91-31.52-43.46-7.9-5.75-16.78-9.51-25.63-13.49-.45-.21-.12-.87.35-.71z" fill="#ebebeb"/><path d="M110.38 311.84A103.4 103.4 0 0092 298.5c-10.24-5.69-18.57-9.44-21.11-14.41s5.37-11.43 5.37-11.43-10.46 5.13-14.8 1.37S48 243.88 48 243.88s24.15 8.59 39.23 26 23.15 41.96 23.15 41.96z" fill="#ebebeb"/><path d="M109.12 306.39c-12.12-22.67-28.2-43.17-50.28-56.71A111.53 111.53 0 0175 262.34a25.65 25.65 0 00-13 2.74c-.09.05 0 .17.07.14A35.41 35.41 0 0175.44 263a.28.28 0 00.15-.06c.78.75 1.55 1.5 2.32 2.27a40.6 40.6 0 00-6.94.92c-.06 0 0 .1 0 .09a35.34 35.34 0 017.33-.6 152.57 152.57 0 0111.39 12.93 11.66 11.66 0 00-4.85.35.1.1 0 000 .19 25.64 25.64 0 015.18-.08c.66.85 1.33 1.68 2 2.54a46.76 46.76 0 00-14.66 1.42c-.07 0 0 .13 0 .11a59.44 59.44 0 0115.06-1c.61.82 1.2 1.66 1.8 2.49a31.71 31.71 0 00-8.72 1c-.11 0-.08.2 0 .17a33.38 33.38 0 019-.7c2.6 3.58 5.09 7.24 7.48 10.94a8.14 8.14 0 00-3.83.23.06.06 0 000 .11 16.38 16.38 0 014.14.19q3.22 5 6.23 10.13c.29.27.76.06.6-.25z" fill="#fff"/><path d="M90.33 287.59a18.79 18.79 0 00-7 .86c-.06 0 0 .12 0 .1a54.66 54.66 0 017-.71c.14-.01.17-.24 0-.25zM69.27 260a12.13 12.13 0 00-3.24.19c-.13 0-.09.21 0 .19 1.06-.11 2.11-.07 3.17-.1.22-.05.25-.28.07-.28z" fill="#fff"/><path d="M141.52 387.18H87.01l7.77-56.94 1.99-14.6h34.99l1.99 14.6z" fill="#dbdbdb"/><path d="M133.75 330.24H94.78l1.99-14.6h34.99z" fill="#c7c7c7"/><path d="M91.77 310.58h45v12.36h-45z" fill="#dbdbdb"/><path d="M461.28 219.63H434.8v-11.19h26.48zM476.05 205.52h-26.48v-11.19h26.48zM446.5 205.52h-26.48v-11.19h26.48zM65.2 363.95H38.72v-11.19H65.2zM50.43 349.84H23.95v-11.19h26.48zM476.05 363.94h-26.48v-11.19h26.48zM112.43 101.68h26.48v11.19h-26.48zM97.65 115.79h26.48v11.19H97.65z" fill="#ebebeb"/><ellipse cx="259.65" cy="434.98" fill="#ebebeb" rx="198.01" ry="28.49"/><path d="M350.15 73.61v322a17 17 0 01-16.87 17.17H166.71a17 17 0 01-16.86-17.17v-322a17 17 0 0116.86-17.16h166.57a17 17 0 0116.87 17.16z" fill="#263238"/><path d="M339.61 89.78V385c0 9-6.76 16.33-15.09 16.33h-149c-8.35 0-15.11-7.31-15.11-16.33V89.78c0-18.39 6.76-22.45 15.11-22.45h29.85c1.73 0 3.15 2 3.15 4.4v1c0 5.74 3.13 5.76 7 5.76h69c3.87 0 7 0 7-5.76v-1c0-2.44 1.39-4.4 3.15-4.4h29.86c8.32 0 15.08 5.61 15.08 22.45z" fill="#fff"/><path d="M259.41 71.39h-18.83a1.16 1.16 0 01-1.16-1.17 1.16 1.16 0 011.16-1.16h18.83a1.16 1.16 0 011.17 1.16 1.17 1.17 0 01-1.17 1.17z" fill="#fff"/><path d="M321.28 198.71l.2 79.9a8.08 8.08 0 01-8.06 8.11l-126.72.33a8.1 8.1 0 01-8.11-8.07l-.2-79.9a7.53 7.53 0 017.5-7.55l127.84-.33a7.53 7.53 0 017.55 7.51z" fill="#455a64"/><circle cx="293.42" cy="267.42" fill="#37474f" r="7.44" transform="rotate(-81.9 293.41 267.416)"/><path d="M310 267.38a7.44 7.44 0 11-7.46-7.42 7.44 7.44 0 017.46 7.42z" fill="#ffc727"/><rect fill="#ffc727" height="18.54" rx="4.2" transform="rotate(-.15 202.165 214.17)" width="26.82" x="190.44" y="205.21"/><path d="M304.8 215.11h-12.14a5.07 5.07 0 01-5.09-5.07 5.07 5.07 0 015.07-5.09h12.13a5.1 5.1 0 015.1 5.07 5.08 5.08 0 01-5.07 5.09z" fill="#fff"/><path d="M189.52 240.68l-1.1.65a.27.27 0 01-.37-.09.26.26 0 01.1-.37l1.5-.91a.29.29 0 01.37.1.34.34 0 010 .2v7.14a.27.27 0 01-.53 0zM192 247.19l3.62-3.29a2 2 0 00.67-1.49 1.94 1.94 0 00-.53-1.33 2 2 0 00-1.48-.66 2 2 0 00-1.35.52l-.38.34a.25.25 0 01-.38 0 .25.25 0 010-.37l.38-.36a2.58 2.58 0 011.72-.66 2.55 2.55 0 012.54 2.53 2.54 2.54 0 01-.83 1.89l-3.1 2.82h3.68a.27.27 0 01.26.28.26.26 0 01-.26.26h-4.34a.26.26 0 01-.2-.08.29.29 0 01-.02-.4zM203.23 240.35l-2 2.07a2.63 2.63 0 011.34 4.44 2.67 2.67 0 01-1.87.78 2.55 2.55 0 01-1.86-.77.28.28 0 01.39-.39 2.08 2.08 0 001.47.6 2.11 2.11 0 001.47-.61 2.07 2.07 0 00.61-1.48 2 2 0 00-.61-1.46 2.05 2.05 0 00-1.47-.61.27.27 0 01-.22-.11.28.28 0 010-.4l1.93-2h-3a.27.27 0 01-.27-.28.26.26 0 01.27-.27H203a.28.28 0 01.28.27.28.28 0 010 .13.41.41 0 01-.05.09zM209.77 246h-4.24a.25.25 0 01-.17-.05.26.26 0 010-.38l4.48-5.62a.26.26 0 01.38 0 .28.28 0 01.09.13v5.38h.52a.27.27 0 110 .54h-.52v1.33a.27.27 0 01-.28.27.27.27 0 01-.26-.27zm0-.53v-4.56l-3.67 4.57zM219.53 246.83a.26.26 0 010-.39.28.28 0 01.4 0 2.09 2.09 0 003.55-1.49 2.1 2.1 0 00-.61-1.48 2.1 2.1 0 00-2.94 0 .27.27 0 01-.39 0 .13.13 0 01-.07-.09.25.25 0 010-.09.43.43 0 000-.05l.37-3.14a.22.22 0 01.11-.2.23.23 0 01.18-.07h3.62a.27.27 0 01.28.28.27.27 0 01-.28.28h-3.39l-.27 2.31a2.67 2.67 0 011.32-.36A2.61 2.61 0 01224 245a2.61 2.61 0 01-.76 1.87 2.7 2.7 0 01-1.87.77 2.63 2.63 0 01-1.84-.81zM226.92 241.5a3.16 3.16 0 012.72-1.7.27.27 0 01.28.25.29.29 0 01-.27.29 2.65 2.65 0 00-2.26 1.42 5 5 0 00-.55 1.56 2.51 2.51 0 011.92-.88 2.57 2.57 0 11-2.56 2.66 2.85 2.85 0 010-.51 6.42 6.42 0 01.72-3.09zm-.18 3.55a.68.68 0 000 .15.15.15 0 010 .07 2.08 2.08 0 100-.26zM234.18 247.18l2.86-6.83h-3.76a.27.27 0 010-.54h4.11a.32.32 0 01.17 0 .35.35 0 01.15.17.24.24 0 010 .09.19.19 0 010 .14l-3 7.17a.27.27 0 01-.24.17.14.14 0 01-.11 0 .28.28 0 01-.18-.37zM241.85 239.76a1.62 1.62 0 011 2.92 2.52 2.52 0 11-3.47 2.34 2.55 2.55 0 011.55-2.34 1.63 1.63 0 01-.65-1.31 1.6 1.6 0 011.57-1.61zm0 7.24a2 2 0 000-4 2 2 0 00-2 2 2 2 0 002.02 2zm0-4.53a1.12 1.12 0 001.09-1.11 1.09 1.09 0 00-2.17 0 1.1 1.1 0 001.08 1.11zM255.68 239.72a2.56 2.56 0 012.56 2.26v.72a6.51 6.51 0 01-.74 3.11 3.2 3.2 0 01-2.72 1.69.26.26 0 01-.28-.25.28.28 0 01.27-.29 2.66 2.66 0 002.26-1.42 4.83 4.83 0 00.55-1.56 2.5 2.5 0 01-1.93.86 2.56 2.56 0 110-5.12zm2 2.55a2 2 0 10-2 2 2 2 0 002.04-2zM260.24 243.6a5 5 0 01.74-2.73 2.4 2.4 0 011.94-1.17 2.45 2.45 0 011.95 1.16 5 5 0 01.76 2.72 5 5 0 01-.75 2.72 2.2 2.2 0 01-3.89 0 4.88 4.88 0 01-.75-2.7zm.54 0a4.42 4.42 0 00.67 2.41 1.65 1.65 0 003 0 4.64 4.64 0 000-4.82 1.66 1.66 0 00-3 0 4.43 4.43 0 00-.67 2.41zM269.22 240.47l-1.1.65a.29.29 0 01-.13 0 .29.29 0 01-.24-.14.25.25 0 01.1-.36l1.5-.92a.29.29 0 01.37.1.35.35 0 010 .2v7.15a.27.27 0 01-.53 0zM271.68 247l3.62-3.29a2 2 0 00.67-1.49 2 2 0 00-.53-1.33 2 2 0 00-1.48-.65 2 2 0 00-1.35.51l-.38.35a.27.27 0 01-.37-.39l.38-.36a2.63 2.63 0 011.72-.66 2.49 2.49 0 011.87.83 2.46 2.46 0 01.67 1.7 2.54 2.54 0 01-.83 1.89l-3.1 2.82h3.68a.27.27 0 01.26.28.27.27 0 01-.26.27h-4.38a.23.23 0 01-.2-.08.29.29 0 01.01-.4zM289.59 240.12l-2 2.07a2.59 2.59 0 011.33.71 2.64 2.64 0 01.77 1.87 2.59 2.59 0 01-.77 1.87 2.65 2.65 0 01-1.87.78 2.59 2.59 0 01-1.85-.77.26.26 0 010-.39.27.27 0 01.39 0 2.09 2.09 0 003.56-1.49 2 2 0 00-.62-1.47 2 2 0 00-1.47-.6.29.29 0 01-.22-.12.28.28 0 010-.4l1.93-2h-3a.27.27 0 01-.28-.28.28.28 0 01.28-.28h3.63a.27.27 0 01.28.28.24.24 0 010 .12.28.28 0 01-.09.1zM296.14 245.8h-4.25a.2.2 0 01-.16-.06.25.25 0 010-.38l4.49-5.61a.26.26 0 01.38 0 .67.67 0 01.09.14v5.37h.52a.27.27 0 110 .53h-.52v1.34a.29.29 0 01-.28.27.28.28 0 01-.27-.27zm0-.54v-4.56l-3.66 4.57zM299.23 246.62a.26.26 0 010-.39.28.28 0 01.4 0 2.12 2.12 0 001.47.6 2.08 2.08 0 100-4.16 2 2 0 00-1.47.62.27.27 0 01-.39 0 .18.18 0 01-.07-.09.22.22 0 010-.09.43.43 0 000-.05l.37-3.14a.23.23 0 01.11-.2.26.26 0 01.18-.06h3.62a.27.27 0 01.28.27.27.27 0 01-.28.28H300l-.27 2.31a2.78 2.78 0 011.32-.36 2.63 2.63 0 012.63 2.63 2.61 2.61 0 01-.76 1.87 2.7 2.7 0 01-1.87.77 2.63 2.63 0 01-1.82-.81zM306.62 241.29a3.16 3.16 0 012.72-1.7.28.28 0 01.28.26.29.29 0 01-.27.29 2.62 2.62 0 00-2.26 1.41 5.08 5.08 0 00-.55 1.56 2.56 2.56 0 11-.64 1.78 2.8 2.8 0 010-.51 6.44 6.44 0 01.72-3.09zm-.18 3.56a.59.59 0 000 .14.19.19 0 010 .08 2.09 2.09 0 100-.27z" fill="#f8f8f8"/><g fill="#263238"><path d="M190.562 261.01l67.86-.177.009 3.33-67.86.177zM190.582 268.42l48.04-.126.008 3.33-48.04.126zM248.51 205.74h33.84v3.33h-33.84zM179.47 175.31a.26.26 0 01.25-.25h2.07a2.09 2.09 0 010 4.17h-1.81v2.87a.26.26 0 01-.26.25.26.26 0 01-.25-.25zm2.32 3.43a1.59 1.59 0 000-3.17H180v3.17zM189.74 177.51v4.61a.26.26 0 01-.25.25.25.25 0 01-.25-.25v-.76a2.41 2.41 0 01-1.92 1 2.56 2.56 0 010-5.12 2.38 2.38 0 011.92 1v-.75a.25.25 0 01.25-.26.26.26 0 01.25.28zm-.5 2.3a1.92 1.92 0 10-1.92 2.06 2 2 0 001.92-2.06zM191.81 177.49a.24.24 0 01.24-.24.25.25 0 01.26.24v2.78a1.57 1.57 0 001.56 1.58 1.59 1.59 0 001.59-1.58v-2.78a.17.17 0 010-.12.3.3 0 01.1-.07h.11l.13.06a.24.24 0 01.06.08.19.19 0 010 .1V182a2.4 2.4 0 01-2.43 2.4 2.45 2.45 0 01-1.05-.24.25.25 0 01-.11-.33.26.26 0 01.32-.13 1.89 1.89 0 00.84.2 1.91 1.91 0 001.93-1.9v-.33a2.12 2.12 0 01-1.59.73 2.09 2.09 0 01-2.06-2.09zM205.69 179.34a1.58 1.58 0 10-3.16 0v2.86a.28.28 0 01-.12.14h-.27v-2.84a1.58 1.58 0 10-3.15 0v2.79a.22.22 0 01-.12.2h-.16a.26.26 0 01-.21-.19v-4.67a.25.25 0 11.49 0v.37a2 2 0 011.57-.74 2.06 2.06 0 011.83 1.09 2.12 2.12 0 011.84-1.09 2.08 2.08 0 012.08 2.08v2.79a.25.25 0 01-.26.24.25.25 0 01-.24-.24zM207.94 179.82a2.48 2.48 0 014.95-.19.24.24 0 01-.25.23h-4.19a2 2 0 002 2 1.94 1.94 0 001.65-.93.23.23 0 01.33-.08.26.26 0 01.09.35 2.44 2.44 0 01-2.07 1.16 2.52 2.52 0 01-2.51-2.54zm.54-.41h3.87a2 2 0 00-1.92-1.65 2 2 0 00-1.95 1.65zM218.32 179.34a1.57 1.57 0 00-1.57-1.57 1.6 1.6 0 00-1.59 1.57v2.82a.31.31 0 010 .12.23.23 0 01-.19.09h-.06a.26.26 0 01-.17-.14v-4.68a.25.25 0 11.49 0v.45a2.07 2.07 0 013.66 1.33v2.78a.25.25 0 01-.25.25.25.25 0 01-.25-.25zM222.86 177.51a.28.28 0 01-.25.25H222v3.72a.4.4 0 00.38.38.26.26 0 110 .51.87.87 0 01-.9-.89v-3.72h-.64c-.25 0-.25-.13-.25-.25s0-.26.25-.26h.64v-1.9a.27.27 0 01.25-.25.29.29 0 01.27.25v1.9h.66a.28.28 0 01.2.26zM235.7 179.34a1.61 1.61 0 00-1.59-1.58 1.59 1.59 0 00-1.57 1.58v2.86a.29.29 0 01-.13.14.27.27 0 01-.12 0h-.14v-2.84a1.58 1.58 0 10-3.16 0v2.79a.23.23 0 01-.11.2H228.71a.28.28 0 01-.21-.19v-4.67a.25.25 0 01.24-.25.24.24 0 01.25.25v.37a2.06 2.06 0 011.58-.74 2.09 2.09 0 011.83 1.09 2.1 2.1 0 011.83-1.09 2.08 2.08 0 012.08 2.08v2.79a.25.25 0 01-.25.24.25.25 0 01-.24-.24zM238 179.82a2.48 2.48 0 015-.19.24.24 0 01-.25.23h-4.2a2 2 0 002 2 1.92 1.92 0 001.64-.93.24.24 0 01.34-.08.26.26 0 01.08.35 2.44 2.44 0 01-2.06 1.16 2.52 2.52 0 01-2.55-2.54zm.53-.41h3.88a2 2 0 00-1.92-1.65 2 2 0 00-2.01 1.65zM246 177.51a.27.27 0 01-.25.25h-.65v3.72a.4.4 0 00.37.38.26.26 0 110 .51.88.88 0 01-.9-.89v-3.72H244c-.25 0-.25-.13-.25-.25s0-.26.25-.26h.63v-1.9a.28.28 0 01.25-.25.29.29 0 01.28.25v1.9h.65a.27.27 0 01.19.26zM252 179.27a1.63 1.63 0 00-3.25 0v2.88a.23.23 0 01-.16.13h-.07a.3.3 0 01-.2-.08v-.09a.22.22 0 010-.08v-6.81a.25.25 0 01.25-.25.26.26 0 01.26.25V178a2.12 2.12 0 011.62-.76 2 2 0 012.14 2v2.85a.26.26 0 01-.26.25.25.25 0 01-.25-.25zM256.81 177.25a2.56 2.56 0 11-2.42 2.56 2.5 2.5 0 012.42-2.56zm0 4.62a2.07 2.07 0 10-1.92-2.06 2 2 0 001.92 2.06zM265.25 181.38a2.45 2.45 0 01-2 1 2.56 2.56 0 010-5.12 2.44 2.44 0 012 1v-2.95a.26.26 0 01.51 0v6.81a.26.26 0 01-.51 0zm0-1.47v-.17a2 2 0 100 .17zM181.36 126.41h-2.2a.25.25 0 01-.25-.26.25.25 0 01.25-.25h4.91a.26.26 0 01.25.25.26.26 0 01-.25.26h-2.21V133a.25.25 0 01-.25.25.25.25 0 01-.25-.25zM186.9 128.1a2.56 2.56 0 11-2.42 2.55 2.5 2.5 0 012.42-2.55zm0 4.61a2.07 2.07 0 10-1.92-2.06 2 2 0 001.92 2.06zM192.83 128.35a.27.27 0 01-.25.25h-.66v3.72a.4.4 0 00.38.38.29.29 0 01.26.26.28.28 0 01-.26.25.88.88 0 01-.9-.89v-3.72h-.64c-.25 0-.25-.13-.25-.25s0-.25.25-.25h.64v-1.9a.27.27 0 01.25-.25.27.27 0 01.27.25v1.9h.66a.26.26 0 01.25.25zM199.2 128.35V133a.25.25 0 01-.5 0v-.76a2.41 2.41 0 01-1.92 1 2.56 2.56 0 010-5.11 2.37 2.37 0 011.92 1v-.75a.25.25 0 11.5 0zm-.5 2.3a1.92 1.92 0 10-1.92 2.06 2 2 0 001.92-2.06zM201.59 126.15a.26.26 0 01.25-.25.27.27 0 01.27.25V133a.26.26 0 01-.27.25.25.25 0 01-.25-.25zM207.26 130.74v-2.39a.25.25 0 01.25-.25.26.26 0 01.26.25v.74a2.38 2.38 0 011.94-1 2.54 2.54 0 010 5.08 2.39 2.39 0 01-1.94-1v2.92a.26.26 0 01-.26.25.25.25 0 01-.25-.25zm.51-.11a2 2 0 103.9 0 2 2 0 10-3.9-.08zM214.15 128.36a.25.25 0 11.5 0v1.12a.75.75 0 01.07-.12 2.47 2.47 0 012.05-1.25.25.25 0 01.25.25.26.26 0 01-.25.25 1.82 1.82 0 00-1.48.83 4.37 4.37 0 00-.62 1.19.16.16 0 000 .09V133a.25.25 0 11-.5 0zM218.74 126.68a.25.25 0 01.25-.25.25.25 0 01.26.25v.24a.27.27 0 01-.26.27.27.27 0 01-.25-.27zm0 1.67a.25.25 0 01.25-.25.24.24 0 01.26.25V133a.25.25 0 01-.26.25.25.25 0 01-.25-.25zM221.3 130.64a2.64 2.64 0 014.26-2 .22.22 0 010 .34.25.25 0 01-.34.05 2.08 2.08 0 10-1.32 3.66 2.19 2.19 0 001.32-.45.26.26 0 01.34 0 .24.24 0 01-.05.37 2.66 2.66 0 01-1.61.54 2.58 2.58 0 01-2.6-2.51zM227.11 130.66a2.48 2.48 0 014.95-.18.24.24 0 01-.25.23h-4.2a2 2 0 002 2 1.93 1.93 0 001.65-.93.24.24 0 01.34-.08.27.27 0 01.08.35 2.44 2.44 0 01-2.07 1.16 2.52 2.52 0 01-2.5-2.55zm.53-.4h3.87a2 2 0 00-1.92-1.66 2 2 0 00-1.95 1.66z"/></g><path d="M185.43 140a.9.9 0 01.9.9v.46a7.66 7.66 0 013.24 1.15 1.12 1.12 0 01.62 1 1.15 1.15 0 01-1.17 1.15 1.12 1.12 0 01-.62-.19 7.79 7.79 0 00-2.16-.92v4c3.18.8 4.54 2.07 4.54 4.31s-1.8 3.82-4.45 4.07v1.26a.89.89 0 01-.9.89.91.91 0 01-.92-.89v-1.3a9 9 0 01-4.28-1.63 1.15 1.15 0 01.58-2.15 1.12 1.12 0 01.69.23 7.4 7.4 0 003.09 1.4v-4.12c-3.05-.79-4.47-1.94-4.47-4.3s1.78-3.78 4.39-4v-.44a.91.91 0 01.92-.88zm-.84 7.13v-3.7c-1.33.12-2 .83-2 1.75s.41 1.38 2 1.91zm1.65 2.9v3.8c1.34-.14 2.07-.81 2.07-1.82s-.46-1.52-2.07-2.01zM202.72 150.93a5 5 0 11-7.75-4.16 3.35 3.35 0 01-.69-2.07 3.45 3.45 0 016.9 0 3.35 3.35 0 01-.69 2.07 5 5 0 012.23 4.16zm-2.27 0a2.73 2.73 0 00-2.7-2.72 2.71 2.71 0 100 5.41 2.7 2.7 0 002.7-2.69zm-3.89-6.23a1.17 1.17 0 102.34 0 1.17 1.17 0 00-2.34 0zM206 146.33a5.07 5.07 0 0110.12-.52V147a12.33 12.33 0 01-.73 4.29 7.34 7.34 0 01-2.7 3.57 6 6 0 01-3.13 1 1.16 1.16 0 01-1.21-1.11 1.2 1.2 0 011.12-1.21 3.85 3.85 0 002-.58 4.27 4.27 0 001.31-1.47 3.91 3.91 0 00.28-.54 5 5 0 01-2 .42 5.07 5.07 0 01-5.06-5.04zm2.32 0a2.75 2.75 0 105.5 0 2.75 2.75 0 00-5.5 0zM219.46 157.78a1.8 1.8 0 001.42-1.88 1.53 1.53 0 01-1.2-1.42v-.17a1.36 1.36 0 011.43-1.4c.94 0 1.5.71 1.5 1.84v.25a4.19 4.19 0 01-1 3.05 3.15 3.15 0 01-2 .9.58.58 0 01-.65-.58.59.59 0 01.5-.59zM224 146.33a5.07 5.07 0 0110.11-.52V147a12.1 12.1 0 01-.73 4.29 7.32 7.32 0 01-2.69 3.57 6 6 0 01-3.14 1 1.17 1.17 0 01-1.21-1.11 1.21 1.21 0 011.13-1.21 3.84 3.84 0 002-.58 4.19 4.19 0 001.32-1.47 3 3 0 00.27-.54 4.91 4.91 0 01-2 .42 5.07 5.07 0 01-5.06-5.04zm2.32 0a2.75 2.75 0 105.49 0 2.75 2.75 0 00-5.49 0zM237.44 146.33a5.07 5.07 0 0110.11-.52c0 .4.05.8.05 1.19a12.11 12.11 0 01-.74 4.29 7.26 7.26 0 01-2.69 3.57 6 6 0 01-3.13 1 1.17 1.17 0 01-1.22-1.11 1.21 1.21 0 011.13-1.21 3.88 3.88 0 002-.58 4.27 4.27 0 001.31-1.47 3 3 0 00.27-.54 4.91 4.91 0 01-2 .42 5.07 5.07 0 01-5.09-5.04zm2.32 0a2.75 2.75 0 105.49 0 2.75 2.75 0 00-5.49 0z" fill="#ffc727"/><path d="M214.83 98.3a.25.25 0 01.25-.25h2.06a2.08 2.08 0 110 4.16h-1.8v2.87a.26.26 0 01-.26.26.26.26 0 01-.25-.26zm2.31 3.42a1.58 1.58 0 100-3.16h-1.8v3.16zM225.09 100.49v4.61a.26.26 0 01-.25.26.26.26 0 01-.25-.26v-.76a2.39 2.39 0 01-1.92 1 2.56 2.56 0 010-5.12 2.4 2.4 0 011.92 1v-.75a.25.25 0 01.25-.25.24.24 0 01.25.27zm-.5 2.31a1.92 1.92 0 10-1.92 2 2 2 0 001.92-2zM227.16 100.48a.25.25 0 01.5 0v2.78a1.58 1.58 0 003.15 0v-2.78a.24.24 0 01.05-.13.18.18 0 01.09-.06h.12l.12.05a.2.2 0 01.06.09.14.14 0 010 .1V105a2.42 2.42 0 01-2.44 2.4 2.65 2.65 0 01-1-.24.25.25 0 01-.1-.34.27.27 0 01.32-.12 2 2 0 00.83.2 1.92 1.92 0 001.93-1.9v-.34a2.07 2.07 0 01-3.65-1.35zM241.05 102.33a1.61 1.61 0 00-1.59-1.59 1.59 1.59 0 00-1.57 1.59v2.82a.25.25 0 01-.12.13.28.28 0 01-.13 0h-.05-.06v-2.84a1.58 1.58 0 10-3.15 0v2.78a.22.22 0 01-.11.2h-.13a.31.31 0 01-.21-.19v-4.68a.24.24 0 01.24-.24.23.23 0 01.25.24v.45a2.07 2.07 0 013.4.36 2.13 2.13 0 011.84-1.09 2.08 2.08 0 012.08 2.08v2.78a.25.25 0 01-.25.25.25.25 0 01-.24-.25zM243.3 102.81a2.48 2.48 0 014.95-.19.24.24 0 01-.25.23h-4.2a2 2 0 002 2 1.92 1.92 0 001.65-.92.25.25 0 01.34-.09.28.28 0 01.08.36 2.44 2.44 0 01-2.07 1.16 2.51 2.51 0 01-2.5-2.55zm.53-.41h3.87a2 2 0 00-1.92-1.66 2 2 0 00-1.95 1.66zM253.68 102.33a1.58 1.58 0 00-1.58-1.58 1.61 1.61 0 00-1.59 1.58v2.82a.22.22 0 010 .11.23.23 0 01-.19.1h-.06a.32.32 0 01-.16-.14v-4.72a.25.25 0 01.25-.25.25.25 0 01.24.25v.5a2.08 2.08 0 013.67 1.34v2.77a.26.26 0 01-.25.26.25.25 0 01-.25-.26zM258.21 100.49a.26.26 0 01-.25.25h-.66v3.73a.39.39 0 00.38.37.3.3 0 01.26.26.29.29 0 01-.26.26.88.88 0 01-.9-.89v-3.73h-.64c-.25 0-.25-.12-.25-.25s0-.25.25-.25h.64v-1.9a.27.27 0 01.25-.25.27.27 0 01.27.25v1.9h.7a.27.27 0 01.21.25zM264.12 105.36a.27.27 0 01-.23-.26v-6.8a.25.25 0 01.25-.25h1.37a3.66 3.66 0 010 7.31zm1.35-.52a3.14 3.14 0 100-6.28h-1.11v6.28zM274.6 100.49v4.61a.26.26 0 01-.25.26.26.26 0 01-.25-.26v-.76a2.39 2.39 0 01-1.93 1 2.56 2.56 0 010-5.12 2.4 2.4 0 011.93 1v-.75a.24.24 0 01.25-.25.25.25 0 01.25.27zm-.5 2.31a1.93 1.93 0 10-1.93 2 2 2 0 001.93-2zM278.56 100.49a.27.27 0 01-.25.25h-.66v3.73a.39.39 0 00.37.37.3.3 0 01.27.26.29.29 0 01-.27.26.87.87 0 01-.89-.89v-3.73h-.64c-.25 0-.25-.12-.25-.25s0-.25.25-.25h.64v-1.9a.26.26 0 01.25-.25.28.28 0 01.27.25v1.9h.66a.28.28 0 01.25.25zM284.93 100.49v4.61a.26.26 0 01-.25.26.26.26 0 01-.25-.26v-.76a2.39 2.39 0 01-1.93 1 2.56 2.56 0 010-5.12 2.4 2.4 0 011.93 1v-.75a.24.24 0 01.25-.25.25.25 0 01.25.27zm-.5 2.31a1.93 1.93 0 10-1.93 2 2 2 0 001.93-2z" fill="#263238"/><path d="M184.04 104.69l-3.45-3.23 3.45-3.24.71.76-2.64 2.48 2.64 2.47z" fill="#ffc727"/><path d="M183.46 107.05a5.6 5.6 0 115.6-5.59 5.6 5.6 0 01-5.6 5.59zm0-10.14a4.55 4.55 0 104.55 4.55 4.55 4.55 0 00-4.55-4.55z" fill="#ffc727"/><circle cx="316.51" cy="286.09" fill="#ffc727" r="11.27"/><path d="M313.3 293.31l-4.22-6.59 1.76-1.12 2.65 4.14 8.26-10.33 1.63 1.3z" fill="#fff"/><path d="M253.23 297.89a3.3 3.3 0 11-3.29-3.29 3.29 3.29 0 013.29 3.29z" fill="#ffc727"/><path d="M234.68 297.89a2.43 2.43 0 11-2.43-2.43 2.43 2.43 0 012.43 2.43zM270.18 297.89a2.43 2.43 0 11-2.43-2.43 2.43 2.43 0 012.43 2.43z" fill="#ebebeb"/><path d="M179.14 321.11a.22.22 0 01.32 0 4 4 0 002.4.94 2.77 2.77 0 001.61-.48 1.34 1.34 0 00.63-1.08 1.18 1.18 0 00-.6-1 4.67 4.67 0 00-1.69-.59 4.53 4.53 0 01-1.72-.62 1.51 1.51 0 01-.75-1.27 1.72 1.72 0 01.76-1.37 3 3 0 011.76-.53 4 4 0 012.26.85.23.23 0 01.06.32.21.21 0 01-.31.06 3.69 3.69 0 00-2-.77 2.63 2.63 0 00-1.49.44 1.24 1.24 0 00-.57 1 1 1 0 00.54.89 4.16 4.16 0 001.56.55 5.1 5.1 0 011.85.67 1.64 1.64 0 01.81 1.38 1.86 1.86 0 01-.83 1.46 3.25 3.25 0 01-1.88.57 4.58 4.58 0 01-2.69-1.05.26.26 0 01-.03-.37zM190.61 317.62v4.61a.25.25 0 01-.25.25.25.25 0 01-.25-.25v-.76a2.35 2.35 0 01-1.92 1 2.56 2.56 0 010-5.11 2.34 2.34 0 011.92 1v-.75a.25.25 0 01.25-.25.24.24 0 01.25.26zm-.5 2.3a1.92 1.92 0 10-1.92 2.06 2 2 0 001.92-2.06zM194.22 322.44a.31.31 0 01-.08-.11l-1.92-4.58a.25.25 0 01.12-.32.24.24 0 01.32.13l1.71 4 1.7-4a.25.25 0 01.32-.13.24.24 0 01.13.32l-1.91 4.53a.33.33 0 01-.07.13.21.21 0 01-.16.07h-.11zM198 319.94a2.48 2.48 0 015-.19.24.24 0 01-.25.23h-4.2a2 2 0 002 2 1.9 1.9 0 001.64-.93.26.26 0 01.34-.08.27.27 0 01.08.35 2.44 2.44 0 01-2.06 1.16 2.52 2.52 0 01-2.55-2.54zm.53-.41h3.88a2 2 0 00-3.88 0zM207.47 319.91a2.57 2.57 0 012.63-2.54 2.66 2.66 0 011.63.56.22.22 0 010 .34.25.25 0 01-.34.05 2.06 2.06 0 00-1.32-.46 2.06 2.06 0 100 4.12 2.17 2.17 0 001.32-.45.26.26 0 01.34 0 .24.24 0 010 .37 2.66 2.66 0 01-1.61.54 2.58 2.58 0 01-2.65-2.53zM218.09 317.62v4.61a.25.25 0 01-.25.25.25.25 0 01-.25-.25v-.76a2.36 2.36 0 01-1.92 1 2.56 2.56 0 010-5.11 2.35 2.35 0 011.92 1v-.75a.25.25 0 01.25-.25.24.24 0 01.25.26zm-.5 2.3a1.92 1.92 0 10-1.92 2.06 2 2 0 001.92-2.06zM220.27 317.63a.25.25 0 11.5 0v1.13a.54.54 0 01.07-.13 2.47 2.47 0 012-1.25.25.25 0 01.25.25.26.26 0 01-.25.25 1.82 1.82 0 00-1.48.83 4.37 4.37 0 00-.62 1.19.2.2 0 000 .09v2.24a.25.25 0 11-.5 0zM228.68 321.49a2.39 2.39 0 01-2 1 2.56 2.56 0 010-5.11 2.4 2.4 0 012 1v-2.95a.26.26 0 01.27-.24.25.25 0 01.25.24v6.81a.25.25 0 01-.25.25.26.26 0 01-.27-.25zm0-1.47v-.17a2 2 0 100 .17zM238.27 319.45a1.57 1.57 0 00-1.57-1.57 1.6 1.6 0 00-1.59 1.57v2.82a.26.26 0 01-.05.12.23.23 0 01-.19.09h-.06a.26.26 0 01-.17-.13v-4.68a.25.25 0 11.49 0v.49a2.07 2.07 0 013.66 1.33v2.78a.24.24 0 01-.25.25.25.25 0 01-.25-.25zM240.92 317.61a.24.24 0 01.25-.25.25.25 0 01.25.25v2.78a1.58 1.58 0 103.15 0v-2.78a.25.25 0 01.25-.25.24.24 0 01.26.25v2.78a2.08 2.08 0 11-4.16 0zM254.74 319.45a1.61 1.61 0 00-1.59-1.58 1.59 1.59 0 00-1.57 1.58v2.86a.23.23 0 01-.13.14.27.27 0 01-.12 0h-.07a.15.15 0 01-.07 0v-2.84a1.58 1.58 0 10-3.16 0v2.79a.22.22 0 01-.11.2H247.75a.27.27 0 01-.21-.19v-4.67a.24.24 0 01.24-.24.23.23 0 01.25.24v.49a2 2 0 011.58-.73 2.1 2.1 0 011.83 1.08 2.11 2.11 0 011.83-1.08 2.08 2.08 0 012.08 2.07v2.79a.24.24 0 01-.25.24.24.24 0 01-.24-.24zM257.36 320v-4.62a.25.25 0 01.25-.24.25.25 0 01.26.24v2.95a2.43 2.43 0 012-1 2.56 2.56 0 010 5.11 2.42 2.42 0 01-2-1v.74a.26.26 0 01-.26.25.25.25 0 01-.25-.25zm.51-.1a2 2 0 100-.09zM263.89 319.94a2.47 2.47 0 114.94-.19.24.24 0 01-.25.23h-4.19a2 2 0 002 2 1.92 1.92 0 001.65-.93.25.25 0 01.33-.08.26.26 0 01.09.35 2.44 2.44 0 01-2.07 1.16 2.51 2.51 0 01-2.5-2.54zm.53-.41h3.87a2 2 0 00-1.92-1.66 2 2 0 00-1.95 1.66zM270.39 317.63a.25.25 0 01.26-.25.24.24 0 01.24.25v1.13a.35.35 0 01.08-.13 2.44 2.44 0 012-1.25.24.24 0 01.25.25.25.25 0 01-.25.25 1.82 1.82 0 00-1.48.83 5 5 0 00-.62 1.19.2.2 0 000 .09v2.24a.24.24 0 01-.24.25.25.25 0 01-.26-.25z" fill="#263238"/><rect fill="#ffc727" height="10.77" opacity=".5" rx="5.15" width="24.33" x="295.14" y="313.61"/><path d="M318.6 319a4.58 4.58 0 11-4.58-4.58 4.58 4.58 0 014.58 4.58zM191.32 349.56h117.22v22.45H191.32z" fill="#ffc727"/><path d="M201.45 356.54a.26.26 0 01.25-.26h2.06a2.09 2.09 0 010 4.17h-1.8v2.87a.26.26 0 01-.26.25.25.25 0 01-.25-.25zm2.31 3.42a1.6 1.6 0 001.58-1.59 1.58 1.58 0 00-1.58-1.57H202v3.2zM207.42 358.74a.25.25 0 01.26-.25.24.24 0 01.24.25v1.13a.35.35 0 01.08-.13 2.44 2.44 0 012-1.25.24.24 0 01.25.25.25.25 0 01-.25.25 1.82 1.82 0 00-1.48.83 4.86 4.86 0 00-.62 1.19.18.18 0 000 .09v2.24a.24.24 0 01-.24.25.25.25 0 01-.26-.25zM213.93 358.48a2.56 2.56 0 11-2.42 2.55 2.5 2.5 0 012.42-2.55zm0 4.61A2.07 2.07 0 10212 361a2 2 0 001.93 2.09zM217.91 361a2.57 2.57 0 012.63-2.54 2.68 2.68 0 011.63.56.25.25 0 010 .35.27.27 0 01-.35 0 2 2 0 00-1.31-.46 2.06 2.06 0 100 4.12 2.14 2.14 0 001.31-.45.27.27 0 01.35 0 .26.26 0 010 .37 2.69 2.69 0 01-1.61.54 2.58 2.58 0 01-2.65-2.49zM223.71 361a2.48 2.48 0 014.95-.18.24.24 0 01-.25.23h-4.19a2 2 0 002 2 1.92 1.92 0 001.65-.93.25.25 0 01.33-.08.26.26 0 01.09.35 2.44 2.44 0 01-2.07 1.16 2.52 2.52 0 01-2.51-2.55zm.54-.4h3.87a2 2 0 00-1.92-1.6 2 2 0 00-1.95 1.64zM230.08 361a2.47 2.47 0 014.94-.18.24.24 0 01-.25.23h-4.19a2 2 0 002 2 1.92 1.92 0 001.65-.93.25.25 0 01.33-.08.26.26 0 01.09.35 2.44 2.44 0 01-2.07 1.16 2.51 2.51 0 01-2.5-2.55zm.53-.4h3.87a2 2 0 00-1.92-1.66 2 2 0 00-1.95 1.7zM240.89 362.6a2.42 2.42 0 01-2 1 2.56 2.56 0 010-5.11 2.43 2.43 0 012 1v-2.94a.26.26 0 01.26-.26.26.26 0 01.25.26v6.8a.25.25 0 01-.25.25.26.26 0 01-.26-.25zm0-1.47V361a2 2 0 100 .17zM248.61 358.73a.27.27 0 01-.25.25h-.66v3.72a.4.4 0 00.38.38.29.29 0 01.26.26.27.27 0 01-.26.25.87.87 0 01-.9-.89V359h-.63c-.25 0-.25-.13-.25-.25s0-.25.25-.25h.63v-1.9a.27.27 0 01.25-.25.27.27 0 01.27.25v1.9h.66a.26.26 0 01.25.23zM253 358.48a2.56 2.56 0 11-2.42 2.55 2.5 2.5 0 012.42-2.55zm0 4.61a2.07 2.07 0 10-1.92-2.06 2 2 0 001.92 2.06zM260.14 361a2.57 2.57 0 012.63-2.54 2.66 2.66 0 011.63.56.24.24 0 010 .35.27.27 0 01-.35 0 2 2 0 00-1.32-.46 2.06 2.06 0 100 4.12 2.15 2.15 0 001.32-.45.27.27 0 01.35 0 .25.25 0 01-.06.37 2.66 2.66 0 01-1.61.54 2.58 2.58 0 01-2.59-2.49zM268.5 358.48a2.56 2.56 0 11-2.42 2.55 2.5 2.5 0 012.42-2.55zm0 4.61a2.07 2.07 0 10-1.92-2.06 2 2 0 001.92 2.06zM276.5 360.56a1.57 1.57 0 00-1.58-1.57 1.6 1.6 0 00-1.58 1.57v2.82a.17.17 0 01-.06.12.21.21 0 01-.18.09h-.1a.26.26 0 01-.16-.13v-4.66a.24.24 0 01.25-.25.25.25 0 01.24.25v.49a2.06 2.06 0 011.58-.74 2.08 2.08 0 012.08 2.07v2.78a.25.25 0 01-.5 0zM281.5 356.56a.25.25 0 01-.25.25.84.84 0 00-.65.19 1.32 1.32 0 00-.2.85v.54h.72a.26.26 0 01.26.25.26.26 0 01-.26.26h-.72v4.45a.25.25 0 01-.25.25.26.26 0 01-.27-.25v-4.45h-.67a.25.25 0 01-.25-.26.25.25 0 01.25-.25h.67v-.54a1.82 1.82 0 01.34-1.19 1.37 1.37 0 011-.37.26.26 0 01.28.27zM283 357.06a.26.26 0 01.51 0v.24a.26.26 0 11-.51 0zm0 1.67a.24.24 0 01.25-.25.24.24 0 01.26.25v4.61a.26.26 0 01-.51 0zM286 358.74a.25.25 0 01.26-.25.24.24 0 01.24.25v1.13l.08-.13a2.44 2.44 0 012-1.25.24.24 0 01.25.25.25.25 0 01-.25.25 1.85 1.85 0 00-1.48.83 4.73 4.73 0 00-.61 1.19.13.13 0 000 .09v2.24a.24.24 0 01-.24.25.25.25 0 01-.26-.25zM297.87 360.56a1.59 1.59 0 00-3.17 0v2.87a.25.25 0 01-.12.13.31.31 0 01-.13 0h-.13v-2.84a1.58 1.58 0 10-3.15 0v2.79a.21.21 0 01-.12.2h-.16a.26.26 0 01-.21-.19v-4.67a.24.24 0 01.24-.24.24.24 0 01.25.24v.49a2 2 0 011.57-.73 2.08 2.08 0 011.83 1.08 2.14 2.14 0 011.84-1.08 2.08 2.08 0 012.08 2.07v2.79a.25.25 0 01-.25.24.24.24 0 01-.24-.24z" fill="#fff"/></svg>