<svg viewBox="0 0 500 500" xmlns="http://www.w3.org/2000/svg"><path d="m374.53 50.87h73.88v73.88h-73.88z" fill="#ebebeb"/><path d="m412.7 62.72a2.49 2.49 0 0 1 2.51 2.51v1.29a21.31 21.31 0 0 1 9.05 3.21 3.12 3.12 0 0 1 1.74 2.81 3.21 3.21 0 0 1 -3.27 3.21 3.41 3.41 0 0 1 -1.75-.53 21.41 21.41 0 0 0 -6-2.57v11.22c8.88 2.22 12.68 5.78 12.68 12 0 6.43-5 10.69-12.44 11.39v3.51a2.49 2.49 0 0 1 -2.51 2.51 2.54 2.54 0 0 1 -2.57-2.51v-3.63a25.25 25.25 0 0 1 -12-4.55 3.21 3.21 0 0 1 -1.57-2.81 3.16 3.16 0 0 1 3.21-3.21 3.26 3.26 0 0 1 1.93.64 20.7 20.7 0 0 0 8.64 3.92v-11.48c-8.53-2.22-12.5-5.43-12.5-12 0-6.25 5-10.57 12.27-11.16v-1.26a2.54 2.54 0 0 1 2.58-2.51zm-2.34 19.92v-10.34c-3.74.35-5.61 2.34-5.61 4.91s1.11 3.97 5.61 5.43zm4.64 8.12v10.63c3.74-.41 5.79-2.28 5.79-5.08-.03-2.57-1.32-4.15-5.79-5.55z" fill="#fff"/><path d="m118 302.39a352.34 352.34 0 0 0 -.51-37.48 477 477 0 0 0 -11.74-76.36c-3.27-14.13-7.31-28-11.51-41.9-.12-.41-.79-.3-.68.14 13 48.92 23.65 99.4 22.92 150.25-.21 14.23-1.85 28.2-3.21 42.35 0 .37.59.52.68.14 2.68-12.11 3.55-24.78 4.05-37.14z" fill="#ebebeb"/><path d="m93.56 146.79s-19.68 50-15.27 61.69 13.49 14.25 13.49 14.25-12 17.19-3.63 33.31 27.11 15.37 28.35 33.65c0 0 1.05-76.44-22.94-142.9z" fill="#ebebeb"/><path d="m114.37 258.12a.47.47 0 0 0 0-.26c-2.77-34-8.79-67.82-19.09-100.49 0-.09-.19-.06-.17 0q5.85 21.92 10.34 44.07a21.85 21.85 0 0 0 -9.4-5.24c-.06 0-.09.08 0 .1 3.64 1.58 7.13 3.4 9.7 6.49.57 2.89 1.14 5.79 1.67 8.69-4.4-4.92-10.5-7.36-16.6-9.67-.09 0-.13.1 0 .13 6.36 2.59 12.69 5.92 17 11.4q2.25 12.44 4 25a23.71 23.71 0 0 0 -11.74-6.72c-.13 0-.21.17-.07.21a24.7 24.7 0 0 1 11.9 7.62l.07.05q.6 4.41 1.12 8.82a30.4 30.4 0 0 0 -8.23-5c-.08 0-.12.09 0 .13a28.35 28.35 0 0 1 8.24 5.45.18.18 0 0 0 .1 0c.33 2.8.65 5.6.94 8.4a40 40 0 0 0 -16.69-11.92.11.11 0 0 0 -.08.2 43.4 43.4 0 0 1 16.45 12.66.38.38 0 0 0 .42.13c.42 4.3.81 8.6 1.12 12.92 0 .06.1.06.1 0q-.56-6.54-1.1-13.17z" fill="#fff"/><path d="m98.55 191.28c-3.41-2.35-7.75-3.35-11.82-3.69a.08.08 0 0 0 0 .15c4.24.63 7.8 2.17 11.69 3.82.16.08.28-.18.13-.28z" fill="#fff"/><path d="m100.94 244.17a24.93 24.93 0 0 0 -8.87-3c-.11 0-.12.15 0 .17a33.22 33.22 0 0 1 8.78 3.08.12.12 0 0 0 .09-.25z" fill="#fff"/><path d="m169.74 209.3a133.74 133.74 0 0 0 -22.74 19.91 81.83 81.83 0 0 0 -16 27.09 202.39 202.39 0 0 0 -11.9 64.79 157.56 157.56 0 0 0 3.5 36.44.35.35 0 0 0 .68-.13 204.58 204.58 0 0 1 .36-63.69c3.39-20.66 8.69-43.15 21.83-59.94 7.15-9.14 16.07-16.34 24.89-23.77.45-.39-.14-1-.62-.7z" fill="#ebebeb"/><path d="m122 306.22a122.24 122.24 0 0 1 16.59-21.22c9.84-9.84 18.13-16.84 19.41-23.35s-9.86-11.3-9.86-11.3 13.62 2.45 17.35-3.27 5.51-38.85 5.51-38.85-24.79 17.7-36.33 42.51-12.67 55.48-12.67 55.48z" fill="#ebebeb"/><path d="m162.44 216.72c-10.44 10.28-20.92 21.16-27.06 34.62a132.58 132.58 0 0 0 -5.48 14.27c-.32 1-.64 2-.94 2.94a.34.34 0 0 0 -.05.17 280.36 280.36 0 0 0 -7 30.59c0 .07.09.1.1 0 1.07-5.16 2.25-10.38 3.56-15.58h.15a21.58 21.58 0 0 1 6.51-1.65c.14 0 .13-.27 0-.27a24.24 24.24 0 0 0 -6.43 1.18c1.2-4.69 2.5-9.37 4-14a68.8 68.8 0 0 1 14.7-1.92c.05 0 .06-.08 0-.08a55.66 55.66 0 0 0 -14.5 1.26c.26-.79.53-1.57.79-2.36a73.71 73.71 0 0 1 9.78-1.66c.06 0 .06-.11 0-.1a46.73 46.73 0 0 0 -9.58 1.16c1.35-4 2.8-7.92 4.42-11.76a71.35 71.35 0 0 1 4.68-9.08 61 61 0 0 1 7.91-1.45c.08 0 .07-.12 0-.13a21.59 21.59 0 0 0 -7.42.73c1.3-2.1 2.67-4.16 4.14-6.16 5.56-1.23 11.19-2.38 16.88-1.31.1 0 .13-.14 0-.17-5.41-1.42-10.78-.6-16.17.46.59-.78 1.19-1.55 1.8-2.32a37.19 37.19 0 0 1 10.38-1.63c.08 0 .09-.11 0-.11a26.81 26.81 0 0 0 -9.68.86c4.6-5.71 9.67-11.08 14.69-16.38.25-.22.07-.36-.18-.12z" fill="#fff"/><path d="m162.17 239.3a22 22 0 0 0 -4.93-.17c-.2 0-.18.34 0 .35 1.63.05 3.26-.08 4.89 0a.1.1 0 0 0 .04-.18z" fill="#fff"/><path d="m144.33 271.42a22.23 22.23 0 0 0 -7.64 1.54c-.06 0 0 .12 0 .11 2.53-.61 5.08-.85 7.63-1.27a.19.19 0 0 0 .01-.38z" fill="#fff"/><path d="m139 260.33a16 16 0 0 0 -3.24.29.1.1 0 0 0 0 .19 16.06 16.06 0 0 0 3.25-.15.17.17 0 0 0 -.01-.33z" fill="#fff"/><path d="m49.33 244.44a112.67 112.67 0 0 1 23 10.85 68.86 68.86 0 0 1 19.19 18.23 170.39 170.39 0 0 1 24.61 49.69 132.89 132.89 0 0 1 5.58 30.3.29.29 0 0 1 -.58.05 172 172 0 0 0 -15-51.46c-7.51-15.94-17-32.91-31.52-43.46-7.9-5.75-16.78-9.51-25.63-13.49-.45-.21-.12-.87.35-.71z" fill="#ebebeb"/><path d="m110.38 311.84a103.4 103.4 0 0 0 -18.38-13.34c-10.24-5.69-18.57-9.44-21.11-14.41s5.37-11.43 5.37-11.43-10.46 5.13-14.8 1.37-13.46-30.15-13.46-30.15 24.15 8.59 39.23 26 23.15 41.96 23.15 41.96z" fill="#ebebeb"/><path d="m109.12 306.39c-12.12-22.67-28.2-43.17-50.28-56.71a111.53 111.53 0 0 1 16.16 12.66 25.65 25.65 0 0 0 -13 2.74c-.09.05 0 .17.07.14a35.41 35.41 0 0 1 13.37-2.22.28.28 0 0 0 .15-.06c.78.75 1.55 1.5 2.32 2.27a40.6 40.6 0 0 0 -6.94.92c-.06 0 0 .1 0 .09a35.34 35.34 0 0 1 7.33-.6 152.57 152.57 0 0 1 11.39 12.93 11.66 11.66 0 0 0 -4.85.35.1.1 0 0 0 0 .19 25.64 25.64 0 0 1 5.18-.08c.66.85 1.33 1.68 2 2.54a46.76 46.76 0 0 0 -14.66 1.42c-.07 0 0 .13 0 .11a59.44 59.44 0 0 1 15.06-1c.61.82 1.2 1.66 1.8 2.49a31.71 31.71 0 0 0 -8.72 1c-.11 0-.08.2 0 .17a33.38 33.38 0 0 1 9-.7c2.6 3.58 5.09 7.24 7.48 10.94a8.14 8.14 0 0 0 -3.83.23.06.06 0 0 0 0 .11 16.38 16.38 0 0 1 4.14.19q3.22 5 6.23 10.13c.29.27.76.06.6-.25z" fill="#fff"/><path d="m90.33 287.59a18.79 18.79 0 0 0 -7 .86c-.06 0 0 .12 0 .1a54.66 54.66 0 0 1 7-.71c.14-.01.17-.24 0-.25z" fill="#fff"/><path d="m69.27 260a12.13 12.13 0 0 0 -3.24.19c-.13 0-.09.21 0 .19 1.06-.11 2.11-.07 3.17-.1.22-.05.25-.28.07-.28z" fill="#fff"/><path d="m141.52 387.18h-54.51l7.77-56.94 1.99-14.6h34.99l1.99 14.6z" fill="#dbdbdb"/><path d="m133.75 330.24h-38.97l1.99-14.6h34.99z" fill="#c7c7c7"/><path d="m91.77 310.58h45v12.36h-45z" fill="#dbdbdb"/><path d="m434.79 208.44h26.48v11.19h-26.48z" fill="#ebebeb" transform="matrix(-1 0 0 -1 896.07 428.07)"/><path d="m449.56 194.33h26.48v11.19h-26.48z" fill="#ebebeb" transform="matrix(-1 0 0 -1 925.61 399.85)"/><path d="m420.02 194.33h26.48v11.19h-26.48z" fill="#ebebeb" transform="matrix(-1 0 0 -1 866.52 399.85)"/><path d="m38.73 352.76h26.48v11.19h-26.48z" fill="#ebebeb" transform="matrix(-1 0 0 -1 103.93 716.71)"/><path d="m23.96 338.65h26.48v11.19h-26.48z" fill="#ebebeb" transform="matrix(-1 0 0 -1 74.39 688.49)"/><path d="m449.56 352.75h26.48v11.19h-26.48z" fill="#ebebeb" transform="matrix(-1 0 0 -1 925.61 716.69)"/><path d="m112.43 101.68h26.48v11.19h-26.48z" fill="#ebebeb"/><path d="m97.65 115.79h26.48v11.19h-26.48z" fill="#ebebeb"/><ellipse cx="259.65" cy="434.98" fill="#ebebeb" rx="198.01" ry="28.49"/><path d="m350.15 73.61v322a17 17 0 0 1 -16.87 17.17h-166.57a17 17 0 0 1 -16.86-17.17v-322a17 17 0 0 1 16.86-17.16h166.57a17 17 0 0 1 16.87 17.16z" fill="#263238"/><path d="m339.61 89.78v295.22c0 9-6.76 16.33-15.09 16.33h-149c-8.35 0-15.11-7.31-15.11-16.33v-295.22c0-18.39 6.76-22.45 15.11-22.45h29.85c1.73 0 3.15 2 3.15 4.4v1c0 5.74 3.13 5.76 7 5.76h69c3.87 0 7 0 7-5.76v-1c0-2.44 1.39-4.4 3.15-4.4h29.86c8.32 0 15.08 5.61 15.08 22.45z" fill="#fff"/><path d="m259.41 71.39h-18.83a1.16 1.16 0 0 1 -1.16-1.17 1.16 1.16 0 0 1 1.16-1.16h18.83a1.16 1.16 0 0 1 1.17 1.16 1.17 1.17 0 0 1 -1.17 1.17z" fill="#fff"/><path d="m321.28 198.71.2 79.9a8.08 8.08 0 0 1 -8.06 8.11l-126.72.33a8.1 8.1 0 0 1 -8.11-8.07l-.2-79.9a7.53 7.53 0 0 1 7.5-7.55l127.84-.33a7.53 7.53 0 0 1 7.55 7.51z" fill="#455a64"/><circle cx="293.42" cy="267.42" fill="#37474f" r="7.44" transform="matrix(.14090123 -.99002366 .99002366 .14090123 -12.68 520.22)"/><path d="m310 267.38a7.44 7.44 0 1 1 -7.46-7.42 7.44 7.44 0 0 1 7.46 7.42z" fill="#ffc727"/><rect fill="#ffc727" height="18.54" rx="4.2" transform="matrix(.99999657 -.00261799 .00261799 .99999657 -.56 .53)" width="26.82" x="190.44" y="205.21"/><path d="m304.8 215.11h-12.14a5.07 5.07 0 0 1 -5.09-5.07 5.07 5.07 0 0 1 5.07-5.09h12.13a5.1 5.1 0 0 1 5.1 5.07 5.08 5.08 0 0 1 -5.07 5.09z" fill="#fff"/><path d="m189.52 240.68-1.1.65a.27.27 0 0 1 -.37-.09.26.26 0 0 1 .1-.37l1.5-.91a.29.29 0 0 1 .37.1.34.34 0 0 1 0 .2v7.14a.27.27 0 0 1 -.53 0z" fill="#f8f8f8"/><path d="m192 247.19 3.62-3.29a2 2 0 0 0 .67-1.49 1.94 1.94 0 0 0 -.53-1.33 2 2 0 0 0 -1.48-.66 2 2 0 0 0 -1.35.52l-.38.34a.25.25 0 0 1 -.38 0 .25.25 0 0 1 0-.37l.38-.36a2.58 2.58 0 0 1 1.72-.66 2.55 2.55 0 0 1 2.54 2.53 2.54 2.54 0 0 1 -.83 1.89l-3.1 2.82h3.68a.27.27 0 0 1 .26.28.26.26 0 0 1 -.26.26h-4.34a.26.26 0 0 1 -.2-.08.29.29 0 0 1 -.02-.4z" fill="#f8f8f8"/><path d="m203.23 240.35-2 2.07a2.63 2.63 0 0 1 1.34 4.44 2.67 2.67 0 0 1 -1.87.78 2.55 2.55 0 0 1 -1.86-.77.28.28 0 0 1 .39-.39 2.08 2.08 0 0 0 1.47.6 2.11 2.11 0 0 0 1.47-.61 2.07 2.07 0 0 0 .61-1.48 2 2 0 0 0 -.61-1.46 2.05 2.05 0 0 0 -1.47-.61.27.27 0 0 1 -.22-.11.28.28 0 0 1 0-.4l1.93-2h-3a.27.27 0 0 1 -.27-.28.26.26 0 0 1 .27-.27h3.59a.28.28 0 0 1 .28.27.28.28 0 0 1 0 .13.41.41 0 0 1 -.05.09z" fill="#f8f8f8"/><path d="m209.77 246h-4.24a.25.25 0 0 1 -.17-.05.26.26 0 0 1 0-.38l4.48-5.62a.26.26 0 0 1 .38 0 .28.28 0 0 1 .09.13s0 0 0 .05v5.33h.52a.27.27 0 1 1 0 .54h-.52v1.33a.27.27 0 0 1 -.28.27.27.27 0 0 1 -.26-.27zm0-.53v-4.56l-3.67 4.57z" fill="#f8f8f8"/><path d="m219.53 246.83a.26.26 0 0 1 0-.39.28.28 0 0 1 .4 0 2.09 2.09 0 0 0 3.55-1.49 2.1 2.1 0 0 0 -.61-1.48 2.1 2.1 0 0 0 -2.94 0 .27.27 0 0 1 -.39 0 .13.13 0 0 1 -.07-.09 0 0 0 0 1 0 0 .25.25 0 0 1 0-.09.43.43 0 0 0 0-.05l.37-3.14a.22.22 0 0 1 .11-.2.23.23 0 0 1 .18-.07h3.62a.27.27 0 0 1 .28.28.27.27 0 0 1 -.28.28h-3.39l-.27 2.31a2.67 2.67 0 0 1 1.32-.36 2.61 2.61 0 0 1 2.59 2.66 2.61 2.61 0 0 1 -.76 1.87 2.7 2.7 0 0 1 -1.87.77 2.63 2.63 0 0 1 -1.84-.81z" fill="#f8f8f8"/><path d="m226.92 241.5a3.16 3.16 0 0 1 2.72-1.7.27.27 0 0 1 .28.25.29.29 0 0 1 -.27.29 2.65 2.65 0 0 0 -2.26 1.42 5 5 0 0 0 -.55 1.56 2.51 2.51 0 0 1 1.92-.88 2.57 2.57 0 1 1 -2.56 2.66 2.85 2.85 0 0 1 0-.51 6.42 6.42 0 0 1 .72-3.09zm-.18 3.55a.68.68 0 0 0 0 .15.15.15 0 0 1 0 .07 2.08 2.08 0 1 0 0-.26z" fill="#f8f8f8"/><path d="m234.18 247.18 2.86-6.83h-3.76a.27.27 0 0 1 0-.54h4.11a.32.32 0 0 1 .17 0 .35.35 0 0 1 .15.17.24.24 0 0 1 0 .09.19.19 0 0 1 0 .14l-3 7.17a.27.27 0 0 1 -.24.17.14.14 0 0 1 -.11 0 .28.28 0 0 1 -.18-.37z" fill="#f8f8f8"/><path d="m241.85 239.76a1.62 1.62 0 0 1 1 2.92 2.52 2.52 0 1 1 -3.47 2.34 2.55 2.55 0 0 1 1.55-2.34 1.63 1.63 0 0 1 -.65-1.31 1.6 1.6 0 0 1 1.57-1.61zm0 7.24a2 2 0 0 0 0-4 2 2 0 0 0 -2 2 2 2 0 0 0 2.02 2zm0-4.53a1.12 1.12 0 0 0 1.09-1.11 1.09 1.09 0 0 0 -2.17 0 1.1 1.1 0 0 0 1.08 1.11z" fill="#f8f8f8"/><path d="m255.68 239.72a2.56 2.56 0 0 1 2.56 2.26v.06.66a6.51 6.51 0 0 1 -.74 3.11 3.2 3.2 0 0 1 -2.72 1.69.26.26 0 0 1 -.28-.25.28.28 0 0 1 .27-.29 2.66 2.66 0 0 0 2.26-1.42 4.83 4.83 0 0 0 .55-1.56 2.5 2.5 0 0 1 -1.93.86 2.56 2.56 0 1 1 0-5.12zm2 2.55a2 2 0 1 0 -2 2 2 2 0 0 0 2.04-2z" fill="#f8f8f8"/><path d="m260.24 243.6a5 5 0 0 1 .74-2.73 2.4 2.4 0 0 1 1.94-1.17 2.45 2.45 0 0 1 1.95 1.16 5 5 0 0 1 .76 2.72 5 5 0 0 1 -.75 2.72 2.2 2.2 0 0 1 -3.89 0 4.88 4.88 0 0 1 -.75-2.7zm.54 0a4.42 4.42 0 0 0 .67 2.41 1.65 1.65 0 0 0 3 0 4.64 4.64 0 0 0 0-4.82 1.66 1.66 0 0 0 -3 0 4.43 4.43 0 0 0 -.67 2.41z" fill="#f8f8f8"/><path d="m269.22 240.47-1.1.65a.29.29 0 0 1 -.13 0 .29.29 0 0 1 -.24-.14.25.25 0 0 1 .1-.36l1.5-.92a.29.29 0 0 1 .37.1.35.35 0 0 1 0 .2v7.15a.27.27 0 0 1 -.53 0z" fill="#f8f8f8"/><path d="m271.68 247 3.62-3.29a2 2 0 0 0 .67-1.49 2 2 0 0 0 -.53-1.33 2 2 0 0 0 -1.48-.65 2 2 0 0 0 -1.35.51l-.38.35a.27.27 0 0 1 -.37-.39l.38-.36a2.63 2.63 0 0 1 1.72-.66 2.49 2.49 0 0 1 1.87.83 2.46 2.46 0 0 1 .67 1.7 2.54 2.54 0 0 1 -.83 1.89l-3.1 2.82h3.68a.27.27 0 0 1 .26.28.27.27 0 0 1 -.26.27h-4.38a.23.23 0 0 1 -.2-.08.29.29 0 0 1 .01-.4z" fill="#f8f8f8"/><path d="m289.59 240.12-2 2.07a2.59 2.59 0 0 1 1.33.71 2.64 2.64 0 0 1 .77 1.87 2.59 2.59 0 0 1 -.77 1.87 2.65 2.65 0 0 1 -1.87.78 2.59 2.59 0 0 1 -1.85-.77.26.26 0 0 1 0-.39.27.27 0 0 1 .39 0 2.09 2.09 0 0 0 3.56-1.49 2 2 0 0 0 -.62-1.47 2 2 0 0 0 -1.47-.6.29.29 0 0 1 -.22-.12.28.28 0 0 1 0-.4l1.93-2h-3a.27.27 0 0 1 -.28-.28.28.28 0 0 1 .28-.28h3.63a.27.27 0 0 1 .28.28.24.24 0 0 1 0 .12.28.28 0 0 1 -.09.1z" fill="#f8f8f8"/><path d="m296.14 245.8h-4.25a.2.2 0 0 1 -.16-.06.25.25 0 0 1 0-.38l4.49-5.61a.26.26 0 0 1 .38 0 .67.67 0 0 1 .09.14s0 0 0 0v5.37h.52a.27.27 0 1 1 0 .53h-.52v1.34a.29.29 0 0 1 -.28.27.28.28 0 0 1 -.27-.27zm0-.54v-4.56l-3.66 4.57z" fill="#f8f8f8"/><path d="m299.23 246.62a.26.26 0 0 1 0-.39.28.28 0 0 1 .4 0 2.12 2.12 0 0 0 1.47.6 2.08 2.08 0 1 0 0-4.16 2 2 0 0 0 -1.47.62.27.27 0 0 1 -.39 0 .18.18 0 0 1 -.07-.09.06.06 0 0 1 0 0 .22.22 0 0 1 0-.09.43.43 0 0 0 0-.05l.37-3.14a.23.23 0 0 1 .11-.2.26.26 0 0 1 .18-.06h3.62a.27.27 0 0 1 .28.27.27.27 0 0 1 -.28.28h-3.45l-.27 2.31a2.78 2.78 0 0 1 1.32-.36 2.63 2.63 0 0 1 2.63 2.63 2.61 2.61 0 0 1 -.76 1.87 2.7 2.7 0 0 1 -1.87.77 2.63 2.63 0 0 1 -1.82-.81z" fill="#f8f8f8"/><path d="m306.62 241.29a3.16 3.16 0 0 1 2.72-1.7.28.28 0 0 1 .28.26.29.29 0 0 1 -.27.29 2.62 2.62 0 0 0 -2.26 1.41 5.08 5.08 0 0 0 -.55 1.56 2.56 2.56 0 1 1 -.64 1.78 2.8 2.8 0 0 1 0-.51 6.44 6.44 0 0 1 .72-3.09zm-.18 3.56a.59.59 0 0 0 0 .14.19.19 0 0 1 0 .08 2.09 2.09 0 1 0 0-.27z" fill="#f8f8f8"/><g fill="#263238"><path d="m190.56 260.93h67.86v3.33h-67.86z" transform="matrix(.99999657 -.00261799 .00261799 .99999657 -.68 .58)"/><path d="m190.58 268.36h48.04v3.33h-48.04z" transform="matrix(.99999657 -.00261799 .00261799 .99999657 -.7 .56)"/><path d="m248.51 205.74h33.84v3.33h-33.84z"/><path d="m179.47 175.31a.26.26 0 0 1 .25-.25h2.07a2.09 2.09 0 0 1 0 4.17h-1.81v2.87a.26.26 0 0 1 -.26.25.26.26 0 0 1 -.25-.25zm2.32 3.43a1.59 1.59 0 0 0 0-3.17h-1.79v3.17z"/><path d="m189.74 177.51v4.61a.26.26 0 0 1 -.25.25.25.25 0 0 1 -.25-.25v-.76a2.41 2.41 0 0 1 -1.92 1 2.56 2.56 0 0 1 0-5.12 2.38 2.38 0 0 1 1.92 1v-.75a.25.25 0 0 1 .25-.26.26.26 0 0 1 .25.28zm-.5 2.3a1.92 1.92 0 1 0 -1.92 2.06 2 2 0 0 0 1.92-2.06z"/><path d="m191.81 177.49a.24.24 0 0 1 .24-.24.25.25 0 0 1 .26.24v2.78a1.57 1.57 0 0 0 1.56 1.58 1.59 1.59 0 0 0 1.59-1.58v-2.78a.17.17 0 0 1 0-.12.3.3 0 0 1 .1-.07h.11l.13.06a.24.24 0 0 1 .06.08.19.19 0 0 1 0 .1v4.46a2.4 2.4 0 0 1 -2.43 2.4 2.45 2.45 0 0 1 -1.05-.24.25.25 0 0 1 -.11-.33.26.26 0 0 1 .32-.13 1.89 1.89 0 0 0 .84.2 1.91 1.91 0 0 0 1.93-1.9v-.33a2.12 2.12 0 0 1 -1.59.73 2.09 2.09 0 0 1 -2.06-2.09z"/><path d="m205.69 179.34a1.58 1.58 0 1 0 -3.16 0v2.86a.28.28 0 0 1 -.12.14h-.13-.07-.07s0 0 0 0a0 0 0 0 0 0 0v-2.84a1.58 1.58 0 1 0 -3.15 0v2.79a.22.22 0 0 1 -.12.2h-.06-.1a.26.26 0 0 1 -.21-.19v-4.67a.25.25 0 1 1 .49 0v.37a2 2 0 0 1 1.57-.74 2.06 2.06 0 0 1 1.83 1.09 2.12 2.12 0 0 1 1.84-1.09 2.08 2.08 0 0 1 2.08 2.08v2.79a.25.25 0 0 1 -.26.24.25.25 0 0 1 -.24-.24z"/><path d="m207.94 179.82a2.48 2.48 0 0 1 4.95-.19.24.24 0 0 1 -.25.23h-4.19a2 2 0 0 0 2 2 1.94 1.94 0 0 0 1.65-.93.23.23 0 0 1 .33-.08.26.26 0 0 1 .09.35 2.44 2.44 0 0 1 -2.07 1.16 2.52 2.52 0 0 1 -2.51-2.54zm.54-.41h3.87a2 2 0 0 0 -1.92-1.65 2 2 0 0 0 -1.95 1.65z"/><path d="m218.32 179.34a1.57 1.57 0 0 0 -1.57-1.57 1.6 1.6 0 0 0 -1.59 1.57v2.82a.31.31 0 0 1 0 .12.23.23 0 0 1 -.19.09h-.06a.26.26 0 0 1 -.17-.14 0 0 0 0 1 0 0v-4.68a.25.25 0 1 1 .49 0v.45a2.07 2.07 0 0 1 3.66 1.33v2.78a.25.25 0 0 1 -.25.25.25.25 0 0 1 -.25-.25z"/><path d="m222.86 177.51a.28.28 0 0 1 -.25.25h-.61v3.72a.4.4 0 0 0 .38.38.26.26 0 1 1 0 .51.87.87 0 0 1 -.9-.89v-3.72h-.64c-.25 0-.25-.13-.25-.25s0-.26.25-.26h.64v-1.9a.27.27 0 0 1 .25-.25.29.29 0 0 1 .27.25v1.9h.66a.28.28 0 0 1 .2.26z"/><path d="m235.7 179.34a1.61 1.61 0 0 0 -1.59-1.58 1.59 1.59 0 0 0 -1.57 1.58v2.86a.29.29 0 0 1 -.13.14.27.27 0 0 1 -.12 0h-.08-.06s0 0 0 0a0 0 0 0 0 0 0v-2.84a1.58 1.58 0 1 0 -3.16 0v2.79a.23.23 0 0 1 -.11.2h-.06-.11a.28.28 0 0 1 -.21-.19v-4.67a.25.25 0 0 1 .24-.25.24.24 0 0 1 .25.25v.37a2.06 2.06 0 0 1 1.58-.74 2.09 2.09 0 0 1 1.83 1.09 2.1 2.1 0 0 1 1.83-1.09 2.08 2.08 0 0 1 2.08 2.08v2.79a.25.25 0 0 1 -.25.24.25.25 0 0 1 -.24-.24z"/><path d="m238 179.82a2.48 2.48 0 0 1 5-.19.24.24 0 0 1 -.25.23h-4.2a2 2 0 0 0 2 2 1.92 1.92 0 0 0 1.64-.93.24.24 0 0 1 .34-.08.26.26 0 0 1 .08.35 2.44 2.44 0 0 1 -2.06 1.16 2.52 2.52 0 0 1 -2.55-2.54zm.53-.41h3.88a2 2 0 0 0 -1.92-1.65 2 2 0 0 0 -2.01 1.65z"/><path d="m246 177.51a.27.27 0 0 1 -.25.25h-.65v3.72a.4.4 0 0 0 .37.38.26.26 0 1 1 0 .51.88.88 0 0 1 -.9-.89v-3.72h-.57c-.25 0-.25-.13-.25-.25s0-.26.25-.26h.63v-1.9a.28.28 0 0 1 .25-.25.29.29 0 0 1 .28.25v1.9h.65a.27.27 0 0 1 .19.26z"/><path d="m252 179.27a1.63 1.63 0 0 0 -3.25 0v2.88s0 0 0 0a.23.23 0 0 1 -.16.13h-.07a.3.3 0 0 1 -.2-.08v-.09a.22.22 0 0 1 0-.08v-6.81a.25.25 0 0 1 .25-.25.26.26 0 0 1 .26.25v2.78a2.12 2.12 0 0 1 1.62-.76 2 2 0 0 1 2.14 2v2.85a.26.26 0 0 1 -.26.25.25.25 0 0 1 -.25-.25z"/><path d="m256.81 177.25a2.56 2.56 0 1 1 -2.42 2.56 2.5 2.5 0 0 1 2.42-2.56zm0 4.62a2.07 2.07 0 1 0 -1.92-2.06 2 2 0 0 0 1.92 2.06z"/><path d="m265.25 181.38a2.45 2.45 0 0 1 -2 1 2.56 2.56 0 0 1 0-5.12 2.44 2.44 0 0 1 2 1v-2.95a.26.26 0 0 1 .51 0v6.81a.26.26 0 0 1 -.51 0zm0-1.47v-.17a2 2 0 1 0 0 .17z"/><path d="m181.36 126.41h-2.2a.25.25 0 0 1 -.25-.26.25.25 0 0 1 .25-.25h4.91a.26.26 0 0 1 .25.25.26.26 0 0 1 -.25.26h-2.21v6.59a.25.25 0 0 1 -.25.25.25.25 0 0 1 -.25-.25z"/><path d="m186.9 128.1a2.56 2.56 0 1 1 -2.42 2.55 2.5 2.5 0 0 1 2.42-2.55zm0 4.61a2.07 2.07 0 1 0 -1.92-2.06 2 2 0 0 0 1.92 2.06z"/><path d="m192.83 128.35a.27.27 0 0 1 -.25.25h-.66v3.72a.4.4 0 0 0 .38.38.29.29 0 0 1 .26.26.28.28 0 0 1 -.26.25.88.88 0 0 1 -.9-.89v-3.72h-.64c-.25 0-.25-.13-.25-.25s0-.25.25-.25h.64v-1.9a.27.27 0 0 1 .25-.25.27.27 0 0 1 .27.25v1.9h.66a.26.26 0 0 1 .25.25z"/><path d="m199.2 128.35v4.65a.25.25 0 0 1 -.5 0v-.76a2.41 2.41 0 0 1 -1.92 1 2.56 2.56 0 0 1 0-5.11 2.37 2.37 0 0 1 1.92 1v-.75a.25.25 0 1 1 .5 0zm-.5 2.3a1.92 1.92 0 1 0 -1.92 2.06 2 2 0 0 0 1.92-2.06z"/><path d="m201.59 126.15a.26.26 0 0 1 .25-.25.27.27 0 0 1 .27.25v6.85a.26.26 0 0 1 -.27.25.25.25 0 0 1 -.25-.25z"/><path d="m207.26 130.74v-2.39a.25.25 0 0 1 .25-.25.26.26 0 0 1 .26.25v.74a2.38 2.38 0 0 1 1.94-1 2.54 2.54 0 0 1 0 5.08 2.39 2.39 0 0 1 -1.94-1v2.92a.26.26 0 0 1 -.26.25.25.25 0 0 1 -.25-.25zm.51-.11a2 2 0 1 0 3.9 0 2 2 0 1 0 -3.9-.08z"/><path d="m214.15 128.36a.25.25 0 1 1 .5 0v1.12a.75.75 0 0 1 .07-.12 2.47 2.47 0 0 1 2.05-1.25.25.25 0 0 1 .25.25.26.26 0 0 1 -.25.25 1.82 1.82 0 0 0 -1.48.83 4.37 4.37 0 0 0 -.62 1.19.16.16 0 0 0 0 .09v2.28a.25.25 0 1 1 -.5 0z"/><path d="m218.74 126.68a.25.25 0 0 1 .25-.25.25.25 0 0 1 .26.25v.24a.27.27 0 0 1 -.26.27.27.27 0 0 1 -.25-.27zm0 1.67a.25.25 0 0 1 .25-.25.24.24 0 0 1 .26.25v4.65a.25.25 0 0 1 -.26.25.25.25 0 0 1 -.25-.25z"/><path d="m221.3 130.64a2.64 2.64 0 0 1 4.26-2 .22.22 0 0 1 0 .34.25.25 0 0 1 -.34.05 2.08 2.08 0 1 0 -1.32 3.66 2.19 2.19 0 0 0 1.32-.45.26.26 0 0 1 .34 0 .24.24 0 0 1 -.05.37 2.66 2.66 0 0 1 -1.61.54 2.58 2.58 0 0 1 -2.6-2.51z"/><path d="m227.11 130.66a2.48 2.48 0 0 1 4.95-.18.24.24 0 0 1 -.25.23h-4.2a2 2 0 0 0 2 2 1.93 1.93 0 0 0 1.65-.93.24.24 0 0 1 .34-.08.27.27 0 0 1 .08.35 2.44 2.44 0 0 1 -2.07 1.16 2.52 2.52 0 0 1 -2.5-2.55zm.53-.4h3.87a2 2 0 0 0 -1.92-1.66 2 2 0 0 0 -1.95 1.66z"/></g><path d="m185.43 140a.9.9 0 0 1 .9.9v.46a7.66 7.66 0 0 1 3.24 1.15 1.12 1.12 0 0 1 .62 1 1.15 1.15 0 0 1 -1.17 1.15 1.12 1.12 0 0 1 -.62-.19 7.79 7.79 0 0 0 -2.16-.92v4c3.18.8 4.54 2.07 4.54 4.31s-1.8 3.82-4.45 4.07v1.26a.89.89 0 0 1 -.9.89.91.91 0 0 1 -.92-.89v-1.3a9 9 0 0 1 -4.28-1.63 1.15 1.15 0 0 1 .58-2.15 1.12 1.12 0 0 1 .69.23 7.4 7.4 0 0 0 3.09 1.4v-4.12c-3.05-.79-4.47-1.94-4.47-4.3s1.78-3.78 4.39-4v-.44a.91.91 0 0 1 .92-.88zm-.84 7.13v-3.7c-1.33.12-2 .83-2 1.75s.41 1.38 2 1.91zm1.65 2.9v3.8c1.34-.14 2.07-.81 2.07-1.82s-.46-1.52-2.07-2.01z" fill="#ffc727"/><path d="m202.72 150.93a5 5 0 1 1 -7.75-4.16 3.35 3.35 0 0 1 -.69-2.07 3.45 3.45 0 0 1 6.9 0 3.35 3.35 0 0 1 -.69 2.07 5 5 0 0 1 2.23 4.16zm-2.27 0a2.73 2.73 0 0 0 -2.7-2.72 2.71 2.71 0 1 0 0 5.41 2.7 2.7 0 0 0 2.7-2.69zm-3.89-6.23a1.17 1.17 0 1 0 2.34 0 1.17 1.17 0 0 0 -2.34 0z" fill="#ffc727"/><path d="m206 146.33a5.07 5.07 0 0 1 10.12-.52s0 0 0 0v1.19a12.33 12.33 0 0 1 -.73 4.29 7.34 7.34 0 0 1 -2.7 3.57 6 6 0 0 1 -3.13 1 1.16 1.16 0 0 1 -1.21-1.11 1.2 1.2 0 0 1 1.12-1.21 3.85 3.85 0 0 0 2-.58 4.27 4.27 0 0 0 1.31-1.47 3.91 3.91 0 0 0 .28-.54 5 5 0 0 1 -2 .42 5.07 5.07 0 0 1 -5.06-5.04zm2.32 0a2.75 2.75 0 1 0 5.5 0 2.75 2.75 0 0 0 -5.5 0z" fill="#ffc727"/><path d="m219.46 157.78a1.8 1.8 0 0 0 1.42-1.88 1.53 1.53 0 0 1 -1.2-1.42v-.17a1.36 1.36 0 0 1 1.43-1.4c.94 0 1.5.71 1.5 1.84v.25a4.19 4.19 0 0 1 -1 3.05 3.15 3.15 0 0 1 -2 .9.58.58 0 0 1 -.65-.58.59.59 0 0 1 .5-.59z" fill="#ffc727"/><path d="m224 146.33a5.07 5.07 0 0 1 10.11-.52s0 0 0 0v1.19a12.1 12.1 0 0 1 -.73 4.29 7.32 7.32 0 0 1 -2.69 3.57 6 6 0 0 1 -3.14 1 1.17 1.17 0 0 1 -1.21-1.11 1.21 1.21 0 0 1 1.13-1.21 3.84 3.84 0 0 0 2-.58 4.19 4.19 0 0 0 1.32-1.47 3 3 0 0 0 .27-.54 4.91 4.91 0 0 1 -2 .42 5.07 5.07 0 0 1 -5.06-5.04zm2.32 0a2.75 2.75 0 1 0 5.49 0 2.75 2.75 0 0 0 -5.49 0z" fill="#ffc727"/><path d="m237.44 146.33a5.07 5.07 0 0 1 10.11-.52s0 0 0 0c0 .4.05.8.05 1.19a12.11 12.11 0 0 1 -.74 4.29 7.26 7.26 0 0 1 -2.69 3.57 6 6 0 0 1 -3.13 1 1.17 1.17 0 0 1 -1.22-1.11 1.21 1.21 0 0 1 1.13-1.21 3.88 3.88 0 0 0 2-.58 4.27 4.27 0 0 0 1.31-1.47 3 3 0 0 0 .27-.54 4.91 4.91 0 0 1 -2 .42 5.07 5.07 0 0 1 -5.09-5.04zm2.32 0a2.75 2.75 0 1 0 5.49 0 2.75 2.75 0 0 0 -5.49 0z" fill="#ffc727"/><path d="m214.83 98.3a.25.25 0 0 1 .25-.25h2.06a2.08 2.08 0 1 1 0 4.16h-1.8v2.87a.26.26 0 0 1 -.26.26.26.26 0 0 1 -.25-.26zm2.31 3.42a1.58 1.58 0 1 0 0-3.16h-1.8v3.16z" fill="#263238"/><path d="m225.09 100.49v4.61a.26.26 0 0 1 -.25.26.26.26 0 0 1 -.25-.26v-.76a2.39 2.39 0 0 1 -1.92 1 2.56 2.56 0 0 1 0-5.12 2.4 2.4 0 0 1 1.92 1v-.75a.25.25 0 0 1 .25-.25.24.24 0 0 1 .25.27zm-.5 2.31a1.92 1.92 0 1 0 -1.92 2 2 2 0 0 0 1.92-2z" fill="#263238"/><path d="m227.16 100.48a.25.25 0 0 1 .5 0v2.78a1.58 1.58 0 0 0 3.15 0v-2.78a.24.24 0 0 1 .05-.13s0 0 0 0a.18.18 0 0 1 .09-.06h.12l.12.05a.2.2 0 0 1 .06.09.14.14 0 0 1 0 .1v4.47a2.42 2.42 0 0 1 -2.44 2.4 2.65 2.65 0 0 1 -1-.24.25.25 0 0 1 -.1-.34.27.27 0 0 1 .32-.12 2 2 0 0 0 .83.2 1.92 1.92 0 0 0 1.93-1.9v-.34a2.07 2.07 0 0 1 -3.65-1.35z" fill="#263238"/><path d="m241.05 102.33a1.61 1.61 0 0 0 -1.59-1.59 1.59 1.59 0 0 0 -1.57 1.59v2.82a.25.25 0 0 1 -.12.13.28.28 0 0 1 -.13 0h-.05s0 0 0 0 0 0-.06 0a0 0 0 0 0 0 0v-2.84a1.58 1.58 0 1 0 -3.15 0v2.78a.22.22 0 0 1 -.11.2h-.07s0 0 0 0h-.06a.31.31 0 0 1 -.21-.19v-4.68a.24.24 0 0 1 .24-.24.23.23 0 0 1 .25.24v.45a2.07 2.07 0 0 1 3.4.36 2.13 2.13 0 0 1 1.84-1.09 2.08 2.08 0 0 1 2.08 2.08v2.78a.25.25 0 0 1 -.25.25.25.25 0 0 1 -.24-.25z" fill="#263238"/><path d="m243.3 102.81a2.48 2.48 0 0 1 4.95-.19.24.24 0 0 1 -.25.23h-4.2a2 2 0 0 0 2 2 1.92 1.92 0 0 0 1.65-.92.25.25 0 0 1 .34-.09.28.28 0 0 1 .08.36 2.44 2.44 0 0 1 -2.07 1.16 2.51 2.51 0 0 1 -2.5-2.55zm.53-.41h3.87a2 2 0 0 0 -1.92-1.66 2 2 0 0 0 -1.95 1.66z" fill="#263238"/><path d="m253.68 102.33a1.58 1.58 0 0 0 -1.58-1.58 1.61 1.61 0 0 0 -1.59 1.58v2.82a.22.22 0 0 1 0 .11.23.23 0 0 1 -.19.1h-.06a.32.32 0 0 1 -.16-.14s0 0 0 0v-4.72a.25.25 0 0 1 .25-.25.25.25 0 0 1 .24.25v.5a2.08 2.08 0 0 1 3.67 1.34v2.77a.26.26 0 0 1 -.25.26.25.25 0 0 1 -.25-.26z" fill="#263238"/><path d="m258.21 100.49a.26.26 0 0 1 -.25.25h-.66v3.73a.39.39 0 0 0 .38.37.3.3 0 0 1 .26.26.29.29 0 0 1 -.26.26.88.88 0 0 1 -.9-.89v-3.73h-.64c-.25 0-.25-.12-.25-.25s0-.25.25-.25h.64v-1.9a.27.27 0 0 1 .25-.25.27.27 0 0 1 .27.25v1.9h.7a.27.27 0 0 1 .21.25z" fill="#263238"/><path d="m264.12 105.36a.27.27 0 0 1 -.23-.26v-6.8a.25.25 0 0 1 .25-.25h1.37a3.66 3.66 0 0 1 0 7.31zm1.35-.52a3.14 3.14 0 1 0 0-6.28h-1.11v6.28z" fill="#263238"/><path d="m274.6 100.49v4.61a.26.26 0 0 1 -.25.26.26.26 0 0 1 -.25-.26v-.76a2.39 2.39 0 0 1 -1.93 1 2.56 2.56 0 0 1 0-5.12 2.4 2.4 0 0 1 1.93 1v-.75a.24.24 0 0 1 .25-.25.25.25 0 0 1 .25.27zm-.5 2.31a1.93 1.93 0 1 0 -1.93 2 2 2 0 0 0 1.93-2z" fill="#263238"/><path d="m278.56 100.49a.27.27 0 0 1 -.25.25h-.66v3.73a.39.39 0 0 0 .37.37.3.3 0 0 1 .27.26.29.29 0 0 1 -.27.26.87.87 0 0 1 -.89-.89v-3.73h-.64c-.25 0-.25-.12-.25-.25s0-.25.25-.25h.64v-1.9a.26.26 0 0 1 .25-.25.28.28 0 0 1 .27.25v1.9h.66a.28.28 0 0 1 .25.25z" fill="#263238"/><path d="m284.93 100.49v4.61a.26.26 0 0 1 -.25.26.26.26 0 0 1 -.25-.26v-.76a2.39 2.39 0 0 1 -1.93 1 2.56 2.56 0 0 1 0-5.12 2.4 2.4 0 0 1 1.93 1v-.75a.24.24 0 0 1 .25-.25.25.25 0 0 1 .25.27zm-.5 2.31a1.93 1.93 0 1 0 -1.93 2 2 2 0 0 0 1.93-2z" fill="#263238"/><path d="m184.04 104.69-3.45-3.23 3.45-3.24.71.76-2.64 2.48 2.64 2.47z" fill="#ffc727"/><path d="m183.46 107.05a5.6 5.6 0 1 1 5.6-5.59 5.6 5.6 0 0 1 -5.6 5.59zm0-10.14a4.55 4.55 0 1 0 4.55 4.55 4.55 4.55 0 0 0 -4.55-4.55z" fill="#ffc727"/><circle cx="316.51" cy="286.09" fill="#ffc727" r="11.27"/><path d="m313.3 293.31-4.22-6.59 1.76-1.12 2.65 4.14 8.26-10.33 1.63 1.3z" fill="#fff"/><path d="m253.23 297.89a3.3 3.3 0 1 1 -3.29-3.29 3.29 3.29 0 0 1 3.29 3.29z" fill="#ffc727"/><path d="m234.68 297.89a2.43 2.43 0 1 1 -2.43-2.43 2.43 2.43 0 0 1 2.43 2.43z" fill="#ebebeb"/><path d="m270.18 297.89a2.43 2.43 0 1 1 -2.43-2.43 2.43 2.43 0 0 1 2.43 2.43z" fill="#ebebeb"/><path d="m179.14 321.11a.22.22 0 0 1 .32 0 4 4 0 0 0 2.4.94 2.77 2.77 0 0 0 1.61-.48 1.34 1.34 0 0 0 .63-1.08 1.18 1.18 0 0 0 -.6-1 4.67 4.67 0 0 0 -1.69-.59 4.53 4.53 0 0 1 -1.72-.62 1.51 1.51 0 0 1 -.75-1.27 1.72 1.72 0 0 1 .76-1.37 3 3 0 0 1 1.76-.53 4 4 0 0 1 2.26.85.23.23 0 0 1 .06.32.21.21 0 0 1 -.31.06 3.69 3.69 0 0 0 -2-.77 2.63 2.63 0 0 0 -1.49.44 1.24 1.24 0 0 0 -.57 1 1 1 0 0 0 .54.89 4.16 4.16 0 0 0 1.56.55 5.1 5.1 0 0 1 1.85.67 1.64 1.64 0 0 1 .81 1.38 1.86 1.86 0 0 1 -.83 1.46 3.25 3.25 0 0 1 -1.88.57 4.58 4.58 0 0 1 -2.69-1.05.26.26 0 0 1 -.03-.37z" fill="#263238"/><path d="m190.61 317.62v4.61a.25.25 0 0 1 -.25.25.25.25 0 0 1 -.25-.25v-.76a2.35 2.35 0 0 1 -1.92 1 2.56 2.56 0 0 1 0-5.11 2.34 2.34 0 0 1 1.92 1v-.75a.25.25 0 0 1 .25-.25.24.24 0 0 1 .25.26zm-.5 2.3a1.92 1.92 0 1 0 -1.92 2.06 2 2 0 0 0 1.92-2.06z" fill="#263238"/><path d="m194.22 322.44a.31.31 0 0 1 -.08-.11l-1.92-4.58a.25.25 0 0 1 .12-.32.24.24 0 0 1 .32.13l1.71 4 1.7-4a.25.25 0 0 1 .32-.13.24.24 0 0 1 .13.32l-1.91 4.53a.33.33 0 0 1 -.07.13.21.21 0 0 1 -.16.07h-.11z" fill="#263238"/><path d="m198 319.94a2.48 2.48 0 0 1 5-.19.24.24 0 0 1 -.25.23h-4.2a2 2 0 0 0 2 2 1.9 1.9 0 0 0 1.64-.93.26.26 0 0 1 .34-.08.27.27 0 0 1 .08.35 2.44 2.44 0 0 1 -2.06 1.16 2.52 2.52 0 0 1 -2.55-2.54zm.53-.41h3.88a2 2 0 0 0 -3.88 0z" fill="#263238"/><path d="m207.47 319.91a2.57 2.57 0 0 1 2.63-2.54 2.66 2.66 0 0 1 1.63.56.22.22 0 0 1 0 .34.25.25 0 0 1 -.34.05 2.06 2.06 0 0 0 -1.32-.46 2.06 2.06 0 1 0 0 4.12 2.17 2.17 0 0 0 1.32-.45.26.26 0 0 1 .34 0 .24.24 0 0 1 0 .37 2.66 2.66 0 0 1 -1.61.54 2.58 2.58 0 0 1 -2.65-2.53z" fill="#263238"/><path d="m218.09 317.62v4.61a.25.25 0 0 1 -.25.25.25.25 0 0 1 -.25-.25v-.76a2.36 2.36 0 0 1 -1.92 1 2.56 2.56 0 0 1 0-5.11 2.35 2.35 0 0 1 1.92 1v-.75a.25.25 0 0 1 .25-.25.24.24 0 0 1 .25.26zm-.5 2.3a1.92 1.92 0 1 0 -1.92 2.06 2 2 0 0 0 1.92-2.06z" fill="#263238"/><path d="m220.27 317.63a.25.25 0 1 1 .5 0v1.13a.54.54 0 0 1 .07-.13 2.47 2.47 0 0 1 2-1.25.25.25 0 0 1 .25.25.26.26 0 0 1 -.25.25 1.82 1.82 0 0 0 -1.48.83 4.37 4.37 0 0 0 -.62 1.19.2.2 0 0 0 0 .09v2.24a.25.25 0 1 1 -.5 0z" fill="#263238"/><path d="m228.68 321.49a2.39 2.39 0 0 1 -2 1 2.56 2.56 0 0 1 0-5.11 2.4 2.4 0 0 1 2 1v-2.95a.26.26 0 0 1 .27-.24.25.25 0 0 1 .25.24v6.81a.25.25 0 0 1 -.25.25.26.26 0 0 1 -.27-.25zm0-1.47v-.17a2 2 0 1 0 0 .17z" fill="#263238"/><path d="m238.27 319.45a1.57 1.57 0 0 0 -1.57-1.57 1.6 1.6 0 0 0 -1.59 1.57v2.82a.26.26 0 0 1 -.05.12.23.23 0 0 1 -.19.09h-.06a.26.26 0 0 1 -.17-.13s0 0 0 0v-4.68a.25.25 0 1 1 .49 0v.49a2.07 2.07 0 0 1 3.66 1.33v2.78a.24.24 0 0 1 -.25.25.25.25 0 0 1 -.25-.25z" fill="#263238"/><path d="m240.92 317.61a.24.24 0 0 1 .25-.25.25.25 0 0 1 .25.25v2.78a1.58 1.58 0 1 0 3.15 0v-2.78a.25.25 0 0 1 .25-.25.24.24 0 0 1 .26.25v2.78a2.08 2.08 0 1 1 -4.16 0z" fill="#263238"/><path d="m254.74 319.45a1.61 1.61 0 0 0 -1.59-1.58 1.59 1.59 0 0 0 -1.57 1.58v2.86a.23.23 0 0 1 -.13.14.27.27 0 0 1 -.12 0h-.07a.15.15 0 0 1 -.07 0 0 0 0 0 0 0 0s0 0 0 0v-2.84a1.58 1.58 0 1 0 -3.16 0v2.79a.22.22 0 0 1 -.11.2h-.06-.11a.27.27 0 0 1 -.21-.19v-4.67a.24.24 0 0 1 .24-.24.23.23 0 0 1 .25.24v.49a2 2 0 0 1 1.58-.73 2.1 2.1 0 0 1 1.83 1.08 2.11 2.11 0 0 1 1.83-1.08 2.08 2.08 0 0 1 2.08 2.07v2.79a.24.24 0 0 1 -.25.24.24.24 0 0 1 -.24-.24z" fill="#263238"/><path d="m257.36 320v-4.62a.25.25 0 0 1 .25-.24.25.25 0 0 1 .26.24v2.95a2.43 2.43 0 0 1 2-1 2.56 2.56 0 0 1 0 5.11 2.42 2.42 0 0 1 -2-1v.74a.26.26 0 0 1 -.26.25.25.25 0 0 1 -.25-.25zm.51-.1a2 2 0 1 0 0-.09z" fill="#263238"/><path d="m263.89 319.94a2.47 2.47 0 1 1 4.94-.19.24.24 0 0 1 -.25.23h-4.19a2 2 0 0 0 2 2 1.92 1.92 0 0 0 1.65-.93.25.25 0 0 1 .33-.08.26.26 0 0 1 .09.35 2.44 2.44 0 0 1 -2.07 1.16 2.51 2.51 0 0 1 -2.5-2.54zm.53-.41h3.87a2 2 0 0 0 -1.92-1.66 2 2 0 0 0 -1.95 1.66z" fill="#263238"/><path d="m270.39 317.63a.25.25 0 0 1 .26-.25.24.24 0 0 1 .24.25v1.13a.35.35 0 0 1 .08-.13 2.44 2.44 0 0 1 2-1.25.24.24 0 0 1 .25.25.25.25 0 0 1 -.25.25 1.82 1.82 0 0 0 -1.48.83 5 5 0 0 0 -.62 1.19.2.2 0 0 0 0 .09v2.24a.24.24 0 0 1 -.24.25.25.25 0 0 1 -.26-.25z" fill="#263238"/><rect fill="#ffc727" height="10.77" opacity=".5" rx="5.15" width="24.33" x="295.14" y="313.61"/><path d="m318.6 319a4.58 4.58 0 1 1 -4.58-4.58 4.58 4.58 0 0 1 4.58 4.58z" fill="#ffc727"/><path d="m191.32 349.56h117.22v22.45h-117.22z" fill="#ffc727"/><path d="m201.45 356.54a.26.26 0 0 1 .25-.26h2.06a2.09 2.09 0 0 1 0 4.17h-1.8v2.87a.26.26 0 0 1 -.26.25.25.25 0 0 1 -.25-.25zm2.31 3.42a1.6 1.6 0 0 0 1.58-1.59 1.58 1.58 0 0 0 -1.58-1.57h-1.76v3.2z" fill="#fff"/><path d="m207.42 358.74a.25.25 0 0 1 .26-.25.24.24 0 0 1 .24.25v1.13a.35.35 0 0 1 .08-.13 2.44 2.44 0 0 1 2-1.25.24.24 0 0 1 .25.25.25.25 0 0 1 -.25.25 1.82 1.82 0 0 0 -1.48.83 4.86 4.86 0 0 0 -.62 1.19.18.18 0 0 0 0 .09v2.24a.24.24 0 0 1 -.24.25.25.25 0 0 1 -.26-.25z" fill="#fff"/><path d="m213.93 358.48a2.56 2.56 0 1 1 -2.42 2.55 2.5 2.5 0 0 1 2.42-2.55zm0 4.61a2.07 2.07 0 1 0 -1.93-2.09 2 2 0 0 0 1.93 2.09z" fill="#fff"/><path d="m217.91 361a2.57 2.57 0 0 1 2.63-2.54 2.68 2.68 0 0 1 1.63.56.25.25 0 0 1 0 .35.27.27 0 0 1 -.35 0 2 2 0 0 0 -1.31-.46 2.06 2.06 0 1 0 0 4.12 2.14 2.14 0 0 0 1.31-.45.27.27 0 0 1 .35 0 .26.26 0 0 1 0 .37 2.69 2.69 0 0 1 -1.61.54 2.58 2.58 0 0 1 -2.65-2.49z" fill="#fff"/><path d="m223.71 361a2.48 2.48 0 0 1 4.95-.18.24.24 0 0 1 -.25.23h-4.19a2 2 0 0 0 2 2 1.92 1.92 0 0 0 1.65-.93.25.25 0 0 1 .33-.08.26.26 0 0 1 .09.35 2.44 2.44 0 0 1 -2.07 1.16 2.52 2.52 0 0 1 -2.51-2.55zm.54-.4h3.87a2 2 0 0 0 -1.92-1.6 2 2 0 0 0 -1.95 1.64z" fill="#fff"/><path d="m230.08 361a2.47 2.47 0 0 1 4.94-.18.24.24 0 0 1 -.25.23h-4.19a2 2 0 0 0 2 2 1.92 1.92 0 0 0 1.65-.93.25.25 0 0 1 .33-.08.26.26 0 0 1 .09.35 2.44 2.44 0 0 1 -2.07 1.16 2.51 2.51 0 0 1 -2.5-2.55zm.53-.4h3.87a2 2 0 0 0 -1.92-1.66 2 2 0 0 0 -1.95 1.7z" fill="#fff"/><path d="m240.89 362.6a2.42 2.42 0 0 1 -2 1 2.56 2.56 0 0 1 0-5.11 2.43 2.43 0 0 1 2 1v-2.94a.26.26 0 0 1 .26-.26.26.26 0 0 1 .25.26v6.8a.25.25 0 0 1 -.25.25.26.26 0 0 1 -.26-.25zm0-1.47v-.13a2 2 0 1 0 0 .17z" fill="#fff"/><path d="m248.61 358.73a.27.27 0 0 1 -.25.25h-.66v3.72a.4.4 0 0 0 .38.38.29.29 0 0 1 .26.26.27.27 0 0 1 -.26.25.87.87 0 0 1 -.9-.89v-3.7h-.63c-.25 0-.25-.13-.25-.25s0-.25.25-.25h.63v-1.9a.27.27 0 0 1 .25-.25.27.27 0 0 1 .27.25v1.9h.66a.26.26 0 0 1 .25.23z" fill="#fff"/><path d="m253 358.48a2.56 2.56 0 1 1 -2.42 2.55 2.5 2.5 0 0 1 2.42-2.55zm0 4.61a2.07 2.07 0 1 0 -1.92-2.06 2 2 0 0 0 1.92 2.06z" fill="#fff"/><path d="m260.14 361a2.57 2.57 0 0 1 2.63-2.54 2.66 2.66 0 0 1 1.63.56.24.24 0 0 1 0 .35.27.27 0 0 1 -.35 0 2 2 0 0 0 -1.32-.46 2.06 2.06 0 1 0 0 4.12 2.15 2.15 0 0 0 1.32-.45.27.27 0 0 1 .35 0 .25.25 0 0 1 -.06.37 2.66 2.66 0 0 1 -1.61.54 2.58 2.58 0 0 1 -2.59-2.49z" fill="#fff"/><path d="m268.5 358.48a2.56 2.56 0 1 1 -2.42 2.55 2.5 2.5 0 0 1 2.42-2.55zm0 4.61a2.07 2.07 0 1 0 -1.92-2.06 2 2 0 0 0 1.92 2.06z" fill="#fff"/><path d="m276.5 360.56a1.57 1.57 0 0 0 -1.58-1.57 1.6 1.6 0 0 0 -1.58 1.57v2.82a.17.17 0 0 1 -.06.12.21.21 0 0 1 -.18.09h-.1a.26.26 0 0 1 -.16-.13 0 0 0 0 1 0 0 0 0 0 0 0 0 0v-4.66a.24.24 0 0 1 .25-.25.25.25 0 0 1 .24.25v.49a2.06 2.06 0 0 1 1.58-.74 2.08 2.08 0 0 1 2.08 2.07v2.78a.25.25 0 0 1 -.5 0z" fill="#fff"/><path d="m281.5 356.56a.25.25 0 0 1 -.25.25.84.84 0 0 0 -.65.19 1.32 1.32 0 0 0 -.2.85v.54h.72a.26.26 0 0 1 .26.25.26.26 0 0 1 -.26.26h-.72v4.45a.25.25 0 0 1 -.25.25.26.26 0 0 1 -.27-.25v-4.45h-.67a.25.25 0 0 1 -.25-.26.25.25 0 0 1 .25-.25h.67v-.54a1.82 1.82 0 0 1 .34-1.19 1.37 1.37 0 0 1 1-.37.26.26 0 0 1 .28.27z" fill="#fff"/><path d="m283 357.06a.26.26 0 0 1 .51 0v.24a.26.26 0 1 1 -.51 0zm0 1.67a.24.24 0 0 1 .25-.25.24.24 0 0 1 .26.25v4.61a.26.26 0 0 1 -.51 0z" fill="#fff"/><path d="m286 358.74a.25.25 0 0 1 .26-.25.24.24 0 0 1 .24.25v1.13l.08-.13a2.44 2.44 0 0 1 2-1.25.24.24 0 0 1 .25.25.25.25 0 0 1 -.25.25 1.85 1.85 0 0 0 -1.48.83 4.73 4.73 0 0 0 -.61 1.19.13.13 0 0 0 0 .09v2.24a.24.24 0 0 1 -.24.25.25.25 0 0 1 -.26-.25z" fill="#fff"/><path d="m297.87 360.56a1.59 1.59 0 0 0 -3.17 0v2.87a.25.25 0 0 1 -.12.13.31.31 0 0 1 -.13 0h-.07-.06a.06.06 0 0 0 0 0v-2.84a1.58 1.58 0 1 0 -3.15 0v2.79a.21.21 0 0 1 -.12.2h-.06-.1a.26.26 0 0 1 -.21-.19v-4.67a.24.24 0 0 1 .24-.24.24.24 0 0 1 .25.24v.49a2 2 0 0 1 1.57-.73 2.08 2.08 0 0 1 1.83 1.08 2.14 2.14 0 0 1 1.84-1.08 2.08 2.08 0 0 1 2.08 2.07v2.79a.25.25 0 0 1 -.25.24.24.24 0 0 1 -.24-.24z" fill="#fff"/></svg>