<svg viewBox="0 0 500 500" xmlns="http://www.w3.org/2000/svg"><path d="M408.11 144.16l10.53 6.53 2-3.22a2.94 2.94 0 012.77-1.37c.62.05 1.23.07 1.85.06a2.93 2.93 0 012.68 1.53l1.79 3.35 10.92-5.86-1.79-3.34a3 3 0 01.2-3.08c.35-.51.68-1 1-1.58a2.92 2.92 0 012.67-1.55l3.79.12.39-12.39-3.81-.11a2.93 2.93 0 01-2.56-1.73c-.13-.27-.27-.54-.41-.81s-.3-.54-.46-.8a3 3 0 010-3.07l2-3.25-10.53-6.53-2 3.23a2.94 2.94 0 01-2.78 1.36c-.61-.05-1.22-.07-1.84-.06a3 3 0 01-2.67-1.54l-1.8-3.34-10.92 5.86 1.79 3.34a3 3 0 01-.19 3.08 15.09 15.09 0 00-1 1.57 2.94 2.94 0 01-2.68 1.55l-3.8-.11-.38 12.38 3.8.12a3 3 0 012.56 1.72c.13.28.26.55.41.83s.29.53.45.79a2.94 2.94 0 010 3.09zm7.82-10.49a10.15 10.15 0 1113.74 4.16 10.15 10.15 0 01-13.74-4.16zM397.81 193.65l4.34 7.52 2.3-1.33a2 2 0 012.17.07 11.27 11.27 0 001.12.65 2 2 0 011.14 1.83v2.66h8.69v-2.66a2 2 0 011.14-1.83 11.27 11.27 0 001.12-.65 2 2 0 012.17-.07l2.3 1.33 4.34-7.52-2.31-1.34a2.05 2.05 0 01-1-1.91v-.64-.64a2.06 2.06 0 011-1.91l2.32-1.33-4.34-7.52-2.31 1.33a2.05 2.05 0 01-2.16-.08c-.36-.23-.74-.45-1.12-.65a2 2 0 01-1.14-1.83v-2.66h-8.69v2.66a2 2 0 01-1.14 1.83c-.38.2-.75.42-1.11.65a2.07 2.07 0 01-2.17.08l-2.31-1.33-4.34 7.52 2.31 1.33a2.05 2.05 0 011 1.91v1.28a2.08 2.08 0 01-1 1.92zm8.3-3.89a7.12 7.12 0 117.11 7.12 7.11 7.11 0 01-7.11-7.12zM51.27 279.62l4.34 7.52 2.3-1.33a2.05 2.05 0 012.16.08c.37.23.74.45 1.13.65a2.06 2.06 0 011.14 1.83V291H71v-2.66a2 2 0 011.15-1.83c.38-.2.76-.42 1.12-.65a2.05 2.05 0 012.16-.08l2.31 1.33 4.33-7.52-2.31-1.33a2.05 2.05 0 01-1-1.91v-.64-.64a2.05 2.05 0 011-1.91l2.31-1.34-4.33-7.52-2.31 1.33a2 2 0 01-2.17-.07 11.27 11.27 0 00-1.12-.65 2.06 2.06 0 01-1.14-1.8v-2.66h-8.66v2.66a2.06 2.06 0 01-1.14 1.83 11.27 11.27 0 00-1.12.65 2 2 0 01-2.16.07l-2.31-1.33-4.34 7.52 2.31 1.34a2.08 2.08 0 011 1.9v1.29a2.06 2.06 0 01-1 1.91zm8.3-3.88a7.11 7.11 0 117.11 7.11 7.11 7.11 0 01-7.11-7.11zM47.54 45.3h131.75v202.02H47.54z" fill="#ebebeb"/><path d="M54.72 53.39h55.64v89.86H54.72zM116.49 53.39h55.63v89.86h-55.63zM54.72 149.37h55.64v89.86H54.72zM116.49 149.37h55.63v89.86h-55.63z" fill="#fff"/><path d="M88.41 53.39L54.72 87.08V67.2l13.82-13.81zM54.72 235.91l55.64-55.64v19.86l-39.09 39.1H54.72zM161.13 149.37l-44.65 44.65v-19.87l24.78-24.78zM172.12 118.52v19.86l-4.87 4.87h-19.87zM172.12 218.41v19.87l-.95.95h-19.86zM57.91 149.37h9.93l-13.12 13.12v-9.94zM64.03 143.25l46.33-46.34v9.93l-36.4 36.41zM163.82 53.39l-47.34 47.33v-9.93l37.41-37.4zM104.74 53.39l-50.02 50.02v-2.49l47.53-47.53zM85.82 239.23l24.54-24.55v2.49l-22.05 22.06zM172.12 152.94v2.47l-55.64 55.64v-2.49zM208.89 45.3h131.75v202.02H208.89z" fill="#ebebeb"/><path d="M216.07 53.39h55.64v89.86h-55.64zM277.83 53.39h55.63v89.86h-55.63zM216.07 149.37h55.64v89.86h-55.64zM277.83 149.37h55.63v89.86h-55.63z" fill="#fff"/><g fill="#ebebeb"><path d="M216.07 149.37h5.24l-5.24 5.24zM216.07 134.74l55.64-55.65v19.88l-44.28 44.28h-11.36zM317.29 53.39l-39.46 39.46V72.97l19.58-19.58zM333.46 178.55v19.87l-40.8 40.81h-14.83v-5.05zM271.71 53.39v1.84l-55.64 55.64v-9.94l47.53-47.54zM249.63 239.23l22.08-22.08v9.93l-12.15 12.15zM333.46 155.39v9.94l-55.63 55.63v-9.93zM228.07 149.37h2.49l-14.49 14.49v-2.48zM234.19 143.25l37.52-37.52v2.49l-35.03 35.03zM326.54 53.39l-48.71 48.71v-2.49l46.22-46.22zM216.07 237.36l55.64-55.64v2.48l-55.03 55.03h-.61zM306.54 149.37l-28.71 28.71v-2.48l26.22-26.23zM333.46 119.96v2.49l-20.8 20.8h-2.49z"/><ellipse cx="250" cy="427.7" rx="146.96" ry="19.81"/><ellipse cx="424.88" cy="427.96" rx="41.26" ry="8.17"/><ellipse cx="168.48" cy="448.49" rx="154.02" ry="18.04"/></g><path d="M33.4 403.49l54.15-.24 54.15-.09 108.3-.17 108.3.17 54.15.09 54.15.24-54.15.25-54.15.08-108.3.17-108.3-.17-54.15-.08z" fill="#263238"/><path d="M142.67 389.23l-14.26 38.47h16.74l31-21.12z" fill="#ffc727"/><path d="M142.67 389.23l-14.26 38.47h16.74l31-21.12z" opacity=".1"/><path d="M357.33 389.23l14.26 38.47h-16.74l-31-21.12z" fill="#ffc727"/><path d="M357.33 389.23l14.26 38.47h-16.74l-31-21.12z" opacity=".1"/><circle cx="250" cy="260" fill="#ffc727" r="171.05" transform="rotate(-45 250.004 259.995)"/><circle cx="247.92" cy="257.19" opacity=".1" r="163.22"/><circle cx="250" cy="259.27" fill="#fff" r="152.91" transform="rotate(-45 250.005 259.275)"/><path d="M399.42 226.79c-69.63 42.19-184.07 111.4-248 149.34a153 153 0 01-41.79-56.19l211.53-196.06a153.06 153.06 0 0178.26 102.91zM402.78 264.58a151.57 151.57 0 01-10.11 49.69L202 404.46a151.37 151.37 0 01-24.09-10.35c57.57-33.29 162.85-93.86 224.87-129.53z" fill="#ebebeb"/><path d="M248.52 117.46h2.95v23.18h-2.95zM177.818 137.182l2.563-1.48 11.59 20.074-2.563 1.48zM126.445 189.622l1.475-2.555 20.075 11.59-1.475 2.555zM108.19 257.79h23.18v2.95h-23.18zM126.429 328.905l20.074-11.59 1.475 2.554-20.074 11.59zM177.821 381.37l11.58-20.081 2.564 1.479-11.58 20.08zM248.52 377.9h2.95v23.18h-2.95zM308.042 362.743l2.563-1.48 11.59 20.074-2.563 1.48zM351.994 319.84l1.475-2.555 20.075 11.59-1.475 2.555zM368.63 257.79h23.18v2.95h-23.18zM352 198.7l20.074-11.59 1.475 2.556-20.075 11.59zM308.053 155.814l11.58-20.08 2.563 1.478-11.58 20.08z" fill="#c7c7c7"/><path d="M390.66 261.24l-148.31 4.14.18-14.5 148.17 6.42z" fill="#ffc727"/><path d="M251.02 154.98l6.42 112.86-14.51-.19 4.16-112.72z" fill="#263238"/><circle cx="250" cy="259.27" fill="#ffc727" r="4.95"/><path d="M386.53 259.18c-.55-1.66-30-40.55-32-41.29-.23-.1-13.38 9.26-13.38 9.26-.55.72-25.55-4.56-25.55-4.56l-.25 30.16 45.55-1s6.15 3.62 11.78 6.57a67.47 67.47 0 007.4 3.59c2.31.62 7.01-1.08 6.45-2.73z" fill="#dd6a57"/><path d="M380.11 261.94a64.69 64.69 0 01-7.4-3.59c-5.63-3-11.78-6.57-11.78-6.57l-10.14.22-15.89-25.61c3.49.62 6.08 1 6.26.76 0 0 13.15-9.37 13.38-9.26 2 .74 31.44 39.62 32 41.29s-4.15 3.35-6.43 2.76z" fill="#fff"/><path d="M386.8 259.23c-.58-1.7-30.14-40.56-32.21-41.33-.78-.3-7.21 3.68-13.43 9.25l19.08 25s17.61 9.33 20 9.93 7.14-1.15 6.56-2.85z" fill="#a6a6a6"/><path d="M384.82 259.85c-5.12-6.39-25.15-32.65-29.72-39.36 0-.06 0-.08 0 0 5.2 6.22 25 32.65 29.78 39.31.12.11.05.2-.06.05zM376.91 260.67a6.54 6.54 0 01-1.37-5.1 6.33 6.33 0 012.37-4.11s.09 0 .06.08a7.59 7.59 0 00-1 9.07.05.05 0 11-.06.06zM362.45 253.73c-2-2.58-3.4-6.31-2.5-9.55 0-.13.22-.07.23 0a45.19 45.19 0 002.63 9.32.21.21 0 01-.36.23zM364.77 255.14c-2-2.58-3.4-6.3-2.5-9.54 0-.13.21-.08.23 0a45.71 45.71 0 002.62 9.31.2.2 0 01-.35.23zM367.08 256.56c-2-2.58-3.4-6.31-2.5-9.55 0-.12.22-.07.24 0a44.46 44.46 0 002.62 9.31.21.21 0 01-.36.24zM369.4 258c-2-2.58-3.4-6.3-2.5-9.54 0-.13.21-.08.23 0a45.71 45.71 0 002.62 9.31.2.2 0 01-.35.23zM350.18 226.86c-2.22-2.94 2.33-6.39 4.56-3.45s-2.34 6.38-4.56 3.45z" fill="#263238"/><path d="M361.3 258.72c.75-2.79.26-5.8.13-8.63a.4.4 0 00-.57-.31.08.08 0 00-.13 0 17.26 17.26 0 00-4.87 7.44c-.52 1.68-.32 4.16 1.78 4.65s3.23-1.52 3.66-3.15zm-2.07 1.76c-3 1.9-2.8-2.31-2.37-3.54a19.62 19.62 0 011-2.29 51.24 51.24 0 012.74-4.4c0 1.39.08 2.78.11 4.17.07 1.66.2 5.02-1.48 6.06z" fill="#263238"/><path d="M352 241.76c-1.55 1.5-.44 3.72.87 4.89a17.19 17.19 0 008 3.87.09.09 0 00.1-.09.41.41 0 00.33-.56c-1.35-2.49-2.49-5.33-4.56-7.33-1.19-1.17-3.26-2.2-4.74-.78zm6.49 4.75c.69 1.21 1.32 2.45 2.06 3.63a51.67 51.67 0 01-4.63-2.36 19.4 19.4 0 01-2.06-1.43c-1-.82-3.37-4.32.2-4.26 2 .04 3.62 2.98 4.45 4.42z" fill="#263238"/><path d="M314.23 213.34h-20.44s-21.39-10.28-38.61-6.14c-19.75 4.75-22.28 29.55-7.52 38.32 18.71 11.11 101.93 9 101.93 9L331.6 224s-27.68-5.82-52.78-5l35.41 4.83z" fill="#455a64"/><path d="M332.79 226a.9.9 0 010-.16v-.13c0-.09-.05-.19-.07-.29s-.14-.4-.21-.6-.17-.39-.26-.58a3.71 3.71 0 00-.33-.54h-.05c-3.05-.57-23.73-3.53-26.8-3.88s-6.21-.64-9.32-.9a184.49 184.49 0 00-18.66-.67h-1.75c-.12 0-.26-.06-.38-.09l-.9-.21c-.56-.1-1.13-.19-1.69-.27-1.18-.18-2.36-.31-3.54-.53-.07 0-.09.1 0 .11 1.18.27 2.33.61 3.51.86l1 .22c-2.28.12-4.56.3-6.84.5-.07 0-.07.12 0 .12 3.1-.19 6.23-.21 9.33-.16s6.16.12 9.24.3c6.23.36 12.45.91 18.65 1.56 3.48.37 24.57 3.44 28.06 3.59h.05a2.34 2.34 0 00.09.24l.3.57c.1.18.2.35.31.52l.17.26.09.12s.08.09.09.13-.04-.09-.09-.09z" fill="#263238"/><path d="M343.1 252.63c-1.1-1.78-2.1-3.63-3.1-5.52s-2-3.69-3.07-5.53c-2.05-3.67-9.39-16-10.12-16.89 0-.05-.14 0-.12.07.35 1 4.94 9.14 6 11 2.11 3.65 4.33 7.22 6.52 10.83.62 1 1.27 2 1.9 3.06s1.31 2 1.89 3.08c0 .02.14-.04.1-.1zM326.61 227.77c-1.83-.45-3.71-.73-5.57-1.08l-5.58-1.05q-5.58-1-11.18-2c-7.45-1.26-14.93-2.3-22.45-3-4.24-.4-8.49-.67-12.75-1-.09 0-.08.13 0 .14 7.57.34 15.13 1.36 22.63 2.44s14.83 2.24 22.23 3.49l6.26 1.07c2.12.37 4.24.82 6.37 1.09.09.03.13-.09.04-.1z" fill="#263238"/><path d="M347.76 358.4c-1.79-.18-46.37-20.22-47.59-22.06-.46-.69 2.08-7.35 5.37-15.32.72-1.72 1.46-3.49 2.23-5.28 5-11.66 10.51-23.92 10.51-23.92l29.86 13.32-11.33 23.55-2.48 5.17s13.63 15.3 14.75 17.46.48 7.26-1.32 7.08z" fill="#dd6a57"/><path d="M347.76 358.4c-1.79-.18-46.37-20.22-47.59-22.06-.56-.84 3.3-10.5 7.6-20.6l29 12.95-2.48 5.17s13.63 15.3 14.75 17.46.52 7.26-1.28 7.08z" fill="#fff"/><path d="M347.76 358.4c-1.79-.18-46.37-20.22-47.59-22.06-.46-.69 2.08-7.35 5.37-15.32l28.79 12.84s13.63 15.3 14.75 17.46.48 7.26-1.32 7.08z" fill="#a6a6a6"/><path d="M347.93 356.33c-7.39-3.54-37.54-17.13-45.11-20.07-.07 0-.08 0 0 0 7.25 3.67 37.51 17 45.08 20.15.1.11.18-.01.03-.08zM346.93 348.43a6.58 6.58 0 00-5.29-.18 6.32 6.32 0 00-3.46 3.24s.06.08.09 0a7.59 7.59 0 018.62-3 .05.05 0 00.04-.06zM336.89 335.9c-3-1.38-6.92-1.88-9.87-.27-.12.06 0 .22.08.21a45.49 45.49 0 019.68.46.21.21 0 00.11-.4zM338.79 337.84c-3-1.38-6.91-1.89-9.87-.28-.11.07 0 .23.09.22a45.39 45.39 0 019.67.45.2.2 0 00.11-.39zM340.7 339.78c-3-1.39-6.92-1.89-9.87-.28-.12.06 0 .23.08.22a45.36 45.36 0 019.67.45.21.21 0 00.12-.39zM342.6 341.72c-3-1.39-6.91-1.89-9.87-.28-.11.06 0 .22.09.22a45.39 45.39 0 019.67.45.2.2 0 00.11-.39zM307.91 330c-3.36-1.5-5.7 3.72-2.33 5.23s5.7-3.72 2.33-5.23z" fill="#263238"/><path d="M343.71 329.38c-.95-1.94-3.41-1.57-4.93-.69a17.17 17.17 0 00-6.15 6.43.08.08 0 00.05.13.4.4 0 00.43.48c2.79-.51 5.84-.72 8.39-2.08 1.5-.79 3.11-2.44 2.21-4.27zm-6.53 4.7c-1.36.29-2.74.51-4.09.85 1.2-1.25 2.35-2.55 3.67-3.68a19.6 19.6 0 012-1.53c1.1-.69 5.16-1.87 4 1.52-.65 1.86-3.95 2.5-5.58 2.84z" fill="#263238"/><path d="M324.7 332.89c2.42 1.57 5.44 2 8.18 2.79.28.08.48-.2.47-.45a.08.08 0 00.06-.12 17.14 17.14 0 00-5.58-6.93c-1.44-1-3.86-1.59-5 .26s.45 3.56 1.87 4.45zm-1.05-2.52c-.87-3.47 3.08-1.95 4.11-1.16a19.83 19.83 0 011.86 1.69 50.73 50.73 0 013.35 4c-1.32-.45-2.67-.79-4-1.19-1.6-.5-4.84-1.42-5.32-3.34z" fill="#263238"/><path d="M308.45 313L342 328.18s40-76.72 41-100.21c.89-20-13-27.7-58-14.77l-11 .14v7.6c4.83.64 17.74 2.67 17.74 2.67 9.39 3.54 12.41 5 12.26 5.31C320.62 276.2 308.45 313 308.45 313z" fill="#455a64"/><path d="M349.53 220.48a82.5 82.5 0 00-3.81 5.61 80.58 80.58 0 00-22.88-6q-3.31-.41-6.66-.59c-.09 0-.09.13 0 .14a100.38 100.38 0 0123.29 4.36c2.09.64 4.14 1.39 6.2 2.13-1.44 2.31-2.8 4.67-4.1 7.05a140.2 140.2 0 00-6.57 13.75c-1.08 2.59-2.13 5.2-3.06 7.85 0 .08.1.13.13.05q6.17-13.72 13.44-26.86c1.37-2.47 2.8-4.91 4.14-7.4.04-.07-.07-.15-.12-.09zM342.77 320.07c-2-.77-3.86-1.72-5.78-2.58l-5.77-2.59c-3.83-1.72-17.11-7.22-18.21-7.48-.07 0-.11.09-.05.13.85.55 9.42 4.36 11.35 5.19 3.88 1.66 7.79 3.2 11.7 4.78 1.12.45 2.24.87 3.36 1.32s2.26.84 3.35 1.33c.07.03.11-.08.05-.1zM349.37 224c-2.65 5-4.91 10.31-7.21 15.51s-4.52 10.39-6.69 15.62q-6.47 15.64-12 31.64c-2.11 6-4.08 12.1-6 18.19 0 .08.11.12.14 0 3.56-10.77 7.41-21.44 11.44-32s8.28-21.06 12.79-31.43q1.9-4.36 3.86-8.71c1.31-2.9 2.67-5.78 3.9-8.71 0-.18-.17-.28-.23-.11z" fill="#263238"/><path d="M294 215.78c.76.75 47.45.3 47.68 0 .61-.82-6.38-30.24-11.63-41.4-6.72-14.3-10.27-15.49-12.4-16.29a16.52 16.52 0 00-8.73-.07c-1.32.59-6.9 7.28-8.47 12.59-3.15 10.66-7.12 44.51-6.45 45.17z" fill="#ffc727"/><path d="M325.5 161.77c20.61 14.46 38.7 34.88 37.24 41.58-1.54 7.08-15.19 15.4-27.42 17.4-2.5.41-10.89-17.78-8.34-18.72 2-.72 11-3.61 12.08-4.9.73-.9-14.08-20.36-19-30.62-5.21-10.73-.06-8.61 5.44-4.74z" fill="#dd6a57"/><path d="M332.15 201.31s-7.65 1-12.63 1.92c-2.77.51-7.45 1.79-9.32 3.1-2.79 1.95-13.24 11.88-10.88 14.47 2.13 2.34 5.1-1.57 5.1-1.57s-3.65 4-.82 5.63 6.23-3.78 6.23-3.78-4.17 3.94-1 5.44c2.76 1.3 7.34-4.58 7.34-4.58s-4.83 3.66-2.13 5.27c3 1.78 11-6.17 11-6.17a36.22 36.22 0 0015.21-1.51c.82-.27-8.1-18.22-8.1-18.22z" fill="#dd6a57"/><path d="M308.71 222.4l.87-1.24a25.5 25.5 0 011.76-2.37c.63-.72 1.29-1.41 2-2.09s1.52-1.35 2.22-2.08a.06.06 0 11.08.08 28.19 28.19 0 00-2 2.25l-1.87 2.27c-.61.75-1.26 1.44-1.89 2.17-.31.36-.61.74-.9 1.11a8.82 8.82 0 01-.87 1.05l-.07-.05a6.93 6.93 0 01.67-1.1zM303.68 220.07a38.33 38.33 0 013.17-4.46 27.36 27.36 0 013.93-3.83.06.06 0 01.08.08c-1.18 1.41-2.38 2.8-3.57 4.18-.59.68-3.15 3.85-3.46 4.15-.08.07-.19-.04-.15-.12zM313.39 224.72a39 39 0 013.06-4.14 34.24 34.24 0 014-3.4.06.06 0 01.08.08c-1.25 1.23-2.52 2.43-3.7 3.73-.58.63-2.74 3.27-3.35 3.82-.03.05-.12-.02-.09-.09z" fill="#263238"/><path d="M348.48 179.68l-15 10.43s-11.94-17.23-15.16-25.47.22-8.37 8.46-2.59 21.7 17.63 21.7 17.63z" fill="#ffc727"/><path d="M344.93 177.6a125.53 125.53 0 01-12.48 9c-.05 0-.11-.05-.05-.09 1.14-.74 7.24-5.54 12.47-9 .06-.05.13.04.06.09z" fill="#263238"/><path d="M334.44 189.4c-.1 0-.77.43-.91.51-1.8-2.88-3.73-5.8-5.56-8.67-.89-1.4-1.79-2.8-2.68-4.21s-1.78-3-2.79-4.41h-.07a46.45 46.45 0 002.23 4.1 7.37 7.37 0 00-.5-.61c-.39-.44-.77-.88-1.13-1.34-.06-.08-.18 0-.12.07.34.45.65.91.95 1.38s.64.92 1 1.37.67.84 1 1.25l.13.15c.49.84 1 1.68 1.49 2.51 1.8 2.9 5.87 8.73 5.92 8.71a8.41 8.41 0 001.08-.77s.01-.05-.04-.04z" fill="#263238"/><path d="M300.28 162c-16.06 9-31 19.84-33.7 27.1-1.66 4.57.84 12.67 2.82 17.53 1 2.36 23.25-7.69 21.31-9.61-4.8-4.76-5.61-6.71-5.14-7.72.29-.64 17.66-16.74 22.44-23.89 6.67-9.97-.71-7.34-7.73-3.41z" fill="#dd6a57"/><path d="M300 218.9c-2.1 1.27-4.78-4.16-4.78-4.16a4.51 4.51 0 01-1.17 2.84c-1.31 1.31-3.95-.17-3.95-.17a5.6 5.6 0 01-1.71 2.8c-1.39 1.13-4.26 0-4.26 0a4.93 4.93 0 01-3.06 1.51c-3.13.2-5.92-3.69-7.72-6.15s-4.6-11.1-5.3-12.7l15.66-11.68s11.2 8.71 12.9 11.9C298 205.8 303.16 217 300 218.9z" fill="#dd6a57"/><path d="M295.21 214.66a40.7 40.7 0 00-4-9.13c0-.06-.13 0-.1.06 1.61 2.86 2.5 6.21 4 9.13a.08.08 0 00.1-.06zM290.22 217.21a8.37 8.37 0 00-1.05-2c-.42-.69-.86-1.36-1.3-2q-1.33-2-2.77-4c0-.06-.14 0-.1 0 .89 1.34 1.75 2.69 2.58 4.07.41.69.82 1.38 1.22 2.07a11 11 0 001.23 1.92.11.11 0 00.19-.06zM284.05 220.17a6 6 0 00-1.05-1.76l-1.24-1.82c-.82-1.21-1.64-2.43-2.42-3.67 0-.07-.14 0-.1.05.78 1.27 1.55 2.55 2.35 3.81.39.62.78 1.24 1.18 1.85a5.72 5.72 0 001.22 1.58l.06-.04z" fill="#263238"/><path d="M277.1 175.5l12.34 11.33s15.27-14.43 19.56-22.17.91-8.32-8-3.71-23.9 14.55-23.9 14.55z" fill="#ffc727"/><path d="M277.1 175.5l12.34 11.33s15.27-14.43 19.56-22.17.91-8.32-8-3.71-23.9 14.55-23.9 14.55z" fill="#ffc727"/><path d="M291.83 183.69a117.14 117.14 0 01-10.89-10.17c-.05 0 0-.11.07-.06.92.94 6.62 5.84 10.9 10.15.09.05-.03.12-.08.08zM301.89 167.75c-.56 1.3-1.12 2.6-1.58 3.94a2.44 2.44 0 000-.27 18.15 18.15 0 01.29-2.42c0-.09-.12-.12-.13 0-.16.8-.3 1.61-.4 2.43-.05.39-.07.78-.09 1.17v.14c-.52 1.78-.83 3.59-1.27 5.38 0 .09.12.12.14 0 .43-1.76 1.08-3.47 1.64-5.19s1-3.47 1.53-5.19c-.02-.01-.1-.05-.13.01z" fill="#263238"/><path d="M310.26 166.08c2.65.64 7.22-3.4 9-6.67.12-.23-.21-2.6-.48-5.51-.16-1.76-.29-3.73-.29-5.53 0-.37-11.32 2.7-11.32 2.7a28.92 28.92 0 011.06 6.93 3.5 3.5 0 01-.08.74.74.74 0 010 .12c-.22 1.41-.45 6.6 2.11 7.22z" fill="#dd6a57"/><path d="M317.83 148.41c-.54 3.05-2.47 10.41-8.51 10.52a6 6 0 01-1.15-.07v-.12a4.4 4.4 0 00.09-.74 28.69 28.69 0 00-1.07-6.93s8.18-2.22 10.64-2.66z" fill="#263238"/><path d="M317.92 133.42c2 3.69 2.19 15.47-.1 18.56-3.32 4.49-9.89 6.17-14 1.92s-4-19.47-1.3-22.4c3.94-4.32 12.48-3.5 15.4 1.92z" fill="#dd6a57"/><path d="M309 143.94s.06 0 .06.07c0 .8.12 1.71.84 2-.9-.1-1.05-1.31-.9-2.07z" fill="#263238"/><path d="M309.67 143.1c1.27-.12 1.43 2.43.25 2.55s-1.32-2.44-.25-2.55zM304.55 144.24s-.06 0-.06.07c.08.79 0 1.71-.67 2 .87-.12.92-1.31.73-2.07z" fill="#263238"/><path d="M303.79 143.45c-1.28 0-1.22 2.55 0 2.56s1.07-2.54 0-2.56zM310.73 141c-.36 0-.7-.07-1.05-.11a1.69 1.69 0 01-1.05-.31.56.56 0 01-.07-.66 1.35 1.35 0 011.29-.45 2 2 0 011.3.56.58.58 0 01-.42.97zM302.5 141.66a8.36 8.36 0 001-.33 1.66 1.66 0 001-.52.54.54 0 00-.07-.66A1.33 1.33 0 00303 140a2 2 0 00-1.16.83.58.58 0 00.66.83zM310.75 151.22c-.18.2-.35.47-.64.51a2.14 2.14 0 01-.86-.15s-.05 0 0 0a1.06 1.06 0 001 .37.84.84 0 00.58-.74s-.05-.02-.08.01zM309.77 148.9a2.69 2.69 0 01-1.72 1.31 3.9 3.9 0 01-1 .11h-.36a.2.2 0 01-.17-.17V150c-.06-.61-.05-1.54-.05-1.54-.22.12-1.32.7-1.33.38a41.28 41.28 0 01.55-8.22.08.08 0 01.15 0c.1 2.55-.24 5.09-.18 7.65a5.09 5.09 0 011.25-.47c.09 0 0 1.8 0 2.07a3.78 3.78 0 002.74-1c.1-.08.17-.03.12.03z" fill="#263238"/><path d="M307.42 150a3.25 3.25 0 001.34.92 1.47 1.47 0 00.88 0c.62-.21.6-.79.46-1.28a3.51 3.51 0 00-.33-.74 4.14 4.14 0 01-2.35 1.1z" fill="#263238"/><path d="M308.76 150.9a1.47 1.47 0 00.88 0c.62-.21.6-.79.46-1.28a1.5 1.5 0 00-1.34 1.28z" fill="#ff98b9"/><path d="M301.69 136.77c4.17 2.18 9-2.44 9-2.44a4.22 4.22 0 004.57 2.15s1.53 6.44 3.24 6.22c2.62-.33 2.38-9.32 1.35-11a4.74 4.74 0 00-3.31-1.84 4.36 4.36 0 00-2.09-2.38c-2-1.16-7.91 1.42-7.91 1.42a5.78 5.78 0 00-1.84-2 1.64 1.64 0 00-2.31.49 3.72 3.72 0 01.82 1.54c.54 1.87-1 2.05-1.21.32a2.7 2.7 0 01.39-1.86c-.9-1-2.2-1.26-2.89-.56-1.29 1.34-1.27 8.17 2.19 9.94z" fill="#263238"/><path d="M303.21 147.75c-1.19.08-2.26-1.31-2.38-3.1s.73-3.33 1.92-3.41 2.25 1.31 2.38 3.1-.73 3.32-1.92 3.41zm-.43-6.07c-.95.06-1.63 1.38-1.52 2.94s1 2.76 1.92 2.69 1.63-1.38 1.51-2.94-.97-2.76-1.91-2.69zM310.5 147.23a3.27 3.27 0 112.81-3.47 3.17 3.17 0 01-2.81 3.47zm-.43-6.08a2.84 2.84 0 102.81 2.64 2.74 2.74 0 00-2.81-2.64z" fill="#ffc727"/><path d="M307.36 143.89c-1.67-.46-2.37.13-2.37.13l-.3-.32s.86-.76 2.78-.23zM313.07 143.49l-.11-.43c.28-.07 6.83-1.77 7.55-1.86a7.83 7.83 0 012.81.87l-.18.39a8.4 8.4 0 00-2.54-.83c-.6.07-5.18 1.25-7.53 1.86z" fill="#ffc727"/><path d="M317.35 143.16s1.91-4.15 3.75-3.53.86 6.31-1 7.4a2 2 0 01-2.87-.6z" fill="#dd6a57"/><path d="M320.78 141.26v.05a5.1 5.1 0 00-2 3.62 1.12 1.12 0 011.6-.59v.08a1.24 1.24 0 00-1.27.67 5.91 5.91 0 00-.46 1.21c0 .13-.27.11-.25 0-.4-1.83.53-4.53 2.38-5.04zM320.68 160.2a53 53 0 01-3.8 4.51 8.69 8.69 0 01-4.74 2.74c-1.78.24-3.58 0-4.33-2.22a13 13 0 01-.37-5.74c0-.1-.13-.12-.14 0-.29 2.89-.53 7.34 2.12 8.22 3 1 5.75-.63 7.71-2.73a27.31 27.31 0 003.61-4.72s-.03-.09-.06-.06zM284.89 225.44h53.65v2.41h-53.65z" fill="#263238"/><path d="M324.77 227.84h-52.29l-4.35-35.51h52.28z" fill="#263238"/><path d="M299.63 210.09a3.11 3.11 0 01-3.13 3.18 3.26 3.26 0 01-3.24-3.18 3.12 3.12 0 013.13-3.19 3.26 3.26 0 013.24 3.19z" fill="#fff"/><path d="M290.23 450.19H97.34L63.63 310.22h192.89z" fill="#a6a6a6"/><path d="M29.36 450.19h192.89l33.71-139.97H63.07z" fill="#dbdbdb"/><path d="M227.99 336.52l-4.3 17.88-.26 1.1-4.45 18.57-.26 1.1-4.45 18.55-.27 1.1-4.46 18.56-.26 1.11-4.36 18.18H63.31l4.36-18.18.26-1.11 4.46-18.56.27-1.1 4.45-18.55.27-1.1 4.45-18.57.26-1.1 4.3-17.88z" fill="#fff"/><path d="M107.13 336.52l-4.3 17.88-.26 1.1-4.45 18.57-.26 1.1-4.45 18.55-.27 1.1-4.45 18.56-.27 1.11-4.36 18.18h-1.13l4.37-18.18.26-1.11 4.45-18.56.27-1.1 4.44-18.55.27-1.1 4.46-18.57.26-1.1 4.28-17.88zM127.3 336.52L123 354.4l-.26 1.1-4.45 18.57-.26 1.1-4.45 18.55-.27 1.1-4.45 18.56-.27 1.11-4.36 18.18h-1.13l4.37-18.18.26-1.11 4.45-18.56.27-1.1 4.44-18.55.27-1.1 4.46-18.57.26-1.1 4.28-17.88zM147.48 336.52l-4.29 17.88-.27 1.1-4.45 18.57-.26 1.1-4.45 18.55-.26 1.1-4.46 18.56-.27 1.11-4.36 18.18h-1.13l4.37-18.18.27-1.11 4.44-18.56.27-1.1 4.45-18.55.26-1.1 4.46-18.57.26-1.1 4.29-17.88zM167.65 336.52l-4.29 17.88-.27 1.1-4.45 18.57-.26 1.1-4.45 18.55-.26 1.1-4.46 18.56-.27 1.11-4.36 18.18h-1.13l4.37-18.18.27-1.11 4.44-18.56.27-1.1 4.45-18.55.26-1.1 4.46-18.57.26-1.1 4.29-17.88zM187.83 336.52l-4.29 17.88-.27 1.1-4.44 18.57-.27 1.1-4.45 18.55-.26 1.1-4.46 18.56-.26 1.11-4.36 18.18h-1.14l4.37-18.18.27-1.11 4.45-18.56.26-1.1 4.45-18.55.26-1.1 4.46-18.57.26-1.1 4.29-17.88zM208 336.52l-4.29 17.88-.27 1.1-4.44 18.57-.27 1.1-4.45 18.55-.26 1.1-4.46 18.56-.26 1.11-4.36 18.18h-1.14l4.37-18.18.27-1.11 4.45-18.56.26-1.1 4.45-18.55.26-1.1 4.46-18.57.27-1.1 4.28-17.88z" fill="#ebebeb"/><path d="M223.69 354.4l-.26 1.1H81.83l.26-1.1zM218.98 374.07l-.26 1.1H77.11l.27-1.1zM214.27 393.72l-.27 1.1H72.39l.27-1.1zM209.54 413.38l-.26 1.11H67.67l.26-1.11z" fill="#ebebeb"/><path d="M97.685 377.491l2.124-1.715 12.326 15.265-2.124 1.715z" fill="#c7c7c7"/><path d="M95.301 391.175l17.058-15.548 1.839 2.017-17.057 15.548zM142.45 358.362l2.123-1.715L156.9 371.91l-2.124 1.716z" fill="#c7c7c7"/><path d="M140.07 372.051l17.058-15.548 1.839 2.018-17.057 15.548z" fill="#c7c7c7"/><path d="M88.1 373.73l-5.21-9.11 2.37-1.36 3.26 5.7 11.88-14.33 2.1 1.74zM113.31 431.63l-5.21-9.11 2.37-1.36 3.25 5.7 11.88-14.33 2.1 1.74zM185 376a32.15 32.15 0 00-6.92 5.12c-2 2-3.75 4.43-4 7.16a4.71 4.71 0 00.92 3.63 6.64 6.64 0 003.41 1.89 18 18 0 008.28-.21 18.35 18.35 0 007.51-3.51 10.29 10.29 0 002.61-3.12 6.52 6.52 0 00.81-3.8 4.85 4.85 0 00-2.09-3.2 10.59 10.59 0 00-3.81-1.65 17.76 17.76 0 00-8.51.09 17 17 0 018.66-.8 11.27 11.27 0 014.2 1.59 6 6 0 012.68 3.77 7.26 7.26 0 01-.82 4.58 11.58 11.58 0 01-2.87 3.56 20.35 20.35 0 01-17 4 7.83 7.83 0 01-4-2.35 4.86 4.86 0 01-1-2.21 7.72 7.72 0 010-2.35c.46-3.11 2.45-5.6 4.61-7.53A29.42 29.42 0 01185 376z" fill="#ffc727"/><path d="M102.7 341.5H87.66l.42-1.84h15.04zM95.78 344.64h-8.84l.42-1.83h8.84zM163.83 399.28h-9.15l.42-1.83h9.15zM162.38 405.69h-9.15l.42-1.83h9.16zM168.3 402.43h-14.35l.43-1.84h14.34zM187.53 385.15h-9.15l.42-1.84h9.16zM192 388.29h-14.35l.43-1.83h14.34z" fill="#c7c7c7"/><path d="M64.64 351.21l8.83-6.6a5.37 5.37 0 002-3 3.36 3.36 0 00-.43-2.68 3.12 3.12 0 00-2.67-1.32 5 5 0 00-3 1l-.92.69a.51.51 0 01-.76 0 .55.55 0 01.2-.76l.92-.72a6.52 6.52 0 013.77-1.32 3.88 3.88 0 013.42 1.7 4.21 4.21 0 01.55 3.42 6.83 6.83 0 01-2.55 3.8l-7.56 5.65h7.39a.43.43 0 01.41.56.73.73 0 01-.66.54h-8.79a.4.4 0 01-.36-.16.62.62 0 01.21-.8zM60.27 371.18a12.61 12.61 0 012.73-5.47 6.4 6.4 0 014.46-2.35 3.65 3.65 0 013.36 2.35 9 9 0 01.26 5.47 12.55 12.55 0 01-2.78 5.45 6.36 6.36 0 01-4.43 2.37 3.64 3.64 0 01-3.36-2.37 8.87 8.87 0 01-.24-5.45zm1.1 0a8 8 0 00.19 4.85 2.83 2.83 0 002.57 1.88 5 5 0 003.42-1.91 11.21 11.21 0 002.45-4.82 8 8 0 00-.23-4.85 2.76 2.76 0 00-2.56-1.88 4.84 4.84 0 00-3.43 1.88 11.16 11.16 0 00-2.41 4.85zM52.25 404.88l8.83-6.6a5.37 5.37 0 002-3 3.36 3.36 0 00-.43-2.68 3.13 3.13 0 00-2.65-1.31 5 5 0 00-3 1l-.92.69a.51.51 0 01-.76 0 .55.55 0 01.2-.76l.92-.72a6.52 6.52 0 013.77-1.32 3.88 3.88 0 013.37 1.68 4.21 4.21 0 01.55 3.42 6.83 6.83 0 01-2.55 3.8l-7.57 5.65h7.4a.43.43 0 01.41.56.73.73 0 01-.66.54H52.4a.4.4 0 01-.36-.16.62.62 0 01.21-.79zM47.88 424.85a12.61 12.61 0 012.76-5.47A6.4 6.4 0 0155.1 417a3.65 3.65 0 013.36 2.35 9.08 9.08 0 01.26 5.47 12.66 12.66 0 01-2.78 5.45 6.36 6.36 0 01-4.46 2.37 3.63 3.63 0 01-3.36-2.37 8.87 8.87 0 01-.24-5.42zm1.1 0a8 8 0 00.19 4.85 2.85 2.85 0 002.57 1.88 5 5 0 003.42-1.88 11.09 11.09 0 002.46-4.85 7.88 7.88 0 00-.22-4.85 2.76 2.76 0 00-2.56-1.88 4.84 4.84 0 00-3.43 1.88 11.16 11.16 0 00-2.41 4.85z" fill="#a6a6a6"/><path d="M230.46 332.73s-4.28 18.55-6.09 26.41S215.1 372 215.1 372h-40.85s7.27-8.65 8.75-15.07l5.59-24.2z" fill="#ffc727"/><path d="M194.45 346.26l-2.14 2.25a.24.24 0 01-.16.08.13.13 0 01-.13-.08l-1.1-2.24-1 4.15a.23.23 0 01-.21.17.13.13 0 01-.14-.17l1.08-4.68a.21.21 0 01.1-.14.16.16 0 01.23 0l1.23 2.49 2.36-2.49a.2.2 0 01.26 0 .13.13 0 010 .06.27.27 0 010 .09l-1.08 4.68a.23.23 0 01-.21.17.13.13 0 01-.13-.17zM196.41 345.71a.24.24 0 01.22-.17h2.6a.13.13 0 01.13.17.23.23 0 01-.22.18h-2.42l-.46 2h2.12a.14.14 0 01.13.18.23.23 0 01-.21.18h-2.12l-.46 2h2.42a.13.13 0 01.13.18.22.22 0 01-.21.17h-2.62a.13.13 0 01-.12-.17zM200.7 345.71a.23.23 0 01.21-.17h2.6a.14.14 0 01.14.17.24.24 0 01-.22.18H201l-.46 2h2.12a.14.14 0 01.13.18.23.23 0 01-.22.18h-2.11l-.46 2h2.42c.1 0 .15.08.13.18a.23.23 0 01-.22.17h-2.61a.13.13 0 01-.12-.17zM206.25 345.89h-1.52a.14.14 0 01-.14-.18.25.25 0 01.22-.17h3.39a.14.14 0 01.14.17.24.24 0 01-.22.18h-1.52l-1 4.53a.23.23 0 01-.21.17.14.14 0 01-.14-.17zM209.72 345.71a.23.23 0 01.21-.17.14.14 0 01.14.17l-1.07 4.71a.25.25 0 01-.23.17.13.13 0 01-.13-.17zM212.11 346.28l-1 4.14a.23.23 0 01-.21.17.13.13 0 01-.13-.17l1.07-4.64a.2.2 0 01.11-.19h.23l2.09 4.25.95-4.12a.23.23 0 01.21-.17.14.14 0 01.14.17l-1.08 4.66a.24.24 0 01-.22.17.14.14 0 01-.12-.06zM218.84 348.32a.13.13 0 01-.14-.17.23.23 0 01.23-.18h1.58a.13.13 0 01.11.18l-.4 1.73a.26.26 0 01-.1.13 3.21 3.21 0 01-1.76.55 2 2 0 01-2-2.57 3.44 3.44 0 013.22-2.55 2.09 2.09 0 011.5.57.17.17 0 010 .24.2.2 0 01-.26 0 1.81 1.81 0 00-1.3-.49 3 3 0 00-2.78 2.2 1.73 1.73 0 001.76 2.22 2.81 2.81 0 001.44-.43l.34-1.49zM187.68 354.72l-.81.42a.19.19 0 01-.1 0 .13.13 0 01-.13-.08.19.19 0 01.12-.24l1.11-.6a.17.17 0 01.23.07.2.2 0 010 .13l-1.1 4.67a.24.24 0 01-.22.18.14.14 0 01-.13-.18zM192.38 354.53l-1.62 1.34a1.3 1.3 0 01.76.47 1.45 1.45 0 01.22 1.21 2.33 2.33 0 01-2.12 1.72 1.34 1.34 0 01-1.09-.51c-.06-.06 0-.18.06-.25a.17.17 0 01.25 0 1.08 1.08 0 00.87.39 1.73 1.73 0 001-.39 1.76 1.76 0 00.62-1 1.09 1.09 0 00-.18-.95 1 1 0 00-.86-.4.16.16 0 01-.13-.07.2.2 0 01.06-.26l1.56-1.3h-1.94a.14.14 0 01-.14-.18.25.25 0 01.23-.18h2.36a.14.14 0 01.14.18.2.2 0 010 .08zM194.92 355.9a.25.25 0 01-.21.18h-.46l-.59 2.57a.21.21 0 00.2.26.15.15 0 01.14.18.27.27 0 01-.22.18.47.47 0 01-.48-.62l.59-2.57h-.44c-.17 0-.15-.09-.13-.18a.18.18 0 01.21-.17h.47l.31-1.32a.25.25 0 01.21-.17.15.15 0 01.15.17l-.31 1.32h.46a.14.14 0 01.1.17zM198.75 357.12a.81.81 0 00-.88-1 1.39 1.39 0 00-1.36 1l-.46 2a.18.18 0 01-.13.09.13.13 0 01-.12-.06.14.14 0 010-.06.15.15 0 010-.06l.45-2v-.06l.61-2.68a.25.25 0 01.22-.17.14.14 0 01.14.17l-.43 1.87a1.85 1.85 0 011.24-.52 1.09 1.09 0 011.16 1.39l-.46 2a.23.23 0 01-.22.18.14.14 0 01-.13-.18zM200.47 356.75a.17.17 0 01.17-.13h1.54a.11.11 0 01.11.13.19.19 0 01-.17.15h-1.54a.11.11 0 01-.11-.15zM204.42 354.72l-.81.42a.19.19 0 01-.1 0 .13.13 0 01-.13-.08.19.19 0 01.12-.24l1.11-.6a.17.17 0 01.23.07.29.29 0 010 .13l-1.07 4.64a.24.24 0 01-.22.18.14.14 0 01-.13-.18zM205.62 356.74a4.17 4.17 0 01.89-1.77 2.08 2.08 0 011.44-.76 1.17 1.17 0 011.05.79 3 3 0 01.09 1.77 4.09 4.09 0 01-.9 1.76 2.06 2.06 0 01-1.44.77 1.16 1.16 0 01-1.09-.77 2.92 2.92 0 01-.04-1.79zm.36 0a2.54 2.54 0 00.06 1.57.91.91 0 00.83.6 1.63 1.63 0 001.11-.6 3.59 3.59 0 00.79-1.57 2.53 2.53 0 00-.07-1.57.89.89 0 00-.83-.6 1.56 1.56 0 00-1.11.6 3.57 3.57 0 00-.76 1.57zM213.52 358h-2.3l-.73 1.19a.24.24 0 01-.19.12h-.06a.15.15 0 01-.05-.23l2.84-4.69a.26.26 0 01.2-.11c.07 0 .14 0 .14.11l.68 4.69a.25.25 0 01-.15.23h-.07a.16.16 0 01-.14-.12zm-2.09-.35h2l-.39-2.72zM220 354.93l-2.13 2.25a.22.22 0 01-.17.08c-.07 0-.11 0-.13-.08l-1.11-2.24-.95 4.15a.24.24 0 01-.22.18.14.14 0 01-.14-.18l1.08-4.68a.28.28 0 01.11-.13.17.17 0 01.24.05l1.22 2.49 2.37-2.49a.19.19 0 01.25-.05.21.21 0 010 .06.14.14 0 010 .09l-1.08 4.68a.23.23 0 01-.21.18.14.14 0 01-.14-.18z"/><path d="M69.1 319.78a5.08 5.08 0 01-3.72-1.78c-1-1.15-2.41-3.79-1-8.58 1.33-4.39 4.52-6.2 7-5.73 1.9.36 4 2.29 3.63 6.54a1.18 1.18 0 01-1.3 1.1 1.22 1.22 0 01-1.1-1.31c.19-2.21-.46-3.73-1.68-4-1.38-.26-3.34 1.07-4.24 4.06-.82 2.73-.65 5 .49 6.31a2.52 2.52 0 002.05 1 1.21 1.21 0 11.33 2.39 4 4 0 01-.46 0zM84 319.78a5.06 5.06 0 01-3.76-1.78c-1-1.15-2.41-3.79-1-8.58 1.32-4.39 4.52-6.2 7-5.73 1.9.36 4 2.29 3.63 6.54a1.19 1.19 0 01-1.3 1.1A1.22 1.22 0 0187.5 310c.19-2.21-.46-3.73-1.68-4-1.39-.26-3.34 1.07-4.24 4.06-.83 2.73-.65 5 .49 6.31a2.52 2.52 0 002.05 1 1.21 1.21 0 11.33 2.39 4.07 4.07 0 01-.45.02zM98.81 319.78A5.06 5.06 0 0195.1 318c-1-1.15-2.41-3.79-1-8.58 1.32-4.39 4.52-6.2 7-5.73 1.9.36 4 2.29 3.63 6.54a1.19 1.19 0 01-1.3 1.1 1.21 1.21 0 01-1.1-1.31c.19-2.21-.46-3.73-1.69-4s-3.33 1.07-4.23 4.06c-.83 2.73-.65 5 .49 6.31a2.52 2.52 0 002 1 1.21 1.21 0 11.33 2.39 4.07 4.07 0 01-.42 0zM113.67 319.78A5 5 0 01110 318c-1-1.15-2.42-3.79-1-8.58 1.32-4.39 4.52-6.2 7-5.73 1.9.36 4 2.29 3.64 6.54a1.2 1.2 0 11-2.4-.21c.18-2.21-.46-3.73-1.69-4s-3.33 1.07-4.23 4.06c-.83 2.73-.65 5 .49 6.31a2.51 2.51 0 002 1 1.21 1.21 0 11.33 2.39 4.19 4.19 0 01-.47 0zM128.53 319.78a5.08 5.08 0 01-3.72-1.83c-1-1.15-2.41-3.79-1-8.58 1.32-4.39 4.52-6.2 7-5.73 1.9.36 4 2.29 3.64 6.54a1.2 1.2 0 11-2.4-.21c.18-2.21-.46-3.73-1.69-4s-3.33 1.07-4.23 4.06c-.83 2.73-.66 5 .49 6.31a2.5 2.5 0 002 1 1.21 1.21 0 11.33 2.39 4.19 4.19 0 01-.42.05zM143.39 319.78a5.08 5.08 0 01-3.72-1.83c-1-1.15-2.41-3.79-1-8.58 1.32-4.39 4.52-6.2 7-5.73 1.9.36 4 2.29 3.64 6.54a1.2 1.2 0 01-1.31 1.1 1.22 1.22 0 01-1.1-1.31c.19-2.21-.45-3.73-1.68-4-1.38-.26-3.34 1.07-4.24 4.06-.82 2.73-.65 5 .49 6.31a2.53 2.53 0 002.05 1 1.21 1.21 0 01.33 2.39 3.91 3.91 0 01-.46.05zM158.25 319.78a5.08 5.08 0 01-3.72-1.83c-1-1.15-2.41-3.79-1-8.58 1.33-4.39 4.53-6.2 7-5.73 1.9.36 4 2.29 3.64 6.54a1.2 1.2 0 01-1.31 1.1 1.22 1.22 0 01-1.1-1.31c.19-2.21-.46-3.73-1.68-4-1.38-.26-3.34 1.07-4.24 4.06-.82 2.73-.65 5 .49 6.31a2.52 2.52 0 002 1 1.21 1.21 0 11.33 2.39 4 4 0 01-.41.05zM173.11 319.78a5.08 5.08 0 01-3.72-1.83c-1-1.15-2.41-3.79-1-8.58 1.33-4.39 4.52-6.2 7-5.73 1.9.36 4 2.29 3.63 6.54a1.18 1.18 0 01-1.3 1.1 1.22 1.22 0 01-1.1-1.31c.19-2.21-.46-3.73-1.68-4-1.38-.26-3.34 1.07-4.24 4.06-.82 2.73-.65 5 .49 6.31a2.52 2.52 0 002.05 1 1.21 1.21 0 01.33 2.39 4 4 0 01-.46.05zM188 319.78a5.06 5.06 0 01-3.71-1.83c-1-1.15-2.41-3.79-1-8.58 1.32-4.39 4.52-6.2 7-5.73 1.9.36 4 2.29 3.63 6.54a1.19 1.19 0 01-1.3 1.1 1.21 1.21 0 01-1.1-1.31c.19-2.21-.46-3.73-1.69-4s-3.33 1.07-4.23 4.06c-.83 2.73-.65 5 .49 6.31a2.52 2.52 0 002 1 1.21 1.21 0 11.33 2.39 4.07 4.07 0 01-.42.05zM202.82 319.78a5 5 0 01-3.71-1.83c-1-1.15-2.42-3.79-1-8.58 1.32-4.39 4.52-6.2 7-5.73 1.91.36 4 2.29 3.64 6.54a1.19 1.19 0 01-1.3 1.1 1.21 1.21 0 01-1.1-1.31c.18-2.21-.46-3.73-1.69-4-1.38-.26-3.33 1.07-4.23 4.06-.83 2.73-.65 5 .49 6.31a2.52 2.52 0 002.05 1 1.21 1.21 0 01.33 2.39 4.07 4.07 0 01-.48.05zM217.68 319.78A5.08 5.08 0 01214 318c-1-1.15-2.41-3.79-1-8.58 1.32-4.39 4.52-6.2 7-5.73 1.9.36 4 2.29 3.64 6.54a1.19 1.19 0 01-1.3 1.1 1.2 1.2 0 01-1.1-1.31c.18-2.21-.46-3.73-1.69-4s-3.33 1.07-4.23 4.06c-.83 2.73-.65 5 .49 6.31a2.51 2.51 0 002 1 1.21 1.21 0 11.33 2.39 4.19 4.19 0 01-.46 0zM232.54 319.78a5.08 5.08 0 01-3.72-1.83c-1-1.15-2.41-3.79-1-8.58 1.32-4.39 4.52-6.2 7-5.73 1.9.36 4 2.29 3.64 6.54a1.2 1.2 0 11-2.4-.21c.18-2.21-.46-3.73-1.69-4-1.38-.26-3.33 1.07-4.24 4.06-.82 2.73-.65 5 .49 6.31a2.52 2.52 0 002 1 1.21 1.21 0 01.34 2.39 4.19 4.19 0 01-.42.05zM247.4 319.78a5.08 5.08 0 01-3.72-1.83c-1-1.15-2.41-3.79-1-8.58 1.32-4.39 4.52-6.2 7-5.73 1.9.36 4 2.29 3.64 6.54a1.2 1.2 0 01-1.31 1.1 1.22 1.22 0 01-1.1-1.31c.19-2.21-.46-3.73-1.68-4-1.38-.26-3.33 1.07-4.24 4.06-.82 2.73-.65 5 .49 6.31a2.52 2.52 0 002.05 1 1.21 1.21 0 01.33 2.39 3.91 3.91 0 01-.46.05z" fill="#a6a6a6"/><path d="M414.77 330.26a78.59 78.59 0 011.81-12.76 28.4 28.4 0 014.56-10.76 13.69 13.69 0 018.94-5.57c3.5-.43 6.78 1.13 9.4 3.34 3.25 2.73 5.73 6.35 8.06 9.85a119.36 119.36 0 017 12.19.12.12 0 01-.21.11 75.19 75.19 0 00-6.22-10.19 63.46 63.46 0 00-7.17-8.68c-2.4-2.35-5.46-4.54-8.94-4.65a11 11 0 00-8.74 4.5c-2.34 3-3.52 6.71-4.41 10.35a76.4 76.4 0 00-1.85 12.15c-.69 8.4-.87 16.86-1.06 25.29q-.16 7.15-.22 14.31l-.06 7.25a44.05 44.05 0 01-.28 7 .48.48 0 01-.92 0 40.75 40.75 0 01-.32-6.63q-.06-3.43-.09-6.87-.06-6.68-.05-13.36c.05-8.97.16-17.95.77-26.87z" fill="#263238"/><path d="M426.78 323.93c.45-2.38 1.25-5.48 2.6-7.32 2.44-3.31 5.06-1.87 2.63 1.79a21.89 21.89 0 00-3.41 9s4.09 5.84 9 8.72c-.21-2.25-.85-5.7-.41-9 .95-7.21 5.31-6.81 4.23-1.07a49.62 49.62 0 00-1 11.59 24.54 24.54 0 005.27 2.59c-.28-.84-.58-1.84-.91-3.06-1.76-6.47 2.56-8.49 2.7-4.85a50.09 50.09 0 001.68 9.18c2.37.8 4.33 1.34 5.53 1.76a20.13 20.13 0 018.09 5.53 25.43 25.43 0 005.52-7.13c-1.51-1.3-3.89-3.23-7.2-5.57-6.21-4.38-4-9.91.87-6.47 3.55 2.48 6.3 7.08 7.55 9.44a38.13 38.13 0 002.82-12.92c-4.88-4.57-16.93-10.95-13.3-10.95 3.27 0 10.59 4.79 13.27 6.64a34.41 34.41 0 00-.41-3.75c-4.59-3-19.51-7.69-17.13-9 2.61-1.47 13 3.34 16.16 4.87a18.73 18.73 0 00-2.75-5.71c-6.35-8.49-17.78-11.42-22.77-9.8-3.53 1.14-2.5 10.1-3.26 9.8-14.15-5.75-20.59-1.72-15.37 15.69zm34.77-1c1-1.21 5.66 2.36 4.32 4.32s-5.62-2.75-4.32-4.31zm-24.32-7.64c1.22.78-.59 5.31-2.48 3.94-1.6-1.16 1.25-4.71 2.48-3.93z" fill="#ffc727"/><path d="M439.08 316.69c.64-1.27 1.31-2.52 2-3.74a22.12 22.12 0 012.35-3.4l-.61-.75c-.08-.1.06-.24.15-.14.24.27.46.55.69.83a.18.18 0 01.1.11c.88 1 1.7 2.13 2.49 3.24a36.61 36.61 0 014.12 1.19c1.39.47 2.77 1 4.12 1.52.15.06.08.3-.07.23-1.33-.59-2.69-1.16-4.08-1.63s-2.65-.79-4-1.16c.43.61.85 1.22 1.26 1.85a49.08 49.08 0 017.29 3c2.46 1.17 4.83 2.53 7.19 3.89.13.08 0 .29-.13.21a79.22 79.22 0 00-7.15-3.7c-2.28-1.07-4.64-1.95-6.94-3 5.79 9 9.26 19.48 13.91 29.13.07.14-.15.26-.21.12-1.42-3.39-3.05-6.69-4.6-10-1.38-3-2.74-6-4.13-9-.4-.87-.82-1.75-1.24-2.62.25 4.83.15 9.74.94 14.51a.12.12 0 11-.24 0c-.33-5.16-1.24-10.24-1.21-15.43v-.07q-1.47-3-3.16-5.81c-1.92 4.52-3.94 9.11-4.83 14 0 .15-.27.08-.23-.07 1.3-4.86 2.51-9.73 4.86-14.23a55.49 55.49 0 00-4.08-5.88c-.65 1.2-1.47 2.34-2.2 3.48s-1.42 2.25-2.08 3.41a48.32 48.32 0 00-3.63 7.66c-.05.14-.29.07-.23-.07 1.2-2.6 2.32-5.18 3.58-7.68zM397.85 330.69c3.19-4.19 6.82-9.61 12.52-10.37 5.5-.73 10.13 3.16 13.07 7.41 3.07 4.45 4.67 9.74 6.06 14.9a187.91 187.91 0 014 18.79c.58 3.51 1 7 1.42 10.57a70.74 70.74 0 01.63 10.78c0 .58-.94.73-1.06.12-.56-2.95-.84-5.95-1.22-8.92s-.82-5.84-1.32-8.75c-1-5.89-2.23-11.73-3.71-17.51-1.3-5.06-2.49-10.27-4.69-15-2-4.29-5.27-9.05-10.06-10.41-6.55-1.85-11.94 3.86-15.43 8.54-.06.1-.3-.03-.21-.15z" fill="#263238"/><path d="M377.37 337v2.26a13.27 13.27 0 016.2-2.23c5.3-.31 4.77 3.68 1.24 3.68a20.14 20.14 0 00-7.3 1.1c.53 7 2.18 12.69 2.46 12.78a102.86 102.86 0 0014-1.1c-1.18-2.85-4-6.71-2.45-6.93s3 3.15 3.71 6.74a67.17 67.17 0 0010.29-2.3c-2.22-2.11-5.68-4.78-4.26-5.78s4.09 2.65 5.67 5.29a20.52 20.52 0 004.5-2.23c-2.91-4.74-10.47-6-9.32-9.31s8.05 1.67 11 8c3.94-3.72 5.3-9.17 5.13-13.9-3.25-.54-9.58-.15-9-2.48s5.09-1.66 8.75-.11a13 13 0 00-1.94-5.28c-3.23-4.59-14 .53-14 .53s1.63-10.52-2.3-12.54c-2.26-1.16-6.34-1.34-10.55.87 2.29.3 5 1.16 6.07 2.81 1.33 2.1-1 3.1-2.36 2.09-1-.71-2.76-2.89-6.14-3.33a20.85 20.85 0 00-4 4 20.38 20.38 0 00-1.19 1.7 14.41 14.41 0 0112.3.81c4.45 2.48 1.68 7.09-2.16 5.07s-7.48-4-11.69-3.17a29.48 29.48 0 00-2.57 11.69 21 21 0 016.91-2.92c4.6-1 5.84 1.8.83 2.07a20 20 0 00-7.83 2.12zm5.86-7c-.24-1.49 3-1.76 3.48-.54.39 1-3.24 1.98-3.48.54zm27.13 9.45c.34-.79 2.45.22 2.2 1.21-.33 1.28-2.56-.47-2.2-1.25zm-15.44 4.42c1.6-.55 3.86 3.47 2.11 4.28s-3.41-3.86-2.11-4.32z" fill="#ffc727"/><path d="M377.37 337v2.26a13.27 13.27 0 016.2-2.23c5.3-.31 4.77 3.68 1.24 3.68a20.14 20.14 0 00-7.3 1.1c.53 7 2.18 12.69 2.46 12.78a102.86 102.86 0 0014-1.1c-1.18-2.85-4-6.71-2.45-6.93s3 3.15 3.71 6.74a67.17 67.17 0 0010.29-2.3c-2.22-2.11-5.68-4.78-4.26-5.78s4.09 2.65 5.67 5.29a20.52 20.52 0 004.5-2.23c-2.91-4.74-10.47-6-9.32-9.31s8.05 1.67 11 8c3.94-3.72 5.3-9.17 5.13-13.9-3.25-.54-9.58-.15-9-2.48s5.09-1.66 8.75-.11a13 13 0 00-1.94-5.28c-3.23-4.59-14 .53-14 .53s1.63-10.52-2.3-12.54c-2.26-1.16-6.34-1.34-10.55.87 2.29.3 5 1.16 6.07 2.81 1.33 2.1-1 3.1-2.36 2.09-1-.71-2.76-2.89-6.14-3.33a20.85 20.85 0 00-4 4 20.38 20.38 0 00-1.19 1.7 14.41 14.41 0 0112.3.81c4.45 2.48 1.68 7.09-2.16 5.07s-7.48-4-11.69-3.17a29.48 29.48 0 00-2.57 11.69 21 21 0 016.91-2.92c4.6-1 5.84 1.8.83 2.07a20 20 0 00-7.83 2.12zm5.86-7c-.24-1.49 3-1.76 3.48-.54.39 1-3.24 1.98-3.48.54zm27.13 9.45c.34-.79 2.45.22 2.2 1.21-.33 1.28-2.56-.47-2.2-1.25zm-15.44 4.42c1.6-.55 3.86 3.47 2.11 4.28s-3.41-3.86-2.11-4.32z" opacity=".1"/><path d="M380.64 353.79c2.55-3.84 5.08-7.7 7.75-11.46q1.86-2.62 3.87-5.14l-.55-.16-.94-.22c-.72-.16-1.44-.3-2.17-.41a20.76 20.76 0 00-2.07-.22 11 11 0 00-2.22 0c-.09 0-.1-.12 0-.12.74.07 1.5 0 2.24 0s1.44.08 2.15.16 1.34.17 2 .3l1.09.25a4.91 4.91 0 01.66.17q2.06-2.55 4.23-5a47.27 47.27 0 00-12.74-4.74c-.07 0 0-.13 0-.12a44 44 0 0112.93 4.61c.8-.89 1.6-1.78 2.41-2.66s1.87-1.95 2.69-3c.06-.07.16 0 .1.07a46.46 46.46 0 00-3.18 3.53 46.05 46.05 0 014.63 4.09c1.5 1.47 3 3 4.39 4.53.05.06 0 .14-.09.09-1.4-1.54-2.86-3-4.4-4.41s-3.15-2.71-4.7-4.1l-1.17 1.39c-.19.24-.39.47-.59.7a.1.1 0 010 .05l-1.96 2.36a19.4 19.4 0 011.67 3.39c.48 1.14.88 2.31 1.25 3.49a50.34 50.34 0 011.62 7.5c0 .07-.11.1-.12 0a43.31 43.31 0 00-1.8-7.37c-.4-1.23-.87-2.43-1.35-3.63s-1-2.15-1.4-3.25l-1.68 2.05-.47.61a.07.07 0 01-.06.1c-1.73 2.19-3.39 4.44-5 6.71a2.37 2.37 0 01.18.53c.08.28.16.58.23.87a18 18 0 01.33 1.78c.07.56.12 1.13.15 1.69a15.29 15.29 0 00.05 1.92c0 .1-.14.1-.11 0a6.71 6.71 0 00-.05-1.79c-.06-.62-.14-1.23-.25-1.84s-.23-1.09-.36-1.63c-.07-.28-.14-.55-.22-.81s-.11-.3-.15-.45c-.75 1.07-1.5 2.14-2.24 3.23-1.47 2.14-2.92 4.29-4.38 6.44-.1.13-.27.03-.2-.08zM413.73 376.54c.06-2 .37-3.94.58-5.89s.43-3.92.64-5.89a89.81 89.81 0 011.52-11.34 16.5 16.5 0 014.62-8.49 7.49 7.49 0 014.53-2.16 7.74 7.74 0 014.8 1.48 16.75 16.75 0 014.05 4.26 42.62 42.62 0 013.15 5.12c0 .07-.07.11-.11 0a26.22 26.22 0 00-6.82-7.64 8.07 8.07 0 00-4.3-1.79 5.84 5.84 0 00-4.17 1.66 15.67 15.67 0 00-4.4 7.79 78.78 78.78 0 00-1.7 10.49q-.42 3.1-.82 6.23c-.27 2.06-.45 4.18-.88 6.22a.35.35 0 01-.69-.05z" fill="#263238"/><path d="M423.39 361.29a11 11 0 002.13 2.19c-.32-1.92-.71-5.32.26-7.13 1.5-2.82 3.27-1.42 2.38 1a20 20 0 00-1.45 6.94 30.32 30.32 0 006.52 3.07A11.13 11.13 0 01433 364c.3-3 2.6-3 2 .17a19.66 19.66 0 00-.31 3.68 67.15 67.15 0 0010.16 2.29 29.67 29.67 0 004.2-7.49c-2.44-.61-7.4-.75-7.3-2.5.14-2.35 5-.54 7.76 1.17a18.68 18.68 0 00.84-6.34 31.81 31.81 0 00-6.75-1.12c-5-.43-4.79-3.29-1.14-3.22 2.7.05 6.11 1.7 7.72 2.55-1.05-6.85-6.28-11.25-10.47-11.42-7.05-.28-4.52 8.49-4.52 8.49s-4.78-3.36-9.28-3.27-7.34 7.6-2.52 14.3zm18.83-12.68c-.16-1 3-1.22 3.15 0 .19 1.46-2.99 1.01-3.15 0zm5.06 10.29c-.06-.64 1.3-.75 1.6.06.21.53-1.54.58-1.6-.06zm-16.93.6c1.06.15 1.67 3.95-.16 3.88-1.4-.06-.74-4 .16-3.88z" fill="#ffc727"/><path d="M431.82 363.72c.18-.47.33-1 .48-1.43-.13.49-.26 1-.35 1.47a.07.07 0 11-.13-.04zM433.68 357.62c.33-1 .7-1.94 1.08-2.9.21-.51.41-1 .64-1.51a5.86 5.86 0 01.63-1.28 8.53 8.53 0 01-.57-1.23s0-.07.06 0a13.11 13.11 0 011.37 2.13c.2.33.39.67.58 1a9.81 9.81 0 011.19.19c.42.07.84.16 1.26.25l1.26.3c.41.09.82.23 1.25.3.09 0 .05.17 0 .13a8.55 8.55 0 00-1.32-.35c-.4-.08-.81-.15-1.22-.21l-1.23-.15-.93-.08c.16.3.34.59.5.89 0 0 .05.09.08.14a3.83 3.83 0 011 .12c.36.06.73.13 1.09.21.73.17 1.47.34 2.19.54 1.53.43 3 .92 4.54 1.41.08 0 0 .15-.05.12a45.28 45.28 0 00-4.56-1.26c-.72-.16-1.44-.33-2.17-.48l-1.08-.23a6.14 6.14 0 01-.85-.19c.78 1.44 1.51 2.89 2.18 4.38 1.46 3.23 2.7 6.57 3.95 9.89 0 .08-.1.13-.13 0a89.94 89.94 0 00-4.2-9.67l-.85-1.71a3.59 3.59 0 00-.08.35l-.21 1.18c-.13.78-.26 1.57-.38 2.36a27.88 27.88 0 00-.57 4.9c0 .1-.15.09-.13 0 .12-.78.12-1.6.17-2.39s.11-1.65.21-2.47.19-1.58.32-2.37l.21-1.18a2.43 2.43 0 01.22-.85c-.41-.83-.82-1.66-1.24-2.49s-.79-1.54-1.19-2.31c-.17-.33-.35-.66-.53-1a12.26 12.26 0 01-.47 1.19c-.18.44-.36.89-.55 1.33-.4 1-.78 2-1.15 3-.54 1.41-1.13 2.86-1.56 4.33.4-1.44.76-2.95 1.24-4.33zM432.3 362.29c0-.12.07-.23.11-.34-.04.11-.07.22-.11.34z" fill="#263238"/><path d="M397.6 377.11l.86 12.67 2.22 32.66h48.4l2.21-32.66.86-12.67z" fill="#37474f"/><path d="M397.6 377.11l.86 12.67h52.83l.86-12.67z" fill="#263238"/><path d="M455.59 382.23h-61.43v-10.24h61.43zM436.66 422.44h8.5v5.36h-8.5z" fill="#37474f"/><path d="M436.66 422.44h8.5v2.68h-8.5z" fill="#263238"/><path d="M404.59 422.44h8.49v5.36h-8.49z" fill="#37474f"/><path d="M404.59 422.44h8.49v2.68h-8.49z" fill="#263238"/><path d="M385.92 117.17a24.77 24.77 0 01-41.41 15.68l-12.4 1.82 6.2-10.72a24.51 24.51 0 01-1.7-11.93 24.79 24.79 0 1149.31 5.15z" fill="#fff"/><path d="M385.92 117.17a25 25 0 01-5 12.57 29.06 29.06 0 01-2.25 2.58 27.69 27.69 0 01-2.62 2.22 24.33 24.33 0 01-6 3.33 24.16 24.16 0 01-10.05 1.66 21.93 21.93 0 01-3.43-.36 25 25 0 01-12.27-6.06l.3.09-12.39 1.91-.9.13.46-.79 6.16-10.74v.42a25.09 25.09 0 0131.08-33.29 25.45 25.45 0 019.56 5.86 25 25 0 017.35 20.47zm0 0a24.53 24.53 0 00-28.11-26.82 24.33 24.33 0 00-10.24 4 25.59 25.59 0 00-7.41 8.09 24.41 24.41 0 00-1.4 21.29l.08.22-.11.2-6.24 10.7-.45-.65 12.41-1.74h.18l.12.12a24.35 24.35 0 0011.87 6.11 19.9 19.9 0 003.36.41 24 24 0 003.39 0 24.22 24.22 0 006.62-1.46 23.5 23.5 0 006-3.22 28.67 28.67 0 002.62-2.19 26.08 26.08 0 002.25-2.56 24.85 24.85 0 005.06-12.5z" fill="#263238"/><path d="M358.36 128.73l-10.58-10.71 3.55-3.52 6.19 6.26 12.85-20.14 4.21 2.69z" fill="#ffc727"/></svg>