<svg viewBox="0 0 500 500" xmlns="http://www.w3.org/2000/svg" xmlns:xlink="http://www.w3.org/1999/xlink"><clipPath id="a"><path d="m297.68 348.92h-17c-8.85 0-16 12.83-16 28.66s7.17 28.65 16 28.65h17c8.85 0 16-12.83 16-28.65s-7.15-28.66-16-28.66z"/></clipPath><path d="m0 382.4h500v.25h-500z" fill="#ebebeb"/><path d="m150.04 388.78h23.18v.25h-23.18z" fill="#ebebeb"/><path d="m402.1 394.14h56.67v.25h-56.67z" fill="#ebebeb"/><path d="m42.72 394.14h56.67v.25h-56.67z" fill="#ebebeb"/><path d="m237 337.8h-193.09a5.71 5.71 0 0 1 -5.7-5.71v-271.43a5.71 5.71 0 0 1 5.7-5.66h193.09a5.71 5.71 0 0 1 5.71 5.71v271.38a5.71 5.71 0 0 1 -5.71 5.71zm-193.09-282.6a5.46 5.46 0 0 0 -5.45 5.46v271.43a5.46 5.46 0 0 0 5.45 5.46h193.09a5.48 5.48 0 0 0 5.46-5.46v-271.43a5.48 5.48 0 0 0 -5.46-5.46z" fill="#ebebeb"/><path d="m453.31 337.8h-193.1a5.73 5.73 0 0 1 -5.71-5.71v-271.43a5.72 5.72 0 0 1 5.71-5.66h193.1a5.71 5.71 0 0 1 5.69 5.66v271.43a5.7 5.7 0 0 1 -5.69 5.71zm-193.1-282.6a5.48 5.48 0 0 0 -5.46 5.46v271.43a5.48 5.48 0 0 0 5.46 5.46h193.1a5.48 5.48 0 0 0 5.46-5.46v-271.43a5.48 5.48 0 0 0 -5.46-5.46z" fill="#ebebeb"/><path d="m98.7 130.41h83.3a6.37 6.37 0 0 1 6.38 6.38v245.38h-96v-245.39a6.38 6.38 0 0 1 6.32-6.37z" fill="#f5f5f5"/><path d="m100.3 145.28h12.38v27.56h-12.38z" fill="#ebebeb"/><path d="m168 145.28h12.38v27.56h-12.38z" fill="#ebebeb"/><path d="m122.86 145.28h12.38v27.56h-12.38z" fill="#ebebeb"/><path d="m145.43 145.28h12.38v27.56h-12.38z" fill="#ebebeb"/><path d="m100.3 188.79h12.38v27.56h-12.38z" fill="#ebebeb"/><path d="m168 188.79h12.38v27.56h-12.38z" fill="#ebebeb"/><path d="m122.86 188.79h12.38v27.56h-12.38z" fill="#ebebeb"/><path d="m145.43 188.79h12.38v27.56h-12.38z" fill="#ebebeb"/><path d="m100.3 232.29h12.38v27.56h-12.38z" fill="#ebebeb"/><path d="m168 232.29h12.38v27.56h-12.38z" fill="#ebebeb"/><path d="m122.86 232.29h12.38v27.56h-12.38z" fill="#ebebeb"/><path d="m145.43 232.29h12.38v27.56h-12.38z" fill="#ebebeb"/><path d="m100.3 275.8h12.38v27.56h-12.38z" fill="#ebebeb"/><path d="m168 275.8h12.38v27.56h-12.38z" fill="#ebebeb"/><path d="m122.86 275.8h12.38v27.56h-12.38z" fill="#ebebeb"/><path d="m145.43 275.8h12.38v27.56h-12.38z" fill="#ebebeb"/><path d="m100.3 319.3h12.38v27.56h-12.38z" fill="#ebebeb"/><path d="m168 319.3h12.38v27.56h-12.38z" fill="#ebebeb"/><path d="m122.86 319.3h12.38v27.56h-12.38z" fill="#ebebeb"/><path d="m145.43 319.3h12.38v27.56h-12.38z" fill="#ebebeb"/><path d="m393.94 153.28h59.64a5.2 5.2 0 0 1 5.19 5.19v223.7h-70v-223.69a5.2 5.2 0 0 1 5.17-5.2z" fill="#f5f5f5"/><path d="m397.67 166.81h11.25v25.05h-11.25z" fill="#ebebeb"/><path d="m418.19 166.81h11.25v25.05h-11.25z" fill="#ebebeb"/><path d="m438.7 166.81h11.25v25.05h-11.25z" fill="#ebebeb"/><path d="m397.67 206.36h11.25v25.05h-11.25z" fill="#ebebeb"/><path d="m418.19 206.36h11.25v25.05h-11.25z" fill="#ebebeb"/><path d="m438.7 206.36h11.25v25.05h-11.25z" fill="#ebebeb"/><path d="m397.67 245.92h11.25v25.05h-11.25z" fill="#ebebeb"/><path d="m418.19 245.92h11.25v25.05h-11.25z" fill="#ebebeb"/><path d="m438.7 245.92h11.25v25.05h-11.25z" fill="#ebebeb"/><path d="m397.67 285.46h11.25v25.05h-11.25z" fill="#ebebeb"/><path d="m418.19 285.46h11.25v25.05h-11.25z" fill="#ebebeb"/><path d="m438.7 285.46h11.25v25.05h-11.25z" fill="#ebebeb"/><path d="m397.67 325.02h11.25v25.05h-11.25z" fill="#ebebeb"/><path d="m418.19 325.02h11.25v25.05h-11.25z" fill="#ebebeb"/><path d="m438.7 325.02h11.25v25.05h-11.25z" fill="#ebebeb"/><path d="m257.31 89.26h96.88a7.42 7.42 0 0 1 7.42 7.42v285.49h-111.71v-285.49a7.42 7.42 0 0 1 7.41-7.42z" fill="#f5f5f5"/><path d="m259.17 106.57h14.4v32.06h-14.4z" fill="#ebebeb"/><path d="m337.93 106.57h14.4v32.06h-14.4z" fill="#ebebeb"/><path d="m285.42 106.57h14.4v32.06h-14.4z" fill="#ebebeb"/><path d="m311.68 106.57h14.4v32.06h-14.4z" fill="#ebebeb"/><path d="m259.17 157.19h14.4v32.06h-14.4z" fill="#ebebeb"/><path d="m337.93 157.19h14.4v32.06h-14.4z" fill="#ebebeb"/><path d="m285.42 157.19h14.4v32.06h-14.4z" fill="#ebebeb"/><path d="m311.68 157.19h14.4v32.06h-14.4z" fill="#ebebeb"/><path d="m259.17 207.81h14.4v32.06h-14.4z" fill="#ebebeb"/><path d="m337.93 207.81h14.4v32.06h-14.4z" fill="#ebebeb"/><path d="m285.42 207.81h14.4v32.06h-14.4z" fill="#ebebeb"/><path d="m311.68 207.81h14.4v32.06h-14.4z" fill="#ebebeb"/><path d="m259.17 258.42h14.4v32.06h-14.4z" fill="#ebebeb"/><path d="m337.93 258.42h14.4v32.06h-14.4z" fill="#ebebeb"/><path d="m285.42 258.42h14.4v32.06h-14.4z" fill="#ebebeb"/><path d="m311.68 258.42h14.4v32.06h-14.4z" fill="#ebebeb"/><path d="m259.17 309.03h14.4v32.06h-14.4z" fill="#ebebeb"/><path d="m337.93 309.03h14.4v32.06h-14.4z" fill="#ebebeb"/><path d="m285.42 309.03h14.4v32.06h-14.4z" fill="#ebebeb"/><path d="m311.68 309.03h14.4v32.06h-14.4z" fill="#ebebeb"/><path d="m188.35 194.17h61.54v188.01h-61.54z" fill="#e6e6e6"/><path d="m361.62 214.3h27.19v167.87h-27.19z" fill="#e6e6e6"/><path d="m92.32 382.17h-53.86v-78.49l53.86-18.22z" fill="#e6e6e6"/><ellipse cx="250" cy="411.67" fill="#f5f5f5" rx="193.89" ry="15.89"/><path d="m297.68 348.92h-17c-8.85 0-16 12.83-16 28.66s7.17 28.65 16 28.65h17c8.85 0 16-12.83 16-28.65s-7.15-28.66-16-28.66z" fill="#263238"/><g clip-path="url(#a)"><path d="m317.68 348.92h-17c-8.85 0-16 12.83-16 28.66s7.17 28.65 16 28.65h17c8.85 0 16-12.83 16-28.65s-7.15-28.66-16-28.66z" fill="#fff" opacity=".05"/></g><path d="m435.39 355.06-297.69-.21v-190.15h297.69z" fill="#ffc100"/><path d="m233.63 164.7h201.76v190.35h-201.76z" fill="#263238" opacity=".3"/><path d="m137.7 164.7h95.93v194.11h-95.93z" fill="#fff" opacity=".2"/><g fill="none" stroke="#fff" stroke-linecap="round" stroke-linejoin="round" stroke-width="2"><path d="m138.42 173.54h296.97" opacity=".1"/><path d="m138.42 181.77h296.97" opacity=".1"/><path d="m138.42 189.99h296.97" opacity=".1"/><path d="m138.42 198.21h296.97" opacity=".1"/><path d="m138.42 206.44h296.97" opacity=".1"/><path d="m138.42 214.66h296.97" opacity=".1"/><path d="m138.42 222.88h296.97" opacity=".1"/><path d="m138.42 231.1h296.97" opacity=".1"/><path d="m138.42 239.33h296.97" opacity=".1"/><path d="m138.42 247.55h296.97" opacity=".1"/><path d="m138.42 255.77h296.97" opacity=".1"/><path d="m138.42 264h296.97" opacity=".1"/><path d="m138.42 272.22h296.97" opacity=".1"/><path d="m138.42 280.44h296.97" opacity=".1"/><path d="m138.42 288.66h296.97" opacity=".1"/><path d="m138.42 296.89h296.97" opacity=".1"/><path d="m138.42 305.11h296.97" opacity=".1"/><path d="m138.42 313.33h296.97" opacity=".1"/><path d="m138.42 321.56h296.97" opacity=".1"/><path d="m138.42 329.78h296.97" opacity=".1"/><path d="m138.42 338h296.97" opacity=".1"/><path d="m138.42 346.23h296.97" opacity=".1"/></g><path d="m83.07 352.66h-15.73c-8.2 0-14.84 11.88-14.84 26.54s6.64 26.53 14.84 26.53h15.73c8.2 0 14.84-11.88 14.84-26.53s-6.64-26.54-14.84-26.54z" fill="#263238"/><path d="m103.08 352.66h-15.74c-8.2 0-14.84 11.88-14.84 26.54s6.64 26.53 14.84 26.53h15.74c8.19 0 14.84-11.88 14.84-26.53s-6.65-26.54-14.84-26.54z" fill="#fff" opacity=".05"/><path d="m74.32 300.83h-7.44c-1.46.05-2.66-1.51-2.69-3.49a3.22 3.22 0 0 1 0-.62l2-22.47c.25-2.31 1.68-4 3.4-4.11h7.51c1.45 0 2.65 1.53 2.68 3.51q0 .3 0 .6l-2 22.47c-.3 2.28-1.78 4.05-3.46 4.11z" fill="#263238"/><path d="m81.76 226.61-14.35 77.39 156.23 61.2-1.09-152.52-34.36-1h-94.12c-5.66-.05-10.65 6.03-12.31 14.93z" fill="#ffc100"/><path d="m198 239.06c-5.83-.26-11.06 4.52-12.77 11.65l-11.82 49.52h-22.75l-1.24 65.33h74.83" fill="#ffc100"/><path d="m84 296.07c-2.29 0-4.14-2.94-4.14-6.56a9.74 9.74 0 0 1 .18-1.88l8.59-45.44c.72-3.77 2.92-6.35 5.41-6.34h82.18c.89 0 1.62 1.14 1.62 2.56a3.74 3.74 0 0 1 -.07.75c-1.8 9.36-7.65 40.37-9.89 52.23-.52 2.78-2.14 4.68-4 4.68z" fill="#263238"/><path d="m159.62 316.21a17.21 17.21 0 0 1 -.17 2.38l-.43 2.93-.25 1.73-1.84 12.64-3 20.55-.83 5.71h-116.29v-5.71l.08-20.55.11-12.29v-5c-1-6.6 2.19-13 7.05-14.33a6.52 6.52 0 0 1 1.75-.23h104.86c4.95-.04 8.96 5.44 8.96 12.17z" fill="#ffc100"/><path d="m218.73 242v48.71c0 2.95-1.51 5.35-3.38 5.36h-28.42c-1.87 0-3.38-2.4-3.38-5.36a8.57 8.57 0 0 1 .12-1.44l8.76-49.8c.42-2.39 1.82-4 3.38-3.91l19.66 1.08c1.82.11 3.26 2.48 3.26 5.36z" fill="#263238"/><path d="m131.94 235.85h-15.7l-18.03 60.22h15.71z" fill="#fff" opacity=".1"/><path d="m144.16 235.85h-7.5l-18.02 60.22h7.49z" fill="#fff" opacity=".1"/><path d="m189.75 335.89v20.55h-152.92l.08-20.55z"/><path d="m168.45 335.89h-14.14l-25.43 14.94v5.61h60.87v-20.55z" fill="#fff"/><path d="m63.19 350.83v5.61h-26.36l.08-20.55h.86z" fill="#fff"/><path d="m223.71 365.56-1.16-152.88-21-1c-5.24-.26-11.29 5.83-12.82 12.89l-15.22 79.43h-5.93c-6.66 0-11.22 4.85-11.21 10l.09 51.58h67.25" fill="#263238" opacity=".3"/><path d="m159.23 322.24a1.35 1.35 0 0 1 -.46 1 1.31 1.31 0 0 1 -.9.35h-120.87v-2.72h120.9a1.36 1.36 0 0 1 1.15.64 1.38 1.38 0 0 1 .18.73z" fill="#fff"/><path d="m58.32 320.88v2.72h-21.36l.01-2.72z" fill="#263238"/><path d="m159.23 322.24a1.35 1.35 0 0 1 -.46 1 1.31 1.31 0 0 1 -.9.35h-29.32v-2.72h29.32a1.36 1.36 0 0 1 1.15.64 1.38 1.38 0 0 1 .21.73z" fill="#263238"/><path d="m440.73 360v.54a5 5 0 0 1 -5 5h-397.2a5 5 0 0 1 -5-5v-.54a5 5 0 0 1 5-5h397.2a5 5 0 0 1 5 5z" fill="#263238"/><path d="m67.41 359.11h59.2v2.89h-59.2z"/><path d="m51.66 360.55a1.65 1.65 0 1 1 -1.66-1.65 1.65 1.65 0 0 1 1.66 1.65z" fill="#fff"/><path d="m140.75 360.55a1.65 1.65 0 1 1 -1.65-1.65 1.65 1.65 0 0 1 1.65 1.65z" fill="#fff"/><path d="m188.59 376.93c0-15.91 7.21-28.81 16.11-28.81h-17.09c-8.89 0-16.1 12.9-16.1 28.81s7.21 28.8 16.1 28.8h17.09c-8.9.03-16.11-12.86-16.11-28.8z"/><path d="m188.59 376.93c0-15.91 7.21-28.81 16.11-28.81h-17.09c-8.89 0-16.1 12.9-16.1 28.81s7.21 28.8 16.1 28.8h17.09c-8.9.03-16.11-12.86-16.11-28.8z" fill="#263238" opacity=".7"/><ellipse cx="204.7" cy="376.96" fill="#263238" rx="16.11" ry="28.81"/><ellipse cx="205.99" cy="376.96" fill="#fff" rx="11.42" ry="22.46"/><ellipse cx="204.95" cy="376.96" fill="#263238" rx="10.93" ry="19.44"/><ellipse cx="202.55" cy="376.96" rx="7.98" ry="14.19"/><path d="m440.73 360v.54a5 5 0 0 1 -5 5h-202.1v-10.54h202.1a5 5 0 0 1 5 5z" opacity=".5"/><path d="m377.92 376.93c0-15.91 7.21-28.81 16.1-28.81h-17.08c-8.9 0-16.11 12.9-16.11 28.81s7.21 28.8 16.11 28.8h17.06c-8.87.03-16.08-12.86-16.08-28.8z"/><path d="m377.92 376.93c0-15.91 7.21-28.81 16.1-28.81h-17.08c-8.9 0-16.11 12.9-16.11 28.81s7.21 28.8 16.11 28.8h17.06c-8.87.03-16.08-12.86-16.08-28.8z" fill="#263238" opacity=".7"/><ellipse cx="394.02" cy="376.96" fill="#263238" rx="16.11" ry="28.81"/><ellipse cx="395.32" cy="376.96" fill="#fff" rx="11.42" ry="22.46"/><ellipse cx="394.27" cy="376.96" fill="#263238" rx="10.93" ry="19.44"/><ellipse cx="391.87" cy="376.96" rx="7.98" ry="14.19"/><path d="m328.86 236c-.2 3.85-.55 7.57-1.12 11.36a63.37 63.37 0 0 1 -2.56 11.53 19.5 19.5 0 0 1 -1.43 3.16 9 9 0 0 1 -1.44 1.86l-.28.26-.16.12-.08.07-.34.23-.67.47a36.37 36.37 0 0 1 -5.34 2.83 61.16 61.16 0 0 1 -10.93 3.62l-1.3-3.56c3.18-1.76 6.44-3.56 9.41-5.43a41.78 41.78 0 0 0 4.18-2.93l.44-.37.22-.19s.09-.15.2-.39a13.52 13.52 0 0 0 .72-2 44.58 44.58 0 0 0 1.07-5c.31-1.74.56-3.51.77-5.31.41-3.57.76-7.23 1-10.79z" fill="#ce7a63"/><path d="m305.58 268-6.14-1.9 1.15 7.43s4-.5 6-2.74z" fill="#ce7a63"/><path d="m292 270.88.34 1a2.7 2.7 0 0 0 2.69 1.81l3.13-.14-1.16-7.45-3.44 1.35a2.72 2.72 0 0 0 -1.56 3.43z" fill="#ce7a63"/><path d="m336.12 228.79c0 2.32-1.12 6.9-2.08 10.34-.71 2.47-1.3 4.35-1.3 4.35l-1.41-.35-11.62-2.94c-.18-6 .05-12.53 6-16.45 3.72-2.46 10.38.92 10.41 5.05z" fill="#263238"/><path d="m336.11 229.19c-.76-.8-2.48-.94-6.23.25-5.37 1.7-6.87 7.58-6.94 11.57l8.39 2.12.72.19.69.16s.29-.94.71-2.37c.17-.58.38-1.26.58-2a54.34 54.34 0 0 0 2.08-9.92z" opacity=".3"/><path d="m312.27 415.47-7.09-2.48 4.46-15.36 7.08 2.49z" fill="#ce7a63"/><path d="m407 397.27-5.77 4.3-11.81-11.97 5.77-4.3z" fill="#ce7a63"/><path d="m398.87 399.82 6.23-5.15a.58.58 0 0 1 .76 0l4.78 4.34a1.15 1.15 0 0 1 0 1.63l-.1.09c-2.2 1.76-3.36 2.5-6.1 4.76-1.68 1.39-5.21 4.72-7.54 6.64s-4.35-.27-3.55-1.28c3.57-4.52 4.4-7.5 4.82-9.94a1.93 1.93 0 0 1 .7-1.09z" fill="#263238"/><path d="m304.7 410.77 7.88 3.29a.71.71 0 0 1 .42.74l-.89 6.95a1.06 1.06 0 0 1 -1.18.92 1 1 0 0 1 -.3-.08c-2.79-1.13-4.1-1.69-7.56-3.14l-10.62-4.45c-2.88-1.21-2.26-4.37-1-4.14 5.83 1.06 9.59.71 11.89-.16a1.77 1.77 0 0 1 1.36.07z" fill="#263238"/><path d="m309.64 397.64-2.29 7.91 6.9 3.12 2.48-8.55z" opacity=".2"/><path d="m395.2 385.3-5.78 4.3 6.09 6.17 5.77-4.3z" opacity=".2"/><path d="m357.92 266.33-29.2.42c-4-22.61-5-33.4-5-38.59a5.56 5.56 0 0 1 4.5-5.48c1.78-.35 4-.75 6.23-1.06.76-.1 1.53-.2 2.29-.28a93.16 93.16 0 0 1 13.26-.19c.66 0 1.31.06 2 .1 3 .19 5.74.57 7.69.87a2.68 2.68 0 0 1 2.22 3.07.77.77 0 0 1 0 .15c-.86 4-1.56 7.55-2.12 10.71-.89 5-1.45 9.08-1.78 12.64a110.52 110.52 0 0 0 -.09 17.64z" fill="#263238"/><path d="m358 248.72c-1.47-4.41-1.39-13.56.19-16.52l1.61 3.87c-.91 5.03-1.47 9.09-1.8 12.65z" opacity=".1"/><path d="m328.72 266.75s-5 42.51-9.51 69c-3.57 20.74-12.59 63.91-12.59 63.91l11.71 4.15s13.41-45 15.76-64.22c9.45-27.71 16.25-73.05 16.25-73.05z" fill="#ffc100"/><path d="m304.72 402.56 13.55 4.77 1.81-4.35-14.7-5.62z" fill="#263238"/><path d="m343.52 279.38-4.38 8.39c-1.6 6.32-1.22 21.7.81 31.42 3.64-14.65 6.55-30.07 8.36-40.42z" opacity=".1"/><path d="m335.06 266.75s5.23 47.58 15 74c4.9 13.25 41.25 52.53 41.25 52.53l8.2-6.56s-23.05-39.63-33.13-50c-4.11-23 1.06-57.48-8.49-70.38z" fill="#ffc100"/><path d="m392 396.09 9.62-7.88-2.6-4.27-10.53 9.17z" fill="#263238"/><path d="m358.38 264.62 1.35 2.59c.1.2-.13.42-.47.42l-30.64.44c-.27 0-.48-.13-.51-.29l-.29-2.61c0-.18.21-.34.49-.34l29.58-.43a.58.58 0 0 1 .49.22z" fill="#263238"/><path d="m354.41 268h.81c.15 0 .27-.09.26-.18l-.43-3.4c0-.1-.14-.17-.3-.17h-.75c-.16 0-.28.09-.26.18l.42 3.39c-.05.08.1.18.25.18z" fill="#ffc100"/><path d="m330.82 268.32h.8c.16 0 .27-.09.26-.19l-.41-3.39c0-.1-.16-.18-.32-.18h-.8c-.16 0-.28.09-.27.19l.42 3.39c.02.1.16.18.32.18z" fill="#ffc100"/><path d="m342.62 268.13h.8c.16 0 .28-.09.27-.19l-.42-3.39c0-.11-.15-.19-.31-.18h-.8c-.16 0-.27.09-.27.19l.42 3.39c-.01.12.15.18.31.18z" fill="#ffc100"/><path d="m289.64 236.82 43.34-5.95 6 42.55-42.56 5.84z" fill="#ffc100"/><path d="m289.64 236.82 43.34-5.95 6 42.55-42.56 5.84z" fill="#fff" opacity=".8"/><path d="m324.28 230.89h11.69v44.34h-11.69z" fill="#ffc100" opacity=".2" transform="matrix(.99 -.14 .14 .99 -31.36 47.27)"/><path d="m345.27 268.06-6-2.35.59 7.5s4-.2 6.15-2.29z" fill="#ce7a63"/><path d="m364.14 230.72c1.61 4.5 3 9 4.18 13.6.6 2.31 1.16 4.63 1.61 7 .22 1.2.41 2.42.55 3.69a25.66 25.66 0 0 1 .17 4 10.67 10.67 0 0 1 -.4 2.57 7.42 7.42 0 0 1 -1.61 2.77 12.77 12.77 0 0 1 -3.75 2.77 33.27 33.27 0 0 1 -7.24 2.53 76.06 76.06 0 0 1 -14.25 1.91l-.47-3.77c2.19-.52 4.43-1.1 6.61-1.71s4.35-1.29 6.43-2.05a32.44 32.44 0 0 0 5.72-2.61 6.64 6.64 0 0 0 1.74-1.47c.13-.2.13-.25.11-.25a6.61 6.61 0 0 0 0-.89 21.46 21.46 0 0 0 -.31-2.89c-.16-1-.38-2.12-.62-3.22-.5-2.14-1.06-4.33-1.69-6.52-1.25-4.34-2.66-8.75-4.07-13z" fill="#ce7a63"/><path d="m333.74 269.41.47 1.74a2.65 2.65 0 0 0 2.49 2l3.22.09-.59-7.49-3.28.37a2.66 2.66 0 0 0 -2.38 2.92 2.7 2.7 0 0 0 .07.37z" fill="#ce7a63"/><path d="m360.73 222.34c3.36 1.37 6.11 12.41 6.11 12.41l-9.28 7.25s-6.58-10.3-5.24-14.77c1.14-3.78 4.13-6.62 8.41-4.89z" fill="#263238"/><path d="m396.6 402.94h-.12a1 1 0 0 1 -.81-.52.59.59 0 0 1 -.05-.59c.41-.8 3-1.12 3.28-1.15a.16.16 0 0 1 .17.08.17.17 0 0 1 0 .19c-.54.73-1.59 1.93-2.47 1.99zm1.95-1.87c-1 .15-2.41.48-2.61.92a.23.23 0 0 0 0 .25.62.62 0 0 0 .53.36c.5 0 1.3-.54 2.1-1.53z" fill="#263238"/><path d="m398.78 401c-.87 0-2.61-.31-3-1a.6.6 0 0 1 .14-.73.89.89 0 0 1 .7-.29c1.05 0 2.38 1.61 2.42 1.7a.15.15 0 0 1 0 .16.15.15 0 0 1 -.13.11zm-2.22-1.66a.59.59 0 0 0 -.37.18c-.15.16-.12.26-.08.34.23.44 1.6.8 2.48.8a4 4 0 0 0 -1.95-1.33z" fill="#263238"/><path d="m300.67 410.61a2.82 2.82 0 0 1 -1.39-1 1.1 1.1 0 0 1 -.08-.92.52.52 0 0 1 .38-.35c.92-.17 3.09 2.16 3.51 2.63a.18.18 0 0 1 0 .2.16.16 0 0 1 -.18.08 11.51 11.51 0 0 1 -2.24-.64zm-.69-1.88a.63.63 0 0 0 -.33-.06s-.09 0-.13.12a.72.72 0 0 0 .06.64c.31.54 1.38 1.05 2.9 1.38a10.42 10.42 0 0 0 -2.48-2.08z" fill="#263238"/><path d="m302.9 411.23h-.06c-.73-.73-1.92-2.92-1.51-3.62.09-.15.28-.31.71-.19 1.61.47 1.12 3.59 1.09 3.72a.13.13 0 0 1 -.12.13.11.11 0 0 1 -.11-.04zm-.8-3.49h-.1c-.16-.05-.28 0-.32 0-.24.41.53 2.06 1.23 2.94-.01-.77.09-2.54-.81-2.94z" fill="#263238"/><path d="m333.08 191.23s-4 6.69-1 9.62 3.88-7.46 3.88-7.46z" fill="#263238"/><path d="m351.66 206.93s5-7.82 2.92-15.59-11.8-2.75-15.9-4.88a23.46 23.46 0 0 0 -4.77-2.21 1.83 1.83 0 0 0 -1.59.27c-1 .88.74 2.53 1.28 3.15a5.52 5.52 0 0 0 -1.14-1c-.53-.35-1.24-.38-1 .51a4.4 4.4 0 0 0 2.08 2.2c-.39-.22-2.7-1.39-2.86-.66a.72.72 0 0 0 .13.5c1.5 2.8 4.52 6.32 8 6.39 4.19.06 8.19 11.85 12.85 11.32z" fill="#263238"/><path d="m353.43 207.28c-.26 2.64-4.18 2.67-4.18 2.67a8.48 8.48 0 0 1 -3.07 3.72 22 22 0 0 0 .16 4.78c.66 2.49 1.5 3.35 2.55 3.91l-.84.83a11 11 0 0 1 -5.28 1.47l-1.1-.64-1.44.23c-4-1.31-3-4-3-4a8.09 8.09 0 0 0 .11-5.71c-3.84-1.2-5.41-4.54-5.95-10.16s2.62-11 2.62-11c4.34 4.19 12.94 1.5 12.94 1.5-.37 7.88 3.31 10.79 3.31 10.79 1.21-1.08 3.42-1.02 3.17 1.61z" fill="#ce7a63"/><path d="m339.47 208a4.42 4.42 0 0 0 2.51-1.84.33.33 0 0 0 -.08-.45.32.32 0 0 0 -.45.07 3.25 3.25 0 0 1 -3.51 1.6.32.32 0 0 0 -.4.21.33.33 0 0 0 .21.41 3.4 3.4 0 0 0 1.72 0z" fill="#263238"/><path d="m340.61 201.12c0 .51-.2.95-.54 1s-.65-.37-.69-.88.21-1 .55-1 .64.36.68.88z" fill="#263238"/><path d="m334.49 200.86c0 .51-.2.95-.54 1s-.64-.37-.68-.88.2-.95.54-1 .65.36.68.88z" fill="#263238"/><path d="m336.11 205.81-.07-3.7-1.84 3.12a2.3 2.3 0 0 0 1.91.58z" fill="#ba4d3c"/><path d="m343.4 198a.34.34 0 0 0 .12-.06.42.42 0 0 0 .14-.59 3.47 3.47 0 0 0 -3.27-1.68.42.42 0 0 0 -.37.48.43.43 0 0 0 .48.37 2.64 2.64 0 0 1 2.43 1.28.43.43 0 0 0 .47.2z" fill="#263238"/><path d="m332.55 197.59a.45.45 0 0 0 .27-.2 1.68 1.68 0 0 1 1.68-.73.42.42 0 0 0 .5-.34.43.43 0 0 0 -.34-.5 2.5 2.5 0 0 0 -2.58 1.14.44.44 0 0 0 .15.59.45.45 0 0 0 .32.04z" fill="#263238"/><path d="m350.52 222.71-2.15 2.1-3.83 3.76-1.44-2.29-1.43-2.26 5-5.96 3.64 4.4z" fill="#fff"/><path d="m341.67 224.02-1.11 1.85-1.63 2.7-3.74-6.75 2.39-2.81z" fill="#fff"/></svg>