<svg xmlns="http://www.w3.org/2000/svg" width="85.4" height="79.7" viewBox="0 0 85.4 79.7">
  <path id="ai" d="M87.1,45.4A4.4,4.4,0,0,0,83,48.1H76.3a18.2,18.2,0,0,0-2.2-7,8,8,0,0,0-.3-3.1c0-.1,0-.1-.1-.2H77l3.1-2.3a4.376,4.376,0,0,0,2.5.8,4.5,4.5,0,1,0-4.5-4.5,5.067,5.067,0,0,0,.2,1.3L76,34.9H72a14.751,14.751,0,0,0-4.9-3.8,9.669,9.669,0,0,0-2-4.9l8.7-10.1H84a4.552,4.552,0,0,0,4.2,3,4.5,4.5,0,0,0,0-9,4.552,4.552,0,0,0-4.2,3H72.5L62.9,24.2a9.212,9.212,0,0,0-5-1.5,9.372,9.372,0,0,0-8,4.6A9.114,9.114,0,0,0,42.1,23a8.718,8.718,0,0,0-4.8,1.4L27.5,13.2H16a4.552,4.552,0,0,0-4.2-3,4.5,4.5,0,0,0,0,9,4.552,4.552,0,0,0,4.2-3H26.2L35,26.3a8.372,8.372,0,0,0-2.1,5.1,15,15,0,0,0-4.6,3.5H24l-2.3-1.7a5.067,5.067,0,0,0,.2-1.3,4.5,4.5,0,1,0-4.5,4.5,4.376,4.376,0,0,0,2.5-.8L23,37.9h3.4c-.1.2-.1.3-.2.5a8.2,8.2,0,0,0-.3,3.1,18.7,18.7,0,0,0-2.2,6.7H17a4.517,4.517,0,1,0,.2,3h6.5A12.583,12.583,0,0,0,26,57a11.16,11.16,0,0,0-.8,4.4v.2H20l-3.1,2.3a4.376,4.376,0,0,0-2.5-.8,4.5,4.5,0,1,0,4.5,4.5,5.067,5.067,0,0,0-.2-1.3L21,64.6h4.6a7.209,7.209,0,0,0,2.1,3.3,8.851,8.851,0,0,0,5.4,2.2,9.987,9.987,0,0,0,2.3,4.3l-8.2,9.4H19.3a4.552,4.552,0,0,0-4.2-3,4.5,4.5,0,1,0,0,9,4.552,4.552,0,0,0,4.2-3h9.3l9.2-10.6a8.679,8.679,0,0,0,4.2,1,3.4,3.4,0,0,0,1-.1,9.2,9.2,0,0,0,6.2-3.4,8.342,8.342,0,0,0,.8-1.2l.6.9a9.658,9.658,0,0,0,6.2,3.4c.3,0,.7.1,1,.1a9.021,9.021,0,0,0,4-.9l9.4,10.8h9.3a4.552,4.552,0,0,0,4.2,3,4.5,4.5,0,0,0,0-9,4.552,4.552,0,0,0-4.2,3H72.6l-8.3-9.6a9.233,9.233,0,0,0,2.5-4.4,9.022,9.022,0,0,0,5.4-2.2,7.912,7.912,0,0,0,2-3H79l2.3,1.7a5.067,5.067,0,0,0-.2,1.3,4.5,4.5,0,1,0,4.5-4.5,4.376,4.376,0,0,0-2.5.8L80,61.6H74.8v-.5a10.811,10.811,0,0,0-.8-4.4,12.642,12.642,0,0,0,2.2-5.6h6.6a4.411,4.411,0,0,0,4.3,3.3,4.5,4.5,0,1,0,0-9ZM47.2,72.1A6.544,6.544,0,0,1,37,63.9a6.215,6.215,0,0,1,3.5-2.2,11.621,11.621,0,0,0,4.3,4.9,1.445,1.445,0,0,0,.7.2,1.342,1.342,0,0,0,.7-2.5c-.3-.2-6.4-3.8-2.7-11.5a1.342,1.342,0,0,0-2.4-1.2,12.07,12.07,0,0,0-1.3,7.5A9.1,9.1,0,0,0,33,67.4a5.978,5.978,0,0,1-3.4-1.5A6,6,0,0,1,28,61.3c0-2.6.8-4.5,2.3-5.6a4.381,4.381,0,0,1,3.2-.9,1.248,1.248,0,0,0,1.7-.2,1.391,1.391,0,0,0,0-1.9c-1-1-3.3-.8-4.9-.1a7.645,7.645,0,0,0-2.6,1.8,11.284,11.284,0,0,1-.5-9.1,4.129,4.129,0,0,0,.7,1.1,7.75,7.75,0,0,0-.2,3.4v.1a1.381,1.381,0,0,0,1,1.3H29a1.3,1.3,0,0,0,1.3-1,2.134,2.134,0,0,0,0-.8c-.2-.9-.7-3.8,4.8-6.2A1.366,1.366,0,1,0,34,40.7a14.344,14.344,0,0,0-4.7,3.2,6.079,6.079,0,0,1-.5-4.7,3.1,3.1,0,0,1,.6-1.3h.2v-.4A10.915,10.915,0,0,1,33,34.4a9.265,9.265,0,0,0,8.2,7.1,8.028,8.028,0,0,0,1.7,3.3,1.284,1.284,0,0,0,1,.4,1.086,1.086,0,0,0,.9-.4,1.3,1.3,0,0,0,0-1.9c-2.1-2.2-.8-6.4-.7-6.5a1.329,1.329,0,1,0-2.5-.9,15.608,15.608,0,0,0-.6,3.2,6.57,6.57,0,0,1-5.5-6.5,6.5,6.5,0,0,1,13-.2V67.3A5.839,5.839,0,0,1,47.2,72.1ZM69.8,52.5c-1.7-.7-4-.9-4.9.1a1.391,1.391,0,0,0,0,1.9,1.377,1.377,0,0,0,1.7.2,5.062,5.062,0,0,1,3.2.9c1.5,1.1,2.3,3,2.3,5.6a6.57,6.57,0,0,1-1.6,4.6,6.4,6.4,0,0,1-3.4,1.5A9.1,9.1,0,0,0,60.3,59,12.707,12.707,0,0,0,59,51.5a1.342,1.342,0,1,0-2.4,1.2c3.7,7.7-2.4,11.4-2.7,11.5a1.334,1.334,0,0,0-.5,1.8,1.525,1.525,0,0,0,1.2.7,1.854,1.854,0,0,0,.7-.2,12.46,12.46,0,0,0,4.3-4.9,6.215,6.215,0,0,1,3.5,2.2,6.544,6.544,0,1,1-11.6,3.4V31.9A6.5,6.5,0,1,1,59,38.6a10.482,10.482,0,0,0-.6-3.2,1.329,1.329,0,1,0-2.5.9s1.4,4.2-.7,6.4a1.391,1.391,0,0,0,0,1.9,1.222,1.222,0,0,0,.9.4,1.284,1.284,0,0,0,1-.4,6.563,6.563,0,0,0,1.7-3.3A9.265,9.265,0,0,0,67,34.2a10.916,10.916,0,0,1,3.4,3.1V38h.4a3,3,0,0,1,.4,1,6.6,6.6,0,0,1-.5,4.7A14.344,14.344,0,0,0,66,40.5,1.366,1.366,0,0,0,64.9,43c5.6,2.4,5,5.3,4.8,6.2a2.134,2.134,0,0,0,0,.8A1.381,1.381,0,0,0,71,51h.3a1.3,1.3,0,0,0,1-1.3v-.1a6.505,6.505,0,0,0-.2-3.4,5.973,5.973,0,0,0,.6-1.1c.8,2.4,1.4,5.9-.4,9.1A6.192,6.192,0,0,0,69.8,52.5Z" transform="translate(-7.3 -10.1)" fill="#225b83"/>
</svg>
