<svg xmlns="http://www.w3.org/2000/svg" width="83.918" height="96.245" viewBox="0 0 83.918 96.245">
  <g id="blockchain" transform="translate(-7.041 -0.877)">
    <path id="Path_1462" data-name="Path 1462" d="M7.041,89.392l14.134,7.213L35.31,89.392V72.76l-5.46-2.786,9.258-5.125,9.79,5,9.854-5.029,9,5.871-5.074,2.589V89.909l14.134,7.213,14.135-7.213V73.277L76.811,66.064,69.8,69.64l-9-5.871,7.231-3.69v-22.5L60.7,33.836l9.328-5.163,6.794,3.467,14.134-7.213V8.294L76.825,1.081,62.69,8.294V24.926l5.191,2.649-9.328,5.163L48.9,27.812l-9.839,5.022L30.447,27.2l4.863-2.482V8.091L21.175.877,7.041,8.091V24.723l14.134,7.213,7.219-3.684,8.612,5.629-7.246,3.7v22.5l7.2,3.674L27.7,68.877l-6.526-3.33L7.041,72.76Zm81.9-1.906L85.33,85.209,84.264,86.9l3.66,2.3L76.811,94.877,65.7,89.206l3.66-2.3-1.065-1.692-3.616,2.276V75.523L75.811,81.2V84.94h2V81.205l11.135-5.682V87.486ZM76.811,68.309,87.745,73.89,76.811,79.47,65.876,73.89Zm.014-64.983L87.759,8.907,76.825,14.487,65.89,8.907Zm-11.113,20.9,3.66-2.3-1.065-1.692L64.69,22.5V10.54l11.134,5.682v3.736h2V16.222L88.959,10.54V22.5l-3.615-2.276-1.065,1.692,3.659,2.3L76.825,29.895ZM21.175,3.122,32.11,8.7,21.175,14.284,10.241,8.7Zm0,26.568L10.062,24.019l3.659-2.3-1.065-1.692L9.041,22.3V10.336l11.134,5.682v3.736h2V16.018L33.31,10.336V22.3l-3.616-2.276-1.065,1.692,3.66,2.3Zm27.723.366,15.938,8.134L48.9,46.325,32.961,38.191ZM32.783,59.376,38.4,55.837l-1.065-1.692-5.577,3.511V39.824L47.9,48.059v5.392h2V48.059l16.138-8.236V57.655l-5.577-3.511-1.065,1.692,5.621,3.539L48.9,67.6ZM21.175,67.792,32.11,73.373,21.175,78.953,10.241,73.373ZM9.041,75.006l11.134,5.682v3.735h2V80.688L33.31,75.006V86.969l-3.616-2.276-1.065,1.692,3.66,2.3L21.175,94.36,10.062,88.689l3.659-2.3-1.065-1.692L9.041,86.968Z" fill="#225b83"/>
    <rect id="Rectangle_542" data-name="Rectangle 542" width="2" height="2" transform="translate(78.154 47.509)" fill="#f26b1d"/>
    <rect id="Rectangle_543" data-name="Rectangle 543" width="2" height="2" transform="translate(78.154 43.509)" fill="#f26b1d"/>
    <rect id="Rectangle_544" data-name="Rectangle 544" width="2" height="2" transform="translate(78.154 51.509)" fill="#f26b1d"/>
    <rect id="Rectangle_545" data-name="Rectangle 545" width="2" height="2" transform="translate(78.154 39.509)" fill="#f26b1d"/>
    <rect id="Rectangle_546" data-name="Rectangle 546" width="2" height="2" transform="translate(78.154 55.509)" fill="#f26b1d"/>
    <rect id="Rectangle_547" data-name="Rectangle 547" width="2" height="2" transform="translate(17.988 43.509)" fill="#f26b1d"/>
    <rect id="Rectangle_548" data-name="Rectangle 548" width="2" height="2" transform="translate(17.988 51.509)" fill="#f26b1d"/>
    <rect id="Rectangle_549" data-name="Rectangle 549" width="2" height="2" transform="translate(17.988 47.509)" fill="#f26b1d"/>
    <rect id="Rectangle_550" data-name="Rectangle 550" width="2" height="2" transform="translate(17.988 55.509)" fill="#f26b1d"/>
    <rect id="Rectangle_551" data-name="Rectangle 551" width="2" height="2" transform="translate(17.988 39.509)" fill="#f26b1d"/>
    <rect id="Rectangle_552" data-name="Rectangle 552" width="2" height="2" transform="translate(49.757 12.053)" fill="#f26b1d"/>
    <rect id="Rectangle_553" data-name="Rectangle 553" width="2" height="2" transform="translate(41.757 12.053)" fill="#f26b1d"/>
    <rect id="Rectangle_554" data-name="Rectangle 554" width="2" height="2" transform="translate(53.757 12.053)" fill="#f26b1d"/>
    <rect id="Rectangle_555" data-name="Rectangle 555" width="2" height="2" transform="translate(45.757 12.053)" fill="#f26b1d"/>
    <rect id="Rectangle_556" data-name="Rectangle 556" width="2" height="2" transform="translate(41.757 82.348)" fill="#f26b1d"/>
    <rect id="Rectangle_557" data-name="Rectangle 557" width="2" height="2" transform="translate(45.757 82.348)" fill="#f26b1d"/>
    <rect id="Rectangle_558" data-name="Rectangle 558" width="2" height="2" transform="translate(53.757 82.348)" fill="#f26b1d"/>
    <rect id="Rectangle_559" data-name="Rectangle 559" width="2" height="2" transform="translate(49.757 82.348)" fill="#f26b1d"/>
  </g>
</svg>
