<svg xmlns="http://www.w3.org/2000/svg" width="85.155" height="62.145" viewBox="0 0 85.155 62.145">
  <g id="career-building-3" transform="translate(-880 -4669.846)">
    <g id="noun_company_2469051" transform="translate(881.793 4669.846)">
      <g id="Group_665" data-name="Group 665" transform="translate(0 0)">
        <path id="Path_686" data-name="Path 686" d="M99.962,168.886v5.139l8.5-4.372v-5.812Zm0,36.92,8.5-4.372V194.1l-8.5,4.372v7.336Zm11.4-4.545,11.2,3.6v-7.551l-11.2-3.6Zm11.2,6.642-11.2-3.6V219.02h11.2Zm-14.1-3.212-8.5,4.372v9.957h8.5Zm-8.5-9.48,8.5-4.372v-7.334l-8.5,4.372Zm11.4-4.544,11.2,3.6v-7.551l-11.2-3.6Zm-11.4-6.049,8.5-4.372v-7.336l-8.5,4.373Zm11.4-4.544,11.2,3.6v-7.551l-11.2-3.6v7.551Zm0-10.593,11.2,3.6v-5.417l-11.2-4.145Zm22.885,24.3V219.02h7.395v-22.81Zm-2.905,25.237v-25l-5.439,2.7v22.3ZM91.665,194.045V219.02h5.393v-22.3ZM88.759,219.02V193.768l-7.439,2.443v22.81Zm-16.054-5.783v5.783h5.71v-5.869l-3.275-.938ZM69.8,211.32l5.171-2.176,3.444.988V194.113l11.976-3.934,6.666,3.307V167.238l12.565-7.458,15.842,5.867v28.059l7.107-3.526,11.976,3.934v16.019l3.445-.988,5.17,2.176v10.6H69.8Zm80.457,7.7v-5.783l-2.433-1.025-3.276.938v5.869Z" transform="translate(-69.8 -159.78)" fill="#f26b1d"/>
      </g>
    </g>
    <g id="noun_company_2469051-2" data-name="noun_company_2469051" transform="translate(880 4669.846)">
      <g id="Group_665-2" data-name="Group 665" transform="translate(0 0)">
        <path id="Path_686-2" data-name="Path 686" d="M99.962,168.886v5.139l8.5-4.372v-5.812Zm0,36.92,8.5-4.372V194.1l-8.5,4.372v7.336Zm11.4-4.545,11.2,3.6v-7.551l-11.2-3.6Zm11.2,6.642-11.2-3.6V219.02h11.2Zm-14.1-3.212-8.5,4.372v9.957h8.5Zm-8.5-9.48,8.5-4.372v-7.334l-8.5,4.372Zm11.4-4.544,11.2,3.6v-7.551l-11.2-3.6Zm-11.4-6.049,8.5-4.372v-7.336l-8.5,4.373Zm11.4-4.544,11.2,3.6v-7.551l-11.2-3.6v7.551Zm0-10.593,11.2,3.6v-5.417l-11.2-4.145Zm22.885,24.3V219.02h7.395v-22.81Zm-2.905,25.237v-25l-5.439,2.7v22.3ZM91.665,194.045V219.02h5.393v-22.3ZM88.759,219.02V193.768l-7.439,2.443v22.81Zm-16.054-5.783v5.783h5.71v-5.869l-3.275-.938ZM69.8,211.32l5.171-2.176,3.444.988V194.113l11.976-3.934,6.666,3.307V167.238l12.565-7.458,15.842,5.867v28.059l7.107-3.526,11.976,3.934v16.019l3.445-.988,5.17,2.176v10.6H69.8Zm80.457,7.7v-5.783l-2.433-1.025-3.276.938v5.869Z" transform="translate(-69.8 -159.78)"/>
      </g>
    </g>
  </g>
</svg>
