<svg xmlns="http://www.w3.org/2000/svg" width="66.987" height="66.046" viewBox="0 0 66.987 66.046">
  <g id="career-benifits-5" transform="translate(-508 -5109.954)">
    <g id="noun_benefit_1327178" transform="translate(508 5108.954)">
      <g id="Group_711" data-name="Group 711">
        <g id="Group_688" data-name="Group 688">
          <path id="Path_720" data-name="Path 720" d="M66.6,44.5a3.721,3.721,0,0,0-5.3-1.8L46.5,52.4a1.012,1.012,0,0,0,1.1,1.7l14.8-9.7a1.782,1.782,0,0,1,2.5,1,2.494,2.494,0,0,1-.9,3.1L49.2,58.2l-9.6,6a5.206,5.206,0,0,1-4.7.5L22,60.1c-.1,0-.2-.1-.4-.1l-4.3.2V42.7c2.2-.5,9.1-1.8,12.1,2a3.25,3.25,0,0,0,2.5,1.1h11A2.111,2.111,0,0,1,44.8,48a2.042,2.042,0,0,1-1.9,2.2H32.4a2.808,2.808,0,0,0-2.6,1.7,3.21,3.21,0,0,0,.2,3.4l.1.1a.909.909,0,0,0,.8.4,1.421,1.421,0,0,0,.6-.2,1.075,1.075,0,0,0,.2-1.4,1.526,1.526,0,0,1-.1-1.3c.1-.1.3-.6.8-.6H42.9a4.107,4.107,0,0,0,3.9-4.2,4.041,4.041,0,0,0-3.9-4.2h-11a1.023,1.023,0,0,1-.9-.4C27.4,39,20.3,40,17.3,40.7V38.8a.945.945,0,0,0-1-1H2.2a.945.945,0,0,0-1,1V63.7a.945.945,0,0,0,1,1H16.3a.945.945,0,0,0,1-1V62.3l4.1-.2L34,66.6a7.285,7.285,0,0,0,6.4-.7l9.6-6h0l14.8-9.7A4.492,4.492,0,0,0,66.6,44.5ZM15.3,62.6H3.2V39.8H15.3Z" fill="#f26b1d"/>
        </g>
        <g id="Group_689" data-name="Group 689">
          <path id="Path_721" data-name="Path 721" d="M49.2,42.7A10.9,10.9,0,1,0,38.4,31.8,10.84,10.84,0,0,0,49.2,42.7Zm0-19.7a8.9,8.9,0,1,1-8.8,8.9A8.835,8.835,0,0,1,49.2,23Z" fill="#f26b1d"/>
        </g>
        <g id="Group_690" data-name="Group 690">
          <path id="Path_722" data-name="Path 722" d="M45.8,34.4,44.5,36a8.091,8.091,0,0,0,4.4,2v1.3H50V38a4.466,4.466,0,0,0,2.9-1.1A3.408,3.408,0,0,0,54,34.4,2.965,2.965,0,0,0,53,32a7.042,7.042,0,0,0-3-1.3h0V27.3a5.506,5.506,0,0,1,2.5,1l1.2-1.6A7.517,7.517,0,0,0,50,25.4v-.9H48.9v.9a4.407,4.407,0,0,0-2.8,1.1A2.656,2.656,0,0,0,45,28.9a2.869,2.869,0,0,0,.9,2.3,8.812,8.812,0,0,0,2.9,1.3V36A6.323,6.323,0,0,1,45.8,34.4ZM50,32.8a3.493,3.493,0,0,1,1.5.7,1.159,1.159,0,0,1,.4,1,1.231,1.231,0,0,1-.5,1A2.168,2.168,0,0,1,50,36Zm-2.5-3.2a1.268,1.268,0,0,1-.4-.9,1.389,1.389,0,0,1,.5-1,2.226,2.226,0,0,1,1.3-.5v3.1A2.575,2.575,0,0,1,47.5,29.6Z" fill="#f26b1d"/>
        </g>
        <g id="Group_691" data-name="Group 691">
          <path id="Path_723" data-name="Path 723" d="M49.4,19.9a.945.945,0,0,0,1-1V16a1,1,0,1,0-2,0v2.9A1,1,0,0,0,49.4,19.9Z" fill="#f26b1d"/>
        </g>
        <g id="Group_692" data-name="Group 692">
          <path id="Path_724" data-name="Path 724" d="M33.4,30.7a1,1,0,1,0,0,2h2.8a1,1,0,0,0,0-2Z" fill="#f26b1d"/>
        </g>
        <g id="Group_693" data-name="Group 693">
          <path id="Path_725" data-name="Path 725" d="M61.2,32a.945.945,0,0,0,1,1H65a1,1,0,0,0,0-2H62.2A1,1,0,0,0,61.2,32Z" fill="#f26b1d"/>
        </g>
        <g id="Group_694" data-name="Group 694">
          <path id="Path_726" data-name="Path 726" d="M59.2,23.5l2-2a.99.99,0,1,0-1.4-1.4l-2,2a.967.967,0,0,0,0,1.4A1.2,1.2,0,0,0,59.2,23.5Z" fill="#f26b1d"/>
        </g>
        <g id="Group_695" data-name="Group 695">
          <path id="Path_727" data-name="Path 727" d="M39.5,23.3a.99.99,0,0,0,1.4-1.4l-2-2a.99.99,0,1,0-1.4,1.4Z" fill="#f26b1d"/>
        </g>
        <g id="Group_696" data-name="Group 696">
          <path id="Path_728" data-name="Path 728" d="M54,20.8a.992.992,0,0,0,1.3-.5l1.1-2.6a.985.985,0,1,0-1.8-.8l-1.1,2.6A.992.992,0,0,0,54,20.8Z" fill="#f26b1d"/>
        </g>
        <g id="Group_697" data-name="Group 697">
          <path id="Path_729" data-name="Path 729" d="M38.3,27.1a.992.992,0,0,0-.5-1.3l-2.6-1.1a.985.985,0,1,0-.8,1.8L37,27.6A.992.992,0,0,0,38.3,27.1Z" fill="#f26b1d"/>
        </g>
        <g id="Group_698" data-name="Group 698">
          <path id="Path_730" data-name="Path 730" d="M60.4,27.4a.917.917,0,0,0,1.3.5l2.6-1.1a.985.985,0,0,0-.8-1.8l-2.6,1.1A.992.992,0,0,0,60.4,27.4Z" fill="#f26b1d"/>
        </g>
        <g id="Group_699" data-name="Group 699">
          <path id="Path_731" data-name="Path 731" d="M43.5,20.2a.985.985,0,1,0,1.8-.8l-1.1-2.6a.985.985,0,1,0-1.8.8Z" fill="#f26b1d"/>
        </g>
        <g id="Group_700" data-name="Group 700">
          <path id="Path_732" data-name="Path 732" d="M18.5,29.8A11.3,11.3,0,1,0,7.3,18.5,11.267,11.267,0,0,0,18.5,29.8Zm0-20.6a9.3,9.3,0,1,1-9.2,9.3A9.261,9.261,0,0,1,18.5,9.2Z" fill="#f26b1d"/>
        </g>
        <g id="Group_701" data-name="Group 701">
          <path id="Path_733" data-name="Path 733" d="M14.9,21.2l-1.4,1.6a7.4,7.4,0,0,0,4.6,2v1.4h1.2V24.9a4.536,4.536,0,0,0,3-1.1,3.343,3.343,0,0,0,1.1-2.7,3.04,3.04,0,0,0-1-2.5,8.167,8.167,0,0,0-3.1-1.4h-.1V13.7a5.035,5.035,0,0,1,2.6,1.1L23,13.1a8.015,8.015,0,0,0-3.9-1.4v-1H17.9v.9A4.466,4.466,0,0,0,15,12.7a3.631,3.631,0,0,0-1.1,2.6,2.719,2.719,0,0,0,1,2.4A7.559,7.559,0,0,0,18,19v3.6A4.826,4.826,0,0,1,14.9,21.2Zm4.4-1.7a5.287,5.287,0,0,1,1.5.7,1.284,1.284,0,0,1,.4,1,1.606,1.606,0,0,1-.5,1.1,1.978,1.978,0,0,1-1.4.5Zm-2.6-3.3a1.528,1.528,0,0,1-.4-1,1.231,1.231,0,0,1,.5-1,2.541,2.541,0,0,1,1.3-.5v3.2A2.575,2.575,0,0,1,16.7,16.2Z" fill="#f26b1d"/>
        </g>
        <g id="Group_702" data-name="Group 702">
          <path id="Path_734" data-name="Path 734" d="M18.6,6a.945.945,0,0,0,1-1V2a1,1,0,0,0-2,0V5A1.075,1.075,0,0,0,18.6,6Z" fill="#f26b1d"/>
        </g>
        <g id="Group_703" data-name="Group 703">
          <path id="Path_735" data-name="Path 735" d="M2,19.4H5a1,1,0,0,0,0-2H2a.945.945,0,0,0-1,1A1.075,1.075,0,0,0,2,19.4Z" fill="#f26b1d"/>
        </g>
        <g id="Group_704" data-name="Group 704">
          <path id="Path_736" data-name="Path 736" d="M31,18.6a.945.945,0,0,0,1,1h3a1,1,0,0,0,0-2H32A1,1,0,0,0,31,18.6Z" fill="#f26b1d"/>
        </g>
        <g id="Group_705" data-name="Group 705">
          <path id="Path_737" data-name="Path 737" d="M28.8,9.7l2.1-2.1a.99.99,0,1,0-1.4-1.4L27.4,8.3a.99.99,0,0,0,1.4,1.4Z" fill="#f26b1d"/>
        </g>
        <g id="Group_706" data-name="Group 706">
          <path id="Path_738" data-name="Path 738" d="M8.3,9.5A.99.99,0,0,0,9.7,8.1L7.6,6A.99.99,0,0,0,6.2,7.4Z" fill="#f26b1d"/>
        </g>
        <g id="Group_707" data-name="Group 707">
          <path id="Path_739" data-name="Path 739" d="M23.5,7a.992.992,0,0,0,1.3-.5L26,3.8A.985.985,0,1,0,24.2,3L23,5.7A.86.86,0,0,0,23.5,7Z" fill="#f26b1d"/>
        </g>
        <g id="Group_708" data-name="Group 708">
          <path id="Path_740" data-name="Path 740" d="M3,12.9,5.7,14a.985.985,0,1,0,.8-1.8L3.7,11a.992.992,0,0,0-1.3.5A1.033,1.033,0,0,0,3,12.9Z" fill="#f26b1d"/>
        </g>
        <g id="Group_709" data-name="Group 709">
          <path id="Path_741" data-name="Path 741" d="M30.1,13.9a.917.917,0,0,0,1.3.5l2.8-1.1a.917.917,0,0,0,.5-1.3.917.917,0,0,0-1.3-.5l-2.8,1.1A1.093,1.093,0,0,0,30.1,13.9Z" fill="#f26b1d"/>
        </g>
        <g id="Group_710" data-name="Group 710">
          <path id="Path_742" data-name="Path 742" d="M12.6,6.3a.985.985,0,1,0,1.8-.8L13.3,2.7A1.093,1.093,0,0,0,12,2.2a.917.917,0,0,0-.5,1.3Z" fill="#f26b1d"/>
        </g>
      </g>
    </g>
    <g id="noun_benefit_1327178-2" data-name="noun_benefit_1327178" transform="translate(507 5108.954)">
      <g id="Group_711-2" data-name="Group 711">
        <g id="Group_688-2" data-name="Group 688">
          <path id="Path_720-2" data-name="Path 720" d="M66.6,44.5a3.721,3.721,0,0,0-5.3-1.8L46.5,52.4a1.012,1.012,0,0,0,1.1,1.7l14.8-9.7a1.782,1.782,0,0,1,2.5,1,2.494,2.494,0,0,1-.9,3.1L49.2,58.2l-9.6,6a5.206,5.206,0,0,1-4.7.5L22,60.1c-.1,0-.2-.1-.4-.1l-4.3.2V42.7c2.2-.5,9.1-1.8,12.1,2a3.25,3.25,0,0,0,2.5,1.1h11A2.111,2.111,0,0,1,44.8,48a2.042,2.042,0,0,1-1.9,2.2H32.4a2.808,2.808,0,0,0-2.6,1.7,3.21,3.21,0,0,0,.2,3.4l.1.1a.909.909,0,0,0,.8.4,1.421,1.421,0,0,0,.6-.2,1.075,1.075,0,0,0,.2-1.4,1.526,1.526,0,0,1-.1-1.3c.1-.1.3-.6.8-.6H42.9a4.107,4.107,0,0,0,3.9-4.2,4.041,4.041,0,0,0-3.9-4.2h-11a1.023,1.023,0,0,1-.9-.4C27.4,39,20.3,40,17.3,40.7V38.8a.945.945,0,0,0-1-1H2.2a.945.945,0,0,0-1,1V63.7a.945.945,0,0,0,1,1H16.3a.945.945,0,0,0,1-1V62.3l4.1-.2L34,66.6a7.285,7.285,0,0,0,6.4-.7l9.6-6h0l14.8-9.7A4.492,4.492,0,0,0,66.6,44.5ZM15.3,62.6H3.2V39.8H15.3Z" fill="#010101"/>
        </g>
        <g id="Group_689-2" data-name="Group 689">
          <path id="Path_721-2" data-name="Path 721" d="M49.2,42.7A10.9,10.9,0,1,0,38.4,31.8,10.84,10.84,0,0,0,49.2,42.7Zm0-19.7a8.9,8.9,0,1,1-8.8,8.9A8.835,8.835,0,0,1,49.2,23Z" fill="#010101"/>
        </g>
        <g id="Group_690-2" data-name="Group 690">
          <path id="Path_722-2" data-name="Path 722" d="M45.8,34.4,44.5,36a8.091,8.091,0,0,0,4.4,2v1.3H50V38a4.466,4.466,0,0,0,2.9-1.1A3.408,3.408,0,0,0,54,34.4,2.965,2.965,0,0,0,53,32a7.042,7.042,0,0,0-3-1.3h0V27.3a5.506,5.506,0,0,1,2.5,1l1.2-1.6A7.517,7.517,0,0,0,50,25.4v-.9H48.9v.9a4.407,4.407,0,0,0-2.8,1.1A2.656,2.656,0,0,0,45,28.9a2.869,2.869,0,0,0,.9,2.3,8.812,8.812,0,0,0,2.9,1.3V36A6.323,6.323,0,0,1,45.8,34.4ZM50,32.8a3.493,3.493,0,0,1,1.5.7,1.159,1.159,0,0,1,.4,1,1.231,1.231,0,0,1-.5,1A2.168,2.168,0,0,1,50,36Zm-2.5-3.2a1.268,1.268,0,0,1-.4-.9,1.389,1.389,0,0,1,.5-1,2.226,2.226,0,0,1,1.3-.5v3.1A2.575,2.575,0,0,1,47.5,29.6Z" fill="#010101"/>
        </g>
        <g id="Group_691-2" data-name="Group 691">
          <path id="Path_723-2" data-name="Path 723" d="M49.4,19.9a.945.945,0,0,0,1-1V16a1,1,0,1,0-2,0v2.9A1,1,0,0,0,49.4,19.9Z" fill="#010101"/>
        </g>
        <g id="Group_692-2" data-name="Group 692">
          <path id="Path_724-2" data-name="Path 724" d="M33.4,30.7a1,1,0,1,0,0,2h2.8a1,1,0,0,0,0-2Z" fill="#010101"/>
        </g>
        <g id="Group_693-2" data-name="Group 693">
          <path id="Path_725-2" data-name="Path 725" d="M61.2,32a.945.945,0,0,0,1,1H65a1,1,0,0,0,0-2H62.2A1,1,0,0,0,61.2,32Z" fill="#010101"/>
        </g>
        <g id="Group_694-2" data-name="Group 694">
          <path id="Path_726-2" data-name="Path 726" d="M59.2,23.5l2-2a.99.99,0,1,0-1.4-1.4l-2,2a.967.967,0,0,0,0,1.4A1.2,1.2,0,0,0,59.2,23.5Z" fill="#010101"/>
        </g>
        <g id="Group_695-2" data-name="Group 695">
          <path id="Path_727-2" data-name="Path 727" d="M39.5,23.3a.99.99,0,0,0,1.4-1.4l-2-2a.99.99,0,1,0-1.4,1.4Z" fill="#010101"/>
        </g>
        <g id="Group_696-2" data-name="Group 696">
          <path id="Path_728-2" data-name="Path 728" d="M54,20.8a.992.992,0,0,0,1.3-.5l1.1-2.6a.985.985,0,1,0-1.8-.8l-1.1,2.6A.992.992,0,0,0,54,20.8Z" fill="#010101"/>
        </g>
        <g id="Group_697-2" data-name="Group 697">
          <path id="Path_729-2" data-name="Path 729" d="M38.3,27.1a.992.992,0,0,0-.5-1.3l-2.6-1.1a.985.985,0,1,0-.8,1.8L37,27.6A.992.992,0,0,0,38.3,27.1Z" fill="#010101"/>
        </g>
        <g id="Group_698-2" data-name="Group 698">
          <path id="Path_730-2" data-name="Path 730" d="M60.4,27.4a.917.917,0,0,0,1.3.5l2.6-1.1a.985.985,0,0,0-.8-1.8l-2.6,1.1A.992.992,0,0,0,60.4,27.4Z" fill="#010101"/>
        </g>
        <g id="Group_699-2" data-name="Group 699">
          <path id="Path_731-2" data-name="Path 731" d="M43.5,20.2a.985.985,0,1,0,1.8-.8l-1.1-2.6a.985.985,0,1,0-1.8.8Z" fill="#010101"/>
        </g>
        <g id="Group_700-2" data-name="Group 700">
          <path id="Path_732-2" data-name="Path 732" d="M18.5,29.8A11.3,11.3,0,1,0,7.3,18.5,11.267,11.267,0,0,0,18.5,29.8Zm0-20.6a9.3,9.3,0,1,1-9.2,9.3A9.261,9.261,0,0,1,18.5,9.2Z" fill="#010101"/>
        </g>
        <g id="Group_701-2" data-name="Group 701">
          <path id="Path_733-2" data-name="Path 733" d="M14.9,21.2l-1.4,1.6a7.4,7.4,0,0,0,4.6,2v1.4h1.2V24.9a4.536,4.536,0,0,0,3-1.1,3.343,3.343,0,0,0,1.1-2.7,3.04,3.04,0,0,0-1-2.5,8.167,8.167,0,0,0-3.1-1.4h-.1V13.7a5.035,5.035,0,0,1,2.6,1.1L23,13.1a8.015,8.015,0,0,0-3.9-1.4v-1H17.9v.9A4.466,4.466,0,0,0,15,12.7a3.631,3.631,0,0,0-1.1,2.6,2.719,2.719,0,0,0,1,2.4A7.559,7.559,0,0,0,18,19v3.6A4.826,4.826,0,0,1,14.9,21.2Zm4.4-1.7a5.287,5.287,0,0,1,1.5.7,1.284,1.284,0,0,1,.4,1,1.606,1.606,0,0,1-.5,1.1,1.978,1.978,0,0,1-1.4.5Zm-2.6-3.3a1.528,1.528,0,0,1-.4-1,1.231,1.231,0,0,1,.5-1,2.541,2.541,0,0,1,1.3-.5v3.2A2.575,2.575,0,0,1,16.7,16.2Z" fill="#010101"/>
        </g>
        <g id="Group_702-2" data-name="Group 702">
          <path id="Path_734-2" data-name="Path 734" d="M18.6,6a.945.945,0,0,0,1-1V2a1,1,0,0,0-2,0V5A1.075,1.075,0,0,0,18.6,6Z" fill="#010101"/>
        </g>
        <g id="Group_703-2" data-name="Group 703">
          <path id="Path_735-2" data-name="Path 735" d="M2,19.4H5a1,1,0,0,0,0-2H2a.945.945,0,0,0-1,1A1.075,1.075,0,0,0,2,19.4Z" fill="#010101"/>
        </g>
        <g id="Group_704-2" data-name="Group 704">
          <path id="Path_736-2" data-name="Path 736" d="M31,18.6a.945.945,0,0,0,1,1h3a1,1,0,0,0,0-2H32A1,1,0,0,0,31,18.6Z" fill="#010101"/>
        </g>
        <g id="Group_705-2" data-name="Group 705">
          <path id="Path_737-2" data-name="Path 737" d="M28.8,9.7l2.1-2.1a.99.99,0,1,0-1.4-1.4L27.4,8.3a.99.99,0,0,0,1.4,1.4Z" fill="#010101"/>
        </g>
        <g id="Group_706-2" data-name="Group 706">
          <path id="Path_738-2" data-name="Path 738" d="M8.3,9.5A.99.99,0,0,0,9.7,8.1L7.6,6A.99.99,0,0,0,6.2,7.4Z" fill="#010101"/>
        </g>
        <g id="Group_707-2" data-name="Group 707">
          <path id="Path_739-2" data-name="Path 739" d="M23.5,7a.992.992,0,0,0,1.3-.5L26,3.8A.985.985,0,1,0,24.2,3L23,5.7A.86.86,0,0,0,23.5,7Z" fill="#010101"/>
        </g>
        <g id="Group_708-2" data-name="Group 708">
          <path id="Path_740-2" data-name="Path 740" d="M3,12.9,5.7,14a.985.985,0,1,0,.8-1.8L3.7,11a.992.992,0,0,0-1.3.5A1.033,1.033,0,0,0,3,12.9Z" fill="#010101"/>
        </g>
        <g id="Group_709-2" data-name="Group 709">
          <path id="Path_741-2" data-name="Path 741" d="M30.1,13.9a.917.917,0,0,0,1.3.5l2.8-1.1a.917.917,0,0,0,.5-1.3.917.917,0,0,0-1.3-.5l-2.8,1.1A1.093,1.093,0,0,0,30.1,13.9Z" fill="#010101"/>
        </g>
        <g id="Group_710-2" data-name="Group 710">
          <path id="Path_742-2" data-name="Path 742" d="M12.6,6.3a.985.985,0,1,0,1.8-.8L13.3,2.7A1.093,1.093,0,0,0,12,2.2a.917.917,0,0,0-.5,1.3Z" fill="#010101"/>
        </g>
      </g>
    </g>
  </g>
</svg>
