<svg xmlns="http://www.w3.org/2000/svg" width="62.264" height="61.264" viewBox="0 0 62.264 61.264">
  <g id="career-earth-4" transform="translate(-136 -5115)">
    <g id="noun_global_641211" transform="translate(137 5115)">
      <g id="Group_667" data-name="Group 667">
        <g id="Group_666" data-name="Group 666">
          <path id="Path_688" data-name="Path 688" d="M55.992,53.228l-3.832-.957L52,51.63a8.437,8.437,0,0,0,1.994-3.952,2.392,2.392,0,0,0,1.276-1.825l.278-2.221a2.379,2.379,0,0,0-1.036-2.272l.066-1.353.235-.235c.659-.7,1.549-2.193.138-4.347a5.329,5.329,0,0,0-4.807-2.241A8.087,8.087,0,0,0,45.713,34.3c-5.253.186-5.871,3.017-5.871,5.154,0,.421.077,1.21.148,1.869A2.384,2.384,0,0,0,38.9,43.635l.278,2.221a2.335,2.335,0,0,0,1.412,1.861,8.533,8.533,0,0,0,1.886,3.809l-.186.75-3.832.957a6.951,6.951,0,0,0-5.271,6.754,1.27,1.27,0,0,0,.373.9,1.285,1.285,0,0,0,.9.373l25.527,0a1.277,1.277,0,0,0,1.276-1.276A6.96,6.96,0,0,0,55.992,53.228ZM35.923,58.708a4.428,4.428,0,0,1,3.153-3L43.65,54.56a1.269,1.269,0,0,0,.929-.927l.544-2.177a1.272,1.272,0,0,0-.365-1.241A5.764,5.764,0,0,1,43,46.563a1.172,1.172,0,0,0-1.287-1.029L41.386,43.5a1.275,1.275,0,0,0,1.266-1.435c-.1-.771-.253-2.165-.253-2.614,0-1.322,0-2.571,3.729-2.609a1.271,1.271,0,0,0,.73-.237,5.477,5.477,0,0,1,3.285-.87c1.958,0,2.5.819,2.668,1.09.521.794.306,1.019.166,1.172l-.556.554a1.28,1.28,0,0,0-.373.842l-.135,2.777a1,1,0,0,0,1.1,1.149L52.848,45.4a1.277,1.277,0,0,0-1.274,1.174,5.792,5.792,0,0,1-1.84,3.722,1.278,1.278,0,0,0-.385,1.261l.523,2.086a1.277,1.277,0,0,0,.929.927l4.574,1.144a4.4,4.4,0,0,1,3.15,3Zm.24-14.037A1.277,1.277,0,0,0,34.887,43.4H30.632V30.632h25.46c-.023.5-.026,1.011-.079,1.506a1.277,1.277,0,0,0,2.54.265,29.356,29.356,0,1,0-29.2,26.308,1.277,1.277,0,0,0,1.276-1.276V45.948h4.255A1.277,1.277,0,0,0,36.163,44.671ZM56.095,28.079H45.912A48.363,48.363,0,0,0,43.99,15.316h8.153A26.591,26.591,0,0,1,56.095,28.079ZM50.366,12.763H43.122a25.5,25.5,0,0,0-5.407-8.858A26.881,26.881,0,0,1,50.366,12.763ZM30.632,2.68c3.852.7,7.3,4.521,9.646,10.083H30.632Zm0,12.636H41.225a44.643,44.643,0,0,1,2.134,12.763H30.632ZM21,3.906a25.5,25.5,0,0,0-5.407,8.858H8.345A26.881,26.881,0,0,1,21,3.906ZM6.568,15.316h8.153A48.363,48.363,0,0,0,12.8,28.079H2.616A26.591,26.591,0,0,1,6.568,15.316ZM2.616,30.632H12.8A48.363,48.363,0,0,0,14.721,43.4H6.568A26.591,26.591,0,0,1,2.616,30.632ZM8.345,45.948h7.244A25.5,25.5,0,0,0,21,54.805,26.881,26.881,0,0,1,8.345,45.948ZM28.079,56.031c-3.852-.7-7.3-4.521-9.646-10.083h9.646Zm0-12.636H17.486a44.643,44.643,0,0,1-2.134-12.763H28.079Zm0-15.316H15.352a44.643,44.643,0,0,1,2.134-12.763H28.079Zm0-15.316H18.433C20.776,7.2,24.227,3.38,28.079,2.68Z" fill="#f26b1d"/>
        </g>
      </g>
    </g>
    <g id="noun_global_641211-2" data-name="noun_global_641211" transform="translate(136 5115)">
      <g id="Group_667-2" data-name="Group 667">
        <g id="Group_666-2" data-name="Group 666">
          <path id="Path_688-2" data-name="Path 688" d="M55.992,53.228l-3.832-.957L52,51.63a8.437,8.437,0,0,0,1.994-3.952,2.392,2.392,0,0,0,1.276-1.825l.278-2.221a2.379,2.379,0,0,0-1.036-2.272l.066-1.353.235-.235c.659-.7,1.549-2.193.138-4.347a5.329,5.329,0,0,0-4.807-2.241A8.087,8.087,0,0,0,45.713,34.3c-5.253.186-5.871,3.017-5.871,5.154,0,.421.077,1.21.148,1.869A2.384,2.384,0,0,0,38.9,43.635l.278,2.221a2.335,2.335,0,0,0,1.412,1.861,8.533,8.533,0,0,0,1.886,3.809l-.186.75-3.832.957a6.951,6.951,0,0,0-5.271,6.754,1.27,1.27,0,0,0,.373.9,1.285,1.285,0,0,0,.9.373l25.527,0a1.277,1.277,0,0,0,1.276-1.276A6.96,6.96,0,0,0,55.992,53.228ZM35.923,58.708a4.428,4.428,0,0,1,3.153-3L43.65,54.56a1.269,1.269,0,0,0,.929-.927l.544-2.177a1.272,1.272,0,0,0-.365-1.241A5.764,5.764,0,0,1,43,46.563a1.172,1.172,0,0,0-1.287-1.029L41.386,43.5a1.275,1.275,0,0,0,1.266-1.435c-.1-.771-.253-2.165-.253-2.614,0-1.322,0-2.571,3.729-2.609a1.271,1.271,0,0,0,.73-.237,5.477,5.477,0,0,1,3.285-.87c1.958,0,2.5.819,2.668,1.09.521.794.306,1.019.166,1.172l-.556.554a1.28,1.28,0,0,0-.373.842l-.135,2.777a1,1,0,0,0,1.1,1.149L52.848,45.4a1.277,1.277,0,0,0-1.274,1.174,5.792,5.792,0,0,1-1.84,3.722,1.278,1.278,0,0,0-.385,1.261l.523,2.086a1.277,1.277,0,0,0,.929.927l4.574,1.144a4.4,4.4,0,0,1,3.15,3Zm.24-14.037A1.277,1.277,0,0,0,34.887,43.4H30.632V30.632h25.46c-.023.5-.026,1.011-.079,1.506a1.277,1.277,0,0,0,2.54.265,29.356,29.356,0,1,0-29.2,26.308,1.277,1.277,0,0,0,1.276-1.276V45.948h4.255A1.277,1.277,0,0,0,36.163,44.671ZM56.095,28.079H45.912A48.363,48.363,0,0,0,43.99,15.316h8.153A26.591,26.591,0,0,1,56.095,28.079ZM50.366,12.763H43.122a25.5,25.5,0,0,0-5.407-8.858A26.881,26.881,0,0,1,50.366,12.763ZM30.632,2.68c3.852.7,7.3,4.521,9.646,10.083H30.632Zm0,12.636H41.225a44.643,44.643,0,0,1,2.134,12.763H30.632ZM21,3.906a25.5,25.5,0,0,0-5.407,8.858H8.345A26.881,26.881,0,0,1,21,3.906ZM6.568,15.316h8.153A48.363,48.363,0,0,0,12.8,28.079H2.616A26.591,26.591,0,0,1,6.568,15.316ZM2.616,30.632H12.8A48.363,48.363,0,0,0,14.721,43.4H6.568A26.591,26.591,0,0,1,2.616,30.632ZM8.345,45.948h7.244A25.5,25.5,0,0,0,21,54.805,26.881,26.881,0,0,1,8.345,45.948ZM28.079,56.031c-3.852-.7-7.3-4.521-9.646-10.083h9.646Zm0-12.636H17.486a44.643,44.643,0,0,1-2.134-12.763H28.079Zm0-15.316H15.352a44.643,44.643,0,0,1,2.134-12.763H28.079Zm0-15.316H18.433C20.776,7.2,24.227,3.38,28.079,2.68Z"/>
        </g>
      </g>
    </g>
  </g>
</svg>
