<svg xmlns="http://www.w3.org/2000/svg" width="71" height="63.454" viewBox="0 0 71 63.454">
  <g id="career-time-2" transform="translate(-7960.5 -5351.828)">
    <path id="Path_830" data-name="Path 830" d="M225.675,233.149a2.781,2.781,0,0,0-1.654-3.991v-7.408a.789.789,0,1,0-1.578,0v7.408a2.779,2.779,0,1,0,2.116,5.107l3.871,3.871a.789.789,0,0,0,1.115-1.116Zm-3.645-1.327a1.2,1.2,0,1,1,1.2,1.2A1.2,1.2,0,0,1,222.03,231.822Z" transform="translate(7768.914 5154.634)"/>
    <path id="Path_831" data-name="Path 831" d="M440.222,310.47a2.254,2.254,0,1,0-2.254,2.254A2.257,2.257,0,0,0,440.222,310.47Zm-2.254.676a.676.676,0,1,1,.676-.676A.677.677,0,0,1,437.968,311.146Z" transform="translate(7587.615 5081.146)"/>
    <path id="Path_832" data-name="Path 832" d="M405.468,308.216a2.254,2.254,0,1,0,2.254,2.254A2.257,2.257,0,0,0,405.468,308.216Zm0,2.93a.676.676,0,1,1,.676-.676A.677.677,0,0,1,405.468,311.146Z" transform="translate(7614.988 5081.146)"/>
    <path id="Path_833" data-name="Path 833" d="M372.968,308.216a2.254,2.254,0,1,0,2.254,2.254A2.257,2.257,0,0,0,372.968,308.216Zm0,2.93a.676.676,0,1,1,.676-.676A.677.677,0,0,1,372.968,311.146Z" transform="translate(7642.36 5081.146)"/>
    <path id="Path_834" data-name="Path 834" d="M104.91,118.264A11.044,11.044,0,0,0,93.138,99.951a24.292,24.292,0,0,0-8.384-14.426l.78-1,4.548,3.546a.789.789,0,0,0,1.107-.137,8.984,8.984,0,0,0-14.17-11.049.789.789,0,0,0,.137,1.107L81.7,81.538l-.976,1.252a24.257,24.257,0,0,0-8.516-2.747V76.223H73a2.947,2.947,0,1,0,0-5.895H65.548a2.947,2.947,0,1,0,0,5.895h.789v3.788a24.174,24.174,0,0,0-8.632,2.7l-.911-1.169,4.548-3.547a.789.789,0,0,0,.137-1.107A8.984,8.984,0,1,0,47.31,87.934a.789.789,0,0,0,1.107.137l4.548-3.546.7.892a24.319,24.319,0,0,0-8.617,22.368,8.282,8.282,0,1,0,6.946,13.725,24.185,24.185,0,0,0,1.849,1.653l-2.709,4.063a4.217,4.217,0,1,0,7.363,4.052l1.923-4.328a24.3,24.3,0,0,0,17.463.011l1.918,4.317a4.218,4.218,0,0,0,7.572.277,4.157,4.157,0,0,0-.209-4.329l-2.706-4.059a24.55,24.55,0,0,0,4.982-5.468,11.008,11.008,0,0,0,10.251,3.232l5.514,2.363a.79.79,0,0,0,1.059-.975Zm-16.252-41.7A7.417,7.417,0,0,1,90.4,86.316L78.781,77.258A7.4,7.4,0,0,1,88.658,76.568Zm-5.71,5.94,1.341,1.045-.778,1q-.687-.5-1.41-.957ZM64.179,73.275a1.371,1.371,0,0,1,1.37-1.37H73a1.37,1.37,0,1,1,0,2.739H71.624a.784.784,0,0,0-.2-.03,44.416,44.416,0,0,0-4.5.03H65.548A1.371,1.371,0,0,1,64.179,73.275Zm3.736,2.947h2.718V79.9a23.979,23.979,0,0,0-2.718-.016ZM48.1,86.316a7.407,7.407,0,0,1,11.616-9.058l-7.1,5.537h0Zm6.108-2.762,1.341-1.046.775.994q-.725.451-1.416.95Zm14.937-2.128a22.836,22.836,0,0,1,22.519,19.289,11.129,11.129,0,0,0-3.084,2.834,19.447,19.447,0,1,0-38.259,5.559,8.227,8.227,0,0,0-3.682-1.315A22.81,22.81,0,0,1,69.146,81.426Zm13.206,34.815-1.458-1.458a.789.789,0,1,0-1.115,1.116l1.461,1.461a17.8,17.8,0,0,1-11.3,4.707v-2.09a.789.789,0,0,0-1.578,0v2.09a17.8,17.8,0,0,1-11.3-4.707l1.461-1.461a.789.789,0,1,0-1.116-1.116l-1.458,1.458a17.8,17.8,0,0,1-4.649-11.3h2.03a.789.789,0,1,0,0-1.578H51.3A17.8,17.8,0,0,1,56,92.121l1.4,1.4A.789.789,0,0,0,58.515,92.4l-1.4-1.4a17.8,17.8,0,0,1,11.238-4.646v1.965a.789.789,0,0,0,1.578,0V86.362a17.8,17.8,0,0,1,11.239,4.646l-1.4,1.4a.789.789,0,0,0,1.115,1.116l1.4-1.4A17.8,17.8,0,0,1,87,103.362H84.97a.789.789,0,1,0,0,1.578H87A17.8,17.8,0,0,1,82.352,116.241Zm-36.568,6.5a6.7,6.7,0,1,1,.182-13.407h0a6.7,6.7,0,0,1-.185,13.407Zm11.268,7.9a2.639,2.639,0,1,1-4.608-2.536l2.657-3.986a24.522,24.522,0,0,0,3.862,2.222Zm28.8-2.536a2.639,2.639,0,1,1-4.608,2.536l-1.906-4.288A23.807,23.807,0,0,0,83.2,124.12Zm-2.8-5.807a.765.765,0,0,0-.089.047.781.781,0,0,0-.158.144,22.844,22.844,0,0,1-29.872-2.267,8.223,8.223,0,0,0,1.128-3.751,19.435,19.435,0,0,0,32.639-3.874,10.983,10.983,0,0,0,1.7,3.823A22.912,22.912,0,0,1,83.045,122.293Zm20.2-4.029.962,2.887-4.131-1.771a.788.788,0,0,0-.488-.044,9.464,9.464,0,1,1,3.9-1.93A.789.789,0,0,0,103.247,118.264Z" transform="translate(7923 5281.5)"/>
    <path id="Path_835" data-name="Path 835" d="M75.709,333.636a9.451,9.451,0,0,0-1.327-.412v-1.455a4.081,4.081,0,0,1,1.712.707l.771-1.456a8.75,8.75,0,0,0-1.059-.5,4.6,4.6,0,0,0-1.306-.31v-1.081h-.738v1.081a2.43,2.43,0,0,0-2.44,2.451,1.731,1.731,0,0,0,.5,1.316,5.2,5.2,0,0,0,2.06.931v1.423a4.633,4.633,0,0,1-2.108-.867l-.77,1.53a6.056,6.056,0,0,0,2.761.92v1.252H74.5v-1.241a3.2,3.2,0,0,0,1.8-.572,1.977,1.977,0,0,0,.572-.7,2.3,2.3,0,0,0,.214-1.038A1.954,1.954,0,0,0,75.709,333.636Zm-1.83-.562a1.676,1.676,0,0,1-.562-.273.519.519,0,0,1-.187-.423q0-.556.749-.621v1.316Zm.5,3.275v-1.284a2.5,2.5,0,0,1,.6.284.5.5,0,0,1,.225.433Q75.206,336.316,74.382,336.348Z" transform="translate(7894.786 5063.536)"/>
  </g>
</svg>
