<svg xmlns="http://www.w3.org/2000/svg" width="384.621" height="345.153" viewBox="0 0 384.621 345.153">
  <g id="cta-mail" transform="translate(-484.504 -60)">
    <g id="Group_3382" data-name="Group 3382" transform="translate(20583 -2109)">
      <path id="Path_1478" data-name="Path 1478" d="M-20097.7,2300.973c1,6.949-.1,183.814,0,211.37.654,1.059,10.732.617,23.229,1.163,80.348.692,359.615-.174,359.615-.174s2.939-210.542-1.369-212.6-187.191,80.157-187.191,80.157S-20098.7,2294.023-20097.7,2300.973Z" fill="#fff"/>
      <g id="Group_3381" data-name="Group 3381" transform="translate(-20098.496 2169)">
        <path id="Path_1470" data-name="Path 1470" d="M698.076,326.156a.673.673,0,0,1-.385-.121L511.137,196.113a3.383,3.383,0,0,0-3.864.007L322.062,326.034a.675.675,0,1,1-.775-1.1L506.5,195.015a4.737,4.737,0,0,1,5.41-.009L698.462,324.928a.675.675,0,0,1-.386,1.228Z" transform="translate(-316.953 -194.163)" fill="#fdfdff"/>
        <path id="Path_1472" data-name="Path 1472" d="M445.162,646.768H357.847a4.079,4.079,0,0,1,0-8.159h87.315a4.079,4.079,0,0,1,0,8.159Z" transform="translate(-327.617 -338.805)" fill="#f26b1d"/>
        <path id="Path_1473" data-name="Path 1473" d="M389.174,620.768H357.847a4.079,4.079,0,0,1,0-8.159h31.327a4.079,4.079,0,0,1,0,8.159Z" transform="translate(-327.617 -330.344)" fill="#f26b1d"/>
        <path id="Path_1474" data-name="Path 1474" d="M550.438,412.238a5.1,5.1,0,0,1-1.935-.379l-109-45.228V225.059a4.727,4.727,0,0,1,4.722-4.722H653.334a4.727,4.727,0,0,1,4.722,4.722V366.73l-.2.088-105.42,45.02a5.138,5.138,0,0,1-1.994.4Z" transform="translate(-355.518 -202.681)" fill="#fff"/>
        <path id="Path_1475" data-name="Path 1475" d="M550.275,412.412a5.445,5.445,0,0,1-2.064-.4L439,366.693V224.9a5.065,5.065,0,0,1,5.059-5.059H653.171a5.065,5.065,0,0,1,5.059,5.059V366.789L552.4,411.984A5.47,5.47,0,0,1,550.275,412.412Zm-109.926-46.62,108.376,44.969a4.127,4.127,0,0,0,3.149-.019L656.882,365.9v-141a3.714,3.714,0,0,0-3.71-3.71H444.059a3.714,3.714,0,0,0-3.71,3.71Z" transform="translate(-355.355 -202.518)" fill="#3f3d56"/>
        <path id="Path_1476" data-name="Path 1476" d="M694.774,387.837h-.135L617.2,420.9,511.248,466.147a3.417,3.417,0,0,1-2.618.013L399.319,420.81l-79.341-32.918-.121-.054h-.135A4.727,4.727,0,0,0,315,392.559V597.624a4.727,4.727,0,0,0,4.722,4.722H694.774a4.727,4.727,0,0,0,4.722-4.722V392.559A4.727,4.727,0,0,0,694.774,387.837Zm3.373,209.787A3.374,3.374,0,0,1,694.775,601H319.722a3.374,3.374,0,0,1-3.373-3.373V392.559a3.38,3.38,0,0,1,3.245-3.373l79.726,33.08,108.792,45.141a4.8,4.8,0,0,0,3.67-.02L617.2,422.368l77.709-33.181a3.384,3.384,0,0,1,3.238,3.373Z" transform="translate(-315 -257.193)" fill="#3f3d56"/>
      </g>
    </g>
    <g id="check-24px" transform="translate(593 81.255)">
      <path id="Path_1546" data-name="Path 1546" d="M0,0H171.745V171.745H0Z" fill="none"/>
      <path id="Path_1547" data-name="Path 1547" d="M43.412,81.3,13.572,51.46,3.41,61.55l40,40L129.285,15.68,119.195,5.59Z" transform="translate(20.992 34.412)" fill="#f26b1d"/>
    </g>
  </g>
</svg>
