<svg xmlns="http://www.w3.org/2000/svg" width="96" height="97" viewBox="0 0 96 97">
  <path id="iot" d="M92,61a10.97,10.97,0,0,0-8.99,4.67l-15.5-7.13a13.011,13.011,0,0,0-6.46-15.05l5.67-16.58A9.075,9.075,0,0,0,68,27a10.013,10.013,0,1,0-5.06-1.38L57.27,42.2A13.125,13.125,0,0,0,55,42a12.948,12.948,0,0,0-9.85,4.52L25.64,34.39A8.179,8.179,0,0,0,26,32a8,8,0,1,0-2.48,5.79L43.03,49.92a13.026,13.026,0,0,0,.41,11.03L25.55,74.01a10.919,10.919,0,1,0,2.37,3.23L45.81,64.19a12.945,12.945,0,0,0,8.75,3.8l2.51,20.569a8,8,0,1,0,3.98-.489L58.54,67.5a12.9,12.9,0,0,0,7.3-5.33l15.5,7.13A11,11,0,1,0,92,61ZM62,17a6,6,0,1,1,6.06,6H68a6.015,6.015,0,0,1-6-6ZM21.99,32.12A3.757,3.757,0,1,1,22,32,.487.487,0,0,1,21.99,32.12ZM18,89a7,7,0,0,1,0-14,7,7,0,0,1,7,7A7.008,7.008,0,0,1,18,89Zm42,3a3.906,3.906,0,0,1,1.57.33A3.955,3.955,0,1,1,60,92Zm3.81-35.16a9.014,9.014,0,0,1-5.76,6.62A8.815,8.815,0,0,1,55,64c-.31,0-.62-.02-.93-.05a8.955,8.955,0,0,1-4.97-2.16,9.1,9.1,0,0,1-2.37-3.24A8.943,8.943,0,0,1,46,55a8.629,8.629,0,0,1,.5-2.93A8.993,8.993,0,0,1,55,46c.32,0,.64.02.95.05a8.787,8.787,0,0,1,3.78,1.3A9,9,0,0,1,64,55,9.259,9.259,0,0,1,63.81,56.84ZM92,79a7.008,7.008,0,0,1-7-7,5.327,5.327,0,0,1,.08-.98,6.8,6.8,0,0,1,1.67-3.64A7,7,0,1,1,92,79Z" transform="translate(-7 -7)" fill="#225b83"/>
</svg>
