<svg xmlns="http://www.w3.org/2000/svg" width="144.768" height="155.674" viewBox="0 0 144.768 155.674">
  <g id="mobile-development-icon" transform="translate(-19.4 -15)">
    <g id="Group_735" data-name="Group 735" transform="translate(19.4 15)">
      <path id="Path_811" data-name="Path 811" d="M65.179,122.539a8.439,8.439,0,1,0-8.439,8.439A8.423,8.423,0,0,0,65.179,122.539Zm-11.555,0a3.246,3.246,0,1,1,3.246,3.246A3.214,3.214,0,0,1,53.623,122.539Z" transform="translate(-10.777 14.568)"/>
      <path id="Path_812" data-name="Path 812" d="M48.5,22.6a2.6,2.6,0,1,0,0,5.193h18.7a2.6,2.6,0,0,0,0-5.193Z" transform="translate(-11.493 -12.732)"/>
      <path id="Path_813" data-name="Path 813" d="M153.673,83.442H125.239L107.062,33.585a25.761,25.761,0,0,0-7.141-10.647A3.547,3.547,0,0,0,97.454,21.9a3.645,3.645,0,0,0-3.635,3.246,31.834,31.834,0,0,0-.26,3.506,26.747,26.747,0,0,0,1.558,9.089,6.829,6.829,0,0,0-6.362,4.674L73.824,83.442H47.6a2.6,2.6,0,0,0-2.6,2.6v16.23a2.6,2.6,0,0,0,2.6,2.6H65.9L60.71,119.147c0,.26-.13.519-.13.779l-.39,14.282a2.539,2.539,0,0,0,1.688,2.467,2.209,2.209,0,0,0,.909.13,2.711,2.711,0,0,0,2.077-1.039L73.824,124.6l.39-.779,7.011-19.086h38.432l3.506,9.608v.26a23.3,23.3,0,0,0,9.478,19.605l2.986,2.207a2.5,2.5,0,0,0,1.558.519,2.21,2.21,0,0,0,.909-.13,2.932,2.932,0,0,0,1.688-1.818l.909-3.635h0a23.382,23.382,0,0,0-5.323-21.033l-.13-.13-1.948-5.323h20.644a2.6,2.6,0,0,0,2.6-2.6V86.039A3.04,3.04,0,0,0,153.673,83.442Zm-23.5,28.953a3.254,3.254,0,0,0,.519.909l.519.519a18.381,18.381,0,0,1,4.155,16.23,18.454,18.454,0,0,1-7.271-15.061v-.779a2.859,2.859,0,0,0-.13-1.039L100.051,36.182a20.988,20.988,0,0,1-1.3-7.011,24.22,24.22,0,0,1,3.506,6.232Zm-60.763,9.478-3.765,4.8.13-6.1L93.559,44.232a1.877,1.877,0,0,1,2.467-1.169,1.953,1.953,0,0,1,1.3,1.818,1.171,1.171,0,0,1-.13.649Zm30.9-69.722,11.426,31.291H89.014ZM50.193,99.672V88.636H71.876L67.851,99.672Zm32.849,0,4.025-11.036h26.487l4.025,11.036Zm68.034,0H131.081l-4.025-11.036h24.02Z" transform="translate(-11.762 -12.941)" fill="#f26b1d"/>
      <path id="Path_814" data-name="Path 814" d="M107.689,111.988a2.6,2.6,0,0,0-2.6,2.6v44.534a6.372,6.372,0,0,1-6.362,6.362H30.955a6.372,6.372,0,0,1-6.362-6.362V26.555a6.372,6.372,0,0,1,6.362-6.362H98.73a2.6,2.6,0,0,0,0-5.193H30.955A11.581,11.581,0,0,0,19.4,26.555V159.118a11.581,11.581,0,0,0,11.555,11.555H98.73a11.581,11.581,0,0,0,11.555-11.555V114.584A2.6,2.6,0,0,0,107.689,111.988Z" transform="translate(-19.4 -15)"/>
    </g>
  </g>
</svg>
