<svg xmlns="http://www.w3.org/2000/svg" width="84.896" height="83.063" viewBox="0 0 84.896 83.063">
  <g id="mobile-time" transform="translate(-7.678 -29.571)">
    <g id="Group_734" data-name="Group 734" transform="translate(7.678 29.571)">
      <g id="Group_733" data-name="Group 733" transform="translate(0 0)">
        <g id="Group_732" data-name="Group 732">
          <path id="Path_743" data-name="Path 743" d="M327.626,298.763a1.593,1.593,0,0,0-.358-.265,7.4,7.4,0,0,0-.755-.4,10.753,10.753,0,0,0-1.021-.408,6.113,6.113,0,0,0-1.133-.275v2.776l.653.164a17.46,17.46,0,0,1,1.878.622,5.05,5.05,0,0,1,1.418.837,3.387,3.387,0,0,1,.9,1.215,4.221,4.221,0,0,1,.317,1.715,4.4,4.4,0,0,1-.408,1.98,3.766,3.766,0,0,1-1.092,1.337,4.868,4.868,0,0,1-1.572.786,7.619,7.619,0,0,1-1.868.306v2.368h-1.409v-2.389a12.428,12.428,0,0,1-2.786-.571,10.063,10.063,0,0,1-2.48-1.184l1.47-2.919a2.243,2.243,0,0,0,.439.337,7.131,7.131,0,0,0,.908.49,12.453,12.453,0,0,0,1.245.49,7.783,7.783,0,0,0,1.429.337V303.4l-.98-.286a12.042,12.042,0,0,1-1.735-.663,4.586,4.586,0,0,1-1.215-.827,3,3,0,0,1-.715-1.082,3.982,3.982,0,0,1-.235-1.429,4.608,4.608,0,0,1,.367-1.888,4.4,4.4,0,0,1,.99-1.418,4.542,4.542,0,0,1,1.47-.929,6.85,6.85,0,0,1,1.827-.439v-2.062h1.409v2.062a8.777,8.777,0,0,1,2.49.592,16.751,16.751,0,0,1,2.021.959Zm-5.654-.184a.99.99,0,0,0,.357.806,3.194,3.194,0,0,0,1.072.521V297.4Q321.97,297.518,321.971,298.58Zm3.96,6.492a.949.949,0,0,0-.429-.827,4.744,4.744,0,0,0-1.143-.541v2.45Q325.931,306.092,325.931,305.071Z" transform="translate(-264.105 -244.172)" fill="#000"/>
          <g id="Group_713" data-name="Group 713" transform="translate(6.813 6.813)">
            <path id="Path_744" data-name="Path 744" d="M79.663,102.613A17.949,17.949,0,1,1,97.612,84.664,17.969,17.969,0,0,1,79.663,102.613Zm0-34.064A16.115,16.115,0,1,0,95.777,84.664,16.133,16.133,0,0,0,79.663,68.549Z" transform="translate(-61.714 -66.715)" fill="#000"/>
          </g>
          <g id="Group_714" data-name="Group 714" transform="translate(34.326 32.492)">
            <path id="Path_745" data-name="Path 745" d="M237,257.286a25.286,25.286,0,1,1,0-50.571.917.917,0,1,1,0,1.834A23.451,23.451,0,1,0,260.451,232a.917.917,0,1,1,1.834,0A25.314,25.314,0,0,1,237,257.286Z" transform="translate(-211.714 -206.715)" fill="#000"/>
          </g>
          <g id="Group_715" data-name="Group 715" transform="translate(41.662 39.828)">
            <path id="Path_746" data-name="Path 746" d="M269.663,282.613a17.949,17.949,0,1,1,17.949-17.949A17.969,17.969,0,0,1,269.663,282.613Zm0-34.064a16.115,16.115,0,1,0,16.115,16.115A16.133,16.133,0,0,0,269.663,248.549Z" transform="translate(-251.714 -246.715)" fill="#000"/>
          </g>
          <g id="Group_716" data-name="Group 716" transform="translate(23.844 38.443)">
            <path id="Path_747" data-name="Path 747" d="M155.488,243.43a.917.917,0,0,1-.917-.917V240.08a.917.917,0,0,1,1.834,0v2.433A.917.917,0,0,1,155.488,243.43Z" transform="translate(-154.571 -239.163)" fill="#000"/>
          </g>
          <g id="Group_717" data-name="Group 717" transform="translate(23.844 6.813)">
            <path id="Path_748" data-name="Path 748" d="M155.488,70.981a.917.917,0,0,1-.917-.917V67.631a.917.917,0,0,1,1.834,0v2.433A.917.917,0,0,1,155.488,70.981Z" transform="translate(-154.571 -66.714)" fill="#000"/>
          </g>
          <g id="Group_718" data-name="Group 718" transform="translate(6.813 23.844)">
            <path id="Path_749" data-name="Path 749" d="M65.064,161.405H62.631a.917.917,0,0,1,0-1.834h2.433a.917.917,0,0,1,0,1.834Z" transform="translate(-61.714 -159.571)" fill="#000"/>
          </g>
          <g id="Group_719" data-name="Group 719" transform="translate(38.443 23.844)">
            <path id="Path_750" data-name="Path 750" d="M237.513,161.405H235.08a.917.917,0,1,1,0-1.834h2.433a.917.917,0,0,1,0,1.834Z" transform="translate(-234.163 -159.571)" fill="#000"/>
          </g>
          <g id="Group_720" data-name="Group 720" transform="translate(11.801 34.167)">
            <path id="Path_751" data-name="Path 751" d="M89.828,219.406a.917.917,0,0,1-.649-1.565l1.72-1.72a.917.917,0,0,1,1.3,1.3l-1.72,1.72A.914.914,0,0,1,89.828,219.406Z" transform="translate(-88.911 -215.852)" fill="#000"/>
          </g>
          <g id="Group_721" data-name="Group 721" transform="translate(34.167 11.802)">
            <path id="Path_752" data-name="Path 752" d="M211.767,97.467a.917.917,0,0,1-.649-1.565l1.72-1.72a.917.917,0,0,1,1.3,1.3l-1.72,1.72A.915.915,0,0,1,211.767,97.467Z" transform="translate(-210.85 -93.913)" fill="#000"/>
          </g>
          <g id="Group_722" data-name="Group 722" transform="translate(11.801 11.802)">
            <path id="Path_753" data-name="Path 753" d="M91.549,97.467A.915.915,0,0,1,90.9,97.2l-1.72-1.72a.917.917,0,0,1,1.3-1.3L92.2,95.9a.917.917,0,0,1-.648,1.565Z" transform="translate(-88.911 -93.913)" fill="#000"/>
          </g>
          <g id="Group_723" data-name="Group 723" transform="translate(34.167 34.167)">
            <path id="Path_754" data-name="Path 754" d="M213.488,219.406a.915.915,0,0,1-.649-.268l-1.72-1.72a.917.917,0,1,1,1.3-1.3l1.72,1.72a.917.917,0,0,1-.648,1.565Z" transform="translate(-210.85 -215.852)" fill="#000"/>
          </g>
          <g id="Group_724" data-name="Group 724" transform="translate(18.978 21.412)">
            <path id="Path_755" data-name="Path 755" d="M133.824,153.007a.917.917,0,0,1-.649-.269l-4.866-4.866a.917.917,0,0,1,1.3-1.3l4.4,4.4,4.275-2.137a.917.917,0,0,1,.82,1.641l-4.866,2.433A.915.915,0,0,1,133.824,153.007Z" transform="translate(-128.04 -146.307)" fill="#000"/>
          </g>
          <g id="Group_725" data-name="Group 725">
            <path id="Path_756" data-name="Path 756" d="M49.333,79.094a.917.917,0,0,1,0-1.834A22.927,22.927,0,1,0,26.405,54.333a.917.917,0,1,1-1.834,0A24.762,24.762,0,1,1,49.333,79.094Z" transform="translate(-24.571 -29.571)" fill="#000"/>
          </g>
          <g id="Group_726" data-name="Group 726" transform="translate(53.191 14.673)">
            <path id="Path_757" data-name="Path 757" d="M330.162,124.244a.917.917,0,0,1-.917-.917V111.405H315.488a.917.917,0,1,1,0-1.834h14.673a.917.917,0,0,1,.917.917v12.839A.917.917,0,0,1,330.162,124.244Z" transform="translate(-314.571 -109.571)" fill="#000"/>
          </g>
          <g id="Group_727" data-name="Group 727" transform="translate(64.197 23.845)">
            <path id="Path_758" data-name="Path 758" d="M379.157,165.074a.914.914,0,0,1-.648-.269l-3.668-3.668a.917.917,0,0,1,1.3-1.3l3.02,3.02,3.02-3.02a.917.917,0,1,1,1.3,1.3l-3.668,3.668A.914.914,0,0,1,379.157,165.074Z" transform="translate(-374.571 -159.572)" fill="#000"/>
          </g>
          <g id="Group_728" data-name="Group 728" transform="translate(12.839 51.357)">
            <path id="Path_759" data-name="Path 759" d="M110.162,324.245H95.488a.917.917,0,0,1-.917-.917V310.488a.917.917,0,0,1,1.834,0V322.41h13.756a.917.917,0,0,1,0,1.834Z" transform="translate(-94.571 -309.571)" fill="#000"/>
          </g>
          <g id="Group_729" data-name="Group 729" transform="translate(9.171 51.357)">
            <path id="Path_760" data-name="Path 760" d="M82.825,315.074a.914.914,0,0,1-.649-.269l-3.02-3.02-3.02,3.02a.917.917,0,0,1-1.3-1.3l3.668-3.668a.917.917,0,0,1,1.3,0l3.668,3.668a.917.917,0,0,1-.649,1.565Z" transform="translate(-74.571 -309.571)" fill="#000"/>
          </g>
          <g id="Group_730" data-name="Group 730" transform="translate(1.834 69.699)">
            <path id="Path_761" data-name="Path 761" d="M40.074,420.576a5.5,5.5,0,1,1,5.5-5.5A5.509,5.509,0,0,1,40.074,420.576Zm0-9.171a3.668,3.668,0,1,0,3.668,3.668A3.673,3.673,0,0,0,40.074,411.405Z" transform="translate(-34.571 -409.571)" fill="#000"/>
          </g>
          <g id="Group_731" data-name="Group 731" transform="translate(71.533 1.834)">
            <path id="Path_762" data-name="Path 762" d="M419.156,48.742a4.585,4.585,0,1,1,4.585-4.585A4.591,4.591,0,0,1,419.156,48.742Zm0-7.337a2.751,2.751,0,1,0,2.751,2.751A2.754,2.754,0,0,0,419.156,41.405Z" transform="translate(-414.571 -39.571)" fill="#000"/>
          </g>
          <circle id="Ellipse_134" data-name="Ellipse 134" cx="1.834" cy="1.834" r="1.834" transform="translate(74.285 33.932)" fill="#000"/>
          <circle id="Ellipse_135" data-name="Ellipse 135" cx="1.834" cy="1.834" r="1.834" transform="translate(54.109 0.917)" fill="#000"/>
          <circle id="Ellipse_136" data-name="Ellipse 136" cx="1.834" cy="1.834" r="1.834" transform="translate(4.585 39.435)" fill="#000"/>
          <circle id="Ellipse_137" data-name="Ellipse 137" cx="1.834" cy="1.834" r="1.834" transform="translate(22.927 72.45)" fill="#000"/>
          <circle id="Ellipse_138" data-name="Ellipse 138" cx="1.834" cy="1.834" r="1.834" transform="translate(35.767 77.953)" fill="#000"/>
        </g>
      </g>
    </g>
  </g>
</svg>
