<svg xmlns="http://www.w3.org/2000/svg" width="85.008" height="82.174" viewBox="0 0 85.008 82.174">
  <g id="mobile-process" transform="translate(-2 -3)">
    <path id="Path_769" data-name="Path 769" d="M11.5,20a8.5,8.5,0,0,0,8.373-7.084H36.416l-1.832,1.832,2,2L41.84,11.5,36.588,6.249l-2,2,1.832,1.832H19.874A8.5,8.5,0,1,0,11.5,20Z" transform="translate(0.417 0)" fill="#000"/>
    <path id="Path_770" data-name="Path 770" d="M57.8,10.084H48.463a8.5,8.5,0,1,0,0,2.834H57.8a14.876,14.876,0,0,1,0,29.753H35.01l1.832-1.832-2-2-5.252,5.252,5.252,5.252,2-2L35.01,45.5H57.8a17.71,17.71,0,0,0,0-35.42Z" transform="translate(11.498 0)" fill="#000"/>
    <circle id="Ellipse_139" data-name="Ellipse 139" cx="8.5" cy="8.5" r="8.5" transform="translate(69 68)" fill="#000"/>
    <path id="Path_771" data-name="Path 771" d="M29.5,49a8.5,8.5,0,1,0,8.373,9.918H54.416l-1.832,1.832,2,2L59.84,57.5l-5.252-5.252-2,2,1.832,1.832H37.874A8.5,8.5,0,0,0,29.5,49Z" transform="translate(7.919 19.173)" fill="#000"/>
    <path id="Path_772" data-name="Path 772" d="M19.71,68.5h2.955l-1.832,1.832,2,2,5.252-5.252-5.252-5.252-2,2,1.832,1.832H19.71a14.876,14.876,0,0,1,0-29.753h3.669a8.5,8.5,0,1,0,0-2.834H19.71a17.71,17.71,0,0,0,0,35.42Z" transform="translate(0 9.586)" fill="#000"/>
  </g>
</svg>
