<svg xmlns="http://www.w3.org/2000/svg" width="113.075" height="83.01" viewBox="0 0 113.075 83.01">
  <g id="mobile-team" transform="translate(0 -68.066)">
    <g id="Group_633" data-name="Group 633" transform="translate(86.739 103.487)">
      <g id="Group_632" data-name="Group 632" transform="translate(0 0)">
        <path id="Path_670" data-name="Path 670" d="M405.774,230.395c-3.848-1.924-11.062-1.946-11.367-1.946a1.656,1.656,0,0,0,0,3.313c1.862,0,7.266.287,9.885,1.6a1.656,1.656,0,0,0,1.482-2.963Z" transform="translate(-392.751 -228.449)" fill="#000"/>
      </g>
    </g>
    <g id="Group_635" data-name="Group 635" transform="translate(0 68.066)">
      <g id="Group_634" data-name="Group 634">
        <path id="Path_671" data-name="Path 671" d="M108.021,129.015l-6.841-1.955a.694.694,0,0,1-.5-.665v-2.283a12.451,12.451,0,0,0,1.584-1.3A12.185,12.185,0,0,0,105.991,114v-3.151l.661-1.323a10.567,10.567,0,0,0,1.11-4.7V96.288a1.656,1.656,0,0,0-1.656-1.656H90.167a10.524,10.524,0,0,0-10.512,10.512v.1a8.785,8.785,0,0,0,.923,3.909l.848,1.7v2.705A12.924,12.924,0,0,0,86.739,124V126.4c0,.369,0,.522-1.368.913l-3.338.954-9.656-3.511a1.654,1.654,0,0,0-.451-1.268l-3.086-3.242V114.8c.326-.269.648-.545.959-.837A19.44,19.44,0,0,0,75.926,99.83V95.484A19.146,19.146,0,0,0,77.7,87.432V69.722a1.656,1.656,0,0,0-1.656-1.656H51.245A15.843,15.843,0,0,0,35.421,83.891v3.542a19.146,19.146,0,0,0,1.771,8.052v3.739a20.239,20.239,0,0,0,7.084,15.448v5.57l-3.085,3.242a1.654,1.654,0,0,0-.451,1.268l-10.191,3.706a8.686,8.686,0,0,0-2.048,1.073l-1.6-.8c4.764-2.074,6.273-4.99,6.345-5.135a1.656,1.656,0,0,0,0-1.481c-1.194-2.388-1.339-6.766-1.455-10.283-.039-1.171-.075-2.277-.145-3.262-.565-7.945-6.6-13.936-14.049-13.936S4.111,100.623,3.546,108.568c-.07.985-.107,2.091-.145,3.263-.116,3.517-.261,7.894-1.455,10.282a1.656,1.656,0,0,0,0,1.481c.072.145,1.578,3.055,6.352,5.131l-4.445,2.222A6.933,6.933,0,0,0,0,137.182v12.237a1.656,1.656,0,1,0,3.313,0V137.182a3.637,3.637,0,0,1,2.021-3.271l5.535-2.767,1.925,1.83a6.966,6.966,0,0,0,9.6,0l1.925-1.83,1.8.9a8.722,8.722,0,0,0-1.332,4.625V149.42a1.656,1.656,0,1,0,3.313,0V136.671a5.444,5.444,0,0,1,3.573-5.1l10.745-3.907,4.473,6.71a3.415,3.415,0,0,0,2.514,1.51q.172.017.342.017a3.414,3.414,0,0,0,2.42-1l2.729-2.729V149.42a1.656,1.656,0,0,0,3.313,0V132.166l2.729,2.729a3.412,3.412,0,0,0,2.42,1q.17,0,.341-.017a3.415,3.415,0,0,0,2.514-1.51l4.473-6.709,10.745,3.907a5.445,5.445,0,0,1,3.573,5.1V149.42a1.656,1.656,0,0,0,3.313,0V136.671a8.756,8.756,0,0,0-2.45-6.06l.409-.117a9.085,9.085,0,0,0,1.541-.557l4.229,4.229V149.42a1.656,1.656,0,0,0,3.313,0V134.167l4.2-4.2a3.94,3.94,0,0,0,.7.28l6.841,1.955a3.672,3.672,0,0,1,2.652,3.516v13.7a1.656,1.656,0,0,0,3.313,0v-13.7A7,7,0,0,0,108.021,129.015ZM10.626,126.09a11.908,11.908,0,0,1-5.316-3.413,18.258,18.258,0,0,0,.944-3.966,12.352,12.352,0,0,0,4.372,5.394Zm9.489,4.483a3.655,3.655,0,0,1-5.038,0l-1.54-1.464a3.427,3.427,0,0,0,.4-1.618v-1.765a12.317,12.317,0,0,0,7.313,0v1.764a3.427,3.427,0,0,0,.4,1.618Zm-2.519-7.6A8.98,8.98,0,0,1,8.627,114,1.646,1.646,0,0,0,6.7,112.367c0-.142.009-.285.014-.426.037-1.139.072-2.215.138-3.137A12.3,12.3,0,0,1,10.2,101.08a10.291,10.291,0,0,1,14.793,0,12.3,12.3,0,0,1,3.349,7.723c.065.923.1,2,.139,3.137l.01.3a14.883,14.883,0,0,0-8.181-5.978,20.788,20.788,0,0,0-6.3-1,1.657,1.657,0,0,0-1.146.506l-2.989,3.1a1.656,1.656,0,1,0,2.385,2.3l2.487-2.579c2.142.1,9.031.906,11.711,6.806A8.948,8.948,0,0,1,17.6,122.969Zm6.968,3.127V124.12a12.252,12.252,0,0,0,4.373-5.4,18.235,18.235,0,0,0,.943,3.957A11.964,11.964,0,0,1,24.565,126.1ZM40.5,99.223v-4.11a1.657,1.657,0,0,0-.165-.72,15.888,15.888,0,0,1-1.606-6.961V83.891A12.526,12.526,0,0,1,51.245,71.379H74.384V87.433a15.888,15.888,0,0,1-1.606,6.961,1.657,1.657,0,0,0-.165.72V99.83a15.9,15.9,0,0,1-5.078,11.715,16.486,16.486,0,0,1-1.272,1.077l-.028.021a15.927,15.927,0,0,1-10.748,3.207C47.086,115.306,40.5,108,40.5,99.223Zm9.326,33.329a.1.1,0,0,1-.092.033.105.105,0,0,1-.084-.051L44.5,124.807l1.658-1.742,7.815,5.342Zm6.728-6.392-8.97-6.131v-3.092a18.65,18.65,0,0,0,7.684,2.218q.655.042,1.3.042A19.186,19.186,0,0,0,65.529,117v3.026Zm6.9,6.375a.105.105,0,0,1-.084.051.1.1,0,0,1-.092-.033l-4.145-4.145,7.815-5.342,1.658,1.742Zm30.246-1.4-3.759-3.759a4.544,4.544,0,0,0,.1-.984v-.7a11.614,11.614,0,0,0,3.28.58c.128,0,.254.006.381.006a12.3,12.3,0,0,0,3.652-.552v.667a3.959,3.959,0,0,0,.12.965Zm6.246-10.7a8.9,8.9,0,0,1-6.523,2.528,9.272,9.272,0,0,1-8.693-9.411v-3.1a1.655,1.655,0,0,0-.175-.741l-1.023-2.046a5.456,5.456,0,0,1-.573-2.427v-.1a7.207,7.207,0,0,1,7.2-7.2H104.45v6.88a7.237,7.237,0,0,1-.76,3.22l-.836,1.672a1.655,1.655,0,0,0-.175.741V114A8.9,8.9,0,0,1,99.955,120.436Z" transform="translate(0 -68.066)" fill="#000"/>
      </g>
    </g>
    <g id="Group_637" data-name="Group 637" transform="translate(102.678 137.137)">
      <g id="Group_636" data-name="Group 636" transform="translate(0 0)">
        <path id="Path_672" data-name="Path 672" d="M466.579,380.814a1.656,1.656,0,0,0-1.656,1.656V393.1a1.656,1.656,0,0,0,3.313,0V382.47A1.657,1.657,0,0,0,466.579,380.814Z" transform="translate(-464.923 -380.814)" fill="#000"/>
      </g>
    </g>
    <g id="Group_639" data-name="Group 639" transform="translate(7.084 139.326)">
      <g id="Group_638" data-name="Group 638">
        <path id="Path_673" data-name="Path 673" d="M33.733,390.728a1.656,1.656,0,0,0-1.656,1.656v8.437a1.656,1.656,0,0,0,3.313,0v-8.437A1.657,1.657,0,0,0,33.733,390.728Z" transform="translate(-32.077 -390.728)" fill="#000"/>
      </g>
    </g>
    <g id="Group_641" data-name="Group 641" transform="translate(42.505 83.114)">
      <g id="Group_640" data-name="Group 640" transform="translate(0 0)">
        <path id="Path_674" data-name="Path 674" d="M220.082,141.121c-6.265-6.265-19.372-5.067-24.717-4.261a3.4,3.4,0,0,0-2.905,3.388v3.816a1.656,1.656,0,1,0,3.313,0v-3.816a.11.11,0,0,1,.087-.112,52.329,52.329,0,0,1,10.761-.526c5.165.344,8.906,1.64,11.12,3.854a1.656,1.656,0,1,0,2.342-2.342Z" transform="translate(-192.46 -136.203)" fill="#000"/>
      </g>
    </g>
    <g id="Group_643" data-name="Group 643" transform="translate(35.421 140.679)">
      <g id="Group_642" data-name="Group 642">
        <path id="Path_675" data-name="Path 675" d="M162.04,396.853a1.656,1.656,0,0,0-1.656,1.656v7.084a1.656,1.656,0,0,0,3.313,0v-7.084A1.657,1.657,0,0,0,162.04,396.853Z" transform="translate(-160.384 -396.853)" fill="#000"/>
      </g>
    </g>
    <g id="Group_645" data-name="Group 645" transform="translate(74.384 140.679)">
      <g id="Group_644" data-name="Group 644">
        <path id="Path_676" data-name="Path 676" d="M338.462,396.853a1.656,1.656,0,0,0-1.656,1.656v7.084a1.656,1.656,0,0,0,3.313,0v-7.084A1.657,1.657,0,0,0,338.462,396.853Z" transform="translate(-336.806 -396.853)" fill="#000"/>
      </g>
    </g>
  </g>
</svg>
