<svg xmlns="http://www.w3.org/2000/svg" width="93" height="82.667" viewBox="0 0 93 82.667">
  <g id="mobile-building" transform="translate(-2.5 -5.5)">
    <path id="Path_763" data-name="Path 763" d="M93.778,84.722H81.722V17.556a1.722,1.722,0,0,0-1.033-1.722L49.689,5.5H47.967a1.722,1.722,0,0,0-.689,1.378V19.622L17.311,29.611a1.722,1.722,0,0,0-1.033,1.722V84.722H4.222a1.722,1.722,0,1,0,0,3.444H93.778a1.722,1.722,0,0,0,0-3.444Zm-55.111,0H28.333V67.5H38.667Zm8.611,0H42.111V65.778a1.722,1.722,0,0,0-1.722-1.722H26.611a1.722,1.722,0,0,0-1.722,1.722V84.722H19.722V32.711l27.556-9.3Zm22.389,0H59.333V67.5H69.667Zm8.611,0H73.111V65.778a1.722,1.722,0,0,0-1.722-1.722H57.611a1.722,1.722,0,0,0-1.722,1.722V84.722H50.722V9.633l27.556,9.3Z" transform="translate(0)" fill="#000"/>
    <path id="Path_764" data-name="Path 764" d="M10.722,18.944H24.5a1.722,1.722,0,0,0,0-3.444H10.722a1.722,1.722,0,1,0,0,3.444Z" transform="translate(15.889 24.444)" fill="#000"/>
    <path id="Path_765" data-name="Path 765" d="M10.722,21.944H24.5a1.722,1.722,0,0,0,0-3.444H10.722a1.722,1.722,0,1,0,0,3.444Z" transform="translate(15.889 31.778)" fill="#000"/>
    <path id="Path_766" data-name="Path 766" d="M19.722,18.944H33.5a1.722,1.722,0,0,0,0-3.444H19.722a1.722,1.722,0,1,0,0,3.444Z" transform="translate(37.889 24.444)" fill="#000"/>
    <path id="Path_767" data-name="Path 767" d="M19.722,15.844H33.5a1.722,1.722,0,0,0,0-3.444H19.722a1.722,1.722,0,0,0,0,3.444Z" transform="translate(37.889 16.867)" fill="#000"/>
    <path id="Path_768" data-name="Path 768" d="M19.722,21.844H33.5a1.722,1.722,0,0,0,0-3.444H19.722a1.722,1.722,0,1,0,0,3.444Z" transform="translate(37.889 31.533)" fill="#000"/>
  </g>
</svg>
