<svg xmlns="http://www.w3.org/2000/svg" width="69.122" height="60.63" viewBox="0 0 69.122 60.63">
  <g id="noun_growth_1921444" transform="translate(-15.438 -19.685)">
    <path id="Path_687" data-name="Path 687" d="M31.154,52.111H16.688a1.25,1.25,0,0,0-1.25,1.25v21.7a1.25,1.25,0,0,0,1.25,1.25H31.154a1.25,1.25,0,0,0,1.25-1.25V73.68H37.17l16.56,6.361a4.13,4.13,0,0,0,3.354-.175L82.176,67.084a4.368,4.368,0,0,0-3.285-8.061l-7.1,2.218c-.882-5.755-6.314-10.281-13.072-10.783V38.244L61.662,35.3a5.915,5.915,0,0,0,3.142.868,7.178,7.178,0,0,0,.849-.051,8.755,8.755,0,0,0,5.1-2.571c2.757-2.756,4.54-11.391,4.733-12.367a1.25,1.25,0,0,0-1.47-1.47c-.976.194-9.611,1.977-12.367,4.733a8.754,8.754,0,0,0-2.571,5.1,6.135,6.135,0,0,0,.81,4l-1.169,1.169V31.589a1.25,1.25,0,1,0-2.5,0v12.2l-2.043-2.043c1.586-2.59.924-6.411-1.759-9.095-2.757-2.756-11.392-4.539-12.367-4.733a1.25,1.25,0,0,0-1.47,1.47c.193.976,1.977,9.61,4.732,12.367a8.554,8.554,0,0,0,5.939,2.61,6,6,0,0,0,3.15-.858l3.817,3.817v3.148a14.768,14.768,0,0,0-11.1,5.909,1.19,1.19,0,0,0-.1.216l-4.1-1.178a1.253,1.253,0,0,0-.346-.049H32.4v-2.01a1.25,1.25,0,0,0-1.25-1.25ZM61.56,29.834a6.265,6.265,0,0,1,1.856-3.625c1.51-1.51,6.152-2.888,9.194-3.626-.737,3.042-2.115,7.684-3.626,9.194a6.258,6.258,0,0,1-3.625,1.856,3.928,3.928,0,0,1-1.83-.2l1.738-1.738A1.25,1.25,0,1,0,63.5,29.925l-1.738,1.739a3.92,3.92,0,0,1-.2-1.83ZM45.079,39.987c-1.51-1.51-2.888-6.153-3.626-9.195,3.042.737,7.683,2.114,9.2,3.626A5.419,5.419,0,0,1,52.3,39.872l-1.737-1.737A1.25,1.25,0,1,0,48.8,39.9l1.737,1.737a5.422,5.422,0,0,1-5.454-1.652ZM29.9,73.81H17.938v-19.2H29.9ZM57.468,52.9c6.237,0,11.368,4,11.908,9.092l-4.568,1.427c.009-.117.035-.23.035-.349a4.392,4.392,0,0,0-4.387-4.387H52.284l-4.72-1.357a12.8,12.8,0,0,1,9.9-4.425ZM40.4,57.871l11.359,3.266a1.253,1.253,0,0,0,.346.049h8.348A1.879,1.879,0,0,1,61.671,64.5l0,0a1.869,1.869,0,0,1-1.211.452H48.675a3.651,3.651,0,0,0-3.646,3.647v.534a1.25,1.25,0,0,0,2.5,0v-.534a1.148,1.148,0,0,1,1.146-1.147H60.456a4.345,4.345,0,0,0,2.6-.87l16.585-5.18a1.868,1.868,0,0,1,1.4,3.447L55.948,77.638a1.633,1.633,0,0,1-1.322.069L37.85,71.263a1.253,1.253,0,0,0-.448-.083h-5V57.871Z" fill="#f26b1d"/>
    <rect id="Rectangle_326" data-name="Rectangle 326" width="2.037" height="2.037" transform="translate(21.017 69.57)" fill="#f26b1d"/>
    <rect id="Rectangle_327" data-name="Rectangle 327" width="2.037" height="2.037" transform="translate(24.853 69.57)" fill="#f26b1d"/>
  </g>
</svg>
