<svg xmlns="http://www.w3.org/2000/svg" width="175.561" height="175.676" viewBox="0 0 175.561 175.676">
  <g id="product-icon" transform="translate(-3 -2.962)">
    <rect id="Rectangle_379" data-name="Rectangle 379" width="25.85" height="6.054" transform="translate(79.672 18.212)" fill="#2973a9"/>
    <path id="Path_823" data-name="Path 823" d="M175.534,18.212H144.266v6.054h28.241v87.78H142.238V96.912h3.027a3.027,3.027,0,0,0,3.027-3.027V81.777a3.027,3.027,0,0,0-3.027-3.027h-.908l12.622-22.732a3.027,3.027,0,0,0,0-3.027L126.71,4.56h0a2.969,2.969,0,0,0-5.176-.182L91.265,52.809a3.027,3.027,0,0,0,0,3.027L103.8,78.75h-.908a3.027,3.027,0,0,0-3.027,3.027V93.885a3.027,3.027,0,0,0,3.027,3.027h3.027v15.135H75.646V96.912h3.027A3.027,3.027,0,0,0,81.7,93.885V81.777a3.027,3.027,0,0,0-3.027-3.027H76.493a44.95,44.95,0,0,0,8.233-27.242c0-19.1-23.973-46.281-24.972-47.4a3.027,3.027,0,0,0-5.3,1.786A39.986,39.986,0,0,1,48.918,22.6a45.645,45.645,0,0,1-7.6,7.719c-6.6,6.054-14.105,12.713-14.105,24.215,0,12.592,3.874,20.311,7.446,24.76a3.027,3.027,0,0,0-1.392,2.482V93.885A3.027,3.027,0,0,0,36.3,96.912h3.027v15.135H9.054V24.266h33.3V18.212H6.027A3.027,3.027,0,0,0,3,21.239v127.13A3.027,3.027,0,0,0,6.027,151.4H72.619v21.188h-22.7v6.054h81.727v-6.054h-22.7V151.4h66.592a3.027,3.027,0,0,0,3.027-3.027V21.239A3.027,3.027,0,0,0,175.534,18.212Zm-33.3,72.646H105.915V84.8h36.323Zm-18.161-33.3a6.054,6.054,0,1,1-6.054,6.054A6.054,6.054,0,0,1,124.076,57.562ZM97.319,54.535,121.05,16.668V51.932a12.108,12.108,0,1,0,6.054,0V16.668l23.731,37.867L137.425,78.75h-26.7Zm14.65,42.377h24.215v15.135H111.969ZM75.646,90.858H39.323V84.8H75.646ZM45.377,34.951a49.793,49.793,0,0,0,8.6-9.081,41.015,41.015,0,0,0,5.388-12.834c6.72,8.566,19.312,26.092,19.312,38.472,0,16.587-7.749,25-10.2,27.242H42.713C40.594,77.267,33.269,71,33.269,54.535,33.269,45.757,39.141,40.52,45.377,34.951Zm0,61.961H69.592v15.135H45.377Zm57.511,75.673H78.673V151.4h24.215Zm69.619-27.242H9.054V118.1H172.507Z" transform="translate(0 0)"/>
    <circle id="Ellipse_140" data-name="Ellipse 140" cx="6.054" cy="6.054" r="6.054" transform="translate(84.727 124.154)" fill="#f26b1d"/>
    <rect id="Rectangle_380" data-name="Rectangle 380" width="6.054" height="6.054" transform="translate(93.807 102.965)" fill="#f26b1d"/>
    <rect id="Rectangle_381" data-name="Rectangle 381" width="6.054" height="6.054" transform="translate(81.7 102.965)" fill="#f26b1d"/>
  </g>
</svg>
