<svg xmlns="http://www.w3.org/2000/svg" width="190.371" height="190.371" viewBox="0 0 190.371 190.371">
  <g id="ui-design-icon" transform="translate(-2 -2)">
    <g id="Group_736" data-name="Group 736" transform="translate(2 2)">
      <path id="Path_824" data-name="Path 824" d="M18.173,39A3.173,3.173,0,0,0,15,42.173V58.037a3.173,3.173,0,1,0,6.346,0V42.173A3.173,3.173,0,0,0,18.173,39Z" transform="translate(26.247 78.395)" fill="#f26b1d"/>
      <path id="Path_825" data-name="Path 825" d="M189.2,36.9h-9.519V5.173A3.173,3.173,0,0,0,176.506,2H157.469A3.173,3.173,0,0,0,154.3,5.173V36.9H5.173A3.173,3.173,0,0,0,2,40.074V154.3a3.173,3.173,0,0,0,3.173,3.173H21.037v9.519a25.383,25.383,0,1,0,50.766,0v-9.519H189.2a3.173,3.173,0,0,0,3.173-3.173V40.074A3.173,3.173,0,0,0,189.2,36.9ZM173.334,84.494H160.642V21.037h12.691Zm-1.64,6.346-4.705,10.981L162.283,90.84ZM160.642,8.346h12.691v6.346H160.642ZM19.724,43.247,8.346,54.625V43.247Zm4.486,4.486V59.111H12.832ZM65.457,166.988a19.037,19.037,0,0,1-38.074,0V128.914a19.037,19.037,0,1,1,38.074,0Zm120.568-15.864H71.8v-22.21a25.383,25.383,0,1,0-50.766,0v22.21H8.346V65.457H27.383a3.173,3.173,0,0,0,3.173-3.173V43.247H154.3v44.42c0,.044.025.082.025.13a3.172,3.172,0,0,0,.216,1.066v.048h0l9.519,22.21a3.173,3.173,0,0,0,5.832,0l9.519-22.21h0v-.048a3.173,3.173,0,0,0,.216-1.066c0-.048.025-.086.025-.13V43.247h6.346Z" transform="translate(-2 -2)"/>
      <path id="Path_826" data-name="Path 826" d="M63.519,45H57.173a3.173,3.173,0,0,0,0,6.346h6.346a3.173,3.173,0,0,0,0-6.346Z" transform="translate(110.988 91.432)" fill="#2973a9"/>
      <path id="Path_827" data-name="Path 827" d="M57.519,45H51.173a3.173,3.173,0,1,0,0,6.346h6.346a3.173,3.173,0,1,0,0-6.346Z" transform="translate(97.951 91.432)" fill="#2973a9"/>
      <path id="Path_828" data-name="Path 828" d="M120.547,21.164a3.173,3.173,0,0,0-4.464-.447L83.289,47.55l-29.7-26.734a3.173,3.173,0,0,0-3.928-.251L8.41,49.12a3.173,3.173,0,1,0,3.611,5.216L51.2,27.208,81.068,54.086a3.173,3.173,0,0,0,4.125.1l34.9-28.556a3.173,3.173,0,0,0,.454-4.464Z" transform="translate(8.822 37.112)" fill="#f26b1d"/>
      <path id="Path_829" data-name="Path 829" d="M54.736,34.429a3.3,3.3,0,0,0-5.394,0L33.478,59.812a3.173,3.173,0,0,0,2.7,4.854H67.91A3.173,3.173,0,0,0,70.6,59.812ZM41.893,58.321,52.046,42.1,62.2,58.321Z" transform="translate(65.35 65.42)" fill="#2973a9"/>
    </g>
  </g>
</svg>
