<svg xmlns="http://www.w3.org/2000/svg" width="29" height="32" viewBox="0 0 29 32">
  <g id="user-icon" transform="translate(-137 -1709.798)">
    <circle id="Ellipse_75" data-name="Ellipse 75" cx="7" cy="7" r="7" transform="translate(144 1709.798)" fill="#f26b1d"/>
    <path id="Subtraction_1" data-name="Subtraction 1" d="M29,15H0c0-.1,0-.193,0-.289a14.774,14.774,0,0,1,4.247-10.4A14.44,14.44,0,0,1,8.856,1.156a14.356,14.356,0,0,1,11.289,0,14.443,14.443,0,0,1,4.609,3.153A14.774,14.774,0,0,1,29,14.711c0,.105,0,.2,0,.288Z" transform="translate(137 1726.798)" fill="#f26b1d"/>
  </g>
</svg>
