<svg xmlns="http://www.w3.org/2000/svg" width="187.805" height="181.471" viewBox="0 0 187.805 181.471">
  <g id="web-development-icon" transform="translate(12284 744)">
    <path id="Path_1262" data-name="Path 1262" d="M202.8,87.587v-26c0-8.605-6.591-15.44-14.854-15.44H148.714a63.438,63.438,0,0,0-8.371-14.627l-5.449-7.307a2.357,2.357,0,0,0-1.87-.956,2.328,2.328,0,0,0-1.87.925L125.7,31.522a63.416,63.416,0,0,0-8.37,14.622H29.852C21.589,46.143,15,52.978,15,61.583V189.041c0,8.605,6.589,15.684,14.852,15.684h158.1c8.263,0,14.854-7.079,14.854-15.684V87.587ZM187.95,50.819c5.685,0,10.178,4.737,10.178,10.764V85.107H154.489V73.5a67.941,67.941,0,0,0-3.981-22.677ZM140.687,157.55l.007.319c-.013,7.515-5.864,13.347-7.683,14.127h-.084c-1.792-.779-7.545-6.579-7.545-14.107,0-1.091.076-3.426.178-4.985h14.994c.04.779.086,2.392.134,4.647Zm-20.1-9.322v-6.234h24.937v6.234Zm-8.962-19.871H96.113c.344-11.3,3.438-20.138,15.517-26.631Zm42.86-26.388c5.455,3.021,9.2,6.5,11.673,10.776,2.384,4.118,3.658,9.152,3.89,15.707H154.489Zm-25.071-67.73,3.592-4.772,3.648,4.771A65.907,65.907,0,0,1,149.814,73.5v63.822H116.305V87.941c0-.106.025-.214.025-.324s-.025-.217-.025-.324V73.5a65.866,65.866,0,0,1,13.113-39.257ZM29.852,50.819h85.686A67.9,67.9,0,0,0,111.63,73.5V85.107H19.676V61.583C19.676,55.556,24.167,50.819,29.852,50.819Zm158.1,149.23H29.852c-5.685,0-10.176-4.981-10.176-11.008V89.783H111.63v6.7c-7.4,3.571-12.617,8.041-15.81,13.637-3.031,5.31-4.429,11.879-4.429,20.674a2.236,2.236,0,0,0,.691,1.605,2.311,2.311,0,0,0,1.66.635H111.63v6.663a2.353,2.353,0,0,0,2.392,2.3h1.894v8.414a2.483,2.483,0,0,0,2.343,2.5h2.617c-.135,2.338-.169,4.882-.169,4.923,0,9.679,7.429,17.976,11.451,18.78a2.343,2.343,0,0,0,.458.065h.7a2.437,2.437,0,0,0,.459-.1c4.071-.814,11.592-9.128,11.592-18.791v-.067l-.007-.251c-.042-1.975-.084-3.386-.129-4.555h2.584a2.519,2.519,0,0,0,2.385-2.5v-8.414h1.822a2.416,2.416,0,0,0,2.464-2.3V133.13H172.4a2.365,2.365,0,0,0,2.369-2.338c0-17.013-5.862-26.981-20.279-34.093V89.783h43.639v99.259C198.129,195.068,193.635,200.049,187.95,200.049Z" transform="translate(-12299 -767.254)"/>
    <path id="Path_1263" data-name="Path 1263" d="M122.81,132.32a11.19,11.19,0,1,0-10.77-11.183A10.995,10.995,0,0,0,122.81,132.32Zm0-17.689a6.521,6.521,0,1,1-6.094,6.507,6.318,6.318,0,0,1,6.094-6.507Z" transform="translate(-12358.229 -820.173)" fill="#f26b1d"/>
    <path id="Path_1264" data-name="Path 1264" d="M193.142,132.32a11.19,11.19,0,1,0-10.77-11.183A10.995,10.995,0,0,0,193.142,132.32Zm0-17.689a6.521,6.521,0,1,1-6.095,6.507,6.318,6.318,0,0,1,6.095-6.507Z" transform="translate(-12401.158 -820.173)" fill="#f26b1d"/>
    <path id="Path_1265" data-name="Path 1265" d="M52.478,132.32a11.19,11.19,0,1,0-10.77-11.183A10.995,10.995,0,0,0,52.478,132.32Zm0-17.689a6.521,6.521,0,1,1-6.094,6.507,6.318,6.318,0,0,1,6.094-6.507Z" transform="translate(-12315.302 -820.173)" fill="#f26b1d"/>
    <path id="Path_1266" data-name="Path 1266" d="M299.289,172.824h0a11.822,11.822,0,1,0-8.412-3.426,11.866,11.866,0,0,0,8.412,3.426Zm0-19.027a7.234,7.234,0,1,1-7.234,7.234A7.234,7.234,0,0,1,299.289,153.8Z" transform="translate(-12465.251 -844.061)" fill="#2973a9"/>
  </g>
</svg>
