<svg viewBox="0 0 500 500" xmlns="http://www.w3.org/2000/svg"><circle cx="431.53" cy="93.54" fill="#ebebeb" r="26.43"/><circle cx="432.74" cy="94.13" fill="#dbdbdb" r="25.22"/><circle cx="432.74" cy="94.13" fill="#fff" r="23.62" transform="rotate(-85.29 432.733 94.138)"/><path d="M455.83 89.12c-10.75 6.51-28.43 17.21-38.32 23.07a23.71 23.71 0 01-6.45-8.68l32.68-30.29a23.62 23.62 0 0112.09 15.9zM456.35 95a23.3 23.3 0 01-1.56 7.68l-29.46 13.93a22.75 22.75 0 01-3.72-1.59c8.9-5.2 25.16-14.56 34.74-20.02z" fill="#ebebeb" opacity=".5"/><path d="M432.52 72.22h.46v3.58h-.46zM421.591 75.253l.398-.23 1.79 3.1-.398.23zM413.632 83.352l.23-.399 3.1 1.79-.23.399zM410.84 93.9h3.58v.46h-3.58zM413.647 104.867l3.1-1.79.23.398-3.1 1.79zM421.614 113.01l1.789-3.102.398.23-1.788 3.101zM432.52 112.46h.46v3.58h-.46zM441.716 110.115l.398-.23 1.79 3.1-.398.23zM448.481 103.47l.23-.398 3.1 1.79-.23.399zM451.07 93.9h3.58v.46h-3.58zM448.502 84.752l3.1-1.79.23.398-3.1 1.79zM441.709 78.144l1.788-3.101.398.23-1.788 3.1z" fill="#c7c7c7"/><path d="M433.09 73.84l.78 21.88-2.25-.03.86-21.86z" fill="#c7c7c7"/><path d="M446.72 86.5L432 95.89l-1.07-1.96 15.5-7.97z" fill="#a6a6a6"/><path d="M433.51 94.13a.77.77 0 11-.77-.77.77.77 0 01.77.77z" fill="#c7c7c7"/><path d="M343.84 332.31s15.66-3.55 24.24-11.45 13.37-22.07 13.37-22.07a133.68 133.68 0 00-17.56 4.61 29.69 29.69 0 00-5.31 7.51 36.51 36.51 0 010-5.37 23.85 23.85 0 00-5.57 3.38c-7.16 6.23-9.17 23.39-9.17 23.39z" fill="#dbdbdb"/><path d="M371.68 305.67c2.13-1.48 4.3-2.9 6.43-4.39a.12.12 0 00-.13-.21c-4 2.41-8 5-11.86 7.68-1.34.94-2.66 1.92-4 2.92l.27-.47c.47-.78 1-1.55 1.46-2.32a32.76 32.76 0 013.33-4.44c0-.05 0-.13-.08-.07-1.22 1.4-2.44 2.79-3.55 4.28-.53.71-1 1.45-1.49 2.2-.24.39-.48.78-.7 1.18l-.24.4c-2 1.59-4 3.25-5.87 5q-1.74 1.63-3.37 3.36c.61-1.89 1.14-3.81 1.84-5.67a.05.05 0 00-.1 0c-.68 2-1.43 3.92-2 5.94q-1.8 1.94-3.42 4c0-.08 0-.17.05-.25.18-.74.37-1.48.56-2.21.38-1.42.8-2.82 1.28-4.21a24.59 24.59 0 014.2-7.95c.05-.05 0-.12-.07-.07a30.46 30.46 0 00-6 12.52q-.26 1-.48 2c-.08.35-.17.72-.23 1.08q-.72 1-1.38 1.95a67.65 67.65 0 00-6.63 13 152.22 152.22 0 00-5 15.64.08.08 0 00.16 0c3.07-9.16 6.19-18.45 11.43-26.64a61.3 61.3 0 013.58-5 30 30 0 007.61-1.52 33.8 33.8 0 007.63-3.69 43 43 0 003.91-2.95c.06-.05 0-.13-.06-.08a31.45 31.45 0 01-7.18 4.34 39.25 39.25 0 01-7.9 2.65c-1.15.25-2.32.44-3.5.6a65.87 65.87 0 014.62-5.12c.53-.53 1.07-1 1.62-1.54a36.76 36.76 0 015.78-3.31c2.57-1.24 5.09-2.56 7.63-3.85 1.44-.73 2.86-1.47 4.3-2.18.06 0 0-.12-.05-.09-2.58 1.24-5.19 2.41-7.79 3.6-2.44 1.11-4.91 2.24-7.26 3.56l-.3.17c2.12-1.84 4.32-3.6 6.57-5.3q3.17-2.31 6.38-4.54z" fill="#a6a6a6"/><path d="M370.79 313.74c-1.28.56-2.57 1.05-3.83 1.64s-2.53 1.32-3.76 2.05c-.05 0 0 .1.05.08 1.25-.6 2.51-1.16 3.75-1.78s2.52-1.32 3.82-1.89c.06-.02.03-.13-.03-.1z" fill="#a6a6a6"/><path d="M293 253.42a22.35 22.35 0 014.67 13c.06 1.4-.17 3.36-.33 5.66a37.21 37.21 0 0110.22 8.73 18.51 18.51 0 00-10.33-2.47 32.78 32.78 0 00.6 4.68 17.35 17.35 0 016.64 1.31 14.79 14.79 0 00-6 1.19c2.79 8.88 11.09 18 34 21.87a48.11 48.11 0 00-4.06-32.23c-6.86-13.5-35.41-21.74-35.41-21.74z" fill="#dbdbdb"/><path d="M340.39 345.38q-.58-5.69-1.48-11.34a225 225 0 00-4.62-22.42A88.94 88.94 0 00331 301.4a14 14 0 00.09-1.83v-2.21c0-1.46-.08-2.93-.21-4.39a53.07 53.07 0 00-1.41-8.59c-.42-1.63-.9-3.24-1.38-4.85a.05.05 0 10-.1 0 64 64 0 011.69 8.57 82.49 82.49 0 01.77 8.6v3.36a73.23 73.23 0 00-3.85-8 97.86 97.86 0 00-7.85-11.73 5.07 5.07 0 00-.18-1.28c-.11-.51-.22-1-.34-1.53q-.35-1.57-.78-3.12c-.57-2.08-1.32-4.08-2-6.13a.05.05 0 10-.1 0c.61 2 1 4.13 1.47 6.19.23 1 .46 2 .68 3.07l.33 1.54a.52.52 0 000 .11c-.93-1.17-1.87-2.32-2.84-3.45-4.37-5.13-9.17-9.86-14-14.56-.59-.58-1.2-1.14-1.8-1.71-.05-.05-.12 0-.07.08 4.61 4.81 9.15 9.68 13.45 14.77 1 1.21 2 2.44 3 3.68-.52-.36-1-.7-1.56-1-1.33-.87-2.68-1.72-4.07-2.5s-2.79-1.54-4.22-2.24-3-1.33-4.46-2.15c-.06 0-.11.07-.05.09a33.42 33.42 0 014.18 2.32c1.39.83 2.79 1.66 4.15 2.53s2.7 1.69 4 2.56c1.12.73 2.21 1.52 3.37 2.18a109.91 109.91 0 017.34 10.69 80.87 80.87 0 013.79 7.19l-.82-.36-2.1-.93-4.05-1.77c-2.57-1.11-5.18-2.14-7.7-3.37a34.34 34.34 0 01-4.11-2.28c-.06 0-.11.05-.05.09 4.69 3.24 10 5.52 15.16 7.82l2.25 1c.62.27 1.24.58 1.88.82a80 80 0 013.87 10.61 215.6 215.6 0 015 22.16c1.31 7.48 2.2 15 2.89 22.58.08.94.17 1.89.27 2.83a.3.3 0 00.6 0c.06-3.86-.34-7.66-.74-11.48z" fill="#a6a6a6"/><path d="M326.46 282.12c-.42-2.32-1-4.6-1.67-6.88a.05.05 0 10-.1 0c.58 2.24 1 4.52 1.41 6.79s.81 4.64 1.14 7h.06a61.76 61.76 0 00-.84-6.91zM316.59 288.44a42 42 0 00-5-2.8c-.84-.43-1.69-.84-2.53-1.25s-1.78-.78-2.64-1.21c-.06 0-.12.06-.05.09.83.42 1.63.93 2.45 1.38l2.54 1.39a56.74 56.74 0 005.08 2.62.13.13 0 00.15-.22z" fill="#a6a6a6"/><path d="M344.13 305.19s14.48-3.46 21.13-13.18c6.36-9.28 8.41-25.1 8.57-26.49-.26 1.28-3.25 15.1-13.11 21.54-7.55 4.94-14.85 9-16.59 18.13z" fill="#a6a6a6" opacity=".1"/><path d="M357.5 280.16a18.51 18.51 0 00-5.34 8.8 21.73 21.73 0 015.37-8.73c.09-.04.02-.12-.03-.07z" fill="#a6a6a6"/><path d="M344.13 305.19s14.48-3.46 21.13-13.18c6.36-9.28 8.41-25.1 8.57-26.49a.35.35 0 000-.1s-7 9.88-14.25 12.4-17.58 11.23-15.45 27.37z" fill="#dbdbdb"/><path d="M371.28 270.87a58.06 58.06 0 01-4.48 7.66 30.64 30.64 0 01-6 6.13c-2 1.56-4 3-6 4.51l.05-.07c.37-.56.77-1.09 1.19-1.62.82-1.06 1.73-2.06 2.64-3.05 1.8-1.95 3.64-3.87 5.25-6a22.34 22.34 0 002.33-3.75c0-.06-.07-.09-.1 0-2.35 4.9-7.05 8-10.39 12.16a21.42 21.42 0 00-1.34 1.83 7.66 7.66 0 00-.84 1.48 30.68 30.68 0 00-4.94 5 20.29 20.29 0 01.58-2.81 13.94 13.94 0 011.54-3.67c0-.06-.06-.12-.09-.06a17.26 17.26 0 00-1.69 3.65 12.82 12.82 0 00-.53 3.13 28.52 28.52 0 00-1.95 3l.18-.93c.28-1.44.6-2.88 1-4.31a25.87 25.87 0 013.48-8.16s-.05-.11-.09-.06a31.54 31.54 0 00-3.86 8 46.61 46.61 0 00-1.15 4.32c-.16.72-.31 1.43-.44 2.15-.07.37-.15.75-.21 1.13a52.92 52.92 0 00-3.35 9.82 145.32 145.32 0 00-3.07 18.34 150.41 150.41 0 00-1 19.45c0 .81.06 1.63.1 2.44 0 .21.33.24.34 0 .14-3.22.22-6.43.41-9.64s.47-6.43.82-9.63a169.45 169.45 0 013-18.73c1.17-5.29 2.69-10.63 5.59-15.27a28.79 28.79 0 015.23-6.21c2-1.82 4.25-3.42 6.39-5.11a35.22 35.22 0 005.87-5.64 46.21 46.21 0 004.6-7.48l1-2c.05 0-.04-.06-.07 0z" fill="#a6a6a6"/><path d="M368.78 273a49.2 49.2 0 01-3.23 5.64h.07a39.63 39.63 0 003.26-5.65c.03.01-.07-.06-.1.01z" fill="#a6a6a6"/><path d="M291 298.79s-.23 20.58 12.08 26.52 18.9 1 27.27 3c-.32-.49-6.29-9.07-15.79-11.44-9.81-2.45-20.63-9.51-23.56-18.08z" fill="#dbdbdb"/><path d="M291 298.79s-.23 20.58 12.08 26.52 18.9 1 27.27 3a46.23 46.23 0 00-14-4.13c-7.8-.95-22.63-6.01-25.35-25.39z" fill="#a6a6a6" opacity=".1"/><path d="M331.13 328.66a20.61 20.61 0 00-4.9-3.31c-.26-.13-.53-.23-.8-.34s-.27-.32-.41-.48c-.37-.38-.76-.75-1.16-1.1a17.27 17.27 0 00-2.48-1.78c-2-1.2-4.27-2-6.36-3.15-.06 0-.11.06 0 .09 1 .53 2 1.12 3 1.71s2 1.11 2.92 1.72a19.91 19.91 0 012.44 1.83c.22.19.42.4.63.61a31.49 31.49 0 00-4.16-1.11c-2.25-.46-4.53-.78-6.78-1.26a31.59 31.59 0 01-3.27-.88c-1-.82-2-1.64-3-2.53a25.43 25.43 0 01-3.19-3.53s-.13 0-.09.06a38 38 0 005.05 5.57c-.53-.21-1.06-.42-1.57-.66a25.3 25.3 0 01-10.49-8.72c0-.06-.13 0-.09.05a28.65 28.65 0 008.48 8.15 25.53 25.53 0 005.36 2.54 50.49 50.49 0 006.67 1.57 47.17 47.17 0 016.52 1.55 19.9 19.9 0 015.47 2.88 25.57 25.57 0 017.38 9.15 45.94 45.94 0 014.06 15c0 .22.37.22.35 0-.6-8.61-2.91-17.62-9.58-23.63z" fill="#a6a6a6"/><path d="M316.84 322a7 7 0 00-2.53-2.29 9.41 9.41 0 01-3-2.49c0-.06-.13 0-.09.05a10.23 10.23 0 002.66 2.38 9.37 9.37 0 012.9 2.4l.06-.05z" fill="#a6a6a6"/><path d="M323.38 343.86l.56 11.32 1.71 34.59h25.82l1.72-34.59.56-11.32z" fill="#ebebeb"/><path d="M323.38 343.86l.56 11.32h29.25l.56-11.32z" fill="#dbdbdb"/><path d="M355.57 349.94h-34v-10.8h34zM80 168.33l-4.44 9.79 3 1.35a2.56 2.56 0 011.48 2.24c0 .53.08 1.06.16 1.6a2.58 2.58 0 01-1 2.47l-2.68 1.91 6.26 8.74 2.68-1.91a2.55 2.55 0 012.67-.18 14.85 14.85 0 001.46.67 2.57 2.57 0 011.64 2.12l.32 3.28 10.69-1.06-.32-3.29a2.54 2.54 0 011.19-2.39l.66-.45c.21-.15.43-.31.63-.48a2.54 2.54 0 012.64-.36l3 1.37 4.44-9.79-3-1.36a2.59 2.59 0 01-1.49-2.24 14.24 14.24 0 00-.15-1.59 2.57 2.57 0 011-2.47l2.68-1.92-6.26-8.74-2.68 1.92a2.55 2.55 0 01-2.67.17 15.65 15.65 0 00-1.45-.65 2.54 2.54 0 01-1.61-2.08l-.33-3.28-10.69 1.06.32 3.28A2.54 2.54 0 0187 168.4a7.66 7.66 0 00-.66.45c-.22.15-.43.31-.64.47a2.53 2.53 0 01-2.65.37zm9.89 5.55a8.81 8.81 0 11-2 12.28 8.8 8.8 0 012.01-12.28zM436 266.78l-6.52 3.76 1.15 2a1.79 1.79 0 01-.06 1.88c-.2.31-.39.64-.56 1a1.8 1.8 0 01-1.59 1h-2.31v7.53h2.31a1.8 1.8 0 011.59 1 10.38 10.38 0 00.56 1 1.79 1.79 0 01.06 1.88l-1.15 2 6.52 3.76 1.16-2a1.8 1.8 0 011.66-.88h1.11a1.8 1.8 0 011.65.87l1.16 2 6.52-3.76-1.15-2a1.77 1.77 0 01.07-1.88 10.21 10.21 0 00.56-1 1.78 1.78 0 011.59-1h2.3v-7.53h-2.3a1.78 1.78 0 01-1.59-1c-.17-.33-.36-.65-.56-1a1.76 1.76 0 01-.07-1.87l1.15-2-6.52-3.76-1.15 2a1.8 1.8 0 01-1.66.88h-1.11a1.8 1.8 0 01-1.66-.88zm3.37 7.2a6.17 6.17 0 11-6.17 6.16 6.16 6.16 0 016.21-6.14zM55.57 149.3l4.57 6 1.83-1.4a1.76 1.76 0 011.87-.18c.34.16.69.3 1 .43a1.8 1.8 0 011.19 1.45l.3 2.29 7.47-1-.3-2.28a1.79 1.79 0 01.78-1.71c.31-.21.6-.44.89-.68a1.79 1.79 0 011.85-.31l2.13.89 2.89-7-2.1-.8a1.8 1.8 0 01-1.08-1.53c0-.19 0-.37-.06-.56s0-.36-.08-.54a1.77 1.77 0 01.65-1.76l1.84-1.41-4.57-6-1.84 1.4a1.78 1.78 0 01-1.87.18 9.32 9.32 0 00-1-.43 1.8 1.8 0 01-1.19-1.45l-.3-2.29-7.47 1 .3 2.29a1.81 1.81 0 01-.77 1.71 10 10 0 00-.89.68 1.81 1.81 0 01-1.86.31l-2.13-.89-2.89 7 2.13.89a1.78 1.78 0 011.05 1.4l.06.55c0 .19.05.37.09.55a1.79 1.79 0 01-.66 1.76zm6.7-4.28a6.17 6.17 0 116.91 5.33 6.16 6.16 0 01-6.91-5.35z" fill="#ebebeb"/><path d="M36.58 389.77l53.36-.25 53.35-.08 106.71-.17 106.71.16 53.35.09 53.36.25-53.36.24-53.35.09-106.71.17-106.71-.17-53.35-.09z" fill="#263238"/><ellipse cx="387.09" cy="418.95" fill="#ebebeb" rx="83.21" ry="13.22"/><ellipse cx="220.4" cy="444.68" fill="#ebebeb" rx="177.71" ry="24.58"/><path d="M114.11 65.34h271.62v179.53H114.11z" fill="#ebebeb"/><path d="M107.65 56.54h284.71v8.79H107.65z" fill="#455a64"/><path d="M127.2 89.93h42.89v50.82H127.2z" fill="#fff"/><path d="M150.19 93.39a1.55 1.55 0 11-1.54-1.54 1.54 1.54 0 011.54 1.54z" fill="#455a64"/><path d="M135.36 100.11c4.34-.33 8.68-.35 13-.4s8.67.07 13 .4c-4.34.34-8.67.36-13 .41s-8.66-.07-13-.41zM135.36 104.13a61.25 61.25 0 0114.15 0 62.77 62.77 0 01-14.15 0zM135.36 108.14c3-.31 6-.38 9-.4s6 .09 9 .4c-3 .32-6 .39-9 .41s-5.98-.09-9-.41zM135.36 112.16c3.77-.31 7.54-.39 11.31-.4s7.54.08 11.3.4c-3.76.32-7.53.39-11.3.4s-7.54-.09-11.31-.4zM135.36 116.18c3.28-.32 6.55-.39 9.82-.41s6.55.09 9.83.41c-3.28.31-6.55.39-9.83.4s-6.54-.09-9.82-.4zM135.36 120.19c4.19-.33 8.38-.35 12.57-.4s8.39.07 12.58.4c-4.19.34-8.38.36-12.58.41s-8.38-.07-12.57-.41zM135.36 124.21a80.61 80.61 0 0116.24 0 82.62 82.62 0 01-16.24 0zM135.36 128.22c4.34-.33 8.68-.35 13-.4s8.67.07 13 .4c-4.34.34-8.67.36-13 .41s-8.66-.07-13-.41zM135.36 132.24c4.34-.33 8.68-.35 13-.4s8.67.06 13 .4c-4.34.34-8.67.36-13 .4s-8.66-.07-13-.4z" fill="#ebebeb"/><path d="M339.47 133.59h33.58v39.79h-33.58z" fill="#fff"/><path d="M357.42 137.07a1.16 1.16 0 11-1.16-1.15 1.15 1.15 0 011.16 1.15z" fill="#455a64"/><g fill="#ebebeb"><path d="M344.85 144.44a25 25 0 017 0 25 25 0 01-7 0zM344.85 147.28a40.12 40.12 0 019.12 0 41.71 41.71 0 01-9.12 0zM344.85 150.11a35.83 35.83 0 018.45 0 34.46 34.46 0 01-8.45 0zM344.85 153a35.83 35.83 0 018.45 0 35.83 35.83 0 01-8.45 0zM344.85 155.79a26 26 0 017.34 0 27.06 27.06 0 01-7.34 0zM344.85 158.62a44.3 44.3 0 019.4 0 42.61 42.61 0 01-9.4 0zM344.85 161.46a30.23 30.23 0 017.76 0 30.23 30.23 0 01-7.76 0zM344.85 164.3a45.55 45.55 0 019.72 0 47.36 47.36 0 01-9.72 0zM344.85 167.13a47.36 47.36 0 019.72 0 45.55 45.55 0 01-9.72 0zM358.73 144.44a42.63 42.63 0 019.22 0 42.63 42.63 0 01-9.22 0zM358.73 147.28a17.79 17.79 0 016.06 0 18.49 18.49 0 01-6.06 0zM358.73 150.11a37.8 37.8 0 018.68 0 36.35 36.35 0 01-8.68 0zM358.73 153a35.74 35.74 0 018.44 0 35.74 35.74 0 01-8.44 0zM358.73 155.79a41 41 0 019.22 0 42.63 42.63 0 01-9.22 0zM358.73 158.62a27.06 27.06 0 017.34 0 26 26 0 01-7.34 0zM358.73 161.46a37.8 37.8 0 018.68 0 37.8 37.8 0 01-8.68 0zM358.73 164.3a21.78 21.78 0 016.71 0 22.64 22.64 0 01-6.71 0zM358.73 167.13a20.86 20.86 0 016.44 0 20.07 20.07 0 01-6.44 0z"/></g><path d="M162.31 121.25h25.8v25.8h-25.8z" fill="#407bff"/><path d="M176.75 123.87a1.54 1.54 0 11-1.54-1.54 1.54 1.54 0 011.54 1.54z" fill="#455a64"/><path d="M114.11 65.34h271.62v11.42H114.11z" fill="#dbdbdb"/><path d="M200.2 90.91l43.55-.09 43.56.09-43.56.09zM200.2 94.46l43.55-.09 43.56.09-43.56.1zM200.2 98.02l43.55-.1 43.56.1-43.56.09zM200.2 101.57l43.55-.1 43.56.1-43.56.09zM200.2 105.12l43.55-.09 43.56.09-43.56.09zM200.2 108.67l43.55-.09 43.56.09-43.56.1zM200.2 112.22l43.55-.09 43.56.09-43.56.1zM200.2 115.78l43.55-.1 43.56.1-43.56.09zM200.2 119.33l43.55-.1 43.56.1-43.56.09zM200.2 122.88l43.55-.09 43.56.09-43.56.09zM200.2 126.43l43.55-.09 43.56.09-43.56.1zM200.2 129.99l43.55-.1 43.56.1-43.56.09zM200.2 133.54l43.55-.1 43.56.1-43.56.09zM200.2 137.09l43.55-.09 43.56.09-43.56.09zM200.2 140.64l43.55-.09 43.56.09-43.56.1z" fill="#c7c7c7"/><path d="M209.41 115.78h6.61v29.01h-6.61z" fill="#407bff"/><path d="M221.66 103.51h6.61v41.28h-6.61z" fill="#fff"/><path d="M233.92 97.94h6.61v46.85h-6.61z" fill="#407bff"/><path d="M246.17 105.2h6.61v39.58h-6.61z" fill="#fff"/><path d="M258.43 107.36h6.61v37.42h-6.61z" fill="#407bff"/><path d="M270.68 128.57h6.61v16.22h-6.61z" fill="#fff"/><path d="M202.56 88.42l.15 14.09.1 14.09q.1 14.1.1 28.18l-.35-.34H244.93l21.19.12 21.19.2-21.19.21-21.19.12H202.21v-.35q0-14.09.1-28.18l.1-14.09zM209.41 147.76h6.61v.6h-6.61zM221.66 147.76h6.61v.6h-6.61zM233.92 147.76h6.61v.6h-6.61zM246.17 147.76h6.61v.6h-6.61zM258.43 147.76h6.61v.6h-6.61zM270.68 147.76h6.61v.6h-6.61zM138.54 222.29h26.23v2.25h-26.23zM138.54 226.99h35.44v2.25h-35.44zM138.54 231.7h18.81v2.25h-18.81z" fill="#c7c7c7"/><path d="M127.22 222.29h5.47v5.47h-5.47z" fill="#407bff"/><path d="M307.92 90.81h26.23v2.25h-26.23zM307.92 95.51h35.44v2.25h-35.44zM307.92 100.22h18.81v2.25h-18.81z" fill="#c7c7c7"/><path d="M296.6 90.81h5.47v5.47h-5.47z" fill="#407bff"/><path d="M307.92 109.02h31.18v2.25h-31.18zM307.92 113.72h24.66v2.25h-24.66zM307.92 118.43h35.44v2.25h-35.44z" fill="#c7c7c7"/><path d="M296.6 109.02h5.47v5.47h-5.47z" fill="#fff"/><path d="M127.2 164.51h117.56v51.42H127.2z" fill="#dbdbdb"/><path d="M133.45 171h105.07v4.44H133.45z" fill="#fff"/><path d="M133.45 171h53.72v4.44h-53.72z" fill="#407bff"/><path d="M133.45 179.5h105.07v4.44H133.45z" fill="#fff"/><path d="M133.45 179.5h96.38v4.44h-96.38z" fill="#407bff"/><path d="M133.45 188h105.07v4.44H133.45z" fill="#fff"/><path d="M133.45 188h31.09v4.44h-31.09z" fill="#407bff"/><path d="M133.45 196.5h105.07v4.44H133.45z" fill="#fff"/><path d="M133.45 196.5h82.57v4.44h-82.57z" fill="#407bff"/><path d="M133.45 205h105.07v4.44H133.45z" fill="#fff"/><path d="M133.45 205h60.71v4.44h-60.71z" fill="#407bff"/><path d="M320.94 192.53a30 30 0 01-4.58 13.84l-7.7-4.45a21.51 21.51 0 003.36-9.39z" fill="#455a64"/><path d="M321 190.21v1h-8.9v-1a21.38 21.38 0 00-9.65-17.89l4.46-7.71a30.31 30.31 0 0114.09 25.6z" fill="#a6a6a6"/><path d="M305.79 163.91l-4.44 7.71a21.28 21.28 0 00-10-2.81v-8.89a30.11 30.11 0 0114.44 3.99z" fill="#455a64"/><path d="M290.05 159.92v8.89a21.38 21.38 0 00-17.78 10.55l-7.71-4.44a30.27 30.27 0 0125.49-15z" fill="#407bff"/><path d="M271.62 180.54a21.09 21.09 0 00-2.3 9.3h-8.89a29.88 29.88 0 013.48-13.75z" fill="#a6a6a6"/><path d="M278.79 208l-4.45 7.71a30.22 30.22 0 01-13.9-24.53h8.89a21.38 21.38 0 009.46 16.82z" fill="#455a64"/><path d="M315.61 207.49a30.3 30.3 0 01-40.13 8.92l4.45-7.7a21.41 21.41 0 0028-5.69z" fill="#dbdbdb"/><path d="M306.57 191.18a14.06 14.06 0 01-8.57 12.93l-5.49-12.93z" fill="#407bff"/><path d="M290.73 190.22l5.48 12.93c-.43.17-.86.34-1.29.47a14.1 14.1 0 01-4.17.63 14.26 14.26 0 01-4.17-.63 14 14 0 010-26.81 14.12 14.12 0 018.34 0 14 14 0 019.24 9.23 14.36 14.36 0 01.63 4.17z" fill="#407bff"/><path d="M290.73 190.22l5.48 12.93c-.43.17-.86.34-1.29.47a14.1 14.1 0 01-4.17.63 14 14 0 01-13.4-9.87 13.91 13.91 0 010-8.34 14 14 0 0113.4-9.86 14 14 0 0114 14z" fill="#dbdbdb"/><path d="M290.73 190.22l-9.15 10.64a14 14 0 1123.19-10.64z" fill="#a6a6a6"/><path d="M330.94 223.7h-19.57l-24.24-24.24.36-.35 24.09 24.09h19.36z" fill="#263238"/><path d="M285.95 197.92h2.73v2.73h-2.73zM330.94 204.95h-22.05l-10.47-10.47.35-.36 10.32 10.33h21.85z" fill="#263238"/><path d="M297.23 192.94h2.72v2.73h-2.72zM297.59 186.39h33.35v.5h-33.35z" fill="#263238"/><path d="M295.87 185.28h2.73v2.73h-2.73z" fill="#263238"/><path d="M339.53 183.91h26.23v2.25h-26.23zM339.53 188.61h35.44v2.25h-35.44zM339.53 193.32h18.81v2.25h-18.81z" fill="#dbdbdb"/><path d="M328.21 183.91h5.47v5.47h-5.47z" fill="#407bff"/><path d="M339.53 202.12h31.18v2.25h-31.18zM339.53 206.82h24.66v2.25h-24.66zM339.53 211.53h35.44v2.25h-35.44z" fill="#dbdbdb"/><path d="M328.21 202.12h5.47v5.47h-5.47z" fill="#a6a6a6"/><path d="M339.53 220.33h31.18v2.25h-31.18zM339.53 225.03h24.66v2.25h-24.66zM339.53 229.74h35.44v2.25h-35.44z" fill="#dbdbdb"/><path d="M328.21 220.33h5.47v5.47h-5.47z" fill="#c7c7c7"/><path d="M255.92 338.62l1.94 11.67 13.19 71.19h2.12l-9.59-71.19-1.41-11.67z" fill="#dbdbdb"/><path d="M262.17 338.62h-6.25l1.94 11.67h5.72z" fill="#a6a6a6"/><path d="M214.52 421.48h2.13l13.18-71.19 1.95-11.67h-6.25l-1.42 11.67z" fill="#dbdbdb"/><path d="M225.53 338.62l-1.42 11.67h5.72l1.95-11.67z" fill="#a6a6a6"/><path d="M174.99 421.48h2.12l13.18-71.19 1.95-11.67h-6.25l-1.42 11.67z" fill="#dbdbdb"/><path d="M184.57 350.29h5.72l1.95-11.67h-6.25z" fill="#a6a6a6"/><path d="M178.35 344.11h96.59v-10.18h-36.15l-12.16-70.7h-44.59z" fill="#dbdbdb"/><path d="M178.35 344.11h5.27l3.43-80.88h-5.01z" fill="#a6a6a6"/><path d="M435.25 362.44l-.29 34.4c0 6.58-.16 12.35-.51 15.32a4.63 4.63 0 01-.49 2c-2 1.32-54.52 2.68-56.37 2.11s-.37-5.88 1.63-7.56 21.89-11.2 21.89-11.2l.62-34.37z" fill="#ad6359"/><path d="M435 389.79l-.06 7c0 6.58-.16 12.35-.51 15.32a9.43 9.43 0 01-.49 2c-2 1.32-54.52 2.68-56.37 2.11s-.37-5.88 1.63-7.56 21.89-11.2 21.89-11.2v-7.17z" fill="#fff"/><path d="M397.85 397.65c3.5-.58 7.75.05 10.37 2.59.1.1 0 .24-.16.2a48.72 48.72 0 00-10.2-2.35.22.22 0 01-.01-.44zM395.3 399.11c3.5-.58 7.76.05 10.37 2.59.1.1 0 .24-.16.2a49.36 49.36 0 00-10.2-2.35.22.22 0 01-.01-.44zM392.75 400.57c3.5-.57 7.76.05 10.37 2.59.1.1 0 .24-.15.21a49 49 0 00-10.21-2.37.22.22 0 01-.01-.43z" fill="#263238"/><path d="M377.55 416.4c1.85.57 54.4-.8 56.37-2.12.76-.49 1-8.16 1-17.43v-.3l-33.92.51v.57s-19.88 9.52-21.89 11.2-3.41 7-1.56 7.57z" fill="#37474f"/><path d="M435 396.55v.3c0 9.27-.28 16.94-1 17.43s-12.28 1.21-24.59 1.65c-14.73.52-30.77.78-31.78.47-1.85-.57-.36-5.89 1.63-7.57s21.89-11.2 21.89-11.2v-.57l11.31-.17z" fill="#37474f"/><path d="M378.09 414.34c8.86-.45 44.61-1.41 53.39-1.18.07 0 .07 0 0 0-8.76.64-44.52 1.32-53.38 1.28-.19.05-.19-.09-.01-.1z" fill="#263238"/><path d="M412.35 396.89c-.83 5.68-2.09 14.05-3 19-14.73.52-30.77.78-31.78.47-1.85-.57-.36-5.89 1.63-7.57s21.89-11.2 21.89-11.2v-.57z" fill="#263238"/><path d="M439.41 397l-39.62.36s-10.57-140.18-1.17-176.9h28.43s7.64 15.59 3.27 33.14z" fill="#455a64"/><path d="M436.67 390.38a29.76 29.76 0 00-3.13-.24c-1.16-.08-2.32-.16-3.49-.21-2.23-.09-4.47-.13-6.71-.14-4.51 0-9 0-13.54.15-2.57.08-5.14.18-7.7.32a.08.08 0 000 .16c4.48.16 9 .22 13.43.31s9 .17 13.43.08c1.28 0 2.56 0 3.85-.1s2.59 0 3.84-.18c.08-.01.11-.13.02-.15zM402.73 356.2c-.45-10.24-.77-20.48-1.06-30.73q-.84-30.72-.44-61.48c.15-11.5.45-23 .8-34.49 0-.13-.2-.12-.21 0-1.09 20.57-1.5 41.19-1.52 61.8s.4 41 1.41 61.47c.57 11.49 1.27 23 2.35 34.44 0 .1.16.1.16 0-.46-10.33-1.05-20.67-1.49-31.01z" fill="#263238"/><path d="M403.51 366.9l-.29 34.41c0 6.57-.16 12.34-.51 15.31v.05a4.63 4.63 0 01-.49 2c-2 1.32-54.52 2.68-56.37 2.12s-.37-5.89 1.63-7.57 21.89-11.2 21.89-11.2l.62-34.37z" fill="#ad6359"/><path d="M403.28 394.25l-.06 7.06c0 6.57-.16 12.34-.51 15.31v.05a9.43 9.43 0 01-.49 2c-2 1.32-54.52 2.68-56.37 2.12s-.37-5.89 1.63-7.57 21.89-11.2 21.89-11.2v-7.17z" fill="#fff"/><path d="M366.11 402.11c3.5-.58 7.76.05 10.37 2.59.1.1 0 .24-.16.2a48.72 48.72 0 00-10.2-2.35.22.22 0 01-.01-.44zM363.56 403.57c3.5-.57 7.76.05 10.37 2.59.1.1 0 .24-.15.2a49.6 49.6 0 00-10.21-2.36.22.22 0 01-.01-.43zM361 405c3.5-.57 7.75.05 10.36 2.59.1.1 0 .25-.15.21a49 49 0 00-10.21-2.32.23.23 0 010-.48z" fill="#263238"/><path d="M345.81 420.86c1.85.57 54.4-.8 56.37-2.12.76-.49 1-8.16 1-17.43V401l-33.92.5v.57s-19.88 9.52-21.89 11.2-3.37 7.02-1.56 7.59z" fill="#37474f"/><path d="M346.35 418.8c8.86-.44 44.61-1.41 53.39-1.18.07 0 .07.05 0 .05-8.76.64-44.52 1.32-53.38 1.28-.19.05-.19-.14-.01-.15z" fill="#263238"/><path d="M409.73 256.9s-2.79 56.86-2.89 58.21c0 .52-1.3 88.26-1.3 88.26l-39.61.36s5.42-82.25 6-90.28c.07-.93 2.31-56.23 11.71-92.95h42.58s-.37 19.23-9.11 33.14a71.47 71.47 0 00-7.38 3.26z" fill="#455a64"/><path d="M406.65 258c2.1-1.14 4.24-2.17 6.44-3.11s4.44-1.79 6.63-2.76c.08 0 .15.08.07.12-2.15 1.11-4.26 2.3-6.44 3.35a52.19 52.19 0 01-6.6 2.64.13.13 0 01-.1-.24z" fill="#263238"/><path d="M409.57 256.84c0-.08.14-.06.13 0-1.43 10.66-3.36 137.35-3.69 140.38a.18.18 0 01-.36 0c-.07-5.36.18-104.93 3.92-140.38zM390 224.53c-1.09 5.48-1.85 11-2.67 16.56s-1.61 11.08-2.35 16.63q-2.19 16.38-3.9 32.81-3.44 33.25-5 66.66-.89 18.78-1.08 37.6c0 .1.16.09.16 0 .76-22.28 1.84-44.55 3.53-66.78s3.91-44.34 6.62-66.42q1.13-9.18 2.36-18.34c.85-6.22 1.85-12.42 2.57-18.66-.03-.15-.24-.21-.24-.06zM403.39 397.9a29.56 29.56 0 00-3.13-.25c-1.16-.08-2.32-.16-3.48-.21-2.24-.09-4.47-.13-6.71-.13-4.52 0-9 0-13.55.15-2.56.08-5.13.18-7.7.32-.1 0-.09.15 0 .15 4.47.16 8.95.23 13.43.31s8.95.17 13.42.09c1.29 0 2.57 0 3.85-.11s2.6 0 3.85-.18c.08-.04.11-.13.02-.14z" fill="#263238"/><path d="M373.85 210.61c4.15-2.09 20.35-9.68 21-10.85s6.89-23.77 8.56-27.94 6.62-1.87 6.59 4.71.42 29.36-.53 33-18.72 18-22 21.08c-2.47 2.45-15.94-18.84-13.62-20z" fill="#ad6359"/><path d="M390.78 227.56a73.32 73.32 0 01-7.24 6.34c-2.07 1.46-8.16 5.49-10 3.36-1.25-1.45 2-4.23 4.33-6.26 1.21-1.06 2.44-3.13 1.71-3.89-1.26-1.33-4.34 1.49-6.24 3.69-3.69 4.25-8.17 11.15-11.78 9.78-1.36-.52-.68-2.55.58-4.74-2.3 2.84-4.9 5.41-6.44 4.89a1.63 1.63 0 01-1.06-2 2.17 2.17 0 01-2.38.42c-1.29-.67-1.33-2.3-.81-4.17a1.19 1.19 0 01-1.06-.27c-3.06-2.38 4-14.66 7.22-16.68a81.94 81.94 0 0120.65-8.79c5.16 1.87 12.53 18.31 12.52 18.32z" fill="#ad6359"/><path d="M372.41 223.15a17.75 17.75 0 00-5.94 5c-1.84 2.47-3 5.36-4.55 8 0 .07.08.14.11.06.72-1.31 1.57-2.57 2.33-3.86s1.46-2.55 2.29-3.75a17.6 17.6 0 015.79-5.37s0-.09-.03-.08zM369 219.45a42.93 42.93 0 00-7 5.49c-2.27 2.33-3.63 5.34-5 8.25q-1.23 2.63-2.33 5.3c0 .08.07.14.11.06 1.37-3 2.82-6 4.36-8.85a23.26 23.26 0 015.7-7.07c1.35-1.11 2.77-2.13 4.2-3.13.02-.02-.04-.07-.04-.05zM364.83 216.63a22.49 22.49 0 00-6.41 4.87 39.88 39.88 0 00-5 8.53c-.73 1.62-1.4 3.26-2.05 4.92 0 .06.09.11.12 0a91.75 91.75 0 015.29-10.65 18.48 18.48 0 013.47-4.44 34.26 34.26 0 014.58-3.26s.01.02 0 .03z" fill="#263238"/><path d="M376.66 207.05l20.11 20.23s12.18-11.77 13.49-17.71 1.35-28.79 0-35.67-5.79-9.14-8.77.34-6.6 24.33-6.88 24.88-17.95 7.93-17.95 7.93z" fill="#407bff"/><path d="M400.27 221a54.83 54.83 0 00-4-4.08c-1.36-1.34-2.76-2.62-4.17-3.91a193.13 193.13 0 00-8.69-7.47c-.09-.08-.23 0-.14.13 2.67 2.77 5.44 5.47 8.26 8.08 1.4 1.29 2.81 2.57 4.26 3.81a53.25 53.25 0 004.36 3.59c.1.03.19-.1.12-.15z" fill="#263238"/><path d="M397.89 178.09c2.3.18 7.22-4 9.2-7.52a59.44 59.44 0 00-.5-6c-.17-1.92-.31-4.06-.29-6 0-.41-1.38.32-1.38.32l-2.54.6-8.42 2a31.14 31.14 0 011.13 7.55 5 5 0 01-.09.8v.14c-.28 1.48-.7 7.83 2.89 8.11z" fill="#ad6359"/><path d="M395 169.8v.14a8.46 8.46 0 001.27.07c8.29-.12 9.41-10.66 9.41-10.66l-3.28.12-8.42 2a31.14 31.14 0 011.13 7.55 5 5 0 01-.11.78z" fill="#263238"/><path d="M406.64 141.9c1.82 4.19 1 17-1.81 20.14-4 4.56-11.29 5.78-15.35.79-3.93-4.83-2.51-21.49.65-24.42 4.65-4.32 13.87-2.7 16.51 3.49z" fill="#ad6359"/><path d="M387.61 145.41s-1 4.8-2 9.57l1.62-.21-.37 2.16a4.24 4.24 0 003.39-.68z" fill="#ad6359"/><path d="M389.35 150.62s.07 0 .06.08c-.12.86-.11 1.86.64 2.23-.95-.19-.95-1.52-.7-2.31z" fill="#263238"/><path d="M390.22 149.8c1.39 0 1.2 2.83-.09 2.79s-1.08-2.82.09-2.79zM391.4 148.8c-.37-.12-.7-.3-1-.45a1.89 1.89 0 01-1-.67.58.58 0 01.15-.7 1.45 1.45 0 011.48-.06 2.15 2.15 0 011.17 1 .63.63 0 01-.8.88zM390.13 158.73c-.22.19-.45.45-.76.46a2.46 2.46 0 01-.92-.28 1.15 1.15 0 001.07.54.92.92 0 00.73-.71l-.12-.01zM390.49 156.09a3.07 3.07 0 01-3 1c-.06 0-.09-.08-.07-.08a5.31 5.31 0 003-1c.1-.01.13-.01.07.08zM388.57 141.31c-2.9-.87-4.92-7.27-3.91-9.64s3.39 1.37 3.39 1.37.24-2.24 1.26-2.49 2.92 2.83 2.92 2.83 9.74.62 11.82 1.37 2.71 3.55 2.71 3.55a6.5 6.5 0 013.61 4.14c1 3.24-2.22 15.41-4.23 17.06s-7.58-7.61-7.58-7.61-1.5.2-2.12-2.8c-.91-4.45-1.16-7.28-3.37-7.73a22.46 22.46 0 00-4.5-.05z" fill="#263238"/><path d="M398.1 152.42s2.46-4.32 4.4-3.48.35 6.92-1.74 7.93a2.21 2.21 0 01-3.06-.9z" fill="#ad6359"/><path d="M402 150.67s.05 0 0 .06a5.57 5.57 0 00-2.55 3.75 1.22 1.22 0 011.79-.51v.09a1.34 1.34 0 00-1.44.61 6.14 6.14 0 00-.6 1.27c-.06.15-.31.1-.28-.07-.23-1.96 1.02-4.81 3.08-5.2z" fill="#263238"/><path d="M397.35 182.3c-7.66 14.74-21.21 31.3-34.42 37.48-8.05 3.75-14 1.73-16.39-1.26-3.47-4.29 3.29-31.86 8.5-40.17 1.7-2.69 26.88 4.37 25.19 7.32s6-5.88 14.31-12.51c8.53-6.85 7.46.24 2.81 9.14z" fill="#ad6359"/><path d="M363.1 163.65c3-2.24 6.33-5.06 10.13-6.15s8.47 2.94 8.91 4.36 1.75 10.79-2 11.95-3.6-6.39-4-7.13-.84-1.7-1.53-1.41-11.36 10-11.36 10z" fill="#ad6359"/><path d="M363.5 164.1c.21-.06 9.11-7.17 12.92-8.26s8.47 2.94 8.91 4.37 1.75 10.78-2 11.94-3.6-6.39-4-7.13-.83-1.7-1.52-1.4-11.36 10-11.36 10z" fill="#ad6359"/><path d="M381.87 172.07a4.75 4.75 0 01-1.32-2 8.06 8.06 0 01-.6-2.46 13.66 13.66 0 00-.18-2.22 4.43 4.43 0 00-1.14-1.84c-.46-.44-1-.09-1.38.23a17.48 17.48 0 00-1.77 1.56l-1.82 1.76a20.16 20.16 0 00-1.82 1.88c0 .05 0 .13.08.09a20.61 20.61 0 001.65-1.45q.92-.84 1.86-1.65c.58-.51 1.14-1.05 1.73-1.55.21-.18.61-.58.91-.61s.67.65.8.86a3.67 3.67 0 01.5 2.08 10.72 10.72 0 00.24 2.19 5.93 5.93 0 00.76 1.92 8.51 8.51 0 001.4 1.35c.07.03.17-.09.1-.14z" fill="#263238"/><path d="M354.92 178.64s4.51-10.89 8.78-16.26c3.77-4.76 8.62-8.56 12.7-9.86s14.2 9.3 10.84 11c-3.54 1.76-8.26-3.64-9.72-2.3-1.63 1.5-3.54 4-2.77 6.1s4 5.34 7.45 4.16 3.09-5.88 6.15-7.44 3.85 3.89 2.62 8a22.59 22.59 0 01-7.2 10.3c-2.69 2.07-10.87 9-10.87 9z" fill="#ad6359"/><path d="M385.91 163.86a7.45 7.45 0 01-3.83-.89 30.69 30.69 0 00-3.5-1.66.83.83 0 00-.72.07 4.38 4.38 0 00-.68.58 11.41 11.41 0 00-1.2 1.48c-.68 1-1.34 2.27-1 3.36a6.81 6.81 0 002 3.06 5.92 5.92 0 003.31 1.57 5.17 5.17 0 001.83-.22 4.68 4.68 0 001.6-1 8.83 8.83 0 002.09-3.24 8.47 8.47 0 01-1.83 3.51 4.82 4.82 0 01-1.7 1.13 5.36 5.36 0 01-2 .35 6.17 6.17 0 01-3.72-1.63 7.48 7.48 0 01-2.32-3.37 3.29 3.29 0 01.17-2.15 8.5 8.5 0 011-1.8 12 12 0 011.3-1.55 5.27 5.27 0 01.83-.67 1.53 1.53 0 011.18-.08 10 10 0 011.82.91l1.7 1a7.8 7.8 0 003.67 1.24z" fill="#263238"/><path d="M351.87 179.61l28.91 5.39-.4.91s11.85-12.29 17-16.16c6-4.52 5.7 1.91 2.87 8.53s-20 36.58-35.87 44.74c-5.54 2.84-17.44-.87-18.76-5.09-2.4-7.56 6.25-38.32 6.25-38.32z" fill="#407bff"/><path d="M380.45 185.75a38.72 38.72 0 00-3.73 3.28c-1.54 1.45-3.05 2.92-4.56 4.4q-4.53 4.41-9 8.93c-.37.38-.73.77-1.09 1.15-.63.28-1.23.61-1.84.92s-1.46.76-2.21 1.12a.08.08 0 00.07.14c.74-.32 1.49-.63 2.21-1q.62-.3 1.23-.63c-1.12 1.16-2.24 2.32-3.34 3.5-.06.07 0 .17.12.11 6.19-5.61 12.19-11.46 18-17.47.83-.86 3.47-3.41 4.19-4.36.08-.04.02-.14-.05-.09z" fill="#263238"/><path d="M375.6 189.72a55.39 55.39 0 00-5.54-1.39c-1.86-.43-3.73-.8-5.6-1.15-3.75-.72-7.53-1.33-11.31-1.83-.13 0-.18.16 0 .19 3.72 1 7.49 1.81 11.26 2.56 1.87.37 3.74.73 5.63 1a52.91 52.91 0 005.59.78c.06.03.06-.13-.03-.16zM397.26 184.18c-4.35 6.84-8.78 13.62-13.56 20.17-1.4 1.91-2.76 3.85-4.18 5.76 0 .08.05.19.12.11a165.47 165.47 0 0014.15-19.92c1.23-2 2.42-4 3.53-6.08l-.06-.04z" fill="#263238"/><path d="M433.42 238.11c-.13.14-54.68 1.19-55.19.64-.71-.78 8.21-55.47 16.88-67.39 2.17-3 9.91-5 13.13-2 9.34 8.77 11.3 16.13 13.73 22.15a176.16 176.16 0 015.94 19.87c3.26 12.86 5.95 26.21 5.51 26.73z" fill="#407bff"/><path d="M391.09 180.78c-1.6 4.17-3 8.43-4.29 12.71s-2.44 8.52-3.29 12.87c-.24 1.23-.47 2.46-.68 3.69s-.38 2.56-.7 3.81c0 .1.13.13.15 0a55.22 55.22 0 011.56-6.46c.57-2.18 1.17-4.35 1.72-6.54 1.06-4.3 2.23-8.57 3.47-12.82.72-2.43 1.48-4.84 2.23-7.26.03-.07-.13-.1-.17 0z" fill="#263238"/><path d="M142.84 354.52l2.11 12.7 14.35 77.47h2.31l-10.43-77.47-1.54-12.7z" fill="#dbdbdb"/><path d="M149.64 354.52h-6.8l2.11 12.7h6.23z" fill="#a6a6a6"/><path d="M97.79 444.69h2.31l14.35-77.47 2.11-12.7h-6.8l-1.54 12.7z" fill="#dbdbdb"/><path d="M109.76 354.52l-1.54 12.7h6.23l2.11-12.7z" fill="#a6a6a6"/><path d="M54.77 444.69h2.31l14.34-77.47 2.12-12.7h-6.8l-1.54 12.7z" fill="#dbdbdb"/><path d="M65.2 367.22h6.22l2.12-12.7h-6.8z" fill="#a6a6a6"/><path d="M58.43 360.49h105.11v-11.08h-39.35l-13.22-76.93H62.44z" fill="#dbdbdb"/><path d="M58.43 360.49h5.73l3.74-88.01h-5.46z" fill="#a6a6a6"/><path d="M275.93 435.77c-1.95.67-57.67.86-59.8-.48-.82-.5-1.32-8.62-1.64-18.44l-28.71-33.75 42.72-.24 21.92 33.76s21.36 9.47 23.55 11.19 3.9 7.31 1.96 7.96z" fill="#dd6a57"/><path d="M275.93 435.77c-1.95.67-57.67.86-59.8-.48-.73-.44-1.2-6.86-1.52-15.15 5.35.93 50.5 8.69 52.64 7.5s-4.66-5.48-4.66-5.48h.08c5.2 2.4 10.29 4.85 11.3 5.64 2.16 1.72 3.9 7.32 1.96 7.97zM246.18 426.11s5.73-6.65 16.41-3.95M254.14 416.24l-21.71 2.13-21.43 2.11s-43-61.13-45.61-63.8c-6-6-54.29-15.74-67.32-28.69-13.8-13.71-7.78-31.05-7.78-31.05h36s4.56 11.56 6.48 12.16c20.79 6.46 48.48 14.58 57.48 22.52 16.14 14.27 63.89 84.62 63.89 84.62z" fill="#263238"/><path d="M247.38 409.62c-6.11.57-4.37.32-10.46 1-3 .31-22.59 2.4-25.32 3.19-.07 0 0 .12 0 .12 2.84.14 22.4-2.29 25.38-2.66 6.09-.77 4.33-.61 10.41-1.44a.09.09 0 00-.01-.21zM212.15 410.13c-7.06-9.65-14.28-19.62-21.5-29.16l-10.83-14.31q-2.72-3.59-5.44-7.15a41.73 41.73 0 00-5.15-5.95 25.55 25.55 0 00-6.58-4c-2.51-1.12-5.09-2.08-7.69-3-5.4-1.86-10.9-3.37-16.37-5-10.15-3-20.43-6.29-29.17-12.41-7.86-5.51-14.42-13.69-16.29-23.28a21.78 21.78 0 01-.38-3.69.08.08 0 00-.16 0 32.12 32.12 0 003.54 13.36 38.86 38.86 0 008.87 11.18c7.8 6.91 17.67 10.9 27.49 14 5.44 1.71 11 3.19 16.41 4.85 2.77.85 5.51 1.74 8.22 2.74a56.93 56.93 0 017.57 3.25 21.81 21.81 0 016.24 5.06c1.85 2.17 3.49 4.53 5.2 6.81q5.4 7.17 10.83 14.32c7.27 9.61 14.49 19.27 21.87 28.8.92 1.19 1.85 2.36 2.77 3.54.25.38.85.45.55.04z" fill="#455a64"/><path d="M184.06 447.34c-1.95.63-57.67-.09-59.77-1.47-.81-.5 7.72-54.77 7.72-54.77l37.28.37-10.41 36.31s21.2 9.81 23.35 11.57 3.77 7.37 1.83 7.99z" fill="#dd6a57"/><path d="M184.06 447.34c-1.95.63-57.67-.09-59.77-1.47-.26-.16.45-5.94 1.54-13.69C128.1 416 132 391.1 132 391.1l37.28.37-10.41 36.31s6.59 3.05 12.79 6.05c4.92 2.38 9.59 4.73 10.54 5.51 2.17 1.76 3.8 7.38 1.86 8z" fill="#dd6a57"/><path d="M184.06 447.34c-1.95.63-57.67-.09-59.77-1.47-.26-.16.45-5.94 1.54-13.69 5.5.94 18.64 3.17 30.16 4.92l1.34.2c9.8 1.46 18.12 2.51 19 2 2.21-1.24-4.29-5.26-4.65-5.47 4.92 2.38 9.59 4.73 10.54 5.51 2.15 1.76 3.78 7.38 1.84 8z" fill="#263238"/><path d="M155.28 437.79s5.73-6.66 16.4-4zM161.42 427.29l-39.1-.19s18.31-69.28 17.43-74.51c-.41-2.42-43.85 1.22-59.45-15.14C66.88 323.37 79.24 297 79.24 297l41.84-1s-3.86 11.32-6.49 18.34c0 0 57.37 4.05 63.81 16.63 6.87 13.44-16.98 96.32-16.98 96.32z" fill="#263238"/><path d="M120 298.78c-.42 2.22-.78 4.45-1.29 6.65-.24 1-.46 2.09-.77 3.11a2 2 0 01-.7 1.14 2.48 2.48 0 01-1.39.31 1.47 1.47 0 01-1.67-1.62c0-2.06 1.38-9.08 1.46-9.66 0-.11-.36-.16-.39 0-1 4.41-2.37 10-1.53 11.11a3 3 0 003.85.68 2.81 2.81 0 001-1.72c.25-1 .4-2 .58-2.93.42-2.32.87-4.63 1.17-7a.19.19 0 00-.32-.07z" fill="#455a64"/><path d="M115.2 310.8a8 8 0 00-.17.85c-.06.29-.12.57-.19.85s-.13.57-.21.86-.12.56-.18.85a.11.11 0 00.2.07 8.08 8.08 0 00.35-.8c.09-.29.18-.57.26-.86s.14-.57.2-.86a3.77 3.77 0 00.15-.89c0-.2-.34-.28-.41-.07zM146.62 350.7c-.8-2.16-3.09-2.46-5.1-2.59q-4.32-.28-8.63-.73-8.61-.9-17.14-2.48a127.68 127.68 0 01-16-3.71A34.39 34.39 0 0186.63 334 20.29 20.29 0 0180 321.91a35.55 35.55 0 01.23-8.56c.33-2.85.74-5.68 1.31-8.49.29-1.39.61-2.76 1-4.12a.08.08 0 00-.15 0 104.89 104.89 0 00-3 16.68 22.06 22.06 0 00.61 7.68 19.8 19.8 0 003 6c5.92 8.2 16.11 11.17 25.53 13.2q8.46 1.83 17 3c2.77.37 5.55.7 8.33 1s5.63.42 8.44.67a4.32 4.32 0 013.23 1.31 4.45 4.45 0 01.51 3.37c-.21 1.31-.6 2.6-.92 3.89s-.69 2.75-1 4.12q-2.16 8.59-4.29 17.21c-2.83 11.43-5.73 22.86-8.37 34.34-.33 1.42-.65 2.84-.95 4.27a.1.1 0 00.2.05c1.66-5.67 3-11.43 4.49-17.16s2.92-11.46 4.35-17.19 2.86-11.39 4.27-17.09q1-4.31 2.12-8.61c.49-2.11 1.47-4.67.68-6.78zM161.84 420.65c-4.53-.28-9.07-.39-13.61-.54s-9.06-.21-13.59-.13c-2.58 0-5.15.22-7.73.26-.1 0-.09.15 0 .15 4.54 0 9.07.36 13.61.38s9.06 0 13.59 0c2.57 0 5.15.09 7.73.07.16-.02.16-.18 0-.19z" fill="#455a64"/><path d="M98.65 303.11a2.83 2.83 0 01-.23.57.08.08 0 000 .1c-.93 3.1-2.1 6.29-4.82 8.25a15.12 15.12 0 01-4.6 2.21c-1.92.56-3.92.72-5.85 1.25a.21.21 0 00.07.4 22.19 22.19 0 006.44-.66 13 13 0 005-2.32c3-2.43 3.85-6.09 4.25-9.78-.01-.13-.22-.13-.26-.02zM177.24 328.89c-1.81-2.43-4.47-3.74-7.29-4.66-19-6.24-42.29-9-55-10.05-.1 0-.14.14 0 .15 13.74 2.07 48.91 6.78 58.85 12.71 4.26 2.54 6.13 8.63 4.94 18.65-.95 8-2 16.6-3.31 24.51 0 .28.14.26.2 0 1.51-7.14 2.81-14.95 3.73-22.19.74-6.26 1.92-13.7-2.12-19.12z" fill="#455a64"/><path d="M99.77 215.78c-4.5 5.71-5 14.27-5 14.27s-3.88 9-2 13.43a8.4 8.4 0 006 5l-.72-2.48s2 3.06 7.69 3.71 12.72-1.92 16.27-4.29a14.57 14.57 0 005-5.56l-1 3.85a11 11 0 007.79-6.88c2.48-6.06-7.6-13.12-8.58-14.78s-3.51-14.34-16.71-10.51c-.01.01-5.64.32-8.74 4.24z" fill="#263238"/><path d="M96.86 248.39a8.62 8.62 0 01-4-3.3 7.86 7.86 0 01-1.46-4.94 17.39 17.39 0 011.84-6c.88-2 1.9-3.89 2.74-5.88 0-.11-.12-.18-.19-.09A49 49 0 0093 233a22.3 22.3 0 00-2.1 4.84 8.49 8.49 0 000 4.79 8.1 8.1 0 002.04 3.37 18 18 0 003.86 2.53c.08.03.2-.11.06-.14zM134.22 230.86c-2.18-4.52-6.78-7-9.85-10.79-1.67-2.06-3.05-4.39-5.1-6.1 0-.05-.13 0-.08.09a32 32 0 014.14 5.41 34 34 0 004.67 5.07c3.06 2.88 6.71 6.28 6.64 10.83 0 2.11-1 4.54-3 5.44-.08 0 0 .17.07.12a6.65 6.65 0 003.24-4.16 8.48 8.48 0 00-.73-5.91z" fill="#263238"/><path d="M134.57 232.11a8.72 8.72 0 00-1.79-5 12.45 12.45 0 00-4.29-3.13c-1.82-.92-3.72-1.76-5-3.41 0-.07-.15 0-.1.09 2.06 2.72 5.45 3.7 7.93 5.9 2.84 2.52 3.33 6.62 2 10a14.39 14.39 0 01-3.91 5.44s0 .07 0 0c2.97-2.36 5.39-5.9 5.16-9.89z" fill="#263238"/><path d="M121.8 261c7.42 6.7 33.86 27.15 43.55 24.79 6.35-1.55 28.49-15.09 29.82-22.54.58-3.24-10.49-18.51-13.26-16.34s-20.21 13.69-22.82 14.14-29.36-11-38.15-12.74c-15.16-3.08-3.13 9.08.86 12.69z" fill="#dd6a57"/><path d="M184.86 239.57c3.22-2 6.76-4.47 10.65-5.21s8.17 3.7 8.48 5.16.76 10.9-3.12 11.71-3-6.69-3.31-7.46-.68-1.77-1.39-1.54-12.23 9-12.23 9z" fill="#dd6a57"/><path d="M185.22 240.05c.22 0 9.73-6.31 13.62-7.05s8.17 3.7 8.47 5.17.76 10.89-3.11 11.7-3-6.69-3.32-7.46-.67-1.77-1.39-1.54-12.22 9-12.22 9z" fill="#dd6a57"/><path d="M202.78 249.66a4.73 4.73 0 01-1.12-2.15 8.2 8.2 0 01-.38-2.5 13.86 13.86 0 000-2.23 4.36 4.36 0 00-1-1.93c-.41-.49-.94-.18-1.4.09a19.76 19.76 0 00-1.9 1.4c-.67.52-1.32 1.06-2 1.59a21.5 21.5 0 00-2 1.7c0 .05 0 .14.07.1.63-.38 1.19-.86 1.78-1.3s1.33-1 2-1.47 1.23-.94 1.87-1.39c.22-.15.66-.52 1-.52s.6.7.72.93a3.66 3.66 0 01.3 2.12 10.79 10.79 0 00.05 2.2 5.46 5.46 0 00.58 2 8.5 8.5 0 001.27 1.48c.12.04.23-.06.16-.12z" fill="#263238"/><path d="M175.07 252.78s8.67-12 10.5-14.43c3.66-4.83 20.92-16.49 23.49-17.32s4.65 4.36-7 12.64c-6.14 4.37-6.53 8.49-6 10.6s3.46 5.68 7 4.83 4.82-6.6 8-7.88 2.27 5.25.67 9.24a22.54 22.54 0 01-8.11 9.6c-2.87 1.82-11.64 8-11.64 8z" fill="#dd6a57"/><path d="M207.11 245.63c-1.13 1.33-2.39 3-4.16 3.46s-3.28-.49-4.45-1.82a7 7 0 01-2-4.78 8.54 8.54 0 011.62-4.56 20.73 20.73 0 014.2-4.27.07.07 0 10-.09-.1c-1.51 1.08-6.22 4.28-6.3 9.05a7.14 7.14 0 002.07 4.86c1.1 1.27 2.55 2.41 4.33 2.19 2.16-.28 3.63-2.39 4.89-4 .07-.08-.05-.1-.11-.03z" fill="#263238"/><path d="M174.29 249.13L187 274s-16.78 12.32-26.14 13.1c-11.36 1-39.27-23.17-43.47-27.31-6.88-6.8-8.19-12.18-3.06-13 2-.33 5 0 9 1.29 4.17 1.31 29 10.79 35.92 11.61 3.8.45 15.04-10.56 15.04-10.56z" fill="#455a64"/><path d="M174.28 249.13L187 274s-2.78 2-6.72 4.51c-5.73 3.6-13.88 8.12-19.42 8.58-11.35 1-39.28-23.17-43.47-27.31-5-4.92-7-9.1-5.85-11.34a3.56 3.56 0 012.79-1.66c2-.32 5 0 9 1.3 4.17 1.31 29 10.79 35.92 11.61 3.8.45 15.03-10.56 15.03-10.56z" fill="#455a64"/><path d="M187 274s-2.78 2-6.72 4.51c-2.51 1.57-5.46 3.32-8.47 4.83-3.88 1.94-7.83 3.49-11 3.75-11.35 1-39.28-23.17-43.47-27.31-5-4.92-7-9.1-5.85-11.34a2.25 2.25 0 01.58-.72 4.22 4.22 0 012.21-.94c2-.32 5 0 9 1.3 4.17 1.31 29 10.79 35.92 11.61 3.85.46 15.08-10.55 15.08-10.55z" fill="#455a64"/><path d="M181.81 275.19c-2-3.62-9.58-18.71-11-22.09-.1-.23 0-.35.16-.12 6.22 10.69 9.21 18.48 11 22.13.03.09-.11.17-.16.08zM171.8 283.33c-3.88 1.94-7.83 3.49-11 3.75-11.35 1-39.28-23.17-43.47-27.31-5-4.92-7-9.1-5.85-11.34a2.25 2.25 0 01.58-.72z" fill="#263238"/><path d="M74.73 307.88c4 .58 13.55 1.44 23.72 2.3 16.22 1.34 34.1 2.64 34.1 2.64l-3-31s4.15-6 3.39-11.81c-.88-6.56-11.36-20.05-12.48-21.09-3.79-3.53-9.26-5.63-14.5-2.81a13.7 13.7 0 00-3 2.21 1.53 1.53 0 00-.18.18c-.29.28-.6.58-.89.91-13.03 14.07-27.16 58.47-27.16 58.47z" fill="#455a64"/><path d="M98.17 252.9c-10.7 14.56-24.63 41.69-19.74 46 10.7 9.46 33 20.63 43.77 21.55 3.15.27 9-20.34 6.87-23s-29-10.15-29.24-12.2c-.16-1.17 3.35-14.14 6.37-26.66 3.49-14.37-4.97-9.86-8.03-5.69z" fill="#dd6a57"/><path d="M123.54 295.94s9.63-.27 15.93-.15c3.51.07 9.53.72 12.09 1.95 3.83 1.84 18.66 12 16.28 15.64-2.16 3.3-13.8-7-13.8-7s12.67 9.38 9.34 12.89-14.92-9.93-14.92-9.93 12.8 9.94 8.79 13c-3 2.32-14.21-9.25-14.21-9.25s10.96 8.6 7.96 11.12c-3.35 2.79-14.35-7.21-14.35-7.21-8.73 5.12-15 4-19.32 2.65-1.05-.37 6.21-23.71 6.21-23.71z" fill="#dd6a57"/><path d="M149.87 302.82c1.53 1.05 3.08 2.1 4.51 3.28s2.82 2.41 4.13 3.72a32.16 32.16 0 014.63 5.58 68.07 68.07 0 00-9.1-8.92c-1.42-1.18-2.79-2.43-4.22-3.61l.05-.05zM145.51 307.9c1.9 1.43 3.83 2.77 5.66 4.28s3.42 3.08 5.13 4.7c.13.13 0 .16-.12 0-1.77-1.55-3.54-2.85-5.33-4.38s-3.53-3.14-5.38-4.6c-.02.02.01-.02.04 0zM141 311.59a53 53 0 018.14 7.2c.13.13 0 .15-.15 0-2.67-2.44-4.74-4.38-8.06-7.12-.07-.02-.01-.12.07-.08z" fill="#263238"/><path d="M111.47 320.47L126 294.79s-24.81-8.67-25.43-9.47 4.32-17 6.4-27.66-2.74-13.2-10.64-3.14-22.44 36.66-20 43.14 35.14 22.81 35.14 22.81z" fill="#455a64"/><path d="M120.72 294.53a21 21 0 00-1.59 2.49l-1.66 2.72c-1.12 1.85-2.2 3.72-3.26 5.6-2.09 3.73-4.16 7.48-6.26 11.2 0 .09.08.16.14.08 2.3-3.62 4.57-7.24 6.76-10.93 1.09-1.82 2.14-3.66 3.13-5.53.5-.94 1-1.88 1.48-2.82a22 22 0 001.34-2.76c.02-.05-.05-.08-.08-.05zM111.37 320.28c-4.55-2.41-9-5-13.48-7.6s-9-5.22-13.23-8.15c-1.2-.83-2.41-1.65-3.59-2.51s-2.26-1.8-3.48-2.55c-.09-.06-.17.07-.1.13a23.27 23.27 0 002.91 2.52c1 .82 2.08 1.62 3.14 2.41 2 1.53 4.19 3 6.35 4.33 4.34 2.78 8.86 5.27 13.45 7.61 2.64 1.34 5.33 2.59 8 3.95a.08.08 0 00.03-.14zM126 294.61c-2.24-.87-24.21-9.24-25.12-9.41 0-.68 1.94-8.53 2.37-10.35.1-.43.19-.85.28-1.27.33-.83.65-1.67 1-2.51a29.49 29.49 0 011.56-3.32.08.08 0 00-.14-.08c-.57 1.1-1.15 2.21-1.67 3.33l-.27.59.48-2.1c.41-1.86.89-3.73 1.16-5.62a.09.09 0 00-.17 0c-.67 1.88-1.14 3.83-1.67 5.75s-3.58 15.76-3.47 15.85c.81.6 23.48 8.52 25.65 9.33.01-.01.07-.16.01-.19z" fill="#263238"/><path d="M114.92 323.93h51.4v2.31h-51.4z" fill="#407bff"/><path d="M140.45 323.93h25.87v2.31h-25.87z" opacity=".1"/><path d="M143.24 326.23h50.09l6.55-34.02h-50.1z" fill="#407bff"/><path d="M168.51 309.22a2.75 2.75 0 002.78 3 3.41 3.41 0 003.32-3 2.76 2.76 0 00-2.79-3.05 3.39 3.39 0 00-3.31 3.05z" fill="#fff"/><path d="M107.52 247c.31.79 5 5.53 8.67 4.82 1.2-.24.22-6.87.22-6.87v-.51l.55-7.09-8.81-4-1.27-.52V240.78a47.87 47.87 0 00.64 6.22z" fill="#dd6a57"/><path d="M106.9 237.19a14.24 14.24 0 009.55 7.25l.55-7.09-8.81-4-1.27-.52s-.02 1.93-.02 4.36z" fill="#263238"/><path d="M124.78 225c2.89 12.14-4.06 15.24-6.68 15.86-2.38.56-10.54 2.18-14.67-9.6s.6-17 6-18.54 12.46.16 15.35 12.28z" fill="#dd6a57"/><path d="M123.14 223a8.38 8.38 0 01-.86 0 1.4 1.4 0 01-.87-.21.44.44 0 01-.09-.53 1.09 1.09 0 011-.43 1.62 1.62 0 011.1.4.47.47 0 01-.28.77zM115.28 224.49a7.77 7.77 0 00.8-.31 1.37 1.37 0 00.76-.47.44.44 0 00-.09-.54 1.1 1.1 0 00-1.11-.08 1.69 1.69 0 00-.91.73.47.47 0 00.55.67zM117.43 227.33s-.05 0-.05.09c.19.83.26 1.81-.44 2.23.91-.26.8-1.56.49-2.32z" fill="#263238"/><path d="M116.52 226.6c-1.36.15-1 2.87.31 2.72s.83-2.85-.31-2.72z" fill="#263238"/><path d="M116 226.82c-.21.19-.4.5-.69.57s-.61-.17-.87-.41c.07.52.35 1 .92 1s.81-.52.86-1.06c-.02-.04-.12-.17-.22-.1zM122 226.3s.07 0 .07.06c.09.85.34 1.8 1.14 2-.91.02-1.21-1.25-1.21-2.06z" fill="#263238"/><path d="M122.65 225.31c1.34-.29 1.83 2.41.59 2.68s-1.71-2.43-.59-2.68z" fill="#263238"/><path d="M123.25 225.39c.24.1.5.32.75.29s.47-.36.61-.68c.11.51 0 1.08-.44 1.27s-.85-.21-1.06-.71c0-.06.04-.21.14-.17zM118.19 233.85c.23.18.46.43.77.42a2.2 2.2 0 00.88-.3s.06 0 0 0a1.12 1.12 0 01-1 .57.9.9 0 01-.74-.68c0-.01.06-.03.09-.01zM121.21 230.25a18.42 18.42 0 01.47 1.82c0 .06-.13.1-.33.15a2.85 2.85 0 01-2.9-.61c-.05-.05 0-.12.08-.09a4.34 4.34 0 002.68.32c0-.17-.71-2.08-.62-2.1a5.2 5.2 0 011.39.09c-.7-2.58-1.82-5-2.48-7.59a.08.08 0 01.14-.06 43.12 43.12 0 013 8.06c.11.32-1.17.08-1.43.01z" fill="#263238"/><path d="M121.23 231.77a3.44 3.44 0 01-1 1.42 1.61 1.61 0 01-.9.32c-.71 0-.9-.6-.92-1.15a3.93 3.93 0 01.07-.88 4.52 4.52 0 002.75.29z" fill="#263238"/><path d="M120.18 233.19a1.61 1.61 0 01-.9.32c-.71 0-.9-.6-.92-1.15a1.61 1.61 0 011.82.83z" fill="#ffa2be"/><path d="M103.53 231.33c1.4-.31 4.43-4.79 3.42-11.62 0 0 .48 6.19.17 7.16s1.69-2.52.95-8a22.54 22.54 0 006.12 2c2.71.3 4.29 0 4.44-.2s-3.85-.8-5.08-1.82c0 0 7.42 2.07 10.64 1.79.37 0-.43-7.66-5.88-10.06s-12.65 2.35-14.41 4.71c0 0-2.4.76-4.47 4.83s2.57 11.55 4.1 11.21z" fill="#263238"/><path d="M121.48 227c-.43-2.09.34-4 1.73-4.32s2.87 1.18 3.31 3.28-.34 4-1.73 4.33-2.87-1.24-3.31-3.29zm.51-.1c.38 1.81 1.59 3.1 2.69 2.88s1.7-1.9 1.33-3.72-1.59-3.1-2.7-2.87-1.69 1.81-1.31 3.66zM111.92 228.94a3.64 3.64 0 114.34 3.07 3.76 3.76 0 01-4.34-3.07zm.51-.11a3.11 3.11 0 102.36-3.92 3.25 3.25 0 00-2.36 3.92z" fill="#407bff"/><path d="M118.78 227.16c1.77-1.07 2.76-.62 2.77-.62l.23-.46s-1.23-.6-3.27.63zM112.1 228.55V228c-.34 0-6.12.08-7 .21s-2.74 1.73-2.94 1.91l.34.39a9.9 9.9 0 012.64-1.78c.71-.08 4.07-.11 6.96-.18z" fill="#407bff"/><path d="M105.58 231.76s-3.27-3.45-4.87-2.23 1.24 6.5 3.41 7a2.1 2.1 0 002.63-1.53z" fill="#dd6a57"/><path d="M101.56 231v.06a5.33 5.33 0 013.22 2.9 1.16 1.16 0 00-1.77-.06v.07a1.28 1.28 0 011.48.24 6.07 6.07 0 01.84 1c.09.12.31 0 .24-.13-.2-1.81-2.01-4.17-4.01-4.08z" fill="#263238"/><path d="M116.47 244.91l-1.32 6.8-7.94-6.93-2.21 2.68s9.18 12 9.12 11.39l1.55-5.94 4.48 3.06-1.95-8.55z" fill="#ebebeb"/><path d="M118.28 247.49c0-.05-.12-.06-.11 0 .17 1.46 1.37 6.58 1.64 8-.19-.14-4.12-2.66-4.14-2.6-.4 1-1.54 5.3-1.6 5.68-1.61-1.78-7.35-9.49-9.16-11.12a.06.06 0 00-.08.08c1.48 1.92 9.22 11.88 9.31 11.83a59.52 59.52 0 001.61-6.27 43.2 43.2 0 004.71 3.27c-.25-1.57-1.7-7.36-2.18-8.87z" fill="#263238"/></svg>