<svg viewBox="0 0 750 500" xmlns="http://www.w3.org/2000/svg"><path d="M132.3 95.71c92.86-78.92 296.35 99.38 370.87 84.9S685.23 204.35 665 291.67c-22.49 96.95-283.13 98-397 64.64S44.71 170.15 132.3 95.71z" fill="#f5f5f5"/><path d="M677.85 450.46c0 .14-135.6.26-302.84.26s-302.86-.12-302.86-.26 135.57-.26 302.86-.26 302.84.11 302.84.26z" fill="#263238"/><path d="M134.45 419.42a18.73 18.73 0 00-11.62-1.42c-2.1.35-4.3 1-5.73 2.56s-1.71 4.37-.06 5.73a5.5 5.5 0 003.61.92c3.08 0 6.48-.58 8.94 1.27 1.4 1.05 2.33 2.8 4 3.32a4 4 0 004.36-1.93 6.83 6.83 0 00.49-5 7.64 7.64 0 00-3.99-5.45zM142.55 403.79c-2.16 3.09-6.36 2.06-8.31.18s-2.77-4.61-3.52-7.22c-1.71-5.95-3.44-12.19-2.16-18.24a10.06 10.06 0 012.33-5 5.26 5.26 0 015-1.67c2.11.55 3.43 2.63 4.38 4.6a43.42 43.42 0 014.3 18.67c0 3-.35 6.16-2 8.64" fill="#407bff"/><path d="M142.55 403.79c-2.16 3.09-6.36 2.06-8.31.18s-2.77-4.61-3.52-7.22c-1.71-5.95-3.44-12.19-2.16-18.24a10.06 10.06 0 012.33-5 5.26 5.26 0 015-1.67c2.11.55 3.43 2.63 4.38 4.6a43.42 43.42 0 014.3 18.67c0 3-.35 6.16-2 8.64" opacity=".2"/><path d="M148.48 408.22a11.24 11.24 0 01-1.74-10.34 19.88 19.88 0 016.12-8.87 32.94 32.94 0 0111-6.47 11.61 11.61 0 014.93-.84 5.18 5.18 0 014.13 2.5c1.16 2.2.05 4.87-1.15 7.05a82.46 82.46 0 01-7.2 11c-2.15 2.78-4.63 5.53-7.91 6.78s-6.71 1.11-8.45-1.17" fill="#407bff"/><path d="M142.69 450.34a6.86 6.86 0 01-.19-1.4c-.1-1-.22-2.3-.37-3.83s-.42-3.52-.86-5.61a44.25 44.25 0 00-2-6.62 24.14 24.14 0 00-3.39-6 12.74 12.74 0 00-4.27-3.56 12.32 12.32 0 00-3.61-1.12 6.62 6.62 0 01-1.39-.2 6.22 6.22 0 011.42 0 10.75 10.75 0 013.75 1 12.61 12.61 0 014.52 3.58 24 24 0 013.5 6.12 41.31 41.31 0 012 6.73 46.91 46.91 0 01.74 5.69c.13 1.62.17 2.94.19 3.85a6.43 6.43 0 01-.04 1.37z" fill="#263238"/><path d="M142.43 447.4a3 3 0 010-.65v-1.86c0-1.62 0-3.95-.08-6.84-.15-5.77-.64-13.74-1.6-22.49s-2.25-16.64-3.42-22.3c-.28-1.41-.55-2.69-.82-3.81s-.46-2.08-.66-2.86-.33-1.33-.44-1.81a2.76 2.76 0 01-.11-.64 2.71 2.71 0 01.22.61l.54 1.78c.24.78.49 1.73.77 2.85s.6 2.38.9 3.8a212 212 0 013.59 22.31c1 8.78 1.4 16.77 1.43 22.55 0 2.9 0 5.24-.1 6.85 0 .76-.08 1.37-.11 1.86a2.56 2.56 0 01-.11.65z" fill="#263238"/><path d="M142.39 432a12.6 12.6 0 010-1.95c.07-1.24.24-3.05.59-5.26a70.14 70.14 0 011.71-7.67 67.68 67.68 0 013.21-9.08 48.07 48.07 0 019.43-14.67 22.66 22.66 0 012.21-2.07c.34-.28.64-.57.95-.8l.86-.59a11.63 11.63 0 011.64-1 59.05 59.05 0 00-5.37 4.79 51 51 0 00-9.19 14.62 73.42 73.42 0 00-3.22 9c-.84 2.82-1.4 5.41-1.83 7.6s-.63 4-.77 5.21a11.67 11.67 0 01-.22 1.87z" fill="#263238"/><path d="M221.5 106.72h307.37v239.17H221.5z" fill="#fff"/><path d="M528.87 345.89c0-1.79-.09-94.8-.22-239.17l.22.21H221.53l.26-.26v239.17l-.23-.24 307.37.24-307.37.23h-.23v-.23V106.41h307.84v.22c-.17 144.46-.3 237.47-.3 239.26z" fill="#263238"/><path d="M306 325.8c-.15 0-.26-26-.26-58.06s.11-58.07.26-58.07.26 26 .26 58.07-.1 58.06-.26 58.06zM439.41 325.8c-.15 0-.26-26-.26-58.06s.11-58.07.26-58.07.26 26 .26 58.07-.12 58.06-.26 58.06zM351.55 325.8c-.14 0-.26-33.23-.26-74.22s.12-74.24.26-74.24.26 33.23.26 74.24-.11 74.22-.26 74.22zM259.25 325.8c-.15 0-.26-33.23-.26-74.22s.11-74.24.26-74.24.26 33.23.26 74.24-.12 74.22-.26 74.22zM491.76 325.8c-.14 0-.26-33.23-.26-74.22s.12-74.24.26-74.24.26 33.23.26 74.24-.11 74.22-.26 74.22zM391.49 325.8c-.15 0-.26-38.37-.26-85.7s.11-85.72.26-85.72.26 38.37.26 85.72-.12 85.7-.26 85.7z" fill="#263238"/><path d="M307.11 209.67a1.09 1.09 0 11-1.09-1.09 1.09 1.09 0 011.09 1.09z" fill="#263238"/><circle cx="351.55" cy="177.34" fill="#263238" r="1.09"/><path d="M351.55 181.16a3.82 3.82 0 113.82-3.82 3.83 3.83 0 01-3.82 3.82zm0-7.39a3.57 3.57 0 103.57 3.57 3.58 3.58 0 00-3.57-3.57z" fill="#263238"/><circle cx="391.49" cy="154.38" fill="#263238" r="1.09"/><circle cx="439.41" cy="210.76" fill="#263238" r="1.09"/><circle cx="491.79" cy="177.34" fill="#263238" r="1.09"/><path d="M260.33 178.43a1.09 1.09 0 11-1.08-1.09 1.08 1.08 0 011.08 1.09z" fill="#263238"/><path d="M502.08 229.88a4 4 0 01-.86.28 18.82 18.82 0 00-2.47.85 23.81 23.81 0 00-7.94 6c-3 3.22-5.95 7.7-9.68 12.74a62.39 62.39 0 01-6.58 7.64 37.44 37.44 0 01-4.27 3.53 30 30 0 01-5.15 2.81 29 29 0 01-12.32 2.07 32.42 32.42 0 01-6.63-.83 17.27 17.27 0 01-6.42-2.82 20.61 20.61 0 01-5-5.23c-1.38-2-2.62-4.12-3.82-6.27-2.4-4.33-4.88-8.69-7.71-13.07s-5.35-9.1-8.22-13.7a65.31 65.31 0 00-10.07-13 29.55 29.55 0 00-6.76-4.84 22.51 22.51 0 00-8-2.35 28.19 28.19 0 00-16.65 3.56 42 42 0 00-12.68 11.83 130.56 130.56 0 00-9.07 14.57 147.35 147.35 0 01-8.78 14.29 69.59 69.59 0 01-10.63 12.11 37.71 37.71 0 01-3.08 2.46 35.23 35.23 0 01-3.27 2.13 28.45 28.45 0 01-7.08 2.92 24.83 24.83 0 01-3.7.69 12.89 12.89 0 01-1.86.1h-1.85a28.14 28.14 0 01-7.09-1.32 48 48 0 01-12-6.26c-3.56-2.45-6.81-5-10-7.28a52.59 52.59 0 00-9.49-5.75 31.72 31.72 0 00-9.45-2.69 23.34 23.34 0 00-8.49.55 14.66 14.66 0 00-1.84.59 11.4 11.4 0 00-1.72.68 23 23 0 00-3 1.66 32.9 32.9 0 00-4.51 3.61l-1.57 1.72a14 14 0 00-1.26 1.47l-1.59 2.09a4.56 4.56 0 01-.59.69 3.62 3.62 0 01.46-.78l1.47-2.19a14.62 14.62 0 011.21-1.53l1.54-1.79a30.92 30.92 0 014.51-3.8 22.61 22.61 0 013-1.76 10.91 10.91 0 011.75-.73 14.5 14.5 0 011.89-.65 23.9 23.9 0 018.78-.7 32.36 32.36 0 019.76 2.65 53.83 53.83 0 019.74 5.76c3.22 2.28 6.49 4.79 10 7.18a46.9 46.9 0 0011.7 6 26.79 26.79 0 006.76 1.21h1.75a11.43 11.43 0 001.75-.11 23.24 23.24 0 003.5-.67 31.83 31.83 0 0012.88-7.2 68.51 68.51 0 0010.36-11.89 148.65 148.65 0 008.67-14.15 130.85 130.85 0 019.15-14.75 43.66 43.66 0 0113.16-12.26 30.53 30.53 0 018.56-3.24 30.06 30.06 0 019-.51 23.94 23.94 0 018.57 2.53 30.31 30.31 0 017.11 5.1 67.36 67.36 0 0110.29 13.31c2.88 4.65 5.44 9.34 8.17 13.73s5.33 8.85 7.69 13.16 4.73 8.53 8.39 11.12a16 16 0 006 2.66 32.26 32.26 0 006.37.84 28.07 28.07 0 0011.86-1.89 29.1 29.1 0 005-2.66 36 36 0 004.18-3.38 60.81 60.81 0 006.57-7.45c3.78-5 6.85-9.42 9.94-12.62a23 23 0 018.26-5.9 13.29 13.29 0 012.55-.71 4.6 4.6 0 01.85-.16z" fill="#407bff"/><path d="M258.16 133.56h53.59v2.98h-53.59zM258.16 140.54h26.48v2.98h-26.48zM225.64 87.21h298.72a4.51 4.51 0 014.51 4.51v15H221.13v-15a4.51 4.51 0 014.51-4.51z" fill="#263238"/><path d="M237.08 97.34a2.1 2.1 0 11-2.1-2.1 2.1 2.1 0 012.1 2.1zM246.25 97.34a2.1 2.1 0 11-2.1-2.1 2.1 2.1 0 012.1 2.1zM255.41 97.34a2.1 2.1 0 11-2.1-2.1 2.1 2.1 0 012.1 2.1z" fill="#fff"/><rect fill="#e6e6e6" height="35.39" rx="3.23" width="126.21" x="102.97" y="247.46"/><path d="M129.57 271.05a7.69 7.69 0 11-1.19-10.81 7.68 7.68 0 011.19 10.81z" fill="#fff"/><path d="M127.9 263.63a36.38 36.38 0 01-4.17 4.42c-.34.34-.68.67-1 1l-.18.18-.18-.18a24.19 24.19 0 01-3.11-3.47 24.19 24.19 0 013.47 3.11h-.35l1-1a35.79 35.79 0 014.52-4.06zM216.86 262.56c0 .14-16 .26-35.83.26s-35.83-.12-35.83-.26 16-.26 35.83-.26 35.83.11 35.83.26zM187.47 269.56c0 .14-9.28.26-20.72.26s-20.75-.12-20.75-.26 9.27-.26 20.71-.26 20.76.11 20.76.26z" fill="#263238"/><rect fill="#e0e0e0" height="51.67" rx="2.62" width="124.43" x="140.22" y="162.2"/><path d="M166.07 178.53a5.8 5.8 0 11-5.8-5.8 5.8 5.8 0 015.8 5.8zM171.87 174.52h40.42v2.24h-40.42z" fill="#407bff"/><path d="M171.87 179.62h78.62v2.24h-78.62z" fill="#fff"/><path d="M166.07 196.36a5.8 5.8 0 11-5.8-5.8 5.79 5.79 0 015.8 5.8zM171.87 192.36h20.64v2.24h-20.64z" fill="#407bff"/><path d="M171.87 197.45h78.62v2.24h-78.62z" fill="#fff"/><rect fill="#e0e0e0" height="68.24" rx="3.96" width="160.54" x="162.15" y="298.09"/><path d="M191.52 331.06l-.09-13.84a17.69 17.69 0 00-11.43 4.46 16.35 16.35 0 00-5.5 14.33c.07.66.18 1.33.32 2a.09.09 0 010 .05l16.68-3.75zM208.71 326.8a16.43 16.43 0 00-13.46-9.42l-.53-.05H193.29l.09 13.84v3.25l16.7 3.58a16 16 0 00.37-3.59 17.9 17.9 0 00-1.74-7.61z" fill="#407bff"/><path d="M208.71 326.8a16.43 16.43 0 00-13.46-9.42l-.53-.05H193.29l.09 13.84v3.25l16.7 3.58a16 16 0 00.37-3.59 17.9 17.9 0 00-1.74-7.61z" opacity=".2"/><path d="M192.41 336l-16.67 3.76a17.1 17.1 0 0033.38-.11l-16.68-3.64" fill="#407bff"/><path d="M192.41 336l-16.67 3.76a17.1 17.1 0 0033.38-.11l-16.68-3.64" opacity=".1"/><path d="M221.65 321.36h84.73v3.84h-84.73zM221.65 331.48h84.73v3.84h-84.73zM221.65 342.67h45.8v3.84h-45.8z" fill="#fff"/><rect fill="#e6e6e6" height="161.17" rx="8.41" width="167.39" x="349.28" y="249.7"/><path d="M360.98 360.11h5.49v1.58h-5.49zM373.41 368.58h7.03v1.58h-7.03zM397.87 368.58h7.03v1.58h-7.03zM422.32 368.58h7.03v1.58h-7.03zM446.78 368.58h7.03v1.58h-7.03zM471.24 368.58h7.03v1.58h-7.03zM495.7 368.58h7.03v1.58h-7.03zM360.98 338.97h5.49v1.58h-5.49zM360.98 299.17h5.49v1.58h-5.49zM360.98 279.18h5.49v1.58h-5.49zM361.26 319.07h5.49v1.58h-5.49zM502.53 361.7h-2.32l-6.65.05-24.45.08-80.66.08h-19.37v-.25c0-27 .07-50.71.09-67.72 0-8.49.06-15.29.08-20v-5.38-1.4a4.24 4.24 0 010-.47 4.24 4.24 0 010 .47V273.94c0 4.71.05 11.51.08 20 0 17 .05 40.75.09 67.72l-.26-.26h19.11l80.66.07 24.45.08 6.65.05h1.73z" fill="#263238"/><path d="M504.07 319.86c0 .15-29 .26-64.7.26s-64.72-.11-64.72-.26 29-.26 64.72-.26 64.7.12 64.7.26zM504.07 300c0 .14-29 .26-64.7.26s-64.72-.12-64.72-.26 29-.26 64.72-.26 64.7.08 64.7.26zM504.07 280c0 .14-29 .26-64.7.26s-64.72-.12-64.72-.26 29-.26 64.72-.26 64.7.08 64.7.26zM504.07 339.76c0 .14-29 .26-64.7.26s-64.72-.12-64.72-.26 29-.26 64.72-.26 64.7.12 64.7.26z" fill="#263238"/><path d="M376 357.41v-17.65l11-17.08 7.47 5.73 15.32-23.81 9 6.37 12.58-22 10.22 8.32 15.32-29.13 16.51 32.56 13.36-16.29 15.72-4.5v77.44z" fill="#407bff"/><path d="M504.07 273.7H499.79l-12.06.06h.11l-12.92 16.89-.07.08h-.1l-32.36.05.22-.12L429 313.34l-13.36 22.2-.19.32-.23-.3-17.52-24.11h.35l-16 24.92c-1.91 3-3.42 5.28-4.46 6.88-.5.78-.9 1.37-1.18 1.8s-.42.6-.42.6.12-.22.37-.63.64-1.05 1.13-1.84l4.36-6.95 15.84-25 .16-.26.19.25c5.24 7.17 11.17 15.29 17.59 24.06h-.42l13.34-22.21 13.63-22.64.07-.12h32.5l-.16.08 13-16.82v-.06h.08l12.06.07h4.01z" fill="#263238"/><path d="M403.17 317a1.24 1.24 0 11-1.24-1.2 1.21 1.21 0 011.24 1.2zM440.5 295.77a1.24 1.24 0 11-1.24-1.2 1.22 1.22 0 011.24 1.2zM469.52 290.56a1.25 1.25 0 11-1.24-1.2 1.22 1.22 0 011.24 1.2z" fill="#263238"/><ellipse cx="381.44" cy="389.73" fill="#fff" rx="8.03" ry="7.73"/><path d="M401.38 384.55h94.32v2.89h-94.32zM401.38 391.78h39.16v2.89h-39.16z" fill="#fff"/><rect fill="#e6e6e6" height="92.18" rx="4.94" width="111.14" x="462.79" y="124.52"/><path d="M482.19 161.43h5.99v45.23h-5.99zM509.42 157.76h5.99v48.9h-5.99zM537.62 151.55h5.99v55.11h-5.99zM524.38 184.63h5.99v22.02h-5.99z" fill="#407bff"/><path d="M524.38 184.63h5.99v22.02h-5.99z" opacity=".2"/><path d="M489.17 156.58h5.99v50.08h-5.99z" fill="#407bff"/><path d="M489.17 156.58h5.99v50.08h-5.99z" opacity=".1"/><path d="M516.89 146.09h5.99v60.57h-5.99z" fill="#407bff"/><path d="M516.89 146.09h5.99v60.57h-5.99z" opacity=".1"/><path d="M553.08 146.09h5.99v60.57h-5.99z" fill="#407bff"/><path d="M553.08 146.09h5.99v60.57h-5.99z" opacity=".2"/><path d="M545.26 134.13h5.99v72.53h-5.99z" fill="#407bff"/><path d="M545.26 134.13h5.99v72.53h-5.99z" opacity=".1"/><path d="M496.5 174.88h5.99v31.78h-5.99z" fill="#407bff"/><path d="M496.5 174.88h5.99v31.78h-5.99z" opacity=".2"/><path d="M567.64 209.4c0 .15-21.38.26-47.74.26s-47.75-.11-47.75-.26 21.37-.26 47.75-.26 47.74.12 47.74.26zM469.37 198.61h3.66v1.21h-3.66zM469.37 182.52h3.66v1.21h-3.66zM469.37 152.22h3.66v1.21h-3.66zM469.37 137h3.66v1.21h-3.66zM469.56 167.37h3.66v1.21h-3.66z" fill="#263238"/><rect fill="#407bff" height="31.96" rx="3.23" width="114" x="334.81" y="117.03"/><path d="M358.84 138.34a6.95 6.95 0 11-1.07-9.77 7 7 0 011.07 9.77z" fill="#fff"/><path d="M353.41 141a7 7 0 01-.75-13.9 6.74 6.74 0 01.77 0 7 7 0 015.43 11.33 6.91 6.91 0 01-4.68 2.57 6.74 6.74 0 01-.77 0zm0-13.89a6.74 6.74 0 00-.77 0 6.92 6.92 0 106.16 11.21 6.92 6.92 0 00-5.39-11.25z" fill="#263238"/><path d="M357.32 131.63a28.56 28.56 0 01-3.74 4l-.91.88-.19.18-.17-.18a20.23 20.23 0 01-2.79-3.15 20.23 20.23 0 013.15 2.79h-.36l.91-.9a29.94 29.94 0 014.1-3.62z" fill="#407bff"/><path d="M437.68 130.67c0 .14-14.49.26-32.36.26s-32.37-.12-32.37-.26 14.49-.26 32.37-.26 32.36.11 32.36.26zM411.13 137c0 .14-8.37.26-18.71.26s-18.71-.12-18.71-.26 8.38-.26 18.71-.26 18.71.1 18.71.26z" fill="#fff"/><path d="M623.65 177.84s-.13.17-.42.48-.69.78-1.27 1.35a24.41 24.41 0 01-5.8 4 19.16 19.16 0 01-2.23 1l-1.23.44-1.32.35a26.21 26.21 0 01-2.85.54c-.5.06-1 .08-1.53.13a12 12 0 01-1.59 0 24 24 0 01-13.67-4.39h.17L580 184.1l-.67.13.45-.51 6.54-7.54v.31a26.71 26.71 0 01-2.93-5.21 26.11 26.11 0 01-1.58-6 24 24 0 011.8-12.68 24 24 0 0126.4-14 23.88 23.88 0 0112.33 6.36 23.75 23.75 0 014.9 27.58c-.23.46-.46.9-.67 1.31s-.48.75-.69 1.09a12.81 12.81 0 01-1.17 1.66l-.79 1a2.71 2.71 0 01-.28.32 1.55 1.55 0 01.24-.35l.75-1a13.5 13.5 0 001.12-1.68c.2-.34.45-.69.67-1.1s.41-.85.64-1.31a23.58 23.58 0 001.22-17 23.35 23.35 0 00-6.24-10.14 23 23 0 00-5.42-3.91 22.63 22.63 0 00-6.69-2.29 23.56 23.56 0 00-27.61 26.19 25.61 25.61 0 001.54 5.87 26.22 26.22 0 002.86 5.11l.11.16-.12.15-6.56 7.38-.22-.39 11.9-2.25h.16a23.79 23.79 0 0013.43 4.4 11.54 11.54 0 001.56 0c.52 0 1 0 1.52-.11a26 26 0 002.81-.51l1.31-.33 1.22-.43a17.26 17.26 0 002.21-.92 24.91 24.91 0 005.82-3.92c.6-.55 1-1 1.32-1.3s.46-.4.46-.4z" fill="#263238"/><path d="M605.98 157.22l-4.01-1.33-4.02-1.33.86 4.14.85 4.14 2.19-1.94 9.4 10.56 1.95-1.73-9.4-10.57z" fill="#263238"/><path d="M586.51 435.78l-6.47-6.5 12.1-12.21 9.57 9.42-.7.8c-3.15 3.56-16.28 17.85-19.19 19.42-3.26 1.76 4.69-10.93 4.69-10.93z" fill="#407bff"/><path d="M597.23 430.82a6 6 0 01-1.06-4.14 5.78 5.78 0 011.94-3.73l3.42 3.38z" fill="#263238"/><path d="M582.81 442.16s-2.56 4.67-1.51 4.81 14.86-13.8 20.41-20.48l-.29-.25-16 16.4s-1.88-1.16-2.61-.48z" fill="#263238"/><path d="M601.6 426a2.12 2.12 0 01-.18.23c-.17.19-.36.4-.56.64l-2.11 2.31a306.677 306.677 0 01-14.5 14.67L582 446l-.64.57a1.35 1.35 0 01-.23.19l.2-.22.61-.6 2.25-2.17c1.89-1.84 4.49-4.39 7.33-7.26s5.35-5.49 7.17-7.41l2.15-2.27.59-.61a1.1 1.1 0 01.17-.22z" fill="#455a64"/><path d="M585.64 442.82a6.75 6.75 0 00-1.47-.63 7.82 7.82 0 00-1.6-.09 2.37 2.37 0 011.65-.12 2.3 2.3 0 011.42.84zM587.38 437.41a1.92 1.92 0 01-.85-.08 2 2 0 01-.8-.28c0-.06.39 0 .85.08s.82.22.8.28zM587.84 435.9c0 .06-.32.12-.71.15a1.49 1.49 0 01-.73-.06c0-.06.32-.13.71-.15s.73 0 .73.06zM587.31 434.13c0 .05-.21.37-.55.72s-.66.62-.7.58.2-.37.55-.72a2.16 2.16 0 01.7-.58zM586.71 433.12a1.75 1.75 0 01-.5.91 1.79 1.79 0 01-.83.64c0-.05.31-.35.67-.77s.6-.81.66-.78z" fill="#455a64"/><path d="M585.91 436.77a3.48 3.48 0 01-.78.78 6.46 6.46 0 01-1 .65 2.76 2.76 0 01-.67.28.6.6 0 01-.43 0 .45.45 0 01-.2-.43 2 2 0 012.19-1.37 2 2 0 01.77.27c.17.1.24.18.23.19a2.71 2.71 0 00-1-.31 2 2 0 00-1.1.24 1.74 1.74 0 00-.86 1c0 .21.16.31.38.25a3.06 3.06 0 00.56-.32 9.64 9.64 0 001-.6c.59-.4.88-.66.91-.63z" fill="#455a64"/><path d="M585.75 437s-.32-.06-.64-.45a1.82 1.82 0 01-.36-.78 1.1 1.1 0 01.25-1 .44.44 0 01.6.12 1.22 1.22 0 01.22.48 3.4 3.4 0 01.11.84 1.7 1.7 0 01-.13.76v-.76a3.74 3.74 0 00-.15-.79c-.06-.27-.28-.64-.51-.48a1 1 0 00-.18.85 1.76 1.76 0 00.29.72 3.66 3.66 0 00.5.49zM598 423s-.38.31-.86.93a5.37 5.37 0 00-.62 5.72c.34.71.68 1.08.65 1.1s-.11-.07-.25-.24a4.43 4.43 0 01-.53-.79 5.23 5.23 0 01.64-5.88 4.44 4.44 0 01.68-.66 1.22 1.22 0 01.29-.18zM591.68 419.21a29.22 29.22 0 012.61 2.38 28.37 28.37 0 012.47 2.53 31.21 31.21 0 01-2.61-2.38 29.91 29.91 0 01-2.47-2.53zM594.52 431.17a9.88 9.88 0 01-1.59 2 9.69 9.69 0 01-1.92 1.65s.8-.8 1.77-1.79 1.69-1.89 1.74-1.86z" fill="#455a64"/><path d="M596.88 428.78c.06 0 .11.23.21.49s.22.47.18.51-.26-.13-.38-.43-.06-.58-.01-.57zM596.65 426.76c.06 0 .11.21.11.46s0 .46-.1.46-.1-.2-.11-.46.05-.46.1-.46zM597.42 425s-.13.21-.25.45-.14.46-.2.47-.13-.27 0-.56.42-.44.45-.36zM598.09 423.81v.29c0 .14-.15.24-.2.21s0-.15 0-.29.11-.24.2-.21z" fill="#455a64"/><path d="M537 446.53l.22-9.17 17.18.3-.18 13.43-1.07.05c-4.74.17-24.15.57-27.3-.45-3.53-1.13 11.15-4.16 11.15-4.16z" fill="#407bff"/><path d="M548 450.84a6 6 0 012.26-3.63 5.77 5.77 0 014-1.17l-.08 4.8z" fill="#263238"/><path d="M529.81 448.26s-5.15 1.39-4.52 2.24 20.24 1.19 28.91.59v-.39l-22.89-.2s-.5-2.18-1.5-2.24z" fill="#263238"/><path d="M554.45 450.7h-1.15l-3.12.08c-2.64.05-6.29.07-10.32 0s-7.67-.2-10.31-.34l-3.12-.18-.85-.07h-.29a1.29 1.29 0 01.29 0h.85l3.13.11c2.63.1 6.28.22 10.31.29s7.67.06 10.31.05h4a1 1 0 01.27.06z" fill="#455a64"/><path d="M531.29 450.77a4.56 4.56 0 00-1.6-2.71 2.26 2.26 0 011.22 1.1 2.33 2.33 0 01.38 1.61zM536.4 448.29s-.28-.27-.53-.67-.4-.75-.35-.78.29.27.53.67.4.74.35.78zM537.81 447.57c0 .05-.31-.14-.6-.41s-.5-.53-.46-.57.31.14.6.42.5.52.46.56zM538.72 446a2.14 2.14 0 01-.9.09 2.2 2.2 0 01-.9-.1 1.86 1.86 0 01.9-.1 2 2 0 01.9.11zM539 444.83a1.75 1.75 0 01-1 .27 1.77 1.77 0 01-1-.15 5.7 5.7 0 011-.06 5 5 0 011-.06z" fill="#455a64"/><path d="M535.85 446.78a3.56 3.56 0 01-1.11 0 6.31 6.31 0 01-1.17-.28 3.16 3.16 0 01-.67-.29.6.6 0 01-.26-.35.4.4 0 01.17-.43 2 2 0 012.49.63 1.84 1.84 0 01.35.74.76.76 0 010 .3 3.36 3.36 0 00-.49-.95 2 2 0 00-.93-.63 1.73 1.73 0 00-1.32.07c-.18.13-.11.33.08.45a3.37 3.37 0 00.61.28 7.33 7.33 0 001.14.31c.69.1 1.11.11 1.11.15z" fill="#455a64"/><path d="M535.56 446.83a1.1 1.1 0 01-.11-.77 1.82 1.82 0 01.31-.81 1.11 1.11 0 01.93-.54.42.42 0 01.33.51 1.14 1.14 0 01-.19.49 2.89 2.89 0 01-.54.66 1.54 1.54 0 01-.64.44s.23-.2.54-.54a4.06 4.06 0 00.47-.65c.16-.24.27-.65 0-.71s-.56.24-.73.46a1.81 1.81 0 00-.33.71 4.68 4.68 0 00-.04.75zM554.18 446s-.49-.06-1.27 0a5.36 5.36 0 00-4.56 3.51c-.28.73-.31 1.23-.35 1.22a.89.89 0 010-.34 4.49 4.49 0 01.2-.93 5.22 5.22 0 014.69-3.61 5 5 0 01.94 0c.23.09.35.15.35.15z" fill="#455a64"/><path d="M552.52 438.8a29 29 0 01.09 3.54 29.69 29.69 0 01-.12 3.53 28.82 28.82 0 01-.09-3.53 29.94 29.94 0 01.12-3.54zM545.84 449.13a9.84 9.84 0 01-2.52.2 10.07 10.07 0 01-2.5-.24c0-.06 1.12 0 2.51 0s2.5-.02 2.51.04zM549.21 449.18s-.1.24-.22.49-.18.48-.24.48-.09-.27 0-.57.42-.44.46-.4zM550.5 447.62s-.07.22-.25.4-.36.29-.4.24.07-.21.25-.39.36-.29.4-.25zM552.33 446.93c0 .06-.24.05-.49.14s-.44.21-.49.17.11-.27.42-.37.58.01.56.06zM553.63 446.61c0 .06-.08.14-.22.2s-.28.05-.3 0 .08-.14.22-.19.28-.06.3-.01z" fill="#455a64"/><path d="M546.19 249.91c-6.37 18.81-17.85 52.88-17.85 52.88a29.25 29.25 0 01-4.76 2.28 12.84 12.84 0 01-3.5.35 1.09 1.09 0 00-1.07 1.77c.7.68 3.65 1.17 7 .17s.86 4.06-.24 5.74-4.2 7.16-4 7.91c.36 1.09 1.7.63 2.76-1.06s4.23-6.63 4.69-6.37c.91.5-4.57 9.25-4.57 9.25s-1.26 1.53-.3 2.28c1.75 1.35 7.11-8.05 7.6-9 .34-.63.79-.14.39.52s-5.08 8.36-3.67 9.24 4.73-6.79 6.07-8.22c1.53-1.61-3.06 6.42-1.73 7.38.49.36.91.56 3.22-4.09a136.58 136.58 0 005.18-13.94c4.9-9.82 18.93-40.16 23.57-60.81" fill="#e5baab"/><path d="M549.57 204s13.64-3.94 16.33 16.93c1.68 13.07 5.52 44.65 7 60.89.13 1.53-.83.93-.71 2.19.13 1.47 1.43 2.66 1.43 3.71 0 3.35-3.83 3.29-3.83 3.29l-35.64 1.7s-3.31.07-3.32-2.82c0-2.19 1.43-3.16 1.53-4.53 1.52-19.52 1.49-68.14 3.69-74.82 2.09-6.4 3.43-6.54 13.52-6.54z" fill="#407bff"/><path d="M552.27 205a7.85 7.85 0 01.83.88c.5.56 1.2 1.33 1.95 2.2s1.38 1.71 1.81 2.32a6.78 6.78 0 01.65 1 7 7 0 01-.77-.95c-.46-.59-1.1-1.4-1.85-2.27s-1.43-1.66-1.9-2.24a7.5 7.5 0 01-.72-.94z" fill="#263238"/><path d="M553.84 204.64a5.92 5.92 0 01-.57.26l-1.57.65c-1.34.54-3.2 1.24-5.28 2s-4 1.32-5.36 1.73l-1.64.47a5 5 0 01-.61.14 3.48 3.48 0 01.59-.22l1.62-.53c1.37-.44 3.26-1.06 5.33-1.78s3.94-1.4 5.29-1.9l1.6-.59a2.51 2.51 0 01.6-.23zM539 206a16.46 16.46 0 010 3.8 18.1 18.1 0 010-3.8z" fill="#263238"/><path d="M563.35 211.44c0 .06-6.05.1-13.53.1s-13.52 0-13.52-.1 6.05-.1 13.52-.1 13.53.04 13.53.1zM565.1 215.89a1.36 1.36 0 01-.3 0h-.88l-3.21-.12-10.6-.33-10.6-.2h-4.39a1.71 1.71 0 01.3 0h4.09c2.72 0 6.47 0 10.61.13s7.89.26 10.6.39l3.21.19.87.06zM565.52 219.82c0 .06-6.84.11-15.28.11s-15.29-.05-15.29-.11 6.84-.1 15.29-.1 15.28.05 15.28.1zM566.3 224.08c0 .06-7.09.11-15.84.11s-15.84-.05-15.84-.11 7.09-.1 15.84-.1 15.84.02 15.84.1zM567 228.76c0 .06-7.25.1-16.2.1s-16.2 0-16.2-.1 7.25-.1 16.2-.1 16.2.04 16.2.1zM567.47 233.44c0 .05-7.36.1-16.43.1s-16.42 0-16.42-.1 7.35-.11 16.42-.11 16.43.05 16.43.11zM568 238.45c0 .06-7.49.1-16.71.1s-16.71 0-16.71-.1 7.48-.11 16.71-.11 16.71.05 16.71.11zM568.6 242.79c0 .06-7.61.1-17 .1s-17 0-17-.1 7.6-.1 17-.1 17 .04 17 .1zM569.32 247.56c0 .06-7.77.1-17.35.1s-17.35 0-17.35-.1 7.76-.11 17.35-.11 17.35.05 17.35.11zM569.72 252.33s-7.86.1-17.55.1-17.55-.05-17.55-.1 7.86-.11 17.55-.11 17.55.05 17.55.11zM570.27 257.09c0 .06-8 .11-17.82.11s-17.83-.05-17.83-.11 8-.1 17.83-.1 17.82.01 17.82.1zM570.81 261.86c0 .06-8.1.11-18.09.11s-18.1-.05-18.1-.11 8.1-.1 18.1-.1 18.09.04 18.09.1zM571.34 266.63c0 .06-8.41.1-18.78.1s-18.78 0-18.78-.1 8.4-.1 18.78-.1 18.78.04 18.78.1zM571.85 271.4c0 .06-8.68.1-19.38.1s-19.39 0-19.39-.1 8.68-.11 19.39-.11 19.38.05 19.38.11zM572.34 276.17c0 .05-8.82.1-19.7.1s-19.71 0-19.71-.1 8.82-.11 19.71-.11 19.7.05 19.7.11zM572.81 280.93c0 .06-8.93.11-19.94.11s-19.94-.05-19.94-.11 8.93-.1 19.94-.1 19.94.05 19.94.1zM572.54 285.7c0 .06-9 0-20.09-.08s-20.1-.22-20.1-.28 9 0 20.1.08 20.09.22 20.09.28zM572.54 290.1c0 .06-9.32.19-20.82.31s-20.83.15-20.83.1 9.32-.2 20.82-.31 20.83-.2 20.83-.1z" fill="#e0e0e0"/><path d="M545.66 267.76a9.16 9.16 0 006.52-1.7 19.94 19.94 0 004.64-5.13 47.88 47.88 0 008.08-23.63 104.11 104.11 0 00-.08-12.92 105.42 105.42 0 01-6.28 24.41 62.12 62.12 0 01-10.88 18.06" fill="#407bff"/><path d="M545.66 267.76a9.16 9.16 0 006.52-1.7 19.94 19.94 0 004.64-5.13 47.88 47.88 0 008.08-23.63 104.11 104.11 0 00-.08-12.92 105.42 105.42 0 01-6.28 24.41 62.12 62.12 0 01-10.88 18.06" opacity=".2"/><path d="M568.14 272.09a36.49 36.49 0 01-3.55 3.36 47 47 0 01-4.27 3.18 47 47 0 01-11.74 5.57 47.81 47.81 0 01-5.16 1.29 37.35 37.35 0 01-4.86.62l.34-.06 1-.12c.84-.1 2-.29 3.53-.59a47.9 47.9 0 005.13-1.33 52.94 52.94 0 006-2.38 53.86 53.86 0 005.66-3.16 50.94 50.94 0 004.27-3.13c1.17-1 2.08-1.77 2.69-2.36l.71-.67zM558.36 249.53s-.08 0-.2-.05l-.57-.18-2.05-.71-6.71-2.5c-2.62-1-5-1.74-6.79-2.24l-2.09-.59-.57-.17-.19-.07h.2l.58.13c.5.11 1.22.29 2.11.52 1.77.48 4.19 1.23 6.82 2.2s5 1.9 6.69 2.55l2 .78.55.21z" fill="#263238"/><path d="M558.36 249.53s.08-.27.27-.77l.81-2.23c.69-1.93 1.69-4.73 2.65-8.28a116.29 116.29 0 002.33-12.67 16 16 0 00-.32-7.49 10.15 10.15 0 00-2-3.42 17.92 17.92 0 00-1.45-1.44 6 6 0 00-1.7-1.14 6.83 6.83 0 00-4-.42 9.54 9.54 0 00-3.66 1.51c-2.25 1.44-3.29 3.94-4.06 6.19-1.53 4.6-2.91 8.75-4.08 12.25l-2.76 8.25c-.32.93-.57 1.68-.76 2.24s-.28.77-.28.77l.24-.79.72-2.25c.66-2 1.58-4.81 2.7-8.27s2.52-7.65 4-12.26a19 19 0 011.48-3.43 8.54 8.54 0 012.65-2.87 9.6 9.6 0 013.74-1.54 7 7 0 014.12.42 6.27 6.27 0 011.75 1.18 14.57 14.57 0 011.47 1.47 10.26 10.26 0 012 3.48 16.09 16.09 0 01.32 7.59 113.68 113.68 0 01-2.38 12.68c-1 3.55-2 6.34-2.71 8.27s-1.09 2.97-1.09 2.97zM566.81 306.77l.79 58.14a64.69 64.69 0 001.25 11.94c1.07 5.37 3 12.36 6.08 16.7 4.71 6.58 21.31 25.2 21.31 25.2l-14 16.33s-29.63-23.6-31.54-45.39c-1-11.07 0-77.27 0-77.27z" fill="#263238"/><path d="M534.14 292.69l-.36 150.42h23.15L561 312.24s6.7-4.42 7.88-10.06c1.6-7.63.88-11.19.88-11.19z" fill="#263238"/><path d="M532.73 439.48h25.16v3.63h-25.16zM578.459 433.632l17.312-18.257 2.634 2.498-17.312 18.257z" fill="#455a64"/><path d="M594.8 416.71a1.45 1.45 0 01-.14.18l-.44.47-1.6 1.72c-1.35 1.46-3.18 3.51-5.29 5.7s-4 4-5.48 5.51l-1.68 1.65-.47.44a.9.9 0 01-.17.15.78.78 0 01.14-.18l.44-.47 1.63-1.69 5.44-5.56 5.33-5.65 1.65-1.68.47-.44a.9.9 0 01.17-.15z" fill="#263238"/><path d="M551.78 291.9s0 .13-.07.38a6.34 6.34 0 01-1.34 2.65 21 21 0 01-1.77 1.8 17.34 17.34 0 00-2.11 2.32c-.68 1-.62 2.29-.69 3.61-.09 2.7-.19 5.77-.31 9.15s-.24 7.11-.37 11.09-.23 8.25-.35 12.73c-.24 9-.58 18.82-.79 29.17-.35 20.69-.66 39.42-.89 53-.25 13.25-.39 20.55-.42 22v-1.53c0-1 0-2.49.05-4.37 0-3.82.13-9.3.23-16.06l.82-53c.21-10.35.56-20.21.8-29.17.14-4.49.26-8.75.38-12.73s.27-7.7.4-11.09.23-6.45.33-9.15c.08-1.32 0-2.67.73-3.66a17 17 0 012.14-2.33 22.62 22.62 0 001.77-1.78 6.63 6.63 0 001-1.54 7.18 7.18 0 00.38-1.07zM537.94 293.71s-.19-.14-.33-.39-.19-.47-.14-.49.2.15.33.39.2.46.14.49zM539.27 295.2s-.23-.08-.43-.27-.33-.39-.29-.43.24.09.43.28.32.38.29.42zM541 296.26c0 .05-.24 0-.49-.14s-.42-.28-.39-.33.25 0 .49.14.39.28.39.33zM542.88 296.8c0 .05-.23.05-.51 0s-.48-.15-.47-.2.25-.06.51 0 .48.14.47.2zM544.87 296.72c0 .06-.2.14-.48.17s-.51 0-.51-.05.22-.11.49-.15.49-.02.5.03zM546.75 296s-.16.19-.42.3-.48.17-.49.11.16-.19.41-.3.47-.11.5-.11zM548.35 294.85s-.1.22-.31.41-.42.29-.45.24.11-.22.31-.4.41-.29.45-.25zM549.56 293.26c.05 0 0 .24-.19.48s-.31.4-.36.36 0-.25.19-.48.31-.39.36-.36zM550.08 292s.07.11 0 .2-.1.16-.15.14-.08-.11-.05-.2.12-.14.2-.14zM543.93 300.64c-.06 0-.1-.23-.09-.5s.06-.5.12-.5.1.23.09.51-.05.49-.12.49zM543.86 302.64c-.06 0-.1-.23-.09-.5s.07-.5.12-.5.1.23.09.5-.06.5-.12.5zM543.79 304.64s-.09-.23-.08-.5.06-.5.12-.5.09.23.09.5-.07.5-.13.5zM543.73 306.64c-.06 0-.1-.23-.09-.5s.07-.5.12-.5.1.23.09.5-.06.5-.12.5zM543.67 308.64c-.06 0-.1-.23-.09-.51s.06-.49.12-.49.1.22.09.5-.06.5-.12.5zM543.61 310.64c-.06 0-.1-.23-.09-.51s.06-.49.12-.49.1.22.09.5-.06.5-.12.5zM543.55 312.64c-.06 0-.1-.23-.09-.5s.06-.5.12-.5.1.23.09.5-.06.5-.12.5zM543.49 314.64c-.06 0-.1-.23-.09-.5s.06-.5.12-.5.1.23.09.5-.06.5-.12.5zM543.43 316.64s-.09-.23-.09-.5.06-.5.12-.5.1.23.09.5-.06.5-.12.5zM543.38 318.64c-.06 0-.1-.23-.09-.5s.06-.5.12-.5.09.23.09.5-.07.5-.12.5zM543.32 320.64c-.05 0-.1-.22-.09-.5s.06-.5.12-.5.1.23.09.51-.06.5-.12.49zM543.27 322.65c-.06 0-.1-.23-.09-.51s.06-.5.12-.5.09.23.09.51-.06.5-.12.5zM543.22 324.65c-.06 0-.1-.23-.09-.5s.06-.5.11-.5.1.22.09.5-.05.5-.11.5zM543.17 326.65c-.06 0-.1-.23-.09-.5s0-.5.11-.5.1.23.09.5-.06.5-.11.5zM543.12 328.65c-.06 0-.1-.22-.1-.5s.06-.5.12-.5.1.23.09.51-.06.5-.11.49zM543.07 330.66c-.06 0-.1-.23-.09-.51s0-.5.11-.49.1.22.09.5-.05.5-.11.5zM543 332.66c-.06 0-.1-.23-.09-.5s.06-.5.11-.5.1.23.1.5-.04.5-.12.5zM543 334.67c-.05 0-.1-.23-.09-.51s.06-.5.12-.5.09.23.09.51-.12.5-.12.5zM542.93 336.67c-.06 0-.1-.23-.1-.5s.06-.5.12-.5.1.22.09.5-.04.5-.11.5zM542.88 338.67c-.06 0-.1-.22-.09-.5s.06-.5.11-.5.1.23.1.51-.06.5-.12.49zM542.84 340.68c-.06 0-.1-.23-.1-.5s.06-.5.12-.5.1.22.09.5-.06.5-.11.5zM542.79 342.68s-.1-.22-.09-.5.06-.5.11-.5.1.23.1.5-.06.5-.12.5zM542.75 344.69c-.06 0-.1-.23-.09-.51s.05-.5.11-.49.1.22.09.5-.05.5-.11.5zM542.71 346.69c-.06 0-.1-.22-.1-.5s.06-.5.12-.5.1.23.09.5-.06.5-.11.5zM542.67 348.7c-.06 0-.1-.23-.1-.5s.06-.51.12-.5.1.22.09.5-.06.5-.11.5zM542.62 350.7s-.09-.22-.09-.5.06-.5.12-.5.09.23.09.5-.06.51-.12.5zM542.58 352.71c-.05 0-.1-.23-.09-.5s.06-.5.11-.5.1.22.1.5-.06.5-.12.5zM542.54 354.72s-.1-.23-.09-.51.06-.5.11-.5.1.23.1.51-.06.5-.12.5zM542.5 356.72s-.09-.23-.09-.5.06-.5.11-.5.1.22.1.5-.06.5-.12.5zM542.47 358.73c-.06 0-.1-.23-.1-.51s.06-.5.12-.5.1.23.09.51-.06.5-.11.5zM542.43 360.73c-.06 0-.1-.22-.1-.5s.06-.5.12-.5.1.23.09.5-.06.5-.11.5zM542.39 362.74c-.06 0-.1-.23-.1-.5s.06-.5.12-.5.1.22.09.5-.05.5-.11.5zM542.35 364.75c-.06 0-.1-.23-.09-.51s0-.5.11-.5.1.23.09.51-.05.5-.11.5zM542.31 366.75s-.1-.22-.09-.5 0-.5.11-.5.1.22.1.5-.06.5-.12.5zM542.28 368.76c-.06 0-.1-.23-.1-.51s.06-.5.11-.5.1.23.1.51-.06.5-.11.5zM542.24 370.76c-.06 0-.1-.22-.1-.5s.06-.5.12-.5.1.23.09.5-.05.51-.11.5zM542.2 372.77c-.06 0-.1-.23-.09-.5s0-.5.11-.5.1.22.1.5-.06.5-.12.5zM542.17 374.78c-.06 0-.1-.23-.1-.51s.06-.5.11-.5.1.23.1.51-.06.5-.11.5zM542.13 376.78c-.06 0-.1-.22-.1-.5s.06-.5.12-.5.1.23.09.5-.05.5-.11.5zM542.09 378.79c-.06 0-.1-.23-.09-.5s0-.51.11-.5.1.22.1.5-.06.5-.12.5zM542.06 380.8c-.06 0-.1-.23-.1-.51s.06-.5.11-.5.1.23.1.51-.06.5-.11.5zM542 382.8c-.06 0-.1-.23-.1-.5s.06-.5.12-.5.1.22.09.5-.03.5-.11.5zM542 384.81c-.06 0-.1-.23-.09-.51s.05-.5.11-.5.1.23.1.51-.12.5-.12.5zM541.94 386.81c-.05 0-.1-.22-.09-.5s.06-.5.11-.5.1.23.1.5-.06.5-.12.5zM541.91 388.82c-.06 0-.1-.23-.1-.5s.06-.5.12-.5.1.22.09.5-.02.5-.11.5zM541.87 390.82c-.06 0-.1-.22-.09-.5s.05-.5.11-.5.1.23.09.51-.05.5-.11.49zM541.83 392.83c-.05 0-.1-.23-.09-.5s0-.5.11-.5.1.22.1.5-.06.5-.12.5zM541.8 394.84c-.06 0-.1-.23-.1-.51s.06-.5.11-.5.1.23.1.51-.06.5-.11.5zM541.76 396.84c-.06 0-.1-.22-.1-.5s.06-.5.12-.5.1.23.09.5-.06.5-.11.5zM541.72 398.85c-.06 0-.1-.23-.1-.51s.06-.5.12-.5.1.23.09.51-.05.5-.11.5zM541.68 400.85c-.06 0-.1-.22-.09-.5s0-.5.11-.5.1.23.09.5-.05.5-.11.5zM541.64 402.86c-.06 0-.1-.23-.09-.51s.05-.5.11-.5.1.23.09.51-.05.5-.11.5zM541.6 404.86c-.06 0-.1-.23-.09-.5s0-.5.11-.5.1.23.1.5-.06.5-.12.5zM541.56 406.87c-.06 0-.1-.23-.09-.51s0-.5.11-.5.1.23.09.51-.05.5-.11.5zM541.52 408.87c-.06 0-.1-.23-.09-.5s.05-.5.11-.5.1.22.09.5-.05.5-.11.5zM541.48 410.87c-.06 0-.1-.22-.1-.5s.06-.5.12-.5.1.23.09.51-.05.5-.11.49zM541.44 412.88c-.06 0-.1-.23-.1-.51s.06-.5.12-.49.1.22.09.5-.06.5-.11.5zM541.39 414.88s-.1-.23-.09-.5.06-.5.12-.5.09.23.09.5-.06.5-.12.5zM541.35 416.88c-.06 0-.1-.22-.09-.5s0-.5.11-.5.1.23.1.51-.06.5-.12.49zM541.31 418.89c-.06 0-.1-.23-.1-.51s.06-.5.12-.49.1.22.09.5-.06.5-.11.5zM541.26 420.89c-.06 0-.1-.23-.09-.5s.06-.5.11-.5.1.23.1.5-.06.5-.12.5zM541.22 422.89c-.06 0-.1-.22-.1-.5s.06-.5.12-.5.1.23.09.5-.06.5-.11.5zM541.17 424.89c-.06 0-.1-.22-.09-.5s0-.5.11-.5.1.23.09.51-.05.5-.11.49zM541.12 426.9c-.06 0-.1-.23-.09-.51s.06-.5.11-.49.1.22.1.5-.06.5-.12.5zM541.07 428.9c-.06 0-.1-.23-.09-.51s.06-.49.12-.49.09.22.09.5-.06.5-.12.5zM541 430.9c-.06 0-.1-.23-.09-.5s.06-.5.12-.5.1.22.09.5-.04.5-.12.5zM541 432.9c-.06 0-.1-.23-.09-.5s.06-.5.12-.5.1.23.09.5-.12.5-.12.5zM540.92 434.9c-.06 0-.1-.23-.09-.5s.06-.5.12-.5.09.23.09.5-.04.5-.12.5zM540.87 436.9c-.06 0-.1-.23-.09-.5s.06-.5.11-.5.1.23.09.5-.06.5-.11.5zM540.82 438.8c-.06 0-.1-.2-.1-.45s.06-.45.12-.45.1.2.09.45-.06.46-.11.45z" fill="#455a64"/><path d="M539.19 209.27c-.11-2-.66-10.86-.66-10.86s-6.26-.39-6.91-6.55-.91-20.44-.91-20.44a21.75 21.75 0 0121.86.62l1.56 1 .17 7.25-.36 6.52-.27 17.74-14.45 4.78s-.03-.04-.03-.06z" fill="#e5baab"/><path d="M531.67 181.32a.79.79 0 00.82.76.79.79 0 10-.82-.76z" fill="#263238"/><path d="M531.61 181.05c.11.1.67-.43 1.52-.51s1.5.3 1.59.18-.07-.24-.36-.42a2.14 2.14 0 00-1.29-.27 2 2 0 00-1.19.54c-.25.23-.32.43-.27.48zM541.37 180.29a.77.77 0 00-.15 1.1.8.8 0 001.11.16.79.79 0 10-1-1.26z" fill="#263238"/><path d="M541.05 180.63c.11.1.67-.42 1.52-.51s1.51.3 1.59.18-.07-.23-.36-.41a2 2 0 00-1.28-.28 2.07 2.07 0 00-1.2.54c-.25.23-.32.44-.27.48zM538.3 188a4.67 4.67 0 01-1.4.17.73.73 0 01-.79-.33 1.36 1.36 0 010-.92c.16-.63.31-1.2.47-1.8a24.92 24.92 0 011.49-4.55 25.68 25.68 0 01-1.05 4.67c-.17.59-.33 1.17-.51 1.79a1.15 1.15 0 00-.1.66c0 .13.22.16.44.16a4.77 4.77 0 011.45.15z" fill="#263238"/><path d="M541.15 188.64c.83-.61-2.32 1.53-4.06 1.6a2.35 2.35 0 002.86.68c1.78-.85 1.2-2.28 1.2-2.28z" fill="#fff"/><path d="M538.53 198.53a15.46 15.46 0 008.07-3.13s-1.66 4.62-7.87 4.64z" fill="#d78776"/><path d="M550.88 167.8a24.33 24.33 0 00-5.69-3.58 8.31 8.31 0 00-6.56-.1c-.93.44-1.75 1.11-2.72 1.49-2 .79-4.52.2-6.29 1.46a4.28 4.28 0 00-1 5.37 6.36 6.36 0 004.86 3.06 13 13 0 005.86-.85 5 5 0 013.4-.43c1 .41 1.76 1.55 2.87 1.65s2.11-.63 2.82 0a2 2 0 01.45 1.08c.38 2.13 1.63 6.43 2 8.55 1.4.61 2.06-1.27 3.58-1.3.24-4.7 2.27-9.43 1.08-14a4.79 4.79 0 00-1.79-2.9 2.38 2.38 0 00-3.14.35" fill="#263238"/><path d="M551.84 179.31c.11-.07 4.13-1.55 4.85 3.43s-4.55 4.06-4.58 3.92-.27-7.35-.27-7.35z" fill="#e5baab"/><path d="M553.39 184.69s.09.05.25.09a.83.83 0 00.65-.08 2.16 2.16 0 00.71-2.07 3 3 0 00-.42-1.21 1 1 0 00-.75-.57.46.46 0 00-.48.31v.26s-.12-.07-.11-.28a.6.6 0 01.15-.34.7.7 0 01.46-.2 1.25 1.25 0 011 .65 2.88 2.88 0 01.5 1.34 2.28 2.28 0 01-1 2.34 1 1 0 01-.82 0c-.12-.12-.16-.23-.14-.24z" fill="#d78776"/><path d="M549.82 164.47c.14 0 .44.75.67 1.76s.31 1.85.17 1.88-.45-.76-.68-1.76-.3-1.85-.16-1.88z" fill="#263238"/><path d="M552 164.71c.13 0-.09.86-.5 1.8s-.84 1.66-1 1.6.1-.87.5-1.81.88-1.65 1-1.59z" fill="#263238"/><path d="M539.93 243.27a11 11 0 01-1.77 3.93c-2.83 3.1-27.39-23.58-27.39-23.58a29.34 29.34 0 01-.19-5.21 12.93 12.93 0 011.06-3.3c.56-.91-.28-2-1.18-1.66s-2.5 2.84-2.9 6.26-4-.83-5.11-2.48-4.83-6.62-5.6-6.68c-1.14-.1-1.25 1.28-.13 2.91s4.33 6.43 3.92 6.74c-.82.62-6.58-7.77-6.58-7.77s-.89-1.74-1.95-1.16c-1.91 1 4.49 9.59 5.12 10.39.44.55-.19.77-.63.15s-5.57-7.89-6.92-7 4.29 7 5.05 8.73c.86 2-4.6-5.3-6-4.48-.52.31-.87.61 2.43 4.52a135.48 135.48 0 0010.6 10.14c7 8.29 31.09 35.87 42.37 34.32a8.34 8.34 0 006.2-3.87A87.27 87.27 0 00558 249.4z" fill="#e5baab"/><path d="M274.5 444.66l-.22-9.18-17.19.31.19 13.42 1.06.05c4.75.18 24.15.58 27.3-.44 3.52-1.13-11.14-4.16-11.14-4.16z" fill="#407bff"/><path d="M263.43 449a5.93 5.93 0 00-2.26-3.62 5.77 5.77 0 00-4-1.18l.09 4.8z" fill="#263238"/><path d="M281.67 446.39s5.14 1.39 4.52 2.24-20.25 1.19-28.91.58v-.38l22.89-.2s.5-2.18 1.5-2.24z" fill="#263238"/><path d="M257 448.82h4.27c2.64 0 6.28 0 10.31-.06s7.67-.18 10.31-.28l3.12-.11h.85a1.36 1.36 0 01.3 0h-.29l-.85.07-3.12.18c-2.64.14-6.29.28-10.32.34s-7.67 0-10.31 0l-3.13-.08h-.85z" fill="#455a64"/><path d="M280.19 448.9a2.33 2.33 0 01.38-1.61 2.36 2.36 0 011.22-1.11 7.59 7.59 0 00-1 1.22 6.81 6.81 0 00-.6 1.5zM275.07 446.41c-.05 0 .11-.37.36-.77s.48-.7.53-.67-.11.38-.36.77-.48.7-.53.67zM273.67 445.7s.16-.29.46-.57.56-.45.59-.41-.16.3-.45.57-.56.45-.6.41zM272.76 444.09a2.2 2.2 0 01.9-.1 2.14 2.14 0 01.9.09 1.94 1.94 0 01-.9.11 1.86 1.86 0 01-.9-.1zM272.44 443a5 5 0 011 .06 6.33 6.33 0 011 .05 1.66 1.66 0 01-1 .16 1.73 1.73 0 01-1-.27z" fill="#455a64"/><path d="M275.63 444.9s.42 0 1.08-.17a7 7 0 001.13-.31 3.46 3.46 0 00.62-.28c.19-.12.26-.33.08-.45a1.73 1.73 0 00-1.32-.07 2 2 0 00-.93.63 3.22 3.22 0 00-.49.95.63.63 0 010-.3 2.09 2.09 0 01.35-.74 2 2 0 012.5-.64.46.46 0 01.17.44.58.58 0 01-.27.35 3.09 3.09 0 01-.66.29 7.57 7.57 0 01-1.18.28 3 3 0 01-1.08.02z" fill="#455a64"/><path d="M275.92 445a4.57 4.57 0 000-.74 1.81 1.81 0 00-.33-.71c-.17-.22-.46-.49-.73-.46s-.17.47 0 .7a3.76 3.76 0 00.47.66c.31.34.55.51.53.54a1.76 1.76 0 01-.64-.44 3.17 3.17 0 01-.53-.66 1.29 1.29 0 01-.2-.49.44.44 0 01.34-.51 1.11 1.11 0 01.93.54 1.78 1.78 0 01.31.81 1.1 1.1 0 01-.15.76zM257.3 444.12s.11-.05.33-.09a5.15 5.15 0 01.95 0 5.31 5.31 0 012.9 1.08 5.24 5.24 0 011.79 2.53 4.56 4.56 0 01.2.92 1.33 1.33 0 010 .35s-.08-.49-.35-1.22a5.36 5.36 0 00-4.56-3.51 11.24 11.24 0 00-1.26-.06zM259 436.93a32.48 32.48 0 01.12 3.53A34.71 34.71 0 01259 444a29.69 29.69 0 01-.12-3.53 29 29 0 01.12-3.54zM265.64 447.26c0-.06 1.13 0 2.51 0s2.5-.09 2.51 0a10.11 10.11 0 01-2.51.24 10.28 10.28 0 01-2.51-.24z" fill="#455a64"/><path d="M262.27 447.31s.26.11.4.4.12.57.06.57-.12-.23-.24-.48-.26-.45-.22-.49zM261 445.75s.22.07.4.25.3.35.26.39-.22-.07-.4-.24-.33-.36-.26-.4zM259.15 445.06c0-.05.24-.16.55-.06s.47.34.42.37-.22-.09-.48-.17-.48-.08-.49-.14zM257.85 444.74c0-.05.15-.05.29 0s.25.14.23.19-.16.06-.3 0-.24-.13-.22-.19z" fill="#455a64"/><path d="M334.7 187.29s14.66-15.15 16-14.48-5.38 6.84-4.49 7.64 8 6.17-3.43 14.69z" fill="#e5baab"/><path d="M347.32 182.9a3 3 0 01-.23.44c-.23.38-.47.77-.71 1.18s-.71 1.12-1.08 1.72a2.43 2.43 0 01-.86.89 1.08 1.08 0 01-1.31-.19 1.15 1.15 0 01.08-1.32c.22-.37.44-.69.65-1 .39-.59.76-1.15 1.11-1.7l.77-1.14a2.48 2.48 0 01.3-.4 1.77 1.77 0 01-.23.45l-.71 1.17c-.35.55-.7 1.13-1.08 1.73l-.63 1a1 1 0 00-.1 1.09.89.89 0 001 .14 2.3 2.3 0 00.8-.81l1.11-1.7.77-1.14a2 2 0 01.35-.41z" fill="#d78776"/><path d="M348.07 184.56a1.56 1.56 0 01-.06.43 6.26 6.26 0 01-.37 1.13 6.56 6.56 0 01-.95 1.49 2.62 2.62 0 01-.81.69.91.91 0 01-1.14-.1 1.12 1.12 0 01-.15-1.16 3.79 3.79 0 01.55-.9c.37-.53.68-1 .94-1.46a11.45 11.45 0 01.65-1 2.21 2.21 0 01.28-.34 2.44 2.44 0 01-.21.38c-.2.34-.4.68-.59 1s-.54.95-.91 1.5a4.48 4.48 0 00-.52.86 1 1 0 00.11.95.73.73 0 00.9.06 2.59 2.59 0 00.76-.64 6.8 6.8 0 00.95-1.43 12.07 12.07 0 00.57-1.46z" fill="#d78776"/><path d="M339.23 184.16l5.37-.36a1 1 0 01.3 0c.28.1.33.49.26.79a3 3 0 01-1.87 2 8.83 8.83 0 01-2.76.47l-2.58.15" fill="#e5baab"/><path d="M338 187.19a3.61 3.61 0 01.58-.07l1.58-.13a18.26 18.26 0 002.32-.26 3.61 3.61 0 002.32-1.44c.25-.39.46-.93.24-1.27-.1-.17-.33-.12-.57-.11l-.68.05-2.34.13-1.59.08a2.39 2.39 0 01-.58 0 3.61 3.61 0 01.58-.07l1.58-.14 2.34-.19h.68a2.06 2.06 0 01.36 0 .51.51 0 01.39.19 1 1 0 01.09.8 2.88 2.88 0 01-.32.72 3.82 3.82 0 01-2.46 1.51 16.84 16.84 0 01-2.35.22l-1.58.06a2.51 2.51 0 01-.59-.08zM349 186s-.05.11-.13.32a7.83 7.83 0 00-.27.89 4.94 4.94 0 01-.5 1.31 2 2 0 01-.6.62.76.76 0 01-.48.11.65.65 0 01-.43-.29 1.06 1.06 0 01-.06-.93c.1-.28.23-.52.33-.77l.58-1.26a9.55 9.55 0 01.57-1.14 6.92 6.92 0 01-.44 1.2l-.53 1.28c-.18.47-.57 1-.27 1.51a.42.42 0 00.63.11 1.85 1.85 0 00.54-.54 5.18 5.18 0 00.52-1.26A2.78 2.78 0 01349 186z" fill="#d78776"/><path d="M342.17 191.49c-.06 0 .23-1 .3-2.29s-.07-2.29 0-2.3a6.11 6.11 0 01.21 2.32 5.86 5.86 0 01-.51 2.27z" fill="#d78776"/><path d="M272.44 182.24a11.43 11.43 0 005.44 9.71 24.34 24.34 0 012.7 1.61 3.38 3.38 0 011.45 2.65c-.07 1.63-1.73 2.67-3.18 3.41a4.05 4.05 0 11-5.83 5.61 7.47 7.47 0 01-5.48 6.61 10.41 10.41 0 01-8.71-1.78 17.59 17.59 0 01-5.54-7.2" fill="#263238"/><path d="M265 210.83c-.27-1.54.36-8 .36-8s5.93-.63 6.29-6.51 0-19.46 0-19.46l-10.8-5.28-11.89 9 1.8 29.41z" fill="#e5baab"/><path d="M270.49 186.71a.75.75 0 11-.75-.75.75.75 0 01.75.75zM271.22 185.89c-.09.1-.65-.37-1.46-.42s-1.42.35-1.51.24.06-.23.33-.41a2 2 0 011.21-.32 2 2 0 011.16.47c.24.21.32.4.27.44zM261.77 186.71a.76.76 0 11-.77-.71.76.76 0 01.77.71zM262.24 185.89c-.1.1-.66-.37-1.47-.42s-1.42.35-1.5.24.06-.23.32-.41a2 2 0 011.21-.32 2 2 0 011.16.47c.24.21.32.4.28.44zM265.16 192.69a5.91 5.91 0 011.32-.16c.2 0 .41 0 .46-.19a1 1 0 00-.11-.65l-.55-1.67c-.39-1.19-.72-2.27-.95-3.06a5.88 5.88 0 01-.3-1.29 6.14 6.14 0 01.51 1.22c.28.77.65 1.84 1 3 .18.58.35 1.13.53 1.68a1.25 1.25 0 01.07.84.67.67 0 01-.69.31 6.08 6.08 0 01-1.29-.03z" fill="#263238"/><path d="M262.48 193.51c-.82-.55 2.27 1.35 3.92 1.35a2.25 2.25 0 01-2.69.76c-1.71-.73-1.23-2.11-1.23-2.11z" fill="#fff"/><path d="M265.38 202.79a14.69 14.69 0 01-7.79-2.64s1.76 4.32 7.66 4.08z" fill="#d78776"/><path d="M269.2 172.5c-5.84-6.06-9.84-4.8-12.13-4.8a18.37 18.37 0 00-12.74 7.37c-1.63 1.7-4 7.21-4.22 9.15a46.32 46.32 0 000 5.89c0 2-.46 4.08-1.93 5.38-.93.83-2.24 1.31-2.8 2.42a3.12 3.12 0 001.29 3.77 7.06 7.06 0 004.2.86 6 6 0 004.8 6.32 5.77 5.77 0 004.22-1.11 33.89 33.89 0 003.13 2.7q.36-12.85-.54-25.69c3.93-.69 11-2.81 12.19-9.1 1.57 3.58 3.95 5.53 7.11 8.25.05-.01 3.22-5.35-2.58-11.41z" fill="#263238"/><path d="M253 182.48a9.35 9.35 0 012.41 0 12.49 12.49 0 005.58-.66 5.19 5.19 0 002.33-1.89 6.44 6.44 0 00.93-2.31c.28-1.43.14-2.36.23-2.36a4.73 4.73 0 01.14 2.42 6.42 6.42 0 01-.9 2.52 5.49 5.49 0 01-2.52 2.1 11.38 11.38 0 01-5.82.54 11.9 11.9 0 01-2.38-.36zM237.64 196.89a4.53 4.53 0 001-.14 2.6 2.6 0 001.6-1.91 6.44 6.44 0 00-.72-3.81 15 15 0 01-.83-2.29 7.79 7.79 0 01-.17-2.65 10.84 10.84 0 011.76-4.74 18.57 18.57 0 012.65-3.13c.84-.81 1.57-1.41 2.07-1.81a3.68 3.68 0 01.82-.59c.06.06-1 1-2.63 2.66a20 20 0 00-2.51 3.13 10.81 10.81 0 00-1.64 4.54 7.51 7.51 0 00.14 2.47 15.88 15.88 0 00.79 2.23 6.6 6.6 0 01.63 4.08 2.77 2.77 0 01-1.9 2 1.92 1.92 0 01-.77 0 .63.63 0 01-.29-.04zM280.38 188.48s.19.21.18.7a2.2 2.2 0 01-1 1.73 3 3 0 01-2.95 0 6.2 6.2 0 01-2.49-2.6 16 16 0 01-2.06-6.08 7.94 7.94 0 010-2.66c.09 0 .11 1 .4 2.61a18.15 18.15 0 002.15 5.87 6 6 0 002.26 2.43 2.67 2.67 0 002.54.08 2.08 2.08 0 001-1.43c.02-.39-.07-.64-.03-.65zM271.28 281s20 65.07 18.78 86.09-15.94 73.19-15.94 73.19z" fill="#263238"/><path d="M243 269.92c-.44-.12-9.24 12.8-9.53 23.91a30 30 0 00.12 3.26 41.39 41.39 0 002.77 11.33c7.44 18.77 15.1 41 15.23 46.1C251.94 370.15 255 442 255 442l21.6-1.53-.71-85.92-5.26-85.32z" fill="#263238"/><g fill="#455a64"><path d="M254.77 269.55c.13 0 .18 2.4.18 6.76s-.2 10.67.09 18.45c.08 1.95.15 4 .32 6.11s.33 4.33.56 6.6c.48 4.56 1.13 9.41 1.94 14.5s1.73 10.42 2.51 16 1.39 11.33 1.72 17.28.27 11.75.38 17.36.22 11 .37 16.17c.3 10.3.66 19.58 1 27.36l.68 18.45c.07 2.16.12 3.85.16 5s0 1.75 0 1.75c-.05-1.41-.4-9.92-1-25.21-.32-7.79-.7-17.06-1-27.37-.15-5.15-.28-10.56-.37-16.17s0-11.42-.39-17.35-.92-11.71-1.75-17.24-1.69-10.89-2.5-16-1.45-9.95-1.92-14.51c-.23-2.28-.42-4.48-.55-6.61s-.23-4.16-.31-6.11c-.27-7.8 0-14.11 0-18.47v-5a7.83 7.83 0 00-.12-1.75z"/><path d="M254.87 438.88h21.72v3.27h-21.72zM256.24 270.21c-.06 0-.11-.22-.12-.5s0-.5.09-.5.11.22.12.5-.04.5-.09.5zM256.29 272.21c-.05 0-.11-.22-.11-.5s0-.5.09-.5.11.22.11.5-.03.5-.09.5zM256.35 274.21c-.05 0-.11-.22-.12-.5s0-.5.09-.5.11.22.12.5-.03.5-.09.5zM256.41 276.21c-.06 0-.11-.22-.12-.5s0-.5.09-.5.11.22.12.5-.03.5-.09.5zM256.47 278.21c-.06 0-.11-.22-.12-.5s0-.5.09-.5.11.22.12.5-.03.5-.09.5zM256.53 280.21c-.06 0-.11-.22-.12-.5s0-.5.09-.5.11.22.12.49-.03.51-.09.51zM256.59 282.21c-.06 0-.11-.22-.12-.5s0-.5.09-.5.11.22.12.49-.04.5-.09.51zM256.65 284.21c-.06 0-.12-.23-.12-.5s0-.5.09-.5.11.22.12.49-.04.5-.09.51zM256.7 286.2c-.05 0-.11-.22-.11-.49s0-.5.08-.51.12.23.12.5-.03.5-.09.5zM256.76 288.2c-.06 0-.11-.22-.12-.49s0-.5.09-.51.11.22.12.5-.03.5-.09.5zM256.82 290.2c-.06 0-.11-.22-.12-.49s0-.51.09-.51.11.22.12.5-.03.5-.09.5zM256.83 292.21c-.06 0-.1-.23-.11-.5s0-.5.11-.51.1.23.1.51-.04.5-.1.5zM256.86 294.21c-.06 0-.11-.22-.11-.5s0-.5.09-.5.11.22.11.5-.03.5-.09.5zM256.9 296.21s-.11-.22-.11-.49 0-.51.09-.51.11.22.11.5.01.5-.09.5zM257 298.22c-.06 0-.11-.22-.12-.5s0-.5.08-.51.12.23.13.5-.09.5-.09.51zM257.05 300.22c-.05 0-.11-.22-.12-.5s0-.5.08-.5.11.22.13.49-.03.5-.09.51zM257.16 302.22c-.06 0-.11-.22-.13-.5s0-.5.08-.5.11.21.13.49-.02.5-.08.51zM257.29 304.21c-.06 0-.12-.21-.14-.49s0-.5.07-.51.12.22.14.5-.01.5-.07.5zM257.44 306.21c-.06 0-.12-.22-.14-.49s0-.5.06-.51.12.22.15.49-.01.5-.07.51zM257.62 308.2c-.06 0-.13-.21-.15-.49s0-.5.06-.5.12.21.14.49 0 .5-.05.5zM257.81 310.19c-.06 0-.12-.21-.15-.48s0-.51 0-.51.13.21.15.49.06.5 0 .5zM258 312.18c-.06 0-.13-.21-.16-.48s0-.51.05-.51.13.21.16.48.04.51-.05.51zM258.27 314.17c-.06 0-.13-.21-.17-.49s0-.5 0-.51.13.21.16.49.07.5.01.51zM258.53 316.15c-.06 0-.13-.21-.17-.48s0-.51 0-.51.13.2.17.48.06.5 0 .51zM258.81 318.12c-.06 0-.14-.21-.18-.48s0-.5 0-.51.13.21.17.48.06.5.01.51zM259.1 320.09c-.05 0-.13-.2-.18-.48s0-.5 0-.5.14.2.18.47.06.5 0 .51zM259.41 322.07c-.05 0-.14-.21-.18-.48s0-.5 0-.51.13.21.18.48.06.5 0 .51zM259.73 324c-.05 0-.14-.2-.18-.48s0-.5 0-.51.14.21.19.48.05.51-.01.51zM260.06 326c-.05 0-.14-.21-.18-.48s0-.5 0-.51.14.21.18.48.06.51 0 .51zM260.4 328c-.06 0-.14-.21-.19-.48s0-.5 0-.51.14.2.19.48.05.51 0 .51zM260.73 329.94c-.06 0-.14-.2-.18-.47s0-.5 0-.51.14.2.19.47.05.5-.01.51zM261.06 331.91c-.05 0-.14-.21-.18-.48s0-.5 0-.51.14.21.18.48.06.5 0 .51zM261.39 333.87c-.06 0-.14-.2-.19-.47s0-.5 0-.51.14.2.18.48.06.49.01.5zM261.7 335.84c-.06 0-.14-.2-.18-.47s0-.5 0-.51.13.2.18.47.06.5 0 .51zM262 337.81c-.05 0-.13-.2-.17-.47s0-.5 0-.51.14.2.18.47.05.5-.01.51zM262.29 339.79c-.06 0-.14-.21-.18-.48s0-.5 0-.51.13.21.17.48.06.5.01.51zM262.55 341.76c-.05 0-.13-.2-.16-.48s0-.5 0-.51.14.21.17.48.05.51-.01.51zM262.8 343.74c-.06 0-.13-.21-.16-.48s0-.5 0-.51.13.21.16.49.06.5 0 .5zM263 345.73c-.06 0-.13-.21-.16-.49s0-.5.05-.51.12.21.15.49.04.5-.04.51zM263.23 347.71c-.06 0-.13-.21-.15-.48s0-.5.05-.51.13.21.15.49.01.5-.05.5zM263.41 349.7c-.06 0-.12-.21-.15-.49s0-.5.06-.5.13.21.15.49 0 .5-.06.5zM263.57 351.7c-.06 0-.12-.22-.14-.5s0-.5.06-.5.12.21.14.49-.01.5-.06.51zM263.7 353.69c-.06 0-.12-.22-.13-.49s0-.5.07-.51.12.22.13.49-.01.51-.07.51zM263.81 355.68c-.05 0-.11-.22-.13-.49s0-.5.08-.51.12.22.13.49-.02.5-.08.51zM263.9 357.67s-.11-.22-.12-.49 0-.5.08-.51.12.22.13.5.01.5-.09.5zM264 359.67c-.05 0-.11-.22-.12-.5s0-.5.09-.5.11.22.12.49-.09.5-.09.51zM264 361.66s-.11-.22-.11-.49 0-.5.09-.51.11.23.12.5-.02.5-.1.5zM264.05 363.66c-.05 0-.1-.22-.11-.5s0-.5.1-.5.11.23.11.5-.04.5-.1.5zM264.07 365.67c-.06 0-.11-.23-.11-.5s0-.5.1-.5.11.22.11.5-.04.5-.1.5zM264.09 367.67c-.06 0-.11-.23-.11-.5s0-.5.1-.5.1.22.1.49-.04.51-.09.51zM264.11 369.67c-.06 0-.11-.23-.11-.5s0-.5.1-.5.1.22.11.49-.05.5-.1.51zM264.13 371.67c-.05 0-.1-.23-.11-.5s0-.5.1-.5.11.22.11.49-.04.5-.1.51zM264.17 373.67c-.06 0-.11-.23-.12-.5s0-.5.1-.5.11.22.11.49-.04.5-.09.51zM264.2 375.66c-.06 0-.11-.22-.11-.49s0-.5.09-.51.11.23.12.5-.04.5-.1.5zM264.24 377.66c-.06 0-.11-.22-.11-.49s0-.5.09-.51.11.23.11.5-.03.5-.09.5zM264.28 379.66s-.1-.22-.11-.49 0-.5.09-.51.11.23.12.5-.04.5-.1.5zM264.33 381.66c-.06 0-.11-.22-.11-.49s0-.51.09-.51.11.22.11.5-.03.5-.09.5zM264.38 383.66c-.06 0-.11-.22-.12-.49s0-.51.1-.51.11.22.11.5-.03.5-.09.5zM264.44 385.66c-.06 0-.11-.22-.12-.5s0-.5.09-.5.11.22.12.5-.04.5-.09.5zM264.49 387.66c-.06 0-.11-.22-.12-.5s0-.5.09-.5.11.22.12.5-.03.5-.09.5zM264.55 389.66c-.06 0-.11-.22-.12-.5s0-.5.09-.5.11.22.12.5-.03.5-.09.5zM264.61 391.66c-.05 0-.11-.22-.12-.5s0-.5.09-.5.11.22.12.5-.03.5-.09.5zM264.68 393.66c-.06 0-.11-.22-.12-.5s0-.5.09-.5.11.22.12.5-.03.5-.09.5zM264.75 395.66c-.06 0-.12-.22-.13-.5s0-.5.09-.5.11.22.12.49-.03.51-.08.51zM264.81 397.66c-.05 0-.11-.22-.12-.5s0-.5.09-.5.11.22.12.49-.03.5-.09.51zM264.89 399.65c-.06 0-.12-.22-.13-.49s0-.5.09-.5.11.22.12.49-.03.5-.08.5zM265 401.65c-.06 0-.11-.22-.12-.49s0-.5.08-.51.11.22.12.5-.08.5-.08.5zM265 403.65c-.06 0-.11-.22-.12-.49s0-.51.08-.51.12.22.13.5 0 .5-.09.5zM265.11 405.65c-.06 0-.12-.22-.13-.5s0-.5.09-.5.11.22.12.5-.03.5-.08.5zM265.18 407.65c-.05 0-.11-.22-.12-.5s0-.5.09-.5.11.22.12.5-.03.5-.09.5zM265.26 409.65c-.06 0-.11-.22-.12-.5s0-.5.08-.5.12.22.13.49-.03.51-.09.51zM265.34 411.65c-.06 0-.11-.22-.12-.5s0-.5.08-.5.11.22.12.49-.02.5-.08.51zM265.42 413.64c-.06 0-.11-.21-.12-.49s0-.5.08-.5.11.21.12.49-.02.5-.08.5zM265.5 415.64c-.06 0-.11-.22-.13-.49s0-.5.09-.51.11.22.12.5-.02.5-.08.5zM265.58 417.64c-.06 0-.12-.22-.13-.49s0-.51.09-.51.11.22.12.5-.02.5-.08.5zM265.66 419.64c-.06 0-.12-.22-.13-.5s0-.5.09-.5.11.22.12.5-.03.5-.08.5zM265.74 421.64c-.06 0-.12-.22-.13-.5s0-.5.09-.5.11.22.12.49-.03.51-.08.51zM265.82 423.64c-.06 0-.12-.22-.13-.5s0-.5.09-.5.11.22.12.49-.03.5-.08.51zM265.89 425.64c-.05 0-.11-.22-.12-.5s0-.5.08-.5.12.22.13.49.02.5-.09.51zM266 427.63c-.06 0-.11-.22-.12-.49s0-.5.08-.51.12.22.13.5-.09.5-.09.5zM266.05 429.63c-.06 0-.12-.22-.13-.49s0-.5.09-.51.11.22.12.5-.03.5-.08.5zM266.12 431.63c-.06 0-.11-.22-.12-.49s0-.51.08-.51.12.22.13.5-.03.5-.09.5zM266.2 433.63c-.06 0-.12-.22-.13-.5s0-.5.09-.5.11.22.12.5-.03.5-.08.5zM266.27 435.63c-.06 0-.12-.22-.13-.5s0-.5.09-.5.11.22.12.5-.03.5-.08.5zM266.34 437.64c-.06 0-.12-.23-.12-.5s0-.51.08-.51.11.22.12.5-.03.5-.08.51z"/><path d="M266.4 439.64s-.11-.22-.12-.5 0-.5.09-.5.11.22.12.49-.03.51-.09.51zM266.45 441.09c-.06 0-.11-.1-.11-.22s0-.23.1-.23.1.1.11.22-.04.23-.1.23zM272.16 292.08a1.06 1.06 0 01-.92.05 1.8 1.8 0 01-.88-.67 3.22 3.22 0 01-.47-1.39c-.17-2.14-.32-5.09-.5-8.36s-.31-6.08-.43-8.36l-.1-2.54v-.69a.93.93 0 010-.24.75.75 0 010 .24c0 .22 0 .44.06.69.05.72.11 1.56.17 2.53.13 2.28.3 5.17.49 8.36s.32 6.07.44 8.35a2.94 2.94 0 00.42 1.34 1.7 1.7 0 00.81.66 1.4 1.4 0 00.91.03zM236.19 307.44a3.3 3.3 0 00.79-.23 3.19 3.19 0 001.47-1.63 7.73 7.73 0 00.35-3.3 33.36 33.36 0 00-.41-4.12 35.23 35.23 0 00-1.92-7.1l.08.05-2.35.39-.65.09h-.22a.66.66 0 01.22-.06l.63-.14 2.35-.45h.06v.06a32.7 32.7 0 012 7.12 33.55 33.55 0 01.4 4.14 7.73 7.73 0 01-.42 3.37 3.13 3.13 0 01-1.57 1.64 1.67 1.67 0 01-.81.17z"/><path d="M237.3 294.06a8.86 8.86 0 01-1.9.54 9.85 9.85 0 01-2 .33 9.08 9.08 0 011.91-.54 10.92 10.92 0 011.99-.33zM345.61 195.55l-11.2-9.17c-30.44 27.46-69.69 24.34-69.69 24.34v.07c-1.76-.29-11-1.77-14.06-1.83-2.39 0-7.92-.48-11.83 3.21a3.83 3.83 0 00-.29.28c-3.54 3.46-39 38.38-35.22 47 4 9.11 37.64 28.89 37.64 28.89l8.16-14.82s-2.54-1.66-6-4l27.5-.71 1.21-20.59s4.7-5.25 4.7-9c0-2.62-1.45-7-3.31-11.44 43.36-3.6 72.39-32.23 72.39-32.23zm-121.88 59c.32-1.08 7.37-8.79 13.73-15.59 2.2 13.45 5.19 28.95 5.48 30.48-7.65-5.19-19.62-13.55-19.21-14.9z"/></g><path d="M274.9 243.76a9.93 9.93 0 01-1 0 10.69 10.69 0 01-2.89-.35 5.34 5.34 0 01-3.53-2.82 3.24 3.24 0 010-2.85 2.88 2.88 0 012.65-1.7 3 3 0 012.52 2.35 4.43 4.43 0 01-1 3.69 8.74 8.74 0 01-7.64 3.14 9 9 0 01-4.36-1.48 6.87 6.87 0 01-2.88-3.82 3.9 3.9 0 01.14-2.5 3.39 3.39 0 011.86-1.75 2.49 2.49 0 012.54.32 2.76 2.76 0 01.9 2.45 5.55 5.55 0 01-.87 2.47 8.28 8.28 0 01-1.78 1.86 9.73 9.73 0 01-4.6 1.89 9.17 9.17 0 01-8.53-3.14 4.85 4.85 0 01-.94-2.05 3.64 3.64 0 01.27-2.19 2.68 2.68 0 011.58-1.43 2.9 2.9 0 012.07.18 3.62 3.62 0 012.13 3.12 4.68 4.68 0 01-1.37 3.26 7.17 7.17 0 01-5.59 2.14 8.72 8.72 0 01-4.36-1.4 7.52 7.52 0 01-2.1-2 5.9 5.9 0 01-.52-.87s.17.3.57.83a7.62 7.62 0 002.12 1.94 8.65 8.65 0 004.3 1.33 7 7 0 005.41-2.08 4.47 4.47 0 001.29-3.11 3.36 3.36 0 00-2-2.88 2.61 2.61 0 00-1.88-.17 2.4 2.4 0 00-1.41 1.3 3.39 3.39 0 00-.25 2 4.64 4.64 0 00.9 1.92 8.88 8.88 0 008.26 3 9.32 9.32 0 004.45-1.83 7.77 7.77 0 001.7-1.78 5.23 5.23 0 00.83-2.33 2.45 2.45 0 00-.79-2.18 2.16 2.16 0 00-2.23-.27 3.12 3.12 0 00-1.69 1.58 3.65 3.65 0 00-.12 2.31 6.53 6.53 0 002.75 3.64 8.86 8.86 0 004.22 1.45 8.5 8.5 0 007.41-3 4.19 4.19 0 00.95-3.47 2.74 2.74 0 00-2.31-2.19 2.68 2.68 0 00-2.46 1.57 3.06 3.06 0 000 2.69 5.22 5.22 0 003.4 2.77 11.43 11.43 0 002.86.41h1zM271 262.75l-.5.34c-.33.21-.81.53-1.45.92a12.14 12.14 0 01-2.45 1.21 8.21 8.21 0 01-3.6.32 6.81 6.81 0 01-4.06-1.62 3.74 3.74 0 01-1.13-2.21 2.61 2.61 0 011-2.39 2.35 2.35 0 011.31-.5 2 2 0 011.37.48 2.83 2.83 0 01.85 2.72 4.61 4.61 0 01-1.64 2.49 9.5 9.5 0 01-2.64 1.53 10.22 10.22 0 01-5.95.37 7.38 7.38 0 01-4.62-3 2.83 2.83 0 01-.25-2.6 2.59 2.59 0 012-1.45 1.56 1.56 0 011.18.34 1.87 1.87 0 01.62 1 2.57 2.57 0 01-.42 2.09 6.22 6.22 0 01-3 2.06 7.64 7.64 0 01-2.7.41 6.69 6.69 0 01-1.71-.26 4.2 4.2 0 01-.57-.2 9.19 9.19 0 002.28.34 7.45 7.45 0 002.64-.46 6 6 0 002.84-2 2.31 2.31 0 00.38-1.9 1.43 1.43 0 00-1.54-1.13 2.33 2.33 0 00-1.77 1.31 2.56 2.56 0 00.25 2.34 7.06 7.06 0 004.45 2.86 9.91 9.91 0 005.76-.36 9.25 9.25 0 002.55-1.48A4.31 4.31 0 00262 262a2.55 2.55 0 00-.75-2.44 1.8 1.8 0 00-2.31 0 2.31 2.31 0 00-.91 2.14 3.51 3.51 0 001 2.05 6.56 6.56 0 003.9 1.58 8 8 0 003.52-.27 12.56 12.56 0 002.45-1.14l1.48-.87c.41-.21.62-.3.62-.3zM286 209.41a4.11 4.11 0 011.11.77 5.3 5.3 0 011.65 3.26 5.58 5.58 0 01-.31 2.54 5.78 5.78 0 01-1.74 2.38 6.22 6.22 0 01-3 1.31 5.35 5.35 0 01-1.74 0 2.44 2.44 0 01-1.6-.88 1.2 1.2 0 01-.17-1 1.55 1.55 0 01.56-.78 2.85 2.85 0 011.7-.49 4.11 4.11 0 013 1.32 4.37 4.37 0 011.15 2.7 5.28 5.28 0 01-.44 2.53 6.16 6.16 0 01-2.46 2.72 6.43 6.43 0 01-.89.46 1.57 1.57 0 01-.34.11s.45-.2 1.16-.67A6.33 6.33 0 00286 223a5.09 5.09 0 00.38-2.41 4.1 4.1 0 00-1.1-2.54 3.86 3.86 0 00-2.75-1.21 2.57 2.57 0 00-1.51.44 1 1 0 00-.32 1.32 2.12 2.12 0 001.39.76 5.37 5.37 0 001.65 0 6.08 6.08 0 002.84-1.23 5.26 5.26 0 00.49-7.88 13.1 13.1 0 00-1.07-.84zM300.65 205.85a1.82 1.82 0 01.49.61 1.62 1.62 0 01.16.92 3.3 3.3 0 01-.4 1.15 11 11 0 01-1.83 2.55 19.45 19.45 0 00-2.46 2.86 10.9 10.9 0 00-1.64 6.52 16.61 16.61 0 00.52 2.8 3.33 3.33 0 01-.31-.72 10 10 0 01-.43-2.06 10.63 10.63 0 011.6-6.7 17.82 17.82 0 012.51-2.9 11.34 11.34 0 001.84-2.45 3.16 3.16 0 00.43-1.08 1.59 1.59 0 00-.1-.84c-.21-.44-.41-.64-.38-.66zM311.68 217.66a3.26 3.26 0 01-1.49.31 4.35 4.35 0 01-3.6-1.91 6.5 6.5 0 01-.2-6 7.18 7.18 0 012.21-2.93 4.36 4.36 0 013.83-.79 3 3 0 012.23 3.08 2.36 2.36 0 01-.84 1.73 2.72 2.72 0 01-1.72.63 4.27 4.27 0 01-3.09-1.19 5.58 5.58 0 01-1.5-2.47 6 6 0 01.25-4.12 4.09 4.09 0 01.86-1.27 8.73 8.73 0 00-.74 1.32 5.93 5.93 0 00-.16 4 5.41 5.41 0 001.47 2.35 4 4 0 002.89 1.1 2.51 2.51 0 001.55-.57 2.08 2.08 0 00.72-1.52 2.74 2.74 0 00-2-2.77 4.07 4.07 0 00-3.55.73 6.93 6.93 0 00-2.13 2.8 6.28 6.28 0 00.12 5.8 4.25 4.25 0 003.41 1.91 5.75 5.75 0 001.48-.22zM319.59 197.45a2.52 2.52 0 01.61.25 8 8 0 011.5 1 7.52 7.52 0 011.72 2.05 10.24 10.24 0 011.13 3.08 9.78 9.78 0 01-.66 5.85 9.3 9.3 0 01-.9 1.56 2.87 2.87 0 01-.43.5 21 21 0 001.12-2.15 10 10 0 00.57-5.7 10.64 10.64 0 00-1.08-3 8.23 8.23 0 00-1.61-2 19 19 0 00-1.97-1.44zM336 203.49a4 4 0 01-1.27.3 4.58 4.58 0 01-1.54-.14 3.79 3.79 0 01-1.73-1.1 6.15 6.15 0 01-1.53-5 3.88 3.88 0 011.62-2.69 3 3 0 011.62-.54 2.46 2.46 0 011.67.57 2.36 2.36 0 01.88 1.53 2.18 2.18 0 01-.5 1.64 3.27 3.27 0 01-2.93 1.07 5.89 5.89 0 01-4.41-2.75 3.24 3.24 0 01-.59-2 4.43 4.43 0 01.41-1.49c.17-.39.32-.68.42-.88a1.6 1.6 0 01.17-.29 1.69 1.69 0 01-.11.32c-.11.26-.23.56-.36.89a4.33 4.33 0 00-.36 1.45 3.12 3.12 0 00.6 1.84 5.79 5.79 0 004.25 2.59 3 3 0 002.67-1 1.91 1.91 0 00.44-1.41 2.12 2.12 0 00-.78-1.33 2.42 2.42 0 00-2.92 0 3.58 3.58 0 00-1.5 2.48 5.93 5.93 0 001.4 4.79 3.78 3.78 0 003.1 1.27 11.75 11.75 0 001.28-.12zM271.11 253a4.49 4.49 0 01-.93.83 8.91 8.91 0 01-3.11 1.4 15.62 15.62 0 01-5.05.29 42.42 42.42 0 01-6.06-1.21 31.06 31.06 0 00-6-1 12.65 12.65 0 00-4.96.69 8.88 8.88 0 00-2.89 1.68c-.58.54-.84.91-.87.89a4.92 4.92 0 01.79-1 8.42 8.42 0 012.89-1.81 12.8 12.8 0 015-.77 30.47 30.47 0 016.1 1 44.34 44.34 0 006 1.22 15.55 15.55 0 005-.22 9.77 9.77 0 004.09-1.99zM228.76 222.4a2.45 2.45 0 011.87-.36 5 5 0 012.05 1c.73.51 1.45 1.19 2.33 1.87s1.69 1.6 2.7 2.39a8.64 8.64 0 003.69 1.64 16.88 16.88 0 009.2-1.32c3.11-1.25 6-2.76 8.83-3.52a14.58 14.58 0 014.13-.6 11.88 11.88 0 013.58.65 8 8 0 014.18 3.07 3.61 3.61 0 01.41.72 2.66 2.66 0 01.23.56 3 3 0 01.14.48 10.21 10.21 0 00-.88-1.69 8.06 8.06 0 00-4.15-2.94 12.27 12.27 0 00-3.51-.59 14.8 14.8 0 00-4.05.61c-2.81.77-5.66 2.28-8.8 3.54a17 17 0 01-9.36 1.31 8.84 8.84 0 01-3.8-1.72c-1-.82-1.85-1.71-2.68-2.43s-1.6-1.38-2.29-1.89a5 5 0 00-2-1 3.09 3.09 0 00-1.82.22zM274.2 210.7a4.63 4.63 0 01.15.81 7.29 7.29 0 01-.15 2.35 8.07 8.07 0 01-1.66 3.32 7.1 7.1 0 01-4.22 2.45 8 8 0 01-5.76-1.27 6.19 6.19 0 01-2.22-2.52 1.76 1.76 0 01.19-1.78 2.3 2.3 0 011.64-.84 2.24 2.24 0 011.8.59 2.86 2.86 0 01.77 1.77 4 4 0 01-1.63 3.48 10.15 10.15 0 01-3.67 1.68 12.29 12.29 0 01-4.11.52 6.9 6.9 0 01-3.89-1.45 4.63 4.63 0 01-1.81-3.56 3.65 3.65 0 011.82-3.36 3.32 3.32 0 013.64.4 3 3 0 01.57 3.41 4.62 4.62 0 01-2.39 2.34 10.84 10.84 0 01-5.9.76 12.61 12.61 0 01-7.54-4 11 11 0 01-1.38-1.89c-.26-.48-.38-.73-.38-.73a15.28 15.28 0 001.85 2.54 12.64 12.64 0 007.48 3.82 10.69 10.69 0 005.76-.77 4.41 4.41 0 002.25-2.21 2.74 2.74 0 00-.52-3.1 3 3 0 00-3.3-.34 3.31 3.31 0 00-1.65 3.08 4.3 4.3 0 001.7 3.33 6.58 6.58 0 003.71 1.38 12 12 0 004-.51 10 10 0 003.56-1.62 3.75 3.75 0 001.52-3.21 2.48 2.48 0 00-.68-1.59 1.94 1.94 0 00-1.56-.52 2.11 2.11 0 00-1.45.73 1.51 1.51 0 00-.15 1.51 6 6 0 002.1 2.4 7.75 7.75 0 005.58 1.27 6.9 6.9 0 004.13-2.34 8.17 8.17 0 001.67-3.24 7.88 7.88 0 00.13-3.09zM223.17 228.18a2.16 2.16 0 01.4-.16c.26-.1.66-.23 1.17-.37a7 7 0 014.48.18 6.7 6.7 0 012.58 1.8 5.34 5.34 0 011.36 3.32 4.91 4.91 0 01-5.53 5 3.56 3.56 0 01-2-.9 2.12 2.12 0 01-.65-2 3.07 3.07 0 011.21-1.68 4.8 4.8 0 011.8-.82 6.94 6.94 0 016.34 1.6 7 7 0 012.11 4 5.17 5.17 0 010 1.66 11.44 11.44 0 00-.14-1.64 7 7 0 00-2.13-3.82 6.75 6.75 0 00-6.13-1.48 4.64 4.64 0 00-1.69.78 2.75 2.75 0 00-1.09 1.51 1.8 1.8 0 00.56 1.75 3.27 3.27 0 001.85.82 4.62 4.62 0 005.2-4.67 5 5 0 00-1.27-3.16 6.36 6.36 0 00-2.46-1.76 6.91 6.91 0 00-4.37-.27c-.52.12-.91.23-1.18.31a2.75 2.75 0 01-.42 0zM227.46 249.87a1.67 1.67 0 00.09-.86 5.37 5.37 0 00-1-2.19 3.25 3.25 0 00-3.11-1.24c-1.34 0-2.79.65-4.43.52a5.35 5.35 0 01-5.1-5.52 4.16 4.16 0 01.63-2.38 2 2 0 01.63-.65s-.24.22-.53.71a4.31 4.31 0 00-.51 2.32 5.52 5.52 0 001.14 3.3 5.46 5.46 0 003.76 1.91c1.54.12 3-.45 4.4-.5a4.65 4.65 0 012 .29 2.82 2.82 0 011.34 1.11 5.09 5.09 0 01.89 2.31 1.08 1.08 0 01-.2.87zM216.42 272.21a4.17 4.17 0 001.37-.36 2.52 2.52 0 001.12-1.16 4 4 0 00.21-2.15 13.8 13.8 0 00-.65-2.61 7.91 7.91 0 00-1.33-2.74 3 3 0 00-2.92-1.07 1.81 1.81 0 00-1.22 1.08 2.51 2.51 0 000 1.73 2.84 2.84 0 002.77 1.78 4.86 4.86 0 003.08-1.14 14.27 14.27 0 003.49-4.55 11.14 11.14 0 001.13-3.72c.09-.92 0-1.44.07-1.44a5.84 5.84 0 01.05 1.45 10.64 10.64 0 01-1.05 3.8 14 14 0 01-3.52 4.68 5 5 0 01-3.25 1.22 3.7 3.7 0 01-1.82-.48 2.67 2.67 0 01-1.24-1.5 2.78 2.78 0 010-1.95 2.13 2.13 0 011.42-1.26 3.27 3.27 0 013.22 1.19 8 8 0 011.36 2.84 14.37 14.37 0 01.62 2.67 4.22 4.22 0 01-.27 2.25 2.63 2.63 0 01-1.23 1.19 2.73 2.73 0 01-1.05.26 1.33 1.33 0 01-.36-.01zM229.56 279.91a3.13 3.13 0 00.77-.19 2.77 2.77 0 001.42-1.55 4.29 4.29 0 00-.15-3.13c-.41-1.15-1.15-2.31-1.6-3.71a5.15 5.15 0 01-.27-2.12 4 4 0 01.72-1.87 4.84 4.84 0 012.78-1.81 6.49 6.49 0 012.24-.13 2.78 2.78 0 01.81.16 9.74 9.74 0 00-3 .19 4.62 4.62 0 00-2.6 1.76 3.54 3.54 0 00-.66 1.73 5 5 0 00.27 2c.42 1.34 1.16 2.51 1.57 3.7a4.43 4.43 0 01.08 3.31 2.84 2.84 0 01-1.57 1.59 1.42 1.42 0 01-.81.07z" fill="#fff"/><path d="M235.73 240.8a10.08 10.08 0 011-1.26c.63-.78 1.58-1.9 2.77-3.26s2.61-3 4.13-4.81c.76-.92 1.54-1.89 2.33-2.92a19.08 19.08 0 002.17-3.33 16.74 16.74 0 002-7.32 8.16 8.16 0 00-2.08-5.67 6.57 6.57 0 00-3.59-2 14.1 14.1 0 00-1.54-.12s.13 0 .4-.09a4.56 4.56 0 011.17 0 6.65 6.65 0 013.83 1.95 8.54 8.54 0 012.29 5.93 16.8 16.8 0 01-2 7.56 19 19 0 01-2.22 3.4c-.8 1-1.6 2-2.37 2.92-1.55 1.82-3 3.41-4.23 4.74l-2.89 3.15a9.94 9.94 0 01-1.17 1.13zM224.57 254.55a13.46 13.46 0 01-3.46 1.31 13 13 0 01-3.61.81 13.46 13.46 0 013.46-1.31 13 13 0 013.61-.81z" fill="#263238"/><path d="M224.12 254.42c.08.13-1.11.87-2.25 2.12s-1.8 2.48-1.94 2.41a6.78 6.78 0 014.19-4.53zM274.5 230.7a9.63 9.63 0 01-1.16-2.07 50.6 50.6 0 01-2.18-5.28 50 50 0 01-1.6-5.48 9.09 9.09 0 01-.39-2.33 12.28 12.28 0 01.74 2.24c.42 1.39 1 3.31 1.74 5.4s1.48 4 2 5.3a12.53 12.53 0 01.85 2.22zM263.93 240.28a6.16 6.16 0 01-1.31 2 13.37 13.37 0 01-10.5 4.54 6.21 6.21 0 01-2.38-.44c0-.09.92.09 2.39.07a14.46 14.46 0 0010.21-4.42c1.02-1.03 1.51-1.8 1.59-1.75z" fill="#263238"/><path d="M257 289.7s-6.91 1.5-7.83.74 1.32-1.58 1.32-1.58-2 .24-2-.48.72-1.23.72-1.23z" fill="#e5baab"/><path d="M247.63 276.29s9.71 4.38 9.83 4.72.42 7.26-.5 8.69-13.66-5.55-13.66-5.55z" fill="#e5baab"/><path d="M254.81 288.08a1.52 1.52 0 01-.49 0l-1.32-.17a27.86 27.86 0 01-4.3-.92 13 13 0 01-4-1.91l-1.1-.76c-.26-.18-.4-.28-.39-.3a2.9 2.9 0 01.43.24l1.14.69a14.24 14.24 0 003.94 1.84 38.53 38.53 0 004.26 1l1.31.23a3 3 0 01.52.06zM254.77 288.25a7.83 7.83 0 01-2.23.57 8.47 8.47 0 01-2.3.12c0-.06 1-.14 2.27-.33s2.24-.41 2.26-.36z" fill="#d78776"/></svg>