<svg viewBox="0 0 750 500" xmlns="http://www.w3.org/2000/svg"><circle cx="142.9" cy="94.53" fill="#ebebeb" r="31.77" transform="matrix(.16022575 -.9870804 .9870804 .16022575 26.7 220.44)"/><circle cx="144.36" cy="95.24" fill="#dbdbdb" r="30.32"/><circle cx="144.36" cy="95.24" fill="#fff" r="28.4"/><path d="m172.11 89.21c-12.93 7.84-34.19 20.69-46.11 27.79a28.5 28.5 0 0 1 -7.76-10.44l39.3-36.41a28.43 28.43 0 0 1 14.57 19.06z" fill="#ebebeb" opacity=".5"/><path d="m172.74 96.23a28.31 28.31 0 0 1 -1.88 9.23l-35.42 16.75a28.23 28.23 0 0 1 -4.48-1.92c10.7-6.18 30.26-17.43 41.78-24.06z" fill="#ebebeb" opacity=".5"/><path d="m144.08 68.9h.55v4.3h-.55z" fill="#c7c7c7"/><path d="m131.99 72.14h.55v4.31h-.55z" fill="#c7c7c7" transform="matrix(.8660254 -.5 .5 .8660254 -19.43 76.08)"/><path d="m123.13 80.99h.55v4.31h-.55z" fill="#c7c7c7" transform="matrix(.5 -.8660254 .8660254 .5 -10.31 148.44)"/><path d="m118.02 94.96h4.3v.55h-4.3z" fill="#c7c7c7"/><path d="m121.26 107.06h4.31v.55h-4.31z" fill="#c7c7c7" transform="matrix(.8660254 -.5 .5 .8660254 -37.13 76.1)"/><path d="m130.11 115.91h4.3v.55h-4.3z" fill="#c7c7c7" transform="matrix(.49954648 -.86628708 .86628708 .49954648 -34.46 172.73)"/><path d="m144.08 117.27h.55v4.31h-.55z" fill="#c7c7c7"/><path d="m156.18 114.03h.55v4.3h-.55z" fill="#c7c7c7" transform="matrix(.8660254 -.5 .5 .8660254 -37.13 93.79)"/><path d="m165.03 105.18h.55v4.31h-.55z" fill="#c7c7c7" transform="matrix(.5 -.8660254 .8660254 .5 -10.31 196.81)"/><path d="m166.39 94.96h4.3v.55h-4.3z" fill="#c7c7c7"/><path d="m163.15 82.87h4.31v.55h-4.31z" fill="#c7c7c7" transform="matrix(.8660254 -.5 .5 .8660254 -19.43 93.8)"/><path d="m154.3 74.02h4.31v.55h-4.31z" fill="#c7c7c7" transform="matrix(.49954648 -.86628708 .86628708 .49954648 13.94 172.71)"/><path d="m144.77 70.85.93 26.31-2.69-.04 1.03-26.28z" fill="#c7c7c7"/><path d="m161.16 86.06-17.7 11.3-1.29-2.37 18.64-9.57z" fill="#a6a6a6"/><path d="m145.28 95.24a.92.92 0 1 1 -.92-.92.92.92 0 0 1 .92.92z" fill="#c7c7c7"/><path d="m138.3 199.21a3 3 0 0 1 0-3.09c.16-.26.31-.52.45-.79s.29-.55.42-.82a3 3 0 0 1 2.55-1.72l3.8-.12-.39-12.36-3.82.11a2.89 2.89 0 0 1 -2.64-1.56c-.29-.52-.61-1-.95-1.53a3 3 0 0 1 -.22-3.1l1.79-3.34-10.88-5.89-1.79 3.34a3 3 0 0 1 -2.7 1.54 15.57 15.57 0 0 0 -1.81.06 3 3 0 0 1 -2.76-1.34l-2-3.25-10.51 6.52 2 3.24a2.9 2.9 0 0 1 0 3c-.16.28-.32.55-.47.84s-.3.57-.44.86a2.91 2.91 0 0 1 -2.53 1.68l-3.8.11.4 12.4 3.79-.12a2.89 2.89 0 0 1 2.64 1.5 19.22 19.22 0 0 0 1 1.67 2.88 2.88 0 0 1 .17 3l-1.79 3.34 10.91 5.85 1.79-3.34a3 3 0 0 1 2.7-1.53 17.94 17.94 0 0 0 1.8-.06 2.93 2.93 0 0 1 2.77 1.35l2 3.24 10.51-6.53zm-18.3-2.55a10.14 10.14 0 1 1 11.82-3.57 10.14 10.14 0 0 1 -11.82 3.57z" fill="#ebebeb"/><path d="m665.44 307.63a2.05 2.05 0 0 1 -1-1.91c0-.21 0-.42 0-.64s0-.43 0-.64a2.06 2.06 0 0 1 1-1.91l2.31-1.33-4.33-7.5-2.32 1.3a2.05 2.05 0 0 1 -2.16-.07 11.27 11.27 0 0 0 -1.12-.65 2 2 0 0 1 -1.13-1.83v-2.65h-8.69v2.65a2 2 0 0 1 -1.13 1.83 11.27 11.27 0 0 0 -1.12.65 2.05 2.05 0 0 1 -2.16.07l-2.31-1.32-4.28 7.52 2.32 1.34a2.06 2.06 0 0 1 1 1.9v.64s0 .43 0 .64a2.05 2.05 0 0 1 -1 1.91l-2.32 1.37 4.33 7.51 2.3-1.33a2.05 2.05 0 0 1 2.16.08 12.43 12.43 0 0 0 1.12.64 2.07 2.07 0 0 1 1.09 1.8v2.65h8.68v-2.65a2.07 2.07 0 0 1 1.14-1.84 12.43 12.43 0 0 0 1.12-.64 2.05 2.05 0 0 1 2.16-.08l2.3 1.33 4.33-7.51zm-13.09 4.56a7.1 7.1 0 1 1 7.1-7.11 7.11 7.11 0 0 1 -7.1 7.11z" fill="#ebebeb"/><path d="m145.14 147.85 4.34 7.51 2.29-1.33a2.07 2.07 0 0 1 2.16.07 10.63 10.63 0 0 0 1.13.65 2.08 2.08 0 0 1 1.14 1.83v2.66h8.67v-2.66a2.06 2.06 0 0 1 1.14-1.83 10.5 10.5 0 0 0 1.12-.65 2.07 2.07 0 0 1 2.16-.07l2.3 1.33 4.33-7.51-2.31-1.33a2.07 2.07 0 0 1 -1-1.91c0-.21 0-.43 0-.64s0-.43 0-.64a2 2 0 0 1 1-1.9l2.31-1.34-4.33-7.51-2.31 1.33a2.07 2.07 0 0 1 -2.16-.07 12.37 12.37 0 0 0 -1.11-.65 2 2 0 0 1 -1.14-1.83v-2.66h-8.67v2.66a2.06 2.06 0 0 1 -1.14 1.83 11.27 11.27 0 0 0 -1.12.65 2.07 2.07 0 0 1 -2.16.07l-2.3-1.33-4.34 7.51 2.31 1.33a2.06 2.06 0 0 1 1 1.91v.64s0 .43 0 .64a2.06 2.06 0 0 1 -1 1.91zm8.29-3.88a7.1 7.1 0 1 1 7.1 7.11 7.1 7.1 0 0 1 -7.1-7.08z" fill="#ebebeb"/><path d="m127.61 342s15.66-3.55 24.24-11.45 13.37-22.07 13.37-22.07a135.15 135.15 0 0 0 -17.55 4.61 29.88 29.88 0 0 0 -5.32 7.51 36.51 36.51 0 0 1 0-5.37 24.2 24.2 0 0 0 -5.57 3.38c-7.16 6.2-9.17 23.39-9.17 23.39z" fill="#dbdbdb"/><path d="m155.45 315.33c2.13-1.48 4.31-2.9 6.43-4.39a.12.12 0 0 0 -.13-.21c-4 2.41-8 5-11.86 7.68-1.34.94-2.66 1.92-4 2.92l.27-.46c.47-.79 1-1.56 1.46-2.33a33.61 33.61 0 0 1 3.38-4.44.05.05 0 0 0 -.08-.07c-1.22 1.4-2.43 2.8-3.55 4.29-.53.71-1 1.44-1.49 2.19-.24.39-.47.78-.7 1.18-.07.14-.16.27-.23.41-2 1.59-4 3.24-5.88 5q-1.74 1.62-3.36 3.36c.6-1.9 1.13-3.81 1.83-5.68 0-.06-.08-.09-.1 0-.68 2-1.43 3.93-2 5.94-1.2 1.29-2.35 2.64-3.43 4l.06-.25c.17-.74.36-1.48.56-2.21.38-1.42.79-2.82 1.27-4.21a24.37 24.37 0 0 1 4.21-7.94c0-.05 0-.13-.08-.08a30.64 30.64 0 0 0 -6 12.52c-.17.67-.32 1.34-.48 2-.08.36-.17.72-.23 1.08-.47.64-.94 1.29-1.38 1.95a67.94 67.94 0 0 0 -6.63 13 150.52 150.52 0 0 0 -5 15.64c0 .1.12.14.16 0 3.06-9.16 6.19-18.45 11.43-26.64a60.5 60.5 0 0 1 3.57-5 30 30 0 0 0 7.62-1.52 33.7 33.7 0 0 0 7.62-3.68 46.8 46.8 0 0 0 3.92-3 .05.05 0 1 0 -.07-.08 31.23 31.23 0 0 1 -7.18 4.34 38.55 38.55 0 0 1 -7.89 2.65c-1.16.25-2.33.44-3.51.6a67.75 67.75 0 0 1 4.62-5.12c.53-.52 1.08-1 1.62-1.54a36.86 36.86 0 0 1 5.78-3.23c2.56-1.24 5.09-2.56 7.63-3.85 1.43-.73 2.85-1.47 4.3-2.18.06 0 0-.12-.06-.09-2.57 1.25-5.19 2.41-7.78 3.6s-4.92 2.24-7.27 3.56l-.29.18c2.12-1.85 4.31-3.61 6.56-5.31 2.11-1.56 4.22-3.1 6.36-4.58z" fill="#a6a6a6"/><path d="m154.56 323.4c-1.27.56-2.57 1.06-3.83 1.64s-2.53 1.32-3.76 2c-.05 0 0 .11.05.08 1.25-.6 2.52-1.16 3.75-1.78s2.52-1.32 3.82-1.88c.06.02.03-.08-.03-.06z" fill="#a6a6a6"/><path d="m76.76 263.08a22.4 22.4 0 0 1 4.68 13c0 1.4-.17 3.36-.34 5.66a37.21 37.21 0 0 1 10.22 8.73 18.58 18.58 0 0 0 -10.32-2.47 31 31 0 0 0 .59 4.68 17.56 17.56 0 0 1 6.64 1.32 15 15 0 0 0 -6 1.19c2.79 8.88 11.08 18 34 21.88a48.06 48.06 0 0 0 -4.06-32.24c-6.85-13.51-35.41-21.75-35.41-21.75z" fill="#dbdbdb"/><path d="m124.17 355q-.6-5.69-1.49-11.34a225 225 0 0 0 -4.62-22.42 92.23 92.23 0 0 0 -3.3-10.22 16 16 0 0 0 .08-1.83c0-.74 0-1.47 0-2.2 0-1.47-.08-2.93-.21-4.4a52.15 52.15 0 0 0 -1.4-8.59c-.42-1.63-.91-3.23-1.39-4.85 0-.06-.12 0-.1 0a62.43 62.43 0 0 1 1.69 8.57 80.08 80.08 0 0 1 .77 8.6v2.36 1a73.37 73.37 0 0 0 -3.86-8 96.21 96.21 0 0 0 -7.84-11.73 5 5 0 0 0 -.19-1.28l-.33-1.54q-.36-1.56-.78-3.12c-.57-2.07-1.33-4.08-2-6.13 0-.06-.12 0-.1 0 .61 2 1 4.13 1.47 6.2.23 1 .46 2 .68 3.06l.33 1.54s0 .08 0 .11c-.93-1.16-1.87-2.32-2.84-3.45-4.37-5.13-9.17-9.86-14-14.56-.6-.58-1.2-1.14-1.81-1.71-.05-.05-.12 0-.07.08 4.61 4.81 9.16 9.68 13.46 14.77 1 1.21 2 2.44 3 3.68l-1.56-1c-1.33-.87-2.68-1.72-4.07-2.49s-2.69-1.45-4.13-2.11-3-1.32-4.46-2.15c-.06 0-.11.07 0 .1a32.12 32.12 0 0 1 4.18 2.31c1.4.83 2.79 1.66 4.16 2.53s2.7 1.7 4 2.56c1.12.73 2.22 1.52 3.37 2.19a106.87 106.87 0 0 1 7.34 10.68 80.87 80.87 0 0 1 3.79 7.19l-.82-.35-2.1-.94-4-1.76c-2.57-1.12-5.18-2.15-7.7-3.37a35.87 35.87 0 0 1 -4.11-2.29c-.06 0-.11.06 0 .1 4.7 3.23 10 5.51 15.16 7.81l2.25 1c.62.28 1.24.58 1.88.82a80.11 80.11 0 0 1 3.75 10.57 214.42 214.42 0 0 1 5 22.16c1.31 7.48 2.2 15 2.89 22.57.08.95.17 1.89.28 2.83a.3.3 0 0 0 .59 0c-.01-3.85-.44-7.7-.84-11.56z" fill="#a6a6a6"/><path d="m110.23 291.79c-.42-2.33-1-4.61-1.67-6.89 0-.06-.12 0-.1 0 .58 2.24 1 4.52 1.42 6.79s.8 4.64 1.13 7c0 0 .07 0 .06 0a61.3 61.3 0 0 0 -.84-6.9z" fill="#a6a6a6"/><path d="m100.36 298.1a41.23 41.23 0 0 0 -5-2.8c-.84-.43-1.68-.84-2.53-1.25s-1.78-.78-2.64-1.21c-.06 0-.11.06 0 .09.83.42 1.63.93 2.45 1.38l2.55 1.39a56.75 56.75 0 0 0 5.08 2.63.13.13 0 0 0 .09-.23z" fill="#a6a6a6"/><path d="m127.9 314.85s14.48-3.46 21.14-13.17c6.35-9.28 8.4-25.11 8.56-26.5-.26 1.28-3.25 15.11-13.11 21.55-7.55 4.93-14.85 8.99-16.59 18.12z" fill="#a6a6a6" opacity=".1"/><path d="m141.27 289.82a18.56 18.56 0 0 0 -5.34 8.8s0 .05 0 0a21.7 21.7 0 0 1 5.37-8.74s.02-.1-.03-.06z" fill="#a6a6a6"/><path d="m127.9 314.85s14.48-3.46 21.14-13.17c6.35-9.28 8.4-25.11 8.56-26.5a.32.32 0 0 0 0-.09s-6.94 9.87-14.25 12.39-17.54 11.23-15.45 27.37z" fill="#dbdbdb"/><path d="m155.05 280.53a59.12 59.12 0 0 1 -4.47 7.66 30.64 30.64 0 0 1 -6 6.13c-2 1.57-4.05 3-6 4.51a.43.43 0 0 0 0-.07c.38-.55.78-1.09 1.19-1.62.83-1.06 1.73-2.06 2.65-3.05 1.8-1.95 3.63-3.87 5.25-6a22.2 22.2 0 0 0 2.32-3.74c0-.07-.07-.1-.1 0-2.35 4.9-7 8-10.39 12.17a18.67 18.67 0 0 0 -1.34 1.83 6.81 6.81 0 0 0 -.83 1.47 30.35 30.35 0 0 0 -5 5 20.6 20.6 0 0 1 .67-2.82 14.8 14.8 0 0 1 1.54-3.67c0-.05 0-.11-.09-.06a17.77 17.77 0 0 0 -1.69 3.65 12.9 12.9 0 0 0 -.53 3.13 27.12 27.12 0 0 0 -2 3l.18-.93c.29-1.44.61-2.88 1-4.3a25.9 25.9 0 0 1 3.48-8.16c0-.06 0-.12-.08-.06a30.82 30.82 0 0 0 -3.86 8 43.18 43.18 0 0 0 -1.16 4.33c-.16.71-.3 1.42-.44 2.14-.07.37-.15.75-.21 1.13a52.16 52.16 0 0 0 -3.34 9.82 143.86 143.86 0 0 0 -3.09 18.32 150.51 150.51 0 0 0 -1 19.45c0 .81.06 1.63.11 2.44 0 .21.32.24.33 0 .14-3.21.23-6.43.42-9.64s.47-6.42.81-9.63a172.24 172.24 0 0 1 3-18.73c1.17-5.29 2.7-10.62 5.59-15.26a28.61 28.61 0 0 1 5.23-6.22c2-1.82 4.25-3.42 6.39-5.11a35.22 35.22 0 0 0 5.91-5.64 46.61 46.61 0 0 0 4.61-7.47l1-2c.06 0-.02-.06-.06 0z" fill="#a6a6a6"/><path d="m152.55 282.66a49.12 49.12 0 0 1 -3.22 5.64 0 0 0 1 0 .06 0 38.7 38.7 0 0 0 3.26-5.65c.03-.02-.07-.05-.1.01z" fill="#a6a6a6"/><path d="m74.74 308.45s-.23 20.55 12.08 26.55 18.91 1 27.27 3c-.33-.49-6.3-9.07-15.79-11.43-9.78-2.49-20.6-9.57-23.56-18.12z" fill="#dbdbdb"/><path d="m74.74 308.45s-.23 20.55 12.08 26.55 18.91 1 27.27 3a46.79 46.79 0 0 0 -14-4.13c-7.77-.98-22.6-6.04-25.35-25.42z" fill="#a6a6a6" opacity=".1"/><path d="m114.9 338.33a20.79 20.79 0 0 0 -4.9-3.33l-.81-.34c-.13-.17-.27-.32-.41-.47a15 15 0 0 0 -1.16-1.1 16.8 16.8 0 0 0 -2.48-1.79c-2-1.2-4.27-2-6.36-3.15-.06 0-.11.06-.05.09 1 .54 2 1.13 3 1.71s2 1.11 2.93 1.73a21.66 21.66 0 0 1 2.43 1.82c.22.19.43.4.63.61a32.66 32.66 0 0 0 -4.12-1.11c-2.25-.45-4.53-.78-6.78-1.25a30.8 30.8 0 0 1 -3.26-.89c-1-.82-2-1.64-3-2.53a24.22 24.22 0 0 1 -3.18-3.53c0-.05-.14 0-.09.06a37.47 37.47 0 0 0 5 5.57c-.53-.2-1-.42-1.57-.65a25.38 25.38 0 0 1 -10.49-8.73.05.05 0 0 0 -.09.06 28.74 28.74 0 0 0 8.48 8.14 25.61 25.61 0 0 0 5.38 2.55 50.35 50.35 0 0 0 6.66 1.57 48.33 48.33 0 0 1 6.52 1.56 19.46 19.46 0 0 1 5.47 2.87 25.66 25.66 0 0 1 7.38 9.15 45.94 45.94 0 0 1 4.08 15.05c0 .22.37.22.35 0-.58-8.66-2.89-17.66-9.56-23.67z" fill="#a6a6a6"/><path d="m100.62 331.61a7.13 7.13 0 0 0 -2.53-2.29 9.2 9.2 0 0 1 -3-2.49c0-.06-.14 0-.09.06a10.38 10.38 0 0 0 2.65 2.38 9.2 9.2 0 0 1 2.9 2.39s.1 0 .07-.05z" fill="#a6a6a6"/><path d="m107.15 353.52.56 11.32 1.71 34.59h25.83l1.71-34.59.56-11.32z" fill="#ebebeb"/><path d="m107.15 353.52.56 11.32h29.25l.56-11.32z" fill="#dbdbdb"/><path d="m105.34 348.8h34v10.8h-34z" fill="#ebebeb" transform="matrix(-1 0 0 -1 244.67 708.39)"/><path d="m664.69 264h-131.69v-218.27h131.69zm-127.69-4h123.69v-210.27h-123.69z" fill="#ebebeb"/><path d="m595.29 50.78h4v211.21h-4z" fill="#ebebeb"/><path d="m529.37 53.82h138.95v5.57h-138.95z" fill="#ebebeb"/><path d="m529.37 60.08h138.95v5.57h-138.95z" fill="#ebebeb"/><path d="m529.37 66.35h138.95v5.57h-138.95z" fill="#ebebeb"/><path d="m529.37 72.62h138.95v5.57h-138.95z" fill="#ebebeb"/><path d="m529.37 78.88h138.95v5.57h-138.95z" fill="#ebebeb"/><path d="m529.37 85.15h138.95v5.57h-138.95z" fill="#ebebeb"/><path d="m529.37 91.41h138.95v5.57h-138.95z" fill="#ebebeb"/><path d="m529.37 97.68h138.95v5.57h-138.95z" fill="#ebebeb"/><path d="m529.37 103.95h138.95v5.57h-138.95z" fill="#ebebeb"/><path d="m655.44 52.69h1v108.39h-1z" fill="#263238"/><path d="m657.71 165.73h-3.55l.89-5.1h1.77z" fill="#263238"/><path d="m659.04 52.69h1v165.73h-1z" fill="#263238"/><path d="m661.32 222.17h-3.55l.89-5.1h1.77z" fill="#263238"/><path d="m523.16 44.95h151.36v11.65h-151.36z" fill="#dbdbdb"/><path d="m73.33 399.43 75.41-.24 75.42-.09 150.84-.17 150.84.17 75.42.08 75.41.25-75.41.24-75.42.09-150.84.17-150.84-.17-75.42-.09z" fill="#263238"/><ellipse cx="375" cy="429.47" fill="#ebebeb" rx="306.75" ry="28.85"/><path d="m404.73 314.99-2.37 14.23-16.08 86.82h-2.59l11.69-86.82 1.73-14.23z" fill="#dbdbdb"/><path d="m397.11 314.99h7.62l-2.37 14.23h-6.98z" fill="#a6a6a6"/><path d="m455.21 416.04h-2.59l-16.07-86.82-2.38-14.23h7.63l1.72 14.23z" fill="#dbdbdb"/><path d="m441.8 314.99 1.72 14.23h-6.97l-2.38-14.23z" fill="#a6a6a6"/><path d="m503.43 416.04h-2.59l-16.07-86.82-2.38-14.23h7.63l1.72 14.23z" fill="#dbdbdb"/><path d="m491.74 329.22h-6.97l-2.38-14.23h7.63z" fill="#a6a6a6"/><path d="m499.32 321.67h-117.8v-12.41h44.1l14.82-86.23h54.39z" fill="#dbdbdb"/><path d="m499.32 321.67h-6.42l-4.18-98.64h6.11z" fill="#a6a6a6"/><path d="m447.57 155.73c15.18 7.17 24.67 36.59 17 60.51-8.27 25.84-34.73 30.77-49.94 25.25-16.14-5.86-21-23.7-13.69-34.37 7.08-10.31 18.74-13.37 21.9-22.79 1.51-4.51 1.31-12.84 3.25-19.6 2.2-7.54 12.3-13.33 21.48-9z" fill="#263238"/><path d="m453.43 159.83a64.6 64.6 0 0 1 13.57 22.17 51.69 51.69 0 0 1 2.85 12.77 49.67 49.67 0 0 1 .14 6.57 59.33 59.33 0 0 1 -.71 6.52c-1.46 8.6-5 17-11 23.45a37.11 37.11 0 0 1 -10.5 7.78 37.74 37.74 0 0 1 -12.49 3.61 38 38 0 0 0 22.47-11.87c5.83-6.37 9.27-14.64 10.64-23.12a60.07 60.07 0 0 0 .74-6.42 47.74 47.74 0 0 0 -.1-6.44 54.6 54.6 0 0 0 -2.68-12.62 65.18 65.18 0 0 0 -5.38-11.78 67.49 67.49 0 0 0 -7.55-10.62z" fill="#263238"/><path d="m424.55 173.34a39.6 39.6 0 0 1 -1 7.16 22.89 22.89 0 0 1 -2.84 6.7 19.45 19.45 0 0 1 -5.05 5.3c-2 1.39-3.93 2.77-5.8 4.25a35.86 35.86 0 0 0 -9.54 10.48 21.51 21.51 0 0 0 -2.51 13.8 21 21 0 0 1 -.34-7.21 18.67 18.67 0 0 1 .82-3.55 21.66 21.66 0 0 1 1.42-3.37c2.26-4.36 5.82-7.85 9.58-10.87 1.9-1.51 3.91-2.86 5.88-4.22a19.89 19.89 0 0 0 4.93-5c2.7-3.92 3.79-8.73 4.45-13.47z" fill="#263238"/><path d="m392.89 426.78c2.28-.31 59.65-28.94 61.11-31.35.18-.28-2.29-5.52-5.81-12.64-7.93-16.13-23.8-43.41-23.8-43.41l-34.54 19.41 19 36s-6.38 7.72-11.56 14.28a90.61 90.61 0 0 0 -6.43 8.7c-1.3 2.85-.24 9.33 2.03 9.01z" fill="#f7a9a0"/><path d="m454 395.43c-1.46 2.41-58.83 31-61.11 31.35s-3.33-6.16-2-9a90.61 90.61 0 0 1 6.43-8.7c2.74-3.46 5.81-7.25 8.09-10.06-1.68 2.51-4.46 7.09-2.83 8 3 1.64 28.72-11.71 45.63-24.21 3.5 7.1 5.97 12.34 5.79 12.62z" fill="#263238"/><path d="m402 391.61 40-21.12s-30.53-59.82-29.73-60.87c2.8-3.61 36.61-2 51.21-16.48 15.46-15.36 3.65-37.24 3.65-37.24h-40.33s.37 11-1.37 12.4c-1.14.95-60.53 6.68-62.86 22.35-4.02 27.13 39.43 100.96 39.43 100.96z" fill="#37474f"/><path d="m399.55 384.16c4.81-2.91 9.74-5.59 14.69-8.26s9.93-5.27 15-7.76c2.84-1.41 5.74-2.68 8.58-4.08a.08.08 0 0 1 .07.14c-2.49 1.34-4.91 2.81-7.4 4.16s-4.9 2.65-7.36 4c-5 2.63-10 5.2-14.94 7.81-2.81 1.46-5.65 2.85-8.51 4.21a.1.1 0 0 1 -.13-.22z" fill="#263238"/><path d="m396.43 303c1-2.05 3.62-2.35 5.59-2.84l16.11-4c9.52-2.35 19.32-4.58 27.85-9.62 4.07-2.41 8-5.45 10.06-9.85s2-9.07 2.07-13.72c0-1.14-.06-2.29-.14-3.43 0-.1.15-.1.16 0 .29 4.57.76 9.14-.26 13.67a18.43 18.43 0 0 1 -2.56 6.16 21.12 21.12 0 0 1 -4.65 4.88c-7.54 5.92-17 8.75-26.14 11.08-5.17 1.32-10.36 2.58-15.55 3.85l-8 2a7.33 7.33 0 0 0 -3.29 1.3 3.44 3.44 0 0 0 -1 2.9 11 11 0 0 0 .81 3.18c.48 1.25 1 2.5 1.49 3.74q1.49 3.64 3 7.26 3.13 7.29 6.52 14.46c4.49 9.53 9.29 18.92 14.18 28.25.61 1.17 1.2 2.34 1.8 3.51 0 .07-.07.13-.11.06-5.24-9.23-10.14-18.67-14.8-28.2s-9-19.07-12.77-28.92c-.6-1.82-1.24-3.96-.37-5.72z" fill="#263238"/><path d="m283.76 428.91c2.19.72 66.3 0 68.66-1.5.29-.17.31-13.91.31-13.91 10.52-23.9 20-47 20-47l-44.73-.07-15.86 40.7s-9.12 4.16-16.65 7.8a89.66 89.66 0 0 0 -9.58 5c-2.45 1.98-4.33 8.27-2.15 8.98z" fill="#f7a9a0"/><path d="m353 413c-.07.17-.15.33-.22.5 0 0 0 13.74-.31 13.91-2.36 1.54-66.47 2.22-68.66 1.5s-.3-7 2.1-9a89.66 89.66 0 0 1 9.58-5c2.41-1.17 5-2.39 7.38-3.5-2.49 1.63-5.44 3.94-4.51 5.18 2.12 2.9 33.95 1.22 54.64-3.59z" fill="#263238"/><path d="m315.41 398.53 48.4-.35s24.34-62.7 28.27-66.9c2-2.13 15.31-4.5 31.22-8h.08c5.88-1.29 12.11-2.73 18.24-4.39 16-4.26 31.33-9.86 38.32-17.6 14.63-16.17 0-45.39 0-45.39h-41.21s-1 12.72 2.13 20.51c0 0-30.32 4.45-55.85 12.74-14.47 4.69-27.4 10.62-32.41 17.68-9.77 13.78-37.19 91.7-37.19 91.7z" fill="#37474f"/><path d="m320.87 391.27c5.61-.41 11.22-.56 16.84-.69s11.24-.19 16.86-.13c3.16 0 6.33.21 9.49.26.1 0 .11.15 0 .15-2.83.07-5.65.28-8.48.35s-5.57.15-8.36.19c-5.62.1-11.24.12-16.86.19-3.16 0-6.33 0-9.49-.11a.11.11 0 0 1 0-.21z" fill="#263238"/><path d="m459 261.91a2.38 2.38 0 0 0 .23.55.07.07 0 0 1 0 .09c.55 1.69.77 3.48 1.29 5.17a8.11 8.11 0 0 0 3.13 4.47c3.2 2.22 7 3.23 10.76 4.15.12 0 .08.2 0 .21a20.44 20.44 0 0 1 -6.35-1 16.62 16.62 0 0 1 -5.35-2.56 8.35 8.35 0 0 1 -3.06-4.62 27.19 27.19 0 0 1 -.54-3 22.71 22.71 0 0 1 -.37-3.48.16.16 0 0 1 .26.02z" fill="#263238"/><path d="m433.33 273.57a47 47 0 0 1 7.4 2.83l.12.05a1.74 1.74 0 0 1 -.11-.45l-.09-.53c0-.19 0-.38-.06-.56v-.29a2.17 2.17 0 0 1 -1.59-.82 5.9 5.9 0 0 1 -1-2.33c-.28-1.05-.53-2.11-.77-3.18s-.47-2.38-.66-3.57a24.9 24.9 0 0 1 -.41-3.55.17.17 0 0 1 .34 0c.27 1.09.4 2.22.6 3.33s.45 2.21.7 3.32.53 2.19.83 3.28.55 2.38 1.67 2.7c2.31.65 1.27-4.54 1.17-5.55-.23-2.36-.38-4.76-.79-7.08 0-.1.13-.14.15 0 .5 2.14 1.08 4.24 1.46 6.41.19 1.07.32 2.14.44 3.21a5 5 0 0 1 -.22 2.76 2 2 0 0 1 -1.53 1.13l.08.25c0 .17.11.34.15.51l.12.53a1.29 1.29 0 0 1 .08.64.27.27 0 0 1 -.12.14c1 .43 2 .86 3 1.31a24.26 24.26 0 0 1 3.55 1.73c.14.06 0 .24-.1.22a27.56 27.56 0 0 1 -3.72-1.35c-1.24-.48-2.46-1-3.68-1.49a45.6 45.6 0 0 1 -7-3.28c-.23-.18-.14-.35-.01-.32z" fill="#263238"/><path d="m367.45 367.86q3.84-9.47 8.11-18.76t9-18.38c1.37-2.63 2.62-5.29 5.38-6.71a19.78 19.78 0 0 1 4-1.41c1.61-.43 3.22-.84 4.83-1.25 13.13-3.32 26.4-6.05 39.43-9.71 6.52-1.83 13-3.89 19.29-6.35 5.12-2 10.23-4.33 14.49-7.86a23.52 23.52 0 0 0 5.2-5.92c1.62-2.71 5.39-10.07-.2-32.35 0-.1.11-.17.13-.07 4.47 15.87 3.52 24.51 2.71 27.66a20.33 20.33 0 0 1 -3.66 7.39c-3.3 4.21-8 7.14-12.73 9.42a132.21 132.21 0 0 1 -17.67 6.62c-13 4.07-26.32 6.92-39.56 10.06q-4.94 1.17-9.83 2.41c-2.93.75-6.34 1.34-8.44 3.72a19.48 19.48 0 0 0 -2.44 4c-.79 1.51-1.56 3-2.33 4.56q-2.37 4.68-4.63 9.4-8.92 18.66-16.25 38.05c-.61 1.59-1.2 3.19-1.82 4.79a.1.1 0 0 1 -.19-.06c2.11-6.48 4.62-12.89 7.18-19.25z" fill="#263238"/><path d="m381.79 353.38a184.67 184.67 0 0 1 6.87-17.27c1.28-2.53 2.73-5.54 5.53-6.62a39 39 0 0 1 4.59-1.26c1.63-.41 3.25-.81 4.88-1.2q4.89-1.17 9.81-2.19a111.6 111.6 0 0 1 11-1.88c.09 0 .09.13 0 .15-3.13.91-6.33 1.6-9.5 2.37s-6.2 1.46-9.29 2.22-6.35 1.57-9.51 2.4a7.79 7.79 0 0 0 -3.71 2c-1.42 1.39-9.67 20.3-10.46 21.83-.18.42-.34-.09-.21-.55z" fill="#263238"/><path d="m362.49 298.19a99.4 99.4 0 0 1 17.57-8.4c4.61-1.64 9.35-2.9 14.07-4.18q14.55-4 29.43-6.63 4.23-.75 8.48-1.43a75.19 75.19 0 0 1 8.33-1 .09.09 0 0 1 0 .17c-2.45.61-5 1-7.46 1.41s-4.91.86-7.36 1.33q-7.35 1.41-14.64 3.06c-9.63 2.19-19.22 4.77-28.69 7.56-7.88 2.32-15.32 6.61-19.55 8.5a.21.21 0 0 1 -.18-.39z" fill="#263238"/><path d="m443.92 207.16c-5 19.78-9.14 35.12-14.69 39-4.49 3.08-33 9.85-38.58 10.44-2.2.23-4 .38-5.33.5-3.22.28-9-20.87-6.73-23.52.51-.6 2.62-1.11 5.59-1.55 10-1.47 30.89-2.16 32.05-3.31s7.37-9.76 15.75-21c5.79-7.78 9.45-10.17 11.49-8.09 1.15 1.12 1.41 3.71.45 7.53z" fill="#f7a9a0"/><path d="m390.65 256.55a83.85 83.85 0 0 1 -10.27 4c-2.79.77-10.91 2.76-12.06-.24-.78-2 3.85-3.77 7.1-5.07 1.71-.68 3.84-2.43 3.35-3.53-.85-1.93-5.25-.08-8.16 1.55-5.62 3.16-13.12 8.87-16.48 6-1.27-1.09.25-3 2.46-4.88-3.57 2.17-7.38 3.93-8.84 2.78a1.86 1.86 0 0 1 -.37-2.54 2.49 2.49 0 0 1 -2.73-.47c-1.14-1.22-.55-3 .74-4.8a1.41 1.41 0 0 1 -1-.7c-2.38-3.76 10-14.25 14.23-15.19 12.47-2.77 25.67-1.49 25.67-1.49 4.78 4.03 6.37 24.57 6.36 24.58z" fill="#f7a9a0"/><path d="m372.55 244.69a20.24 20.24 0 0 0 -8.33 3.06c-2.94 1.95-5.28 4.64-8 6.85-.08.06 0 .17.09.11 1.28-1.15 2.68-2.17 4-3.26s2.56-2.19 3.92-3.16a20 20 0 0 1 8.31-3.55s.04-.06.01-.05z" fill="#263238"/><path d="m370.31 239.38a50.25 50.25 0 0 0 -9.69 3.2c-3.34 1.64-6 4.35-8.57 7q-2.34 2.35-4.56 4.81c-.07.06 0 .18.09.11 2.63-2.7 5.34-5.33 8.14-7.86a26.39 26.39 0 0 1 8.87-5.41c1.88-.69 3.81-1.22 5.74-1.76.03-.04.02-.1-.02-.09z" fill="#263238"/><path d="m366.9 234.72c-3.19.6-6 1.12-8.8 2.77a45.85 45.85 0 0 0 -8.68 7.26c-1.41 1.47-2.78 3-4.12 4.51-.05.06.06.16.11.1a104.32 104.32 0 0 1 9.83-9.44 20.72 20.72 0 0 1 5.46-3.44 38 38 0 0 1 6.2-1.74s.01-.02 0-.02z" fill="#263238"/><path d="m390.13 231.16 4.15 25.75s29.63-4.26 36.71-10.45 12.05-31.21 14-40.68-3.26-10.9-10.89-1.91-17.72 23.92-18.48 24.48-25.49 2.81-25.49 2.81z" fill="#407bff"/><g opacity=".1"><path d="m445.16 200.14h-7.36l.43-.34h6.83a2.75 2.75 0 0 1 .1.34z"/><path d="m445.35 203.28a1.84 1.84 0 0 1 0 .33h-11l.29-.33z"/><path d="m444.79 206.75c0 .11 0 .23-.07.34h-13.26a4 4 0 0 1 .27-.34z"/><path d="m444.07 210.23c0 .11-.05.22-.07.33h-15.26l.26-.33z"/><path d="m443.33 213.7c0 .11-.06.23-.08.34h-17.13c.08-.11.17-.22.25-.34z"/><path d="m442.54 217.18c0 .11-.06.22-.08.33h-18.9l.24-.33z"/><path d="m441.7 220.65c0 .11-.06.23-.08.34h-20.62l.26-.34z"/><path d="m440.8 224.13c0 .11-.06.22-.08.33h-22.18l.24-.33z"/><path d="m439.84 227.6c0 .11-.07.23-.1.34h-23.74l.27-.34z"/><path d="m438.77 231.08c0 .11-.07.22-.1.33h-48.5v-.25l.82-.08z"/><path d="m437.59 234.55-.12.34h-46.74l-.05-.34z"/><path d="m436.22 238c0 .11-.09.22-.14.33h-44.79l-.05-.33z"/><path d="m434.59 241.5a3.72 3.72 0 0 1 -.19.34h-42.55l-.05-.34z"/><path d="m432.38 245-.28.33h-39.69l-.05-.33z"/><path d="m427.87 248.45-.71.34h-34.16l-.05-.34z"/><path d="m418.3 251.93-1.19.33h-23.58v-.33z"/><path d="m403.17 255.4-1.86.34h-7.22v-.34z"/></g><path d="m391.56 259.45 7.22-1.3-5.01-29.4-7 .81z" fill="#407bff"/><path d="m396.62 243.4c-.4-2-.8-4.05-1.22-6.07s-.76-4.07-1.33-6c0-.09-.18-.08-.17 0 .18 2 .58 4 .91 5.92s.71 4.16 1.08 6.24c.72 4.1 1.62 8.16 2.58 12.22 0 .1.16.06.15 0-.57-4.16-1.21-8.24-2-12.31z" fill="#263238"/><path d="m426 243.23-2.55 25.3s50.24 4.58 62.81 3.14c0 0-12.86-57.84-27.07-72-7.11-7.06-15.05-6.16-19.9-.79-1.23 1.36-15.66 22.29-16.94 30.1-1.1 6.92 3.65 14.25 3.65 14.25z" fill="#407bff"/><path d="m432.79 208.65a0 0 0 0 0 -.08-.05c-1 1.51-2 3.06-2.89 4.62.29-.75.58-1.49.91-2.22 0-.09-.1-.17-.14-.08-.51 1.13-1 2.23-1.52 3.37-.08.19-.15.38-.22.57l-.56.94a78.75 78.75 0 0 0 -3.92 7.23c-2.58 5.61-3 8.28-1.61 13.24a20.52 20.52 0 0 0 3.19 6.94 43.94 43.94 0 0 0 -.66 6.1c0 .07.22 0 .24-.05a48.3 48.3 0 0 0 .89-6c0-.08-3.89-8.22-3.55-12.65.35-4.61 2.93-8.85 5-12.88a.05.05 0 0 0 .08 0c.09-.23.19-.45.28-.67l.24-.46c1.4-2.67 2.91-5.29 4.32-7.95z" fill="#263238"/><g opacity=".1"><path d="m455.32 196.66h-13.44l.52-.33h12.34z"/><path d="m459.62 200.14h-21.26l.25-.34h20.68z"/><path d="m462.38 203.61h-26.38l.23-.33h26z"/><path d="m464.57 207.09h-30.92l.22-.34h30.5a3.79 3.79 0 0 1 .2.34z"/><path d="m466.45 210.56h-35l.21-.33h34.63z"/><path d="m468.13 214h-38.8c.07-.11.13-.23.21-.34h38.46z"/><path d="m469.68 217.51h-42.35l.18-.33h42c.07.11.12.22.17.33z"/><path d="m471.11 221h-45.64c.06-.11.11-.22.18-.34h45.35c0 .1.07.22.11.34z"/><path d="m472.45 224.46h-48.62l.15-.33h48.35z"/><path d="m473.73 227.94h-51.14a1.62 1.62 0 0 1 .1-.34h50.92z"/><path d="m475 231.41h-52.82v-.33h52.66c.03.11.07.22.16.33z"/><path d="m476.12 234.89h-53.52c0-.11-.05-.23-.07-.34h53.47z"/><path d="m477.23 238.36h-53.6l-.12-.33h53.62c.03.11.07.22.1.33z"/><path d="m478.31 241.84h-53.11l-.17-.34h53.18z"/><path d="m479.36 245.31h-53.57v-.33h53.44c.06.11.09.22.13.33z"/><path d="m480.36 248.79h-54.92v-.34h54.79c.07.11.1.23.13.34z"/><path d="m481.34 252.26h-56.25v-.33h56.13z"/><path d="m482.29 255.74h-57.55v-.34h57.46z"/><path d="m483.21 259.21h-58.82v-.33h58.7z"/><path d="m484.1 262.69h-60.1v-.34h60z"/><path d="m485 266.16h-61.31v-.33h61.16c.05.11.08.22.15.33z"/><path d="m485.79 269.64h-49.14l-4.21-.34h53.27c.03.12.06.23.08.34z"/></g><path d="m447 194.89c-5.58 1.83-11.72 10.7-10.76 12s5.37-1.67 5.37-1.67 0 3.89 2.39 4.22 6.66-4.41 7.86-8c1.78-5.39-.12-8.11-4.86-6.55z" fill="#fff"/><path d="m451.66 197.27c-.27 1-5.27 7.31-9.83 6.93-1.48-.13-1.16-8.26-1.16-8.26l-.11-.61-1.56-8.48 10.11-6 1.46-.79s.28 2.35.6 5.28v.42a4 4 0 0 1 .06.47c.06.44.11.89.15 1.33s.07.67.09 1 .06.71.09 1.06a55.17 55.17 0 0 1 .1 7.65z" fill="#f7a9a0"/><path d="m451.15 185.35a17.3 17.3 0 0 1 -10.59 10l-1.56-8.5 10.11-6 1.46-.79s.26 2.36.58 5.29z" fill="#263238"/><path d="m426.92 175.26c.21 15.14 9.3 16.73 12.57 16.68 3 0 13.05-.57 14.41-15.65s-5.75-19.78-12.53-20-14.66 3.83-14.45 18.97z" fill="#f7a9a0"/><path d="m429.1 171a8.39 8.39 0 0 0 1-.22 1.75 1.75 0 0 0 1-.44.54.54 0 0 0 0-.65 1.35 1.35 0 0 0 -1.32-.3 2 2 0 0 0 -1.23.71.57.57 0 0 0 .55.9z" fill="#263238"/><path d="m439.05 171a8.92 8.92 0 0 1 -1-.2 1.77 1.77 0 0 1 -1-.4.54.54 0 0 1 0-.66 1.33 1.33 0 0 1 1.31-.33 1.91 1.91 0 0 1 1.24.68.57.57 0 0 1 -.55.91z" fill="#263238"/><path d="m437.08 174.82s.08.05.08.09c-.05 1 .08 2.22 1 2.57 0 0 0 .07 0 .06-1.16-.17-1.29-1.75-1.08-2.72z" fill="#263238"/><path d="m438 173.75c1.66-.11 1.76 3.22.22 3.32s-1.6-3.23-.22-3.32z" fill="#263238"/><path d="m438.67 173.91c.3.18.59.5.94.53s.7-.33 1-.67h.06c0 .64-.2 1.3-.88 1.42s-1.09-.45-1.26-1.09c-.08-.1.02-.26.14-.19z" fill="#263238"/><path d="m431.15 174.79s-.08.06-.08.1c.07 1 0 2.22-.94 2.59 0 0 0 .07 0 .06 1.14-.2 1.25-1.78 1.02-2.75z" fill="#263238"/><path d="m430.19 173.75c-1.67-.06-1.67 3.26-.13 3.32s1.52-3.26.13-3.32z" fill="#263238"/><path d="m429.49 174c-.26.17-.52.49-.84.51s-.63-.33-.86-.68h-.05c0 .63.19 1.3.8 1.42s1-.43 1.12-1.07c.03-.1-.06-.28-.17-.18z" fill="#263238"/><path d="m437.4 183c-.22.26-.45.61-.82.67a2.71 2.71 0 0 1 -1.12-.17s-.07 0 0 0a1.36 1.36 0 0 0 1.34.46 1.11 1.11 0 0 0 .75-1c-.03.04-.11.04-.15.04z" fill="#263238"/><path d="m433 179.37a21.88 21.88 0 0 0 -.17 2.27c0 .07.17.1.42.11a3.45 3.45 0 0 0 3.33-1.35c.05-.07 0-.14-.11-.1a5.22 5.22 0 0 1 -3.14 1c-.05-.2.41-2.63.3-2.64a6.47 6.47 0 0 0 -1.65.4c.3-3.22 1.11-6.38 1.36-9.59a.11.11 0 0 0 -.2-.05 52.67 52.67 0 0 0 -1.89 10.28c.01.37 1.49-.2 1.75-.33z" fill="#263238"/><path d="m433.28 181.26a4.27 4.27 0 0 0 1.56 1.45 1.92 1.92 0 0 0 1.14.17c.85-.14.94-.9.85-1.56a4.83 4.83 0 0 0 -.28-1 5.52 5.52 0 0 1 -3.27.94z" fill="#263238"/><path d="m434.84 182.71a1.92 1.92 0 0 0 1.14.17c.85-.14.94-.9.85-1.56a2 2 0 0 0 -1.99 1.39z" fill="#ff9bbc"/><path d="m453.2 177c-3.9.16-5.94-11.7-6.18-13.16.1.93.62 5.84.25 6.06a3.68 3.68 0 0 1 -1.23-.14 12.94 12.94 0 0 0 -.28-1.75 7.06 7.06 0 0 0 -.12 1.68l-.74-.15a14.08 14.08 0 0 0 -.65-3.71c-.15-.45-.12 1.65-.42 3.51a46.89 46.89 0 0 0 -10.32-1c-1 0-1.81.11-2.54.2-.12-1.45-.07-3-.15-2.67a14 14 0 0 0 -.4 2.75c-.4.05-.77.11-1.1.17-.26-2.05.47-5.4.18-4.87a14.52 14.52 0 0 0 -1.6 5.2c-1.38.38-1.74.68-1.81.32a17.18 17.18 0 0 1 4.39-11c4.51-4.94 14.12-6.84 20.12-.2 0 0 4.73 2.59 5.8 7.27s-.95 11.49-3.2 11.49z" fill="#263238"/><path d="m451.51 177.48s2.81-5 5.06-4.07.47 8-1.94 9.21a2.56 2.56 0 0 1 -3.55-1z" fill="#f7a9a0"/><path d="m456 175.42s.06.05 0 .07c-1.68.89-2.44 2.61-2.92 4.36a1.41 1.41 0 0 1 2.06-.6c.05 0 0 .11 0 .1a1.58 1.58 0 0 0 -1.67.72 7.64 7.64 0 0 0 -.69 1.48c-.07.17-.36.11-.32-.07-.26-2.28 1.17-5.59 3.54-6.06z" fill="#263238"/><path d="m460.06 215.65c-7.53 16.78-21.62 35.5-26.7 35.52-11 0-37.78-13.44-45.27-20-2.48-2.18 9.74-21.35 13.23-21.84s28.6 15.16 30.62 14.39c1.77-.69 13.86-10.58 19.76-15.64 11.74-10.08 10.57 2.66 8.36 7.57z" fill="#f7a9a0"/><path d="m393.28 234.75c-8.28-5.81-18.94-12.54-23.67-22.93a5.7 5.7 0 0 1 -.44-3.67c-2.2-4.62-.68-7.05-.68-7.05-.73-4.93 1.17-7.19 1.17-7.19s-2.53-5.46.51-7.53c3.4-2.33 6.28 5.78 10.6 9.27 9.88 8 26.16 16.61 29.24 18.63z" fill="#f7a9a0"/><path d="m385.23 211.31a81.37 81.37 0 0 1 -8.25-7.49 81.67 81.67 0 0 1 -7.19-9.88.1.1 0 0 0 -.17.09 43.19 43.19 0 0 0 15.5 17.41c.15.1.25-.01.11-.13z" fill="#263238"/><path d="m381.27 218c-2.66-2.51-7.29-6.93-12.67-16.94h-.06a38.63 38.63 0 0 0 12.61 17c.17.18.29.08.12-.06z" fill="#263238"/><path d="m379.07 221.52c-4.35-4.43-6.53-7.77-9.86-13.36a0 0 0 1 0 -.06 0c3.11 6.75 5 8.85 9.79 13.5.16.19.3.03.13-.14z" fill="#263238"/><path d="m393.28 204.54c1.7.53 2-.36.2-3s-11.09-11.43-7.74-14.41 16.29 9.64 18.94 14.22 5.33 12.9 5.33 12.9c-3.01-1.92-10.77-5.96-16.73-9.71z" fill="#f7a9a0"/><path d="m412.44 214-12.52 25.16s26.28 15.74 34.81 12.63 23.66-29.59 26-37.05 1.75-15.15-8.54-7.59-19.43 15.85-20.32 15.95-19.43-9.1-19.43-9.1z" fill="#407bff"/><path d="m412.44 214-12.52 25.16s26.28 15.74 34.81 12.63 23.66-29.59 26-37.05 1.75-15.15-8.54-7.59-19.43 15.85-20.32 15.95-19.43-9.1-19.43-9.1z" fill="#407bff"/><g opacity=".1"><path d="m461.76 207.09h-9.48l.46-.34h9z"/><path d="m461.73 210.23a1.88 1.88 0 0 1 -.05.33h-14l.42-.33z"/><path d="m412.44 214h.05-.06z"/><path d="m461 213.7c0 .11-.06.23-.1.34h-17.62l.42-.34z"/><path d="m418.92 217.18.67.33h-8.89l.16-.33z"/><path d="m459.81 217.18-.15.33h-20.66l.4-.33z"/><path d="m426.16 220.65.74.34h-17.9l.17-.34z"/><path d="m458.2 220.65-.2.35h-23.22l.42-.34z"/><path d="m456.41 224.13-.17.33h-49l.16-.33z"/><path d="m454.5 227.6-.2.34h-48.79l.17-.34z"/><path d="m452.44 231.08-.19.33h-48.47l.17-.33z"/><path d="m450.28 234.55a4 4 0 0 1 -.22.34h-48l.17-.34z"/><path d="m448 238-.23.33h-47.45l.17-.33z"/><path d="m445.48 241.5-.26.34h-40.59l-.61-.34z"/><path d="m442.72 245-.28.33h-31.11l-.68-.33z"/><path d="m439.51 248.45-.36.34h-20.15l-.83-.34z"/><path d="m434.3 251.93a12.21 12.21 0 0 1 -5.2 0z"/></g><path d="m395.59 238.39 6.59 3.23 13.19-27.34-5.92-2.8z" fill="#407bff"/><path d="m409.45 227.86q1.33-2.79 2.64-5.59c.87-1.86 1.82-3.72 2.55-5.64 0-.08-.1-.17-.15-.08-1 1.69-1.9 3.52-2.81 5.29s-1.91 3.75-2.86 5.64c-1.87 3.73-3.59 7.51-5.24 11.34 0 .09.1.14.14.06 2-3.63 3.93-7.28 5.73-11.02z" fill="#263238"/><path d="m446.81 211.3c-1.12.73-14 11.24-14.58 11.55s-1.32-.15-1.92-.44c-2.43-1.15-4.84-2.33-7.25-3.52-2.71-1.33-5.29-2.43-8-3.76-.09 0-.17.09-.08.14 2.47 1.33 4.69 2.66 7.18 3.95s5 2.55 7.54 3.77c.94.45 1.91 1.12 2.89.45 1.15-.79 13.25-10.79 14.35-12a.11.11 0 0 0 -.13-.14z" fill="#263238"/><path d="m458.12 222.16c-1.73 2.62-3.37 5.31-5.12 7.91s-3.61 5.27-5.51 7.84-3.67 4.89-5.63 7.22a43.28 43.28 0 0 1 -3.2 3.43 12 12 0 0 1 -3.71 2.63 10.39 10.39 0 0 1 -4.76.55c-.79-.07-1.58-.18-2.36-.31-1.62-.38-3.22-.86-4.8-1.37a82.61 82.61 0 0 1 -13-5.65c-1.18-.62-2.35-1.26-3.52-1.88s-2.6-1.37-3.84-1.91a8.32 8.32 0 0 0 -.46.84c-.5-.33-6.31-3.06-6.43-3.1a11.7 11.7 0 0 0 .65-1.52c0-.09 0-.15-.1-.07a10.2 10.2 0 0 0 -1 1.85s6.83 3.26 6.9 3.22.51-1 .51-1c1.09.61 2.18 1.25 3.24 1.91s2.16 1.28 3.25 1.9c2.19 1.22 4.4 2.4 6.68 3.45 4.33 2 9 3.92 13.8 4.47a12.1 12.1 0 0 0 4-.21c3.07-.54 5.19-3 7.17-5.19a137.61 137.61 0 0 0 11.6-15.46c.38-.56.75-1.13 1.12-1.7a42.1 42.1 0 0 1 3.91-4.21c.08-.06 0-.17-.11-.1-.91.83-1.83 1.68-2.69 2.58 1.25-2 2.45-3.95 3.53-6 .09-.13-.06-.21-.12-.12z" fill="#263238"/><path d="m217.74 315.17 2.37 14.21 16.08 86.69h2.59l-11.69-86.69-1.73-14.21z" fill="#dbdbdb"/><path d="m225.36 315.17h-7.62l2.37 14.21h6.98z" fill="#a6a6a6"/><path d="m167.25 416.07h2.59l16.08-86.69 2.37-14.21h-7.62l-1.73 14.21z" fill="#dbdbdb"/><path d="m180.67 315.17-1.73 14.21h6.98l2.37-14.21z" fill="#a6a6a6"/><path d="m119.03 416.07h2.59l16.08-86.69 2.37-14.21h-7.62l-1.73 14.21z" fill="#dbdbdb"/><path d="m130.72 329.38h6.98l2.37-14.21h-7.62z" fill="#a6a6a6"/><path d="m123.14 321.84h117.8v-12.39h-44.1l-14.82-86.11h-54.39z" fill="#dbdbdb"/><path d="m123.14 321.84h6.42l4.19-98.5h-6.12z" fill="#a6a6a6"/><path d="m232.72 426.49c-2.23.28-62.88-13.87-64.85-15.78-.24-.21 1.9-11.94 1.9-11.94.95-4.8 17.48-43.83 17.48-43.83l39.65 9.78-16.8 36.28s7.56 5.12 14.05 10a86.13 86.13 0 0 1 8.21 6.57c1.95 2.31 2.57 8.66.36 8.92z" fill="#ad6359"/><path d="m232.89 426.66c-2.3.24-63.44-13.46-65.43-15.46-.77-.75.71-9.76 2.81-20.6 0-.11 0-.22.07-.34l39.54 8.4-.16.67s21.05 15.7 23 18.13 2.47 8.97.17 9.2z" fill="#407bff"/><path d="m232.73 424.14c-10.25-2.56-51.83-11.93-62.16-13.69-.08 0-.1 0 0 .07 10.1 2.76 51.76 11.79 62.13 13.79.21.04.3-.11.03-.17z" fill="#263238"/><path d="m214.25 399.76c-3.89-1.66-9-2.15-12.74 0-.14.08 0 .29.12.28a58 58 0 0 1 12.49.19.27.27 0 0 0 .13-.47z" fill="#263238"/><path d="m216.78 402.18c-3.89-1.67-9-2.16-12.73 0-.15.08 0 .28.11.27a58.61 58.61 0 0 1 12.49.2.27.27 0 0 0 .13-.47z" fill="#263238"/><path d="m219.31 404.6c-3.89-1.67-9-2.16-12.73 0-.15.09 0 .29.12.28a58.52 58.52 0 0 1 12.48.2.27.27 0 0 0 .13-.48z" fill="#263238"/><path d="m221.51 392.11c-1.1-2.55-4.29-2.23-6.31-1.19a22.27 22.27 0 0 0 -8.33 7.88.12.12 0 0 0 .07.17.51.51 0 0 0 .52.65c3.63-.49 7.56-.56 10.93-2.15 1.97-.92 4.16-2.95 3.12-5.36zm-8.7 5.64c-1.78.29-3.56.48-5.33.83a64.11 64.11 0 0 1 5-4.49 22.2 22.2 0 0 1 2.67-1.84c1.45-.83 6.75-2.09 5 2.19-.94 2.36-5.22 2.98-7.34 3.31z" fill="#263238"/><path d="m196.8 395.43c3 2.17 6.88 3 10.36 4.1a.51.51 0 0 0 .63-.54.11.11 0 0 0 .1-.15 22.22 22.22 0 0 0 -6.76-9.27c-1.78-1.39-4.86-2.28-6.41 0s.28 4.59 2.08 5.86zm-1.18-3.3c-.9-4.52 4.08-2.31 5.36-1.24a24.86 24.86 0 0 1 2.29 2.3c1.5 1.67 2.74 3.52 4.06 5.32-1.67-.66-3.39-1.18-5.09-1.78-2.02-.73-6.12-2.1-6.62-4.6z" fill="#263238"/><path d="m211.67 402-42.09-10s36.2-82.82 33.11-86.91c-1.54-2.05-40.73-2.65-53.19-13.21-16.19-13.72-5.33-34.67-5.33-34.67l43.77-1.3s-.53 9.14 1.17 10.52c1.13.92 53.28 5.3 59 22.87 7.03 21.58-36.44 112.7-36.44 112.7z" fill="#37474f"/><path d="m211.66 395.44c-1.1-.52-12-3.71-14.45-4.34-4.92-1.26-9.86-2.49-14.82-3.62-2.58-.59-8.12-1.88-8.46-1.82-.16 0-.19.3-.05.35 4.81 1.59 9.68 2.93 14.55 4.28s21.64 5.39 23.11 5.49c.14.01.27-.26.12-.34z" fill="#263238"/><path d="m210.18 301.49a6.64 6.64 0 0 0 -3.3-1l-18.95-3.18c-5.92-1-11.86-1.87-17.74-3-4.88-.94-9.83-2.2-14.05-4.84a20.36 20.36 0 0 1 -8.6-11.26 36.37 36.37 0 0 1 -1.12-14.42c.12-1.18.33-2.35.55-3.51a.07.07 0 0 0 -.14 0c-1.6 9-1.74 19.37 5 26.51 3.28 3.48 7.78 5.53 12.37 6.85a138.11 138.11 0 0 0 15.92 3.09l19 3.17c3 .5 6.13.9 9.14 1.53a3.17 3.17 0 0 1 1.65.72 2.36 2.36 0 0 1 .27 2.19c-.31 1.49-.71 3-1.14 4.42-3.45 11.77-30 74.11-30.66 75.41-.07.13.15.24.22.1 5.8-10.32 25.92-59.88 29.74-71a70.7 70.7 0 0 0 2.49-8.66c.17-1.13.27-2.33-.65-3.12z" fill="#263238"/><path d="m295.32 429.14c-2.12.72-62.83-.14-65.14-1.62-2.53-2.41-3.6-59.68-3.6-59.68l39-.32 2.44 41.12s8.43 3.51 15.76 7a85.79 85.79 0 0 1 9.37 4.81c2.41 1.89 4.29 7.99 2.17 8.69z" fill="#ad6359"/><path d="m296.56 429.18c-2.19.73-64.85.43-67.23-1.1-.91-.56-1.4-9.68-1.67-20.72 0-.11 0-.23 0-.34l40.43-.26v.68s23.94 10.83 26.37 12.79 4.3 8.24 2.1 8.95z" fill="#407bff"/><path d="m295.87 426.75c-10.57-.3-53.19-.56-63.66-.06-.08 0-.08.06 0 .06 10.46.54 53.09.45 63.66.18.22-.01.22-.17 0-.18z" fill="#263238"/><path d="m272.58 406.9c-4.15-.8-9.24-.19-12.43 2.76-.12.11 0 .28.18.24a58.46 58.46 0 0 1 12.23-2.48.26.26 0 0 0 .02-.52z" fill="#263238"/><path d="m275.57 408.72c-4.15-.8-9.24-.19-12.43 2.76-.12.11 0 .28.18.24a58.59 58.59 0 0 1 12.23-2.48.26.26 0 0 0 .02-.52z" fill="#263238"/><path d="m278.56 410.54c-4.15-.8-9.24-.19-12.43 2.76-.12.11 0 .28.18.24a58.56 58.56 0 0 1 12.24-2.48.26.26 0 0 0 .01-.52z" fill="#263238"/><path d="m278 397.87c-1.62-2.26-4.67-1.26-6.41.19a22.11 22.11 0 0 0 -6.45 9.48c0 .08 0 .13.1.15a.52.52 0 0 0 .65.52c3.44-1.26 7.27-2.17 10.22-4.44 1.75-1.32 3.45-3.77 1.89-5.9zm-7.29 7.37c-1.67.66-3.37 1.23-5 1.95 1.26-1.84 2.44-3.73 3.88-5.45a23.68 23.68 0 0 1 2.22-2.37c1.24-1.12 6.15-3.48 5.39 1.07-.4 2.56-4.46 4.02-6.46 4.8z" fill="#263238"/><path d="m254.61 406.4c3.42 1.48 7.36 1.42 11 1.79a.51.51 0 0 0 .5-.66.11.11 0 0 0 .06-.17 22.17 22.17 0 0 0 -8.58-7.61c-2-1-5.25-1.19-6.26 1.39s1.29 4.4 3.28 5.26zm-1.86-3c-1.85-4.22 3.49-3.13 5-2.35a23.84 23.84 0 0 1 2.73 1.75 65.68 65.68 0 0 1 5.11 4.33c-1.78-.3-3.57-.43-5.35-.66-2.16-.24-6.47-.71-7.49-3.04z" fill="#263238"/><path d="m270.24 409.23h-44.05s.56-81.47-2.89-85.88c-4.6-5.88-69-5.74-82.81-24.91-12.4-17.22-1.93-41.58-1.93-41.58l48.76-1.45a100 100 0 0 1 -4.52 15.34s58.75 10.83 75.2 28.82c11.11 12.17 12.24 109.66 12.24 109.66z" fill="#37474f"/><path d="m191.38 267.43a23.12 23.12 0 0 0 -4.13 1.33c-1.4.53-2.78 1.14-4.13 1.79a79.93 79.93 0 0 0 -7.71 4.36.07.07 0 0 0 .07.12c2.64-1.37 5.37-2.6 8.09-3.78l3.94-1.69a43.09 43.09 0 0 0 4-1.76c.15-.1.06-.4-.13-.37z" fill="#263238"/><path d="m188.46 255.41c-.56 2.23-1.05 4.47-1.69 6.67-.29 1-.58 2-1 3-.32.83-.81 1.77-1.77 2s-1.42-.74-1.33-1.65.36-2 .56-3 .46-2.3.67-3.46c.11-.58.22-1.16.32-1.74 0-.15.13-1.26.21-1.57 0 0 0 .05.06 0a.11.11 0 0 0 .07-.06c0-.09 0-.1-.06-.17a.09.09 0 0 0 -.1 0c-.21.11-.23.4-.29.61-.18.57-.37 1.13-.53 1.7-.31 1.06-.61 2.12-.88 3.19s-.53 2.15-.8 3.22a5.06 5.06 0 0 0 -.21 2.47 1.88 1.88 0 0 0 1.75 1.42 1.55 1.55 0 0 0 -.12.22c-.1.21-.17.45-.25.67s-.16.46-.23.7a1.86 1.86 0 0 0 -.06.34v.38s.25.32.35.13.14-.2.2-.31a1.8 1.8 0 0 0 .16-.38c.08-.22.14-.44.2-.67s.13-.45.17-.68 0-.27 0-.41a2.55 2.55 0 0 0 1.28-.48 4.2 4.2 0 0 0 1.33-2c.34-.93.6-1.89.86-2.84a42.4 42.4 0 0 0 1.42-7.16c.13-.31-.23-.4-.29-.14z" fill="#263238"/><path d="m159.45 260.85c-.2 1.11-.33 2.22-.58 3.31s-.54 2.15-.89 3.19a11.56 11.56 0 0 1 -1.36 2.86 10.73 10.73 0 0 1 -2.16 2.2 18.63 18.63 0 0 1 -5.23 2.91 24.65 24.65 0 0 1 -2.9.85c-.52.11-1 .2-1.56.27a3.18 3.18 0 0 0 -1.25.29.25.25 0 0 0 0 .43 4.4 4.4 0 0 0 2.31.07 16 16 0 0 0 2.47-.43 18.1 18.1 0 0 0 4.67-2 14.79 14.79 0 0 0 3.9-3.18 11.08 11.08 0 0 0 2.09-4.57 22.46 22.46 0 0 0 .68-6.21.11.11 0 0 0 -.19.01z" fill="#263238"/><path d="m232.53 352.11q-.65-10.38-1.72-20.71c-.18-1.7-.35-3.4-.56-5.1a16 16 0 0 0 -.86-3.87c-1-2.59-3.17-3.9-5.78-4.56-3.08-.78-6.27-1.24-9.41-1.75s-6.41-1-9.63-1.43c-6.51-.91-13-1.75-19.52-2.84a154.9 154.9 0 0 1 -19.15-4.3c-5.76-1.74-11.66-3.89-16.28-7.88-9.92-8.59-10.28-23-9.07-35 .17-1.71.38-3.4.59-5.1 0-.09-.13-.12-.14 0-.79 6.78-1.7 13.61-1 20.44a33.29 33.29 0 0 0 5.42 15.84c3.36 4.81 8.34 7.92 13.71 10.09a108.1 108.1 0 0 0 18.27 5.26c12.87 2.69 26 3.83 39 6 1.6.28 3.19.57 4.78.88a19.31 19.31 0 0 1 4.31 1.15c3 1.31 3.76 4.17 4.12 7.13.85 6.86 1.42 13.77 1.92 20.66 1 13.89 1.53 27.86 1.5 41.79v11.23c0 .15.24.14.24 0 .32-13.99.14-34.04-.74-47.93z" fill="#263238"/><path d="m268.18 402.71a26.31 26.31 0 0 0 -3.65-.31c-1.28-.07-2.57-.14-3.85-.19-2.52-.1-5.05-.17-7.57-.18-5.09 0-10.17 0-15.26.11-2.65.06-8.33.17-8.65.31-.15.07-.11.34 0 .35 5 .36 10.1.47 15.15.59s10.1.23 15.15.1c1.39 0 2.79-.1 4.19-.16a31.12 31.12 0 0 0 4.42-.26c.18-.07.24-.33.07-.36z" fill="#263238"/><path d="m183.11 270.89a164.33 164.33 0 0 1 26.6 5.46 185.41 185.41 0 0 1 25.67 9.28c4.67 2.09 9.18 4.43 13.66 6.9.09 0 0 .17-.08.13a208.48 208.48 0 0 0 -25-10.89 202.78 202.78 0 0 0 -26-7.54c-5-1.08-10-1.92-15-2.75-.28-.05-.19-.62.15-.59z" fill="#263238"/><path d="m226 341.14c-.32-4.79-.81-9.57-1.59-14.3-.32-1.92-.41-4.39-2.41-5.34-.94-.44-19.6-3.68-22.27-3.63-.12 0-.18.18-.06.23s18 3.46 20.23 4a3.46 3.46 0 0 1 2.49 1.29 8.94 8.94 0 0 1 .76 3.07 196 196 0 0 1 2.47 28.1q.1 3.9.14 7.81c0 2.67-.09 5.38.11 8.05a.22.22 0 0 0 .44 0c.2-2.43.13-4.89.14-7.33s0-4.88 0-7.32c-.01-4.89-.12-9.77-.45-14.63z" fill="#263238"/><path d="m186.54 209.34c4.15 19.35 5.06 33.32 10.47 37 4.36 3 10.53 5.13 16.88 6.68a158.85 158.85 0 0 0 20.62 3.34c2.13.22 3.91.37 5.18.48 3.12.26 8.64-20.27 6.47-22.83-.5-.58-2.55-1.07-5.44-1.49-9.71-1.4-28.87-2-30-3.16s-8.89-14.43-15.65-26.87c-6.47-11.88-11.16-5.44-8.53 6.85z" fill="#dd6a57"/><path d="m233.45 254.66a75 75 0 0 0 9.24 3.6c2.52.68 9.82 2.44 10.84-.25.7-1.84-3.47-3.38-6.39-4.53-1.54-.61-3.46-2.18-3-3.17.76-1.73 4.72-.08 7.34 1.38 5.06 2.82 11.82 7.93 14.83 5.34 1.14-1-.23-2.7-2.23-4.38 3.23 1.94 6.66 3.51 8 2.48a1.69 1.69 0 0 0 .33-2.29 2.25 2.25 0 0 0 2.46-.42c1-1.1.48-2.69-.68-4.31a1.27 1.27 0 0 0 .93-.64c2.13-3.37-9-12.77-12.83-13.6a84.91 84.91 0 0 0 -23.09-1.28c-4.38 3.58-5.76 22.06-5.75 22.07z" fill="#dd6a57"/><path d="m249.69 244a18.21 18.21 0 0 1 7.51 2.73c2.64 1.74 4.75 4.15 7.19 6.13.07 0 0 .15-.08.1-1.15-1-2.42-1.94-3.61-2.92s-2.3-2-3.53-2.83a18.15 18.15 0 0 0 -7.48-3.17s-.03-.04 0-.04z" fill="#263238"/><path d="m251.69 239.2a45.12 45.12 0 0 1 8.72 2.84c3 1.47 5.39 3.9 7.73 6.24 1.4 1.41 2.78 2.84 4.11 4.31.06.06 0 .16-.08.1q-3.56-3.63-7.33-7a24 24 0 0 0 -8-4.83c-1.69-.61-3.43-1.09-5.16-1.57-.03-.05-.02-.1.01-.09z" fill="#263238"/><path d="m254.75 235c2.87.54 5.37 1 7.92 2.47a40.8 40.8 0 0 1 7.82 6.5c1.28 1.31 2.51 2.66 3.72 4 0 .05 0 .14-.1.08a95.62 95.62 0 0 0 -8.86-8.45 18.73 18.73 0 0 0 -4.92-3.07 34.7 34.7 0 0 0 -5.58-1.55s-.01.02 0 .02z" fill="#263238"/><path d="m229.42 257.08 9.52-25.31s-26.09-1.59-27.75-2.7-10-17.11-16.32-27.87c-5-8.45-11.36-8-8.77 8.9 2.73 17.79 5 31.79 9.4 36 7.37 6.97 33.92 10.98 33.92 10.98z" fill="#407bff"/><path d="m229.42 257.08 9.52-25.31s-26.09-1.59-27.75-2.7-10-17.11-16.32-27.87c-5-8.45-11.36-8-8.77 8.9 2.73 17.79 5 31.79 9.4 36 7.37 6.97 33.92 10.98 33.92 10.98z" opacity=".1"/><path d="m229.17 243.78q1.14-3 2.21-6c.74-2.07 1.31-4.2 2.11-6.24 0-.09-.11-.12-.14 0-.76 2-1.75 4-2.57 6s-1.58 3.93-2.34 5.91c-1.52 4-3.07 8-4.31 12.1a.11.11 0 0 0 .21.08c1.79-3.84 3.31-7.87 4.83-11.85z" fill="#263238"/><path d="m208.7 252.38c-5.46-1.68-10.56-3.82-13.2-6.33-4.37-4.16-6.67-18.16-9.4-36-2.08-13.5 1.6-16.5 5.71-12.83z" fill="#263238"/><path d="m195.35 263.65c-1.51 1.19-60.91 1.26-61.16.83-.67-1.14 16-55.15 41.48-71.73 4.49-2.92 11.27-.81 14.19 1.53 1.46 1.17 5.66 10 6.18 17.16s.26 51.45-.69 52.21z" fill="#407bff"/><path d="m274.32 183.16s4.58-3.5 6.71-.19-2.94 6-2.94 6z" fill="#455a64"/><path d="m244.24 210.81-5.61.51-1.86.18.92-1.62 2.78-4.9 34-21.93 3.76 5.83-34 21.94z" fill="#455a64"/><path d="m238.61 211.33-1.85.17.92-1.62z" fill="#37474f"/><path d="m277.43 190.12-4.4-6.81 1.35-.88 4.4 6.82z" fill="#37474f"/><path d="m275.93 191.08-4.4-6.81 1.35-.87 4.41 6.81z" fill="#37474f"/><path d="m271.53 184.27 1.42 2.2-13.1 6.72-.48-.84z" fill="#37474f"/><path d="m172.41 206.26c5 16.06 15.77 32.63 25.23 34.59s34.39-7.59 42-10.83c2.94-1.25-5.71-26.43-8.85-25.07-5.33 2.31-28.52 14.34-30.32 13.77-1.14-.36-10.81-8.34-18.89-16.6-10.46-10.73-10.72-.84-9.17 4.14z" fill="#dd6a57"/><path d="m268.92 197c.76 3.1-7.05 4.32-7.05 4.32a5.94 5.94 0 0 1 3.13 2.58c1.12 2.14-1.76 4.85-1.76 4.85a7.24 7.24 0 0 1 2.76 3.25c.87 2.17-1.64 5.31-1.64 5.31a6.37 6.37 0 0 1 .69 4.39c-1 4-6.91 5.93-10.67 7.21s-15.64 1.4-17.9 1.65l-8.45-24s15.24-10.54 19.88-11.42c3.92-.82 19.85-2.87 21.01 1.86z" fill="#dd6a57"/><path d="m261.79 201.26a53.72 53.72 0 0 0 -13 1.47.08.08 0 1 0 0 .15c4.19-.89 8.72-.69 12.93-1.41a.11.11 0 0 0 .07-.21z" fill="#263238"/><path d="m263 208.46a11.56 11.56 0 0 0 -2.92.53c-1 .26-2 .54-3 .83q-3 .87-6 1.9c-.09 0-.06.17 0 .14 2-.57 4-1.12 6.08-1.61q1.53-.37 3.06-.72a13.14 13.14 0 0 0 2.86-.78.15.15 0 0 0 -.08-.29z" fill="#263238"/><path d="m264.29 217.3a8 8 0 0 0 -2.6.62l-2.75.84c-1.83.55-3.67 1.1-5.52 1.58a.08.08 0 1 0 0 .15c1.88-.49 3.78-.94 5.66-1.44l2.77-.76a7.38 7.38 0 0 0 2.45-.9s.04-.09-.01-.09z" fill="#263238"/><path d="m223.42 207.2 10.1 27.49s-28.61 9.83-37.21 6.89-19.85-20.95-23.31-31.58-2.08-19.35 10.73-7.06 16.35 15 17.2 14.84 22.49-10.58 22.49-10.58z" fill="#407bff"/><path d="m223.42 207.2 10.1 27.49s-28.61 9.83-37.21 6.89-19.85-20.95-23.31-31.58-2.08-19.35 10.73-7.06 16.35 15 17.2 14.84 22.49-10.58 22.49-10.58z" opacity=".1"/><path d="m233.22 234.67c-4.32 1.38-8.63 2.72-13 3.81s-15.64 3.41-20.22 3.39a11.53 11.53 0 0 1 -6-2 24.37 24.37 0 0 1 -4.79-4.22c-1.49-1.62-2.9-3.32-4.28-5-1.59-1.94-3.11-3.92-4.62-5.92s-3.2-4.19-4.65-6.39c0-.07-.18 0-.13.07 1.27 2 2.47 3.94 3.77 5.87.54.79 1.09 1.57 1.65 2.35-.31-.25-.6-.5-.91-.73-1.16-.87-2.35-1.7-3.46-2.64a.07.07 0 1 0 -.09.11c1.13.88 2.17 1.86 3.23 2.83.51.47 1 .93 1.57 1.37.25.21.5.42.76.62l.1.09 1.16 1.56c1.39 1.83 2.81 3.65 4.28 5.42a29.61 29.61 0 0 0 4.6 4.56 13 13 0 0 0 5.67 2.74c4.25.67 15.88-1.69 20.42-2.78a116.46 116.46 0 0 0 15.07-4.61c.29-.17.19-.6-.13-.5z" fill="#263238"/><path d="m205 216c-.64.26-2.92 1.53-3.68 1.56a2.82 2.82 0 0 1 -1.93-.88c-.59-.49-1.17-1-1.77-1.51l-2.22-1.83c0-.06-.07-.11-.1-.16l-.33-.5c-.23-.33-.46-.65-.7-1-.47-.62-1-1.23-1.44-1.84-.06-.07-.16 0-.1.1.48.63.92 1.3 1.36 2l.42.66-.36-.3c-.58-.47-2.43-1.94-3.57-2.93-.07-.07-.17 0-.09.11 1 .87 3.33 3 4 3.63q1.85 1.71 3.75 3.38c1 .83 2 1.92 3.38 1.63a17.24 17.24 0 0 0 3.55-2c.04-.06-.1-.2-.17-.12z" fill="#263238"/><path d="m224.08 222.74c-.71-2-1.43-4-2.18-6s-1.71-4.05-2.42-6.12c0-.09-.16 0-.13.06.74 2.05 1.25 4.19 1.93 6.26s1.33 4 2 6c1.42 4 2.83 8.1 4.52 12 0 .12.25.06.21-.07-1.09-4.06-2.53-8.11-3.93-12.13z" fill="#263238"/><path d="m188.89 203c-3.41.71-9.09-4.63-11.27-8.89-.15-.3 1.37-11.77 1.43-14.07 0-.48 14.38 3.91 14.38 3.91a36.72 36.72 0 0 0 -1.65 8.81c0 .32.41 9.53-2.89 10.24z" fill="#dd6a57"/><path d="m191.86 193.69s0 .1 0 .15h-.07a9.35 9.35 0 0 1 -1.42 0c-7.87-.4-10.25-10.14-10.88-13.87 2.44.4 13.93 3.91 13.93 3.91a36.72 36.72 0 0 0 -1.65 8.81v.32a4.17 4.17 0 0 0 .09.68z" fill="#263238"/><path d="m179.21 162.76c-2.05 5-.78 20 2.54 23.59 4.81 5.27 13.39 6.56 18.05.63 4.53-5.76 2.52-25.28-1.25-28.66-5.55-4.97-16.31-2.88-19.34 4.44z" fill="#dd6a57"/><path d="m193 173.1s-.08.05-.07.09c.11 1 .07 2.19-.82 2.59 0 0 0 .07 0 .06 1.13-.25 1.17-1.84.89-2.74z" fill="#263238"/><path d="m192 172.11c-1.64 0-1.51 3.28 0 3.28s1.39-3.28 0-3.28z" fill="#263238"/><path d="m198.62 173s.08 0 .08.09c0 1 .19 2.17 1.12 2.47a0 0 0 0 1 0 .06c-1.13-.09-1.36-1.62-1.2-2.62z" fill="#263238"/><path d="m199.48 171.93c1.63-.19 1.89 3.07.38 3.25s-1.74-3.09-.38-3.25z" fill="#263238"/><path d="m190.66 170.67a10.51 10.51 0 0 0 1.25-.5 2.12 2.12 0 0 0 1.18-.75.69.69 0 0 0 -.14-.83 1.74 1.74 0 0 0 -1.74-.11 2.48 2.48 0 0 0 -1.41 1.15.74.74 0 0 0 .86 1.04z" fill="#263238"/><path d="m200.68 170.23a12 12 0 0 1 -1.32-.29 2.14 2.14 0 0 1 -1.28-.54.7.7 0 0 1 0-.85 1.74 1.74 0 0 1 1.7-.39 2.55 2.55 0 0 1 1.58.9.74.74 0 0 1 -.68 1.17z" fill="#263238"/><path d="m192.18 182.54c.25.23.51.54.88.56a2.77 2.77 0 0 0 1.08-.3 0 0 0 0 1 .05 0 1.39 1.39 0 0 1 -1.27.6 1.07 1.07 0 0 1 -.83-.86c-.02-.01.05-.03.09 0z" fill="#263238"/><path d="m193.12 179.46a3.47 3.47 0 0 0 2.37 1.44 4.36 4.36 0 0 0 1.25 0h.23.22a.26.26 0 0 0 .2-.24.43.43 0 0 0 0-.11v-.09c0-.78-.14-2-.14-2 .3.13 1.78.73 1.74.32a52 52 0 0 0 -1.77-10.39.09.09 0 0 0 -.18 0c.2 3.25 1 6.44 1.22 9.7a5.91 5.91 0 0 0 -1.66-.43c-.11 0 .29 2.28.26 2.63a4.83 4.83 0 0 1 -3.62-1c-.1.02-.18.09-.12.17z" fill="#263238"/><path d="m196.26 180.53a4.1 4.1 0 0 1 -1.59 1.34 1.84 1.84 0 0 1 -1.12.11c-.82-.18-.87-.92-.74-1.56a4.54 4.54 0 0 1 .32-1 5.32 5.32 0 0 0 3.13 1.11z" fill="#263238"/><path d="m194.67 181.87a1.84 1.84 0 0 1 -1.12.11c-.82-.18-.87-.92-.74-1.56a1.91 1.91 0 0 1 1.86 1.45z" fill="#ff99ba"/><path d="m200.63 164.34c-5.17 3.53-12.24-1.82-12.24-1.82a5.62 5.62 0 0 1 -5.7 3.55s-1 8.73-3.32 8.71c-3.52 0-4.6-11.93-3.49-14.27s4.09-2.94 4.09-2.94a5.74 5.74 0 0 1 2.39-3.47c2.4-1.83 10.68.64 10.68.64a7.64 7.64 0 0 1 2.12-2.85 2.17 2.17 0 0 1 3.13.28 5.18 5.18 0 0 0 -.84 2.16c-.42 2.55 1.67 2.55 1.65.23a3.58 3.58 0 0 0 -.81-2.39c1-1.51 2.72-2 3.74-1.19 1.86 1.47 2.89 10.42-1.4 13.36z" fill="#263238"/><path d="m181.2 175.08s-3-5-5.24-4-.27 8.14 2.2 9.28a2.6 2.6 0 0 0 3.58-1.12z" fill="#dd6a57"/><path d="m176.58 173.1s-.05.05 0 .07c1.74.85 2.55 2.58 3.08 4.34a1.44 1.44 0 0 0 -2.11-.55c-.05 0 0 .11 0 .1a1.61 1.61 0 0 1 1.71.69 7.27 7.27 0 0 1 .73 1.48c.07.17.37.1.32-.09.23-2.31-1.31-5.63-3.73-6.04z" fill="#263238"/><path d="m204.73 270.67-24.74 162.34h-4.87l15.26-162.34z" fill="#455a64"/><path d="m204.72 270.67-2.36 15.51h-13.44l1.46-15.51z" fill="#263238"/><path d="m545.27 270.67 24.74 162.34h4.87l-15.26-162.34z" fill="#455a64"/><path d="m545.28 270.67 2.36 15.51h13.44l-1.46-15.51z" fill="#263238"/><path d="m165.92 259.13h418.16v8.16h-418.16z" fill="#455a64"/><path d="m170.53 267.3h408.93v3.37h-408.93z" fill="#263238"/><path d="m536.28 332.64-2.37 14.24-16.08 86.81h-2.59l11.69-86.81 1.73-14.24z" fill="#dbdbdb"/><path d="m528.66 332.64h7.62l-2.37 14.24h-6.98z" fill="#a6a6a6"/><path d="m586.77 433.69h-2.59l-16.08-86.81-2.37-14.24h7.62l1.73 14.24z" fill="#dbdbdb"/><path d="m573.35 332.64 1.73 14.24h-6.98l-2.37-14.24z" fill="#a6a6a6"/><path d="m634.99 433.69h-2.59l-16.08-86.81-2.37-14.24h7.62l1.73 14.24z" fill="#dbdbdb"/><path d="m623.3 346.88h-6.98l-2.37-14.24h7.62z" fill="#a6a6a6"/><path d="m630.88 339.33h-117.8v-12.41h44.1l14.82-86.23h54.39z" fill="#dbdbdb"/><path d="m630.88 339.33h-6.42l-4.19-98.64h6.12z" fill="#a6a6a6"/><path d="m506.41 453.39c2.28.22 64.36-14.64 66.32-16.65.24-.23-1-5.87-2.79-13.56v-.16c-1.12-4.87-19.25-44.32-19.25-44.32l-40.28 11.3 18.32 36.6s-7.57 5.48-14.05 10.68a87.11 87.11 0 0 0 -8.19 7c-1.92 2.39-2.36 8.92-.08 9.11z" fill="#dd6a57"/><path d="m506.41 453.39c2.28.22 64.36-14.64 66.32-16.65.24-.23-1-5.87-2.79-13.57v-.14c-.41-1.82-3.2-8.45-6.53-16-6.62 1.79-30.36 8.23-39 10.91l4.34 8.67s-7.57 5.48-14.06 10.68a87.11 87.11 0 0 0 -8.19 7c-1.93 2.39-2.37 8.91-.09 9.1z" fill="#fff"/><path d="m506.2 453.69c2.35.2 64.48-14.83 66.49-16.9.76-.78-.62-10.58-4-21l-40 9.74s-20.44 16.21-22.4 18.72-2.43 9.24-.09 9.44z" fill="#407bff"/><path d="m506.49 451c10.36-2.78 52.37-13 62.82-14.94.08 0 .1 0 0 .06-10.21 3-52.31 12.85-62.79 15.05-.21.04-.24-.12-.03-.17z" fill="#263238"/><path d="m509.67 441.08a8.63 8.63 0 0 1 6.85 1 8.36 8.36 0 0 1 3.67 5c0 .06-.1.09-.13 0a9.94 9.94 0 0 0 -10.36-5.93c-.08.07-.11-.05-.03-.07z" fill="#263238"/><path d="m525.6 427.39c4.15-1.06 9.34-.76 12.75 2 .14.11 0 .29-.16.26a59.58 59.58 0 0 0 -12.54-1.75.27.27 0 0 1 -.05-.51z" fill="#263238"/><path d="m522.68 429.42c4.16-1.06 9.35-.76 12.76 2 .13.11 0 .3-.16.26a59.58 59.58 0 0 0 -12.55-1.68.27.27 0 0 1 -.05-.58z" fill="#263238"/><path d="m519.77 431.46c4.15-1.07 9.34-.77 12.76 2 .13.1 0 .29-.17.26a58.85 58.85 0 0 0 -12.54-1.72.27.27 0 0 1 -.05-.54z" fill="#263238"/><path d="m516.85 433.49c4.16-1.07 9.35-.76 12.76 2 .13.11 0 .29-.16.26a59.58 59.58 0 0 0 -12.54-1.75.27.27 0 0 1 -.06-.51z" fill="#263238"/><path d="m564.26 426.79c4.68-1.11 6.43 6.16 1.74 7.28s-6.42-6.16-1.74-7.28z" fill="#263238"/><path d="m520.21 423.39c2.95 2.36 6.82 3.35 10.29 4.69.36.14.65-.2.67-.52a.12.12 0 0 0 .1-.15 22.53 22.53 0 0 0 -6.37-9.74c-1.74-1.51-4.81-2.57-6.5-.31s.09 4.64 1.81 6.03zm-1-3.41c-.68-4.63 4.26-2.14 5.49-1a24.33 24.33 0 0 1 2.21 2.44c1.43 1.77 2.59 3.71 3.84 5.61-1.66-.76-3.37-1.37-5.06-2.07-2.04-.81-6.13-2.42-6.51-4.96z" fill="#263238"/><path d="m545.43 421.17c-1-2.64-4.24-2.48-6.33-1.53a22.5 22.5 0 0 0 -8.84 7.57.11.11 0 0 0 0 .17.53.53 0 0 0 .5.69c3.7-.31 7.69-.18 11.19-1.62 2.05-.84 4.41-2.78 3.48-5.28zm-9.11 5.28c-1.81.2-3.63.3-5.44.57 1.73-1.47 3.39-3 5.27-4.31a22.83 22.83 0 0 1 2.85-1.71c1.51-.77 6.95-1.78 5 2.48-1.14 2.34-5.51 2.74-7.68 2.97z" fill="#263238"/><path d="m524.18 423.21 43.11-12.93s-35.53-74-34.41-77.82c.74-2.51 54-2.69 69.64-16.71 16.16-14.51 3.57-43 3.57-43l-44.79-.23s.77 9.34-.94 10.8c-1.13 1-62.37 6.36-74.1 28.88-10.64 20.42 37.92 111.01 37.92 111.01z" fill="#263238"/><path d="m532.87 332.46c-.19.64.67 3.3 2.25 7.28l-32.19 39.55c-11.48-26.17-22.28-56.35-16.67-67.1 11.73-22.52 73-27.91 74.1-28.88 1.7-1.45.94-10.81.94-10.81l28.43.15-47.25 58c-5.69.67-9.41 1.16-9.61 1.81z" fill="#263238"/><path d="m523.11 414.09a27.36 27.36 0 0 1 3.51-1.3c1.25-.43 2.49-.85 3.74-1.25q3.69-1.2 7.42-2.26c5-1.41 10-2.8 15.06-4.08 2.63-.67 8.26-2.13 8.61-2.07a.2.2 0 0 1 .06.36c-4.88 1.74-9.83 3.23-14.77 4.74s-9.89 3-14.9 4.26c-1.39.35-2.78.66-4.17 1a32.06 32.06 0 0 1 -4.43.95c-.15.01-.24-.27-.13-.35z" fill="#455a64"/><path d="m603.69 281.27c-.14-1.5-.31-3-.48-4.48 0-.17-.29-.17-.27 0 .6 6.06 1.21 12.26.1 18.3a26.09 26.09 0 0 1 -8 14.5c-8.88 8.28-21.31 10.72-32.89 12.69-6.63 1.13-13.3 2-20 2.66q-4.92.48-9.86.79c-3.25.2-6.52.23-9.78.41-1 .06-2 .53-1.79 1.71a8.13 8.13 0 0 0 .79 2c.34.8.7 1.59 1 2.38q2 4.44 3.94 8.86 4.1 9.14 8.3 18.2 8.34 18 17.32 35.72l2.23 4.4c0 .09.19 0 .15-.09q-8.58-17.94-16.94-36c-2.76-6-5.53-11.93-8.26-17.92q-2.06-4.49-4.08-9l-2-4.5-1-2.25c-.28-.63-1.29-2.12-.59-2.71.46-.38 1.43-.25 2-.27l2.6-.08c1.65-.06 3.29-.12 4.94-.21q5-.24 10-.68c6.51-.56 13-1.39 19.45-2.43 11.51-1.85 24-3.94 33.23-11.66a27.7 27.7 0 0 0 8.83-12.88c1.76-5.57 1.6-11.62 1.06-17.46z" fill="#455a64"/><path d="m411.69 396.63c1.62 1.62 58.91 29.78 61.7 29.47.33 0 3-5.15 6.5-12.23l.07-.13c2.25-4.48 22.63-42.12 22.63-42.12l-35.65-18.05-20.94 36.63s-9.33-.61-17.64-.74a87.52 87.52 0 0 0 -10.77.16c-3.04.66-7.53 5.38-5.9 7.01z" fill="#dd6a57"/><path d="m411.69 396.63c1.62 1.62 58.91 29.78 61.71 29.47.32 0 3-5.15 6.49-12.22l.07-.14c.16-.31.32-.63.49-.94s.23-.46.35-.68.36-.68.54-1c1.55-2.95 4.1-7.71 6.91-12.92l-36.35-18.33-5.9 10.33s-9.32-.6-17.63-.74a90.28 90.28 0 0 0 -10.76.15c-3.05.68-7.56 5.39-5.92 7.02z" fill="#fff"/><path d="m411.34 396.73c1.68 1.65 59.12 29.7 62 29.39 1.09-.12 6.28-8.55 10.27-18.73l-37-18s-26.08-.54-29.19.14-7.76 5.55-6.08 7.2z" fill="#407bff"/><path d="m413.29 394.84c9.74 4.46 48.62 23.39 57.91 28.55.08 0 .05.09 0 .06-9.75-4.22-48.48-23.46-58-28.46-.2-.1-.12-.25.09-.15z" fill="#263238"/><path d="m422.05 389.23a8.6 8.6 0 0 1 4.62 5.16 8.39 8.39 0 0 1 -.36 6.19c0 .06-.14 0-.12-.06a9.94 9.94 0 0 0 -4.19-11.17c-.08-.05 0-.16.05-.12z" fill="#263238"/><path d="m443.05 388.84c3.88 1.83 7.68 5.37 8.54 9.69 0 .17-.21.22-.29.1a59.67 59.67 0 0 0 -8.55-9.35.27.27 0 0 1 .3-.44z" fill="#263238"/><path d="m439.51 388.55c3.88 1.83 7.68 5.37 8.54 9.69 0 .17-.21.21-.29.1a59.67 59.67 0 0 0 -8.55-9.35.27.27 0 0 1 .3-.44z" fill="#263238"/><path d="m436 388.26c3.88 1.82 7.68 5.37 8.54 9.69 0 .17-.21.21-.29.09a59.6 59.6 0 0 0 -8.55-9.34.27.27 0 0 1 .3-.44z" fill="#263238"/><path d="m432.43 388c3.88 1.83 7.68 5.37 8.53 9.69 0 .17-.2.22-.29.1a58.62 58.62 0 0 0 -8.54-9.34.27.27 0 0 1 .3-.45z" fill="#263238"/><path d="m473.21 413c4.32 2.13 1 8.84-3.3 6.71s-1.02-8.8 3.3-6.71z" fill="#263238"/><path d="m441.46 382.32c.76 3.7 3.11 6.94 4.93 10.18a.52.52 0 0 0 .84 0 .1.1 0 0 0 .17 0 22.55 22.55 0 0 0 1.32-11.56c-.39-2.27-2.07-5.05-4.81-4.38s-2.91 3.6-2.45 5.76zm1.38-3.28c2.43-4 4.64 1.07 4.85 2.75a24.08 24.08 0 0 1 .14 3.29 66.77 66.77 0 0 1 -.62 6.77c-.79-1.65-1.72-3.21-2.58-4.83-1.01-1.92-3.13-5.77-1.79-8.02z" fill="#263238"/><path d="m462.29 396.7c.93-2.67-1.68-4.61-3.9-5.21a22.59 22.59 0 0 0 -11.63.18.11.11 0 0 0 -.07.17.53.53 0 0 0 -.06.85c3.05 2.12 6 4.76 9.65 5.89 2.11.65 5.13.64 6.01-1.88zm-10.38-1.7c-1.52-1-3-2.08-4.55-3a64.27 64.27 0 0 1 6.8 0 24.1 24.1 0 0 1 3.26.45c1.65.38 6.48 3.07 2.26 5.1-2.33 1.09-5.95-1.39-7.77-2.55z" fill="#263238"/><path d="m446.17 384.28 43 21.47s33.55-68.21 37.23-72.6c4.9-5.86 68.81 2.41 83.89-16.51 15.59-19.57 2.23-43.87 2.23-43.87h-48.65a40.67 40.67 0 0 0 2.65 13.23s-55.63-3.31-71.37 12c-12.08 11.76-48.98 86.28-48.98 86.28z" fill="#263238"/><path d="m575.39 290.94a83.79 83.79 0 0 0 -7.74-4.73 31.72 31.72 0 0 0 -5.86-2.37c-1.42-.34-2-.45-.71.18l3.58 1.7h-.76c-.95-.05-1.91-.08-2.87-.11-1.87 0-3.74 0-5.61 0-3.8 0-7.55.33-11.34.52-.1 0-.1.16 0 .16 3.78-.12 7.58.08 11.36.06 1.87 0 3.74.05 5.61.08l2.75.05a22.44 22.44 0 0 0 2.32 0l1 .5c2.75 1.3 5.5 2.65 8.15 4.14.11-.02.2-.12.12-.18z" fill="#455a64"/><path d="m562.71 270.92c.5 2.3.92 4.61 1.5 6.88.26 1.05.52 2.11.88 3.13.3.86.77 1.84 1.74 2.06s1.48-.7 1.42-1.63-.3-2.1-.47-3.13c-.2-1.19-.4-2.38-.57-3.58-.09-.59-.18-1.19-.26-1.79 0-.15-.1-1.29-.17-1.62 0 0 0 .06-.06.05a.07.07 0 0 1 -.07-.06c0-.09 0-.11.06-.17a.11.11 0 0 1 .11 0c.21.13.22.42.28.64.16.59.33 1.17.48 1.75.28 1.1.55 2.2.79 3.31s.47 2.21.7 3.32a5.06 5.06 0 0 1 .14 2.53 2 2 0 0 1 -1.84 1.4 1.51 1.51 0 0 1 .11.22c.09.23.16.47.24.7s.14.48.2.72a2.25 2.25 0 0 1 .06.36v.39a.19.19 0 0 1 -.36.12 3.62 3.62 0 0 0 -.2-.33 2.62 2.62 0 0 1 -.15-.39q-.11-.35-.18-.69c0-.23-.11-.47-.14-.7a2 2 0 0 1 0-.42 2.59 2.59 0 0 1 -1.3-.55 4.39 4.39 0 0 1 -1.29-2.12c-.31-1-.54-1.95-.78-2.93a42.06 42.06 0 0 1 -1.2-7.38.21.21 0 0 1 .33-.09z" fill="#455a64"/><path d="m586.17 277.46c.17 1.13.26 2.28.48 3.41s.48 2.21.8 3.28a12.16 12.16 0 0 0 1.29 3 11 11 0 0 0 2.14 2.33 18.93 18.93 0 0 0 5.24 3.16 25.92 25.92 0 0 0 2.94 1c.52.13 1.05.24 1.58.33a3.29 3.29 0 0 1 1.27.34.25.25 0 0 1 0 .44 4.61 4.61 0 0 1 -2.36 0 15.69 15.69 0 0 1 -2.52-.53 18.23 18.23 0 0 1 -4.7-2.17 14.85 14.85 0 0 1 -3.88-3.4 11.23 11.23 0 0 1 -2-4.75 23.11 23.11 0 0 1 -.48-6.37.11.11 0 0 1 .2-.07z" fill="#455a64"/><path d="m454.9 376.46a25.48 25.48 0 0 1 3.45 1.46c1.19.54 2.39 1.09 3.58 1.65 2.33 1.12 4.64 2.26 6.93 3.46 4.62 2.41 9.22 4.84 13.76 7.37 2.37 1.32 7.47 4.13 7.68 4.41.11.13-.06.36-.2.3-4.74-2.08-9.37-4.39-14-6.69s-9.24-4.61-13.75-7.13c-1.25-.7-2.48-1.43-3.72-2.15a29.34 29.34 0 0 1 -3.87-2.35c-.12-.09-.03-.38.14-.33z" fill="#455a64"/><path d="m612.48 284.08a.17.17 0 0 0 -.33 0c.1 10.56-1.54 22.37-9.67 30-8.91 8.31-21.77 9.3-33.35 9.2-6.64-.05-13.27-.22-19.92 0s-13.41.54-20 1.38a11 11 0 0 0 -6.8 3.26 35 35 0 0 0 -4.51 6.48q-5 8.31-9.71 16.8-9.38 16.8-17.32 34.4-1 2.17-2 4.37c0 .1.1.18.15.08q8.07-17.64 17.37-34.67 4.63-8.52 9.58-16.87c1.55-2.61 3-5.29 4.78-7.79 1.53-2.21 3.44-4.29 6.09-5.09a24.94 24.94 0 0 1 5-.72c1.7-.16 3.39-.3 5.09-.42q5-.36 10-.54c6.7-.25 13.38-.16 20.08 0 11.63.21 24.34-.19 34-7.6a27.36 27.36 0 0 0 9-12.51 49.4 49.4 0 0 0 2.59-15.73q-.07-2.03-.12-4.03z" fill="#455a64"/><path d="m542.85 330.35c-2.37 0-4.74.14-7.11.22a28.38 28.38 0 0 0 -5.89.53c-1.79.44-3.22.66-4.69 2.67-1.83 2.5-11.82 21.8-16 30.34-1.17 2.37-2.32 4.74-3.44 7.13s-2.2 5-3.36 7.45c0 .09.1.17.14.08 1-2.06 2.17-4.07 3.23-6.11s2.1-4.11 3.13-6.18q3.14-6.24 6.24-12.48c2.07-4.12 4.6-8.14 6.7-12.24 1.77-3.45 4.19-8.16 5.87-8.86a28 28 0 0 1 7.33-1.8c2.61-.18 5.23-.34 7.84-.56a.1.1 0 0 0 .01-.19z" fill="#455a64"/><path d="m580.15 220c-4.84 8.25-34.92 41.69-55.89 39-7.12-.91-4.74-29.48 11-56.81.46-.81 21.62 4 21.11 9.09-.05.55-4.59 13.88-5.08 13.49s8.23-4.11 22.74-10.1c6.85-2.85 8.97.33 6.12 5.33z" fill="#ad6359"/><path d="m551.42 223.6c-2.33 6.83-4.79 13.61-7.43 20.32-.74 1.87-1.46 3.74-2.18 5.62 0 .06.08.1.11 0a104.93 104.93 0 0 0 4.48-9.84c1.32-3.33 2.58-6.71 3.56-10.15.57-2 1.1-4 1.59-6 .02 0-.1-.03-.13.05z" fill="#263238"/><path d="m532.81 207.27s3.36-8.65 8.53-13.38c3.58-3.26 8.61-8.53 22.43-4.3 3.28 1 8.62 6.57 6.55 8.49s-6.32-3.92-11.15-4.47c0 0 4.48 5.1 3.35 8.35a64.39 64.39 0 0 1 -3.57 8.27 14.54 14.54 0 0 1 -1.61-.53s-1.16 3-5.66 5z" fill="#ad6359"/><path d="m545.25 191.32c2.54-.06 7.92-.09 12.33 1.42 4.9 1.67 13.89 6.21 12.61 9.81-.93 2.65-4.51 1.21-4.51 1.21s3.32 2.66 2 4.87c-1.24 2-4 .73-4 .73s1.74 2 .17 3.66c-1.89 2-6.42-3.35-10.13-2.93-.83.1-8.47-18.77-8.47-18.77z" fill="#ad6359"/><path d="m555 197.62a20.62 20.62 0 0 1 10.71 6c.07.08.05.17 0 .11a51.05 51.05 0 0 0 -10.7-6.1 0 0 0 0 1 -.01-.01z" fill="#263238"/><path d="m557.31 192.25a20.62 20.62 0 0 1 10.71 6c.07.08.05.17 0 .11a51.2 51.2 0 0 0 -10.69-6.11s-.04-.01-.02 0z" fill="#263238"/><path d="m553.41 202.61a23.3 23.3 0 0 1 10.33 6.67c.06.08 0 .18 0 .11a54.57 54.57 0 0 0 -10.31-6.73s-.05-.05-.02-.05z" fill="#263238"/><path d="m557 210.75a9.81 9.81 0 0 0 -5.82-1.62.06.06 0 0 0 0 .12c1.67.37 3 .75 3.05.76-2.12 2.56-5.88 3.61-7.48 3.91-.11 0-.07.17 0 .17 3 0 6.23-1.34 7.67-4a25.61 25.61 0 0 0 2.53.75s.05-.06.05-.09z" fill="#263238"/><path d="m551.44 223.33 18.48 10.56a159.48 159.48 0 0 0 10.84-12.61c4.6-6.44 3.29-9.66-6.15-7.43-6.31 1.49-23.17 9.48-23.17 9.48z" fill="#407bff"/><path d="m567.55 223.55a6.81 6.81 0 0 1 -.89-1.51 6.7 6.7 0 0 1 -.49-1.67 6.34 6.34 0 0 1 .88 1.5 6.8 6.8 0 0 1 .5 1.68z" fill="#fff"/><path d="m576.33 221.35a6.76 6.76 0 0 1 1.51-.88 6.33 6.33 0 0 1 1.67-.5 7 7 0 0 1 -3.18 1.38z" fill="#fff"/><path d="m572.73 230.86-.3.32a5.92 5.92 0 0 1 -1.24-.71 6 6 0 0 1 1.54.39z" fill="#fff"/><path d="m574.08 217a7.31 7.31 0 0 1 -3.23-1.27 6.37 6.37 0 0 1 1.69.44 6.75 6.75 0 0 1 1.54.83z" fill="#fff"/><path d="m558 222.28a6.37 6.37 0 0 1 -.44 1.69 6.75 6.75 0 0 1 -.83 1.54 6.37 6.37 0 0 1 .44-1.69 6.75 6.75 0 0 1 .83-1.54z" fill="#fff"/><path d="m567.66 232.61c.22.08 2.15 1.1 2.27 1.21.84-.93 1.67-1.88 2.53-2.8.43-.46.86-.92 1.3-1.37s1-1.08 1.45-1.51c.07-.07.16 0 .1.08-.5.63-.9 1.07-1.34 1.61s-.79.95-1.21 1.41c-.87 1-1.76 2.06-2.68 3a21.36 21.36 0 0 1 -2.46-1.56s0-.08.04-.07z" fill="#263238"/><path d="m554.31 222.65c2.8 1.35 5.57 2.74 8.28 4.25 1.35.76 2.69 1.53 4 2.33s2.58 1.72 3.92 2.5c.07 0 0 .16-.08.11-1.29-.84-2.71-1.52-4.05-2.29s-2.68-1.54-4-2.3c-2.7-1.51-5.4-3-8.13-4.49-.08-.04-.01-.14.06-.11z" fill="#263238"/><path d="m559.66 275s19.39 4.6 56.12 1.42c0 0-14.36-45.85-25.93-58.21-5.26-5.62-10.41-4.76-14.77-1.15-1.09.91-14.58 18-15.72 24-1 5.28 3.28 11.13 3.28 11.13z" fill="#407bff"/><g fill="#fff"><path d="m597.34 256.82a7.25 7.25 0 0 1 -1.38-3.18 6.4 6.4 0 0 1 .88 1.51 6.33 6.33 0 0 1 .5 1.67z"/><path d="m581.53 237.17a6.81 6.81 0 0 1 -.89-1.51 6.7 6.7 0 0 1 -.49-1.67 7.25 7.25 0 0 1 1.38 3.18z"/><path d="m609.83 274.61a6.4 6.4 0 0 1 -.88-1.51 6.33 6.33 0 0 1 -.5-1.67 6.52 6.52 0 0 1 .89 1.5 6.78 6.78 0 0 1 .49 1.68z"/><path d="m574.7 261.48a6.7 6.7 0 0 1 -.88-1.5 6.38 6.38 0 0 1 -.49-1.68 6.76 6.76 0 0 1 .88 1.51 6.31 6.31 0 0 1 .49 1.67z"/><path d="m586.18 218.51a6.4 6.4 0 0 1 -.88-1.51 6.33 6.33 0 0 1 -.5-1.67 7 7 0 0 1 1.38 3.18z"/><path d="m583.25 254.22a6.81 6.81 0 0 1 1.51-.89 6.7 6.7 0 0 1 1.67-.49 6.34 6.34 0 0 1 -1.5.88 6.8 6.8 0 0 1 -1.68.5z"/><path d="m564.79 245a6.81 6.81 0 0 1 1.51-.89 6.7 6.7 0 0 1 1.67-.49 6.34 6.34 0 0 1 -1.5.88 6.8 6.8 0 0 1 -1.68.5z"/><path d="m576.33 221.35a6.76 6.76 0 0 1 1.51-.88 6.33 6.33 0 0 1 1.67-.5 7 7 0 0 1 -3.18 1.38z"/><path d="m575.45 273a7.39 7.39 0 0 1 3.18-1.38 6.38 6.38 0 0 1 -1.5.89 6.78 6.78 0 0 1 -1.68.49z"/><path d="m595.54 233a7 7 0 0 1 3.18-1.38 6.4 6.4 0 0 1 -1.51.88 6.72 6.72 0 0 1 -1.67.5z"/><path d="m598.79 268a6.21 6.21 0 0 1 1.51-.88 6.33 6.33 0 0 1 1.67-.5 7.39 7.39 0 0 1 -3.18 1.38z"/><path d="m589.7 263.7a6.78 6.78 0 0 1 -1.69-.44 6.36 6.36 0 0 1 -1.53-.84 6.78 6.78 0 0 1 1.69.44 6.36 6.36 0 0 1 1.53.84z"/><path d="m566.43 255.81a6.39 6.39 0 0 1 -1.69-.45 6.06 6.06 0 0 1 -1.54-.83 6.78 6.78 0 0 1 1.69.44 6.42 6.42 0 0 1 1.54.84z"/><path d="m592.1 241.42a7.21 7.21 0 0 1 -3.22-1.27 6.37 6.37 0 0 1 1.69.44 6.69 6.69 0 0 1 1.53.83z"/><path d="m574.42 231.75a6.78 6.78 0 0 1 -1.69-.44 6.42 6.42 0 0 1 -1.54-.84 6.78 6.78 0 0 1 1.69.44 6.42 6.42 0 0 1 1.54.84z"/><path d="m609.15 259.78a7 7 0 0 1 -1.69-.44 6.56 6.56 0 0 1 -1.53-.84 6.78 6.78 0 0 1 1.69.44 6.36 6.36 0 0 1 1.53.84z"/><path d="m602.83 243.23a7.31 7.31 0 0 1 -1.27 3.23 6.37 6.37 0 0 1 .44-1.69 6.75 6.75 0 0 1 .83-1.54z"/><path d="m576.77 245.64a6.37 6.37 0 0 1 -.44 1.69 6.69 6.69 0 0 1 -.83 1.53 6.47 6.47 0 0 1 .44-1.69 6.9 6.9 0 0 1 .83-1.53z"/><path d="m567 268.25a6.78 6.78 0 0 1 -.44 1.69 6.36 6.36 0 0 1 -.84 1.53 6.78 6.78 0 0 1 .44-1.69 7 7 0 0 1 .84-1.53z"/><path d="m592.09 271.92a6.37 6.37 0 0 1 -.44 1.69 6.69 6.69 0 0 1 -.83 1.53 6.37 6.37 0 0 1 .44-1.69 6.9 6.9 0 0 1 .83-1.53z"/><path d="m588.63 226.32a6.78 6.78 0 0 1 -.44 1.69 6.69 6.69 0 0 1 -.83 1.53 6 6 0 0 1 .44-1.69 6.52 6.52 0 0 1 .83-1.53z"/><path d="m564.51 233.5a6.78 6.78 0 0 1 -.44 1.69 6.42 6.42 0 0 1 -.84 1.54 6.78 6.78 0 0 1 .44-1.69 6.42 6.42 0 0 1 .84-1.54z"/></g><path d="m568 226.14c-1.69 2.7-3.53 5.3-5.23 8a37.25 37.25 0 0 0 -2.37 4.1 10.5 10.5 0 0 0 -1.16 4.54 8.07 8.07 0 0 1 .09-2.4 11 11 0 0 1 .72-2.3 31.15 31.15 0 0 1 2.3-4.21c.81-1.22 1.64-2.44 2.5-3.62.14-.42.31-.83.47-1.24a14.19 14.19 0 0 1 .88-1.74 14.73 14.73 0 0 1 -.65 1.83c-.08.17-.15.33-.22.5q1.26-1.77 2.67-3.46z" fill="#263238"/><path d="m578.78 182.83c1.57 2.31 13.41 7.91 19.59-2.2 6.09-9.95-6.61-22.82-16.59-15.71-6.7 4.77-6.31 13.01-3 17.91z" fill="#263238"/><path d="m583.53 216c0 1-3.52 8.19-8 8.8-1.46.2-2.9-7.73-2.9-7.73l-.24-.56-3.34-7.85 8.48-8 1.24-1.08s.77 2.21 1.71 5c0 .13.09.26.13.4s.11.3.16.44c.15.41.29.83.43 1.25s.21.63.31 1 .2.67.31 1a54.22 54.22 0 0 1 1.71 7.33z" fill="#ad6359"/><path d="m580.48 204.55a17.07 17.07 0 0 1 -8.09 11.91l-3.34-7.85 8.48-8 1.24-1.08s.77 2.26 1.71 5.02z" fill="#263238"/><path d="m556.24 194.4c-2.67 14.74 5.85 18 9 18.58 2.89.52 12.78 1.93 17-12.46s-1.83-20.28-8.36-21.82-14.97.96-17.64 15.7z" fill="#ad6359"/><path d="m564 212.58a11.7 11.7 0 0 1 -4.88-3.28 13.5 13.5 0 0 1 -2.43-4.68c-1.13-3.64-.7-7.49.09-11.15.49-2.23 1.15-4.41 1.75-6.61 0-.16-.19-.2-.25-.06-1.52 4-2.87 8.1-3 12.38a16.53 16.53 0 0 0 3.11 10.34 10 10 0 0 0 5.53 3.21.08.08 0 0 0 .08-.15z" fill="#263238"/><path d="m558.78 192.24a8.89 8.89 0 0 0 1-.06 1.66 1.66 0 0 0 1.05-.25.55.55 0 0 0 .1-.64 1.32 1.32 0 0 0 -1.24-.51 1.91 1.91 0 0 0 -1.31.49.57.57 0 0 0 .4.97z" fill="#263238"/><path d="m568.93 193.81a8.78 8.78 0 0 1 -1-.37 1.61 1.61 0 0 1 -.91-.56.53.53 0 0 1 .1-.64 1.31 1.31 0 0 1 1.34-.1 1.89 1.89 0 0 1 1.09.87.56.56 0 0 1 -.62.8z" fill="#263238"/><path d="m566 197.07s.07.07.06.11c-.22 1-.29 2.17.55 2.67 0 0 0 .07 0 .06-1.09-.36-.97-1.91-.61-2.84z" fill="#263238"/><path d="m567.1 196.19c1.63.17 1.17 3.43-.35 3.27s-1.03-3.41.35-3.27z" fill="#263238"/><path d="m567.71 196.45c.26.23.49.59.83.68s.74-.21 1.05-.5v.05c-.08.62-.41 1.23-1.1 1.23s-1-.62-1-1.27c-.01-.12.12-.28.22-.19z" fill="#263238"/><path d="m560.43 196.06s-.09 0-.09.08c-.11 1-.4 2.16-1.36 2.37v.06c1.14-.01 1.51-1.57 1.45-2.51z" fill="#263238"/><path d="m559.67 194.88c-1.61-.34-2.18 2.9-.69 3.22s2.02-2.93.69-3.22z" fill="#263238"/><path d="m559 195c-.28.13-.59.39-.9.36s-.56-.44-.73-.81c0 0-.05 0-.06 0-.12.61 0 1.29.55 1.52s1-.26 1.27-.85c-.01-.1-.06-.29-.13-.22z" fill="#263238"/><path d="m564.94 205.38c-.26.21-.54.52-.91.51a2.61 2.61 0 0 1 -1.07-.36 0 0 0 0 0 -.05.05 1.41 1.41 0 0 0 1.24.68 1.11 1.11 0 0 0 .89-.83c.02-.05-.04-.08-.1-.05z" fill="#263238"/><path d="m561.3 203.13a4.12 4.12 0 0 0 1.35 1.62 1.86 1.86 0 0 0 1.09.31c.85 0 1-.77 1-1.43a4.1 4.1 0 0 0 -.15-1 5.35 5.35 0 0 1 -3.29.5z" fill="#263238"/><path d="m562.65 204.75a1.86 1.86 0 0 0 1.09.31c.85 0 1-.77 1-1.43a1.92 1.92 0 0 0 -2.09 1.12z" fill="#ff9cbd"/><path d="m561.29 201.08s-.44 1.48-.55 2.19c0 .06.16.12.4.17a3.42 3.42 0 0 0 3.48-.76c.06-.06 0-.14-.09-.11a5.2 5.2 0 0 1 -3.22.41c0-.21.84-2.5.73-2.53a6.12 6.12 0 0 0 -1.67.12c.83-3.1 2.15-6 2.92-9.13 0-.11-.13-.17-.17-.07a51.32 51.32 0 0 0 -3.57 9.69c-.11.41 1.45.1 1.74.02z" fill="#263238"/><path d="m580.93 201.46c-1.57-.44-4.76-5.72-3.2-13.43 0 0-.92 7-.62 8.14s-1.78-3-.61-9.21a25.58 25.58 0 0 1 -7.08 1.91c-3.11.18-4.89-.24-5-.5s4.44-.67 5.9-1.76c0 0-8.58 1.92-12.23 1.41-.42-.06 1-8.71 7.29-11.12s14.27 3.43 16.14 6.23c0 0 2.68 1 4.8 5.77s-3.7 13.04-5.39 12.56z" fill="#263238"/><path d="m566.91 202.25a4.72 4.72 0 0 1 -3.13-5.87 4.7 4.7 0 1 1 4.28 6.06 4.61 4.61 0 0 1 -1.15-.19zm-2.53-5.69a4.07 4.07 0 1 0 5.08-2.71 3.81 3.81 0 0 0 -1-.17 4.09 4.09 0 0 0 -4.08 2.88z" fill="#407bff"/><path d="m557.12 200.61c-1.91-.32-3.11-2.65-2.69-5.21a5.65 5.65 0 0 1 1.51-3.08 2.93 2.93 0 0 1 4.95.81 5.56 5.56 0 0 1 .44 3.41c-.39 2.42-2.11 4.18-3.9 4.1zm-.74-7.84a5 5 0 0 0 -1.33 2.73c-.37 2.22.61 4.23 2.17 4.49s3.13-1.34 3.5-3.56a5.06 5.06 0 0 0 -.39-3 2.52 2.52 0 0 0 -1.79-1.46h-.24a2.61 2.61 0 0 0 -1.92.8z" fill="#407bff"/><path d="m563.85 196.94.47-.41c-.6-.7-2.1-1.77-3.43-.74l.38.5c1.2-.92 2.52.59 2.58.65z" fill="#407bff"/><path d="m584.32 201.53.6-.19c-.09-.28-.93-2.74-2.27-3.19s-9.71-1-10.06-1l-.05.63c2.42.16 8.93.67 9.91 1s1.65 2.08 1.87 2.75z" fill="#407bff"/><path d="m581.27 206a2.67 2.67 0 0 1 -.71.11 2 2 0 0 1 -.7 0 2.18 2.18 0 0 1 -.83-.36 2.51 2.51 0 0 1 -.53-.49 3.06 3.06 0 0 1 -.49-.89l1.2-3.91s3.69-4.35 5.69-3-1.06 7.81-3.63 8.54z" fill="#ad6359"/><path d="m584 199.24a0 0 0 0 1 0 .06 6.41 6.41 0 0 0 -3.67 3.69 1.39 1.39 0 0 1 2.12-.19s0 .1-.06.09a1.55 1.55 0 0 0 -1.76.38 8.12 8.12 0 0 0 -.94 1.3c-.1.15-.37 0-.29-.13.17-2.26 2.18-5.2 4.6-5.2z" fill="#263238"/><path d="m581.12 205.31a.69.69 0 0 1 -.86.47.69.69 0 1 1 .86-.47z" fill="#fff"/><path d="m582.64 204.4a.49.49 0 1 1 -.33-.61.49.49 0 0 1 .33.61z" fill="#fff"/><path d="m592.85 223c7.12 17.42 15.45 45.89 7.34 49.53-13.35 6-46.63 2.47-54.19 1.36-3.26-.48-4-22.83-1.13-24.93s37 5.19 37.84 3.19c.46-1.14.46-11.95.57-25.36.13-15.52 7.53-8.79 9.57-3.79z" fill="#ad6359"/><path d="m550.85 248.72s-9.65-2.71-16.05-4.18c-3.56-.82-9.81-1.68-12.7-1.09-4.34.89-21.89 7.39-20.41 11.68 1.34 3.88 15.72-3.61 15.72-3.61s-15.17 6.28-12.7 10.66 17.59-6.25 17.59-6.25-15.44 6.8-12.18 10.91c2.47 3.11 16.7-5.75 16.7-5.75s-13.23 5.91-10.82 9.25c2.66 3.65 16.3-3.7 16.3-3.7 7.52 7.37 14.12 7.81 18.85 7.56 1.13-.06-.3-25.48-.3-25.48z" fill="#ad6359"/><path d="m522.51 249c-1.8.67-3.64 1.34-5.38 2.17s-3.46 1.73-5.12 2.72a33.42 33.42 0 0 0 -6.08 4.46c3.51-2.8 9.7-5.88 11.44-6.71s3.44-1.74 5.18-2.58c.04-.01.01-.06-.04-.06z" fill="#263238"/><path d="m525.63 255.25c-2.27 1-4.56 1.83-6.79 2.89s-4.24 2.25-6.38 3.45c-.16.09-.06.15.11.07 2.19-1.12 4.3-2 6.5-3.08s4.36-2.27 6.59-3.28a0 0 0 1 0 -.03-.05z" fill="#263238"/><path d="m529.27 260.12a55.36 55.36 0 0 0 -10 5.21c-.16.1 0 .16.15.07 3.31-1.8 5.89-3.23 10-5.16-.04-.03-.07-.15-.15-.12z" fill="#263238"/><path d="m552.48 249q-6.3-1.74-12.64-3.37c-4-1-8.18-2.24-12.36-2.48a22 22 0 0 0 -6.86.64c-.1 0 0 .16 0 .15a35.15 35.15 0 0 1 12.55.7c4.06.84 8.09 1.91 12.12 2.91 2.36.58 4.73 1.1 7.1 1.63a.09.09 0 1 0 .09-.18z" fill="#263238"/><path d="m602 245.07-20.51-5.69a158.77 158.77 0 0 1 1.32-16.58c1.34-7.8 4.54-9.13 9.61-.86 3.36 5.54 9.58 23.13 9.58 23.13z" fill="#407bff"/><path d="m586.18 218.51a6.4 6.4 0 0 1 -.88-1.51.26.26 0 0 1 .27-.42l.12.25a6.78 6.78 0 0 1 .49 1.68z" fill="#fff"/><path d="m597.24 232.49a6.72 6.72 0 0 1 -1.67.5 6.74 6.74 0 0 1 1.5-.89c.06.12.11.26.17.39z" fill="#fff"/><path d="m592.1 241.42a7.21 7.21 0 0 1 -3.22-1.27 6.37 6.37 0 0 1 1.69.44 6.69 6.69 0 0 1 1.53.83z" fill="#fff"/><path d="m602 245.07h-.08a.3.3 0 0 1 0-.1z" fill="#fff"/><path d="m588.63 226.32a6.78 6.78 0 0 1 -.44 1.69 6.69 6.69 0 0 1 -.83 1.53 6 6 0 0 1 .44-1.69 6.52 6.52 0 0 1 .83-1.53z" fill="#fff"/><path d="m584 240.08c-.21-.1-2.29-.75-2.46-.76.07-1.25.16-2.51.21-3.77 0-.62 0-1.25 0-1.88s.05-1.48.06-2.1a.07.07 0 1 0 -.13 0c-.09.8-.13 1.39-.2 2.08s-.12 1.24-.15 1.86c-.08 1.31-.22 2.7-.24 4a21.85 21.85 0 0 0 2.84.65s.07-.06.07-.08z" fill="#263238"/><path d="m600.44 242.55c-2.93-1-5.86-2-8.85-2.88-1.49-.43-3-.84-4.48-1.23s-3-.61-4.53-1c-.08 0-.11.11 0 .13 1.51.32 3 .85 4.48 1.26l4.47 1.25c3 .85 6 1.69 8.91 2.61.05.01.08-.11 0-.14z" fill="#263238"/><path d="m427.69 88.62h85.11v59.34h-85.11z" fill="#ebebeb"/><path d="m432.57 94.52 37.68-.08 37.67.08-37.67.08z" fill="#c7c7c7"/><path d="m432.57 97.59 37.68-.08 37.67.08-37.67.08z" fill="#c7c7c7"/><path d="m432.57 100.67 37.68-.09 37.67.09-37.67.08z" fill="#c7c7c7"/><path d="m432.57 103.74 37.68-.08 37.67.08-37.67.08z" fill="#c7c7c7"/><path d="m432.57 106.81 37.68-.08 37.67.08-37.67.08z" fill="#c7c7c7"/><path d="m432.57 109.88 37.68-.08 37.67.08-37.67.09z" fill="#c7c7c7"/><path d="m432.57 112.96 37.68-.08 37.67.08-37.67.08z" fill="#c7c7c7"/><path d="m432.57 116.03 37.68-.08 37.67.08-37.67.08z" fill="#c7c7c7"/><path d="m432.57 119.1 37.68-.08 37.67.08-37.67.08z" fill="#c7c7c7"/><path d="m432.57 122.17 37.68-.08 37.67.08-37.67.09z" fill="#c7c7c7"/><path d="m432.57 125.25 37.68-.08 37.67.08-37.67.08z" fill="#c7c7c7"/><path d="m432.57 128.32 37.68-.08 37.67.08-37.67.08z" fill="#c7c7c7"/><path d="m432.57 131.39 37.68-.08 37.67.08-37.67.08z" fill="#c7c7c7"/><path d="m432.57 134.47 37.68-.09 37.67.09-37.67.08z" fill="#c7c7c7"/><path d="m432.57 137.54 37.68-.08 37.67.08-37.67.08z" fill="#c7c7c7"/><path d="m440.54 116.03h5.71v25.09h-5.71z" fill="#407bff"/><path d="m451.14 105.42h5.71v35.7h-5.71z" fill="#fff"/><path d="m461.74 104.71h5.71v36.41h-5.71z" fill="#407bff"/><path d="m472.34 102.67h5.71v38.45h-5.71z" fill="#fff"/><path d="m482.94 103.66h5.71v37.46h-5.71z" fill="#407bff"/><path d="m493.54 99.43h5.71v41.69h-5.71z" fill="#fff"/><path d="m440.54 143.7h5.71v.52h-5.71z" fill="#c7c7c7"/><path d="m451.14 143.7h5.71v.52h-5.71z" fill="#c7c7c7"/><path d="m461.74 143.7h5.71v.52h-5.71z" fill="#c7c7c7"/><path d="m472.34 143.7h5.71v.52h-5.71z" fill="#c7c7c7"/><path d="m482.94 143.7h5.71v.52h-5.71z" fill="#c7c7c7"/><path d="m493.54 143.7h5.71v.52h-5.71z" fill="#c7c7c7"/><path d="m434.32 138.52a36.19 36.19 0 0 1 6-8.05 15.56 15.56 0 0 1 2-1.61c.74-.47 1.49-.81 2.19-1.24a25.37 25.37 0 0 0 3.93-3 87.18 87.18 0 0 0 6.85-7.26 58.62 58.62 0 0 1 6.91-7.36 18.68 18.68 0 0 1 4.35-2.74 15.92 15.92 0 0 1 5-1.18 34.67 34.67 0 0 1 10.08.93 20 20 0 0 0 4.9.5 14.13 14.13 0 0 0 4.75-1.19 40.72 40.72 0 0 0 8.52-5.19 38.34 38.34 0 0 1 -8.32 5.64 14.78 14.78 0 0 1 -4.91 1.37 20.88 20.88 0 0 1 -5.07-.37 36.24 36.24 0 0 0 -9.86-.78 14.78 14.78 0 0 0 -4.72 1.15 17.93 17.93 0 0 0 -4.09 2.63 56.56 56.56 0 0 0 -6.83 7.23 74.93 74.93 0 0 1 -7 7.23 26.29 26.29 0 0 1 -4.12 3c-.75.43-1.53.77-2.21 1.18a14.06 14.06 0 0 0 -2 1.49 38.54 38.54 0 0 0 -6.35 7.62z" fill="#263238"/><path d="m434.61 92.36.13 12.19.09 12.19c.06 8.13.07 16.25.09 24.38l-.31-.3h18.33 18.33l18.32.1 18.33.18-18.33.18-18.32.1h-18.33-18.63v-.3q0-12.19.09-24.38l.09-12.19z" fill="#c7c7c7"/><path d="m223.02 128.33h97.56v51.42h-97.56z" fill="#dbdbdb"/><path d="m229.26 134.81h85.07v4.44h-85.07z" fill="#fff"/><path d="m229.26 134.81h33.72v4.44h-33.72z" fill="#407bff"/><path d="m229.26 143.31h85.07v4.44h-85.07z" fill="#fff"/><path d="m229.26 143.31h76.38v4.44h-76.38z" fill="#407bff"/><path d="m229.26 151.81h85.07v4.44h-85.07z" fill="#fff"/><path d="m229.26 151.81h31.09v4.44h-31.09z" fill="#407bff"/><path d="m229.26 160.31h85.07v4.44h-85.07z" fill="#fff"/><path d="m229.26 160.31h62.57v4.44h-62.57z" fill="#407bff"/><path d="m229.26 168.81h85.07v4.44h-85.07z" fill="#fff"/><path d="m229.26 168.81h40.71v4.44h-40.71z" fill="#407bff"/><path d="m403.41 95.5c-2.23 18.66-14.22 22.06-16.24 27a86.59 86.59 0 0 0 -2.52 9.54h-19.5a83.63 83.63 0 0 0 -2.47-9.55c-2-5-14-8.44-16.1-27.1-1.4-12.27 7.86-31.6 28.49-31.55s29.79 19.41 28.34 31.66z" fill="#407bff"/><path d="m366.76 102.02h1v31.55h-1z" fill="#fff" transform="matrix(.98347682 -.18103412 .18103412 .98347682 -15.26 68.44)"/><path d="m366.85 117.33h31.55v1h-31.55z" fill="#fff" transform="matrix(.18549511 -.98264519 .98264519 .18549511 195.85 471.95)"/><path d="m375 112.62c-1.52 0-3.06-1.22-4.33-3.43-.06-.1-.12-.2-.17-.3a2.36 2.36 0 0 1 -1.67.91c-2.92 0-4.08-6-4.12-6.29l.49-.09c0 .06 1.12 5.87 3.63 5.88a2 2 0 0 0 1.42-.9c-1.23-2.53-1.91-5.85-1-7.36a1.49 1.49 0 0 1 1.35-.79 1.76 1.76 0 0 1 1.61.92c.88 1.53.23 4.68-.93 6.68a5.86 5.86 0 0 1 -.4.61c.08.17.17.32.26.48.68 1.19 2.09 3.18 3.9 3.18 1.21 0 2.42-1 3.43-2.68l.24-.43a5.9 5.9 0 0 1 -.69-1c-1.2-2.1-1.45-5.21-.53-6.79a1.79 1.79 0 0 1 1.58-1 1.37 1.37 0 0 1 1.23.76c.86 1.5.38 5.07-1 7.88a2.8 2.8 0 0 0 2 .82c1.78 0 3.37-4.26 3.83-5.9l.48.14c-.07.25-1.78 6.26-4.31 6.26a3.26 3.26 0 0 1 -2.19-.85l-.18.32c-.93 1.35-2.18 2.97-3.93 2.97zm4-11.85a1.3 1.3 0 0 0 -1.15.74c-.82 1.42-.57 4.36.53 6.29a5.88 5.88 0 0 0 .5.72c1.22-2.62 1.68-5.92.92-7.24a.89.89 0 0 0 -.8-.51zm-8.48 0a1 1 0 0 0 -.92.54c-.69 1.2-.24 4.12 1 6.66l.22-.35c1.06-1.84 1.71-4.83.93-6.18a1.26 1.26 0 0 0 -1.18-.67z" fill="#fff"/><path d="m362.88 131.21h24.05v4.7h-24.05z" fill="#455a64" transform="matrix(.99999701 .00244346 -.00244346 .99999701 .32 -.88)"/><path d="m362.86 136.67h24.05v4.7h-24.05z" fill="#455a64" transform="matrix(.99999701 .00244346 -.00244346 .99999701 .33 -.88)"/><path d="m362.85 142.13h24.05v4.7h-24.05z" fill="#455a64" transform="matrix(.99999743 .00226893 -.00226893 .99999743 .34 -.88)"/><path d="m376 48.51a15.35 15.35 0 0 1 -.12 7.77 13.29 13.29 0 0 1 -.44-3.89 13.64 13.64 0 0 1 .56-3.88z" fill="#263238"/><path d="m354.15 53.84a13.52 13.52 0 0 1 2.33 3.16 13.67 13.67 0 0 1 1.46 3.64 13.52 13.52 0 0 1 -2.33-3.15 13.8 13.8 0 0 1 -1.46-3.65z" fill="#263238"/><path d="m337.94 69.36a15.23 15.23 0 0 1 6.67 4 15.48 15.48 0 0 1 -6.67-4z" fill="#263238"/><path d="m331.65 90.9a15.35 15.35 0 0 1 7.77.12 13.29 13.29 0 0 1 -3.89.44 13.64 13.64 0 0 1 -3.88-.56z" fill="#263238"/><path d="m337 112.7a15.5 15.5 0 0 1 6.79-3.78 15.24 15.24 0 0 1 -6.79 3.78z" fill="#263238"/><path d="m412.06 114.36a15.23 15.23 0 0 1 -6.67-4 15.48 15.48 0 0 1 6.67 4z" fill="#263238"/><path d="m418.35 92.82a15.35 15.35 0 0 1 -7.77-.12 13.29 13.29 0 0 1 3.89-.44 13.64 13.64 0 0 1 3.88.56z" fill="#263238"/><path d="m413 71a13.52 13.52 0 0 1 -3.15 2.33 13.67 13.67 0 0 1 -3.64 1.46 13.52 13.52 0 0 1 3.15-2.33 13.8 13.8 0 0 1 3.64-1.46z" fill="#263238"/><path d="m397.5 54.8a15.23 15.23 0 0 1 -4 6.67 15.48 15.48 0 0 1 4-6.67z" fill="#263238"/><path d="m348.33 256.43h60.23v2.7h-60.23z" fill="#c7c7c7"/><path d="m348.33 256.43h30.31v2.7h-30.31z" fill="#a6a6a6"/><path d="m375.38 259.13h-58.7l-7.67-39.87h58.7z" fill="#c7c7c7"/><path d="m345.77 239.2a3.22 3.22 0 0 1 -3.26 3.57 4 4 0 0 1 -3.89-3.57 3.22 3.22 0 0 1 3.26-3.57 4 4 0 0 1 3.89 3.57z" fill="#a6a6a6"/><path d="m284.07 252.98-1.8-.23 9.27-70.48 33.63-18.46.87 1.59-32.82 18.02z" fill="#263238"/><path d="m289.82 182.84a2.56 2.56 0 1 0 2.56-2.56 2.55 2.55 0 0 0 -2.56 2.56z" fill="#407bff"/><path d="m322.69 164.61a2.56 2.56 0 1 0 2.56-2.56 2.56 2.56 0 0 0 -2.56 2.56z" fill="#407bff"/><path d="m342.45 166.95-12.03 13.43-5.55-6.86-3.38-4.18 9.02-10.06 4.52 2.91z" fill="#407bff"/><path d="m342.45 166.95-12.03 13.43-5.55-6.86 10.16-11.33z" opacity=".1"/><path d="m359.89 173.58-20.97 23.41-13.94-17.77 15.72-17.55z" fill="#407bff"/><path d="m299.64 259.13h-31.03l1.9-9.75h27.23z" fill="#407bff"/><path d="m412.21 172.85a11.72 11.72 0 0 0 2-6.47c0-8.19-9-14.83-20.08-14.83s-20.07 6.64-20.07 14.83 9 14.83 20.07 14.83a24.14 24.14 0 0 0 13.85-4.1l6.92 1.76z" fill="#407bff"/><path d="m386.91 166.38a2.08 2.08 0 1 1 -2.08-2.08 2.08 2.08 0 0 1 2.08 2.08z" fill="#263238"/><circle cx="394.13" cy="166.38" fill="#263238" r="2.08"/><circle cx="403.44" cy="166.38" fill="#263238" r="2.08"/></svg>