<svg viewBox="0 0 500 500" xmlns="http://www.w3.org/2000/svg"><path d="m90.31 265.54s11.67 62.89 70.86 97 132.75 26 192.54 20.93 100.15-45.47 99.29-97.17-48.36-59.67-81.69-113.58-34.04-73.19-91.31-100.72-135.28 6.6-168.6 73.83-21.09 119.71-21.09 119.71z" fill="#407bff"/><path d="m90.31 265.54s11.67 62.89 70.86 97 132.75 26 192.54 20.93 100.15-45.47 99.29-97.17-48.36-59.67-81.69-113.58-34.04-73.19-91.31-100.72-135.28 6.6-168.6 73.83-21.09 119.71-21.09 119.71z" fill="#fff" opacity=".7"/><rect fill="none" height="328.35" rx="10" stroke="#263238" stroke-linecap="round" stroke-linejoin="round" stroke-width="1.022901" width="253.68" x="184.32" y="76.5"/><path d="m290.83 166.73v1.02h-1.02" fill="none" stroke="#263238" stroke-linecap="round" stroke-linejoin="round" stroke-width="1.022901"/><path d="m287.79 167.75h-59.49" style="fill:none;stroke:#263238;stroke-linecap:round;stroke-linejoin:round;stroke-width:1.022901;stroke-dasharray:2.016813 2.016813"/><path d="m227.29 167.75h-1.03v-1.02" fill="none" stroke="#263238" stroke-linecap="round" stroke-linejoin="round" stroke-width="1.022901"/><path d="m226.26 164.76v-46.27" style="fill:none;stroke:#263238;stroke-linecap:round;stroke-linejoin:round;stroke-width:1.022901;stroke-dasharray:1.969116 1.969116"/><path d="m226.26 117.5v-1.02h1.03" fill="none" stroke="#263238" stroke-linecap="round" stroke-linejoin="round" stroke-width="1.022901"/><path d="m229.3 116.48h59.5" style="fill:none;stroke:#263238;stroke-linecap:round;stroke-linejoin:round;stroke-width:1.022901;stroke-dasharray:2.016813 2.016813"/><path d="m289.81 116.48h1.02v1.02" fill="none" stroke="#263238" stroke-linecap="round" stroke-linejoin="round" stroke-width="1.022901"/><path d="m290.83 119.47v46.28" style="fill:none;stroke:#263238;stroke-linecap:round;stroke-linejoin:round;stroke-width:1.022901;stroke-dasharray:1.969116 1.969116"/><path d="m236.57 124.67h43.95v34.9h-43.95z" fill="#fff" stroke="#263238" stroke-linecap="round" stroke-linejoin="round" stroke-width="1.022901"/><path d="m233.99 122.08-15.08-11.63" fill="none" stroke="#263238" stroke-linecap="round" stroke-linejoin="round" stroke-width="1.022901"/><path d="m283.54 161.29 12.93 11.2" fill="none" stroke="#263238" stroke-linecap="round" stroke-linejoin="round" stroke-width="1.022901"/><path d="m218.31 114.28-.44-4.95h5.17" fill="none" stroke="#263238" stroke-linecap="round" stroke-linejoin="round" stroke-width="1.022901"/><path d="m296.82 167.81.89 5.4-6.29.23" fill="none" stroke="#263238" stroke-linecap="round" stroke-linejoin="round" stroke-width="1.022901"/><path d="m313.61 299.36h21.34v7.7h-21.34z" fill="#263238"/><path d="m343.62 303.2-13.68-7.89v15.79z" fill="#263238"/><rect fill="#263238" height="122.84" rx="6.93" stroke="#263238" stroke-linecap="round" stroke-linejoin="round" stroke-width=".829236" width="62.94" x="242.21" y="246.25"/><path d="m245.01 254.59h57.35v107.2h-57.35z" fill="#fff" stroke="#263238" stroke-linecap="round" stroke-linejoin="round" stroke-width=".829236"/><path d="m291.73 386 4.38-17a22.13 22.13 0 0 0 .72-5.61v-20.39a3.12 3.12 0 0 0 .13-.81 3.45 3.45 0 0 0 -3.64-3.22 3.84 3.84 0 0 0 -2.66 1 3.49 3.49 0 0 0 -3.61-2.95 3.74 3.74 0 0 0 -3.07 1.5 3.5 3.5 0 0 0 -3.6-2.9 3.78 3.78 0 0 0 -3.08 1.51c0-2.7 0-15.65-.45-16.71-1.32-3.41-8-1.85-6.81 1.77v29.95c0-2.1-1.56-4.87-2.21-6.91s-1-4-2.24-5.7c-2.06-2.94-5.69-1.32-5.48 1.74.17 2.69 2.12 4.81 3.17 7.25 1.94 4.5.78 9.21 2.61 13.73a81.25 81.25 0 0 0 5.06 8.3 25.69 25.69 0 0 1 2.35 5.54l-1.7 9.91" fill="#fff" stroke="#263238" stroke-linecap="round" stroke-linejoin="round" stroke-width="1.022901"/><path d="m273.73 310.1v5.6" fill="none" stroke="#263238" stroke-linecap="round" stroke-linejoin="round" stroke-width="1.022901"/><path d="m280.03 320.94h4.55" fill="none" stroke="#263238" stroke-linecap="round" stroke-linejoin="round" stroke-width="1.022901"/><path d="m261.14 320.94h4.55" fill="none" stroke="#263238" stroke-linecap="round" stroke-linejoin="round" stroke-width="1.022901"/><path d="m267.44 315 1.75 2.79" fill="none" stroke="#263238" stroke-linecap="round" stroke-linejoin="round" stroke-width="1.022901"/><path d="m277.93 318.14 2.45-3.14" fill="none" stroke="#263238" stroke-linecap="round" stroke-linejoin="round" stroke-width="1.022901"/><path d="m247.15 296.11h53.17v6.65h-53.17z" fill="none" stroke="#263238" stroke-linecap="round" stroke-linejoin="round" stroke-width="1.022901"/><path d="m248.9 260.43h25.54v30.43h-25.54z" fill="none" stroke="#263238" stroke-linecap="round" stroke-linejoin="round" stroke-width="1.022901"/><path d="m248.9 260.43 25.53 30.43" fill="none" stroke="#263238" stroke-linecap="round" stroke-linejoin="round" stroke-width="1.022901"/><path d="m248.2 349.63v-43.38h51.77v43.03" fill="none" stroke="#263238" stroke-linecap="round" stroke-linejoin="round" stroke-width="1.022901"/><rect fill="#263238" height="122.84" rx="6.93" stroke="#263238" stroke-linecap="round" stroke-linejoin="round" stroke-width=".829236" width="62.94" x="348.06" y="246.25"/><path d="m350.86 254.59h57.35v107.2h-57.35z" fill="#fff" stroke="#263238" stroke-linecap="round" stroke-linejoin="round" stroke-width=".829236"/><path d="m353.84 259.73h51.77v56.67h-51.77z" fill="none" stroke="#263238" stroke-linecap="round" stroke-linejoin="round" stroke-width="1.022901"/><path d="m353.84 321.64h51.77" fill="none" stroke="#263238" stroke-linecap="round" stroke-linejoin="round" stroke-width="1.022901"/><path d="m353.84 325.84h51.77" fill="none" stroke="#263238" stroke-linecap="round" stroke-linejoin="round" stroke-width="1.022901"/><path d="m353.84 330.04h51.77" fill="none" stroke="#263238" stroke-linecap="round" stroke-linejoin="round" stroke-width="1.022901"/><path d="m353.84 334.24h51.77" fill="none" stroke="#263238" stroke-linecap="round" stroke-linejoin="round" stroke-width="1.022901"/><path d="m353.84 338.43h51.77" fill="none" stroke="#263238" stroke-linecap="round" stroke-linejoin="round" stroke-width="1.022901"/><path d="m353.84 342.63h51.77" fill="none" stroke="#263238" stroke-linecap="round" stroke-linejoin="round" stroke-width="1.022901"/><path d="m353.84 346.83h51.77" fill="none" stroke="#263238" stroke-linecap="round" stroke-linejoin="round" stroke-width="1.022901"/><path d="m353.84 316.4 51.77-56.67" fill="none" stroke="#263238" stroke-linecap="round" stroke-linejoin="round" stroke-width="1.022901"/><rect fill="#263238" height="122.84" rx="6.93" stroke="#263238" stroke-linecap="round" stroke-linejoin="round" stroke-width=".829236" width="62.94" x="348.06" y="105.24"/><path d="m350.86 113.58h57.35v107.2h-57.35z" fill="#fff" stroke="#263238" stroke-linecap="round" stroke-linejoin="round" stroke-width=".829236"/><path d="m284.65 242.59v-32.67h45.97" fill="none" stroke="#263238" stroke-linecap="round" stroke-linejoin="round" stroke-width="1.022901"/><path d="m329.12 215.02 8.83-5.1-8.83-5.1z" fill="#263238"/><path d="m378.37 241.73v-25.08" fill="none" stroke="#263238" stroke-linecap="round" stroke-linejoin="round" stroke-width="1.022901"/><path d="m383.47 218.15-5.1-8.84-5.1 8.84z" fill="#263238"/><g stroke="#263238"><path d="m354.67 380.27h23.19" fill="none" stroke-linecap="round" stroke-linejoin="round" stroke-width="1.022901"/><path d="m354.67 385.49h23.19" fill="none" stroke-linecap="round" stroke-linejoin="round" stroke-width="1.022901"/><path d="m354.67 390.7h23.19" fill="none" stroke-linecap="round" stroke-linejoin="round" stroke-width="1.022901"/><path d="m298.44 380.27h23.19" fill="none" stroke-linecap="round" stroke-linejoin="round" stroke-width="1.022901"/><path d="m298.44 385.49h23.19" fill="none" stroke-linecap="round" stroke-linejoin="round" stroke-width="1.022901"/><path d="m298.44 390.7h23.19" fill="none" stroke-linecap="round" stroke-linejoin="round" stroke-width="1.022901"/><path d="m292.06 220.27h23.19" fill="none" stroke-linecap="round" stroke-linejoin="round" stroke-width="1.022901"/><path d="m292.06 225.48h23.19" fill="none" stroke-linecap="round" stroke-linejoin="round" stroke-width="1.022901"/><path d="m292.06 230.7h23.19" fill="none" stroke-linecap="round" stroke-linejoin="round" stroke-width="1.022901"/><path d="m309.45 157.08h23.19" fill="none" stroke-linecap="round" stroke-linejoin="round" stroke-width="1.022901"/><path d="m309.45 162.3h23.19" fill="none" stroke-linecap="round" stroke-linejoin="round" stroke-width="1.022901"/><path d="m309.45 167.51h23.19" fill="none" stroke-linecap="round" stroke-linejoin="round" stroke-width="1.022901"/><path d="m225.97 175.05h23.19" fill="none" stroke-linecap="round" stroke-linejoin="round" stroke-width="1.022901"/><path d="m225.97 180.27h23.19" fill="none" stroke-linecap="round" stroke-linejoin="round" stroke-width="1.022901"/><path d="m225.97 185.48h23.19" fill="none" stroke-linecap="round" stroke-linejoin="round" stroke-width="1.022901"/><path d="m132 424s-2.15 8.28-2.15 10.37-.52 3.49 4 4.36 7.5.35 8.2-1.74 1.22-12.57 1.22-12.57l-11-2.1z" fill="#fff" stroke-linecap="round" stroke-linejoin="round" stroke-width="1.034762"/><path d="m142 437a8.62 8.62 0 0 0 .3-1.46 74 74 0 0 1 -12.52-1c0 2-.39 3.35 4 4.19s7.55.36 8.22-1.73z" fill="#fff" stroke-linecap="round" stroke-linejoin="round" stroke-width="1.034762"/><path d="m238.05 424.78s3.49 1.22 8.56 2.79 15.39 3.32 16.39 3.49 1 2.27.17 3.15-5.41 3.49-10.82 4.88-23.75 2.62-25.32 1.58c-1.31-.88-.87-9.43-.35-11.35s11.37-4.54 11.37-4.54z" fill="#fff" stroke-linecap="round" stroke-linejoin="round" stroke-width="1.034762"/><path d="m263.19 434.21a2.61 2.61 0 0 0 .52-2.45c-3.54 2.82-10.61 5.92-17.8 6.64a128.64 128.64 0 0 1 -19.6-.1c.13 1.2.36 2.11.74 2.37 1.57 1 19.9-.18 25.32-1.58s9.95-4.01 10.82-4.88z" fill="#fff" stroke-linecap="round" stroke-linejoin="round" stroke-width="1.034762"/><path d="m153.6 272.57s-3 18.26-.68 28.4c0 0-4.39 40.22-5.07 58.14 0 0-9.46 31.44-10.82 41.24a241.41 241.41 0 0 1 -5.03 23.65 21.41 21.41 0 0 0 6.76 2.37c4.74 1 5.41-2.71 5.41-2.71s26-59.83 28.06-68.62 8.77-40.21 8.77-40.21l28 51.38s1.36 17.58 5.41 27.72 11.83 38.19 11.83 38.19a28 28 0 0 0 9.13-1c4.06-1.35 4.06-3.38 4.06-3.38s-6.09-22.65-6.09-30.08-2.36-32.79-4.05-39.89-13.19-44.28-14.88-48.34-5.41-16.9-5.41-16.9l-2.36-19.95s-29.04 8.11-53.04-.01z" fill="#263238" stroke-linecap="round" stroke-linejoin="round" stroke-width="1.034762"/><path d="m175.05 186.42s-1.56-3.37-1.56-5.44-1-11.91-1-11.91 15-27.17 19.15-32.35a63.53 63.53 0 0 1 9.06-9.06s10.1-2.07 12.17-2.07 4.4-1 4.4-2.33-3.37-1-5.44-1-4.66-1.81-4.66-1.81 3.37-9.65 4.4-13.46c.55-2 2.33-6.21 1-6.21s-1.55 1-2.33 2.59-4.14 6.73-4.14 6.73l.77-11.39s-1-1.55-1.81.26a77.91 77.91 0 0 0 -2.59 8.54 6.25 6.25 0 0 1 -1.29 2.46l-1-8.49s-1.76-1.87-2.07 1.37c-.17 1.8 0 7.77 0 8.8s-1-1.47-1-1.47-.61-2.81-1.29-3.19-1.29.52-1 2.59-.26 10.61-.26 10.61-1.55 2.07-3.88 4.92-21 19.67-28 25.11-7.76 9.84-8.8 15.27-2.07 37-2.07 48.41 1 29.5 1.81 35.46-.62 13.64-1.62 17.82 0 7.76 2.85 9.83 15 3.37 25.1 3.37 20.45-1 23.56-2.07 5.49-1.31 5.49-5.44-2.07-12.42-2.07-14.75 4.15-26.4 4.15-26.4 26.4 8 31.32 6.21 46.07-40.64 46.07-40.64 6.47-2.59 9.84-3.11 8.54-2.84 8.8-3.62-.52-.52-2.59-.52a24.4 24.4 0 0 0 -5.44 1s7.07-4.48 8.29-4.92c.84-.31 2.29-2.22.26-1.81-2.55.51-8.8 2.33-8.8 2.33l8.28-5.18s1.29-2.07-.26-2.07-9.32 4.66-9.32 4.66l6-5.62c1.17-1.08.19-2.61-1.19-1.81l-7 4a27.1 27.1 0 0 1 -5.4 2.41l-1.29.78a34.22 34.22 0 0 0 .52-4.14c0-1.3-.78-4.66-2.59-4.92s-.26 2.33-.26 3.62-2.59 8-2.59 9.06v3.11s-8.8 7.76-16.82 11.91-26.15 17.86-26.15 17.86-20.7-10.62-25.36-14.5-9.84-8.54-15-12.68a64.24 64.24 0 0 0 -8.54-6z" fill="#fff" stroke-linecap="round" stroke-linejoin="round" stroke-width="1.034762"/><path d="m261.55 205.65c-8.79 5.62-20.76 14.68-20.76 14.68s-20.7-10.62-25.36-14.5-9.84-8.54-15-12.68a64.24 64.24 0 0 0 -8.54-6l-16.82-.77s-1.56-3.37-1.56-5.44-1-11.91-1-11.91 7.75-14 13.65-23.85l-.47-.48c-2.9-2.89-6.91-4.45-10.41-5.3-4.88 4.33-9.73 8.5-12.61 10.74-7 5.43-7.76 9.84-8.8 15.27s-2.07 37-2.07 48.41 1 29.5 1.81 35.46-.61 13.72-1.61 17.9 0 7.76 2.85 9.83 15 3.37 25.1 3.37 20.45-1 23.56-2.07 5.49-1.31 5.49-5.44-2.07-12.42-2.07-14.75 4.15-26.4 4.15-26.4 26.4 8 31.32 6.21c2.62-1 15.6-12.5 27.11-23a35.38 35.38 0 0 0 -7.96-9.28z" fill="#407bff" stroke-linecap="round" stroke-linejoin="round" stroke-width="1.034762"/><path d="m203 197.76s-10.42 2.84-11 10.73" fill="none" stroke-linecap="round" stroke-linejoin="round" stroke-width="1.034762"/><path d="m211 231.72s-12.14-3.34-18.45-9.66" fill="none" stroke-linecap="round" stroke-linejoin="round" stroke-width="1.034762"/><path d="m204.26 230s-10.42 2.84-19.89-.94" fill="none" stroke-linecap="round" stroke-linejoin="round" stroke-width="1.034762"/><path d="m160.3 213.23s3.29 23 19.15 34.46" fill="none" stroke-linecap="round" stroke-linejoin="round" stroke-width="1.034762"/><path d="m184.45 254c1.21.33 2.46.62 3.75.85" fill="none" stroke-linecap="round" stroke-linejoin="round" stroke-width="1.034762"/><path d="m160.3 236.2a44.5 44.5 0 0 0 17.75 15.36" fill="none" stroke-linecap="round" stroke-linejoin="round" stroke-width="1.034762"/><path d="m157.23 185.14s10.1-5 16.1-.32" fill="none" stroke-linecap="round" stroke-linejoin="round" stroke-width="1.034762"/><path d="m160.07 162.1s9.16 3.16 11.68 9.47" fill="none" stroke-linecap="round" stroke-linejoin="round" stroke-width="1.034762"/><path d="m166.07 159.89a12.9 12.9 0 0 1 4.42 6.94" fill="none" stroke-linecap="round" stroke-linejoin="round" stroke-width="1.034762"/><path d="m209.21 145s1.56 8.8 1.56 11.13-2.59 3.11-1.56 6.21 3.37 3.37 2.85 6-3.88 4.14-3.88 4.14-1.81 7.25-3.63 10.35-8.54.78-8.54.78l-.52 8.28s-2.33 3.37-10.87 2.33a47.39 47.39 0 0 1 -14.23-3.88l-1.3-1.81s6.73-3.37 7-5.7 0-7.76 0-15.53-2.33-22.78 10.35-26.66 22.77 4.36 22.77 4.36z" fill="#fff" stroke-linecap="round" stroke-linejoin="round" stroke-width="1.034762"/><path d="m193.4 166.25s-2.92-6.7-6.19-2.87c-2.12 2.49.52 9.84 1.81 10.87s4.14.52 4.14.52-4.14 4.14-8.54 4.14-8.28-4.14-11.13-11.39-4.92-19.67-1.81-27.18 19.16-7.76 22.78-7.76 9.06 2.07 9.06 2.07 11.65-1 11.91 2.85-1.56 4.14-1.56 4.14 8.29 4.4 4.4 6.21-9.83.78-13.72.78a5.55 5.55 0 0 0 -5.17 2.84s3.62 2.33 2.33 3.37-6 3.1-6.47 4.92 1.81 4.66.25 6-2.09.49-2.09.49z" fill="#263238" stroke-linecap="round" stroke-linejoin="round" stroke-width="1.034762"/></g><path d="m207.8 163.12c0 1.32-.55 2.39-1.22 2.39s-1.21-1.07-1.21-2.39.55-2.39 1.21-2.39 1.22 1.07 1.22 2.39z" fill="#263238"/><path d="m203.56 160.07s1.67-3.9 4.32-1.81" fill="none" stroke="#263238" stroke-linecap="round" stroke-linejoin="round" stroke-width="1.034762"/><path d="m180.98 314.83-2.37-4.4-11.83-3.04" fill="none" stroke="#fff" stroke-linecap="round" stroke-linejoin="round" stroke-width="1.034762"/></svg>