<svg viewBox="0 0 500 500" xmlns="http://www.w3.org/2000/svg"><path d="m74.25 114.31h387.11v209.9h-387.11z" fill="#f5f5f5"/><path d="m74.25 114.31h387.11v17.68h-387.11z" fill="#263238"/><circle cx="83.41" cy="123.39" fill="#fafafa" r="2.19"/><circle cx="91.38" cy="123.39" fill="#fafafa" r="2.19"/><circle cx="99.35" cy="123.39" fill="#fafafa" r="2.19"/><path d="m73.67 162.37h14.08v161.83h-14.08z" fill="#455a64"/><path d="m260.39-30.58h14.08v387.52h-14.08z" fill="#455a64" transform="matrix(0 -1 1 0 104.25 430.61)"/><g fill="#e0e0e0"><path d="m87.75 315.19c-.14 0-.26-35.6-.26-79.52s.12-79.53.26-79.53.26 35.6.26 79.53-.11 79.52-.26 79.52z"/><path d="m143.11 324.2c-.14 0-.26-37.62-.26-84s.12-84 .26-84 .26 37.62.26 84-.12 84-.26 84z"/><path d="m201.83 324.2c-.14 0-.26-37.5-.26-83.75s.12-83.75.26-83.75.26 37.49.26 83.75-.09 83.75-.26 83.75z"/><path d="m259.17 324.2c-.15 0-.26-37.5-.26-83.75s.11-83.75.26-83.75.26 37.49.26 83.75-.12 83.75-.26 83.75z"/><path d="m317.85 324.2c-.14 0-.26-37.62-.26-84s.12-84 .26-84 .26 37.62.26 84-.11 84-.26 84z"/><path d="m376.54 324.2c-.15 0-.26-37.62-.26-84s.11-84 .26-84 .26 37.62.26 84-.12 84-.26 84z"/><path d="m435.22 324.2c-.14 0-.26-37.5-.26-83.75s.12-83.75.26-83.75.26 37.49.26 83.75-.11 83.75-.26 83.75z"/><path d="m459.05 183.07c0 .14-86.27.26-192.67.26s-192.7-.12-192.7-.26 86.26-.27 192.7-.27 192.67.12 192.67.27z"/><path d="m459.05 170.22c0 .15-86.27.26-192.67.26s-192.7-.11-192.7-.26 86.26-.26 192.7-.26 192.67.12 192.67.26z"/><path d="m459.05 196.59c0 .15-86.27.26-192.67.26s-192.7-.11-192.7-.26 86.26-.26 192.7-.26 192.67.12 192.67.26z"/><path d="m459.05 210.12c0 .14-86.27.26-192.67.26s-192.7-.12-192.7-.26 86.26-.26 192.7-.26 192.67.14 192.67.26z"/><path d="m459.05 223.65c0 .14-86.27.26-192.67.26s-192.7-.12-192.7-.26 86.26-.26 192.7-.26 192.67.11 192.67.26z"/><path d="m459.05 237.17c0 .15-86.27.26-192.67.26s-192.7-.11-192.7-.26 86.26-.26 192.7-.26 192.67.09 192.67.26z"/><path d="m459.05 250.7c0 .14-86.27.26-192.67.26s-192.7-.12-192.7-.26 86.26-.26 192.7-.26 192.67.12 192.67.26z"/><path d="m459.05 264.23c0 .14-86.27.26-192.67.26s-192.7-.12-192.7-.26 86.26-.26 192.7-.26 192.67.11 192.67.26z"/><path d="m459.05 277.75c0 .15-86.27.27-192.67.27s-192.7-.12-192.7-.27 86.26-.26 192.7-.26 192.67.12 192.67.26z"/><path d="m459.05 291.28c0 .15-86.27.26-192.67.26s-192.7-.11-192.7-.26 86.26-.26 192.7-.26 192.67.12 192.67.26z"/><path d="m459.05 304.81c0 .14-86.27.26-192.67.26s-192.7-.12-192.7-.26 86.26-.26 192.7-.26 192.67.12 192.67.26z"/><path d="m459.05 318.34c0 .14-86.27.26-192.67.26s-192.7-.12-192.7-.26 86.26-.26 192.7-.26 192.67.11 192.67.26z"/></g><path d="m87.75 170.22h373.43v26.37h-373.43z" fill="#407bff"/><path d="m381.74 181.57c0 .14-43.94.26-98.14.26s-98.14-.12-98.14-.26 43.93-.26 98.14-.26 98.14.11 98.14.26z" fill="#fafafa"/><path d="m400.33 189.08c0 .14-54.95.26-122.72.26s-122.74-.12-122.74-.26 54.94-.26 122.74-.26 122.72.11 122.72.26z" fill="#fafafa"/><path d="m143.11 210.12h116.06v13.53h-116.06z" fill="#407bff"/><path d="m143.11 222.15h116.06v57.09h-116.06z" fill="#ebebeb"/><path d="m192.21 229.81c0 .15-9.58.26-21.39.26s-21.39-.11-21.39-.26 9.58-.26 21.39-.26 21.39.12 21.39.26z" fill="#263238"/><path d="m175.13 244.66c0 .15-5.76.26-12.85.26s-12.85-.11-12.85-.26 5.75-.26 12.85-.26 12.85.12 12.85.26z" fill="#263238"/><path d="m196.34 255.48c0 .14-10.5.26-23.45.26s-23.46-.12-23.46-.26 10.5-.26 23.46-.26 23.45.11 23.45.26z" fill="#263238"/><path d="m175.13 233.85c0 .14-5.76.26-12.85.26s-12.85-.12-12.85-.26 5.75-.26 12.85-.26 12.85.11 12.85.26z" fill="#263238"/><path d="m254.86 229.81a43.94 43.94 0 0 1 -6.82.26 43.94 43.94 0 0 1 -6.82-.26 45.48 45.48 0 0 1 6.82-.26 45.48 45.48 0 0 1 6.82.26z" fill="#263238"/><path d="m254.86 242a45.48 45.48 0 0 1 -6.82.26 45.48 45.48 0 0 1 -6.82-.26 43.94 43.94 0 0 1 6.82-.26 43.94 43.94 0 0 1 6.82.26z" fill="#263238"/><path d="m254.86 255.48a45.48 45.48 0 0 1 -6.82.26 45.48 45.48 0 0 1 -6.82-.26 43.94 43.94 0 0 1 6.82-.26 43.94 43.94 0 0 1 6.82.26z" fill="#263238"/><path d="m254.11 272c0 .14-4.83.26-10.79.26s-10.78-.12-10.78-.26 4.82-.26 10.78-.26 10.79.12 10.79.26z" fill="#263238"/><path d="m201.83 278.25c-.14 0-.26-12.34-.26-27.55s.12-27.55.26-27.55.26 12.33.26 27.55-.09 27.55-.26 27.55z" fill="#e0e0e0"/><path d="m258.2 263c0 .14-12.83.26-28.66.26s-28.65-.12-28.65-.26 12.82-.26 28.65-.26 28.66.14 28.66.26z" fill="#e0e0e0"/><path d="m143.11 304.31h116.06v14.03h-116.06z" fill="#f5f5f5"/><path d="m142.92 291.28h116.25v13.53h-116.25z" fill="#407bff"/><path d="m197.32 312c0 .15-10.95.26-24.45.26s-24.45-.11-24.45-.26 10.94-.26 24.45-.26 24.45.13 24.45.26z" fill="#263238"/><path d="m254.11 311.32c0 .14-4.83.26-10.79.26s-10.78-.12-10.78-.26 4.82-.26 10.78-.26 10.79.12 10.79.26z" fill="#263238"/><path d="m320.68 256.98h10.04v34.06h-10.04z" fill="#407bff"/><path d="m381.68 263.16h10.04v27.88h-10.04z" fill="#407bff"/><path d="m422.35 270.95h10.04v20.09h-10.04z" fill="#263238"/><path d="m341.02 236.09h10.04v54.95h-10.04z" fill="#455a64"/><path d="m361.35 236.09h10.04v54.95h-10.04z" fill="#263238"/><path d="m402.01 223.4h10.04v67.64h-10.04z" fill="#455a64"/><path d="m84.67 138.17h8.91v8.91h-8.91z" fill="#407bff"/><path d="m98.76 151h-9.9v-9.91h9.9zm-8.9-1h7.9v-7.91h-7.9z" fill="#407bff"/><path d="m111.81 140.53h8.32v8.32h-8.32z" fill="#e0e0e0"/><path d="m125.33 140.53h8.32v8.32h-8.32z" fill="#e0e0e0"/><path d="m138.85 140.53h8.32v8.32h-8.32z" fill="#e0e0e0"/><path d="m152.38 140.53h8.32v8.32h-8.32z" fill="#e0e0e0"/><path d="m165.9 140.53h8.32v8.32h-8.32z" fill="#e0e0e0"/><path d="m186.6 140.45h87.94v8.49h-87.94z" fill="#e0e0e0"/><path d="m286.61 140.45h87.94v8.49h-87.94z" fill="#e0e0e0"/><path d="m385.37 140.45h75.82v8.49h-75.82z" fill="#e0e0e0"/><path d="m461.36 324.2c0-1.58-.08-80.78-.2-209.89l.2.19-387.08.07.26-.26v209.89l-.24-.24 387.11.24-387.11.25h-.3v-.25c0-64.73 0-135.73 0-209.89v-.26h.29l387.08.06h.2v.2c-.14 129.11-.21 208.32-.21 209.89z" fill="#263238"/><path d="m48.46 97.35h387.11v209.9h-387.11z" fill="#f5f5f5"/><path d="m48.46 97.35h387.11v17.68h-387.11z" fill="#263238"/><circle cx="57.63" cy="106.43" fill="#fafafa" r="2.19"/><circle cx="65.6" cy="106.43" fill="#fafafa" r="2.19"/><circle cx="73.57" cy="106.43" fill="#fafafa" r="2.19"/><path d="m47.89 145.41h14.08v161.83h-14.08z" fill="#455a64"/><path d="m234.61-47.54h14.08v387.52h-14.08z" fill="#455a64" transform="matrix(0 -1 1 0 95.42 387.87)"/><path d="m62 298.23c-.14 0-.26-35.61-.26-79.52s.12-79.53.26-79.53.26 35.6.26 79.53-.15 79.52-.26 79.52z" fill="#e0e0e0"/><path d="m117.33 307.24c-.14 0-.26-37.62-.26-84s.12-84 .26-84 .26 37.62.26 84-.12 84-.26 84z" fill="#e0e0e0"/><path d="m176.05 307.24c-.14 0-.26-37.5-.26-83.75s.12-83.75.26-83.75.26 37.49.26 83.75-.11 83.75-.26 83.75z" fill="#e0e0e0"/><path d="m233.39 307.24c-.15 0-.26-37.5-.26-83.75s.11-83.75.26-83.75.26 37.49.26 83.75-.12 83.75-.26 83.75z" fill="#e0e0e0"/><path d="m292.07 307.24c-.14 0-.26-37.62-.26-84s.12-84 .26-84 .26 37.62.26 84-.12 84-.26 84z" fill="#e0e0e0"/><path d="m350.76 307.24c-.15 0-.27-37.62-.27-84s.12-84 .27-84 .26 37.62.26 84-.12 84-.26 84z" fill="#e0e0e0"/><path d="m409.44 307.24c-.14 0-.26-37.5-.26-83.75s.12-83.75.26-83.75.26 37.49.26 83.75-.12 83.75-.26 83.75z" fill="#e0e0e0"/><path d="m433.27 166.1c0 .15-86.27.27-192.67.27s-192.7-.12-192.7-.27 86.26-.26 192.7-.26 192.67.16 192.67.26z" fill="#e0e0e0"/><path d="m433.27 153.26c0 .15-86.27.26-192.67.26s-192.7-.11-192.7-.26 86.26-.26 192.7-.26 192.67.12 192.67.26z" fill="#e0e0e0"/><path d="m433.27 179.63c0 .15-86.27.26-192.67.26s-192.7-.11-192.7-.26 86.26-.26 192.7-.26 192.67.12 192.67.26z" fill="#e0e0e0"/><path d="m433.27 193.16c0 .14-86.27.26-192.67.26s-192.7-.12-192.7-.26 86.26-.26 192.7-.26 192.67.1 192.67.26z" fill="#e0e0e0"/><path d="m433.27 206.69c0 .14-86.27.26-192.67.26s-192.7-.12-192.7-.26 86.26-.26 192.7-.26 192.67.11 192.67.26z" fill="#e0e0e0"/><path d="m433.27 220.21c0 .15-86.27.26-192.67.26s-192.7-.11-192.7-.26 86.26-.26 192.7-.26 192.67.12 192.67.26z" fill="#e0e0e0"/><path d="m433.27 233.74c0 .14-86.27.26-192.67.26s-192.7-.12-192.7-.26 86.26-.26 192.7-.26 192.67.12 192.67.26z" fill="#e0e0e0"/><path d="m433.27 247.27c0 .14-86.27.26-192.67.26s-192.7-.12-192.7-.26 86.26-.26 192.7-.26 192.67.11 192.67.26z" fill="#e0e0e0"/><path d="m433.27 260.79c0 .15-86.27.27-192.67.27s-192.7-.12-192.7-.27 86.26-.26 192.7-.26 192.67.12 192.67.26z" fill="#e0e0e0"/><path d="m433.27 274.32c0 .15-86.27.26-192.67.26s-192.7-.11-192.7-.26 86.26-.26 192.7-.26 192.67.12 192.67.26z" fill="#e0e0e0"/><path d="m433.27 287.85c0 .14-86.27.26-192.67.26s-192.7-.11-192.7-.26 86.26-.26 192.7-.26 192.67.12 192.67.26z" fill="#e0e0e0"/><path d="m433.27 301.38c0 .14-86.27.26-192.67.26s-192.7-.12-192.7-.26 86.26-.26 192.7-.26 192.67.11 192.67.26z" fill="#e0e0e0"/><path d="m61.97 153.26h373.43v26.37h-373.43z" fill="#407bff"/><path d="m356 164.61c0 .14-43.95.26-98.14.26s-98.14-.12-98.14-.26 43.93-.27 98.14-.27 98.14.12 98.14.27z" fill="#fafafa"/><path d="m374.55 172.12c0 .14-54.95.26-122.73.26s-122.73-.12-122.73-.26 54.94-.26 122.73-.26 122.73.14 122.73.26z" fill="#fafafa"/><path d="m117.33 193.16h116.06v13.53h-116.06z" fill="#407bff"/><path d="m117.33 205.19h116.06v57.09h-116.06z" fill="#ebebeb"/><path d="m166.43 212.85c0 .15-9.58.26-21.39.26s-21.39-.11-21.39-.26 9.58-.26 21.39-.26 21.39.12 21.39.26z" fill="#263238"/><path d="m149.34 227.7c0 .14-5.75.26-12.84.26s-12.85-.12-12.85-.26 5.75-.26 12.85-.26 12.84.12 12.84.26z" fill="#263238"/><path d="m170.56 238.52c0 .14-10.5.26-23.45.26s-23.46-.12-23.46-.26 10.5-.26 23.46-.26 23.45.11 23.45.26z" fill="#263238"/><path d="m149.34 216.89c0 .14-5.75.26-12.84.26s-12.85-.12-12.85-.26 5.75-.27 12.85-.27 12.84.12 12.84.27z" fill="#263238"/><path d="m229.08 212.85a44 44 0 0 1 -6.82.26 44.12 44.12 0 0 1 -6.83-.26 45.67 45.67 0 0 1 6.83-.26 45.59 45.59 0 0 1 6.82.26z" fill="#263238"/><path d="m229.08 225a45.59 45.59 0 0 1 -6.82.26 45.67 45.67 0 0 1 -6.83-.26 44.12 44.12 0 0 1 6.83-.26 44 44 0 0 1 6.82.26z" fill="#263238"/><path d="m229.08 238.52a45.59 45.59 0 0 1 -6.82.26 45.67 45.67 0 0 1 -6.83-.26 44.12 44.12 0 0 1 6.83-.26 44 44 0 0 1 6.82.26z" fill="#263238"/><path d="m228.33 255.05c0 .14-4.83.26-10.79.26s-10.79-.12-10.79-.26 4.83-.26 10.79-.26 10.79.11 10.79.26z" fill="#263238"/><path d="m176.05 261.29c-.14 0-.26-12.34-.26-27.55s.12-27.55.26-27.55.26 12.33.26 27.55-.11 27.55-.26 27.55z" fill="#e0e0e0"/><path d="m232.42 246.07c0 .14-12.84.26-28.66.26s-28.66-.12-28.66-.26 12.83-.26 28.66-.26 28.66.11 28.66.26z" fill="#e0e0e0"/><path d="m117.33 287.35h116.06v14.03h-116.06z" fill="#f5f5f5"/><path d="m117.14 274.32h116.25v13.53h-116.25z" fill="#407bff"/><path d="m171.54 295.05c0 .15-10.95.26-24.45.26s-24.46-.11-24.46-.26 11-.26 24.46-.26 24.45.12 24.45.26z" fill="#263238"/><path d="m228.33 294.36c0 .14-4.83.26-10.79.26s-10.79-.12-10.79-.26 4.83-.26 10.79-.26 10.79.12 10.79.26z" fill="#263238"/><path d="m294.9 240.02h10.04v34.06h-10.04z" fill="#407bff"/><path d="m355.9 246.2h10.04v27.88h-10.04z" fill="#407bff"/><path d="m396.56 253.99h10.04v20.09h-10.04z" fill="#263238"/><path d="m315.23 219.13h10.04v54.95h-10.04z" fill="#455a64"/><path d="m335.57 219.13h10.04v54.95h-10.04z" fill="#263238"/><path d="m376.23 206.44h10.04v67.64h-10.04z" fill="#455a64"/><path d="m58.88 121.21h8.91v8.91h-8.91z" fill="#407bff"/><path d="m73 134h-9.9v-9.9h9.9zm-8.9-1h7.9v-7.9h-7.9z" fill="#407bff"/><path d="m86.02 123.57h8.32v8.32h-8.32z" fill="#e0e0e0"/><path d="m99.55 123.57h8.32v8.32h-8.32z" fill="#e0e0e0"/><path d="m113.07 123.57h8.32v8.32h-8.32z" fill="#e0e0e0"/><path d="m126.6 123.57h8.32v8.32h-8.32z" fill="#e0e0e0"/><path d="m140.12 123.57h8.32v8.32h-8.32z" fill="#e0e0e0"/><path d="m160.82 123.49h87.94v8.49h-87.94z" fill="#e0e0e0"/><path d="m260.83 123.49h87.94v8.49h-87.94z" fill="#e0e0e0"/><path d="m359.58 123.49h75.82v8.49h-75.82z" fill="#e0e0e0"/><path d="m435.58 307.24c0-1.58-.08-80.78-.2-209.89l.2.19-387.09.07.26-.26v209.89l-.25-.24 387.12.24-387.12.25h-.24v-.25c0-64.73 0-135.73 0-209.89v-.27h.29l387.09.07h.19v.2c-.18 129.11-.25 208.31-.25 209.89z" fill="#263238"/></svg>