<svg xmlns="http://www.w3.org/2000/svg" xmlns:xlink="http://www.w3.org/1999/xlink" width="1426" height="614" viewBox="0 0 1426 614">
  <defs>
    <linearGradient id="linear-gradient" x1="0.5" y1="1" x2="0.5" gradientUnits="objectBoundingBox">
      <stop offset="0" stop-color="gray" stop-opacity="0.251"/>
      <stop offset="0.535" stop-color="gray" stop-opacity="0.122"/>
      <stop offset="1" stop-color="gray" stop-opacity="0.102"/>
    </linearGradient>
    <clipPath id="clip-path">
      <rect id="Rectangle_223" data-name="Rectangle 223" width="1366" height="601" transform="translate(0 1522)" fill="#6c63ff"/>
    </clipPath>
    <clipPath id="clip-path-2">
      <rect id="Rectangle_225" data-name="Rectangle 225" width="1366" height="601" fill="#6c63ff"/>
    </clipPath>
    <clipPath id="clip-path-3">
      <rect id="Rectangle_227" data-name="Rectangle 227" width="1396" height="601" transform="translate(-30)" fill="#6c63ff"/>
    </clipPath>
    <clipPath id="clip-path-4">
      <rect id="Rectangle_229" data-name="Rectangle 229" width="1396" height="601" fill="#6c63ff"/>
    </clipPath>
  </defs>
  <g id="career-cta" transform="translate(30 -5485)">
    <rect id="Rectangle_209" data-name="Rectangle 209" width="1366" height="588" transform="translate(0 5498)" fill="#f7f7f7"/>
    <text id="_Email_us_at:_hr_treegain.com" data-name="​​Email us at: hr@treegain.com" transform="translate(536 5711)" font-size="22" font-family="CircularStd-Book, Circular Std"><tspan x="0" y="0">​​Email us at</tspan><tspan y="0" font-family="CircularStd-Bold, Circular Std" font-weight="700">: hr@treegain.com</tspan></text>
    <text id="Didn_t_find_a_position_that_suits_you_Don_t_worry_you_can_send_us_your_CV_and_we_will_review_it." data-name="Didn’t find a position that suits you? Don’t worry you can send us your CV and we will review it." transform="translate(345 5589)" fill="#021826" font-size="30" font-family="Catamaran-Medium, Catamaran" font-weight="500"><tspan x="8.825" y="33">Didn’t find a position that suits you? Don’t worry you </tspan><tspan x="78.92" y="75">can send us your CV and we will review it.</tspan></text>
    <g id="Group_458" data-name="Group 458" transform="translate(464.17 5775.933)">
      <path id="Path_539" data-name="Path 539" d="M239.029,628.586c-3.272,12.461-14.738,20.248-14.738,20.248s-6.161-12.416-2.889-24.876S236.14,603.71,236.14,603.71,242.3,616.125,239.029,628.586Z" transform="translate(-170.708 -376.633)" fill="#3f3d56"/>
      <path id="Path_540" data-name="Path 540" d="M237.959,639.937c-9.165,9.054-10.19,22.876-10.19,22.876s13.833-.858,23-9.912,10.19-22.877,10.19-22.877S247.123,630.882,237.959,639.937Z" transform="translate(-174.601 -390.619)" fill="#6c63ff"/>
      <rect id="Rectangle_216" data-name="Rectangle 216" width="50.088" height="21.314" rx="10.657" transform="translate(31.882 268.552)" fill="#6c63ff"/>
      <g id="Group_455" data-name="Group 455" transform="translate(381.12 247.257)" opacity="0.7">
        <path id="Path_541" data-name="Path 541" d="M966.206,654.465v-7.68H927.8v35.521a7.488,7.488,0,0,0,7.488,7.488h23.425a7.488,7.488,0,0,0,7.488-7.488v-7.872a9.984,9.984,0,0,0,0-19.969Zm0,16.128V658.3a6.144,6.144,0,0,1,0,12.288Z" transform="translate(-927.805 -646.785)" fill="url(#linear-gradient)"/>
      </g>
      <path id="Path_542" data-name="Path 542" d="M996.794,665.744a9.116,9.116,0,1,0,9.116,9.116A9.116,9.116,0,0,0,996.794,665.744Zm0,14.726a5.61,5.61,0,1,1,5.61-5.61,5.61,5.61,0,0,1-5.61,5.61Z" transform="translate(-578.508 -409.605)" fill="#6c63ff"/>
      <path id="Path_543" data-name="Path 543" d="M996.794,665.744a9.116,9.116,0,1,0,9.116,9.116A9.116,9.116,0,0,0,996.794,665.744Zm0,14.726a5.61,5.61,0,1,1,5.61-5.61,5.61,5.61,0,0,1-5.61,5.61Z" transform="translate(-578.508 -409.605)" opacity="0.1"/>
      <path id="Path_544" data-name="Path 544" d="M818.016,531.776h35.062v34.7a4.568,4.568,0,0,1-4.568,4.568H822.583a4.568,4.568,0,0,1-4.568-4.568Z" transform="translate(-434.792 -282.65)" fill="#6c63ff"/>
      <rect id="Rectangle_217" data-name="Rectangle 217" width="455.101" height="15.427" transform="translate(0 288.396)" fill="#e0e0e0"/>
      <g id="Group_456" data-name="Group 456" transform="translate(145.415 0)" opacity="0.7">
        <path id="Path_545" data-name="Path 545" d="M578.607,304.174c-4.878-17.7-32.53-30.633-53.337-33.5,0-.131.01-.26.01-.392V255.127l.067-.023v-.574a51.973,51.973,0,0,0,31.393-32.9,56.169,56.169,0,0,0,3.35-7.222c2.221-.809,3.9-4.471,3.9-8.872a15.492,15.492,0,0,0-.627-4.448,56.951,56.951,0,0,0,.416-6.755,56.3,56.3,0,0,0-18.6-41.874,10.981,10.981,0,0,0,.176-2.753c-.471-7.274-8.24-12.216-15.522-12.547a15.366,15.366,0,0,0,2.591-16.227c-4.643,6.765-14.176,7.484-22.38,7.537A6.712,6.712,0,0,0,513.12,119c-8.575,11.494-25.291,13.622-35.49,23.7a29.919,29.919,0,0,0-5.519,7.527,56.33,56.33,0,0,0-21.231,44.1,56.951,56.951,0,0,0,.409,6.694,15.445,15.445,0,0,0-.647,4.509c0,4.421,1.693,8.1,3.93,8.881a56.165,56.165,0,0,0,3.365,7.246,51.963,51.963,0,0,0,31.173,32.787v15.836c0,.122.007.242.009.363-20.885,2.817-48.759,15.848-53.593,33.695-4.175,15.412-8.631,32.338-10.848,42.276,19.005,13.354,58.885,21.2,83.877,21.2,23.746,0,62.557-7.077,81-19.237C587.56,337.656,582.963,319.986,578.607,304.174Z" transform="translate(-424.678 -119)" fill="url(#linear-gradient)"/>
      </g>
      <path id="Path_546" data-name="Path 546" d="M511.809,533.75c22.907,0,60.347-6.827,78.141-18.558-1.927-10.533-6.362-27.578-10.564-42.832-5.352-19.427-39.131-32.895-59.282-32.895H500.686c-20.213,0-54.041,13.546-59.325,33.056-4.027,14.868-8.326,31.2-10.465,40.782C449.23,526.186,487.7,533.75,511.809,533.75Z" transform="translate(-282.568 -289.334)" fill="#6c63ff"/>
      <circle id="Ellipse_89" data-name="Ellipse 89" cx="54.454" cy="54.454" r="54.454" transform="translate(173.605 22.609)" fill="#72351c"/>
      <path id="Path_547" data-name="Path 547" d="M449.291,261.311h34.892v27.913a17.446,17.446,0,0,1-17.446,17.446h0a17.446,17.446,0,0,1-17.446-17.446V261.311Z" transform="translate(-238.807 -138.892)" opacity="0.1"/>
      <path id="Path_548" data-name="Path 548" d="M454.3,258.553h24.882a5,5,0,0,1,5,5v22.909a17.446,17.446,0,0,1-17.446,17.446h0a17.446,17.446,0,0,1-17.446-17.446V263.557a5,5,0,0,1,5-5Z" transform="translate(-238.807 -137.426)" fill="#fda57d"/>
      <path id="Path_549" data-name="Path 549" d="M563.709,403.68a50.217,50.217,0,0,0,34.892.1V399.49H563.709Z" transform="translate(-353.16 -268.086)" opacity="0.1"/>
      <circle id="Ellipse_90" data-name="Ellipse 90" cx="50.012" cy="50.012" r="50.012" transform="translate(178.048 37.907)" fill="#fda57d"/>
      <path id="Path_550" data-name="Path 550" d="M525.046,195.288s21.077,42.783,80.532,17.931l-13.841-21.706L567.2,182.705Z" transform="translate(-332.61 -152.861)" opacity="0.1"/>
      <path id="Path_551" data-name="Path 551" d="M525.046,193.945s21.077,42.783,80.532,17.931l-13.841-21.706L567.2,181.362Z" transform="translate(-332.61 -152.147)" fill="#72351c"/>
      <path id="Path_552" data-name="Path 552" d="M523.462,162.9a28.891,28.891,0,0,1,7.161-11.648c9.839-9.724,25.964-11.777,34.236-22.865a6.475,6.475,0,0,1-2.966,9.131c7.915-.051,17.11-.745,21.589-7.27a14.823,14.823,0,0,1-2.5,15.653c7.025.319,14.52,5.086,14.974,12.1.3,4.675-2.629,9.1-6.47,11.782s-8.489,3.912-13.064,4.92C563.068,177.647,514.748,189.988,523.462,162.9Z" transform="translate(-331.214 -123.988)" fill="#72351c"/>
      <path id="Path_553" data-name="Path 553" d="M594.379,307.6h-1.326l-25.8,22.964c-24.852-11.639-43.1,0-43.1,0l-27.054-22.021-2.728.343A50.007,50.007,0,1,0,594.385,307.6Zm-50.086,31.773c-9.729,0-17.616-1.972-17.616-4.4s7.887-4.4,17.616-4.4,17.616,1.972,17.616,4.4S554.022,339.375,544.293,339.375Z" transform="translate(-316.31 -219.246)" fill="#72351c"/>
      <ellipse id="Ellipse_91" data-name="Ellipse 91" cx="4.652" cy="8.723" rx="4.652" ry="8.723" transform="translate(173.376 79.148)" fill="#fda57d"/>
      <ellipse id="Ellipse_92" data-name="Ellipse 92" cx="4.652" cy="8.723" rx="4.652" ry="8.723" transform="translate(273.412 79.148)" fill="#fda57d"/>
      <g id="Group_457" data-name="Group 457" transform="translate(130.78 176.947)" opacity="0.7">
        <rect id="Rectangle_218" data-name="Rectangle 218" width="193.54" height="111.449" rx="14.5" fill="url(#linear-gradient)"/>
      </g>
      <rect id="Rectangle_219" data-name="Rectangle 219" width="186.528" height="109.392" rx="26.835" transform="translate(134.286 179.003)" fill="#535461"/>
      <circle id="Ellipse_93" data-name="Ellipse 93" cx="6.311" cy="6.311" r="6.311" transform="translate(221.239 227.388)" fill="#fff"/>
      <rect id="Rectangle_220" data-name="Rectangle 220" width="416.533" height="6.311" transform="translate(19.284 303.823)" fill="#e0e0e0"/>
      <rect id="Rectangle_221" data-name="Rectangle 221" width="416.533" height="2.104" transform="translate(19.284 303.823)" opacity="0.1"/>
      <path id="Path_554" data-name="Path 554" d="M985.908,650.776v32.432a6.837,6.837,0,0,1-6.837,6.837h3.506a6.837,6.837,0,0,0,6.837-6.837V650.776Z" transform="translate(-573.934 -401.65)" opacity="0.1"/>
      <path id="Path_555" data-name="Path 555" d="M945.158,593.961a2.047,2.047,0,0,0-1.548.786c-.46.834.374,1.774,1.134,2.347a15.083,15.083,0,0,1,3.841,3.575,4.482,4.482,0,0,1,.211,4.955c-1.363,1.849-4.616,2.246-4.93,4.522-.2,1.461,1.061,2.707,2.34,3.44,3.158,1.809,7.23,2.292,9.517,5.123a7.379,7.379,0,0,1,5.173-3.551c2.11-.48,4.3-.445,6.441-.77a2.227,2.227,0,0,0,1.777-.943c.6-1.214-1.106-2.669-.518-3.887.448-.927,1.763-.855,2.723-1.227a3.547,3.547,0,0,0,1.765-4.234,7.972,7.972,0,0,0-3.016-3.916,33.781,33.781,0,0,0-12.146-5.615,31.134,31.134,0,0,0-6.456-1.494A32.267,32.267,0,0,0,945.158,593.961Z" transform="translate(-555.015 -370.974)" fill="#eee"/>
    </g>
    <g id="Mask_Group_6" data-name="Mask Group 6" transform="translate(0 3963)" clip-path="url(#clip-path)">
      <rect id="Rectangle_222" data-name="Rectangle 222" width="267" height="395" rx="10" transform="matrix(-0.899, 0.438, -0.438, -0.899, 1527.135, 2242.024)" fill="#f26b1d"/>
    </g>
    <g id="Mask_Group_7" data-name="Mask Group 7" transform="translate(0 5498)" clip-path="url(#clip-path-2)">
      <rect id="Rectangle_224" data-name="Rectangle 224" width="267" height="395" rx="10" transform="matrix(0.899, -0.438, 0.438, 0.899, -161.135, -119.024)" fill="#f26b1d"/>
    </g>
    <g id="Mask_Group_8" data-name="Mask Group 8" transform="translate(30 5498)" clip-path="url(#clip-path-3)">
      <g id="Rectangle_226" data-name="Rectangle 226" transform="matrix(0.899, -0.438, 0.438, 0.899, -161.135, -119.024)" fill="none" stroke="#6c63ff" stroke-width="2">
        <rect width="267" height="395" rx="10" stroke="none"/>
        <rect x="1" y="1" width="265" height="393" rx="9" fill="none"/>
      </g>
    </g>
    <g id="Mask_Group_9" data-name="Mask Group 9" transform="translate(-30 5485)" clip-path="url(#clip-path-4)">
      <g id="Rectangle_228" data-name="Rectangle 228" transform="matrix(-0.899, 0.438, -0.438, -0.899, 1527.135, 720.024)" fill="none" stroke="#6c63ff" stroke-width="2">
        <rect width="267" height="395" rx="10" stroke="none"/>
        <rect x="1" y="1" width="265" height="393" rx="9" fill="none"/>
      </g>
    </g>
  </g>
</svg>
