<svg height="614" viewBox="0 0 1426 614" width="1426" xmlns="http://www.w3.org/2000/svg" xmlns:xlink="http://www.w3.org/1999/xlink"><linearGradient id="a" gradientUnits="objectBoundingBox" x1=".5" x2=".5" y1="1"><stop offset="0" stop-color="#808080" stop-opacity=".251"/><stop offset=".535" stop-color="#808080" stop-opacity=".122"/><stop offset="1" stop-color="#808080" stop-opacity=".102"/></linearGradient><clipPath id="b"><path d="m0 1522h1366v601h-1366z"/></clipPath><clipPath id="c"><path d="m0 0h1366v601h-1366z"/></clipPath><clipPath id="d"><path d="m-30 0h1396v601h-1396z"/></clipPath><clipPath id="e"><path d="m0 0h1396v601h-1396z"/></clipPath><path d="m30 13h1366v588h-1366z" fill="#f7f7f7"/><text font-family="CircularStd-Book, Circular Std" font-size="22" transform="translate(566 226)"><tspan x="0" y="0">​​Email us at</tspan><tspan font-family="CircularStd-Bold, Circular Std" font-weight="700" y="0">: hr@treegain.com</tspan></text><text fill="#021826" font-family="Catamaran-Medium, Catamaran" font-size="30" font-weight="500" transform="translate(375 104)"><tspan x="8.825" y="33">Didn’t find a position that suits you? Don’t worry you</tspan><tspan x="78.92" y="75">can send us your CV and we will review it.</tspan></text><path d="m239.029 628.586c-3.272 12.461-14.738 20.248-14.738 20.248s-6.161-12.416-2.889-24.876 14.738-20.248 14.738-20.248 6.16 12.415 2.889 24.876z" fill="#3f3d56" transform="translate(323.462 -85.7)"/><path d="m237.959 639.937c-9.165 9.054-10.19 22.876-10.19 22.876s13.833-.858 23-9.912 10.19-22.877 10.19-22.877-13.836.858-23 9.913z" fill="#6c63ff" transform="translate(319.569 -99.686)"/><rect fill="#6c63ff" height="21.314" rx="10.657" width="50.088" x="526.052" y="559.485"/><path d="m966.206 654.465v-7.68h-38.406v35.521a7.488 7.488 0 0 0 7.488 7.488h23.425a7.488 7.488 0 0 0 7.488-7.488v-7.872a9.984 9.984 0 0 0 0-19.969zm0 16.128v-12.293a6.144 6.144 0 0 1 0 12.288z" fill="url(#a)" opacity=".7" transform="translate(-52.515 -108.595)"/><path d="m996.794 665.744a9.116 9.116 0 1 0 9.116 9.116 9.116 9.116 0 0 0 -9.116-9.116zm0 14.726a5.61 5.61 0 1 1 5.61-5.61 5.61 5.61 0 0 1 -5.61 5.61z" fill="#6c63ff" transform="translate(-84.338 -118.672)"/><path d="m996.794 665.744a9.116 9.116 0 1 0 9.116 9.116 9.116 9.116 0 0 0 -9.116-9.116zm0 14.726a5.61 5.61 0 1 1 5.61-5.61 5.61 5.61 0 0 1 -5.61 5.61z" opacity=".1" transform="translate(-84.338 -118.672)"/><path d="m818.016 531.776h35.062v34.7a4.568 4.568 0 0 1 -4.568 4.568h-25.927a4.568 4.568 0 0 1 -4.568-4.568z" fill="#6c63ff" transform="translate(59.378 8.283)"/><path d="m494.17 579.329h455.101v15.427h-455.101z" fill="#e0e0e0"/><path d="m578.607 304.174c-4.878-17.7-32.53-30.633-53.337-33.5 0-.131.01-.26.01-.392v-15.155l.067-.023v-.574a51.973 51.973 0 0 0 31.393-32.9 56.169 56.169 0 0 0 3.35-7.222c2.221-.809 3.9-4.471 3.9-8.872a15.492 15.492 0 0 0 -.627-4.448 56.951 56.951 0 0 0 .416-6.755 56.3 56.3 0 0 0 -18.6-41.874 10.981 10.981 0 0 0 .176-2.753c-.471-7.274-8.24-12.216-15.522-12.547a15.366 15.366 0 0 0 2.591-16.227c-4.643 6.765-14.176 7.484-22.38 7.537a6.712 6.712 0 0 0 3.076-9.469c-8.575 11.494-25.291 13.622-35.49 23.7a29.919 29.919 0 0 0 -5.519 7.527 56.33 56.33 0 0 0 -21.231 44.1 56.951 56.951 0 0 0 .409 6.694 15.445 15.445 0 0 0 -.647 4.509c0 4.421 1.693 8.1 3.93 8.881a56.165 56.165 0 0 0 3.365 7.246 51.963 51.963 0 0 0 31.173 32.787v15.836c0 .122.007.242.009.363-20.885 2.817-48.759 15.848-53.593 33.695-4.175 15.412-8.631 32.338-10.848 42.276 19.005 13.354 58.885 21.2 83.877 21.2 23.746 0 62.557-7.077 81-19.237-1.995-10.921-6.592-28.591-10.948-44.403z" fill="url(#a)" opacity=".7" transform="translate(214.907 171.933)"/><path d="m511.809 533.75c22.907 0 60.347-6.827 78.141-18.558-1.927-10.533-6.362-27.578-10.564-42.832-5.352-19.427-39.131-32.895-59.282-32.895h-19.418c-20.213 0-54.041 13.546-59.325 33.056-4.027 14.868-8.326 31.2-10.465 40.782 18.334 12.883 56.804 20.447 80.913 20.447z" fill="#6c63ff" transform="translate(211.602 1.599)"/><circle cx="722.229" cy="367.996" fill="#72351c" r="54.454"/><path d="m449.291 261.311h34.892v27.913a17.446 17.446 0 0 1 -17.446 17.446 17.446 17.446 0 0 1 -17.446-17.446z" opacity=".1" transform="translate(255.363 152.041)"/><path d="m454.3 258.553h24.882a5 5 0 0 1 5 5v22.909a17.446 17.446 0 0 1 -17.446 17.446 17.446 17.446 0 0 1 -17.446-17.446v-22.905a5 5 0 0 1 5-5z" fill="#fda57d" transform="translate(255.363 153.507)"/><path d="m563.709 403.68a50.217 50.217 0 0 0 34.892.1v-4.29h-34.892z" opacity=".1" transform="translate(141.01 22.847)"/><circle cx="722.23" cy="378.852" fill="#fda57d" r="50.012"/><path d="m525.046 195.288s21.077 42.783 80.532 17.931l-13.841-21.706-24.537-8.808z" opacity=".1" transform="translate(161.56 138.072)"/><g fill="#72351c"><path d="m525.046 193.945s21.077 42.783 80.532 17.931l-13.841-21.706-24.537-8.808z" transform="translate(161.56 138.786)"/><path d="m523.462 162.9a28.891 28.891 0 0 1 7.161-11.648c9.839-9.724 25.964-11.777 34.236-22.865a6.475 6.475 0 0 1 -2.966 9.131c7.915-.051 17.11-.745 21.589-7.27a14.823 14.823 0 0 1 -2.5 15.653c7.025.319 14.52 5.086 14.974 12.1.3 4.675-2.629 9.1-6.47 11.782s-8.489 3.912-13.064 4.92c-13.354 2.944-61.674 15.285-52.96-11.803z" transform="translate(162.956 166.945)"/><path d="m594.379 307.6h-1.326l-25.8 22.964c-24.852-11.639-43.1 0-43.1 0l-27.054-22.021-2.728.343a50.007 50.007 0 1 0 100.014-1.286zm-50.086 31.773c-9.729 0-17.616-1.972-17.616-4.4s7.887-4.4 17.616-4.4 17.616 1.972 17.616 4.4-7.887 4.402-17.616 4.402z" transform="translate(177.86 71.687)"/></g><ellipse cx="672.198" cy="378.804" fill="#fda57d" rx="4.652" ry="8.723"/><ellipse cx="772.234" cy="378.804" fill="#fda57d" rx="4.652" ry="8.723"/><rect fill="url(#a)" height="111.449" opacity=".7" rx="14.5" transform="translate(624.95 467.88)" width="193.54"/><rect fill="#535461" height="109.392" rx="26.835" width="186.528" x="628.456" y="469.936"/><circle cx="721.72" cy="524.632" fill="#fff" r="6.311"/><path d="m513.454 594.756h416.533v6.311h-416.533z" fill="#e0e0e0"/><path d="m513.454 594.756h416.533v2.104h-416.533z" opacity=".1"/><path d="m985.908 650.776v32.432a6.837 6.837 0 0 1 -6.837 6.837h3.506a6.837 6.837 0 0 0 6.837-6.837v-32.432z" opacity=".1" transform="translate(-79.764 -110.717)"/><path d="m945.158 593.961a2.047 2.047 0 0 0 -1.548.786c-.46.834.374 1.774 1.134 2.347a15.083 15.083 0 0 1 3.841 3.575 4.482 4.482 0 0 1 .211 4.955c-1.363 1.849-4.616 2.246-4.93 4.522-.2 1.461 1.061 2.707 2.34 3.44 3.158 1.809 7.23 2.292 9.517 5.123a7.379 7.379 0 0 1 5.173-3.551c2.11-.48 4.3-.445 6.441-.77a2.227 2.227 0 0 0 1.777-.943c.6-1.214-1.106-2.669-.518-3.887.448-.927 1.763-.855 2.723-1.227a3.547 3.547 0 0 0 1.765-4.234 7.972 7.972 0 0 0 -3.016-3.916 33.781 33.781 0 0 0 -12.146-5.615 31.134 31.134 0 0 0 -6.456-1.494 32.267 32.267 0 0 0 -6.308.889z" fill="#eee" transform="translate(-60.845 -80.041)"/><g clip-path="url(#b)" transform="translate(30 -1522)"><rect fill="#f26b1d" height="395" rx="10" transform="matrix(-.899 .438 -.438 -.899 1527.135 2242.024)" width="267"/></g><g clip-path="url(#c)" transform="translate(30 13)"><rect fill="#f26b1d" height="395" rx="10" transform="matrix(.899 -.438 .438 .899 -161.135 -119.024)" width="267"/></g><g clip-path="url(#d)" transform="translate(60 13)"><g fill="none" stroke="#6c63ff" stroke-width="2" transform="matrix(.899 -.438 .438 .899 -161.135 -119.024)"><rect height="395" rx="10" stroke="none" width="267"/><rect fill="none" height="393" rx="9" width="265" x="1" y="1"/></g></g><g clip-path="url(#e)"><g fill="none" stroke="#6c63ff" stroke-width="2" transform="matrix(-.899 .438 -.438 -.899 1527.135 720.024)"><rect height="395" rx="10" stroke="none" width="267"/><rect fill="none" height="393" rx="9" width="265" x="1" y="1"/></g></g></svg>