<svg xmlns="http://www.w3.org/2000/svg" width="269" height="371.237" viewBox="0 0 269 371.237">
  <g id="CTA-Ilu" transform="translate(-960 -4479)">
    <rect id="Rectangle_161" data-name="Rectangle 161" width="108" height="68" rx="4" transform="translate(1096 4521)" fill="#fff" opacity="0.7"/>
    <rect id="Rectangle_162" data-name="Rectangle 162" width="108" height="68" rx="4" transform="translate(983 4479)" fill="#f26b1d" opacity="0.7"/>
    <g id="Group_283" data-name="Group 283" transform="translate(1053.655 4507)">
      <path id="Path_327" data-name="Path 327" d="M293.868,364.875l-7.084,21.756-9.613-8.1,5.059-17.2Z" transform="translate(-249.816 -73.842)" fill="#ffb9b9"/>
      <path id="Path_328" data-name="Path 328" d="M427.251,350.661l-2.53,33.9-61.22,1.518L336.686,447.3l-14.672-6.071s16.7-57.678,24.285-75.892,36.428-5.059,36.428-5.059l2.53-5.06Z" transform="translate(-292.129 -152.217)" fill="#2f2e41"/>
      <path id="Path_329" data-name="Path 329" d="M481.568,486.836s-1.012,16.19-2.53,17.2-13.155-1.012-13.155-1.012-3.5.777-17.708-3.036C432.2,495.7,450.2,489.366,450.2,489.366s11.637-7.589,16.7-11.131,8.6,4.047,8.6,4.047C474.484,485.319,481.568,486.836,481.568,486.836Z" transform="translate(-441.564 -178.095)" fill="#2f2e41"/>
      <path id="Path_344" data-name="Path 344" d="M333.591,177.613a23.933,23.933,0,0,1,4.685,12.3c.546,5.427,2.135,14.107,6.759,18.669,7.044,6.951,9.392,12.164,9.392,12.164l-2.348,2.607c0-5.213-3.131-6.082-3.131-6.082l.783,6.082c-21.133,19.984-68.1,1.738-68.1,1.738l1.565-15.64c-3.914,1.738-5.479,13.9-5.479,13.9l-6.262-1.738s10.958-19.115,18-36.493,18-13.033,18-13.033C320.379,165.189,328.909,171.59,333.591,177.613Z" transform="translate(-179.082 -115.112)" fill="#2f2e41"/>
      <path id="Path_345" data-name="Path 345" d="M410.737,172.7l-7.589-49.583s8.1-19.732-5.565-21.756-4.553,23.779-4.553,23.779l4.553,47.559Z" transform="translate(-329.751 -101.246)" fill="#ffb9b9"/>
      <path id="Path_346" data-name="Path 346" d="M403.168,483.031c-2.53,4.048-3.036,24.791-3.036,24.791l-17.708-11.131,5.059-18.214Z" transform="translate(-316.111 -178.337)" fill="#ffb9b9"/>
      <path id="Path_347" data-name="Path 347" d="M345.007,347.482s22.262,0,34.4,7.083c3.9,2.277,5.036,6.383,4.775,10.908a23.512,23.512,0,0,1-22.15,21.885L327.8,389.475c5.059,14.166-6.577,69.315-6.577,69.315l-18.214-2.53s2.53-18.72,2.024-19.732-5.059-40.476-2.024-61.22,44.523-12.143,44.523-12.143Z" transform="translate(-233.158 -151.567)" fill="#2f2e41"/>
      <path id="Path_348" data-name="Path 348" d="M430.236,507.1s1.518,14.672,1.012,16.7-21.25,3.036-39.97-2.53,2.53-11.637,2.53-11.637S406.456,501.031,410,498s8.6,4.048,8.6,4.048C419.611,506.6,430.236,507.1,430.236,507.1Z" transform="translate(-345.202 -182.172)" fill="#2f2e41"/>
      <ellipse id="Ellipse_73" data-name="Ellipse 73" cx="18.214" cy="18.214" rx="18.214" ry="18.214" transform="translate(119.049 109.55) rotate(-99.217)" fill="#ffb9b9"/>
      <path id="Path_349" data-name="Path 349" d="M348.562,228.41c-6.577,9.613,1.518,15.178,1.518,15.178l3.542,26.309s-37.946,3.542-44.523-1.518,7.589-21.756,12.649-23.274,6.071-22.262,6.071-22.262Z" transform="translate(-206.863 -126.096)" fill="#ffb9b9"/>
      <path id="Path_350" data-name="Path 350" d="M340.417,244.272l19.963-3.123,2.277,21.5s-1.012,48.065,0,56.666-17.2,18.214-17.2,18.214-26.309-2.024-31.369-4.554-21.25,2.53-21.25,2.53a13.681,13.681,0,0,1-5.312-.759c-3.036-1.012,7.842-73.109,7.842-73.109l9.613-22.262,11.637,4.554,3.542,16.7Z" transform="translate(-199.707 -129.475)" fill="#f26b1d"/>
      <path id="Path_351" data-name="Path 351" d="M234,147.932l-20.238-25.8-14.166-34.91,19.732-7.589,8.1,28.839,14.166,17.2.506,3.035Z" transform="translate(-136.313 -16.273)" fill="#f26b1d"/>
      <path id="Path_352" data-name="Path 352" d="M361.622,315.6,311.5,317.487s-18.68-10.292-22.248,3.049,23.105,7.235,23.105,7.235l47.768.9Z" transform="translate(-200.169 -144.663)" fill="#ffb9b9"/>
      <path id="Path_353" data-name="Path 353" d="M297.979,297.121l-23.274,1.518-3.036,15.684s28.333-.506,39.464-1.012,0-47.559-1.518-61.726-9.107-10.119-9.107-10.119l-4.554,3.542Z" transform="translate(-140.848 -129.792)" fill="#f26b1d"/>
      <path id="Path_354" data-name="Path 354" d="M155.921,197.45l-20.238,8.1,22.262-4.554,1.518-28.839Z" transform="translate(-2.838 -35.181)" opacity="0.15" style="isolation: isolate"/>
      <path id="Path_355" data-name="Path 355" d="M141.155,99.717l33.417.8L178.55,83.8H141.155Z" transform="translate(-26.279 -17.126)" fill="#2f2e41"/>
    </g>
    <rect id="Rectangle_160" data-name="Rectangle 160" width="126" height="80" rx="4" transform="translate(960 4555)" fill="#1c11cb" opacity="0.7"/>
  </g>
</svg>
