<svg xmlns="http://www.w3.org/2000/svg" viewBox="0 0 544.87 396.68"><defs><style>.cls-1,.cls-9{fill:#3daae0;}.cls-2{fill:#308ac1;}.cls-3{fill:#227daa;}.cls-4{fill:#155f84;}.cls-5{fill:#124c70;}.cls-6{fill:#063a54;}.cls-7{fill:#2a75ac;}.cls-8{fill:#419ed8;}.cls-9{stroke:#fff;stroke-miterlimit:10;stroke-width:12px;}</style></defs><g id="Layer_2" data-name="Layer 2"><g id="Layer_9" data-name="Layer 9"><path class="cls-1" d="M176.13,334.62s29.54-13.24,59.24-41.28c28.15-26.57,39.35-43.95,39.35-43.95s-19.81,8.18-26.1,10.54-31.6,9.12-31.6,9.12,36.16-23.28,53.77-41.52c6.21-6.43,12.65-13,18-19.26,9.85-11.55,16.74-21.31,16.74-21.31s-14.78,6.45-24.05,10.23-33.58,11.24-33.58,11.24,29.65-17.38,51.5-43.32,31.77-44.82,31.77-44.82A195.06,195.06,0,0,1,309.55,133c-11.16,5.5-28.69,12.42-28.69,12.42S305.23,126.9,320,109.13a178.1,178.1,0,0,0,21.7-34,112.87,112.87,0,0,0,7.23-19.5L334.87,62l-13.76,5.11s16.16-20.59,24.69-34.75C353.43,19.73,360.9,0,360.9,0s7.23,18.08,13.68,29.88,26.1,37.26,26.1,37.26S389.36,63.06,385,61s-12.42-5.66-12.42-5.66A167.27,167.27,0,0,0,382.75,81c6.76,13,21.15,30.35,26.34,36.32s31.53,28.31,31.53,28.31-19.81-7.94-25.95-11c-5.74-2.87-24.53-14.15-24.53-14.15s13.68,21.68,17.93,27.42c8.57,11.58,30.74,34.93,39.55,42.16s26.81,18.63,26.81,18.63-21.9-6.25-28.94-9c-7.35-2.82-29.09-12.58-29.09-12.58s9,12.7,19.58,24.61c8.66,9.76,18.62,18.54,23.19,23.19C471.67,247.66,504,269,504,269s-21.39-5.11-30.19-8.81c-8-3.35-27.52-11.4-27.52-11.4S460.9,268,471.91,279.42,497.31,304,511.77,314c10.94,7.55,33.1,20.6,33.1,20.6s-43.21,3.31-63.84,2c-33.65-2.2-62-10.93-70.92-13.13-6.33-1.56-49.21-17.14-49.21-17.14s-41.52,17-69.82,22.18-52.52,9.12-70.29,9.12S176.13,334.62,176.13,334.62Z"/><path class="cls-2" d="M190.38,327l.2-.12a252,252,0,0,0,44.79-33.58c28.15-26.57,39.35-43.95,39.35-43.95s-19.81,8.18-26.1,10.54-31.6,9.12-31.6,9.12,36.16-23.28,53.77-41.52c6.21-6.43,12.65-13,18-19.26,9.85-11.55,16.74-21.31,16.74-21.31s-14.78,6.45-24.05,10.23-33.58,11.24-33.58,11.24,29.65-17.38,51.5-43.32,31.77-44.82,31.77-44.82A195.06,195.06,0,0,1,309.55,133c-11.16,5.5-28.69,12.42-28.69,12.42S305.23,126.9,320,109.13a178.1,178.1,0,0,0,21.7-34,112.87,112.87,0,0,0,7.23-19.5L334.87,62l-13.76,5.11s16.16-20.59,24.69-34.75C353.43,19.73,360.9,0,360.9,0s7.23,18.08,13.68,29.88,26.1,37.26,26.1,37.26S389.36,63.06,385,61s-12.42-5.66-12.42-5.66A167.27,167.27,0,0,0,382.75,81c6.76,13,21.15,30.35,26.34,36.32s31.53,28.31,31.53,28.31-19.81-7.94-25.95-11c-5.74-2.87-24.53-14.15-24.53-14.15s13.68,21.68,17.93,27.42c8.57,11.58,30.74,34.93,39.55,42.16s26.81,18.63,26.81,18.63-21.9-6.25-28.94-9c-7.35-2.82-29.09-12.58-29.09-12.58s9,12.7,19.58,24.61c8.66,9.76,18.62,18.54,23.19,23.19C471.67,247.66,504,269,504,269s-21.39-5.11-30.19-8.81c-8-3.35-27.52-11.4-27.52-11.4S460.9,268,471.91,279.42,497.31,304,511.77,314c10.94,7.55,33.1,20.6,33.1,20.6s-43.21,3.31-63.84,2c-33.65-2.2-62-10.93-70.92-13.13-6.33-1.56-49.21-17.14-49.21-17.14s-41.52,17-69.82,22.18-52.52,9.12-70.29,9.12c-6.4,0-14-.39-21.07-.89h-.24Z"/><path class="cls-3" d="M250,278.83l.1-.11c17.39-18.14,24.6-29.33,24.6-29.33s-19.81,8.18-26.1,10.54c-2.38.89-7.48,2.41-12.91,4l-.25.07-3.94-4.5.32-.22c12-8.45,28.63-21,39-31.71,6.21-6.43,12.65-13,18-19.26,9.85-11.55,16.74-21.31,16.74-21.31s-14.78,6.45-24.05,10.23-33.58,11.24-33.58,11.24,29.65-17.38,51.5-43.32,31.77-44.82,31.77-44.82A195.06,195.06,0,0,1,309.55,133c-11.16,5.5-28.69,12.42-28.69,12.42S305.23,126.9,320,109.13a178.1,178.1,0,0,0,21.7-34,112.87,112.87,0,0,0,7.23-19.5L334.87,62l-13.76,5.11s16.16-20.59,24.69-34.75C353.43,19.73,360.9,0,360.9,0s7.23,18.08,13.68,29.88,26.1,37.26,26.1,37.26S389.36,63.06,385,61s-12.42-5.66-12.42-5.66A167.27,167.27,0,0,0,382.75,81c6.76,13,21.15,30.35,26.34,36.32s31.53,28.31,31.53,28.31-19.81-7.94-25.95-11c-5.74-2.87-24.53-14.15-24.53-14.15s13.68,21.68,17.93,27.42c8.57,11.58,30.74,34.93,39.55,42.16s26.81,18.63,26.81,18.63-21.9-6.25-28.94-9c-7.35-2.82-29.09-12.58-29.09-12.58s9,12.7,19.58,24.61c8.66,9.76,18.62,18.54,23.19,23.19C471.67,247.66,504,269,504,269s-21.39-5.11-30.19-8.81c-8-3.35-27.52-11.4-27.52-11.4S460.9,268,471.91,279.42,497.31,304,511.77,314c10.94,7.55,33.1,20.6,33.1,20.6s-43.21,3.31-63.84,2c-33.65-2.2-62-10.93-70.92-13.13-6.33-1.56-49.21-17.14-49.21-17.14s-37.17,15.21-65.14,21.24l-.27.06Z"/><path class="cls-4" d="M294.48,201.42l.28-.35c6.56-8.13,10.78-14.11,10.78-14.11s-10.49,4.58-19.35,8.28l-.34.15-9.42-7.59.23-.2a190.07,190.07,0,0,0,22.75-22.49c21.86-26,31.77-44.82,31.77-44.82A195.06,195.06,0,0,1,309.55,133c-11.16,5.5-28.69,12.42-28.69,12.42S305.23,126.9,320,109.13a178.1,178.1,0,0,0,21.7-34,112.87,112.87,0,0,0,7.23-19.5L334.87,62l-13.76,5.11s16.16-20.59,24.69-34.75C353.43,19.73,360.9,0,360.9,0s7.23,18.08,13.68,29.88,26.1,37.26,26.1,37.26S389.36,63.06,385,61s-12.42-5.66-12.42-5.66A167.27,167.27,0,0,0,382.75,81c6.76,13,21.15,30.35,26.34,36.32s31.53,28.31,31.53,28.31-19.81-7.94-25.95-11c-5.74-2.87-24.53-14.15-24.53-14.15s13.68,21.68,17.93,27.42c8.57,11.58,30.74,34.93,39.55,42.16s26.81,18.63,26.81,18.63-21.9-6.25-28.94-9c-7.35-2.82-29.09-12.58-29.09-12.58s9,12.7,19.58,24.61c8.66,9.76,18.62,18.54,23.19,23.19C471.67,247.66,504,269,504,269s-21.39-5.11-30.19-8.81c-8-3.35-27.52-11.4-27.52-11.4S460.9,268,471.91,279.42,497.31,304,511.77,314c10.94,7.55,33.1,20.6,33.1,20.6s-43.21,3.31-63.84,2l-.95-.06Z"/><path class="cls-5" d="M329.15,123.88c1.36-2.32,2-3.59,2-3.59s-1.15.8-3.1,2.06c-.12.08-10.88-10-10.83-10q1.42-1.61,2.76-3.21a178.1,178.1,0,0,0,21.7-34,112.87,112.87,0,0,0,7.23-19.5L334.87,62l-13.76,5.11s16.16-20.59,24.69-34.75C353.43,19.73,360.9,0,360.9,0s7.23,18.08,13.68,29.88,26.1,37.26,26.1,37.26S389.36,63.06,385,61s-12.42-5.66-12.42-5.66A167.27,167.27,0,0,0,382.75,81c6.76,13,21.15,30.35,26.34,36.32s31.53,28.31,31.53,28.31-19.81-7.94-25.95-11c-5.74-2.87-24.53-14.15-24.53-14.15s13.68,21.68,17.93,27.42c8.57,11.58,30.74,34.93,39.55,42.16s26.81,18.63,26.81,18.63-21.9-6.25-28.94-9c-7.35-2.82-29.09-12.58-29.09-12.58s9,12.7,19.58,24.61c8.66,9.76,18.62,18.54,23.19,23.19C471.67,247.66,504,269,504,269s-11.81-2.82-21.49-5.79l-.36-.11C478.93,262.08,329.14,123.9,329.15,123.88Z"/><path class="cls-6" d="M347.24,29.92l.09-.17C354.4,17.17,360.9,0,360.9,0s7.23,18.08,13.68,29.88c3.7,6.77,11.77,18.07,18,26.45C392.63,56.45,346.76,30.77,347.24,29.92Z"/><polygon class="cls-7" points="348.94 396.68 348.94 320.57 360.89 315.64 372.32 320.47 372.32 396.68 348.94 396.68"/><polygon class="cls-8" points="348.94 396.68 348.94 384.2 360.63 396.68 348.94 396.68"/><path class="cls-9" d="M124.94,341.5s26.26-11.77,52.67-36.7c25-23.63,35-39.08,35-39.08S195,273,189.39,275.09s-28.1,8.11-28.1,8.11,32.16-20.69,47.82-36.91c5.52-5.72,11.24-11.54,16-17.13,8.76-10.27,14.89-18.94,14.89-18.94s-13.14,5.73-21.39,9.08-29.85,10-29.85,10,26.36-15.45,45.79-38.52,28.24-39.84,28.24-39.84a173.36,173.36,0,0,1-19.22,11.32c-9.93,4.89-25.52,11.05-25.52,11.05s21.67-16.5,34.82-32.3a158.4,158.4,0,0,0,19.29-30.2,99.58,99.58,0,0,0,6.43-17.34l-12.51,5.67-12.23,4.54s14.36-18.31,22-30.9C282.58,61.53,289.22,44,289.22,44s6.43,16.08,12.16,26.57,23.21,33.13,23.21,33.13-10.07-3.63-14-5.45-11.05-5-11.05-5A148.11,148.11,0,0,0,308.65,116c6,11.54,18.81,27,23.42,32.3s28,25.17,28,25.17-17.61-7.06-23.07-9.79c-5.11-2.56-21.81-12.58-21.81-12.58s12.16,19.27,15.94,24.38c7.62,10.29,27.33,31,35.16,37.48s23.84,16.57,23.84,16.57-19.47-5.56-25.72-8c-6.54-2.51-25.87-11.18-25.87-11.18s8,11.29,17.41,21.88c7.7,8.68,16.56,16.48,20.62,20.62,11.11,11.32,39.85,30.27,39.85,30.27s-19-4.55-26.85-7.83c-7.09-3-24.46-10.14-24.46-10.14s13,17.06,22.78,27.27,22.58,21.88,35.45,30.75c9.72,6.72,29.43,18.32,29.43,18.32s-38.42,2.95-56.77,1.75c-29.92-2-55.11-9.72-63-11.68-5.63-1.38-43.76-15.24-43.76-15.24s-36.91,15.1-62.08,19.72-46.69,8.11-62.49,8.11S124.94,341.5,124.94,341.5Z"/><path class="cls-2" d="M137.61,334.76l.18-.11a224.35,224.35,0,0,0,39.82-29.85c25-23.63,35-39.08,35-39.08S195,273,189.39,275.09s-28.1,8.11-28.1,8.11,32.16-20.69,47.82-36.91c5.52-5.72,11.24-11.54,16-17.13,8.76-10.27,14.89-18.94,14.89-18.94s-13.14,5.73-21.39,9.08-29.85,10-29.85,10,26.36-15.45,45.79-38.52,28.24-39.84,28.24-39.84a173.36,173.36,0,0,1-19.22,11.32c-9.93,4.89-25.52,11.05-25.52,11.05s21.67-16.5,34.82-32.3a158.4,158.4,0,0,0,19.29-30.2,99.58,99.58,0,0,0,6.43-17.34l-12.51,5.67-12.23,4.54s14.36-18.31,22-30.9C282.58,61.53,289.22,44,289.22,44s6.43,16.08,12.16,26.57,23.21,33.13,23.21,33.13-10.07-3.63-14-5.45-11.05-5-11.05-5A148.11,148.11,0,0,0,308.65,116c6,11.54,18.81,27,23.42,32.3s28,25.17,28,25.17-17.61-7.06-23.07-9.79c-5.11-2.56-21.81-12.58-21.81-12.58s12.16,19.27,15.94,24.38c7.62,10.29,27.33,31,35.16,37.48s23.84,16.57,23.84,16.57-19.47-5.56-25.72-8c-6.54-2.51-25.87-11.18-25.87-11.18s8,11.29,17.41,21.88c7.7,8.68,16.56,16.48,20.62,20.62,11.11,11.32,39.85,30.27,39.85,30.27s-19-4.55-26.85-7.83c-7.09-3-24.46-10.14-24.46-10.14s13,17.06,22.78,27.27,22.58,21.88,35.45,30.75c9.72,6.72,29.43,18.32,29.43,18.32s-38.42,2.95-56.77,1.75c-29.92-2-55.11-9.72-63-11.68-5.63-1.38-43.76-15.24-43.76-15.24s-36.91,15.1-62.08,19.72-46.69,8.11-62.49,8.11c-5.7,0-12.44-.35-18.74-.79l-.21,0Z"/><path class="cls-3" d="M190.64,291.9l.09-.1c15.46-16.13,21.87-26.08,21.87-26.08S195,273,189.39,275.09c-2.11.79-6.65,2.15-11.48,3.52l-.22.07-3.51-4,.29-.2c10.71-7.52,25.46-18.69,34.64-28.19,5.52-5.72,11.24-11.54,16-17.13,8.76-10.27,14.89-18.94,14.89-18.94s-13.14,5.73-21.39,9.08-29.85,10-29.85,10,26.36-15.45,45.79-38.52,28.24-39.84,28.24-39.84a173.36,173.36,0,0,1-19.22,11.32c-9.93,4.89-25.52,11.05-25.52,11.05s21.67-16.5,34.82-32.3a158.4,158.4,0,0,0,19.29-30.2,99.58,99.58,0,0,0,6.43-17.34l-12.51,5.67-12.23,4.54s14.36-18.31,22-30.9C282.58,61.53,289.22,44,289.22,44s6.43,16.08,12.16,26.57,23.21,33.13,23.21,33.13-10.07-3.63-14-5.45-11.05-5-11.05-5A148.11,148.11,0,0,0,308.65,116c6,11.54,18.81,27,23.42,32.3s28,25.17,28,25.17-17.61-7.06-23.07-9.79c-5.11-2.56-21.81-12.58-21.81-12.58s12.16,19.27,15.94,24.38c7.62,10.29,27.33,31,35.16,37.48s23.84,16.57,23.84,16.57-19.47-5.56-25.72-8c-6.54-2.51-25.87-11.18-25.87-11.18s8,11.29,17.41,21.88c7.7,8.68,16.56,16.48,20.62,20.62,11.11,11.32,39.85,30.27,39.85,30.27s-19-4.55-26.85-7.83c-7.09-3-24.46-10.14-24.46-10.14s13,17.06,22.78,27.27,22.58,21.88,35.45,30.75c9.72,6.72,29.43,18.32,29.43,18.32s-38.42,2.95-56.77,1.75c-29.92-2-55.11-9.72-63-11.68-5.63-1.38-43.76-15.24-43.76-15.24s-33,13.52-57.92,18.88l-.23.05Z"/><path class="cls-4" d="M230.17,223.07l.25-.31c5.83-7.23,9.58-12.54,9.58-12.54s-9.33,4.07-17.2,7.36l-.31.12L214.12,211l.21-.18a168.94,168.94,0,0,0,20.22-20c19.44-23.07,28.24-39.84,28.24-39.84a173.36,173.36,0,0,1-19.22,11.32c-9.93,4.89-25.52,11.05-25.52,11.05s21.67-16.5,34.82-32.3a158.4,158.4,0,0,0,19.29-30.2,99.58,99.58,0,0,0,6.43-17.34l-12.51,5.67-12.23,4.54s14.36-18.31,22-30.9C282.58,61.53,289.22,44,289.22,44s6.43,16.08,12.16,26.57,23.21,33.13,23.21,33.13-10.07-3.63-14-5.45-11.05-5-11.05-5A148.11,148.11,0,0,0,308.65,116c6,11.54,18.81,27,23.42,32.3s28,25.17,28,25.17-17.61-7.06-23.07-9.79c-5.11-2.56-21.81-12.58-21.81-12.58s12.16,19.27,15.94,24.38c7.62,10.29,27.33,31,35.16,37.48s23.84,16.57,23.84,16.57-19.47-5.56-25.72-8c-6.54-2.51-25.87-11.18-25.87-11.18s8,11.29,17.41,21.88c7.7,8.68,16.56,16.48,20.62,20.62,11.11,11.32,39.85,30.27,39.85,30.27s-19-4.55-26.85-7.83c-7.09-3-24.46-10.14-24.46-10.14s13,17.06,22.78,27.27,22.58,21.88,35.45,30.75c9.72,6.72,29.43,18.32,29.43,18.32s-38.42,2.95-56.77,1.75l-.84-.06Z"/><path class="cls-5" d="M261,154.12c1.21-2.06,1.8-3.18,1.8-3.18s-1,.7-2.75,1.83c-.1.07-9.67-8.86-9.63-8.9.84-1,1.67-1.91,2.46-2.86a158.4,158.4,0,0,0,19.29-30.2,99.58,99.58,0,0,0,6.43-17.34l-12.51,5.67-12.23,4.54s14.36-18.31,22-30.9C282.58,61.53,289.22,44,289.22,44s6.43,16.08,12.16,26.57,23.21,33.13,23.21,33.13-10.07-3.63-14-5.45-11.05-5-11.05-5A148.11,148.11,0,0,0,308.65,116c6,11.54,18.81,27,23.42,32.3s28,25.17,28,25.17-17.61-7.06-23.07-9.79c-5.11-2.56-21.81-12.58-21.81-12.58s12.16,19.27,15.94,24.38c7.62,10.29,27.33,31,35.16,37.48s23.84,16.57,23.84,16.57-19.47-5.56-25.72-8c-6.54-2.51-25.87-11.18-25.87-11.18s8,11.29,17.41,21.88c7.7,8.68,16.56,16.48,20.62,20.62,11.11,11.32,39.85,30.27,39.85,30.27S406,280.62,397.34,278l-.32-.1C394.17,277,261,154.15,261,154.12Z"/><path class="cls-6" d="M277.08,70.58l.08-.15C283.44,59.25,289.22,44,289.22,44s6.43,16.08,12.16,26.57c3.3,6,10.47,16.06,16,23.52C317.43,94.17,276.65,71.34,277.08,70.58Z"/><polygon class="cls-7" points="278.59 396.68 278.59 329.01 289.22 324.63 299.38 328.92 299.38 396.68 278.59 396.68"/><polygon class="cls-8" points="278.59 396.68 278.59 385.59 288.99 396.68 278.59 396.68"/><path class="cls-9" d="M67.35,349.33s22.53-10.09,45.19-31.48c21.48-20.28,30-33.53,30-33.53s-15.11,6.24-19.91,8-24.11,7-24.11,7,27.59-17.75,41-31.67c4.74-4.9,9.65-9.89,13.74-14.69,7.51-8.81,12.77-16.25,12.77-16.25s-11.27,4.91-18.35,7.79-25.61,8.58-25.61,8.58,22.61-13.26,39.29-33,24.23-34.19,24.23-34.19a149.55,149.55,0,0,1-16.5,9.72c-8.51,4.2-21.89,9.48-21.89,9.48s18.59-14.16,29.87-27.71a136.31,136.31,0,0,0,16.55-25.91,86.29,86.29,0,0,0,5.52-14.88l-10.73,4.86-10.5,3.9s12.33-15.71,18.83-26.51c5.82-9.66,11.52-24.71,11.52-24.71s5.52,13.79,10.44,22.79,19.91,28.43,19.91,28.43-8.64-3.12-12-4.68-9.47-4.32-9.47-4.32A126.84,126.84,0,0,0,225,155.84c5.16,9.9,16.14,23.16,20.1,27.71s24.05,21.6,24.05,21.6-15.12-6.06-19.8-8.4c-4.38-2.19-18.71-10.8-18.71-10.8s10.43,16.54,13.68,20.92c6.53,8.83,23.45,26.65,30.16,32.16s20.46,14.22,20.46,14.22-16.7-4.77-22.07-6.84c-5.61-2.15-22.2-9.6-22.2-9.6s6.88,9.7,14.94,18.78c6.6,7.45,14.21,14.14,17.69,17.69,9.54,9.72,34.19,26,34.19,26s-16.31-3.9-23-6.72c-6.09-2.55-21-8.69-21-8.69s11.15,14.63,19.55,23.39a208.92,208.92,0,0,0,30.41,26.39c8.34,5.76,25.25,15.71,25.25,15.71s-33,2.53-48.7,1.5c-25.67-1.68-47.29-8.33-54.1-10-4.84-1.19-37.55-13.08-37.55-13.08s-31.67,13-53.26,16.92-40.07,6.95-53.62,6.95S67.35,349.33,67.35,349.33Z"/><path class="cls-2" d="M78.22,343.55l.15-.09a191.94,191.94,0,0,0,34.17-25.61c21.48-20.28,30-33.53,30-33.53s-15.11,6.24-19.91,8-24.11,7-24.11,7,27.59-17.75,41-31.67c4.74-4.9,9.65-9.89,13.74-14.69,7.51-8.81,12.77-16.25,12.77-16.25s-11.27,4.91-18.35,7.79-25.61,8.58-25.61,8.58,22.61-13.26,39.29-33,24.23-34.19,24.23-34.19a149.55,149.55,0,0,1-16.5,9.72c-8.51,4.2-21.89,9.48-21.89,9.48s18.59-14.16,29.87-27.71a136.31,136.31,0,0,0,16.55-25.91,86.29,86.29,0,0,0,5.52-14.88l-10.73,4.86-10.5,3.9s12.33-15.71,18.83-26.51c5.82-9.66,11.52-24.71,11.52-24.71s5.52,13.79,10.44,22.79,19.91,28.43,19.91,28.43-8.64-3.12-12-4.68-9.47-4.32-9.47-4.32A126.84,126.84,0,0,0,225,155.84c5.16,9.9,16.14,23.16,20.1,27.71s24.05,21.6,24.05,21.6-15.12-6.06-19.8-8.4c-4.38-2.19-18.71-10.8-18.71-10.8s10.43,16.54,13.68,20.92c6.53,8.83,23.45,26.65,30.16,32.16s20.46,14.22,20.46,14.22-16.7-4.77-22.07-6.84c-5.61-2.15-22.2-9.6-22.2-9.6s6.88,9.7,14.94,18.78c6.6,7.45,14.21,14.14,17.69,17.69,9.54,9.72,34.19,26,34.19,26s-16.31-3.9-23-6.72c-6.09-2.55-21-8.69-21-8.69s11.15,14.63,19.55,23.39a208.92,208.92,0,0,0,30.41,26.39c8.34,5.76,25.25,15.71,25.25,15.71s-33,2.53-48.7,1.5c-25.67-1.68-47.29-8.33-54.1-10-4.84-1.19-37.55-13.08-37.55-13.08s-31.67,13-53.26,16.92-40.07,6.95-53.62,6.95c-4.89,0-10.67-.29-16.08-.67h-.18Z"/><path class="cls-3" d="M123.72,306.78l.07-.08c13.27-13.85,18.77-22.38,18.77-22.38s-15.11,6.24-19.91,8c-1.82.69-5.71,1.85-9.85,3l-.19.05-3-3.43.24-.17c9.2-6.45,21.85-16,29.72-24.19,4.74-4.9,9.65-9.89,13.74-14.69,7.51-8.81,12.77-16.25,12.77-16.25s-11.27,4.91-18.35,7.79-25.61,8.58-25.61,8.58,22.61-13.26,39.29-33,24.23-34.19,24.23-34.19a149.55,149.55,0,0,1-16.5,9.72c-8.51,4.2-21.89,9.48-21.89,9.48s18.59-14.16,29.87-27.71a136.31,136.31,0,0,0,16.55-25.91,86.29,86.29,0,0,0,5.52-14.88l-10.73,4.86-10.5,3.9s12.33-15.71,18.83-26.51c5.82-9.66,11.52-24.71,11.52-24.71s5.52,13.79,10.44,22.79,19.91,28.43,19.91,28.43-8.64-3.12-12-4.68-9.47-4.32-9.47-4.32A126.84,126.84,0,0,0,225,155.84c5.16,9.9,16.14,23.16,20.1,27.71s24.05,21.6,24.05,21.6-15.12-6.06-19.8-8.4c-4.38-2.19-18.71-10.8-18.71-10.8s10.43,16.54,13.68,20.92c6.53,8.83,23.45,26.65,30.16,32.16s20.46,14.22,20.46,14.22-16.7-4.77-22.07-6.84c-5.61-2.15-22.2-9.6-22.2-9.6s6.88,9.7,14.94,18.78c6.6,7.45,14.21,14.14,17.69,17.69,9.54,9.72,34.19,26,34.19,26s-16.31-3.9-23-6.72c-6.09-2.55-21-8.69-21-8.69s11.15,14.63,19.55,23.39a208.92,208.92,0,0,0,30.41,26.39c8.34,5.76,25.25,15.71,25.25,15.71s-33,2.53-48.7,1.5c-25.67-1.68-47.29-8.33-54.1-10-4.84-1.19-37.55-13.08-37.55-13.08s-28.35,11.6-49.69,16.2l-.2,0Z"/><path class="cls-4" d="M157.63,247.73l.22-.27c5-6.21,8.22-10.76,8.22-10.76s-8,3.49-14.76,6.31l-.26.11-7.19-5.79.18-.15A145.8,145.8,0,0,0,161.4,220c16.67-19.79,24.23-34.19,24.23-34.19a149.55,149.55,0,0,1-16.5,9.72c-8.51,4.2-21.89,9.48-21.89,9.48s18.59-14.16,29.87-27.71a136.31,136.31,0,0,0,16.55-25.91,86.29,86.29,0,0,0,5.52-14.88l-10.73,4.86-10.5,3.9s12.33-15.71,18.83-26.51c5.82-9.66,11.52-24.71,11.52-24.71s5.52,13.79,10.44,22.79,19.91,28.43,19.91,28.43-8.64-3.12-12-4.68-9.47-4.32-9.47-4.32A126.84,126.84,0,0,0,225,155.84c5.16,9.9,16.14,23.16,20.1,27.71s24.05,21.6,24.05,21.6-15.12-6.06-19.8-8.4c-4.38-2.19-18.71-10.8-18.71-10.8s10.43,16.54,13.68,20.92c6.53,8.83,23.45,26.65,30.16,32.16s20.46,14.22,20.46,14.22-16.7-4.77-22.07-6.84c-5.61-2.15-22.2-9.6-22.2-9.6s6.88,9.7,14.94,18.78c6.6,7.45,14.21,14.14,17.69,17.69,9.54,9.72,34.19,26,34.19,26s-16.31-3.9-23-6.72c-6.09-2.55-21-8.69-21-8.69s11.15,14.63,19.55,23.39a208.92,208.92,0,0,0,30.41,26.39c8.34,5.76,25.25,15.71,25.25,15.71s-33,2.53-48.7,1.5l-.73,0Z"/><path class="cls-5" d="M184.08,188.57c1-1.77,1.55-2.74,1.55-2.74s-.88.61-2.36,1.57c-.09.06-8.3-7.59-8.27-7.63.73-.82,1.43-1.64,2.11-2.45a136.31,136.31,0,0,0,16.55-25.91,86.29,86.29,0,0,0,5.52-14.88l-10.73,4.86-10.5,3.9s12.33-15.71,18.83-26.51c5.82-9.66,11.52-24.71,11.52-24.71s5.52,13.79,10.44,22.79,19.91,28.43,19.91,28.43-8.64-3.12-12-4.68-9.47-4.32-9.47-4.32A126.84,126.84,0,0,0,225,155.84c5.16,9.9,16.14,23.16,20.1,27.71s24.05,21.6,24.05,21.6-15.12-6.06-19.8-8.4c-4.38-2.19-18.71-10.8-18.71-10.8s10.43,16.54,13.68,20.92c6.53,8.83,23.45,26.65,30.16,32.16s20.46,14.22,20.46,14.22-16.7-4.77-22.07-6.84c-5.61-2.15-22.2-9.6-22.2-9.6s6.88,9.7,14.94,18.78c6.6,7.45,14.21,14.14,17.69,17.69,9.54,9.72,34.19,26,34.19,26s-9-2.15-16.39-4.41l-.27-.09C298.35,294,184.07,188.59,184.08,188.57Z"/><path class="cls-6" d="M197.88,116.89l.07-.13A201.07,201.07,0,0,0,208.3,94.07s5.52,13.79,10.44,22.79c2.82,5.17,9,13.78,13.7,20.18C232.51,137.13,197.52,117.54,197.88,116.89Z"/><polygon class="cls-7" points="199.18 396.68 199.18 338.62 209.17 334.86 218.72 338.54 218.72 396.68 199.18 396.68"/><polygon class="cls-8" points="199.18 396.68 199.18 387.16 208.95 396.68 199.18 396.68"/><path class="cls-9" d="M22.56,360.21A140.5,140.5,0,0,0,57.37,336c16.54-15.62,23.13-25.83,23.13-25.83s-11.65,4.8-15.34,6.19-18.58,5.36-18.58,5.36S67.84,308,78.19,297.27c3.65-3.77,7.43-7.62,10.58-11.32,5.79-6.79,9.84-12.52,9.84-12.52s-8.69,3.79-14.14,6-19.73,6.61-19.73,6.61S82.16,275.83,95,260.59s18.66-26.34,18.66-26.34a114.5,114.5,0,0,1-12.7,7.48C94.41,245,84.1,249,84.1,249s14.33-10.9,23-21.34a104.78,104.78,0,0,0,12.76-20,67.07,67.07,0,0,0,4.25-11.46L115.85,200l-8.09,3s9.5-12.1,14.51-20.42c4.48-7.44,8.87-19,8.87-19s4.25,10.63,8,17.56S154.52,203,154.52,203s-6.65-2.4-9.24-3.6-7.3-3.33-7.3-3.33a97.6,97.6,0,0,0,6,15.07c4,7.62,12.42,17.83,15.47,21.34S178,249.13,178,249.13s-11.64-4.67-15.25-6.47c-3.37-1.69-14.41-8.32-14.41-8.32s8,12.74,10.53,16.12c5,6.8,18.07,20.52,23.24,24.77s15.76,10.95,15.76,10.95-12.87-3.67-17-5.26c-4.32-1.66-17.1-7.4-17.1-7.4s5.3,7.47,11.51,14.47c5.08,5.73,10.94,10.89,13.63,13.63,7.34,7.48,26.33,20,26.33,20s-12.56-3-17.74-5.17c-4.69-2-16.17-6.7-16.17-6.7s8.59,11.27,15.06,18a161.06,161.06,0,0,0,23.43,20.33c6.43,4.44,19.45,12.11,19.45,12.11s-25.39,1.94-37.52,1.15c-19.77-1.29-36.42-6.42-41.68-7.72-3.72-.91-28.92-10.07-28.92-10.07s-24.4,10-41,13S59.24,362,48.8,362,22.56,360.21,22.56,360.21Z"/><path class="cls-2" d="M30.93,355.75l.12-.07A148.21,148.21,0,0,0,57.37,336c16.54-15.62,23.13-25.83,23.13-25.83s-11.65,4.8-15.34,6.19-18.58,5.36-18.58,5.36S67.84,308,78.19,297.27c3.65-3.77,7.43-7.62,10.58-11.32,5.79-6.79,9.84-12.52,9.84-12.52s-8.69,3.79-14.14,6-19.73,6.61-19.73,6.61S82.16,275.83,95,260.59s18.66-26.34,18.66-26.34a114.5,114.5,0,0,1-12.7,7.48C94.41,245,84.1,249,84.1,249s14.33-10.9,23-21.34a104.78,104.78,0,0,0,12.76-20,67.07,67.07,0,0,0,4.25-11.46L115.85,200l-8.09,3s9.5-12.1,14.51-20.42c4.48-7.44,8.87-19,8.87-19s4.25,10.63,8,17.56S154.52,203,154.52,203s-6.65-2.4-9.24-3.6-7.3-3.33-7.3-3.33a97.6,97.6,0,0,0,6,15.07c4,7.62,12.42,17.83,15.47,21.34S178,249.13,178,249.13s-11.64-4.67-15.25-6.47c-3.37-1.69-14.41-8.32-14.41-8.32s8,12.74,10.53,16.12c5,6.8,18.07,20.52,23.24,24.77s15.76,10.95,15.76,10.95-12.87-3.67-17-5.26c-4.32-1.66-17.1-7.4-17.1-7.4s5.3,7.47,11.51,14.47c5.08,5.73,10.94,10.89,13.63,13.63,7.34,7.48,26.33,20,26.33,20s-12.56-3-17.74-5.17c-4.69-2-16.17-6.7-16.17-6.7s8.59,11.27,15.06,18a161.06,161.06,0,0,0,23.43,20.33c6.43,4.44,19.45,12.11,19.45,12.11s-25.39,1.94-37.52,1.15c-19.77-1.29-36.42-6.42-41.68-7.72-3.72-.91-28.92-10.07-28.92-10.07s-24.4,10-41,13S59.24,362,48.8,362c-3.76,0-8.22-.23-12.38-.52h-.14Z"/><path class="cls-3" d="M66,327.42l.06-.06c10.22-10.67,14.46-17.24,14.46-17.24s-11.65,4.8-15.34,6.19c-1.4.52-4.4,1.42-7.59,2.33l-.14,0L55.11,316l.18-.13c7.09-5,16.83-12.35,22.9-18.64,3.65-3.77,7.43-7.62,10.58-11.32,5.79-6.79,9.84-12.52,9.84-12.52s-8.69,3.79-14.14,6-19.73,6.61-19.73,6.61S82.16,275.83,95,260.59s18.66-26.34,18.66-26.34a114.5,114.5,0,0,1-12.7,7.48C94.41,245,84.1,249,84.1,249s14.33-10.9,23-21.34a104.78,104.78,0,0,0,12.76-20,67.07,67.07,0,0,0,4.25-11.46L115.85,200l-8.09,3s9.5-12.1,14.51-20.42c4.48-7.44,8.87-19,8.87-19s4.25,10.63,8,17.56S154.52,203,154.52,203s-6.65-2.4-9.24-3.6-7.3-3.33-7.3-3.33a97.6,97.6,0,0,0,6,15.07c4,7.62,12.42,17.83,15.47,21.34S178,249.13,178,249.13s-11.64-4.67-15.25-6.47c-3.37-1.69-14.41-8.32-14.41-8.32s8,12.74,10.53,16.12c5,6.8,18.07,20.52,23.24,24.77s15.76,10.95,15.76,10.95-12.87-3.67-17-5.26c-4.32-1.66-17.1-7.4-17.1-7.4s5.3,7.47,11.51,14.47c5.08,5.73,10.94,10.89,13.63,13.63,7.34,7.48,26.33,20,26.33,20s-12.56-3-17.74-5.17c-4.69-2-16.17-6.7-16.17-6.7s8.59,11.27,15.06,18a161.06,161.06,0,0,0,23.43,20.33c6.43,4.44,19.45,12.11,19.45,12.11s-25.39,1.94-37.52,1.15c-19.77-1.29-36.42-6.42-41.68-7.72-3.72-.91-28.92-10.07-28.92-10.07s-21.84,8.94-38.28,12.48l-.16,0Z"/><path class="cls-4" d="M92.11,281.93l.17-.21c3.85-4.78,6.33-8.29,6.33-8.29s-6.17,2.69-11.37,4.87l-.2.08-5.54-4.46.14-.11A112.25,112.25,0,0,0,95,260.59c12.84-15.25,18.66-26.34,18.66-26.34a114.5,114.5,0,0,1-12.7,7.48C94.41,245,84.1,249,84.1,249s14.33-10.9,23-21.34a104.78,104.78,0,0,0,12.76-20,67.07,67.07,0,0,0,4.25-11.46L115.85,200l-8.09,3s9.5-12.1,14.51-20.42c4.48-7.44,8.87-19,8.87-19s4.25,10.63,8,17.56S154.52,203,154.52,203s-6.65-2.4-9.24-3.6-7.3-3.33-7.3-3.33a97.6,97.6,0,0,0,6,15.07c4,7.62,12.42,17.83,15.47,21.34S178,249.13,178,249.13s-11.64-4.67-15.25-6.47c-3.37-1.69-14.41-8.32-14.41-8.32s8,12.74,10.53,16.12c5,6.8,18.07,20.52,23.24,24.77s15.76,10.95,15.76,10.95-12.87-3.67-17-5.26c-4.32-1.66-17.1-7.4-17.1-7.4s5.3,7.47,11.51,14.47c5.08,5.73,10.94,10.89,13.63,13.63,7.34,7.48,26.33,20,26.33,20s-12.56-3-17.74-5.17c-4.69-2-16.17-6.7-16.17-6.7s8.59,11.27,15.06,18a161.06,161.06,0,0,0,23.43,20.33c6.43,4.44,19.45,12.11,19.45,12.11s-25.39,1.94-37.52,1.15l-.55,0Z"/><path class="cls-5" d="M112.48,236.36c.8-1.37,1.19-2.11,1.19-2.11s-.67.47-1.81,1.21c-.07,0-6.4-5.85-6.37-5.88q.84-.95,1.62-1.89a104.78,104.78,0,0,0,12.76-20,67.07,67.07,0,0,0,4.25-11.46L115.85,200l-8.09,3s9.5-12.1,14.51-20.42c4.48-7.44,8.87-19,8.87-19s4.25,10.63,8,17.56S154.52,203,154.52,203s-6.65-2.4-9.24-3.6-7.3-3.33-7.3-3.33a97.6,97.6,0,0,0,6,15.07c4,7.62,12.42,17.83,15.47,21.34S178,249.13,178,249.13s-11.64-4.67-15.25-6.47c-3.37-1.69-14.41-8.32-14.41-8.32s8,12.74,10.53,16.12c5,6.8,18.07,20.52,23.24,24.77s15.76,10.95,15.76,10.95-12.87-3.67-17-5.26c-4.32-1.66-17.1-7.4-17.1-7.4s5.3,7.47,11.51,14.47c5.08,5.73,10.94,10.89,13.63,13.63,7.34,7.48,26.33,20,26.33,20s-6.93-1.65-12.62-3.4l-.21-.06C200.51,317.58,112.48,236.37,112.48,236.36Z"/><path class="cls-6" d="M123.11,181.14l.06-.1a155.19,155.19,0,0,0,8-17.49s4.25,10.63,8,17.56c2.18,4,6.92,10.62,10.56,15.55C149.79,196.73,122.83,181.64,123.11,181.14Z"/><polygon class="cls-7" points="121.04 396.68 121.04 351.95 131.13 349.06 140.78 351.89 140.78 396.68 121.04 396.68"/><polygon class="cls-8" points="121.04 396.68 121.04 389.35 130.91 396.68 121.04 396.68"/></g></g></svg>