<svg xmlns="http://www.w3.org/2000/svg" xmlns:xlink="http://www.w3.org/1999/xlink" width="318" height="143" viewBox="0 0 318 143">
  <defs>
    <clipPath id="clip-path">
      <rect width="318" height="143" fill="none"/>
    </clipPath>
  </defs>
  <g id="service-small-circles" opacity="0.2" clip-path="url(#clip-path)">
    <g transform="translate(3507 -190)">
      <circle id="Ellipse_62" data-name="Ellipse 62" cx="6" cy="6" r="6" transform="translate(-3503 194)" fill="#6c63ff"/>
    </g>
    <g transform="translate(3536 -190)">
      <circle id="Ellipse_62-2" data-name="Ellipse 62" cx="6" cy="6" r="6" transform="translate(-3503 194)" fill="#6c63ff"/>
    </g>
    <g transform="translate(3565 -190)">
      <circle id="Ellipse_62-3" data-name="Ellipse 62" cx="6" cy="6" r="6" transform="translate(-3503 194)" fill="#6c63ff"/>
    </g>
    <g transform="translate(3594 -190)">
      <circle id="Ellipse_62-4" data-name="Ellipse 62" cx="6" cy="6" r="6" transform="translate(-3503 194)" fill="#6c63ff"/>
    </g>
    <g transform="translate(3623 -190)">
      <circle id="Ellipse_62-5" data-name="Ellipse 62" cx="6" cy="6" r="6" transform="translate(-3503 194)" fill="#6c63ff"/>
    </g>
    <g transform="translate(3652 -190)">
      <circle id="Ellipse_62-6" data-name="Ellipse 62" cx="6" cy="6" r="6" transform="translate(-3503 194)" fill="#6c63ff"/>
    </g>
    <g transform="translate(3681 -190)">
      <circle id="Ellipse_62-7" data-name="Ellipse 62" cx="6" cy="6" r="6" transform="translate(-3503 194)" fill="#6c63ff"/>
    </g>
    <g transform="translate(3710 -190)">
      <circle id="Ellipse_62-8" data-name="Ellipse 62" cx="6" cy="6" r="6" transform="translate(-3503 194)" fill="#6c63ff"/>
    </g>
    <g transform="translate(3739 -190)">
      <circle id="Ellipse_62-9" data-name="Ellipse 62" cx="6" cy="6" r="6" transform="translate(-3503 194)" fill="#6c63ff"/>
    </g>
    <g transform="translate(3768 -190)">
      <circle id="Ellipse_62-10" data-name="Ellipse 62" cx="6" cy="6" r="6" transform="translate(-3503 194)" fill="#6c63ff"/>
    </g>
    <g transform="translate(3797 -190)">
      <circle id="Ellipse_62-11" data-name="Ellipse 62" cx="6" cy="6" r="6" transform="translate(-3503 194)" fill="#6c63ff"/>
    </g>
    <g transform="translate(3507 -160)">
      <circle id="Ellipse_62-12" data-name="Ellipse 62" cx="6" cy="6" r="6" transform="translate(-3503 194)" fill="#6c63ff"/>
    </g>
    <g transform="translate(3536 -160)">
      <circle id="Ellipse_62-13" data-name="Ellipse 62" cx="6" cy="6" r="6" transform="translate(-3503 194)" fill="#6c63ff"/>
    </g>
    <g transform="translate(3565 -160)">
      <circle id="Ellipse_62-14" data-name="Ellipse 62" cx="6" cy="6" r="6" transform="translate(-3503 194)" fill="#6c63ff"/>
    </g>
    <g transform="translate(3594 -160)">
      <circle id="Ellipse_62-15" data-name="Ellipse 62" cx="6" cy="6" r="6" transform="translate(-3503 194)" fill="#6c63ff"/>
    </g>
    <g transform="translate(3623 -160)">
      <circle id="Ellipse_62-16" data-name="Ellipse 62" cx="6" cy="6" r="6" transform="translate(-3503 194)" fill="#6c63ff"/>
    </g>
    <g transform="translate(3652 -160)">
      <circle id="Ellipse_62-17" data-name="Ellipse 62" cx="6" cy="6" r="6" transform="translate(-3503 194)" fill="#6c63ff"/>
    </g>
    <g transform="translate(3681 -160)">
      <circle id="Ellipse_62-18" data-name="Ellipse 62" cx="6" cy="6" r="6" transform="translate(-3503 194)" fill="#6c63ff"/>
    </g>
    <g transform="translate(3710 -160)">
      <circle id="Ellipse_62-19" data-name="Ellipse 62" cx="6" cy="6" r="6" transform="translate(-3503 194)" fill="#6c63ff"/>
    </g>
    <g transform="translate(3739 -160)">
      <circle id="Ellipse_62-20" data-name="Ellipse 62" cx="6" cy="6" r="6" transform="translate(-3503 194)" fill="#6c63ff"/>
    </g>
    <g transform="translate(3768 -160)">
      <circle id="Ellipse_62-21" data-name="Ellipse 62" cx="6" cy="6" r="6" transform="translate(-3503 194)" fill="#6c63ff"/>
    </g>
    <g transform="translate(3797 -160)">
      <circle id="Ellipse_62-22" data-name="Ellipse 62" cx="6" cy="6" r="6" transform="translate(-3503 194)" fill="#6c63ff"/>
    </g>
    <g transform="translate(3507 -130)">
      <circle id="Ellipse_62-23" data-name="Ellipse 62" cx="6" cy="6" r="6" transform="translate(-3503 194)" fill="#6c63ff"/>
    </g>
    <g transform="translate(3536 -130)">
      <circle id="Ellipse_62-24" data-name="Ellipse 62" cx="6" cy="6" r="6" transform="translate(-3503 194)" fill="#6c63ff"/>
    </g>
    <g transform="translate(3565 -130)">
      <circle id="Ellipse_62-25" data-name="Ellipse 62" cx="6" cy="6" r="6" transform="translate(-3503 194)" fill="#6c63ff"/>
    </g>
    <g transform="translate(3594 -130)">
      <circle id="Ellipse_62-26" data-name="Ellipse 62" cx="6" cy="6" r="6" transform="translate(-3503 194)" fill="#6c63ff"/>
    </g>
    <g transform="translate(3623 -130)">
      <circle id="Ellipse_62-27" data-name="Ellipse 62" cx="6" cy="6" r="6" transform="translate(-3503 194)" fill="#6c63ff"/>
    </g>
    <g transform="translate(3652 -130)">
      <circle id="Ellipse_62-28" data-name="Ellipse 62" cx="6" cy="6" r="6" transform="translate(-3503 194)" fill="#6c63ff"/>
    </g>
    <g transform="translate(3681 -130)">
      <circle id="Ellipse_62-29" data-name="Ellipse 62" cx="6" cy="6" r="6" transform="translate(-3503 194)" fill="#6c63ff"/>
    </g>
    <g transform="translate(3710 -130)">
      <circle id="Ellipse_62-30" data-name="Ellipse 62" cx="6" cy="6" r="6" transform="translate(-3503 194)" fill="#6c63ff"/>
    </g>
    <g transform="translate(3739 -130)">
      <circle id="Ellipse_62-31" data-name="Ellipse 62" cx="6" cy="6" r="6" transform="translate(-3503 194)" fill="#6c63ff"/>
    </g>
    <g transform="translate(3768 -130)">
      <circle id="Ellipse_62-32" data-name="Ellipse 62" cx="6" cy="6" r="6" transform="translate(-3503 194)" fill="#6c63ff"/>
    </g>
    <g transform="translate(3797 -130)">
      <circle id="Ellipse_62-33" data-name="Ellipse 62" cx="6" cy="6" r="6" transform="translate(-3503 194)" fill="#6c63ff"/>
    </g>
    <g transform="translate(3507 -100)">
      <circle id="Ellipse_62-34" data-name="Ellipse 62" cx="6" cy="6" r="6" transform="translate(-3503 194)" fill="#6c63ff"/>
    </g>
    <g transform="translate(3536 -100)">
      <circle id="Ellipse_62-35" data-name="Ellipse 62" cx="6" cy="6" r="6" transform="translate(-3503 194)" fill="#6c63ff"/>
    </g>
    <g transform="translate(3565 -100)">
      <circle id="Ellipse_62-36" data-name="Ellipse 62" cx="6" cy="6" r="6" transform="translate(-3503 194)" fill="#6c63ff"/>
    </g>
    <g transform="translate(3594 -100)">
      <circle id="Ellipse_62-37" data-name="Ellipse 62" cx="6" cy="6" r="6" transform="translate(-3503 194)" fill="#6c63ff"/>
    </g>
    <g transform="translate(3623 -100)">
      <circle id="Ellipse_62-38" data-name="Ellipse 62" cx="6" cy="6" r="6" transform="translate(-3503 194)" fill="#6c63ff"/>
    </g>
    <g transform="translate(3652 -100)">
      <circle id="Ellipse_62-39" data-name="Ellipse 62" cx="6" cy="6" r="6" transform="translate(-3503 194)" fill="#6c63ff"/>
    </g>
    <g transform="translate(3681 -100)">
      <circle id="Ellipse_62-40" data-name="Ellipse 62" cx="6" cy="6" r="6" transform="translate(-3503 194)" fill="#6c63ff"/>
    </g>
    <g transform="translate(3710 -100)">
      <circle id="Ellipse_62-41" data-name="Ellipse 62" cx="6" cy="6" r="6" transform="translate(-3503 194)" fill="#6c63ff"/>
    </g>
    <g transform="translate(3739 -100)">
      <circle id="Ellipse_62-42" data-name="Ellipse 62" cx="6" cy="6" r="6" transform="translate(-3503 194)" fill="#6c63ff"/>
    </g>
    <g transform="translate(3768 -100)">
      <circle id="Ellipse_62-43" data-name="Ellipse 62" cx="6" cy="6" r="6" transform="translate(-3503 194)" fill="#6c63ff"/>
    </g>
    <g transform="translate(3797 -100)">
      <circle id="Ellipse_62-44" data-name="Ellipse 62" cx="6" cy="6" r="6" transform="translate(-3503 194)" fill="#6c63ff"/>
    </g>
    <g transform="translate(3507 -70)">
      <circle id="Ellipse_62-45" data-name="Ellipse 62" cx="6" cy="6" r="6" transform="translate(-3503 194)" fill="#6c63ff"/>
    </g>
    <g transform="translate(3536 -70)">
      <circle id="Ellipse_62-46" data-name="Ellipse 62" cx="6" cy="6" r="6" transform="translate(-3503 194)" fill="#6c63ff"/>
    </g>
    <g transform="translate(3565 -70)">
      <circle id="Ellipse_62-47" data-name="Ellipse 62" cx="6" cy="6" r="6" transform="translate(-3503 194)" fill="#6c63ff"/>
    </g>
    <g transform="translate(3594 -70)">
      <circle id="Ellipse_62-48" data-name="Ellipse 62" cx="6" cy="6" r="6" transform="translate(-3503 194)" fill="#6c63ff"/>
    </g>
    <g transform="translate(3623 -70)">
      <circle id="Ellipse_62-49" data-name="Ellipse 62" cx="6" cy="6" r="6" transform="translate(-3503 194)" fill="#6c63ff"/>
    </g>
    <g transform="translate(3652 -70)">
      <circle id="Ellipse_62-50" data-name="Ellipse 62" cx="6" cy="6" r="6" transform="translate(-3503 194)" fill="#6c63ff"/>
    </g>
    <g transform="translate(3681 -70)">
      <circle id="Ellipse_62-51" data-name="Ellipse 62" cx="6" cy="6" r="6" transform="translate(-3503 194)" fill="#6c63ff"/>
    </g>
    <g transform="translate(3710 -70)">
      <circle id="Ellipse_62-52" data-name="Ellipse 62" cx="6" cy="6" r="6" transform="translate(-3503 194)" fill="#6c63ff"/>
    </g>
    <g transform="translate(3739 -70)">
      <circle id="Ellipse_62-53" data-name="Ellipse 62" cx="6" cy="6" r="6" transform="translate(-3503 194)" fill="#6c63ff"/>
    </g>
    <g transform="translate(3768 -70)">
      <circle id="Ellipse_62-54" data-name="Ellipse 62" cx="6" cy="6" r="6" transform="translate(-3503 194)" fill="#6c63ff"/>
    </g>
    <g transform="translate(3797 -70)">
      <circle id="Ellipse_62-55" data-name="Ellipse 62" cx="6" cy="6" r="6" transform="translate(-3503 194)" fill="#6c63ff"/>
    </g>
  </g>
</svg>
