<svg xmlns="http://www.w3.org/2000/svg" width="307.004" height="240.86" viewBox="0 0 307.004 240.86">
  <g id="skill-1" transform="translate(-136.996 -62.14)">
    <g id="freepik--background-complete--inject-43">
      <path id="Path_1240" data-name="Path 1240" d="M443.18,100.05V97.22l-1.45-.14a7.461,7.461,0,0,0-1.09-2.61l.94-1.13-2-2-1.13.94a7.65,7.65,0,0,0-2.61-1.09l-.14-1.45h-2.82l-.14,1.45a7.65,7.65,0,0,0-2.61,1.09L429,91.34l-2,2,.93,1.13a7.63,7.63,0,0,0-1.08,2.61l-1.46.14v2.83l1.46.13a7.63,7.63,0,0,0,1.08,2.61l-.93,1.13,2,2,1.13-.93a7.44,7.44,0,0,0,2.61,1.08l.14,1.46h2.82l.14-1.46a7.44,7.44,0,0,0,2.61-1.08l1.13.93,2-2-.94-1.13a7.461,7.461,0,0,0,1.09-2.61Zm-8.89,2.41a3.83,3.83,0,1,1,3.82-3.83,3.83,3.83,0,0,1-3.82,3.83Z" fill="#e0e0e0"/>
    </g>
    <g id="freepik--Window--inject-43">
      <path id="Path_1243" data-name="Path 1243" d="M444,92.61V293.86a9.36,9.36,0,0,1-9,9.14H145.39c-4.81,0-8.39-4.32-8.39-9.14V92.61A8.36,8.36,0,0,1,145.39,84H435A8.91,8.91,0,0,1,444,92.61Z" fill="#26658c"/>
      <path id="Path_1244" data-name="Path 1244" d="M444,117.69V293.86a9.36,9.36,0,0,1-9,9.14H145.39c-4.81,0-8.39-4.32-8.39-9.14V225.29c25.48-49,86.22-56.94,157.33-28.29C395,237.56,437.93,182.51,444,117.69Z" fill="#fff" opacity="0.1" style="isolation: isolate"/>
    </g>
    <g id="freepik--Bar--inject-43">
      <path id="Path_1245" data-name="Path 1245" d="M364.92,280H218a5,5,0,0,1-5-5h0a5,5,0,0,1,5-5H364.92a5,5,0,0,1,5,5h0A5,5,0,0,1,364.92,280Z" opacity="0.2" style="isolation: isolate"/>
      <path id="Path_1246" data-name="Path 1246" d="M218,279a4,4,0,0,1,0-8h86.84a4,4,0,0,1,0,8Z" fill="#26658c"/>
      <path id="Path_1247" data-name="Path 1247" d="M218,279a4,4,0,0,1,0-8h86.84a4,4,0,0,1,0,8Z" fill="#fff" opacity="0.7" style="isolation: isolate"/>
    </g>
    <g id="freepik--Tabs--inject-43">
      <rect id="Rectangle_509" data-name="Rectangle 509" width="84.73" height="84.73" rx="8.74" transform="translate(166.12 93.7)" opacity="0.2" style="isolation: isolate"/>
      <rect id="Rectangle_510" data-name="Rectangle 510" width="71" height="71" rx="7.33" transform="translate(189.88 84.4)" fill="#26658c" style="isolation: isolate"/>
      <rect id="Rectangle_511" data-name="Rectangle 511" width="71" height="71" rx="7.33" transform="translate(189.88 84.4)" fill="#fff" opacity="0.3" style="isolation: isolate"/>
      <path id="Path_1248" data-name="Path 1248" d="M230.85,111.7v-4.29l-2.21-.21a11.4,11.4,0,0,0-1.65-4l1.42-1.72-3-3L223.7,99.9a11.53,11.53,0,0,0-4-1.65L219.48,96h-4.29L215,98.25a11.53,11.53,0,0,0-4,1.65l-1.71-1.42-3,3,1.42,1.72a11.4,11.4,0,0,0-1.65,4l-2.21.21v4.29l2.21.21a11.53,11.53,0,0,0,1.65,4l-1.42,1.72,3,3,1.71-1.42a11.53,11.53,0,0,0,4,1.65l.21,2.21h4.29l.21-2.21a11.53,11.53,0,0,0,4-1.65l1.71,1.42,3-3L227,115.88a11.531,11.531,0,0,0,1.65-4Zm-13.51,3.67a5.82,5.82,0,1,1,5.81-5.81,5.82,5.82,0,0,1-5.81,5.81Z" fill="#fff"/>
      <path id="Path_1249" data-name="Path 1249" d="M248.25,123.83v-3.37l-1.73-.16a8.92,8.92,0,0,0-1.29-3.11l1.11-1.34L244,113.47l-1.34,1.11a8.92,8.92,0,0,0-3.11-1.29l-.16-1.74H236l-.16,1.74a8.92,8.92,0,0,0-3.11,1.29l-1.34-1.11L229,115.85l1.11,1.34a8.92,8.92,0,0,0-1.29,3.11l-1.73.16v3.37l1.73.16a8.92,8.92,0,0,0,1.29,3.11L229,128.44l2.38,2.38,1.34-1.11a8.92,8.92,0,0,0,3.11,1.29l.16,1.73h3.37l.16-1.73a8.92,8.92,0,0,0,3.11-1.29l1.34,1.11,2.38-2.38-1.11-1.34a8.92,8.92,0,0,0,1.29-3.11Zm-10.59,2.87a4.56,4.56,0,1,1,4.56-4.56,4.56,4.56,0,0,1-4.56,4.56Z" fill="#fff"/>
      <path id="Path_1250" data-name="Path 1250" d="M230.85,133.38v-2.83l-1.46-.13a7.44,7.44,0,0,0-1.08-2.61l.93-1.13-2-2-1.13.93a7.6,7.6,0,0,0-2.61-1.08l-.14-1.46h-2.83l-.14,1.46a7.6,7.6,0,0,0-2.61,1.08l-1.13-.93-2,2,.93,1.13a7.44,7.44,0,0,0-1.08,2.61l-1.46.13v2.83l1.46.14a7.6,7.6,0,0,0,1.08,2.61l-.93,1.13,2,2,1.13-.93a7.82,7.82,0,0,0,2.61,1.09l.14,1.45h2.83l.14-1.45a7.82,7.82,0,0,0,2.61-1.09l1.13.93,2-2-.93-1.13a7.6,7.6,0,0,0,1.08-2.61ZM222,135.79a3.83,3.83,0,1,1,3.82-3.82,3.83,3.83,0,0,1-3.82,3.82Z" fill="#fff"/>
      <rect id="Rectangle_512" data-name="Rectangle 512" width="71" height="71" rx="7.33" transform="translate(192.88 84.4)" fill="#fff" opacity="0.2" style="isolation: isolate"/>
      <rect id="Rectangle_513" data-name="Rectangle 513" width="78.33" height="78.33" rx="8.08" transform="translate(294 175.94)" opacity="0.2" style="isolation: isolate"/>
      <rect id="Rectangle_514" data-name="Rectangle 514" width="65.63" height="65.63" rx="6.77" transform="translate(313.68 171.75)" fill="#26658c" style="isolation: isolate"/>
      <rect id="Rectangle_515" data-name="Rectangle 515" width="65.63" height="65.63" rx="6.77" transform="translate(313.68 171.75)" fill="#fff" opacity="0.2" style="isolation: isolate"/>
      <path id="Path_1251" data-name="Path 1251" d="M349,215.11a2.37,2.37,0,1,1-2.36-2.37,2.37,2.37,0,0,1,2.36,2.37Z" fill="#fff"/>
      <path id="Path_1252" data-name="Path 1252" d="M346.43,191.47A23.52,23.52,0,0,0,322.9,215h18.79a4.43,4.43,0,0,1,4.74-4.64,5.111,5.111,0,0,1,1.41.27l8.81-10.23-6.22,12.1a4.46,4.46,0,0,1,.73,2.5H370a23.53,23.53,0,0,0-23.57-23.53Z" fill="#fff"/>
      <rect id="Rectangle_516" data-name="Rectangle 516" width="65.63" height="65.63" rx="6.77" transform="translate(316.45 171.75)" fill="#fff" opacity="0.2" style="isolation: isolate"/>
      <rect id="Rectangle_517" data-name="Rectangle 517" width="68.73" height="68.73" rx="7.09" transform="translate(321.7 113.34)" opacity="0.2" style="isolation: isolate"/>
      <rect id="Rectangle_518" data-name="Rectangle 518" width="57.59" height="57.59" rx="5.94" transform="translate(340.13 107.28)" fill="#26658c" style="isolation: isolate"/>
      <rect id="Rectangle_519" data-name="Rectangle 519" width="57.59" height="57.59" rx="5.94" transform="translate(340.13 107.28)" fill="#fff" opacity="0.1" style="isolation: isolate"/>
      <path id="Path_1253" data-name="Path 1253" d="M385,121.89a1.89,1.89,0,0,0-1.89-1.89H354.89a1.89,1.89,0,0,0-1.89,1.89v6.22a1.89,1.89,0,0,0,1.89,1.89h28.22a1.89,1.89,0,0,0,1.89-1.89Zm-9.32,3.37h-1.62v-1.62h1.62Zm4.33.81a1.629,1.629,0,1,0-.01,0Z" fill="#fff"/>
      <path id="Path_1254" data-name="Path 1254" d="M385,132.89a1.89,1.89,0,0,0-1.89-1.89H354.89a1.89,1.89,0,0,0-1.89,1.89v6.22a1.89,1.89,0,0,0,1.89,1.89h28.22a1.89,1.89,0,0,0,1.89-1.89Zm-9.32,4h-1.62v-1.62h1.62Zm4.33.81a.672.672,0,1,0-.01-.01Z" fill="#fff"/>
      <path id="Path_1255" data-name="Path 1255" d="M385,143.89a1.89,1.89,0,0,0-1.89-1.89H354.89a1.89,1.89,0,0,0-1.89,1.89v6.22a1.89,1.89,0,0,0,1.89,1.89h28.22a1.89,1.89,0,0,0,1.89-1.89Zm-9.32,4.62h-1.62v-1.62h1.62Zm4.33.81a1.632,1.632,0,1,0-.01,0Z" fill="#fff"/>
      <rect id="Rectangle_520" data-name="Rectangle 520" width="57.59" height="57.59" rx="5.94" transform="translate(342.57 107.28)" fill="#fff" opacity="0.2" style="isolation: isolate"/>
      <rect id="Rectangle_521" data-name="Rectangle 521" width="84.73" height="84.73" rx="8.74" transform="translate(209.61 166.56)" opacity="0.2" style="isolation: isolate"/>
      <rect id="Rectangle_522" data-name="Rectangle 522" width="71" height="71" rx="7.33" transform="translate(229.49 160.57)" fill="#26658c" style="isolation: isolate"/>
      <rect id="Rectangle_523" data-name="Rectangle 523" width="71" height="71" rx="7.33" transform="translate(229.49 160.57)" fill="#fff" opacity="0.5" style="isolation: isolate"/>
      <path id="Path_1256" data-name="Path 1256" d="M245.35,215.56h0a5.55,5.55,0,0,1,0-7.85l13-12.94a3.11,3.11,0,0,1,4.42,0l3.42,3.41a3.12,3.12,0,0,1,0,4.43l-12.95,12.95a5.53,5.53,0,0,1-7.89,0Z" fill="#fff"/>
      <path id="Path_1257" data-name="Path 1257" d="M269.21,194.25l-2.55-2.55,14.63-14.63,3.19-.64-.64,3.19Z" fill="#fff"/>
      <path id="Path_1258" data-name="Path 1258" d="M267.77,197.64l-4.5-4.51a1,1,0,0,1,0-1.45h0a1,1,0,0,1,1.46,0l4.5,4.5a1,1,0,0,1,0,1.46h0a1,1,0,0,1-1.46,0Z" fill="#fff"/>
      <path id="Path_1259" data-name="Path 1259" d="M261.71,189l-6.17-6.19c1.15-3.09-1.18-6.89-3.71-7.89l-.05,4.76a2,2,0,0,1-4,0V175a6.58,6.58,0,0,0-4.1,5.76,6.11,6.11,0,0,0,5.34,6,5.27,5.27,0,0,0,3-.42l6.22,6.24Z" fill="#fff"/>
      <path id="Path_1260" data-name="Path 1260" d="M282.25,212.48v4.73a6.58,6.58,0,0,0,4.1-5.76,6.12,6.12,0,0,0-5.2-6.09,4.81,4.81,0,0,0-2.85.28l-6.46-6.48-3.54,3.54,6.42,6.43c-1.86,3.8,1,7,3.57,8v-4.7a1.98,1.98,0,1,1,3.96.05Z" fill="#fff"/>
      <rect id="Rectangle_524" data-name="Rectangle 524" width="71" height="71" rx="7.33" transform="translate(232.49 160.57)" fill="#fff" opacity="0.2" style="isolation: isolate"/>
      <rect id="Rectangle_525" data-name="Rectangle 525" width="85.58" height="85.58" rx="8.83" transform="translate(355 147.72) rotate(180)" fill="#26658c" style="isolation: isolate"/>
      <rect id="Rectangle_526" data-name="Rectangle 526" width="102.14" height="102.14" rx="10.54" transform="translate(249.67 75.73)" opacity="0.2" style="isolation: isolate"/>
      <rect id="Rectangle_527" data-name="Rectangle 527" width="85.58" height="85.58" rx="8.83" transform="translate(355 147.72) rotate(180)" fill="#fff" opacity="0.5" style="isolation: isolate"/>
      <path id="Path_1261" data-name="Path 1261" d="M312.18,78.41,286,88.69s3.31,36,26.21,42.75c22.91-6.75,26.22-42.75,26.22-42.75Zm-.66,34.86a1.85,1.85,0,0,1-1.45.73h0a1.82,1.82,0,0,1-1.45-.76l-9.19-12.67a1.811,1.811,0,1,1,2.93-2.13l7.76,10.68L322.8,92.38a1.81,1.81,0,0,1,2.53-.35,2,2,0,0,1,.35,2.65Z" fill="#fff"/>
      <rect id="Rectangle_528" data-name="Rectangle 528" width="85.58" height="85.58" rx="8.83" transform="translate(358.61 147.72) rotate(180)" fill="#fff" opacity="0.2" style="isolation: isolate"/>
    </g>
  </g>
</svg>
