<svg viewBox="0 0 500 500" xmlns="http://www.w3.org/2000/svg"><path d="m448.84 319.82c12.37-63.24-30.63-96.63-117.08-105.64-95.22-9.93-63.76-70.29-112.1-103.18s-184.86 2.81-115.48 155.08 319.82 180.75 344.66 53.74z" fill="#f0f0f0"/><path d="m441.9 456.6c0 .15-82.18.26-183.54.26s-183.55-.11-183.55-.26 82.16-.26 183.55-.26 183.54.12 183.54.26z" fill="#263238"/><path d="m187.28 267.12c0 .15-6.52.26-14.57.26s-14.57-.11-14.57-.26 6.52-.26 14.57-.26 14.57.14 14.57.26z" fill="#263238"/><path d="m186.75 270.88c0 .14-6.4.26-14.31.26s-14.3-.12-14.3-.26 6.4-.27 14.3-.27 14.31.12 14.31.27z" fill="#263238"/><path d="m186.75 274.63c0 .14-6.4.26-14.31.26s-14.3-.12-14.3-.26 6.4-.26 14.3-.26 14.31.11 14.31.26z" fill="#263238"/><path d="m186.75 278.38c0 .14-6.4.26-14.31.26s-14.3-.12-14.3-.26 6.4-.26 14.3-.26 14.31.11 14.31.26z" fill="#263238"/><path d="m186.75 282.13c0 .14-6.4.26-14.31.26s-14.3-.12-14.3-.26 6.4-.26 14.3-.26 14.31.13 14.31.26z" fill="#263238"/><path d="m172.09 285.88a47.61 47.61 0 0 1 -7 .26 47.53 47.53 0 0 1 -7-.26 45.91 45.91 0 0 1 7-.26 46 46 0 0 1 7 .26z" fill="#263238"/><path d="m180.25 263c0 .15-5 .26-11.1.26s-11.1-.11-11.1-.26 5-.26 11.1-.26 11.1.14 11.1.26z" fill="#407bff"/><path d="m195 295.23s0-.28 0-.8 0-1.29 0-2.27c0-2 0-4.89-.06-8.57 0-7.37-.06-17.87-.11-30.5l.22.22h-46.06l.25-.25v11.3 10.87 20l-.23-.23 33.29.12 9.41.06h2.5.65-.6-2.45l-9.36.06-33.44.12h-.23v-.23c0-6.18 0-12.88 0-20 0-3.53 0-7.16 0-10.87v-11.3l.27-.27h46.06.23v.22c0 12.68-.08 23.24-.11 30.64 0 3.66 0 6.53-.06 8.52v2.23s-.17.93-.17.93z" fill="#263238"/><path d="m166.5 139.12 22.14-.14a28.2 28.2 0 0 0 -7.12-18.27 26.21 26.21 0 0 0 -22.93-8.81c-1.06.12-2.13.29-3.22.52h-.08l6 26.68z" fill="#407bff"/><path d="m173.32 166.62a26.27 26.27 0 0 0 15.07-21.53c0-.28.06-.56.08-.85s0-.35 0-.54c0-.52 0-1.06.05-1.6v-.1l-22.15.15h-5.2l-5.83 26.69a26.91 26.91 0 0 0 5.75.59 28.71 28.71 0 0 0 12.23-2.81z" fill="#455a64"/><path d="m158.53 140.55-6-26.68a27.35 27.35 0 0 0 .18 53.41l5.82-26.69" fill="#263238"/><path d="m92.5 258.32h5.99v45.23h-5.99z" fill="#407bff"/><path d="m83.27 277.35h5.99v26.2h-5.99z" fill="#455a64"/><path d="m74.04 273.27h5.99v30.28h-5.99z" fill="#407bff"/><path d="m64.8 291.34h5.99v12.21h-5.99z" fill="#455a64"/><path d="m110.97 248.44h5.99v55.11h-5.99z" fill="#407bff"/><path d="m101.74 253.47h5.99v50.08h-5.99z" fill="#455a64"/><path d="m129.44 242.98h5.99v60.57h-5.99z" fill="#407bff"/><path d="m120.2 231.02h5.99v72.53h-5.99z" fill="#455a64"/><path d="m70.64 309.23a7.08 7.08 0 0 1 -2.65.26 7.08 7.08 0 0 1 -2.65-.26 6.84 6.84 0 0 1 2.66-.23 6.84 6.84 0 0 1 2.64.23z" fill="#263238"/><path d="m79.74 309.23a7 7 0 0 1 -2.65.26 7.08 7.08 0 0 1 -2.65-.26 6.84 6.84 0 0 1 2.65-.26 6.8 6.8 0 0 1 2.65.26z" fill="#263238"/><path d="m88.85 309.23a7.08 7.08 0 0 1 -2.65.26 7 7 0 0 1 -2.65-.26 6.8 6.8 0 0 1 2.65-.23 6.84 6.84 0 0 1 2.65.23z" fill="#263238"/><path d="m98 309.23a7.08 7.08 0 0 1 -2.65.26 7 7 0 0 1 -2.65-.26 6.8 6.8 0 0 1 2.6-.23 6.84 6.84 0 0 1 2.7.23z" fill="#263238"/><path d="m107.05 309.23a7.08 7.08 0 0 1 -2.65.26 7.08 7.08 0 0 1 -2.65-.26 6.84 6.84 0 0 1 2.65-.26 6.84 6.84 0 0 1 2.65.26z" fill="#263238"/><path d="m116.15 309.23a7.08 7.08 0 0 1 -2.65.26 7.08 7.08 0 0 1 -2.65-.26 6.84 6.84 0 0 1 2.65-.26 6.84 6.84 0 0 1 2.65.26z" fill="#263238"/><path d="m125.25 309.23a7 7 0 0 1 -2.65.26 7.08 7.08 0 0 1 -2.65-.26 6.84 6.84 0 0 1 2.65-.26 6.8 6.8 0 0 1 2.65.26z" fill="#263238"/><path d="m134.35 309.23a13.58 13.58 0 0 1 -5.29 0 6.8 6.8 0 0 1 2.65-.26 6.77 6.77 0 0 1 2.64.26z" fill="#263238"/><path d="m137.54 314.56c0 .14-6.5.26-14.53.26s-14.54-.12-14.54-.26 6.51-.26 14.54-.26 14.53.11 14.53.26z" fill="#263238"/><path d="m120.2 317.62a25.53 25.53 0 0 1 -5.1.26 25.61 25.61 0 0 1 -5.1-.26 24.74 24.74 0 0 1 5.1-.26 24.66 24.66 0 0 1 5.1.26z" fill="#263238"/><path d="m120.9 228.39a1.46 1.46 0 0 1 .83.16 3.28 3.28 0 0 1 1.86 3.27 2.84 2.84 0 0 1 -.82 1.71 3.54 3.54 0 0 1 -4.07.72 3.69 3.69 0 0 1 -1.78-3.74 3.31 3.31 0 0 1 .79-1.72 3.65 3.65 0 0 1 1.34-.94 3.74 3.74 0 0 1 2.29-.2c.54.14.79.32.77.35s-.29-.08-.8-.15a3.77 3.77 0 0 0 -2.11.34 3.05 3.05 0 0 0 -1.81 2.38 3.27 3.27 0 0 0 1.55 3.22 3.11 3.11 0 0 0 3.49-.59 2.6 2.6 0 0 0 .56-2.86 3.12 3.12 0 0 0 -1.35-1.61c-.45-.25-.75-.29-.74-.34z" fill="#263238"/><path d="m125.63 146a1.6 1.6 0 0 1 -.35 0h-1l-4 .06.13-.12c.08 7.09.13 21.21.13 37.44 0 11.81 0 22.49-.07 30.28 0 3.84-.07 7-.09 9.17v2.5a4.52 4.52 0 0 1 0 .87 5.89 5.89 0 0 1 -.05-.87c0-.62 0-1.45 0-2.5 0-2.21 0-5.33-.08-9.17 0-7.79 0-18.47-.08-30.28 0-16.23.06-30.35.14-37.44v-.13h.12l4 .06h1z" fill="#263238"/><path d="m81.92 193.92c0 .14-6.53.26-14.58.26s-14.57-.12-14.57-.26 6.52-.26 14.57-.26 14.58.12 14.58.26z" fill="#263238"/><path d="m81.39 197.67c0 .15-6.41.26-14.31.26s-14.31-.11-14.31-.26 6.4-.26 14.31-.26 14.31.12 14.31.26z" fill="#263238"/><path d="m81.39 201.42c0 .15-6.41.26-14.31.26s-14.31-.11-14.31-.26 6.4-.26 14.31-.26 14.31.12 14.31.26z" fill="#263238"/><path d="m81.39 205.17c0 .15-6.41.26-14.31.26s-14.31-.11-14.31-.26 6.4-.26 14.31-.26 14.31.09 14.31.26z" fill="#263238"/><path d="m81.39 208.92c0 .15-6.41.26-14.31.26s-14.31-.11-14.31-.26 6.4-.26 14.31-.26 14.31.12 14.31.26z" fill="#263238"/><path d="m66.73 212.67a46.1 46.1 0 0 1 -7 .26 46 46 0 0 1 -7-.26 47.61 47.61 0 0 1 7-.26 47.72 47.72 0 0 1 7 .26z" fill="#263238"/><path d="m74.88 189.82c0 .14-5 .26-11.1.26s-11.1-.12-11.1-.26 5-.26 11.1-.26 11.1.12 11.1.26z" fill="#407bff"/><path d="m88.7 221.55s0-.28 0-.8 0-1.29 0-2.27c0-2 0-4.89-.06-8.57 0-7.37-.07-17.87-.11-30.5l.22.22h-46.07c-.06.06.49-.49.26-.25v11.3 10.87 20l-.23-.23 33.29.11 9.41.06h2.49.65.23-.83-2.45l-9.35.06-33.44.12h-.31v-.23c0-6.18 0-12.88 0-20 0-3.53 0-7.16 0-10.87v-11.3c-.24.23.31-.33.26-.27h46.07.22v.22c0 12.68-.09 23.23-.11 30.64 0 3.66 0 6.53-.06 8.52v2.23s-.08.94-.08.94z" fill="#263238"/><path d="m74.9 239.16a68.58 68.58 0 0 1 -.26-8.38 68.58 68.58 0 0 1 .26-8.38 68.58 68.58 0 0 1 .26 8.38 68.58 68.58 0 0 1 -.26 8.38z" fill="#263238"/><path d="m76.81 235.34a16.34 16.34 0 0 0 -1 4.14v.11.75l-.43-.61a8 8 0 0 1 -1.65-4c.14-.05.73 1.76 2.08 3.66l-.48.14v-.12a6.15 6.15 0 0 1 1.48-4.07z" fill="#263238"/><path d="m361.33 120.93c-.14 0-.26-.67-.26-1.5s.12-1.5.26-1.5.26.67.26 1.5-.12 1.5-.26 1.5z" fill="#263238"/><path d="m361.33 126.94c-.14 0-.26-.67-.26-1.5s.12-1.51.26-1.51.26.68.26 1.51-.12 1.5-.26 1.5z" fill="#263238"/><path d="m361.33 132.94c-.14 0-.26-.67-.26-1.5s.12-1.5.26-1.5.26.67.26 1.5-.12 1.5-.26 1.5z" fill="#263238"/><path d="m361.33 138.93c-.14 0-.26-.67-.26-1.49s.12-1.5.26-1.5.26.67.26 1.5-.12 1.49-.26 1.49z" fill="#263238"/><path d="m361.33 144.93c-.14 0-.26-.67-.26-1.5s.12-1.5.26-1.5.26.67.26 1.5-.12 1.5-.26 1.5z" fill="#263238"/><path d="m361.33 150.92c-.14 0-.26-.67-.26-1.5s.12-1.5.26-1.5.26.67.26 1.5-.12 1.5-.26 1.5z" fill="#263238"/><path d="m361.33 156.92c-.14 0-.26-.68-.26-1.5s.12-1.5.26-1.5.26.67.26 1.5-.12 1.5-.26 1.5z" fill="#263238"/><path d="m361.33 162.91c-.14 0-.26-.67-.26-1.5s.12-1.5.26-1.5.26.67.26 1.5-.12 1.5-.26 1.5z" fill="#263238"/><rect fill="#455a64" height="68.24" rx="3.96" width="160.54" x="238.5" y="42.39"/><path d="m285.69 67.74a17.4 17.4 0 0 0 -14.14-10.15l-.56-.06h-.36-1.06-.1l-.08 14.66v3.45l17.61 3.99a17.15 17.15 0 0 0 .44-3.79 19.12 19.12 0 0 0 -1.75-8.1z" fill="#fafafa"/><path d="m266.69 77.47v-3.24l.08-14.66a18.7 18.7 0 0 0 -12.15 4.57 17.33 17.33 0 0 0 -6 15.11c.06.63.16 1.27.28 1.92h-.13c2.34 8.44 10 14.82 17.49 14.34 8.66-.55 16-5.91 17.87-14z" fill="#e0e0e0"/><path d="m330 65.18c0 .14-7.07.26-15.79.26s-15.8-.12-15.8-.26 7.07-.26 15.8-.26 15.79.08 15.79.26z" fill="#263238"/><path d="m330 71.25c0 .14-7.07.26-15.79.26s-15.8-.12-15.8-.26 7.07-.26 15.8-.26 15.79.11 15.79.26z" fill="#263238"/><path d="m330 77.32c0 .14-7.07.26-15.79.26s-15.8-.12-15.8-.26 7.07-.26 15.8-.26 15.79.12 15.79.26z" fill="#263238"/><path d="m330 83.39c0 .14-7.07.26-15.79.26s-15.8-.12-15.8-.26 7.07-.26 15.8-.26 15.79.12 15.79.26z" fill="#263238"/><path d="m316.89 90a14.76 14.76 0 0 1 -2.71.18c-1.67 0-4 .08-6.54.08s-4.88 0-6.55-.08a14.76 14.76 0 0 1 -2.71-.18 14.11 14.11 0 0 1 2.71-.19c1.67 0 4-.07 6.55-.07s4.87 0 6.54.07a14.11 14.11 0 0 1 2.71.19z" fill="#263238"/><path d="m352.48 59.6a2 2 0 0 1 .68-.36 5.8 5.8 0 0 1 2.1-.39 6.09 6.09 0 0 1 .72 0l.38.06h.05c-.13-.21.19.29.15.24v.1.19c-.12.52-.23 1.07-.36 1.64-.26 1.18-.55 2.46-.85 3.81v.2h-1.53-4.6-.24v-.19a6.24 6.24 0 0 1 .65-2.69 5.52 5.52 0 0 1 1.32-1.69 5.19 5.19 0 0 1 1.16-.76c.29-.13.45-.18.46-.16s-.61.33-1.43 1.13a5.78 5.78 0 0 0 -1.69 4.17l-.23-.24h5.78l-.25.2.9-3.79c.14-.57.28-1.12.41-1.64v-.19-.09s.28.45.14.24h-.05l-.35-.07a5.31 5.31 0 0 0 -.67-.08 9.71 9.71 0 0 0 -2.65.36z" fill="#e0e0e0"/><path d="m355.66 65.81h-1.06-4.79a6.19 6.19 0 0 0 1.5 4 5.68 5.68 0 0 0 4.94 2l.62-.09c2.76-.76 4.84-3.25 4.69-5.71a6.17 6.17 0 0 0 -4.56-5.91z" fill="#fafafa"/><path d="m352.48 81.13a5.68 5.68 0 0 0 -3.31 4.62v.18s0 .08 0 .12 0 .23 0 .34h4.79 1.04l1.33-5.76a5.68 5.68 0 0 0 -1.24-.14 6.15 6.15 0 0 0 -2.61.64z" fill="#fafafa"/><path d="m355.66 87.33a14 14 0 0 1 .28-1.6c.22-1.07.51-2.46.86-4.14v-.18h.19a6 6 0 0 1 4.37 4 6 6 0 0 1 .25 3.59 6.28 6.28 0 0 1 -2.21 3.16 7.44 7.44 0 0 1 -2.4 1.27l-.26.07-.06-.27.3.2a6.4 6.4 0 0 1 -3.05-.15 6 6 0 0 1 -2.43-1.49 6.31 6.31 0 0 1 -1.81-4.46v-.23h.19l4.28.1a12.25 12.25 0 0 1 1.56.12 8.6 8.6 0 0 1 -1.57.09l-4.28.06.19-.18a6 6 0 0 0 1.77 4.12 5.53 5.53 0 0 0 5.05 1.46h.25l.05.25-.32-.2a6.84 6.84 0 0 0 2.3-1.16 5.77 5.77 0 0 0 2-2.89 5.58 5.58 0 0 0 -.21-3.29 5.73 5.73 0 0 0 -4-3.78l.22-.14c-.44 1.79-.81 3.23-1.07 4.2a9.32 9.32 0 0 1 -.44 1.47z" fill="#e0e0e0"/><path d="m387.53 84.21a97.65 97.65 0 0 1 -10 .26 97.77 97.77 0 0 1 -10-.26 92.72 92.72 0 0 1 10-.27 92.6 92.6 0 0 1 10 .27z" fill="#263238"/><path d="m377.53 86.88a48.3 48.3 0 0 1 -10 0 48.3 48.3 0 0 1 10 0z" fill="#263238"/><path d="m387.53 62.69a92.6 92.6 0 0 1 -10 .27 92.72 92.72 0 0 1 -10-.27 97.77 97.77 0 0 1 10-.26 97.65 97.65 0 0 1 10 .26z" fill="#263238"/><path d="m377.53 65.37a48.3 48.3 0 0 1 -10 0 48.3 48.3 0 0 1 10 0z" fill="#263238"/><path d="m339.87 101.28c-.15 0-.26-12-.26-26.89s.11-26.89.26-26.89.26 12 .26 26.89-.13 26.89-.26 26.89z" fill="#263238"/><path d="m331.38 168.13h6.2v55.94h-6.2z" fill="#407bff"/><path d="m343.34 187.13h6.2v36.94h-6.2z" fill="#407bff"/><path d="m355.3 175.09h6.2v49.27h-6.2z" fill="#407bff"/><path d="m367.27 170.29h6.2v53.78h-6.2z" fill="#407bff"/><path d="m379.23 188.27h6.2v35.8h-6.2z" fill="#407bff"/><path d="m391.19 195.29h6.2v28.78h-6.2z" fill="#407bff"/><path d="m403.15 173.87h6.2v50.2h-6.2z" fill="#407bff"/><path d="m415.11 182.92h6.2v41.15h-6.2z" fill="#407bff"/><path d="m427.08 175.69h6.2v48.38h-6.2z" fill="#407bff"/><path d="m439.04 191.11h6.2v32.96h-6.2z" fill="#407bff"/><path d="m451 184.84h6.2v39.23h-6.2z" fill="#407bff"/><path d="m453.36 180.82h-.38l-1.08-.17a17.34 17.34 0 0 0 -1.77-.23l-1.13-.12-1.29-.05a33.43 33.43 0 0 0 -6.64.36 36.71 36.71 0 0 0 -8.47 2.3 35 35 0 0 0 -9.15 5.41 48.18 48.18 0 0 0 -8.18 9.07c-2.6 3.44-5.25 7.23-8.93 10.29a22.64 22.64 0 0 1 -6.21 3.74 14.82 14.82 0 0 1 -7.39.91 17.31 17.31 0 0 1 -7-2.64 29.79 29.79 0 0 1 -5.53-4.67c-3.28-3.47-5.66-7.4-8.16-10.92a40.16 40.16 0 0 0 -8.15-9.07 21.46 21.46 0 0 0 -4.78-2.72 22.49 22.49 0 0 0 -4.92-1.32 23.65 23.65 0 0 0 -14.89 2.77 23 23 0 0 0 -3.42 2.45l-.81.73c-.18.17-.28.25-.29.24s.08-.1.25-.28l.78-.77a21.62 21.62 0 0 1 3.38-2.55 23.62 23.62 0 0 1 15-3 22.66 22.66 0 0 1 5 1.32 21.15 21.15 0 0 1 4.9 2.75 40.2 40.2 0 0 1 8.28 9.13c2.53 3.53 4.91 7.44 8.14 10.85a29.41 29.41 0 0 0 5.48 4.57 17 17 0 0 0 6.76 2.57 14.46 14.46 0 0 0 7.15-.88 21.79 21.79 0 0 0 6.06-3.66c3.62-3 6.26-6.73 8.88-10.18 1.3-1.73 2.6-3.41 4-5 .68-.76 1.37-1.52 2.11-2.2l1.08-1c.37-.33.76-.63 1.13-.94a35.07 35.07 0 0 1 9.28-5.41 36.38 36.38 0 0 1 8.57-2.25 34 34 0 0 1 6.69-.28l1.3.08 1.13.15a15.81 15.81 0 0 1 1.77.28l1.08.22z" fill="#263238"/><path d="m324.56 228c-.14 0-.26-15.95-.26-35.62s.12-35.63.26-35.63.26 15.95.26 35.63-.12 35.62-.26 35.62z" fill="#263238"/><path d="m459.72 228c0 .14-29.39.26-65.63.26s-65.64-.12-65.64-.26 29.38-.26 65.64-.26 65.63.09 65.63.26z" fill="#263238"/><path d="m340.22 232.37a40.82 40.82 0 0 1 -9.2 0 40.82 40.82 0 0 1 9.2 0z" fill="#263238"/><path d="m355.47 232.6a58.2 58.2 0 0 1 -11 0 58.2 58.2 0 0 1 11 0z" fill="#263238"/><path d="m368.48 232.6a58.2 58.2 0 0 1 -11 0 58.2 58.2 0 0 1 11 0z" fill="#263238"/><path d="m381.49 232.6a58.2 58.2 0 0 1 -11 0 58.2 58.2 0 0 1 11 0z" fill="#263238"/><path d="m394.5 232.6a58.2 58.2 0 0 1 -11 0 58.2 58.2 0 0 1 11 0z" fill="#263238"/><path d="m407.51 232.6a58.2 58.2 0 0 1 -11 0 58.2 58.2 0 0 1 11 0z" fill="#263238"/><path d="m420.52 232.6a58.2 58.2 0 0 1 -11 0 58.2 58.2 0 0 1 11 0z" fill="#263238"/><path d="m433.53 232.6a58.3 58.3 0 0 1 -11 0 58.3 58.3 0 0 1 11 0z" fill="#263238"/><path d="m446.53 232.6a58.2 58.2 0 0 1 -11 0 58.2 58.2 0 0 1 11 0z" fill="#263238"/><path d="m459.54 232.6a58.2 58.2 0 0 1 -11 0 58.2 58.2 0 0 1 11 0z" fill="#263238"/><path d="m373.73 194.7c0-.06.53 0 .74.73a1.32 1.32 0 0 1 -.24 1.2 1.35 1.35 0 0 1 -2.29-1 1.34 1.34 0 0 1 .74-1c.67-.31 1.09 0 1 .08s-.4-.07-.85.24a1 1 0 0 0 -.44.71.83.83 0 0 0 .53.77.81.81 0 0 0 .92-.12 1 1 0 0 0 .24-.8c-.03-.51-.4-.74-.35-.81z" fill="#263238"/><path d="m433.61 181.2s.12-.07.35 0a1.39 1.39 0 0 1 .82.53 1.43 1.43 0 0 1 .22 1.45 1.66 1.66 0 0 1 -1.52 1 1.55 1.55 0 0 1 -1.42-1.12 1.48 1.48 0 0 1 .3-1.44c.61-.62 1.19-.52 1.17-.47s-.48.16-.89.7a1.14 1.14 0 0 0 -.12 1.06 1.09 1.09 0 0 0 1 .75 1.23 1.23 0 0 0 1.07-.66 1.06 1.06 0 0 0 -.09-1c-.39-.69-.91-.72-.89-.8z" fill="#263238"/><ellipse cx="434.58" cy="154.33" fill="#263238" rx=".26" ry=".75"/><path d="m434.58 161.59c-.14 0-.26-.73-.26-1.63s.12-1.62.26-1.62.26.73.26 1.62-.11 1.63-.26 1.63z" fill="#263238"/><path d="m434.58 168.1c-.14 0-.26-.73-.26-1.63s.12-1.62.26-1.62.26.72.26 1.62-.11 1.63-.26 1.63z" fill="#263238"/><path d="m434.58 174.61c-.14 0-.26-.73-.26-1.63s.12-1.63.26-1.63.26.73.26 1.63-.11 1.63-.26 1.63z" fill="#263238"/><path d="m434.58 179.36c-.14 0-.26-.33-.26-.75s.12-.75.26-.75.26.34.26.75-.11.75-.26.75z" fill="#263238"/><path d="m478.66 144.76c0 .14-10.16.26-22.7.26s-22.7-.12-22.7-.26 10.17-.26 22.7-.26 22.7.12 22.7.26z" fill="#263238"/><path d="m463.16 139.62c0 .14-6.54.26-14.61.26s-14.6-.12-14.6-.26 6.54-.26 14.6-.26 14.61.12 14.61.26z" fill="#263238"/><path d="m165.59 109.13c.14 0 .26.34.26.75s-.12.75-.26.75-.26-.34-.26-.75.11-.75.26-.75z" fill="#263238"/><path d="m165.59 103.34c.14 0 .26.65.26 1.45s-.12 1.44-.26 1.44-.26-.64-.26-1.44.11-1.45.26-1.45z" fill="#263238"/><path d="m165.59 97.55c.14 0 .26.64.26 1.44s-.12 1.45-.26 1.45-.26-.65-.26-1.45.11-1.44.26-1.44z" fill="#263238"/><path d="m165.59 91.76c.14 0 .26.65.26 1.45s-.12 1.44-.26 1.44-.26-.64-.26-1.44.11-1.45.26-1.45z" fill="#263238"/><ellipse cx="165.59" cy="87.42" fill="#263238" rx=".26" ry="1.45"/><path d="m165.59 80.19c.14 0 .26.65.26 1.45s-.12 1.44-.26 1.44-.26-.65-.26-1.44.11-1.45.26-1.45z" fill="#263238"/><path d="m165.59 75.79c.14 0 .26.33.26.75s-.12.75-.26.75-.26-.34-.26-.75.11-.75.26-.75z" fill="#263238"/><path d="m167.09 74.38c0 .14-.34.26-.75.26s-.75-.12-.75-.26.33-.26.75-.26.75.12.75.26z" fill="#263238"/><path d="m173.25 74.38c0 .14-.69.26-1.54.26s-1.54-.12-1.54-.26.69-.26 1.54-.26 1.54.12 1.54.26z" fill="#263238"/><path d="m179.41 74.38c0 .14-.69.26-1.54.26s-1.54-.12-1.54-.26.69-.26 1.54-.26 1.54.12 1.54.26z" fill="#263238"/><path d="m185.57 74.38c0 .14-.69.26-1.54.26s-1.54-.12-1.54-.26.69-.26 1.54-.26 1.54.12 1.54.26z" fill="#263238"/><path d="m191.72 74.38c0 .14-.69.26-1.54.26s-1.53-.12-1.53-.26.68-.26 1.53-.26 1.54.12 1.54.26z" fill="#263238"/><path d="m197.87 74.38c0 .14-.69.26-1.54.26s-1.53-.12-1.53-.26.68-.26 1.53-.26 1.54.12 1.54.26z" fill="#263238"/><path d="m204 74.38c0 .14-.69.26-1.53.26s-1.54-.12-1.54-.26.69-.26 1.54-.26 1.53.12 1.53.26z" fill="#263238"/><path d="m210.18 74.38c0 .14-.69.26-1.54.26s-1.54-.12-1.54-.26.69-.26 1.54-.26 1.54.12 1.54.26z" fill="#263238"/><path d="m216.33 74.38c0 .14-.69.26-1.54.26s-1.54-.12-1.54-.26.69-.26 1.54-.26 1.54.12 1.54.26z" fill="#263238"/><path d="m222.48 74.38c0 .14-.68.26-1.53.26s-1.54-.12-1.54-.26.69-.26 1.54-.26 1.53.12 1.53.26z" fill="#263238"/><path d="m228.64 74.38c0 .14-.69.26-1.54.26s-1.54-.12-1.54-.26.69-.26 1.54-.26 1.54.12 1.54.26z" fill="#263238"/><path d="m233.25 74.38c0 .14-.33.26-.75.26s-.75-.12-.75-.26.34-.26.75-.26.75.12.75.26z" fill="#263238"/><path d="m307.17 130.32h-38.48a3.87 3.87 0 0 0 -3.88 3.88v22.57a3.88 3.88 0 0 0 3.88 3.88h6.16v9.25l8.29-9.25h24a3.88 3.88 0 0 0 3.88-3.88v-22.57a3.87 3.87 0 0 0 -3.85-3.88z" fill="#263238"/><path d="m283.32 146a1.61 1.61 0 1 1 -1.6-1.61 1.6 1.6 0 0 1 1.6 1.61z" fill="#fafafa"/><path d="m289.63 146a1.61 1.61 0 1 1 -1.6-1.61 1.61 1.61 0 0 1 1.6 1.61z" fill="#fafafa"/><path d="m295.75 146a1.61 1.61 0 1 1 -1.61-1.61 1.61 1.61 0 0 1 1.61 1.61z" fill="#fafafa"/><path d="m222.07 158.42c-1.89-.47-1.58-5.67-1.78-7.26a5.2 5.2 0 0 1 .19-2.88 3.93 3.93 0 0 1 3.09-1.92c1.25-.19 2.53-.07 3.78-.25 2.52-.36 4.77-1.92 7.3-2.15a7.18 7.18 0 0 1 5.66 2.07 14.08 14.08 0 0 0 2.61 2.62 14.43 14.43 0 0 0 3.14.94 7.17 7.17 0 0 1 5 5.89 20 20 0 0 1 -.35 4.81 7.35 7.35 0 0 0 .68 4.7c.87 1.43 2.52 2.26 3.33 3.73a4 4 0 0 1 -4.08 5.91c-.47-.07-1-.2-1.38.1a1.92 1.92 0 0 0 -.43 1.12 3 3 0 0 1 -6-1.09" fill="#263238"/><path d="m244 191.72-16.56-1.32c-.1-1.93 0-9.41 0-9.41s-6.89-1.07-7-8 1.11-22.71 1.11-22.71a24 24 0 0 1 24.06 3l1 .78z" fill="#ffbe9d"/><path d="m223.17 161.52a1 1 0 1 0 -1.41-.07 1 1 0 0 0 1.41.07z" fill="#263238"/><path d="m221.5 160.59c.11.12.78-.4 1.73-.41s1.64.49 1.74.37-.05-.27-.35-.5a2.28 2.28 0 0 0 -1.39-.44 2.36 2.36 0 0 0 -1.39.47c-.29.24-.39.46-.34.51z" fill="#263238"/><path d="m232.27 160.93a1 1 0 1 0 1.37.32 1 1 0 0 0 -1.37-.32z" fill="#263238"/><path d="m231.8 161.42c.11.12.79-.4 1.74-.4s1.63.48 1.74.36-.06-.27-.36-.5a2.32 2.32 0 0 0 -1.39-.43 2.22 2.22 0 0 0 -1.38.47c-.3.23-.4.45-.35.5z" fill="#263238"/><path d="m228 169.25a4.72 4.72 0 0 0 -1.53-.32c-.25 0-.45-.09-.47-.22a1.46 1.46 0 0 1 .18-.71c.25-.63.49-1.26.75-1.93a26.25 26.25 0 0 0 1.63-5.07 25.87 25.87 0 0 0 -2.13 4.88c-.25.67-.48 1.31-.71 1.94a1.58 1.58 0 0 0 -.14 1 .65.65 0 0 0 .43.4 1.76 1.76 0 0 0 .42.06 4.85 4.85 0 0 0 1.57-.03z" fill="#263238"/><path d="m231.08 170.3c1-.59-2.72 1.44-4.65 1.35a2.62 2.62 0 0 0 3.09 1c2.06-.71 1.56-2.35 1.56-2.35z" fill="#fafafa"/><path d="m227.44 180.89a16.07 16.07 0 0 0 9-2.55s-2.12 4.95-9 4.33z" fill="#eb996e"/><path d="m245.6 161.21c.14-.08 4.89-1.62 5.5 4.22s-5.48 4.52-5.51 4.35.01-8.57.01-8.57z" fill="#ffbe9d"/><path d="m247.17 167.55s.1.06.28.12a1 1 0 0 0 .77-.07 2.52 2.52 0 0 0 .92-2.37 3.38 3.38 0 0 0 -.43-1.43 1.18 1.18 0 0 0 -.85-.7.51.51 0 0 0 -.57.34c-.06.17 0 .29 0 .3s-.14-.09-.12-.33a.74.74 0 0 1 .19-.39.78.78 0 0 1 .55-.21 1.48 1.48 0 0 1 1.16.79 3.56 3.56 0 0 1 .52 1.59 2.65 2.65 0 0 1 -1.22 2.68 1.08 1.08 0 0 1 -.94-.06c-.24-.12-.28-.25-.26-.26z" fill="#eb996e"/><path d="m221.62 150c1.32 2.44 4.22 3.67 7 3.79a26.88 26.88 0 0 0 8.15-1.44c1.45-.4 3.22-.71 4.28.35a4 4 0 0 1 .91 2.42 26.34 26.34 0 0 1 .08 5.82 6.46 6.46 0 0 0 0 2.32 1.94 1.94 0 0 0 1.56 1.54c1.22.1 2-1.27 2.37-2.42a23.11 23.11 0 0 0 1.35-4.88 7.58 7.58 0 0 0 -.89-4.89 10.09 10.09 0 0 0 -4.46-3.46 26.4 26.4 0 0 0 -11-2.89 14.58 14.58 0 0 0 -10.46 4" fill="#263238"/><path d="m219.61 452.72-.05-9.2 17.22-.21.22 13.45-1.07.08c-4.75.33-24.17 1.3-27.36.38-3.57-1.03 11.04-4.5 11.04-4.5z" fill="#407bff"/><path d="m230.75 456.7a6 6 0 0 1 2.16-3.7 5.79 5.79 0 0 1 4-1.3l.06 4.82z" fill="#407bff"/><path d="m212.48 454.67s-5.11 1.54-4.46 2.38 20.31.58 29-.29v-.38l-22.94.49s-.6-2.17-1.6-2.2z" fill="#407bff"/><path d="m237.24 456.36h-.3l-.85.06-3.13.18c-2.64.13-6.29.26-10.33.31s-7.69 0-10.34 0l-3.13-.09h-.85-.3.3.85 3.13 10.34s7.68-.16 10.33-.25l3.13-.11h.85z" fill="#263238"/><path d="m214 457.13a6.88 6.88 0 0 0 -.6-1.48 7.05 7.05 0 0 0 -1.09-1.19 2.26 2.26 0 0 1 1.26 1.08 2.29 2.29 0 0 1 .43 1.59z" fill="#263238"/><path d="m219.09 454.49c-.05 0-.3-.26-.55-.65s-.43-.74-.38-.77.3.26.55.65.43.74.38.77z" fill="#263238"/><path d="m220.47 453.74s-.31-.14-.61-.4-.51-.51-.47-.56.31.14.61.4.51.51.47.56z" fill="#263238"/><path d="m221.34 452.1a2.06 2.06 0 0 1 -.9.12 1.86 1.86 0 0 1 -.9-.08c0-.06.4-.11.89-.12a2 2 0 0 1 .91.08z" fill="#263238"/><path d="m221.62 451a1.75 1.75 0 0 1 -1 .3 1.72 1.72 0 0 1 -1-.12 6.08 6.08 0 0 1 1-.09 5.51 5.51 0 0 1 1-.09z" fill="#263238"/><path d="m218.49 453a3.27 3.27 0 0 1 -1.11 0 6 6 0 0 1 -1.18-.24 3.43 3.43 0 0 1 -.68-.27.61.61 0 0 1 -.28-.34.45.45 0 0 1 .16-.45 2 2 0 0 1 2.52.57 1.92 1.92 0 0 1 .37.73c.05.19.05.3 0 .3a3.1 3.1 0 0 0 -.51-.94 2 2 0 0 0 -1-.6 1.71 1.71 0 0 0 -1.31.1c-.18.14-.11.34.09.46a3.18 3.18 0 0 0 .63.25 8.31 8.31 0 0 0 1.14.29c.73.14 1.16.14 1.16.14z" fill="#263238"/><path d="m218.2 453.05s-.18-.26-.14-.76a1.93 1.93 0 0 1 .29-.82 1.12 1.12 0 0 1 .92-.57.45.45 0 0 1 .35.51 1.2 1.2 0 0 1 -.19.49 3.25 3.25 0 0 1 -.51.68c-.34.34-.62.48-.63.45s.22-.2.52-.55a4.31 4.31 0 0 0 .46-.67c.15-.24.24-.66 0-.7s-.56.25-.73.47a1.86 1.86 0 0 0 -.3.73 4.27 4.27 0 0 0 -.04.74z" fill="#263238"/><path d="m236.83 451.66s-.5 0-1.28.06a5.48 5.48 0 0 0 -2.76 1.18 5.54 5.54 0 0 0 -1.7 2.47c-.25.74-.27 1.24-.31 1.23s0-.12 0-.34a4.92 4.92 0 0 1 .18-.93 5.24 5.24 0 0 1 4.59-3.76 4.79 4.79 0 0 1 1 0c.16.04.28.07.28.09z" fill="#263238"/><path d="m235 444.51a62.77 62.77 0 0 1 .18 7.08 28.84 28.84 0 0 1 -.2-3.54 31.24 31.24 0 0 1 .02-3.54z" fill="#263238"/><path d="m228.56 455.05a9.5 9.5 0 0 1 -2.51.28 9.14 9.14 0 0 1 -2.52-.17c0-.06 1.13 0 2.52 0s2.51-.16 2.51-.11z" fill="#263238"/><path d="m231.94 455c0 .05-.09.24-.2.5s-.17.49-.23.49-.09-.27 0-.57.39-.42.43-.42z" fill="#263238"/><path d="m233.19 453.4s-.07.23-.24.41-.35.3-.4.26.07-.22.25-.41.35-.3.39-.26z" fill="#263238"/><path d="m235 452.66c0 .06-.24.06-.49.15s-.43.23-.48.19.1-.28.41-.39.56-.01.56.05z" fill="#263238"/><path d="m236.29 452.3c0 .05-.07.14-.21.2s-.28.06-.3 0 .08-.15.22-.2.27-.05.29 0z" fill="#263238"/><path d="m307.63 448-2.81-8.75-16.43 5.14 4 12.86 1-.26c4.62-1.16 23.38-6.26 26.13-8.13 3.06-2.13-11.89-.86-11.89-.86z" fill="#407bff"/><path d="m298.27 455.21a6 6 0 0 0 -3.19-2.85 5.85 5.85 0 0 0 -4.22 0l1.44 4.6z" fill="#407bff"/><path d="m315 447.61s5.33-.13 5 .87-19.13 6.87-27.64 8.73l-.09-.38 22-6.65s-.21-2.18.73-2.57z" fill="#407bff"/><path d="m292 456.9a1.28 1.28 0 0 0 .29 0l.83-.21 3-.8c2.55-.7 6.06-1.71 9.92-2.91s7.32-2.37 9.82-3.25l2.95-1.05.79-.31.28-.11a1.43 1.43 0 0 0 -.29.07l-.81.27-3 1c-2.51.84-6 2-9.83 3.19s-7.36 2.23-9.9 3l-3 .87-.82.24z" fill="#263238"/><path d="m314.29 450.43a7.12 7.12 0 0 1 .11-1.6 6.87 6.87 0 0 1 .67-1.46 2.77 2.77 0 0 0 -.78 3.06z" fill="#263238"/><path d="m308.67 449.49c.06 0 .2-.34.32-.79s.18-.84.12-.85-.2.34-.32.79a2 2 0 0 0 -.12.85z" fill="#263238"/><path d="m307.12 449.2c.05 0 .26-.22.46-.57s.33-.64.28-.67-.26.22-.46.57-.33.64-.28.67z" fill="#263238"/><path d="m305.79 447.91a1.88 1.88 0 0 0 .9-.16 2 2 0 0 0 .83-.36 2.17 2.17 0 0 0 -.89.16 2.33 2.33 0 0 0 -.84.36z" fill="#263238"/><path d="m305.16 446.91a1.85 1.85 0 0 0 1 0 1.76 1.76 0 0 0 .94-.44 5 5 0 0 0 -1 .23 5.62 5.62 0 0 0 -.94.21z" fill="#263238"/><path d="m308.78 447.88a3.1 3.1 0 0 0 1.06-.34 5.8 5.8 0 0 0 1-.6 2.9 2.9 0 0 0 .56-.46.57.57 0 0 0 .16-.41.41.41 0 0 0 -.29-.37 2 2 0 0 0 -2.34 2.12.62.62 0 0 0 .06.3 3 3 0 0 1 .2-1.05 2 2 0 0 1 .72-.87 1.68 1.68 0 0 1 1.28-.31c.21.07.21.29 0 .46a3.1 3.1 0 0 1 -.51.44 7.43 7.43 0 0 1 -1 .62c-.51.31-.91.44-.9.47z" fill="#263238"/><path d="m309.07 447.85a1.07 1.07 0 0 0 -.11-.77 1.73 1.73 0 0 0 -.53-.69 1.12 1.12 0 0 0 -1-.26.44.44 0 0 0 -.18.59 1.28 1.28 0 0 0 .33.42 3.37 3.37 0 0 0 .7.48 1.65 1.65 0 0 0 .74.24s-.27-.13-.67-.37a3.3 3.3 0 0 1 -.64-.5c-.21-.17-.44-.54-.19-.67a1 1 0 0 1 .84.23 1.73 1.73 0 0 1 .51.59 3.83 3.83 0 0 1 .2.71z" fill="#263238"/><path d="m290.93 452.3s.46-.19 1.23-.34a5.43 5.43 0 0 1 5.38 2.09c.47.63.64 1.09.68 1.08a1 1 0 0 0 -.11-.34 5.16 5.16 0 0 0 -.45-.83 5.41 5.41 0 0 0 -2.43-1.93 5.32 5.32 0 0 0 -3.1-.21 4.9 4.9 0 0 0 -.9.3 1.25 1.25 0 0 0 -.3.18z" fill="#263238"/><path d="m290.5 444.93a29.19 29.19 0 0 0 .91 3.42 31.87 31.87 0 0 0 1.11 3.36 28.09 28.09 0 0 0 -.91-3.42 30.91 30.91 0 0 0 -1.11-3.36z" fill="#263238"/><path d="m299.84 453a9.22 9.22 0 0 0 2.47-.51 9.88 9.88 0 0 0 2.35-.94c0-.06-1.08.34-2.41.74s-2.42.61-2.41.71z" fill="#263238"/><path d="m296.62 454s.15.2.34.41.32.41.37.39 0-.29-.21-.53-.48-.36-.5-.27z" fill="#263238"/><path d="m294.93 452.83c0 .05.13.19.36.31s.42.18.45.13-.13-.19-.36-.31-.38-.18-.45-.13z" fill="#263238"/><path d="m293 452.69c0 .05.24 0 .51 0s.48.08.51 0-.17-.23-.5-.24-.58.19-.52.24z" fill="#263238"/><path d="m291.64 452.75c0 .05.11.11.27.12s.28 0 .28-.09-.12-.11-.27-.12-.28.03-.28.09z" fill="#263238"/><path d="m207.89 270.1 8.04 178.65 26.82.57-4.46-149.57 48.61 151.35 21.92-6-48.91-175" fill="#263238"/><g fill="#455a64"><path d="m285.75 450.08 1.25 2.41 23.23-6.77-1.41-3.9z"/><path d="m306.14 440.93c.14-.05.34.24.46.64s.11.75 0 .79-.35-.24-.47-.64-.13-.72.01-.79z"/><path d="m304.4 435.12c.14 0 .44.58.68 1.38s.33 1.48.19 1.53-.44-.58-.69-1.38-.32-1.48-.18-1.53z"/><path d="m302.66 429.32c.14 0 .44.58.68 1.38s.33 1.48.19 1.52-.44-.57-.68-1.37-.33-1.48-.19-1.53z"/><path d="m300.92 423.52c.14 0 .44.58.68 1.38s.33 1.48.19 1.52-.44-.57-.68-1.37-.33-1.49-.19-1.53z"/><path d="m299.18 417.72c.14 0 .44.58.68 1.38s.33 1.48.19 1.52-.44-.57-.68-1.37-.37-1.49-.19-1.53z"/><path d="m297.44 411.92c.14 0 .45.58.69 1.38s.32 1.48.18 1.52-.44-.57-.68-1.37-.33-1.45-.19-1.53z"/><path d="m295.7 406.12c.14 0 .45.58.69 1.38s.32 1.48.18 1.52-.44-.57-.68-1.37-.33-1.49-.19-1.53z"/><path d="m294 400.32c.14 0 .45.57.69 1.37s.32 1.49.18 1.53-.44-.57-.68-1.38-.37-1.48-.19-1.52z"/><path d="m292.22 394.52c.14 0 .45.57.69 1.37s.32 1.49.18 1.53-.44-.58-.68-1.38-.33-1.48-.19-1.52z"/><path d="m290.48 388.72c.14 0 .45.57.69 1.37s.32 1.49.18 1.53-.44-.58-.68-1.38-.33-1.48-.19-1.52z"/><path d="m288.74 382.92c.14 0 .45.57.69 1.37s.32 1.49.18 1.53-.44-.58-.68-1.38-.32-1.44-.19-1.52z"/><path d="m287 377.12c.14-.05.45.57.69 1.37s.32 1.49.18 1.53-.44-.58-.68-1.38-.32-1.48-.19-1.52z"/><path d="m285.26 371.32c.14-.05.45.57.69 1.37s.32 1.48.18 1.53-.44-.58-.68-1.38-.32-1.48-.19-1.52z"/><path d="m283.52 365.51c.14 0 .45.58.69 1.38s.32 1.48.18 1.52-.44-.57-.68-1.37-.32-1.48-.19-1.53z"/><path d="m281.78 359.71c.14 0 .45.58.69 1.38s.32 1.48.18 1.52-.44-.57-.68-1.37-.32-1.49-.19-1.53z"/><path d="m280.05 353.91c.13 0 .44.58.68 1.38s.32 1.48.18 1.52-.44-.57-.68-1.37-.32-1.44-.18-1.53z"/><path d="m278.31 348.11c.13 0 .44.58.68 1.38s.32 1.48.19 1.52-.45-.57-.69-1.37-.32-1.49-.18-1.53z"/><path d="m276.57 342.31c.13 0 .44.58.68 1.38s.32 1.48.19 1.52-.45-.57-.69-1.37-.32-1.49-.18-1.53z"/><path d="m274.83 336.51c.13 0 .44.57.68 1.38s.32 1.48.19 1.52-.45-.57-.69-1.38-.32-1.48-.18-1.52z"/><path d="m273.09 330.71c.13 0 .44.57.68 1.37s.32 1.49.19 1.53-.45-.58-.69-1.38-.27-1.48-.18-1.52z"/><path d="m271.35 324.91c.13 0 .44.57.68 1.37s.32 1.49.19 1.53-.45-.58-.69-1.38-.32-1.43-.18-1.52z"/><path d="m269.61 319.11c.14 0 .44.57.68 1.37s.33 1.49.19 1.53-.45-.58-.69-1.38-.32-1.48-.18-1.52z"/><path d="m267.87 313.31c.14-.05.44.57.68 1.37s.33 1.49.19 1.53-.45-.58-.69-1.38-.32-1.48-.18-1.52z"/><path d="m266.13 307.51c.14-.05.44.57.68 1.37s.33 1.48.19 1.53-.45-.58-.69-1.38-.31-1.48-.18-1.52z"/><path d="m264.39 301.7c.14 0 .44.58.68 1.38s.33 1.48.19 1.52-.45-.57-.69-1.37-.32-1.48-.18-1.53z"/><path d="m262.65 295.9c.14 0 .44.58.68 1.38s.33 1.48.19 1.52-.45-.57-.69-1.37-.32-1.49-.18-1.53z"/><path d="m260.91 290.1c.14 0 .44.58.68 1.38s.33 1.48.19 1.52-.44-.57-.68-1.37-.33-1.49-.19-1.53z"/><path d="m259.17 284.3c.14 0 .44.58.68 1.38s.33 1.48.19 1.52-.44-.57-.68-1.37-.36-1.49-.19-1.53z"/><path d="m257.43 278.5c.14 0 .44.58.68 1.38s.33 1.48.19 1.52-.44-.57-.68-1.37-.33-1.49-.19-1.53z"/><path d="m256.13 274.16c.14 0 .35.25.46.65s.11.75 0 .79-.35-.25-.46-.64-.13-.76 0-.8z"/><path d="m238.12 447.86c.15 0 .28.32.3.73s-.07.75-.22.76-.27-.32-.3-.73.1-.76.22-.76z"/><path d="m237.88 441.9c.14 0 .28.66.31 1.48s-.06 1.49-.2 1.5-.28-.66-.32-1.48.06-1.49.21-1.5z"/><path d="m237.69 436c.15 0 .28.66.31 1.48s-.08 1.49-.22 1.5-.28-.66-.3-1.48.07-1.5.21-1.5z"/><path d="m237.54 430c.15 0 .28.66.3 1.48s-.08 1.49-.22 1.49-.28-.66-.3-1.48.08-1.49.22-1.49z"/><path d="m237.4 424c.15 0 .28.66.3 1.48s-.08 1.49-.23 1.5-.27-.66-.29-1.49.08-1.49.22-1.49z"/><path d="m237.25 418.08c.14 0 .28.66.3 1.48s-.08 1.5-.22 1.5-.28-.66-.3-1.48.07-1.5.22-1.5z"/><path d="m237.05 412.12c.14 0 .28.66.31 1.48s-.06 1.5-.2 1.5-.29-.66-.32-1.48.07-1.49.21-1.5z"/><path d="m236.8 406.17c.14 0 .29.66.32 1.48s-.05 1.49-.2 1.5-.28-.66-.32-1.48.06-1.49.2-1.5z"/><path d="m236.57 400.22c.14 0 .28.66.31 1.48s-.06 1.49-.2 1.5-.28-.66-.32-1.48.06-1.5.21-1.5z"/><path d="m236.36 394.27c.14 0 .28.65.31 1.48s-.07 1.49-.21 1.49-.28-.65-.31-1.48.07-1.49.21-1.49z"/><path d="m236.18 388.31c.14 0 .28.66.3 1.48s-.07 1.49-.21 1.49-.28-.65-.31-1.48.04-1.49.22-1.49z"/><path d="m236 382.35c.15 0 .28.66.3 1.48s-.08 1.5-.22 1.5-.28-.66-.3-1.48.1-1.49.22-1.5z"/><path d="m235.89 376.4c.15 0 .28.66.29 1.48s-.08 1.49-.23 1.5-.27-.67-.29-1.49.09-1.49.23-1.49z"/><path d="m235.79 370.44c.15 0 .27.66.29 1.49s-.1 1.49-.24 1.49-.27-.66-.28-1.49.09-1.49.23-1.49z"/><path d="m235.72 364.49c.15 0 .27.66.28 1.48s-.1 1.49-.25 1.49-.26-.66-.27-1.48.1-1.49.24-1.49z"/><path d="m235.68 358.53c.14 0 .26.66.27 1.49s-.11 1.49-.25 1.49-.27-.67-.27-1.49.11-1.49.25-1.49z"/><path d="m235.67 352.57c.14 0 .26.67.26 1.49s-.12 1.49-.26 1.49-.26-.67-.26-1.49.11-1.49.26-1.49z"/><path d="m235.68 346.62c.15 0 .26.66.26 1.49s-.13 1.48-.27 1.48-.26-.66-.25-1.49.12-1.48.26-1.48z"/><path d="m235.73 340.66c.14 0 .25.67.25 1.49s-.13 1.49-.28 1.49-.25-.67-.24-1.49.13-1.49.27-1.49z"/><path d="m235.81 334.7c.14 0 .25.67.24 1.5s-.14 1.48-.28 1.48-.26-.67-.24-1.49.13-1.49.28-1.49z"/><path d="m235.91 328.75c.15 0 .25.67.24 1.49s-.15 1.49-.29 1.49-.25-.67-.24-1.5.15-1.48.29-1.48z"/><path d="m236.05 322.79c.14 0 .24.67.22 1.5s-.15 1.48-.29 1.48-.25-.67-.23-1.5.15-1.48.3-1.48z"/><path d="m236.26 316.83c.14 0 .23.68.2 1.5s-.18 1.48-.32 1.48-.23-.68-.2-1.5.17-1.49.32-1.48z"/><path d="m236.6 310.88c.15 0 .22.68.17 1.5s-.22 1.48-.36 1.47-.22-.68-.16-1.5.21-1.48.35-1.47z"/><path d="m237.15 305c.14 0 .19.69.11 1.51s-.27 1.46-.41 1.45-.19-.69-.11-1.51.26-1.52.41-1.45z"/><path d="m237.73 300.52c.14 0 .21.37.15.78s-.22.73-.37.71-.21-.37-.15-.78.22-.73.37-.71z"/><path d="m215.23 449.62 28.36.46-.22-4.72-28.14.15z"/><path d="m233.83 272.37a5.21 5.21 0 0 1 .17 1.09c.07.7.16 1.73.26 3 .21 2.53.45 6 .69 9.88.11 1.92.22 3.75.32 5.44a16.31 16.31 0 0 0 .52 4.34 3.62 3.62 0 0 0 1.81 2.15 4.53 4.53 0 0 0 1 .3s-.1 0-.29.05a2.32 2.32 0 0 1 -.82-.16 3.78 3.78 0 0 1 -2.08-2.21 15.74 15.74 0 0 1 -.65-4.44c-.11-1.69-.23-3.52-.36-5.44-.24-3.86-.42-7.36-.53-9.89-.06-1.26-.09-2.29-.11-3a4.11 4.11 0 0 1 .07-1.11z"/><path d="m236.58 274.74c0 .07-.22.24-.25.67a.83.83 0 0 0 .21.61.64.64 0 0 0 .7.09.61.61 0 0 0 .43-.55.8.8 0 0 0 -.27-.59c-.31-.28-.63-.22-.65-.3s.34-.3.86 0a1 1 0 0 1 -.18 1.91 1.06 1.06 0 0 1 -1.24-.25 1.11 1.11 0 0 1 -.22-1c.16-.58.61-.66.61-.59z"/><path d="m261.82 279a5.24 5.24 0 0 1 -2.23.85 9.46 9.46 0 0 1 -10-4.47 5.18 5.18 0 0 1 -.85-2.23c.09 0 .36.84 1.16 2a10.17 10.17 0 0 0 4.19 3.55 10 10 0 0 0 5.44.75c1.47-.18 2.26-.56 2.29-.45z"/><path d="m217.22 272.37a3.85 3.85 0 0 1 -.1 1.93 7.6 7.6 0 0 1 -6.7 5.87 3.7 3.7 0 0 1 -1.93-.16c0-.08.74 0 1.88-.2a8 8 0 0 0 6.39-5.6c.35-1.11.37-1.84.46-1.84z"/></g><path d="m293.17 253.27a16.75 16.75 0 0 0 -.08-22.06l-26.75-30.33-7.15 20c.48.34 20.81 22.12 20.81 22.12l-17.47 21.8a12.53 12.53 0 0 0 -2.07 11.92l4.67 11.43 12.78-5.73-1-1.49h-9.6l-.57-2.31z" fill="#ffbe9d"/><path d="m182.76 149.1s4.19 4.94 8.52-.94c3.41-4.61 4.14-10.32 1.4-12.73l.9-.6s4.56 3 2.5 9.41-6.5 9.78-9.65 9.27-4-3.8-4-3.8l.31-.93" fill="#455a64"/><path d="m210.2 197s-26.83 11.08-26.2 10.35l-.68-32.92h-10.52s-7.47 43.42.54 48.53c10.95 7 37.46-7.55 37.46-7.55z" fill="#ffbe9d"/><path d="m181.17 161.06-.05.34-2.01 14.35-6.31-1.32.81-8.25" fill="#ffbe9d"/><path d="m183.14 159.63-4.37 15.54 3.89.77s.55-1.14 1.82-4.51a10.17 10.17 0 0 0 -.23-7.5s3.52-8 2.16-8.32-3.27 4.02-3.27 4.02z" fill="#ffbe9d"/><path d="m186.54 153.22c-.23.67-9.54 23.78-9.54 23.78l-2.34-1.32 9.4-24.57z" fill="#263238"/><path d="m173.09 173.21s-1.14-6.8.11-8.91c.45-.76 6.89-9.63 7.35-9.35s3.26 8.15 1.78 8.41a2 2 0 0 1 -2.07-1.3s1.93 4.83.57 4.91-2.51-2.91-2.51-2.91 2.86 5.7 1.07 6-4.25-4.39-4.25-4.39z" fill="#ffbe9d"/><path d="m179 158.11a12.35 12.35 0 0 1 1.43 3.17 9.64 9.64 0 0 0 .48 1.2 1.81 1.81 0 0 0 .67.7c.5.28.9.24.91.32s-.41.25-1.07 0a1.92 1.92 0 0 1 -.92-.78 6 6 0 0 1 -.56-1.27 11.37 11.37 0 0 1 -.94-3.34z" fill="#eb996e"/><path d="m177 160.32c.15 0 1.08 2.6 2.63 5.68.19.39.38.73.65.83s.48 0 .57-.32a3.17 3.17 0 0 0 0-1 7.93 7.93 0 0 0 -.08-.9c-.15-1.11-.38-1.78-.31-1.81a3.94 3.94 0 0 1 .67 1.74 8.05 8.05 0 0 1 .15.94 3.15 3.15 0 0 1 0 1.14 1 1 0 0 1 -.41.62.93.93 0 0 1 -.81.05 2 2 0 0 1 -.92-1.08 20.37 20.37 0 0 1 -2.14-5.89z" fill="#eb996e"/><path d="m175.3 163.62a8.19 8.19 0 0 1 1.08 1.7l1 1.92q.3.56.6 1.14a7.63 7.63 0 0 0 .66 1.13.68.68 0 0 0 .89.2 1 1 0 0 0 .33-.92 16.63 16.63 0 0 0 -.64-2 7.76 7.76 0 0 1 -.55-2 8.55 8.55 0 0 1 .89 1.81l.39.94a4.64 4.64 0 0 1 .38 1.16 1.46 1.46 0 0 1 -.5 1.39 1 1 0 0 1 -.85.18 1.44 1.44 0 0 1 -.72-.44 5.92 5.92 0 0 1 -.73-1.25l-.58-1.15-.94-2a8.31 8.31 0 0 1 -.71-1.81z" fill="#eb996e"/><path d="m187.05 154.24a5.52 5.52 0 0 1 -2.26-.47 6.73 6.73 0 0 1 -3.71-5.31 14.65 14.65 0 0 1 6.14-13.88 6.25 6.25 0 0 1 10.13 4.48 13.83 13.83 0 0 1 -1.13 7.8c-1.99 4.49-5.76 7.38-9.17 7.38zm4.29-19a5.82 5.82 0 0 0 -3.05 1 12.66 12.66 0 0 0 -5.24 11.85 4.83 4.83 0 0 0 2.55 3.91c2.8 1.23 6.83-1.47 8.79-5.9a11.75 11.75 0 0 0 1-6.64 4.83 4.83 0 0 0 -2.54-3.83 3.63 3.63 0 0 0 -1.51-.36z" fill="#263238"/><path d="m280.5 213.71-16.89-17a30 30 0 0 0 -11.66-7.55 24 24 0 0 0 -7.31-1.4 29.32 29.32 0 0 1 -17.66 0 42.51 42.51 0 0 0 -13.92 4l-25.23 10.24 8.08 22.29 13.52-4.55.8 21-2.67 31.26 52.35.54-.68-28.45v-20.59l7.55 7.36z" fill="#407bff"/><path d="m266.29 201.14a8.89 8.89 0 0 1 -.74 1.14 15.8 15.8 0 0 1 -2.7 2.83 16.69 16.69 0 0 1 -5.41 3 16 16 0 0 1 -8.15.53 16.69 16.69 0 0 1 -8.75-4.6 8.36 8.36 0 0 1 -1.56-2.29 4.8 4.8 0 0 1 -.46-2.86 3.17 3.17 0 0 1 1.86-2.34 4.17 4.17 0 0 1 3.07 0 4.6 4.6 0 0 1 2.41 2 6 6 0 0 1 .65 3.13 11 11 0 0 1 -2.45 6 16.41 16.41 0 0 1 -11.81 6.15 15.27 15.27 0 0 1 -6.81-1.12 10.6 10.6 0 0 1 -5.16-4.28 6.75 6.75 0 0 1 -.28-6.39 5 5 0 0 1 5.49-2.51 4 4 0 0 1 2.44 1.86 5.25 5.25 0 0 1 .68 2.9 6 6 0 0 1 -3 4.65 9.62 9.62 0 0 1 -5 1.34 21.13 21.13 0 0 1 -4.75-.62 22.78 22.78 0 0 1 -7.65-2.91 10.07 10.07 0 0 1 -3.94-4.72 7.25 7.25 0 0 1 -.48-3.87 4.54 4.54 0 0 1 .38-1.3s-.16.44-.28 1.32a7.49 7.49 0 0 0 .56 3.77 9.89 9.89 0 0 0 3.92 4.55 22.63 22.63 0 0 0 7.57 2.8 20.73 20.73 0 0 0 4.67.58 9.19 9.19 0 0 0 4.8-1.31 5.48 5.48 0 0 0 2.74-4.3 4.8 4.8 0 0 0 -.62-2.64 3.46 3.46 0 0 0 -2.16-1.63 4.55 4.55 0 0 0 -4.93 2.27 6.22 6.22 0 0 0 .29 5.91 10.09 10.09 0 0 0 4.91 4.05 14.8 14.8 0 0 0 6.58 1.08 15.91 15.91 0 0 0 11.43-5.94 10.44 10.44 0 0 0 2.36-5.7 5.43 5.43 0 0 0 -.58-2.88 4.11 4.11 0 0 0 -2.15-1.81 3.71 3.71 0 0 0 -2.72-.05 2.71 2.71 0 0 0 -1.59 2 4.48 4.48 0 0 0 .41 2.59 8.36 8.36 0 0 0 1.47 2.18 16.47 16.47 0 0 0 8.51 4.53 15.94 15.94 0 0 0 8-.44 17.1 17.1 0 0 0 5.38-2.87 17.76 17.76 0 0 0 2.74-2.75c.52-.65.79-1.05.81-1.03z" fill="#263238"/><path d="m257.73 245.55a4.55 4.55 0 0 1 -1 .51 7.73 7.73 0 0 1 -3.27.42 11.1 11.1 0 0 1 -4.95-1.63 26.7 26.7 0 0 1 -5.32-4.44 7.58 7.58 0 0 1 -2.12-3.47 4.31 4.31 0 0 1 .11-2.22 3.08 3.08 0 0 1 1.46-1.8 3 3 0 0 1 2.39-.12 4.91 4.91 0 0 1 2 1.41 7 7 0 0 1 1.54 4.76 8.59 8.59 0 0 1 -1.78 4.94 9.72 9.72 0 0 1 -4.51 3.12 12.12 12.12 0 0 1 -5.65.52 16 16 0 0 1 -5.52-1.91 21 21 0 0 1 -4.66-3.52 7.7 7.7 0 0 1 -2.45-5.12 5 5 0 0 1 .7-2.76 4.28 4.28 0 0 1 2.16-1.76 5.35 5.35 0 0 1 5.15.8 6.07 6.07 0 0 1 2.1 4.52 7.11 7.11 0 0 1 -1.41 4.5 10.74 10.74 0 0 1 -7.26 4c-5.14.56-9.39-.6-11.76-2.26a7.06 7.06 0 0 1 -2.24-2.42 5.11 5.11 0 0 1 -.34-.79 1 1 0 0 1 -.09-.28s.14.38.53 1a7.09 7.09 0 0 0 2.25 2.3c2.34 1.58 6.57 2.66 11.6 2.06a10.34 10.34 0 0 0 7-3.91 6.66 6.66 0 0 0 1.31-4.23 5.68 5.68 0 0 0 -2-4.17 4.89 4.89 0 0 0 -4.67-.71 3.91 3.91 0 0 0 -1.91 1.56 4.54 4.54 0 0 0 -.62 2.48 7.22 7.22 0 0 0 2.27 4.78 20.49 20.49 0 0 0 4.54 3.42 15.61 15.61 0 0 0 5.34 1.86 11.74 11.74 0 0 0 5.41-.49 9.35 9.35 0 0 0 4.29-2.94 8.08 8.08 0 0 0 1.69-4.66 6.51 6.51 0 0 0 -1.41-4.44 4.48 4.48 0 0 0 -1.81-1.29 2.52 2.52 0 0 0 -2 .08 3.27 3.27 0 0 0 -1.38 3.55 7.38 7.38 0 0 0 2 3.31 27.84 27.84 0 0 0 5.21 4.44 11.08 11.08 0 0 0 4.82 1.68 8.24 8.24 0 0 0 3.22-.32c.68-.18 1.03-.39 1.04-.36z" fill="#263238"/></svg>