<svg viewBox="0 0 500 500" xmlns="http://www.w3.org/2000/svg"><path d="M368.73 226.41l9.69 6 1.84-3a2.71 2.71 0 012.56-1.26c.56 0 1.13.06 1.7.05a2.69 2.69 0 012.46 1.42l1.66 3.07 10.06-5.39-1.7-3.03a2.7 2.7 0 01.19-2.83c.32-.47.62-1 .9-1.45a2.69 2.69 0 012.46-1.43l3.49.11.35-11.41-3.5-.1a2.71 2.71 0 01-2.36-1.59c-.12-.26-.25-.51-.38-.75s-.27-.5-.42-.73a2.71 2.71 0 010-2.84l1.86-3-9.7-6-1.85 3a2.71 2.71 0 01-2.55 1.26 16.1 16.1 0 00-1.7-.06 2.71 2.71 0 01-2.46-1.41l-1.65-3.08-10.06 5.39 1.65 3.08a2.72 2.72 0 01-.18 2.83 14.45 14.45 0 00-.89 1.45 2.73 2.73 0 01-2.46 1.43l-3.5-.11-.36 11.41 3.5.11a2.69 2.69 0 012.35 1.58c.12.26.25.51.39.76s.27.49.41.73a2.73 2.73 0 010 2.85zm7.2-9.66a9.34 9.34 0 1112.65 3.83 9.34 9.34 0 01-12.65-3.83zM408.78 190.93l4 6.93 2.12-1.23a1.9 1.9 0 012 .07 10.62 10.62 0 001 .6 1.9 1.9 0 011.1 1.7v2.44h8V199a1.89 1.89 0 011-1.69 9.69 9.69 0 001-.6 1.9 1.9 0 012-.07l2.12 1.23 4-6.93-2.12-1.23a1.89 1.89 0 01-.93-1.77v-.59-.58A1.89 1.89 0 01435 185l2.14-1.23-4-6.93-2.12 1.23a1.92 1.92 0 01-2-.07 9.55 9.55 0 00-1-.6 1.89 1.89 0 01-1-1.69v-2.44h-8v2.44a1.91 1.91 0 01-1.05 1.69 9.55 9.55 0 00-1 .6 1.92 1.92 0 01-2 .07l-2.12-1.23-4 6.93 2.13 1.22a1.93 1.93 0 01.93 1.76v1.18a1.92 1.92 0 01-.94 1.77zm7.65-3.58a6.55 6.55 0 116.54 6.56 6.54 6.54 0 01-6.54-6.56zM113.73 95.11l7.27 12.67 3.88-2.24a3.48 3.48 0 013.65.12 19.79 19.79 0 001.89 1.1 3.48 3.48 0 011.93 3.09v4.48H147v-4.48a3.48 3.48 0 011.93-3.09 19.79 19.79 0 001.89-1.1 3.48 3.48 0 013.65-.12l3.88 2.24 7.31-12.67-3.9-2.24a3.48 3.48 0 01-1.7-3.23v-1.08-1.07a3.47 3.47 0 011.69-3.22l3.93-2.27-7.31-12.67-3.89 2.25a3.5 3.5 0 01-3.65-.13 19.7 19.7 0 00-1.89-1.09 3.48 3.48 0 01-1.94-3.08V62.8h-14.61v4.48a3.48 3.48 0 01-1.92 3.09 19.7 19.7 0 00-1.89 1.09 3.5 3.5 0 01-3.65.13L121 69.34 113.73 82l3.89 2.25a3.47 3.47 0 011.7 3.22v2.16a3.48 3.48 0 01-1.7 3.23zm14-6.55a12 12 0 1112 12 12 12 0 01-12.01-12zM382 115a32.92 32.92 0 11-32.56-37.75v32.92z" fill="#ebebeb"/><path d="M389.09 103.46a31.89 31.89 0 01-.36 4.82l-32.56-4.82V70.54a32.9 32.9 0 0132.92 32.92z" fill="#dbdbdb"/><path d="M366.17 127.98h35.01v.83h-35.01z" fill="#c7c7c7"/><path d="M403.63 131.26a2.87 2.87 0 112.87-2.87 2.88 2.88 0 01-2.87 2.87zm0-4.91a2 2 0 102 2 2 2 0 00-2-2zM412.53 126.55h27.19v1.23h-27.19zM412.53 129h15.39v1.23h-15.39z" fill="#c7c7c7"/><path d="M168.59 280.39s-24.13-3.39-18.49-32.51c0 0 26.97 6.05 18.49 32.51z" fill="#ebebeb"/><path d="M167.37 274.31a45.44 45.44 0 00-1.64-4.34l-.06-.55c0-.4-.07-.81-.1-1.21-.07-.87-.12-1.74-.17-2.61-.11-1.74-.22-3.48-.25-5.22a.07.07 0 10-.14 0v5.23q.06 1.31.15 2.61v.58a51.4 51.4 0 00-4.84-8.27c-.83-1.16-1.7-2.28-2.64-3.35s-2-2.15-3-3.24c-.06-.07-.17 0-.1.11a43.81 43.81 0 014.65 6.18c.73 1.11 1.42 2.25 2.08 3.41l-.22-.09-.86-.35-2-.74-3.75-1.46c-.07 0-.13.11 0 .14 1.28.51 2.55 1.05 3.82 1.6l1.87.8c.31.14.63.26.94.39a3.07 3.07 0 00.64.23c.49.87 1 1.75 1.42 2.64a65.4 65.4 0 012.95 7c.05.16.11.33.17.5a13.85 13.85 0 00-2-1l-2.5-1.14c-1.69-.77-3.37-1.56-5-2.48-.08 0-.16.09-.07.13 1.66.91 3.28 1.87 4.94 2.77.83.45 1.67.89 2.52 1.3a7.77 7.77 0 002.26.91 28.78 28.78 0 011.59 6.85c.26 3.29.23 6.61.31 9.91 0 .06.08.06.09 0 .24-3 .37-6 .39-9a26.22 26.22 0 00-1.45-8.24z" fill="#c7c7c7"/><path d="M163.66 257.18a28.41 28.41 0 00-.24 5.13h.07c.1-1.7.11-3.4.31-5.1.01-.09-.13-.13-.14-.03zM156.76 258.64a18.6 18.6 0 01-3.1-1.53c-.08-.05-.16.08-.08.13a11.93 11.93 0 003.14 1.5c.06.01.1-.08.04-.1zM169.36 326.64c0-2.67-.07-5.33-.1-8 0-8.86-.12-17.71-.28-26.57q-.18-10.54-.49-21.09a.11.11 0 00-.06-.09v-5.76c0-.05-.06-.07-.12-.07s-.11 0-.11.08v5.77a.09.09 0 000 .08c-.36 12.51-.67 25-.75 37.54v7.64q-.13 12.24-.1 24.48v3.89c0 7.47.08 14.93.08 22.4 0 .4.45.6.93.62s1.11-.19 1.11-.65c0-8.24.06-16.47.06-24.7-.15-5.21-.13-10.38-.17-15.57z" fill="#c7c7c7"/><path d="M163.49 321.72s-6-13.16-18.41-13.45-24.86 18.45-24.86 18.45 13 9.89 26.62 6.38c13.16-3.39 16.65-11.38 16.65-11.38z" fill="#ebebeb"/><path d="M166 323.72a13.89 13.89 0 00-5.45-4 8.42 8.42 0 00-1.17-.81c-.46-.3-.92-.6-1.37-.91l-2.84-1.85c-1.92-1.27-3.86-2.5-5.74-3.82-.07 0-.15.07-.09.12 1.84 1.35 3.65 2.73 5.52 4 1 .67 1.92 1.34 2.9 2l.71.49c-.34-.11-.69-.2-1-.28a26.6 26.6 0 00-5.63-.69c-.88-.3-1.8-.52-2.69-.78-1.42-.4-2.85-.77-4.28-1.14-2.82-.72-5.66-1.36-8.5-2-.09 0-.12.11 0 .14 2.78.76 5.54 1.58 8.31 2.36l4 1.13 1 .3a33.86 33.86 0 00-10.7 2.26 44.8 44.8 0 00-9.4 5.11c-.08.05 0 .18.07.13a43.48 43.48 0 0110.49-4.58l-.36.33-1.56 1.48c-1 1-2.09 2-3.11 3-.07.07 0 .16.11.1 1.07-.92 2.12-1.85 3.18-2.79l1.56-1.38.79-.72.25-.22a42.63 42.63 0 015.31-1.06 31.21 31.21 0 017.1-.09c-.13.16-.26.32-.39.46l-1.02 1.16c-.74.85-1.46 1.71-2.18 2.57-1.48 1.75-2.82 3.61-4.28 5.37a.07.07 0 00.11.1c1.55-1.72 3.22-3.34 4.76-5.07l2.3-2.61c.36-.41.71-.83 1.06-1.24.2-.23.4-.45.57-.69.23 0 .46 0 .68.08 3.21.49 6.55 1.41 9.08 3.54a9.45 9.45 0 013.38 8.29c0 .27.4.33.47.07a8.94 8.94 0 00-1.95-7.86z" fill="#c7c7c7"/><path d="M145.81 323.43l-3 3.38a35.74 35.74 0 00-2.8 3.35s0 .09.08.06a33.27 33.27 0 003-3.3l2.86-3.39a.07.07 0 00-.14-.1zM134.19 321.24c-1.66-.07-3.33 0-5-.23a.07.07 0 100 .14 46.21 46.21 0 005 .15v-.06z" fill="#c7c7c7"/><path d="M161.9 302.75s-14.19.9-20.79-8.45-5.11-22.72-5.11-22.72 14.9 1.81 20.82 8.53 5.08 22.64 5.08 22.64z" fill="#ebebeb"/><path d="M168.55 316.74c-.49-1.52-1.1-3-1.67-4.5s-1.14-2.85-1.76-4.25a86.39 86.39 0 00-4.26-8.36c-1-1.73-2.07-3.4-3.17-5.05 0-.25-.08-.5-.12-.76-.06-.43-.12-.87-.19-1.31-.14-.9-.3-1.8-.45-2.69-.33-2-.73-3.91-1-5.87 0-.09-.16-.09-.15 0 .29 1.94.48 3.89.75 5.82.13 1 .26 1.91.4 2.86.06.34.11.69.17 1a101.08 101.08 0 00-7-9.1c-.34-.4-.69-.78-1-1.16 0-.11-.09-.22-.13-.33l-.31-.81c-.21-.56-.41-1.13-.61-1.69-.4-1.11-.76-2.23-1.06-3.37 0-.1-.16-.05-.14 0 .29 1.16.59 2.32.93 3.47.16.56.35 1.11.54 1.65l.1.28c-1.81-2-3.7-3.88-5.61-5.77a.07.07 0 00-.1.11 103.2 103.2 0 0110 12.31 8 8 0 00-1-.26c-1.09-.21-2.2-.37-3.3-.51-2.31-.29-4.62-.59-6.92-.95-.09 0-.13.13 0 .14 2.2.44 4.37.93 6.56 1.43 1 .24 2.06.44 3.1.65a19.62 19.62 0 012.49.71c.23.32.47.65.69 1 1 1.51 2 3.06 3 4.62l-1.45-.29c-1.09-.21-2.19-.41-3.29-.59-2.17-.35-4.33-.73-6.47-1.22-.09 0-.13.13 0 .15 2.17.51 4.32 1.1 6.47 1.67 1 .28 2.09.53 3.14.77l1.58.34a5.37 5.37 0 00.64.11q3.1 5 5.81 10.31c.79 1.54 1.56 3.1 2.29 4.67s1.41 3.25 2.11 4.89c-.01.37.51.24.39-.12z" fill="#c7c7c7"/><path d="M154 284.14c-.27-1.35-.55-2.7-.85-4.05 0-.09-.16 0-.14 0 .27 1.33.52 2.66.76 4a38.25 38.25 0 00.81 4 28 28 0 00-.58-3.95zM145.76 283.74c-.66-.32-1.36-.59-2-.85l-1.08-.43-.54-.22a2 2 0 01-.6-.26c-.11-.08-.18.11-.07.13a2.24 2.24 0 01.6.25l.54.24 1 .46a22.16 22.16 0 002.09.83.08.08 0 00.06-.15z" fill="#c7c7c7"/><path d="M176.42 291.59s8.59-16 21.65-18.52S219.12 284 219.12 284s-9.52 12.17-21.51 14.3-21.19-6.71-21.19-6.71z" fill="#ebebeb"/><path d="M206.82 280.26a35.15 35.15 0 00-10.24.12c.19-.11.39-.22.58-.31l2.9-1.5c2-1 4-2.15 6.13-3a.08.08 0 10-.06-.14c-2 1-4.16 1.75-6.21 2.7-1 .47-2 1-3 1.49-.65.34-1.36.66-2 1.07a36.05 36.05 0 00-8.31 2.76l1.64-1.78c1.21-1.33 2.41-2.73 3.75-3.95.07-.06 0-.16-.11-.1-1.36 1.24-2.81 2.39-4.13 3.68-.65.63-1.26 1.28-1.86 1.95-.3.33-.6.67-.88 1a34.47 34.47 0 00-17.52 23.65c0 .09.12.14.14 0a39.45 39.45 0 019.61-16.24 37.74 37.74 0 0117.5-10.13 38.62 38.62 0 0112.07-1.1.13.13 0 000-.17z" fill="#c7c7c7"/><path d="M199.23 274.54a34.52 34.52 0 00-2.9 1.91 19 19 0 00-2.52 2.31c-.06.07 0 .17.12.1.86-.75 1.73-1.5 2.63-2.22a29.43 29.43 0 012.75-2 .07.07 0 10-.08-.1zM206.4 277.25c-.48.21-1 .38-1.46.58l-1.45.6c-.11.05-.06.22 0 .17l1.51-.6 1.45-.62c.08-.02.04-.16-.05-.13z" fill="#c7c7c7"/><path d="M174.7 311.77s2.3 15.91 14.3 21.48 26.55 0 26.55 0-5.78-34.42-40.85-21.48z" fill="#ebebeb"/><path d="M207.27 322.9c-1.11-.13-2.2-.31-3.3-.51l-1.6-.31-.84-.17c-.33-.3-.64-.6-1-.89a48.26 48.26 0 00-7.32-5.31 42.06 42.06 0 00-4.38-2.25h.22l3.94.17c2.63.12 5.25.18 7.87.35.1 0 .09-.14 0-.15-2.63-.18-5.25-.46-7.88-.69l-3.83-.34-2-.17-.5-.06c-.69-.25-1.37-.49-2.07-.71a18.78 18.78 0 00-10.13-.56c-3 .77-6 2.75-6.79 5.92a.1.1 0 00.19.07c1.12-2.65 4.06-4 6.72-4.53a16.11 16.11 0 015.41-.11 13.72 13.72 0 00.61 2.41l1 3.35c.68 2.24 1.43 4.45 2.09 6.69 0 .09.17.05.14 0-.55-2.24-1-4.49-1.56-6.73-.26-1.09-.54-2.19-.81-3.29a18.58 18.58 0 00-.61-2.26 31.29 31.29 0 013.11.73 44.6 44.6 0 015.42 2c.18 1.13.43 2.26.69 3.38.33 1.4.69 2.79 1.14 4.16 0 .09.15.05.13 0a2 2 0 010-.26c-.26-1.3-.55-2.6-.83-3.9-.22-1-.42-2.1-.65-3.14a44.56 44.56 0 014.36 2.21c0 .32.11.65.16.95.08.54.18 1.09.28 1.63.23 1.23.47 2.45.77 3.66a57.24 57.24 0 002.05 6.92v.09l.06.08c.05.06.14 0 .12-.07-.55-2.36-1.18-4.7-1.7-7.06-.26-1.18-.52-2.37-.76-3.55l-.33-1.78c0-.17-.06-.35-.09-.54a49.67 49.67 0 014.66 3.11 50.6 50.6 0 017.13 6.51c.09.1.26 0 .18-.14-.92-1.2-1.82-2.37-2.85-3.48-.61-.64-1.23-1.27-1.87-1.88h.2l1.69.25c1.1.15 2.21.26 3.32.38.09-.03.13-.17.04-.18z" fill="#c7c7c7"/><path d="M198.86 328.29c0-.13 0-.27-.07-.41s-.12-.34-.14-.52c-.24-1.06-.45-2.13-.64-3.2a.07.07 0 00-.13 0 12.87 12.87 0 00.91 4.15h.08zM188.85 328c0-.05 0-.07-.07-.07-.34-1.41-.66-2.82-.95-4.24-.16-.74-.31-1.49-.46-2.23-.07-.41-.15-.81-.22-1.21a3.38 3.38 0 00-.26-1 .07.07 0 00-.13 0 7.14 7.14 0 00.3 2.14c.15.78.3 1.55.47 2.32.35 1.57.74 3.14 1.18 4.68 0 .09.17.07.16 0s-.02-.24-.02-.39zM206.18 318.32c-2.19-.3-4.37-.62-6.56-.88-.09 0-.13.13 0 .14 2.18.32 4.37.59 6.56.88.05.01.09-.13 0-.14z" fill="#c7c7c7"/><path d="M168.58 274.46s-7.32-32.11 27.18-45.11c0 0 9.56 42.27-27.18 45.11z" fill="#ebebeb"/><path d="M176 256.25l.37-.23 2-1.09 4-2.24c2.63-1.47 5.23-3 7.88-4.44.09-.05 0-.17-.07-.13-2.66 1.45-5.36 2.8-8 4.21l-4 2.09-1.62.86c1.15-2.19 2.38-4.33 3.73-6.39 1.81-2.75 3.78-5.37 5.84-7.93a.12.12 0 00-.17-.17 55.2 55.2 0 00-8 9.78v-.33c0-.8.06-1.6.07-2.4 0-1.56-.05-3.13 0-4.7 0-.1-.14-.09-.15 0-.06 1.55-.25 3.08-.34 4.63 0 .77-.07 1.54-.1 2.31 0 .41-.05.89 0 1.34-.71 1.13-1.4 2.28-2 3.44a61.94 61.94 0 00-3.09 6.47c0-.8-.08-1.6-.13-2.4-.1-1.76-.31-3.51-.39-5.27a.07.07 0 10-.14 0v5.28c0 .87 0 1.75.11 2.63l.06 1a57.92 57.92 0 00-2.61 8.83 95.68 95.68 0 00-1.28 9.7 53.34 53.34 0 011.83-8.64c.43-1.52.88-3 1.37-4.52 1.43-.68 2.81-1.52 4.19-2.29s2.89-1.58 4.34-2.37c2.87-1.58 5.75-3.19 8.72-4.58.08 0 0-.17-.08-.13-3 1.37-6 2.66-9 4.15-1.47.73-2.92 1.52-4.35 2.33-1.2.68-2.43 1.35-3.58 2.13.34-1 .68-2 1.07-3a85.14 85.14 0 013.52-7.93z" fill="#c7c7c7"/><path d="M173.12 248.91c0-.1-.16-.1-.15 0 .12 1.83.18 3.66.38 5.49 0 .1.16.1.16 0-.06-1.84-.26-3.66-.39-5.49zM189.66 255c-2.16.87-4.34 1.69-6.49 2.59-.06 0 0 .13 0 .1 2.18-.81 4.33-1.7 6.5-2.55.12.01.08-.14-.01-.14zM192.94 240.23a55.72 55.72 0 00-6.14 3.29c-.1.06 0 .21.1.15 2-1.17 4-2.29 6.12-3.32.08-.04-.02-.16-.08-.12z" fill="#c7c7c7"/><path d="M185.59 392.51h-34.62l3.52-48.6h27.59z" fill="#dbdbdb"/><path d="M153.78 353.76h29.01l-.72-9.85h-27.58z" fill="#c7c7c7"/><path d="M185.04 349.26h-33.52v-8.46h33.52z" fill="#dbdbdb"/><path d="M202.98 415.44h245.44l19-166.69H221.98z" fill="#455a64"/><path d="M216.35 404.26H437.6l16.45-144.33H232.81z" fill="#fff"/><path d="M446.7 415.44H130.95v-11.18H446.7z" fill="#455a64"/><path d="M378.13 415.44H62.38v-11.18h315.75z" fill="#37474f"/><path d="M250.93 274.93l22.66-.13 22.65-.04 45.31-.08 45.31.08 22.66.04 22.65.13-22.65.12-22.66.04-45.31.09-45.31-.09-22.65-.04zM250.03 282.32l22.65-.13 22.66-.04 45.31-.08 45.31.08 22.65.04 22.66.13-22.66.12-22.65.04-45.31.09-45.31-.09-22.66-.04zM249.12 289.71l22.65-.13 22.66-.04 45.31-.08 45.31.08 22.65.04 22.66.13-22.66.12-22.65.04-45.31.09-45.31-.09-22.66-.04zM248.21 297.1l22.66-.12 22.65-.05 45.31-.08 45.31.08 22.66.05 22.65.12-22.65.12-22.66.04-45.31.09-45.31-.09-22.65-.04zM247.3 304.49l22.66-.12 22.65-.05 45.31-.08 45.31.08 22.66.05 22.65.12-22.65.12-22.66.04-45.31.09-45.31-.09-22.65-.04zM246.4 311.88l22.65-.12 22.66-.05 45.31-.08 45.31.08 22.65.05 22.66.12-22.66.12-22.65.05-45.31.08-45.31-.09-22.66-.04zM245.49 319.27l22.65-.12 22.66-.05 45.31-.08 45.31.08 22.65.05 22.66.12-22.66.12-22.65.05-45.31.08-45.31-.08-22.66-.05zM244.58 326.66l22.66-.12 22.65-.05 45.31-.08 45.31.08 22.66.05 22.65.12-22.65.12-22.66.05-45.31.08-45.31-.09-22.65-.04zM243.68 334.05l22.65-.12 22.66-.05 45.31-.08 45.3.08 22.66.05 22.65.12-22.65.12-22.66.05-45.3.08-45.31-.08-22.66-.05zM242.77 341.44l22.65-.12 22.66-.05 45.31-.08 45.31.08 22.65.05 22.66.12-22.66.12-22.65.05-45.31.08-45.31-.08-22.66-.05zM241.86 348.83l22.65-.12 22.66-.04 45.31-.09 45.31.09 22.65.04 22.66.12-22.66.12-22.65.05-45.31.08-45.31-.08-22.66-.05zM240.95 356.22l22.66-.12 22.65-.04 45.31-.09 45.31.09 22.66.04 22.65.12-22.65.12-22.66.05-45.31.08-45.31-.08-22.65-.05zM240.04 363.61l22.66-.12 22.66-.04 45.31-.09 45.31.09 22.65.04 22.66.12-22.66.13-22.65.04-45.31.08-45.31-.08-22.66-.05zM239.14 371l22.65-.12 22.66-.04 45.31-.09 45.31.09 22.65.04 22.66.12-22.66.13-22.65.04-45.31.08-45.31-.08-22.66-.04zM238.23 378.39l22.65-.12 22.66-.04 45.31-.09 45.31.09 22.65.04 22.66.12-22.66.13-22.65.04-45.31.08-45.31-.08-22.66-.05z" fill="#c7c7c7"/><path d="M277.49 326.66h-13.74l-7.41 60.35h13.74zM304.79 311.94h-13.74l-9.22 75.07h13.75zM329.36 319.52h-13.74l-8.29 67.49h13.74zM357.61 297.1h-13.74l-11.04 89.91h13.74zM381.63 309.15h-13.75l-9.56 77.86h13.75zM410.42 282.32h-13.75l-12.85 104.69h13.74z" fill="#407bff"/><path d="M256.49 269.74l-3.2 29.37c-1.06 9.79-2.23 19.56-3.35 29.34l-3.4 29.35-3.54 29.32-.92-1c14.69 0 29.39-.1 44.08 0l44.08.1 44.08.31 22 .24 22 .31-22 .31-22 .24-44.08.3-44.08.11c-14.69.07-29.39 0-44.08 0H241l.13-1 3.67-29.31 3.8-29.3c1.28-9.76 2.51-19.53 3.85-29.28zM269.17 394.45h-13.75l.16-1.24h13.74zM294.66 394.45h-13.74l.15-1.24h13.75zM320.16 394.45h-13.74l.15-1.24h13.74zM345.66 394.45h-13.75l.15-1.24h13.75zM371.15 394.45h-13.74l.15-1.24h13.75zM396.65 394.45H382.9l.16-1.24h13.74z" fill="#c7c7c7"/><path d="M232.01 266.93l.8-7h221.24l-.8 7z" fill="#263238"/><path d="M238.65 263.43a2 2 0 01-2 1.74 1.51 1.51 0 01-1.53-1.74 2 2 0 012-1.74 1.5 1.5 0 011.53 1.74z" fill="#c7c7c7"/><path d="M245.75 263.43a2 2 0 01-1.95 1.74 1.51 1.51 0 01-1.53-1.74 2 2 0 012-1.74 1.5 1.5 0 011.48 1.74z" fill="#fff"/><path d="M252.86 263.43a2 2 0 01-2 1.74 1.5 1.5 0 01-1.52-1.74 2 2 0 012-1.74 1.51 1.51 0 011.52 1.74zM222.23 184.43c-.9 0-34.36 15.44-36.34 53.47-1.82 35 22.35 68.17 25.47 66 3.82-2.69-2.67-24.47 4.76-49.39 2.63-8.84 14.15-16.68 14.15-16.68z" fill="#407bff"/><path d="M230.28 237.8a52.81 52.81 0 00-9.16 8.25c-5-11.11-14.26-31.85-20.26-45.29 9.8-11.33 20.86-16.33 21.37-16.33z" opacity=".1"/><path d="M307.39 184.49c.89 0 34.33 15.49 36.26 53.52 1.77 35-22.46 68.14-25.57 65.94-3.82-2.7 2.71-24.47-4.68-49.4-2.62-8.84-14.14-16.7-14.14-16.7z" fill="#407bff"/><path d="M328.86 201c-6.06 13.56-15.36 34.34-20.28 45.32a53.13 53.13 0 00-9.31-8.45l8.12-53.37c.51-.02 11.66 5.05 21.47 16.5z" opacity=".1"/><path d="M290.11 271.92h-50.49s-23.78-42.53-21-93.23c1.42-25.31 8-50.79 16-71.88C245.6 77.65 259.15 57 265 57s19.38 20.68 30.32 49.82c7.91 21.09 14.49 46.59 15.87 71.9 2.81 50.7-21.08 93.2-21.08 93.2z" fill="#ebebeb"/><path d="M295.15 172.15A29.12 29.12 0 11266.06 143a29.11 29.11 0 0129.09 29.15z" fill="#c7c7c7"/><path d="M294.12 169.19A29.12 29.12 0 11265 140.05a29.11 29.11 0 0129.12 29.14z" fill="#407bff"/><circle cx="265" cy="169.17" fill="#fff" r="20.19" transform="rotate(-84.32 265.016 169.168)"/><path d="M285.2 169.16a20 20 0 01-1.37 7.32L272.33 188a20.25 20.25 0 01-12.72.62l24.85-24.85a20.06 20.06 0 01.74 5.39zM268 149.19l-23 22.94a20.62 20.62 0 01-.22-3A20.2 20.2 0 01265 149a20.62 20.62 0 013 .19zM282.68 159.39l-27.45 27.44a16.35 16.35 0 01-1.54-1l28-28c.37.5.69 1.02.99 1.56z" fill="#ebebeb"/><path d="M295.34 106.82h-60.69C245.6 77.65 259.15 57 265 57s19.4 20.68 30.34 49.82z" fill="#407bff"/><path d="M245.1 100.51a1.7 1.7 0 11-1.7-1.7 1.7 1.7 0 011.7 1.7zM255.9 100.52a1.7 1.7 0 11-1.7-1.7 1.7 1.7 0 011.7 1.7zM266.69 100.53a1.7 1.7 0 11-1.69-1.71 1.7 1.7 0 011.69 1.71zM277.49 100.53a1.7 1.7 0 11-1.7-1.7 1.7 1.7 0 011.7 1.7zM288.29 100.54a1.7 1.7 0 11-1.7-1.7 1.7 1.7 0 011.7 1.7z" fill="#fff"/><path d="M245 264.12a1.7 1.7 0 11-1.7-1.7 1.7 1.7 0 011.7 1.7zM255.83 264.13a1.7 1.7 0 11-1.7-1.7 1.7 1.7 0 011.7 1.7zM266.62 264.14a1.7 1.7 0 11-1.69-1.7 1.69 1.69 0 011.69 1.7zM277.42 264.14a1.7 1.7 0 11-1.7-1.7 1.7 1.7 0 011.7 1.7zM288.22 264.15a1.7 1.7 0 11-1.7-1.7 1.7 1.7 0 011.7 1.7z" fill="#c7c7c7"/><path d="M285.45 287.1l-41.06-.04-1.92-15.17 44.92.03z" fill="#407bff"/><path d="M287.39 271.93l-.95 7.38-43.23-1.62-.73-5.8z" opacity=".1"/><path d="M171.22 361a7.25 7.25 0 11-7.25-7.25 7.25 7.25 0 017.25 7.25z" fill="#407bff" opacity=".6"/><circle cx="176.5" cy="347.14" fill="#407bff" opacity=".6" r="3.53"/><path d="M335.1 357.48a3.53 3.53 0 11-3.53-3.54 3.53 3.53 0 013.53 3.54zM405.84 389.72a3.53 3.53 0 11-3.53-3.53 3.54 3.54 0 013.53 3.53z" fill="#407bff" opacity=".6"/><path d="M400.43 400.05a4.21 4.21 0 01-4.22 4.21H133.59a4.21 4.21 0 010-8.42 4.15 4.15 0 011 .12 8.3 8.3 0 0114.24-5.81h.08c0-.51-.08-1-.08-1.55a15.68 15.68 0 0115.68-15.68 15.49 15.49 0 016.9 1.6 11.19 11.19 0 0121.6-3.4 15.69 15.69 0 0116.28-7 20.09 20.09 0 01-.32-3.66A21.22 21.22 0 01244 344.31a4.22 4.22 0 013.74-2.28 4.33 4.33 0 011.62.32l3.97-55.35h23.14l3.94 55.32A4.33 4.33 0 01282 342a4.22 4.22 0 013.74 2.28 21.22 21.22 0 0134.75 19.74 15.47 15.47 0 013-.29 15.65 15.65 0 0113.28 7.33 11.19 11.19 0 0121.6 3.4 15.49 15.49 0 016.9-1.6A15.68 15.68 0 01381 388.57c0 .52 0 1-.08 1.55h.08a8.3 8.3 0 0114.21 5.88 4.15 4.15 0 011-.12 4.22 4.22 0 014.22 4.17z" fill="#407bff" opacity=".6"/><g fill="#fdfdfd"><path d="M333.84 365.38l-5.46 1.01-1.22 5.76-1.22-5.76-5.46-1.01 5.43-1.33 1.25-5.44 1.24 5.44zM280.72 319.21l-5.46 1.01-1.22 5.76-1.23-5.76-5.46-1.01 5.44-1.33 1.25-5.44 1.24 5.44zM201.35 376.34l-3.06.57-.68 3.22-.68-3.22-3.05-.57 3.04-.74.69-3.04.7 3.04zM365.6 385.94l-3.06.57-.68 3.21-.68-3.21-3.05-.57 3.04-.74.69-3.04.7 3.04zM159.34 397.22l-3.06.56-.68 3.22-.68-3.22-3.05-.56 3.04-.74.69-3.04.69 3.04zM292.12 394.54l-3.05.57-.68 3.21-.69-3.21-3.05-.57 3.04-.74.7-3.04.69 3.04zM269.77 310.46l-3.05.56-.68 3.22-.68-3.22-3.06-.57 3.04-.74.7-3.04.69 3.04zM372.82 392.9a.89.89 0 000 1.77.89.89 0 000-1.77zM258 299.29a.89.89 0 000 1.77.89.89 0 000-1.77zM182.46 397.22a.89.89 0 000 1.77.89.89 0 000-1.77zM238.55 385.06a.89.89 0 000 1.77.89.89 0 000-1.77zM350.65 377a.63.63 0 000 1.25.63.63 0 000-1.25zM273.3 367.6a.63.63 0 000 1.26.63.63 0 000-1.26zM216.68 355.37a.63.63 0 000 1.25.63.63 0 000-1.25zM313.55 357.92a1.7 1.7 0 000 3.4 1.7 1.7 0 000-3.4zM224.69 349.61a1.7 1.7 0 000 3.4 1.7 1.7 0 000-3.4z"/></g></svg>