<svg height="442.46" width="451.368" xmlns="http://www.w3.org/2000/svg"><g transform="translate(-22.958 -28.38)"><rect fill="#ebebeb" height="171.12" rx="5.21" transform="rotate(-26.88 522.764 74.147)" width="89.68"/><circle cx="6.55" cy="6.55" fill="#fafafa" r="6.55" transform="rotate(-33.9 449.14 48.023)"/><circle cx="6.57" cy="6.57" fill="#fafafa" r="6.57" transform="rotate(-20.45 708.42 -115.202)"/><path d="M80.53 289.22a6.55 6.55 0 11-8.81-2.88 6.55 6.55 0 018.81 2.88z" fill="#fafafa"/><circle cx="6.55" cy="6.55" fill="#fafafa" r="6.55" transform="rotate(-88.06 196.438 87.914)"/><path d="M96.55 320.84a6.55 6.55 0 11-8.81-2.84 6.55 6.55 0 018.81 2.84zM130.56 303.6a6.55 6.55 0 11-8.8-2.88 6.55 6.55 0 018.8 2.88zM112.58 352.46a6.55 6.55 0 11-3.806-3.272 6.55 6.55 0 013.806 3.272zM146.59 335.22a6.55 6.55 0 11-8.81-2.88 6.55 6.55 0 018.81 2.88z" fill="#fafafa"/><path d="M60.53 254.61a38 38 0 01-1.75 5.92 37.88 37.88 0 01-2.23 5.75 36.31 36.31 0 011.74-5.92 36.089 36.089 0 012.24-5.75zM93.79 237.44a35.7 35.7 0 01-1.74 5.92 36.461 36.461 0 01-2.24 5.76 36.378 36.378 0 011.75-5.92 38.291 38.291 0 012.23-5.76zM76.88 286.18a37.848 37.848 0 01-1.41 6.16 37.719 37.719 0 01-1.92 6A37.8 37.8 0 0175 292.2a38.809 38.809 0 011.88-6.02zM110.45 268.93a35.06 35.06 0 01-1.13 6 35.1 35.1 0 01-1.63 5.84 35.383 35.383 0 011.12-6 36.368 36.368 0 011.64-5.84zM91.82 317.81a32.089 32.089 0 01-1.29 5.64 32.749 32.749 0 01-1.8 5.51 31.631 31.631 0 011.3-5.64 32.231 32.231 0 011.79-5.51zM126.78 301a32.35 32.35 0 01-1.74 5.61 34.418 34.418 0 01-2.23 5.44 32.35 32.35 0 011.74-5.61 34.931 34.931 0 012.23-5.44zM108.89 349.76a37.488 37.488 0 01-1.89 5.84 36.86 36.86 0 01-2.4 5.65 35.639 35.639 0 011.91-5.83 35.049 35.049 0 012.38-5.66zM142.66 331.47a42 42 0 01-1.38 6.54 42.648 42.648 0 01-1.88 6.41 43.429 43.429 0 011.38-6.54 42.652 42.652 0 011.88-6.41zM158.82 351.64c.06.13-10.34 5.53-23.23 12.06s-23.4 11.73-23.47 11.61 10.34-5.53 23.23-12.07 23.4-11.73 23.47-11.6zM91.33 225c.06.13-10.34 5.53-23.23 12.07s-23.4 11.73-23.47 11.6 10.37-5.58 23.23-12.12 23.4-11.73 23.47-11.55zM69.62 243.35a.42.42 0 01-.18 0h-.08l.46-.24a.251.251 0 01-.16.27c-.16.07-.26.05-.3 0l.46-.24a.25.25 0 010 .07.39.39 0 01-.2.14z" fill="#e0e0e0"/><path d="M133.84 364c-.13.07-14.73-28.49-32.61-63.76s-32.27-63.94-32.14-64S83.81 264.7 101.7 300s32.3 63.93 32.14 64z" fill="#e0e0e0"/><path d="M36.91 384.49c-.12 22.4-.2 58.57-.24 75.19a8.88 8.88 0 008.85 8.9l61.19.28a8.9 8.9 0 008.93-8.85l.34-74.53a19.75 19.75 0 00-19.65-19.83v-11l-40.07-.18v10.36h-.15a19.73 19.73 0 00-19.2 19.66z" fill="#f5f5f5"/><path d="M56.31 355.9l-.03 4.99 40.06 1.6.04-6.41z" fill="#e0e0e0"/><path d="M54.78 339.205l43.45.197a3 3 0 012.986 3.014l-.068 15a1.93 1.93 0 01-1.94 1.92l-45.579-.206a1.93 1.93 0 01-1.92-1.939l.067-15a3 3 0 013.014-2.986z" fill="#f5f5f5"/><path d="M58 359.19c-.29 0-.51-4.44-.48-9.9s.28-9.9.57-9.9.51 4.43.48 9.9-.26 9.9-.57 9.9zM63.3 359.21c-.29 0-.51-4.43-.48-9.9s.28-9.9.57-9.9.51 4.44.48 9.91-.28 9.89-.57 9.89zM68.58 359.24c-.29 0-.51-4.44-.48-9.9s.28-9.9.57-9.9.51 4.43.48 9.9-.28 9.9-.57 9.9zM73.86 359.26c-.29 0-.51-4.43-.48-9.9s.28-9.9.57-9.9.51 4.44.48 9.9-.28 9.9-.57 9.9zM79.14 359.29c-.29 0-.51-4.44-.48-9.91s.28-9.9.57-9.89.51 4.43.48 9.9-.28 9.9-.57 9.9zM84.42 359.31c-.29 0-.51-4.44-.48-9.9s.28-9.9.57-9.9.51 4.43.48 9.9-.28 9.9-.57 9.9zM89.7 359.33c-.29 0-.51-4.43-.48-9.9s.28-9.9.57-9.9.51 4.44.48 9.91-.27 9.9-.57 9.89zM95 359.36c-.29 0-.51-4.44-.48-9.9s.28-9.9.57-9.9.51 4.43.48 9.9-.3 9.9-.57 9.9z" fill="#e0e0e0"/><rect fill="#ebebeb" height="37.97" rx="1.48" transform="rotate(.26 -87092.729 10789.507)" width="57.41"/><path d="M101.46 430.94a3.41 3.41 0 010-.63v-1.77c0-1.63 0-3.86-.07-6.66 0-5.8-.07-14-.11-23.9l.41.42-50.31-.12.52-.52v8.66c0 2.85 0 5.66-.05 8.42 0 5.51-.07 10.82-.1 15.87l-.48-.49 36.1.4 10.41.18 2.8.07 1 .06a4.853 4.853 0 01-.9.06h-2.7l-10.3.09-36.43.07h-.48v-33.44c-.47.47.64-.64.53-.52l50.32.33h.38v.48c-.13 10-.25 18.3-.33 24.16 0 2.76-.1 5-.13 6.57a13.949 13.949 0 01-.06 1.69 2.42 2.42 0 01-.02.52z" fill="#e0e0e0"/><path d="M93.77 408.61c0 .3-7.66.5-17.1.45s-17.1-.31-17.1-.6 7.66-.49 17.11-.45 17.09.31 17.09.6zM93.74 414.43c0 .29-7.65.49-17.1.45s-17.09-.32-17.09-.61 7.65-.49 17.1-.45 17.1.32 17.09.61zM93.72 420c0 .29-7.66.49-17.1.45s-17.1-.31-17.1-.6 7.66-.49 17.1-.45 17.1.32 17.1.6zM94 365.3c0 .29-8.35.48-18.66.44s-18.66-.32-18.66-.61 8.36-.49 18.67-.44S94 365 94 365.3z" fill="#e0e0e0"/><path d="M40 455.38a20.76 20.76 0 01-.18-3.53c0-2.45-.06-5.69-.1-9.62 0-8.12 0-19.34.09-31.73.06-6.19.12-12.08.17-17.47s.59-10.35 2.38-14.13a15.51 15.51 0 016.38-7.22 11.152 11.152 0 012.46-1 3.34 3.34 0 01.92-.13A22.83 22.83 0 0049 372a15.67 15.67 0 00-6 7.2c-1.59 3.66-2 8.5-2 13.8s-.06 11.28-.09 17.47c-.09 12.39-.24 23.61-.39 31.72-.1 3.93-.18 7.18-.24 9.62a23.359 23.359 0 01-.28 3.57zM112.82 466a16.2 16.2 0 01-2.75-.87c-.86-.32-1.92-.7-3.18-1.07s-2.66-.88-4.26-1.27a97.993 97.993 0 00-11.29-2.42 106.763 106.763 0 00-14.09-1.1 104.4 104.4 0 00-14.1 1 98.656 98.656 0 00-11.32 2.31c-1.6.38-3 .86-4.27 1.23s-2.32.73-3.19 1.05a15.369 15.369 0 01-2.75.84 14.838 14.838 0 012.6-1.23c.85-.37 1.9-.8 3.15-1.21s2.65-1 4.26-1.4A87 87 0 0163 459.33a98.115 98.115 0 0114.24-1.07 97.315 97.315 0 0114.24 1.19 88.819 88.819 0 0111.35 2.66c1.6.44 3 1 4.24 1.43s2.3.87 3.14 1.25a14.68 14.68 0 012.61 1.21z" fill="#fff"/><path d="M474.08 146.41c-1.13-6.61-7.05-12.55-13.74-12.25a14.76 14.76 0 00-10.2 5.44 26.84 26.84 0 00-2.49 3.26 27.178 27.178 0 00-2.15-3.5 14.63 14.63 0 00-9.56-6.48c-6.63-1-13.13 4.27-15 10.72s.28 13.51 4 19.07a37.79 37.79 0 0021.31 16c7.57-1.33 17.46-8.56 21.77-13.69s7.19-11.98 6.06-18.57z" fill="#ebebeb"/><path d="M472.22 158.46h-.87l-2.49-.09-9.15-.41.16-.11c-1 2.91-2.1 6.33-3.34 10.07l-.2.61-.18-.62c-1.38-4.75-2.92-10.07-4.55-15.67-.5-1.74-1-3.45-1.48-5.11l.39.05-6.51 9.89-.06.09h-.11l-16.09-.93-4.56-.3-1.2-.09a3.369 3.369 0 01-.41-.05h1.62l4.56.18 16.1.77-.18.09 6.48-9.9.26-.4.13.45c.48 1.67 1 3.38 1.48 5.12 1.61 5.61 3.15 10.93 4.51 15.68h-.38l3.42-10v-.12h.12l9.14.55 2.48.18h.65a.86.86 0 01.26.07z" fill="#fafafa"/><g fill="#e0e0e0"><path d="M362.29 181.23a2.749 2.749 0 01.39-.28l1.17-.77a18.188 18.188 0 001.86-1.3 29.434 29.434 0 002.42-1.93l1.38-1.22c.46-.45.94-.94 1.43-1.44a21.636 21.636 0 001.5-1.63c.49-.59 1.05-1.17 1.52-1.85a43 43 0 005.7-9.63 42.519 42.519 0 003.34-13.12 41.426 41.426 0 000-7.55 75.59 75.59 0 00-1.37-7.92c-1.14-5.36-2.65-11.1-2.19-17.19s2.88-12 6.1-17.53a52.649 52.649 0 0111.71-14.46 28.941 28.941 0 017.62-4.58 33.381 33.381 0 018.27-2 100.3 100.3 0 0115.7-.25 71.589 71.589 0 0013.55-.58 27.24 27.24 0 0010.46-3.76 20.56 20.56 0 006.15-5.78 15.15 15.15 0 002.26-4.82c.31-1.18.37-1.83.41-1.82a10.547 10.547 0 01-.3 1.85 14.72 14.72 0 01-2.19 4.91 20.53 20.53 0 01-6.12 5.9 27.39 27.39 0 01-10.57 3.88 70.519 70.519 0 01-13.66.63 103.149 103.149 0 00-15.62.3 33.51 33.51 0 00-8.14 2 28.471 28.471 0 00-7.47 4.51c-4.62 3.79-8.35 8.86-11.58 14.31s-5.58 11.33-6 17.29 1 11.66 2.15 17.05a75.011 75.011 0 011.35 8 40.7 40.7 0 010 7.65 42.881 42.881 0 01-3.52 13.24 43.647 43.647 0 01-5.82 9.67 18.6 18.6 0 01-1.55 1.84c-.55.59-1 1.14-1.52 1.63l-1.46 1.43-1.41 1.21a28.584 28.584 0 01-2.46 1.9 17.1 17.1 0 01-1.9 1.26l-1.2.72a2.423 2.423 0 01-.39.23z"/><path d="M335.11 154.18s.06-.16.2-.45.37-.75.64-1.3.71-1.23 1.18-2a24.4 24.4 0 011.84-2.63 36.739 36.739 0 016.14-6.29 37.16 37.16 0 0110.06-5.83 38.62 38.62 0 016.54-1.83 49.172 49.172 0 017.33-.67c5.07-.15 10.49.27 16.15-.07a39.31 39.31 0 008.55-1.44 37.29 37.29 0 008.29-3.59 42 42 0 0013.69-13 47.61 47.61 0 007-17.62 57.558 57.558 0 00.48-17.71c-.71-5.63-2.08-10.88-2.87-15.9a40.371 40.371 0 01-.2-14.09A30.121 30.121 0 01424.51 39a30.79 30.79 0 015.8-6.6 32.089 32.089 0 014.56-3.17l1.29-.65.45-.2-.42.25-1.26.7a33.45 33.45 0 00-4.48 3.24 31.078 31.078 0 00-5.68 6.6 30.25 30.25 0 00-4.27 10.66 40.361 40.361 0 00.27 13.94c.8 5 2.19 10.23 2.93 15.91a58 58 0 01-.46 17.88 47.88 47.88 0 01-7.05 17.82 42.4 42.4 0 01-13.88 13.18 37.919 37.919 0 01-8.42 3.63 39.3 39.3 0 01-8.66 1.45c-5.72.33-11.13-.11-16.18 0a49.38 49.38 0 00-7.26.64 36.82 36.82 0 00-22.65 13.66c-.76.92-1.33 1.83-1.87 2.58a19.686 19.686 0 00-1.22 2c-.31.55-.52 1-.69 1.26s-.25.4-.25.4z"/><path d="M424.18 38.66a10.3 10.3 0 011.54.89c1 .6 2.34 1.51 4 2.67A154.7 154.7 0 01453.89 63c1.39 1.49 2.5 2.71 3.24 3.58a10.5 10.5 0 011.11 1.42 11.589 11.589 0 01-1.24-1.26c-.87-.88-2-2-3.37-3.46-2.86-2.9-6.91-6.81-11.62-10.86s-9.17-7.48-12.47-9.87l-3.92-2.82a11.089 11.089 0 01-1.44-1.07zM420.23 49.34a9.752 9.752 0 011.14 1l3 2.88c2.53 2.43 6.07 5.73 10.12 9.23s7.83 6.51 10.61 8.66l3.28 2.54a8.341 8.341 0 011.18 1 7.891 7.891 0 01-1.3-.8c-.82-.55-2-1.37-3.4-2.4-2.84-2.07-6.68-5-10.74-8.55s-7.57-6.87-10-9.37a177.7 177.7 0 01-2.87-3 7 7 0 01-1.02-1.19zM421.55 62.45a17.73 17.73 0 012.57 1.89c1.54 1.22 3.63 3 5.89 5s4.25 3.85 5.66 5.22a16.3 16.3 0 012.2 2.32 19.931 19.931 0 01-2.47-2l-5.76-5.08-5.77-5.08a18 18 0 01-2.32-2.27zM411.62 78.19a11.309 11.309 0 011.95 1.43l4.55 3.63 4.6 3.58a10.509 10.509 0 011.85 1.57 10.13 10.13 0 01-2.08-1.25c-1.24-.83-2.92-2-4.71-3.45s-3.37-2.76-4.47-3.77a9.551 9.551 0 01-1.69-1.74zM399.83 83c.06-.06 1.24 1.09 3.2 2.87s4.72 4.13 7.97 6.58 6.27 4.48 8.51 5.9a42.515 42.515 0 013.61 2.32 5.28 5.28 0 01-1.06-.47c-.66-.33-1.61-.85-2.76-1.51a87.741 87.741 0 01-8.64-5.79 84.536 84.536 0 01-7.87-6.79c-.95-.93-1.7-1.71-2.19-2.26a4.141 4.141 0 01-.77-.85zM392.35 91.91c.09-.13 5.92 4.18 13 9.62s12.76 9.94 12.66 10.06-5.91-4.18-13-9.62-12.75-9.97-12.66-10.06zM383.3 100a6.411 6.411 0 011.13.82l3 2.37c2.52 2 6 4.76 9.94 7.71s7.54 5.53 10.17 7.38l3.12 2.21a6.611 6.611 0 011.1.86 7 7 0 01-1.22-.68c-.78-.47-1.88-1.17-3.22-2.06-2.69-1.77-6.36-4.31-10.29-7.26s-7.4-5.76-9.85-7.85c-1.23-1-2.21-1.9-2.88-2.51a6.48 6.48 0 01-1-.99zM380.56 111.72c.09-.13 5 3.53 11.05 8.16s10.8 8.49 10.7 8.61-5-3.53-11.05-8.16-10.8-8.49-10.7-8.61zM378 123.91a51.752 51.752 0 016.43 4 52.068 52.068 0 016.13 4.43 50 50 0 01-6.44-4 49.16 49.16 0 01-6.12-4.43zM365.33 135.57a19.059 19.059 0 012.89 1.64c1.74 1.09 4.11 2.65 6.65 4.47s4.79 3.57 6.37 4.86a17.148 17.148 0 012.48 2.22 21.722 21.722 0 01-2.72-1.9c-1.65-1.22-3.92-2.9-6.46-4.72s-4.85-3.43-6.53-4.6a19.911 19.911 0 01-2.68-1.97zM354.31 135.78a6.16 6.16 0 011.16.79c.73.54 1.76 1.35 3 2.36 2.52 2 5.94 4.9 9.59 8.22s6.83 6.46 9.08 8.78c1.13 1.16 2 2.12 2.63 2.79a6.892 6.892 0 01.89 1.08 6.581 6.581 0 01-1.05-.93l-2.75-2.65c-2.32-2.25-5.54-5.33-9.18-8.65s-7-6.24-9.46-8.34l-2.9-2.49a6.849 6.849 0 01-1.01-.96zM345.06 144a8.329 8.329 0 011.26.88c.78.6 1.9 1.47 3.27 2.57 2.75 2.2 6.5 5.29 10.57 8.79s7.7 6.73 10.29 9.11c1.3 1.19 2.33 2.17 3 2.85a7.611 7.611 0 011.06 1.11 8.923 8.923 0 01-1.21-.95l-3.15-2.71c-2.74-2.37-6.38-5.51-10.39-9l-10.46-8.9-3.12-2.75a8.162 8.162 0 01-1.12-1z"/></g><path d="M327.41 42a15.14 15.14 0 015.46 10.51A26.69 26.69 0 01331 64.44c-2.74 7.37-9 13.94-15.1 18.84-5-7.15-4-17.24-3.24-22.32 1.27-8 8.45-21.79 14.78-19M320.17 97.64a12.91 12.91 0 017-10.9 17.13 17.13 0 0113.24-.74c2 .66 4 1.8 4.79 3.76a5.54 5.54 0 01-1.27 5.45 11.25 11.25 0 01-5 3c-6.39 2.09-13 2.94-18.75-.49" fill="#f5f5f5"/><path d="M308.25 113.29a25.439 25.439 0 012.1-4.76 24.23 24.23 0 013.21-4.68 53.154 53.154 0 014.75-5 25.86 25.86 0 0111-6 19.221 19.221 0 013.8-.49 4.05 4.05 0 011.4.12c0 .16-2 .11-5 1a27.8 27.8 0 00-10.58 6.1 61.321 61.321 0 00-4.73 4.92 27.072 27.072 0 00-3.28 4.46 38.476 38.476 0 01-2.67 4.33z" fill="#e0e0e0"/><path d="M322.87 53a15.079 15.079 0 01-.38 2.6c-.3 1.67-.77 4.07-1.37 7-1.21 5.92-3 14.08-5.12 23s-4.36 17-6.06 22.83c-.85 2.9-1.57 5.24-2.1 6.84a14.092 14.092 0 01-.9 2.47 14.931 14.931 0 01.57-2.56c.47-1.79 1.09-4.12 1.83-6.92 1.55-5.84 3.64-13.91 5.8-22.87l5.37-23c.67-2.82 1.22-5.16 1.64-7a15.47 15.47 0 01.72-2.39z" fill="#e0e0e0"/><path d="M309.81 98.15a30.21 30.21 0 00-14.05-23.75c-2.07-1.28-4.85-2.27-6.82-.83s-1.88 4.4-1.24 6.75a25.77 25.77 0 0021.89 18.45" fill="#f5f5f5"/><path d="M296.57 81.49a8.721 8.721 0 011.15.76c.7.53 1.7 1.36 2.89 2.41a34.28 34.28 0 017.69 9.76 21.36 21.36 0 012 6.6 20.742 20.742 0 01-.1 5.63 20.3 20.3 0 01-.92 3.67 4.6 4.6 0 01-.54 1.27c-.17 0 .48-1.91.84-5a22.31 22.31 0 00-.09-5.44 21.72 21.72 0 00-2-6.32 38.57 38.57 0 00-7.33-9.7 43.075 43.075 0 01-3.59-3.64z" fill="#e0e0e0"/></g><g transform="translate(-22.958 -28.38)"><rect fill="#263238" height="366.02" rx="11.55" width="255.05" x="108.23" y="104.33"/><path d="M116.15 130.44h238.96v305.67H116.15z" fill="#fff"/><path d="M245.54 452a9.78 9.78 0 11-2.861-6.922A9.79 9.79 0 01245.54 452z" fill="#455a64"/><rect fill="#455a64" height="4.04" rx="1.22" width="76.82" x="197.35" y="114.87"/><path d="M142.92 154.32h190.37v32.14H142.92z" fill="#407bff"/><g fill="#263238"><path d="M338 228.79v-2.17c0-1.46 0-3.67-.05-6.69l.08.08c-23.67.11-102.09.18-195 .18l.26-.26v8.86l-.26-.26 138.15.11 41.61.08h.09l-41.55.08-138.34.11h-.26v-9.38h.27c92.93 0 171.35.08 195 .19zM178.35 207.91c0 .15-8.57.26-19.14.26s-19.14-.11-19.14-.26 8.57-.26 19.14-.26 19.14.12 19.14.26zM335.09 364.23v-8.86l.07.07c-23.67.11-102.08.19-195 .19l.26-.26v8.86l-.26-.26 138.14.1 41.62.08h.09l-41.55.08-138.34.11h-.26v-9.38h.27c92.93 0 171.34.08 195 .19h.08v.07c0 3 0 5.25-.05 6.73v1.61a3.285 3.285 0 01-.07.67zM180.07 346.46c0 .15-8.57.26-19.14.26s-19.14-.11-19.14-.26 8.57-.26 19.14-.26 19.14.12 19.14.26zM335.09 262.64v-8.85l.07.07c-23.67.11-102.08.19-195 .19l.26-.26v8.85l-.26-.26 138.14.11 41.62.08h.09l-41.55.08-138.34.1h-.26v-9.37h.27c92.93 0 171.34.08 195 .19h.08v.07c0 3 0 5.25-.05 6.72v1.62a3.123 3.123 0 01-.07.66zM178.35 244.88c0 .15-8.57.26-19.14.26s-19.14-.11-19.14-.26 8.57-.26 19.14-.26 19.14.12 19.14.26zM223 296.5v-2.3c0-1.51 0-3.71-.06-6.56l.11.11c-14.41.09-46.15.15-82.94.15.12-.11-.26.26.26-.26v8.83l-.26-.26 58.86.11 17.61.08h.13l-17.56.08-59 .11h-.26v-9.09l.26-.26c36.79 0 68.53.06 82.94.15h.11v.11c0 2.88-.05 5.1-.07 6.62v1.69a1.849 1.849 0 01-.13.69zM178.35 278.74c0 .14-8.57.26-19.14.26s-19.14-.12-19.14-.26 8.57-.26 19.14-.26 19.14.11 19.14.26zM153.87 328.69a4.621 4.621 0 010-.66c0-.48 0-1.08-.05-1.8 0-1.61-.07-3.78-.11-6.39l.2.2-13.8.06c-.06 0 .49-.5.26-.26v8.84l-.24-.24c4 0 7.42.07 9.87.12l2.87.07a9.674 9.674 0 011.06.05 5.391 5.391 0 01-1 .06l-2.82.06c-2.43.05-5.91.1-10 .12h-.24v-9.08l.26-.26 13.8.05h.21v.21c0 2.75-.07 5-.11 6.52 0 .7 0 1.28-.05 1.75a2.23 2.23 0 01-.11.58zM172.1 328.69a4.619 4.619 0 010-.66q0-.72-.06-1.8c0-1.61-.06-3.78-.11-6.39l.21.2-13.8.06c-.06 0 .49-.5.26-.26v8.84l-.24-.24c4 0 7.42.07 9.86.12l2.87.07a9.765 9.765 0 011.07.05 5.529 5.529 0 01-1 .06l-2.82.06c-2.43.05-5.91.1-10 .12h-.24v-9.08c-.24.23.31-.32.26-.26l13.8.05h.21v.21c0 2.75-.07 5-.11 6.52v1.75a2.229 2.229 0 01-.16.58zM190.33 328.69a3.71 3.71 0 01-.05-.66c0-.48 0-1.08-.05-1.8 0-1.61-.06-3.78-.11-6.39l.21.2-13.81.06.26-.26v8.84l-.24-.24c4 0 7.43.07 9.87.12l2.87.07a10.007 10.007 0 011.07.05 5.6 5.6 0 01-1 .06l-2.81.06c-2.43.05-5.92.1-10 .12h-.24v-9.08l.26-.26 13.81.05h.21v.21c0 2.75-.07 5-.1 6.52a14.934 14.934 0 01-.06 1.75 2.771 2.771 0 01-.09.58zM208.55 328.69v-2.46c0-1.61-.07-3.78-.11-6.39l.2.2-13.8.06c-.06 0 .49-.5.26-.26v8.84l-.24-.24c4 0 7.42.07 9.87.12l2.87.07a9.458 9.458 0 011.06.05 5.391 5.391 0 01-1 .06l-2.82.06c-2.42.05-5.91.1-10 .12h-.24v-9.08l.26-.26 13.8.05h.21v.21c0 2.75-.07 5-.11 6.52 0 .7 0 1.28-.05 1.75a2.229 2.229 0 01-.16.58zM226.78 328.69a4.619 4.619 0 010-.66c0-.48 0-1.08-.06-1.8 0-1.61-.06-3.78-.1-6.39l.2.2-13.8.06c-.06 0 .49-.5.26-.26v8.84l-.24-.24c4 0 7.42.07 9.86.12l2.87.07a9.765 9.765 0 011.07.05 5.53 5.53 0 01-1 .06l-2.82.06c-2.43.05-5.91.1-10 .12h-.24v-9.08l.26-.26 13.8.05h.16v.21c0 2.75-.07 5-.11 6.52v1.75a2.23 2.23 0 01-.11.58zM245 328.69a3.709 3.709 0 010-.66c0-.48 0-1.08-.05-1.8 0-1.61-.06-3.78-.11-6.39l.21.2-13.81.06.26-.26v8.84l-.24-.24c4 0 7.43.07 9.87.12l2.87.07a9.765 9.765 0 011.07.05 5.6 5.6 0 01-1 .06l-2.81.06c-2.43.05-5.92.1-10 .12H231v-9.08l.26-.26 13.81.05h.21v.21c0 2.75-.07 5-.1 6.52a14.934 14.934 0 01-.06 1.75 2.772 2.772 0 01-.12.58zM263.24 328.69a3.712 3.712 0 01-.05-.66c0-.48 0-1.08-.05-1.8 0-1.61-.07-3.78-.11-6.39l.21.2-13.81.06c-.06 0 .49-.5.26-.26v8.84l-.24-.24c4 0 7.42.07 9.87.12l2.87.07a10.007 10.007 0 011.07.05 5.737 5.737 0 01-1 .06l-2.81.06c-2.43.05-5.92.1-10 .12h-.24v-9.08l.26-.26 13.81.05h.2v.21c0 2.75-.07 5-.11 6.52 0 .7 0 1.28-.05 1.75a2.77 2.77 0 01-.08.58zM281.46 328.69a4.621 4.621 0 010-.66c0-.48 0-1.08-.05-1.8 0-1.61-.07-3.78-.11-6.39l.2.2-13.8.06c-.06 0 .49-.5.26-.26v8.84l-.24-.24c4 0 7.42.07 9.87.12l2.87.07a9.681 9.681 0 011.06.05 5.529 5.529 0 01-1 .06l-2.82.06c-2.43.05-5.91.1-10 .12h-.24v-9.08c-.24.23.31-.32.26-.26l13.8.05h.21v.21c0 2.75-.07 5-.11 6.52 0 .7 0 1.28-.05 1.75a2.231 2.231 0 01-.11.58zM299.69 328.69a5.464 5.464 0 01-.05-.66c0-.48 0-1.08-.05-1.8 0-1.61-.06-3.78-.11-6.39l.21.2-13.8.06c-.06 0 .49-.5.25-.26v8.84l-.24-.24c4 0 7.43.07 9.87.12l2.87.07a9.765 9.765 0 011.07.05 5.53 5.53 0 01-1 .06l-2.82.06c-2.43.05-5.92.1-10 .12h-.23v-9.08c-.23.23.32-.32.27-.26l13.8.05h.21v.21c0 2.75-.08 5-.11 6.52a14.934 14.934 0 01-.06 1.75 2.768 2.768 0 01-.08.58zM317.92 328.69a3.712 3.712 0 01-.05-.66c0-.48 0-1.08-.05-1.8 0-1.61-.06-3.78-.11-6.39l.21.2-13.81.06c-.06 0 .49-.5.26-.26v8.84l-.24-.24c4 0 7.42.07 9.87.12l2.87.07a10.006 10.006 0 011.07.05 5.6 5.6 0 01-1 .06l-2.81.06c-2.43.05-5.92.1-10 .12h-.24v-9.08l.26-.26 13.81.05h.2v.21c0 2.75-.07 5-.11 6.52 0 .7 0 1.28-.05 1.75a2.772 2.772 0 01-.08.58zM336.14 328.69a4.616 4.616 0 010-.66c0-.48 0-1.08-.05-1.8 0-1.61-.07-3.78-.11-6.39l.2.2-13.8.06c-.06 0 .49-.5.26-.26v8.84l-.24-.24c4 0 7.42.07 9.87.12l2.87.07a9.682 9.682 0 011.06.05 5.391 5.391 0 01-1 .06l-2.82.06c-2.43.05-5.91.1-10 .12h-.24v-9.08l.26-.26 13.8.05h.21v.21c0 2.75-.07 5-.11 6.52 0 .7 0 1.28-.05 1.75a2.232 2.232 0 01-.11.58zM180.07 310.93c0 .15-8.57.26-19.14.26s-19.14-.11-19.14-.26 8.57-.26 19.14-.26 19.14.12 19.14.26zM333.71 296.5v-2.3c0-1.51 0-3.71-.06-6.56l.11.11c-14.41.09-46.14.15-82.93.15l.26-.26v8.83l-.26-.26 58.86.11 17.61.08h.13l-17.55.08-59 .11h-.25v-9.09l.27-.26c36.79 0 68.52.06 82.93.15h.11v.11c0 2.88-.05 5.1-.06 6.62v1.69a1.49 1.49 0 01-.17.69zM290.78 278.74c0 .14-8.57.26-19.14.26s-19.14-.12-19.14-.26 8.57-.26 19.14-.26 19.14.11 19.14.26z"/></g><path d="M272.65 410.33h-74A12.67 12.67 0 01186 397.66 12.67 12.67 0 01198.64 385h74a12.67 12.67 0 0112.67 12.67 12.67 12.67 0 01-12.66 12.66z" fill="#407bff"/><path d="M172.31 164.74h2.5v11.2h-2.5z" fill="#fff"/><path d="M167.96 171.59v-2.5h11.2v2.5z" fill="#fff"/><path d="M182.87 170.37v-.92a3.1 3.1 0 00-.06-.39 5.778 5.778 0 00-.19-1 9.37 9.37 0 00-7.3-6.83 9.51 9.51 0 00-6.07.94 9.059 9.059 0 00-1.13.73 9.878 9.878 0 00-1 .89 11.67 11.67 0 00-.91 1.07 9.08 9.08 0 00-1.32 2.55 9.27 9.27 0 000 5.83 8.82 8.82 0 001.32 2.55 10.467 10.467 0 00.91 1.07 8.831 8.831 0 001 .89 9.061 9.061 0 001.13.73 8.081 8.081 0 001.21.53 9.26 9.26 0 0011.12-3.94 9.12 9.12 0 001-2.47 6 6 0 00.19-1 3.1 3.1 0 00.06-.39 1.184 1.184 0 01-.05.4 7.279 7.279 0 01-.18 1 9 9 0 01-1 2.51 9.36 9.36 0 01-6.32 4.45 9.56 9.56 0 01-5-.39 12.089 12.089 0 01-1.23-.54 11.945 11.945 0 01-1.16-.74 13.186 13.186 0 01-1.07-.91 10.611 10.611 0 01-.92-1.09 8.81 8.81 0 01-1.35-2.6 9.31 9.31 0 010-6 8.809 8.809 0 011.35-2.6 10.812 10.812 0 01.92-1.09 10.109 10.109 0 011.07-.91 8.831 8.831 0 012.39-1.28 9.382 9.382 0 0111.28 4.06 9 9 0 011 2.51 7.279 7.279 0 01.18 1 1 1 0 00.05.39v.78zM225.77 399.79h-3.4l-.65 1.57H220l3.26-7.33h1.68l3.27 7.33h-1.78zm-.53-1.29l-1.16-2.8-1.16 2.8zM228.4 397.69a4 4 0 017-2.49l-1.09 1a2.35 2.35 0 100 2.96l1.09 1a4 4 0 01-7-2.49zM235.91 397.69a3.77 3.77 0 014-3.78 3.82 3.82 0 013 1.29l-1.09 1a2.35 2.35 0 100 2.96l1.09 1a4 4 0 01-7-2.49zM249.72 400v1.36H244V394h5.54v1.36h-3.85V397h3.4v1.32h-3.4V400zM257.42 396.69c0 1.63-1.22 2.65-3.18 2.65h-1.48v2h-1.69V394h3.17c1.96 0 3.18 1.05 3.18 2.69zm-1.72 0c0-.81-.52-1.28-1.56-1.28h-1.38V398h1.38c1.04 0 1.56-.51 1.56-1.31zM259.94 395.41h-2.34V394h6.4v1.38h-2.34v5.95h-1.7zM203.23 397.84l1.26-1.26 2.43 2.16 4.77-4.59 1.17 1.26-6.12 5.76z" fill="#fff"/></g><path d="M442.352 441.33c0 .14-97.75.26-218.3.26s-218.32-.12-218.32-.26 97.73-.26 218.32-.26 218.3.11 218.3.26z" fill="#263238"/><path d="M400.322 416.03l-1 16.68s16.61 6.65 16.72 9.75l-32.44-.84.54-26z" fill="#407bff"/><path d="M389.312 431.05a1.33 1.33 0 00-.95 1.49 1.27 1.27 0 001.46 1 1.39 1.39 0 001-1.58 1.32 1.32 0 00-1.63-.83M383.602 441.62l.16-2.62 31 1.77s1.43.67 1.24 1.68z" fill="#fff" opacity=".6"/><path d="M399.832 432.56c0 .16-.8.21-1.6.7s-1.22 1.14-1.36 1.08.11-1 1.08-1.55 1.92-.37 1.88-.23zM403.192 434.05c0 .16-.66.41-1.21 1.07s-.73 1.36-.89 1.35-.23-.91.47-1.72 1.63-.85 1.63-.7zM405.042 438.17c-.15 0-.35-.76.08-1.62s1.18-1.18 1.24-1.05-.4.59-.74 1.29-.44 1.37-.58 1.38zM399.642 428.73c-.07.15-.79-.09-1.69-.05s-1.6.3-1.68.16.61-.68 1.67-.71 1.78.49 1.7.6z" fill="#263238"/><path d="M400.122 419.33l-.18 2.98-15.93-.55.06-3.44z" opacity=".3"/><path d="M399.782 425.36a2.94 2.94 0 01-1.62-.05 6.739 6.739 0 01-1.68-.56 6.524 6.524 0 01-.92-.52 1.83 1.83 0 01-.48-.39.7.7 0 01-.06-.85.9.9 0 01.71-.34 2 2 0 01.6.1 5.609 5.609 0 011 .37 5.891 5.891 0 011.48 1c.73.72 1 1.31.92 1.34s-.43-.45-1.18-1a6.142 6.142 0 00-1.43-.86 5.847 5.847 0 00-.92-.31c-.34-.1-.63-.11-.73 0s0 .08 0 .19a2 2 0 00.36.28 7.66 7.66 0 00.84.52 9.376 9.376 0 001.56.64 12 12 0 011.55.44z" fill="#263238"/><path d="M399.572 425.62a2.75 2.75 0 01-.39-1.58 5.41 5.41 0 01.27-1.77 5 5 0 01.44-1 1.32 1.32 0 011.06-.79.73.73 0 01.66.47 2.109 2.109 0 01.15.6 3.6 3.6 0 010 1.09 3.75 3.75 0 01-.74 1.66c-.65.82-1.32 1-1.33.94a6.4 6.4 0 001-1.17 3.75 3.75 0 00.56-1.51 3.3 3.3 0 000-.94c0-.34-.16-.62-.29-.59a1.144 1.144 0 00-.59.52 5.67 5.67 0 00-.42.86 6 6 0 00-.36 1.62c-.08.94.07 1.53-.02 1.59z" fill="#263238"/><path d="M407.042 314.42l-25.77 8.28c.31.23 4.78 29.19 4.78 29.19l-3.72 76.88 20.45.25 9.15-80.64z" fill="#263238"/><path d="M371.042 415.97l-.52 16.7s16.8 6.14 17 9.24l-32.43.15-.26-26.06z" fill="#407bff"/><path d="M360.522 431.32a1.33 1.33 0 00-.91 1.51 1.28 1.28 0 001.5.92 1.4 1.4 0 00.95-1.61 1.32 1.32 0 00-1.66-.78M355.142 442.06l.08-2.62 31.06.83s1.44.62 1.29 1.64z" fill="#fff" opacity=".6"/><path d="M371.042 432.51c0 .15-.8.23-1.57.74s-1.19 1.18-1.34 1.12.09-1 1-1.58 1.98-.43 1.91-.28zM374.492 433.9c0 .15-.65.42-1.18 1.09s-.69 1.39-.85 1.38-.26-.9.42-1.72 1.6-.9 1.61-.75zM376.442 437.96c-.14 0-.37-.76 0-1.63s1.15-1.21 1.21-1.08-.38.59-.7 1.31-.35 1.38-.51 1.4zM370.782 428.69c-.07.14-.8-.07-1.69 0s-1.59.35-1.68.22.59-.71 1.64-.77 1.8.42 1.73.55z" fill="#263238"/><path d="M370.972 419.28l-.09 2.97-15.94-.06-.04-3.44z" opacity=".3"/><path d="M370.822 425.31a2.93 2.93 0 01-1.62 0 7.171 7.171 0 01-1.71-.51 9.308 9.308 0 01-.93-.49 2 2 0 01-.49-.38.68.68 0 01-.08-.84.89.89 0 01.69-.37 2.2 2.2 0 01.61.08 6 6 0 011 .35 5.7 5.7 0 011.51 1 3.762 3.762 0 011 1.31c0 .03-.44-.44-1.21-1a6.737 6.737 0 00-1.45-.81 6.451 6.451 0 00-.94-.28c-.34-.09-.63-.09-.72.06s0 .09 0 .19a1.4 1.4 0 00.36.27 6.764 6.764 0 00.86.49 8.169 8.169 0 001.57.59 14 14 0 011.55.34z" fill="#263238"/><path d="M370.612 425.54a2.6 2.6 0 01-.43-1.56 5.309 5.309 0 01.21-1.78 5.192 5.192 0 01.41-1 1.37 1.37 0 011-.83.77.77 0 01.68.45 2.19 2.19 0 01.17.6 3.63 3.63 0 010 1.09 3.69 3.69 0 01-.69 1.68 2.47 2.47 0 01-1.3 1 10.43 10.43 0 001-1.19 3.589 3.589 0 00.5-1.53 3 3 0 000-.94c-.05-.34-.18-.62-.31-.59a1.138 1.138 0 00-.57.54 5.636 5.636 0 00-.39.88 5.53 5.53 0 00-.31 1.62c-.05.95.12 1.54.03 1.56z" fill="#263238"/><path d="M350.332 318.52c0 5.82 2.3 113.74 2.3 113.74l19.41-1.73 4-66.32 2.09-5.78 2.43-35.73z" fill="#263238"/><path d="M391.462 178.62c.26.35 15.42 24.41 15.42 24.41l17.05-17.84 8.72 12.59s-18.23 25.73-20.91 26.66-11.3-.53-11.3-.53l-12-15.89z" fill="#ebebeb"/><path d="M407.042 208.53a6.891 6.891 0 01-.32-2.77 8.241 8.241 0 01.19-2.78 7 7 0 01.33 2.77 8.44 8.44 0 01-.2 2.78z" fill="#263238"/><path d="M352.912 160.62l-2.62 6.47s-13.45 11.35-14.67 13.1 9.6 58.33 9.6 58.33-.7 83.13 0 83.13 10 3 29 1.57 22.53-3.32 22.53-3.32l-5.93-73.52-9.09-49.43-15.59-20.08z" fill="#ebebeb"/><path d="M383.552 188.69s-2-9.59-1.83-9.89-4.48-11.63-4.48-11.63-1.56-5.19-1.56-5.17-21.19-3.58-21.19-3.58l-1 3.2 28.26 35.71 2.9 15.33 3-4.18z" fill="#407bff"/><path d="M402.462 260.87l-4.6-55.31-3.77-21.59a23.46 23.46 0 00-3.39-8.64l-11-6.37a48.425 48.425 0 01-3.15-4.21l5.21 13.31 1.83 10.63 1.13 24.39 6 32.74 5.88 72 12.78-2.5z" fill="#ebebeb"/><path d="M385.142 196.43l2.47-18.15-7.95-9.32-3.15-4.21 4.89 14.05z" fill="#ebebeb"/><path d="M372.582 230.3l19.21-27.32 33.43 10.11-25.29 32.72-31.4-10.21z" fill="#407bff"/><path d="M415.462 211.83a.83.83 0 11-.83-.83.83.83 0 01.83.83zM402.092 208.1a.83.83 0 11-.82-.83.83.83 0 01.82.83zM386.422 185.41c-.05 0 .36 1.78.93 4a37.612 37.612 0 001.12 3.9c.05 0-.37-1.78-.93-3.95s-1.07-3.96-1.12-3.95z" fill="#263238"/><path d="M392.802 197.67a4.23 4.23 0 01-.3 2.31 2.84 2.84 0 01-1.73 1.58 3.15 3.15 0 01-3.05-.65 8 8 0 01-1.91-5.77 3.52 3.52 0 012.19-3 3.17 3.17 0 013.61 1.56" fill="#e0e0e0"/><path d="M391.612 193.72a2.769 2.769 0 00-.51-.73 3.65 3.65 0 00-.82-.64 3 3 0 00-1.33-.38 3.23 3.23 0 00-.81.08 2.67 2.67 0 00-.83.33 3.56 3.56 0 00-1.23 1.49 4.549 4.549 0 00-.41 2.09 8.411 8.411 0 00.41 2.24 6.32 6.32 0 001.78 3 3 3 0 001.48.61 3.54 3.54 0 001.46-.13 2.11 2.11 0 00.93-.51 3.441 3.441 0 00.62-.72 4 4 0 00.5-1.43 3.579 3.579 0 000-1 1.079 1.079 0 000-.25.656.656 0 000-.09 5.528 5.528 0 01-.05 1.29 3.889 3.889 0 01-.52 1.38 3.21 3.21 0 01-.61.68 2 2 0 01-.87.46 3.08 3.08 0 01-2.76-.48 6.22 6.22 0 01-1.71-2.87 5.84 5.84 0 010-4.2 3.4 3.4 0 011.15-1.42 2.43 2.43 0 01.77-.32 2.84 2.84 0 012.06.25 3.28 3.28 0 01.82.6 5.643 5.643 0 01.48.67z" fill="#263238"/><path d="M393.692 197.52a4.19 4.19 0 01-.3 2.3 2.85 2.85 0 01-1.73 1.59 3.15 3.15 0 01-3.05-.65 8 8 0 01-1.91-5.77 3.5 3.5 0 012.18-3 3.18 3.18 0 013.62 1.55" fill="#e0e0e0"/><path d="M392.502 193.56a2.66 2.66 0 00-.51-.72 3.391 3.391 0 00-.82-.64 3 3 0 00-1.34-.38 2.86 2.86 0 00-.81.08 2.48 2.48 0 00-.82.33 3.44 3.44 0 00-1.23 1.49 4.48 4.48 0 00-.41 2.08 8.481 8.481 0 00.41 2.25 6.37 6.37 0 001.78 3 3 3 0 001.48.61 3.55 3.55 0 001.46-.13 2.09 2.09 0 00.94-.51 3.44 3.44 0 00.62-.72 4 4 0 00.5-1.43 3.579 3.579 0 000-1 2.176 2.176 0 000-.25.656.656 0 000-.09 5.27 5.27 0 01-.06 1.29 3.89 3.89 0 01-.52 1.38 2.9 2.9 0 01-.6.68 2 2 0 01-.87.46 3.08 3.08 0 01-2.76-.47 6.22 6.22 0 01-1.71-2.87 5.84 5.84 0 010-4.2 3.34 3.34 0 011.15-1.42 2.34 2.34 0 01.77-.32 2.94 2.94 0 01.77-.09 2.75 2.75 0 011.28.34 3.11 3.11 0 01.82.6 7.132 7.132 0 01.48.65z" fill="#263238"/><path d="M390.962 193.52a2 2 0 012.29.63 3.39 3.39 0 01.63 2.42 3 3 0 01-.33 1.26 1.67 1.67 0 01-1 .82 2 2 0 01-1.77-.5 3.59 3.59 0 01-1.27-2.71 1.66 1.66 0 011-1.67" fill="#e0e0e0"/><path d="M390.512 193.77a.41.41 0 00-.15 0 .91.91 0 00-.37.24 2 2 0 00-.51 1.5 3.53 3.53 0 00.82 2.21 3 3 0 001.11.88 1.69 1.69 0 001.53 0 2.11 2.11 0 00.9-1.24 4.25 4.25 0 00.14-1.4 3 3 0 00-.95-2.15 2.12 2.12 0 00-1.52-.49 1.751 1.751 0 00-.42.11c-.09.05-.13.07-.13.08a2.8 2.8 0 01.56-.11 2 2 0 011.41.52 2.86 2.86 0 01.87 2.05 4.451 4.451 0 01-.15 1.34 2 2 0 01-.81 1.12 1.53 1.53 0 01-1.35 0 2.93 2.93 0 01-1.05-.82 3.45 3.45 0 01-.82-2.1 2 2 0 01.43-1.44 1.62 1.62 0 01.46-.3z" fill="#263238"/><path d="M390.682 200.11a.59.59 0 01.13-.31 1.39 1.39 0 01.52-.58 4 4 0 01.75-.32c.2-.07.33-.12.33-.15a.81.81 0 00-.36 0 2.39 2.39 0 00-.82.29 1.29 1.29 0 00-.56.7c-.06.23-.02.38.01.37zM388.662 193.62a.77.77 0 00.3.21 1.92 1.92 0 001.72-.13c.19-.13.28-.24.26-.26a4.489 4.489 0 01-1.12.33 5.552 5.552 0 01-1.16-.15zM373.212 207.06c-1 .29-2.14-.45-3.12-.07a1.463 1.463 0 101.13 2.7c1-.46 1.23-1.9 2.19-2.47" fill="#263238"/><path d="M365.042 210.67a6.3 6.3 0 00.91-.38l-.16-.33a4.13 4.13 0 01-3.29.4 6.08 6.08 0 01-3.26-3.36v-.07c-.36-.72-5.31-15.46-6.22-18.27a5 5 0 012.4-6.31c.14-.08 3.45-1.8 6.86 2.39 3.57 4.39 9.81 13 10.39 14.12l.27.48c.79 1.34 2.44 4.14 1 6.54-1.61 2.66-3.63 2.48-3.71 2.48v.36c.09 0 2.32.22 4.06-2.66 1.57-2.57-.16-5.5-1-6.91l-.26-.46c-.58-1.08-6.85-9.78-10.42-14.18s-7.28-2.5-7.32-2.48a5.46 5.46 0 00-2.57 6.74c.75 2.31 5.85 17.56 6.23 18.32v.07a6.38 6.38 0 003.46 3.55 4.18 4.18 0 002.63-.04z" fill="#263238"/><path d="M353.692 191.54a6.65 6.65 0 01.16-1.95 6 6 0 01.89-1.93 6.29 6.29 0 011.88-1.77 6.87 6.87 0 014.56-.84 7.74 7.74 0 011.88.6l-.12-.09a3.849 3.849 0 00-.34-.19 6 6 0 00-1.39-.45 6.469 6.469 0 00-2.18-.06 6.671 6.671 0 00-2.51.87 6.21 6.21 0 00-1.93 1.84 6 6 0 00-.87 2 4.74 4.74 0 00-.12 1.46.857.857 0 00.05.39c.05.09.03.13.04.12z" fill="#263238"/><path d="M350.292 167.1l16.58 20.54 14.85 9.32-28.81-36.33zM335.622 180.2s-3.48 5.48-4 11.08c-.22 2.19 5.24 43.32 5.85 45.17s7.87 6.47 10 7.4 28.52 9.71 39.31 9.56l2.31-20.35-27.75-4.63s-3.24-3.08-4.93-3.7l-2.32-22.66-3.39-18.19s-9.66-5.98-15.08-3.68z" fill="#ebebeb"/><g fill="#263238"><path d="M397.982 204.83c-.14 0-1.63-6-3.33-13.44s-3-13.52-2.83-13.55 1.63 6 3.34 13.43 2.96 13.52 2.82 13.56zM352.732 200.06a1.733 1.733 0 00.08.42c.08.28.13.72.22 1.26.18 1.13.44 2.76.77 4.87.65 4.26 1.6 10.42 2.78 18.09l-.11-.13a11.11 11.11 0 012.58 1.63c.82.65 1.62 1.35 2.42 2.09l-.1-.05 27.76 4.58h.22v.22c-.72 6.36-1.49 13.22-2.3 20.35v.24h-.23a72.152 72.152 0 01-15.27-2.38c-6.4-1.53-12.56-3.36-18.47-5.25-1.47-.48-2.93-1-4.37-1.47a18.511 18.511 0 01-4.09-2 56.3 56.3 0 01-3.69-2.46 17.759 17.759 0 01-3.28-2.9 2 2 0 01-.47-1c-.09-.37-.15-.71-.2-1.06-.12-.7-.23-1.39-.34-2.07-.2-1.38-.4-2.73-.6-4.07l-1.08-7.77c-.68-5-1.29-9.7-1.82-14s-1-8.14-1.33-11.55c-.08-.85-.18-1.67-.23-2.47a8.94 8.94 0 010-2.31 27.4 27.4 0 01.94-3.91 29.851 29.851 0 012.15-5.12 13.285 13.285 0 01.72-1.25 2.8 2.8 0 01.28-.4l-.24.43c-.15.28-.39.7-.67 1.27a32.712 32.712 0 00-2.05 5.13 27.708 27.708 0 00-.89 3.89 9.481 9.481 0 000 2.25c.06.79.16 1.61.25 2.46.37 3.4.86 7.26 1.41 11.53s1.2 9 1.88 14q.53 3.76 1.1 7.77c.2 1.33.41 2.68.62 4.05l.33 2.07c.06.34.12.69.2 1a1.65 1.65 0 00.39.87 17.259 17.259 0 003.19 2.79 51.7 51.7 0 003.66 2.44 18.329 18.329 0 004 2c1.43.5 2.89 1 4.36 1.46 5.9 1.88 12 3.7 18.43 5.23a72.5 72.5 0 0015.14 2.37l-.25.23c.82-7.13 1.6-14 2.33-20.35l.2.26-27.75-4.72h-.06c-.79-.74-1.58-1.44-2.39-2.08a10.782 10.782 0 00-2.47-1.59l-.1-.05v-.09c-1.11-7.69-2-13.86-2.62-18.13-.29-2.1-.52-3.74-.68-4.87-.07-.54-.12-1-.16-1.27a3.4 3.4 0 01-.1-.48zM351.092 193.95a17.183 17.183 0 01-1.28-2.47 28.072 28.072 0 00-3.46-5.66 12.42 12.42 0 00-5.3-3.78 19.659 19.659 0 00-2.68-.58 1.85 1.85 0 01.75-.08 7.3 7.3 0 012.05.31 11.69 11.69 0 015.57 3.8 23.069 23.069 0 013.41 5.83 13.45 13.45 0 01.94 2.63z"/><path d="M346.652 228.51a10.64 10.64 0 019.62-3.68 24.24 24.24 0 00-5.1 1.08 25.333 25.333 0 00-4.52 2.6z"/><path d="M349.802 231.73a10.31 10.31 0 016.89-7 25.748 25.748 0 00-4 3 27 27 0 00-2.89 4zM381.722 196.96a6.871 6.871 0 01-1.15-.62l-3.12-1.87-10.71-6.62-5-6.15c-4.58-5.68-8.69-10.82-11.54-14.43l-.07-.09v-.09l2-4.71.56-1.26a1.559 1.559 0 01.23-.43 1.93 1.93 0 01-.14.47c-.12.35-.28.77-.47 1.29-.46 1.2-1.08 2.8-1.85 4.77v-.18c2.92 3.55 7.08 8.65 11.67 14.34l5 6.16-.06-.05 10.62 6.77 3 2a8.052 8.052 0 011.03.7zM384.142 200.82a7.811 7.811 0 01.11-1.34c.12-.94.27-2.16.46-3.64.41-3.08 1-7.37 1.72-12.2v.16c-.31-.58-.65-1.2-1-1.83-2.54-4.72-4.82-9-6.44-12.13l-1.89-3.7a9.5 9.5 0 01-.64-1.39 8.139 8.139 0 01.81 1.29l2.05 3.63c1.7 3.07 4 7.33 6.56 12 .34.63.67 1.25 1 1.83v.17c-.73 4.82-1.4 9.1-1.9 12.17-.25 1.47-.46 2.68-.62 3.62a6.087 6.087 0 01-.22 1.36z"/><path d="M353.732 183.01l.85-.52-.86.52a52 52 0 01-3.73-7l-.18-.43c-1-2.45-2.16-5.22-1.67-7.91v-.05a5.26 5.26 0 011.83-3l.27-.24h.8v1.55l.18.21-.18.17v.07a3.14 3.14 0 00-.89 1.64v.05c-.36 2.1.66 4.57 1.56 6.75l.18.43a48.847 48.847 0 003.6 6.68zM390.302 243.96a3.458 3.458 0 01.14.75c.07.54.17 1.26.29 2.16.25 1.88.58 4.6 1 8 .77 6.73 1.72 16 2.59 26.34s1.49 19.64 1.87 26.4c.18 3.38.32 6.12.39 8 0 .91.05 1.63.07 2.18a4 4 0 010 .76 3.79 3.79 0 01-.09-.75c0-.55-.1-1.27-.17-2.18-.14-1.94-.33-4.66-.56-8-.47-6.75-1.15-16.08-2-26.38s-1.79-19.62-2.51-26.37q-.495-4.995-.79-8c-.08-.9-.14-1.62-.19-2.17a6.18 6.18 0 01-.04-.74zM377.472 267.42a6.715 6.715 0 01-.67.65c-.45.39-1.13.95-2 1.61a59.56 59.56 0 01-6.94 4.77 36.557 36.557 0 01-4.18 2.06 26.4 26.4 0 01-3.61 1.16 16.38 16.38 0 01-2.53.43 2.85 2.85 0 01-.94 0c0-.09 1.32-.24 3.37-.82a28.332 28.332 0 003.53-1.25 42.489 42.489 0 004.1-2.06c2.82-1.63 5.23-3.37 7-4.61a25.178 25.178 0 012.87-1.94zM379.042 271.32a3.339 3.339 0 01-.54.8 18.76 18.76 0 01-1.73 2 28.27 28.27 0 01-15.21 8.09 18.916 18.916 0 01-2.62.32 4 4 0 01-1 0c0-.1 1.36-.2 3.52-.68a31.661 31.661 0 008.06-3 32.17 32.17 0 007-5 31.4 31.4 0 012.52-2.53z"/><path d="M357.632 282.89a7.611 7.611 0 01-.54-2.74 7.32 7.32 0 010-2.79 14.92 14.92 0 01.56 5.53zM355.232 150.36a1.94 1.94 0 01-1.72-1.17 6.729 6.729 0 01-.58-2.24c-.47-3.4-.93-6.81-1.4-10.22a51.872 51.872 0 01-.71-8.71 18.561 18.561 0 012.57-8c1.54-3 7.78-8.19 18.13-5.26"/></g><path d="M354.702 138.1c-.14 0-5.53-1.52-5.26 4s5.72 4.07 5.72 3.91-.46-7.91-.46-7.91z" fill="#ffbe9d"/><path d="M353.382 143.97a1.633 1.633 0 01-.25.15 1 1 0 01-.71.06 2.39 2.39 0 01-1.2-2.07 3.07 3.07 0 01.2-1.37 1.09 1.09 0 01.68-.77.49.49 0 01.58.23c.08.15.05.26.08.27s.11-.1 0-.32a.51.51 0 00-.23-.33.72.72 0 00-.53-.12 1.37 1.37 0 00-1 .9 3.359 3.359 0 00-.25 1.54 2.49 2.49 0 001.51 2.3 1.07 1.07 0 00.87-.19c.25-.15.27-.27.25-.28z" fill="#eb996e"/><path d="M382.832 148.28c0-3.87-.72-11.83-1.43-19a14.93 14.93 0 00-15.13-13.45h-.77c-8.33.64-12.43 8.06-11.56 16.37l1.17 26.48 19.85 10.89-.07-11.87s7.99-1.41 7.94-9.42z" fill="#ffbe9d"/><path d="M374.902 157.68a18.58 18.58 0 01-10.49-2.77s2.52 5.8 10.5 4.94z" fill="#eb996e"/><path d="M378.752 134.5a1.14 1.14 0 01-1.08 1.17 1.09 1.09 0 01-1.2-1 1.14 1.14 0 011.08-1.17 1.1 1.1 0 011.2 1zM379.862 132.78c-.14.15-1-.48-2.25-.45s-2.12.66-2.26.51.08-.34.46-.63a3.18 3.18 0 011.81-.59 3 3 0 011.79.54c.39.28.52.55.45.62zM366.782 134.75a1.13 1.13 0 01-1.08 1.17 1.08 1.08 0 01-1.19-1 1.13 1.13 0 011.08-1.17 1.08 1.08 0 011.19 1zM367.592 132.62c-.12.16-1.06-.36-2.28-.2s-2 .88-2.19.75 0-.34.39-.68a3.07 3.07 0 011.73-.78 3 3 0 011.84.34c.41.28.57.57.51.57zM372.292 142.7a8 8 0 012-.4c.32 0 .61-.1.66-.32a1.6 1.6 0 00-.23-.93l-1-2.37a40.844 40.844 0 01-2.2-6.23 43.342 43.342 0 012.7 6c.32.84.63 1.63.93 2.39a1.83 1.83 0 01.19 1.24.77.77 0 01-.51.46 1.89 1.89 0 01-.53.09 8 8 0 01-2.01.07zM368.682 143.62c.2 0 .23 1.32 1.39 2.24s2.58.76 2.6.95-.32.26-.92.29a3.31 3.31 0 01-2.16-.71 2.92 2.92 0 01-1.08-1.89c-.06-.56.08-.88.17-.88zM367.662 127.35c-.11.33-1.35.2-2.79.4s-2.6.61-2.8.32.11-.46.58-.8a4.68 4.68 0 012.06-.76 4.74 4.74 0 012.19.21c.54.21.81.47.76.63zM379.232 129.62c-.21.28-1.06 0-2.08 0s-1.88.22-2.09-.06 0-.43.42-.7a2.84 2.84 0 011.68-.49 2.88 2.88 0 011.67.53c.37.32.49.61.4.72z" fill="#263238"/><path d="M372.132 114.95c-2.83-1.12-5.7-.53-8.71-.09a13.78 13.78 0 00-6.41 2.55 12.36 12.36 0 00-4.72 9.61 35.49 35.49 0 001.19 10.8l.3-.07a5.16 5.16 0 00-.05 2.78 1.8 1.8 0 002.21 1.21c1-.44 1-1.83 1-2.93a79.346 79.346 0 010-11.12c.16-2.76 1.73-6.15 3.89-7.46 3.93-2.62 9.05-.48 10.78-.18 2.67-2.28 5.16-.5 6.78 1.48-.68-2.98-3.43-5.47-6.26-6.58z" fill="#263238"/><path d="M371.522 120.05c1.76 0 3.16-1.18 5.11-.86 1.18.19 2.37 2.12 3.4 4.52a3.47 3.47 0 00-1-6.35 3.21 3.21 0 001.56.51 1.09 1.09 0 001.1-1 1.46 1.46 0 00-.65-1 8.55 8.55 0 00-12 1.38" fill="#263238"/><path d="M380.562 116.74c0 .07-.57-.3-1.52-.6a6.12 6.12 0 00-3.75 0 6.2 6.2 0 00-3 2.31c-.56.82-.73 1.43-.82 1.41a2.94 2.94 0 01.51-1.6 5.7 5.7 0 017.16-2.49c1.01.43 1.46.93 1.42.97z" fill="#455a64"/><path d="M380.192 122.77a6.819 6.819 0 000-1.86 4 4 0 00-.88-1.75 4.19 4.19 0 00-2-1.22 5.53 5.53 0 00-4.27.74c-1 .62-1.48 1.18-1.54 1.12s.35-.69 1.34-1.42a6 6 0 011.94-.94 5.21 5.21 0 012.66 0 4.42 4.42 0 012.27 1.41 4 4 0 01.87 2 2.39 2.39 0 01-.39 1.92zM351.702 135.95a3.217 3.217 0 01-.21-.73 10.418 10.418 0 01-.18-2.06 13.74 13.74 0 011.66-6.59 13.93 13.93 0 014.61-5 11.207 11.207 0 011.82-1 1.921 1.921 0 01.73-.23c0 .08-1 .5-2.35 1.51a14.63 14.63 0 00-6.11 11.3c-.08 1.73.12 2.79.03 2.8z" fill="#455a64"/><path d="M352.922 136.96a12.35 12.35 0 013.69-11.09 25.642 25.642 0 00-2.75 5.24 25.518 25.518 0 00-.94 5.85z" fill="#455a64"/><path d="M443.432 182.74c-.23-.61-1.39-.74-1.39-.74l.23-.35a1.67 1.67 0 00.12-1.67l-.13-.25a2.81 2.81 0 00-1.34-1s.85-1.16.64-1.73a2.73 2.73 0 00-2.61-1.53 40.64 40.64 0 00-5.45 1.62 1.21 1.21 0 01-1.61-.89 17.24 17.24 0 00-1.75-5c-1-1.68-2.17-1.74-2.88-1.58a.56.56 0 00-.4.76 29.374 29.374 0 011.27 3.52c.19.9-.46 7.41-.46 7.41l-3.31 4.45 7.5 10.83 3.3-4.9 7.07-3.11s1.34-1.69 1.2-2.27a1.77 1.77 0 00-.7-.93l.88-1.23a3.77 3.77 0 00-.18-1.41z" fill="#ffbe9d"/><path d="M441.552 178.91l-.14.09-.44.25-1.61.9-2.4 1.3c-.46.24-.92.52-1.45.74a1.91 1.91 0 01-1.74 0 1.31 1.31 0 01-.54-.75 1.91 1.91 0 010-.89 2.44 2.44 0 01.91-1.35 9.38 9.38 0 011.23-.82l1.09-.65 1.59-.94.44-.24.15-.08-.14.11-.42.27-1.56 1-1.08.67a10.54 10.54 0 00-1.2.81 2.41 2.41 0 00-.85 1.28 1.36 1.36 0 00.48 1.46 1.44 1.44 0 00.79.21 2.39 2.39 0 00.8-.18 15.874 15.874 0 001.43-.72l2.42-1.28 1.64-.84.45-.23z" fill="#eb996e"/><path d="M442.512 182.16a1.46 1.46 0 01-.34.2c-.22.12-.54.29-.95.48-.81.4-1.94.91-3.22 1.42a7.218 7.218 0 01-.95.34 1.85 1.85 0 01-1 0 1.48 1.48 0 01-1.06-1.17 1.4 1.4 0 01.25-1 .9.9 0 01.19-.22l.09-.06a1.855 1.855 0 00-.23.31 1.45 1.45 0 00-.19 1 1.39 1.39 0 001 1 1.81 1.81 0 00.89 0c.3-.08.61-.22.93-.34 1.27-.51 2.41-1 3.23-1.37l1-.44a1.7 1.7 0 01.36-.15z" fill="#eb996e"/><path d="M442.882 185.24a1.11 1.11 0 01-.33.13l-.94.31-3.12.94c-.31.08-.6.18-.91.23a1.58 1.58 0 01-.89-.06 1 1 0 01-.58-.58 1.15 1.15 0 010-.71 1.49 1.49 0 01.65-.76 1 1 0 01.33-.15q-.14.107-.29.2a1.55 1.55 0 00-.57.75 1 1 0 000 .63.8.8 0 00.51.47 1.46 1.46 0 00.81 0 3.823 3.823 0 00.88-.23c1.22-.36 2.33-.68 3.13-.89l1-.26z" fill="#eb996e"/><path d="M442.922 188.06a8.087 8.087 0 01-1.07.11l-2.57.14h-.74a2.74 2.74 0 01-.7 0 1 1 0 01-.57-.31.63.63 0 01-.15-.56.93.93 0 01.5-.62.47.47 0 01.28-.07 2 2 0 00-.25.13.9.9 0 00-.42.58.56.56 0 00.14.45.85.85 0 00.5.25 3 3 0 00.67 0h.73c1 0 1.92-.08 2.58-.09a6.511 6.511 0 011.07-.01zM436.142 185.62a9.588 9.588 0 00-1.8-.47 9.288 9.288 0 00-1.86.08 4.09 4.09 0 013.66.39z" fill="#eb996e"/><path d="M388.952 234.25l1.56-.4s.54-2.61 1.23-3.16 7.56-3.68 9.07-4.5 7.41-3.51 8.15-2.09c.84 1.62-1.57 3-2.87 3.57s-5 2.06-4.27 2.95 9.07.49 9.07.49l1-1.4s1.83 1.73 1.62 3.24a6.509 6.509 0 01-.82 2.47h-.62a1.72 1.72 0 01.07 1.79 16.591 16.591 0 01-1.64 2.05 6.12 6.12 0 01-3.91 2.86c-.35.09-14.07 1.29-14.07 1.29l-4.6.46z" fill="#ffbe9d"/><g><path d="M113.882 30.32L77.462 16.9l-36.06 13.24c-4.61 2.23-8.64 3.56-8.64 8v21.87a84.33 84.33 0 0011.88 43.61 74.57 74.57 0 0033.18 30c14.74-4.91 25.74-18 32.47-29.21a84.4 84.4 0 0011.88-43.59V41.16c0-6.27-3.24-9.33-8.29-10.84z" fill="#407bff"/><path d="M113.882 30.32L77.462 16.9l-36.06 13.24c-4.61 2.23-8.64 3.56-8.64 8v21.87a84.33 84.33 0 0011.88 43.61 74.57 74.57 0 0033.18 30c14.74-4.91 25.74-18 32.47-29.21a84.4 84.4 0 0011.88-43.59V41.16c0-6.27-3.24-9.33-8.29-10.84z" fill="#fff" opacity=".8"/><path d="M106.682 39.21l-29.22-10.76-28.93 10.61c-3.7 1.79-6.94 2.86-6.94 6.39v17.58a67.66 67.66 0 009.54 35 59.79 59.79 0 0026.62 24.12c11.82-3.94 20.65-14.45 26.05-23.43a67.75 67.75 0 009.53-35V47.91c0-5.03-2.6-7.49-6.65-8.7z" fill="#407bff"/><path d="M99.582 69.41h-17.18V52.22h-9.87v17.19h-17.19v9.87h17.19v17.18h9.87V79.28h17.18z" fill="#fff"/><g fill="#407bff"><path d="M131.692 119.47s.16-.24.5-.69l.29-.37c.1-.15.18-.32.29-.5a7.721 7.721 0 00.65-1.29c.1-.26.22-.52.32-.81s.17-.61.26-.93a6.841 6.841 0 00.21-1 10 10 0 00.16-1.15 21.63 21.63 0 00-.25-5.51 49.641 49.641 0 00-5.08-14.31 111.352 111.352 0 00-10.88-16.92 173.16 173.16 0 00-16.22-18.22 199.27 199.27 0 00-21.29-18.15c-4-2.93-8.17-5.76-12.59-8.43a121 121 0 00-14-7.33 65 65 0 00-15.56-4.88 27.48 27.48 0 00-8.3-.2 15.23 15.23 0 00-4 1.16 10 10 0 00-5.43 6.08 15.53 15.53 0 00-.7 4.11 27.52 27.52 0 001.15 8.23 65.09 65.09 0 006.61 14.91 123.151 123.151 0 008.88 13.06c3.16 4.09 6.45 7.93 9.81 11.55a199.412 199.412 0 0020.52 19.07 173.1 173.1 0 0020 14 111 111 0 0018 8.88 49.58 49.58 0 0014.75 3.41 21.41 21.41 0 005.51-.38 9.161 9.161 0 001.12-.28 6 6 0 001-.34l.9-.36c.27-.13.52-.28.76-.41a6.861 6.861 0 001.21-.79c.17-.12.33-.23.46-.34l.34-.33c.41-.39.63-.58.63-.58l-.6.6-.34.34c-.13.11-.29.22-.46.35a7.451 7.451 0 01-1.28.9l-.76.42-.9.37a6.3 6.3 0 01-1 .34 11.608 11.608 0 01-1.13.3 21.93 21.93 0 01-5.53.41 49.64 49.64 0 01-14.81-3.37 111.07 111.07 0 01-18.1-8.85 174.153 174.153 0 01-20-14 198.69 198.69 0 01-20.54-19.1c-3.36-3.63-6.66-7.47-9.83-11.57a121.759 121.759 0 01-8.91-13.09 65.66 65.66 0 01-6.65-15 27.69 27.69 0 01-1.15-8.32 15.94 15.94 0 01.71-4.21 11.68 11.68 0 012.14-3.73 11.56 11.56 0 013.46-2.6 16 16 0 014.09-1.19 27.79 27.79 0 018.4.21 65.79 65.79 0 0115.64 4.9 122.309 122.309 0 0114 7.36c4.43 2.68 8.63 5.52 12.61 8.45a199.823 199.823 0 0121.36 18.27 174.19 174.19 0 0116.21 18.28 110.2 110.2 0 0110.86 17 49.409 49.409 0 015 14.33 21.78 21.78 0 01.23 5.54 7.941 7.941 0 01-.17 1.15 8.112 8.112 0 01-.22 1.05c-.1.32-.19.64-.27.93a7.587 7.587 0 01-.33.81 8.23 8.23 0 01-.67 1.3c-.11.18-.2.35-.29.49l-.3.37z"/><path d="M151.822 70.87a6.746 6.746 0 00-.08-.85v-.47a3.329 3.329 0 00-.12-.56 7.81 7.81 0 00-.38-1.4c-.09-.25-.18-.53-.3-.82l-.42-.86a6.29 6.29 0 00-.54-.92 8.89 8.89 0 00-.64-1 21.21 21.21 0 00-3.86-4 49.43 49.43 0 00-13.28-7.27 111.549 111.549 0 00-19.38-5.39 174.218 174.218 0 00-24.27-2.71 198.523 198.523 0 00-28 .61c-4.92.47-9.93 1.15-15 2.1a122.081 122.081 0 00-15.32 3.83 65.49 65.49 0 00-14.85 6.72 27.34 27.34 0 00-6.34 5.37 15.49 15.49 0 00-2.22 3.54 10 10 0 000 8.15 15.49 15.49 0 002.22 3.54 27.63 27.63 0 006.33 5.38 65.36 65.36 0 0014.86 6.76 123.458 123.458 0 0015.32 3.84c5.08 1 10.09 1.62 15 2.09a198.661 198.661 0 0028 .61 172.559 172.559 0 0024.23-2.8 112.609 112.609 0 0019.39-5.38 49.51 49.51 0 0013.28-7.36 21.209 21.209 0 003.86-4 10.832 10.832 0 00.65-1 7.228 7.228 0 00.53-.92l.43-.86c.11-.29.2-.56.29-.82a7.81 7.81 0 00.38-1.4 3.073 3.073 0 01.12-.56 2.455 2.455 0 000-.47c.05-.56.08-.85.08-.85v1.33a3.243 3.243 0 01-.11.56 7 7 0 01-.37 1.41c-.09.26-.17.54-.29.83s-.27.57-.42.87a6.7 6.7 0 01-.53.93 10.792 10.792 0 01-.64 1 21.63 21.63 0 01-3.86 4 49.5 49.5 0 01-13.29 7.35 111.622 111.622 0 01-19.4 5.44 172.911 172.911 0 01-24.27 2.84 199 199 0 01-28-.58c-4.92-.46-9.95-1.14-15-2.09a121 121 0 01-15.36-3.84 65.56 65.56 0 01-14.94-6.75 27.67 27.67 0 01-6.4-5.44 16 16 0 01-2.27-3.62 11.62 11.62 0 01-.89-4.21 11.42 11.42 0 01.9-4.2 15.63 15.63 0 012.27-3.62 27.87 27.87 0 016.28-5.33 65.69 65.69 0 0114.93-6.75 121.852 121.852 0 0115.36-3.85c5.09-1 10.12-1.62 15-2.09a199 199 0 0128-.58 171.223 171.223 0 0124.26 2.85 110.871 110.871 0 0119.49 5.42 49.5 49.5 0 0113.29 7.34 21.629 21.629 0 013.86 4 10.793 10.793 0 01.64 1 8.1 8.1 0 01.53.93l.42.88c.12.28.2.56.29.82a7.219 7.219 0 01.37 1.41 3.384 3.384 0 00.11.57v.47c.06.58.07.83.07.83z"/><path d="M125.142 10.38l-.71-.46-.39-.3c-.15-.09-.33-.16-.51-.25a8.2 8.2 0 00-1.34-.56l-.83-.27-.95-.19a6.66 6.66 0 00-1.05-.14 10.561 10.561 0 00-1.15-.08 21.76 21.76 0 00-5.49.63 49.48 49.48 0 00-13.88 6 111.269 111.269 0 00-16.13 12 172.122 172.122 0 00-17.07 17.54 197.251 197.251 0 00-16.67 22.5 169.36 169.36 0 00-7.54 13.14 120.864 120.864 0 00-6.39 14.46 65.14 65.14 0 00-3.8 15.86 27.5 27.5 0 00.37 8.29 15.76 15.76 0 001.43 3.92 10.07 10.07 0 006.44 5 15.32 15.32 0 004.16.41 27.42 27.42 0 008.12-1.7 65.31 65.31 0 0014.42-7.63 119.834 119.834 0 0012.42-9.76c3.87-3.43 7.47-7 10.85-10.58a197.855 197.855 0 0017.64-21.75 173.2 173.2 0 0012.68-20.84 111.741 111.741 0 007.62-18.62 49.82 49.82 0 002.38-14.95 21.6 21.6 0 00-.76-5.47c-.08-.39-.25-.74-.36-1.1a7.172 7.172 0 00-.4-1q-.22-.45-.42-.87c-.16-.26-.32-.5-.47-.73a7.29 7.29 0 00-.87-1.16c-.13-.15-.25-.31-.37-.43l-.35-.32-.63-.58s.23.18.65.56l.36.31c.12.12.24.27.38.43a7.811 7.811 0 01.89 1.15c.15.23.32.47.47.74s.28.56.43.87a5.76 5.76 0 01.41 1c.12.36.29.71.38 1.1a21.771 21.771 0 01.79 5.5 49.62 49.62 0 01-2.34 15 110.611 110.611 0 01-7.59 18.67 171.269 171.269 0 01-12.62 20.9 196 196 0 01-17.64 21.81c-3.38 3.61-7 7.17-10.86 10.61a121.749 121.749 0 01-12.45 9.78 64.879 64.879 0 01-14.49 7.67 27.591 27.591 0 01-8.22 1.73 16.06 16.06 0 01-4.25-.42 11.79 11.79 0 01-3.87-1.88 11.61 11.61 0 01-2.77-3.3 15.85 15.85 0 01-1.47-4 27.54 27.54 0 01-.37-8.39 65.56 65.56 0 013.81-15.94 122.335 122.335 0 016.38-14.49c2.37-4.61 4.91-9 7.56-13.16a198 198 0 0116.72-22.52 172.369 172.369 0 0117.12-17.44 110 110 0 0116.19-12 49.15 49.15 0 0114-6 21.36 21.36 0 015.51-.61 10.5 10.5 0 011.16.09 6.94 6.94 0 011.06.15l1 .2c.3.09.57.19.83.28a8.17 8.17 0 011.34.57c.18.1.36.17.51.26l.39.27zM5.042 101.01a2.7 2.7 0 11-1.92-.8 2.71 2.71 0 011.92.8zM158.042 16.98a2.71 2.71 0 11-2.71-2.71 2.71 2.71 0 012.71 2.71zM22.122 109.92a.69.69 0 11-.69-.69.69.69 0 01.69.69zM36.832 33.94a.69.69 0 11-.69-.69.69.69 0 01.69.69zM144.372 70.87a.69.69 0 11-.69-.69.69.69 0 01.69.69zM153.942 38.74a.69.69 0 11-.69-.68.68.68 0 01.69.68z"/></g></g></svg>