<svg viewBox="0 0 500 500" xmlns="http://www.w3.org/2000/svg"><g fill="#ebebeb"><path d="M0 382.4h500v.25H0zM359 391.92h90.9v.25H359zM306.33 389.21h24.89v.25h-24.89zM349.52 401.21h38.59v.25h-38.59zM52.46 399.53H75.1v.25H52.46zM84 399.53h26.89v.25H84zM178.31 395.31h46.84v.25h-46.84zM237 337.8H43.91a5.71 5.71 0 01-5.7-5.71V60.66a5.71 5.71 0 015.7-5.66H237a5.71 5.71 0 015.71 5.71v271.38a5.71 5.71 0 01-5.71 5.71zM43.91 55.2a5.46 5.46 0 00-5.45 5.46v271.43a5.46 5.46 0 005.45 5.46H237a5.47 5.47 0 005.46-5.46V60.66A5.47 5.47 0 00237 55.2zM453.31 337.8h-193.1a5.72 5.72 0 01-5.71-5.71V60.66a5.72 5.72 0 015.71-5.66h193.1a5.71 5.71 0 015.69 5.66v271.43a5.71 5.71 0 01-5.69 5.71zM260.21 55.2a5.47 5.47 0 00-5.46 5.46v271.43a5.47 5.47 0 005.46 5.46h193.1a5.47 5.47 0 005.46-5.46V60.66a5.47 5.47 0 00-5.46-5.46z"/></g><path d="M421.42 196.37H316.49V79.79h104.93z" fill="#e6e6e6"/><path d="M416.58 196.37H294.04V79.79h122.54z" fill="#f5f5f5"/><path d="M404.54 87.29v101.6h-98.46V87.29z" fill="#fff"/><path d="M355.95 85.99v104.2h-1.28V85.99z" fill="#f5f5f5"/><path d="M215.16 356.79H81.12V86.39h134.04z" fill="#e6e6e6"/><path d="M212.68 356.79H71.8V86.39h140.88z" fill="#f0f0f0"/><path d="M200.87 98.18v246.8H83.6V98.18z" fill="#fff"/><path d="M127.84 344.98l23.13-246.79h-26.7l-23.14 246.79zM148.53 344.98l23.14-246.79h-13.36l-23.13 246.79z" fill="#fafafa"/><path d="M290.9 382.4h-25.05V276.51h25.05z" fill="#e6e6e6"/><path d="M280.43 382.4h-14.57v-14.62h29.85z" fill="#fafafa"/><path d="M439.71 382.4h-25.05V276.51h25.05z" fill="#e6e6e6"/><path d="M427.38 377.36H265.85V276.5h161.53z" fill="#fafafa"/><path d="M412.81 382.4h14.58v-14.62h-29.86z" fill="#fafafa"/><path d="M416.08 339.33H277.16v-25.24h138.92zM416.08 369.96H277.16v-25.24h138.92z" fill="#f0f0f0"/><path d="M389.67 316.79h-86.11a4.58 4.58 0 01-4.58-4.58v-.31h95.26v.31a4.58 4.58 0 01-4.58 4.58z" fill="#fafafa"/><path d="M416.08 308.69H277.16v-25.24h138.92z" fill="#f0f0f0"/><path d="M389.67 286.15h-86.11a4.58 4.58 0 01-4.58-4.58v-.31h95.26v.31a4.58 4.58 0 01-4.57 4.58zM389.67 347.43h-86.11a4.58 4.58 0 01-4.58-4.58v-.31h95.26v.31a4.58 4.58 0 01-4.57 4.58z" fill="#fafafa"/><path d="M297.27 274.74h-4.94v-45.82h4.94z" fill="#f5f5f5"/><path d="M294.36 274.71h-1.39v-45.82h1.39z" fill="#fafafa"/><path d="M283.91 276.51h21.77a2.74 2.74 0 00-2.74-2.75h-16.28a2.75 2.75 0 00-2.75 2.75zM285.34 261.44a1.43 1.43 0 001.42-1.42v-25.28a1.43 1.43 0 00-1.42-1.42 1.43 1.43 0 00-1.43 1.42V260a1.43 1.43 0 001.43 1.44z" fill="#f0f0f0"/><path d="M272.7 241.05h44.2l-1.57-4.36a14.71 14.71 0 00-13.82-9.69h-13.42a14.71 14.71 0 00-13.82 9.69z" fill="#e0e0e0"/><path d="M410.33 274.74h-4.94v-45.82h4.94z" fill="#f5f5f5"/><path d="M407.43 274.71h-1.39v-45.82h1.39z" fill="#fafafa"/><path d="M397 276.51h21.77a2.75 2.75 0 00-2.74-2.75h-16.31a2.75 2.75 0 00-2.74 2.75zM398.4 261.44a1.43 1.43 0 001.42-1.42v-25.28a1.43 1.43 0 00-1.42-1.42 1.43 1.43 0 00-1.42 1.42V260a1.43 1.43 0 001.42 1.44z" fill="#f0f0f0"/><path d="M385.76 241.05H430l-1.58-4.36a14.7 14.7 0 00-13.85-9.69h-13.41a14.71 14.71 0 00-13.82 9.69z" fill="#e0e0e0"/><ellipse cx="250" cy="416.24" fill="#f5f5f5" rx="193.89" ry="11.32"/><path d="M166.53 113.94l-.63-.78a166.31 166.31 0 0113.7-10l.55.84a164.35 164.35 0 00-13.62 9.94zM159.15 120.25l-.68-.74c1.34-1.21 2.72-2.42 4.09-3.59l.65.77a172.19 172.19 0 00-4.06 3.56z" fill="#263238"/><ellipse cx="216.41" cy="181.2" fill="#263238" rx="115.24" ry="81.19" transform="rotate(-41.22 216.436 181.221)"/><ellipse cx="216.41" cy="181.2" fill="#fff" rx="99.97" ry="70.43" transform="rotate(-41.22 216.436 181.221)"/><path d="M237.15 103.89c-43.29 3.51-87.67 41-99.13 83.66l156.77-12.69c11.46-42.7-14.35-74.47-57.64-70.97z" fill="#407bff"/><path d="M138 187.55l78.39-6.35-40.74-50.2c-17.94 15.16-31.9 35.2-37.65 56.55z" fill="#fff" opacity=".7"/><path d="M237.15 103.89c-21.64 1.76-43.56 12-61.5 27.13l40.76 50.18z" fill="#fff" opacity=".4"/><path d="M237.15 103.89l-20.74 77.31 70.09-59.15c-10.43-12.84-27.7-19.91-49.35-18.16z" fill="#fff" opacity=".1"/><ellipse cx="216.41" cy="181.2" fill="#fff" rx="40.79" ry="28.73" transform="rotate(-41.22 216.436 181.221)"/><ellipse cx="216.41" cy="181.2" fill="#263238" rx="23.8" ry="16.77" transform="rotate(-41.22 216.436 181.221)"/><path d="M275.08 139.85a236.29 236.29 0 00-52.63 27.9l7.37 13.2a257.66 257.66 0 0045.26-41.1z" fill="#263238"/><path d="M147 217.06a1.51 1.51 0 01-1.55-1.84 2.73 2.73 0 012.36-2.16l86.19-6.83a1.51 1.51 0 011.7 1.83 2.7 2.7 0 01-2.35 2.15l-86.12 6.84zM221.55 225.26a1.5 1.5 0 01-1.55-1.84 2.7 2.7 0 012.36-2.15l28-2.23a1.51 1.51 0 011.71 1.83 2.72 2.72 0 01-2.36 2.16l-28 2.22zM79.15 261.08a1.51 1.51 0 01-1.55-1.84 2.72 2.72 0 012.4-2.15l28-2.23a1.52 1.52 0 011.71 1.83 2.72 2.72 0 01-2.35 2.16l-28 2.22zM104.09 244.71a1.5 1.5 0 01-1.54-1.84 2.71 2.71 0 012.35-2.15l84-6.67a1.52 1.52 0 011.71 1.83 2.73 2.73 0 01-2.36 2.16l-84 6.66z" fill="#407bff"/><path d="M284.39 334.51l3.56 7.19 17.61-6.33-3.56-7.19zM198.77 393.64l5.35 5.99 13.6-15.45-6.59-4.58z" fill="#ff8b7b"/><path d="M205.34 399l-3.64-9.09a.67.67 0 00-.75-.41l-7.11 1.5a1.22 1.22 0 00-.86 1.67c1.22 2.9 2.24 5 3.71 8.64.91 2.27 3.41 9.2 4.67 12.33s4.45 2.17 4.22.76c-1.07-6.29-1.1-11.38-.21-13.95a2 2 0 00-.03-1.45zM288.76 341.24l-3.89-7.86a.71.71 0 00-.79-.37l-7.1 1.75a1.16 1.16 0 00-.77 1.67c1.45 2.81 3.64 6.82 5.41 10.38 2.06 4.17 2.34 4.3 4.76 9.18 1.46 2.95 4.85 2.3 4.51.93-1.56-6.24-2.43-7.32-1.83-13.67a3.73 3.73 0 00-.3-2.01z" fill="#263238"/><path d="M358 205.24c-.37 2.6-.77 5.4-1.08 8.11s-.62 5.47-.85 8.2a116.24 116.24 0 00-.48 16.06c0 .65.06 1.3.14 1.91l.18 1.78a2.51 2.51 0 001.71 2.39 10.94 10.94 0 002.85.86 34 34 0 007.44.28c1.31-.09 2.65-.19 4-.35s2.72-.37 4-.56l1.94 5.71a44 44 0 01-4.24 1.73 43 43 0 01-4.35 1.36 39.66 39.66 0 01-4.59.93 28.36 28.36 0 01-4.94.32 20.11 20.11 0 01-5.48-.83 13.71 13.71 0 01-5.74-3.45 13.05 13.05 0 01-3.32-6.27c-.07-.31-.1-.48-.13-.68l-.1-.58-.21-1.18c-.15-.78-.25-1.55-.34-2.32a103.34 103.34 0 01-.38-18c.19-2.94.4-5.86.76-8.76s.71-5.75 1.27-8.76z" fill="#ff8b7b"/><path d="M345.19 198c-5.26 5.59-3.14 19.7-3.14 19.7l14.78 2.3s3.43-8 2.14-16.25c-1.58-10.02-8.03-11.9-13.78-5.75z" fill="#407bff"/><path d="M350 204.19c-2.44-3.14-5-4.26-6.36-4-3.27 6.41-1.61 17.47-1.61 17.47l10.47 1.7c1.2-3.25 1.35-10.26-2.5-15.17z" opacity=".2"/><path d="M373.94 244.79l8.57-5.62 1.9 8.7s-5.33 5.4-9.77 1.59z" fill="#ff8b7b"/><path d="M387.78 237.29l.99 7.52-4.36 3.06-1.91-8.7z" fill="#ff8b7b"/><path d="M305.55 335.38l-9.07 3.26-3.56-7.2 9.07-3.26zM211.13 379.6l6.59 4.58-6.38 7.24-6.59-4.59z" opacity=".2"/><path d="M314.74 178.71c-6.08 31.11-22.27 59.18-24.53 65.38 5.8 2.43 27.69 11.55 39.62 16.52 22.25-33.11 25.66-57.07 26.17-62.87a2.38 2.38 0 00-1-2.15c-.95-.69-2.47-1.77-4.32-3-1-.64-2.07-1.31-3.22-2-.63-.37-1.28-.73-1.94-1.08a159 159 0 00-16.85-7c-1.08-.39-2.19-.77-3.28-1.11s-2-.61-2.95-.87c-4.26-1.14-7.7-1.82-7.7-1.82z" fill="#407bff"/><path d="M338.56 223.07l2.19.56a12.53 12.53 0 01-5.13 3 12.4 12.4 0 01-6.76.1 10 10 0 01-5.16-2.82 6.52 6.52 0 01-1.62-4.9 14.78 14.78 0 011.74-6 20.92 20.92 0 014.62-6 15 15 0 016-3.44 11.89 11.89 0 016.18-.1 7.43 7.43 0 014 2.34A6.06 6.06 0 01346 210a11.5 11.5 0 01-1.39 5 14.46 14.46 0 01-4.47 5.16c-2.43 1.75-4.7 2.35-6.8 1.82a1.66 1.66 0 01-1.11-.67 1.54 1.54 0 010-1.17 4.79 4.79 0 01-3.5.67 2.71 2.71 0 01-2.12-2.1 5.67 5.67 0 01.77-3.95 14.37 14.37 0 014-4.83q3.1-2.43 5.67-1.79a2.23 2.23 0 011.86 2.32l.94-1.27 2.71.69-6 8.25a10 10 0 00-.69 1 .88.88 0 00-.12.49.28.28 0 00.21.22 2.9 2.9 0 001.63-.38 9.86 9.86 0 003-2 11.36 11.36 0 002.3-3 7 7 0 00.73-5.43q-.81-2.46-4.08-3.28a9.62 9.62 0 00-5.4.14 12.36 12.36 0 00-4.85 3 18.56 18.56 0 00-3.58 4.79 10.6 10.6 0 00-1.29 4.91 5.21 5.21 0 001.5 3.82 8.65 8.65 0 004 2.1 11.37 11.37 0 004.64.26 9.84 9.84 0 004-1.7zm-8.56-7.75a4.13 4.13 0 00-.63 2.38 1.21 1.21 0 00.94 1.06 2.32 2.32 0 001.27-.06 4.55 4.55 0 001.16-.57 9.89 9.89 0 002.05-1.91 13.44 13.44 0 001.75-2.53 3.65 3.65 0 00.53-2.22 1.25 1.25 0 00-1-1.08 2.89 2.89 0 00-2.05.39 7.93 7.93 0 00-2.3 2 14.65 14.65 0 00-1.72 2.54z" fill="#fff"/><path d="M338.29 164.45c-1.19 5.86-4.27 16.24-9.57 18.27 1.72 4.16 4.16 9.15 10.51 12.06s7.06-2 6.33-5c-5.44-4-3.41-8.38-.61-12.15z" fill="#ff8b7b"/><path d="M341 169.81l3.94 7.77a18.26 18.26 0 00-1.76 2.78c-2.17-1.3-4.29-5.16-3.53-7.68a8.83 8.83 0 011.35-2.87z" opacity=".2"/><path d="M354.28 164.67c6.27.46 11.82-15.18 2.67-17-6.17-1.23-6.11 2.46-6.76 6.5s.12 10.21 4.09 10.5z" fill="#263238"/><path d="M339 156.75c-1.61 7.8-2.95 12.28-.15 17.28 4.22 7.51 14.64 6.57 18.56-.59 3.52-6.45 5.57-18.12-1.11-23.22a10.87 10.87 0 00-17.3 6.53z" fill="#ff8b7b"/><path d="M337.67 162.33c6.27.46 10.47-13.84 1.32-15.67-6.17-1.23-6.69 2.38-6.59 6.24.1 4.1 1.29 9.1 5.27 9.43z" fill="#263238"/><path d="M342.73 151.39c4.23 2.05 24.62 6.44 23.45-2.33s-12.06-12.84-12.06-12.84 6.34 6.95 1.11 5.28-6.73-2.89-13-4c0 0 6.16 5.11-1 3.67a17 17 0 00-12.16 1.94 12.09 12.09 0 015.28 11.27c-.49 7.71 8.38-2.99 8.38-2.99z" fill="#263238"/><path d="M334 162.7a7 7 0 002.72 4.55c1.92 1.41 3.67-.21 3.8-2.55.11-2.11-.75-5.39-3-5.86s-3.82 1.6-3.52 3.86z" fill="#ff8b7b"/><path d="M303.92 249.81l-8.34 26.86 42.93 27c-7.41 12.36-45.06 24.66-45.06 24.66l6 12.18s52.43-4 63.06-27.18c10.23-22.26-32.7-52.72-32.7-52.72z" fill="#263238"/><path d="M309.49 285.42l-7.49-4.69 9.22-13.4s.26 10.74-1.73 18.09z" opacity=".2"/><path d="M309.49 285.42l-7.49-4.69 9.22-13.4s.26 10.74-1.73 18.09z" opacity=".2"/><path d="M320.53 256.74s-34.62 57.58-48.91 76.26c-15.65 20.46-56.17 59-56.17 59l-12.07-8.4s35-38.58 48.19-59.93c15.05-24.32 38.64-79.6 38.64-79.6z" fill="#263238"/><path d="M216.71 393.28l-14.21-9.88 2.95-4.25 16.08 10.77zM299.95 342.18l-7.19-14.51 4.69-2.32 8.28 16.1z" fill="#407bff"/><path d="M350.07 162.06c-.17.62 0 1.22.43 1.33s.88-.3 1.05-.93 0-1.22-.44-1.33-.87.31-1.04.93zM357.13 164c-.17.63 0 1.22.43 1.33s.88-.3 1.05-.93 0-1.22-.43-1.33-.88.29-1.05.93z" fill="#263238"/><path d="M354.8 163.68a23.26 23.26 0 001.53 6.16 3.74 3.74 0 01-3.14-.26z" fill="#ff5652"/><path d="M350.11 170.54a5.38 5.38 0 01-3-3 .2.2 0 01.13-.24.2.2 0 01.24.12 5.1 5.1 0 003.5 3 .18.18 0 01.14.23.19.19 0 01-.24.13 5.63 5.63 0 01-.77-.24zM348.51 159.19a.44.44 0 01-.15-.12.37.37 0 01.07-.53 3.79 3.79 0 013.4-.71.39.39 0 01.23.49.38.38 0 01-.48.23 3 3 0 00-2.69.59.4.4 0 01-.38.05zM360.83 162.38a.37.37 0 01-.22-.28 3 3 0 00-1.62-2.22.38.38 0 11.29-.7 3.76 3.76 0 012.07 2.78.37.37 0 01-.3.44.33.33 0 01-.22-.02z" fill="#263238"/><path d="M205.05 402.07a9.22 9.22 0 01-.52-2.07.2.2 0 01.09-.2.17.17 0 01.2 0c.28.19 2.69 1.94 2.61 2.95a.66.66 0 01-.37.53 1.11 1.11 0 01-1.07 0 2.33 2.33 0 01-.94-1.21zm-.05-1.67c.25 1.38.69 2.33 1.19 2.59a.72.72 0 00.72-.05c.14-.06.16-.14.16-.2.03-.52-1.15-1.61-2.07-2.34z" fill="#407bff"/><path d="M204.54 400a.2.2 0 01.12-.26c.09 0 2.27-.8 3.32-.25a1 1 0 01.52.65.65.65 0 01-.23.77c-.75.52-3-.25-3.68-.83a.22.22 0 01-.05-.08zm3.57.17a.66.66 0 00-.31-.33 4.37 4.37 0 00-2.65.15c.88.51 2.47.91 2.92.6 0 0 .13-.09.07-.33zM288.12 342.44a.18.18 0 01.08-.18.2.2 0 01.22 0c.33.25 3.22 2.41 3.17 3.53a.6.6 0 01-.31.5 1 1 0 01-1 .09c-1.09-.44-1.83-2.64-2.17-3.91zm3.09 3.25c-.08-.63-1.46-1.9-2.57-2.78.53 1.72 1.18 2.87 1.79 3.12a.69.69 0 00.65-.06.21.21 0 00.13-.2z" fill="#407bff"/><path d="M288.12 342.44v-.05a.17.17 0 01.12-.15c.08 0 2.12-.8 3.32-.25a1.36 1.36 0 01.76.8c.18.49 0 .74-.16.87-.75.53-3.16-.42-4-1.1a.17.17 0 01-.04-.12zm3.89.67a.59.59 0 00-.05-.19 1 1 0 00-.56-.59 4.39 4.39 0 00-2.68.15c1 .62 2.77 1.19 3.22.87a.22.22 0 00.06-.24z" fill="#407bff"/><path d="M315.05 192.32l-3.16-2.11c-1.09-.71-2.2-1.4-3.31-2.09-2.23-1.37-4.49-2.67-6.77-3.92s-4.59-2.39-6.92-3.41c-1.16-.53-2.33-1-3.5-1.45l-1.75-.62-.44-.15-.22-.08s-.07 0-.16-.07a8.74 8.74 0 00-2.51.15 27.67 27.67 0 00-3.4.85 75 75 0 00-7.23 2.72c-4.85 2.09-9.79 4.47-14.59 6.9l-3.39-5a107.76 107.76 0 0113.83-10 69.7 69.7 0 017.83-4.11 38.08 38.08 0 014.49-1.62 18.06 18.06 0 015.68-.79 13.53 13.53 0 011.88.23l.47.11.28.07.55.14 2.2.57c1.44.43 2.89.86 4.27 1.39a77.09 77.09 0 018.13 3.44c2.63 1.26 5.18 2.66 7.67 4.14 1.23.76 2.46 1.53 3.67 2.33s2.37 1.6 3.67 2.57z" fill="#ff8b7b"/><path d="M327 183.83c-1.77-4.38-18.5-10.37-18.5-10.37l-5.41 14.12s5.85 3.87 10.7 6.77c9.21 5.55 16.67-1.9 13.21-10.52z" fill="#407bff"/><path d="M262.7 186.93l-3.39 7.35-5.17-6.7s3.9-6.56 6.68-4zM252.16 196.59l-2.62-5.88 4.6-3.13 5.17 6.7z" fill="#ff8b7b"/></svg>