<svg xmlns="http://www.w3.org/2000/svg" viewBox="0 0 500 500"><g id="freepik--Spreadsheets--inject-226"><rect x="74.25" y="114.31" width="387.11" height="209.9" style="fill:#f5f5f5"></rect><rect x="74.25" y="114.31" width="387.11" height="17.68" style="fill:#263238"></rect><circle cx="83.41" cy="123.39" r="2.19" style="fill:#fafafa"></circle><circle cx="91.38" cy="123.39" r="2.19" style="fill:#fafafa"></circle><circle cx="99.35" cy="123.39" r="2.19" style="fill:#fafafa"></circle><rect x="73.67" y="162.37" width="14.08" height="161.83" style="fill:#455a64"></rect><rect x="260.39" y="-30.58" width="14.08" height="387.52" transform="translate(104.25 430.61) rotate(-90)" style="fill:#455a64"></rect><path d="M87.75,315.19c-.14,0-.26-35.6-.26-79.52s.12-79.53.26-79.53.26,35.6.26,79.53S87.9,315.19,87.75,315.19Z" style="fill:#e0e0e0"></path><path d="M143.11,324.2c-.14,0-.26-37.62-.26-84s.12-84,.26-84,.26,37.62.26,84S143.25,324.2,143.11,324.2Z" style="fill:#e0e0e0"></path><path d="M201.83,324.2c-.14,0-.26-37.5-.26-83.75s.12-83.75.26-83.75.26,37.49.26,83.75S202,324.2,201.83,324.2Z" style="fill:#e0e0e0"></path><path d="M259.17,324.2c-.15,0-.26-37.5-.26-83.75s.11-83.75.26-83.75.26,37.49.26,83.75S259.31,324.2,259.17,324.2Z" style="fill:#e0e0e0"></path><path d="M317.85,324.2c-.14,0-.26-37.62-.26-84s.12-84,.26-84,.26,37.62.26,84S318,324.2,317.85,324.2Z" style="fill:#e0e0e0"></path><path d="M376.54,324.2c-.15,0-.26-37.62-.26-84s.11-84,.26-84,.26,37.62.26,84S376.68,324.2,376.54,324.2Z" style="fill:#e0e0e0"></path><path d="M435.22,324.2c-.14,0-.26-37.5-.26-83.75s.12-83.75.26-83.75.26,37.49.26,83.75S435.37,324.2,435.22,324.2Z" style="fill:#e0e0e0"></path><path d="M459.05,183.07c0,.14-86.27.26-192.67.26s-192.7-.12-192.7-.26,86.26-.27,192.7-.27S459.05,182.92,459.05,183.07Z" style="fill:#e0e0e0"></path><path d="M459.05,170.22c0,.15-86.27.26-192.67.26s-192.7-.11-192.7-.26,86.26-.26,192.7-.26S459.05,170.08,459.05,170.22Z" style="fill:#e0e0e0"></path><path d="M459.05,196.59c0,.15-86.27.26-192.67.26s-192.7-.11-192.7-.26,86.26-.26,192.7-.26S459.05,196.45,459.05,196.59Z" style="fill:#e0e0e0"></path><path d="M459.05,210.12c0,.14-86.27.26-192.67.26s-192.7-.12-192.7-.26,86.26-.26,192.7-.26S459.05,210,459.05,210.12Z" style="fill:#e0e0e0"></path><path d="M459.05,223.65c0,.14-86.27.26-192.67.26s-192.7-.12-192.7-.26,86.26-.26,192.7-.26S459.05,223.5,459.05,223.65Z" style="fill:#e0e0e0"></path><path d="M459.05,237.17c0,.15-86.27.26-192.67.26s-192.7-.11-192.7-.26,86.26-.26,192.7-.26S459.05,237,459.05,237.17Z" style="fill:#e0e0e0"></path><path d="M459.05,250.7c0,.14-86.27.26-192.67.26s-192.7-.12-192.7-.26,86.26-.26,192.7-.26S459.05,250.56,459.05,250.7Z" style="fill:#e0e0e0"></path><path d="M459.05,264.23c0,.14-86.27.26-192.67.26s-192.7-.12-192.7-.26,86.26-.26,192.7-.26S459.05,264.08,459.05,264.23Z" style="fill:#e0e0e0"></path><path d="M459.05,277.75c0,.15-86.27.27-192.67.27s-192.7-.12-192.7-.27,86.26-.26,192.7-.26S459.05,277.61,459.05,277.75Z" style="fill:#e0e0e0"></path><path d="M459.05,291.28c0,.15-86.27.26-192.67.26s-192.7-.11-192.7-.26,86.26-.26,192.7-.26S459.05,291.14,459.05,291.28Z" style="fill:#e0e0e0"></path><path d="M459.05,304.81c0,.14-86.27.26-192.67.26s-192.7-.12-192.7-.26,86.26-.26,192.7-.26S459.05,304.67,459.05,304.81Z" style="fill:#e0e0e0"></path><path d="M459.05,318.34c0,.14-86.27.26-192.67.26s-192.7-.12-192.7-.26,86.26-.26,192.7-.26S459.05,318.19,459.05,318.34Z" style="fill:#e0e0e0"></path><rect x="87.75" y="170.22" width="373.43" height="26.37" style="fill:#407BFF"></rect><path d="M381.74,181.57c0,.14-43.94.26-98.14.26s-98.14-.12-98.14-.26,43.93-.26,98.14-.26S381.74,181.42,381.74,181.57Z" style="fill:#fafafa"></path><path d="M400.33,189.08c0,.14-54.95.26-122.72.26s-122.74-.12-122.74-.26,54.94-.26,122.74-.26S400.33,188.93,400.33,189.08Z" style="fill:#fafafa"></path><rect x="143.11" y="210.12" width="116.06" height="13.53" style="fill:#407BFF"></rect><rect x="143.11" y="222.15" width="116.06" height="57.09" style="fill:#ebebeb"></rect><path d="M192.21,229.81c0,.15-9.58.26-21.39.26s-21.39-.11-21.39-.26,9.58-.26,21.39-.26S192.21,229.67,192.21,229.81Z" style="fill:#263238"></path><path d="M175.13,244.66c0,.15-5.76.26-12.85.26s-12.85-.11-12.85-.26,5.75-.26,12.85-.26S175.13,244.52,175.13,244.66Z" style="fill:#263238"></path><path d="M196.34,255.48c0,.14-10.5.26-23.45.26s-23.46-.12-23.46-.26,10.5-.26,23.46-.26S196.34,255.33,196.34,255.48Z" style="fill:#263238"></path><path d="M175.13,233.85c0,.14-5.76.26-12.85.26s-12.85-.12-12.85-.26,5.75-.26,12.85-.26S175.13,233.7,175.13,233.85Z" style="fill:#263238"></path><path d="M254.86,229.81a43.94,43.94,0,0,1-6.82.26,43.94,43.94,0,0,1-6.82-.26,45.48,45.48,0,0,1,6.82-.26A45.48,45.48,0,0,1,254.86,229.81Z" style="fill:#263238"></path><path d="M254.86,242a45.48,45.48,0,0,1-6.82.26,45.48,45.48,0,0,1-6.82-.26,43.94,43.94,0,0,1,6.82-.26A43.94,43.94,0,0,1,254.86,242Z" style="fill:#263238"></path><path d="M254.86,255.48a45.48,45.48,0,0,1-6.82.26,45.48,45.48,0,0,1-6.82-.26,43.94,43.94,0,0,1,6.82-.26A43.94,43.94,0,0,1,254.86,255.48Z" style="fill:#263238"></path><path d="M254.11,272c0,.14-4.83.26-10.79.26s-10.78-.12-10.78-.26,4.82-.26,10.78-.26S254.11,271.86,254.11,272Z" style="fill:#263238"></path><path d="M201.83,278.25c-.14,0-.26-12.34-.26-27.55s.12-27.55.26-27.55.26,12.33.26,27.55S202,278.25,201.83,278.25Z" style="fill:#e0e0e0"></path><path d="M258.2,263c0,.14-12.83.26-28.66.26s-28.65-.12-28.65-.26,12.82-.26,28.65-.26S258.2,262.88,258.2,263Z" style="fill:#e0e0e0"></path><rect x="143.11" y="304.31" width="116.06" height="14.03" style="fill:#f5f5f5"></rect><rect x="142.92" y="291.28" width="116.25" height="13.53" style="fill:#407BFF"></rect><path d="M197.32,312c0,.15-10.95.26-24.45.26s-24.45-.11-24.45-.26,10.94-.26,24.45-.26S197.32,311.87,197.32,312Z" style="fill:#263238"></path><path d="M254.11,311.32c0,.14-4.83.26-10.79.26s-10.78-.12-10.78-.26,4.82-.26,10.78-.26S254.11,311.18,254.11,311.32Z" style="fill:#263238"></path><rect x="320.68" y="256.98" width="10.04" height="34.06" style="fill:#407BFF"></rect><rect x="381.68" y="263.16" width="10.04" height="27.88" style="fill:#407BFF"></rect><rect x="422.35" y="270.95" width="10.04" height="20.09" style="fill:#263238"></rect><rect x="341.02" y="236.09" width="10.04" height="54.95" style="fill:#455a64"></rect><rect x="361.35" y="236.09" width="10.04" height="54.95" style="fill:#263238"></rect><rect x="402.01" y="223.4" width="10.04" height="67.64" style="fill:#455a64"></rect><rect x="84.67" y="138.17" width="8.91" height="8.91" style="fill:#407BFF"></rect><path d="M98.76,151h-9.9v-9.91h9.9Zm-8.9-1h7.9v-7.91h-7.9Z" style="fill:#407BFF"></path><rect x="111.81" y="140.53" width="8.32" height="8.32" style="fill:#e0e0e0"></rect><rect x="125.33" y="140.53" width="8.32" height="8.32" style="fill:#e0e0e0"></rect><rect x="138.85" y="140.53" width="8.32" height="8.32" style="fill:#e0e0e0"></rect><rect x="152.38" y="140.53" width="8.32" height="8.32" style="fill:#e0e0e0"></rect><rect x="165.9" y="140.53" width="8.32" height="8.32" style="fill:#e0e0e0"></rect><rect x="186.6" y="140.45" width="87.94" height="8.49" style="fill:#e0e0e0"></rect><rect x="286.61" y="140.45" width="87.94" height="8.49" style="fill:#e0e0e0"></rect><rect x="385.37" y="140.45" width="75.82" height="8.49" style="fill:#e0e0e0"></rect><path d="M461.36,324.2c0-1.58-.08-80.78-.2-209.89l.2.19-387.08.07h0l.26-.26c0,74.16,0,145.16,0,209.89l-.24-.24,387.11.24-387.11.25H74v-.25c0-64.73,0-135.73,0-209.89v-.26h.29l387.08.06h.2v.2C461.43,243.42,461.36,322.63,461.36,324.2Z" style="fill:#263238"></path><rect x="48.46" y="97.35" width="387.11" height="209.9" style="fill:#f5f5f5"></rect><rect x="48.46" y="97.35" width="387.11" height="17.68" style="fill:#263238"></rect><circle cx="57.63" cy="106.43" r="2.19" style="fill:#fafafa"></circle><circle cx="65.6" cy="106.43" r="2.19" style="fill:#fafafa"></circle><circle cx="73.57" cy="106.43" r="2.19" style="fill:#fafafa"></circle><rect x="47.89" y="145.41" width="14.08" height="161.83" style="fill:#455a64"></rect><rect x="234.61" y="-47.54" width="14.08" height="387.52" transform="translate(95.42 387.87) rotate(-90)" style="fill:#455a64"></rect><path d="M62,298.23c-.14,0-.26-35.61-.26-79.52s.12-79.53.26-79.53.26,35.6.26,79.53S62.11,298.23,62,298.23Z" style="fill:#e0e0e0"></path><path d="M117.33,307.24c-.14,0-.26-37.62-.26-84s.12-84,.26-84,.26,37.62.26,84S117.47,307.24,117.33,307.24Z" style="fill:#e0e0e0"></path><path d="M176.05,307.24c-.14,0-.26-37.5-.26-83.75s.12-83.75.26-83.75.26,37.49.26,83.75S176.2,307.24,176.05,307.24Z" style="fill:#e0e0e0"></path><path d="M233.39,307.24c-.15,0-.26-37.5-.26-83.75s.11-83.75.26-83.75.26,37.49.26,83.75S233.53,307.24,233.39,307.24Z" style="fill:#e0e0e0"></path><path d="M292.07,307.24c-.14,0-.26-37.62-.26-84s.12-84,.26-84,.26,37.62.26,84S292.21,307.24,292.07,307.24Z" style="fill:#e0e0e0"></path><path d="M350.76,307.24c-.15,0-.27-37.62-.27-84s.12-84,.27-84,.26,37.62.26,84S350.9,307.24,350.76,307.24Z" style="fill:#e0e0e0"></path><path d="M409.44,307.24c-.14,0-.26-37.5-.26-83.75s.12-83.75.26-83.75.26,37.49.26,83.75S409.58,307.24,409.44,307.24Z" style="fill:#e0e0e0"></path><path d="M433.27,166.1c0,.15-86.27.27-192.67.27s-192.7-.12-192.7-.27,86.26-.26,192.7-.26S433.27,166,433.27,166.1Z" style="fill:#e0e0e0"></path><path d="M433.27,153.26c0,.15-86.27.26-192.67.26s-192.7-.11-192.7-.26,86.26-.26,192.7-.26S433.27,153.12,433.27,153.26Z" style="fill:#e0e0e0"></path><path d="M433.27,179.63c0,.15-86.27.26-192.67.26s-192.7-.11-192.7-.26,86.26-.26,192.7-.26S433.27,179.49,433.27,179.63Z" style="fill:#e0e0e0"></path><path d="M433.27,193.16c0,.14-86.27.26-192.67.26s-192.7-.12-192.7-.26,86.26-.26,192.7-.26S433.27,193,433.27,193.16Z" style="fill:#e0e0e0"></path><path d="M433.27,206.69c0,.14-86.27.26-192.67.26s-192.7-.12-192.7-.26,86.26-.26,192.7-.26S433.27,206.54,433.27,206.69Z" style="fill:#e0e0e0"></path><path d="M433.27,220.21c0,.15-86.27.26-192.67.26s-192.7-.11-192.7-.26,86.26-.26,192.7-.26S433.27,220.07,433.27,220.21Z" style="fill:#e0e0e0"></path><path d="M433.27,233.74c0,.14-86.27.26-192.67.26s-192.7-.12-192.7-.26,86.26-.26,192.7-.26S433.27,233.6,433.27,233.74Z" style="fill:#e0e0e0"></path><path d="M433.27,247.27c0,.14-86.27.26-192.67.26s-192.7-.12-192.7-.26,86.26-.26,192.7-.26S433.27,247.12,433.27,247.27Z" style="fill:#e0e0e0"></path><path d="M433.27,260.79c0,.15-86.27.27-192.67.27s-192.7-.12-192.7-.27,86.26-.26,192.7-.26S433.27,260.65,433.27,260.79Z" style="fill:#e0e0e0"></path><path d="M433.27,274.32c0,.15-86.27.26-192.67.26s-192.7-.11-192.7-.26,86.26-.26,192.7-.26S433.27,274.18,433.27,274.32Z" style="fill:#e0e0e0"></path><path d="M433.27,287.85c0,.14-86.27.26-192.67.26S47.9,288,47.9,287.85s86.26-.26,192.7-.26S433.27,287.71,433.27,287.85Z" style="fill:#e0e0e0"></path><path d="M433.27,301.38c0,.14-86.27.26-192.67.26s-192.7-.12-192.7-.26,86.26-.26,192.7-.26S433.27,301.23,433.27,301.38Z" style="fill:#e0e0e0"></path><rect x="61.97" y="153.26" width="373.43" height="26.37" style="fill:#407BFF"></rect><path d="M356,164.61c0,.14-43.95.26-98.14.26s-98.14-.12-98.14-.26,43.93-.27,98.14-.27S356,164.46,356,164.61Z" style="fill:#fafafa"></path><path d="M374.55,172.12c0,.14-54.95.26-122.73.26s-122.73-.12-122.73-.26,54.94-.26,122.73-.26S374.55,172,374.55,172.12Z" style="fill:#fafafa"></path><rect x="117.33" y="193.16" width="116.06" height="13.53" style="fill:#407BFF"></rect><rect x="117.33" y="205.19" width="116.06" height="57.09" style="fill:#ebebeb"></rect><path d="M166.43,212.85c0,.15-9.58.26-21.39.26s-21.39-.11-21.39-.26,9.58-.26,21.39-.26S166.43,212.71,166.43,212.85Z" style="fill:#263238"></path><path d="M149.34,227.7c0,.14-5.75.26-12.84.26s-12.85-.12-12.85-.26,5.75-.26,12.85-.26S149.34,227.56,149.34,227.7Z" style="fill:#263238"></path><path d="M170.56,238.52c0,.14-10.5.26-23.45.26s-23.46-.12-23.46-.26,10.5-.26,23.46-.26S170.56,238.37,170.56,238.52Z" style="fill:#263238"></path><path d="M149.34,216.89c0,.14-5.75.26-12.84.26s-12.85-.12-12.85-.26,5.75-.27,12.85-.27S149.34,216.74,149.34,216.89Z" style="fill:#263238"></path><path d="M229.08,212.85a44,44,0,0,1-6.82.26,44.12,44.12,0,0,1-6.83-.26,45.67,45.67,0,0,1,6.83-.26A45.59,45.59,0,0,1,229.08,212.85Z" style="fill:#263238"></path><path d="M229.08,225a45.59,45.59,0,0,1-6.82.26,45.67,45.67,0,0,1-6.83-.26,44.12,44.12,0,0,1,6.83-.26A44,44,0,0,1,229.08,225Z" style="fill:#263238"></path><path d="M229.08,238.52a45.59,45.59,0,0,1-6.82.26,45.67,45.67,0,0,1-6.83-.26,44.12,44.12,0,0,1,6.83-.26A44,44,0,0,1,229.08,238.52Z" style="fill:#263238"></path><path d="M228.33,255.05c0,.14-4.83.26-10.79.26s-10.79-.12-10.79-.26,4.83-.26,10.79-.26S228.33,254.9,228.33,255.05Z" style="fill:#263238"></path><path d="M176.05,261.29c-.14,0-.26-12.34-.26-27.55s.12-27.55.26-27.55.26,12.33.26,27.55S176.2,261.29,176.05,261.29Z" style="fill:#e0e0e0"></path><path d="M232.42,246.07c0,.14-12.84.26-28.66.26s-28.66-.12-28.66-.26,12.83-.26,28.66-.26S232.42,245.92,232.42,246.07Z" style="fill:#e0e0e0"></path><rect x="117.33" y="287.35" width="116.06" height="14.03" style="fill:#f5f5f5"></rect><rect x="117.14" y="274.32" width="116.25" height="13.53" style="fill:#407BFF"></rect><path d="M171.54,295.05c0,.15-10.95.26-24.45.26s-24.46-.11-24.46-.26,11-.26,24.46-.26S171.54,294.91,171.54,295.05Z" style="fill:#263238"></path><path d="M228.33,294.36c0,.14-4.83.26-10.79.26s-10.79-.12-10.79-.26,4.83-.26,10.79-.26S228.33,294.22,228.33,294.36Z" style="fill:#263238"></path><rect x="294.9" y="240.02" width="10.04" height="34.06" style="fill:#407BFF"></rect><rect x="355.9" y="246.2" width="10.04" height="27.88" style="fill:#407BFF"></rect><rect x="396.56" y="253.99" width="10.04" height="20.09" style="fill:#263238"></rect><rect x="315.23" y="219.13" width="10.04" height="54.95" style="fill:#455a64"></rect><rect x="335.57" y="219.13" width="10.04" height="54.95" style="fill:#263238"></rect><rect x="376.23" y="206.44" width="10.04" height="67.64" style="fill:#455a64"></rect><rect x="58.88" y="121.21" width="8.91" height="8.91" style="fill:#407BFF"></rect><path d="M73,134h-9.9V124.1H73Zm-8.9-1H72V125.1h-7.9Z" style="fill:#407BFF"></path><rect x="86.02" y="123.57" width="8.32" height="8.32" style="fill:#e0e0e0"></rect><rect x="99.55" y="123.57" width="8.32" height="8.32" style="fill:#e0e0e0"></rect><rect x="113.07" y="123.57" width="8.32" height="8.32" style="fill:#e0e0e0"></rect><rect x="126.6" y="123.57" width="8.32" height="8.32" style="fill:#e0e0e0"></rect><rect x="140.12" y="123.57" width="8.32" height="8.32" style="fill:#e0e0e0"></rect><rect x="160.82" y="123.49" width="87.94" height="8.49" style="fill:#e0e0e0"></rect><rect x="260.83" y="123.49" width="87.94" height="8.49" style="fill:#e0e0e0"></rect><rect x="359.58" y="123.49" width="75.82" height="8.49" style="fill:#e0e0e0"></rect><path d="M435.58,307.24c0-1.58-.08-80.78-.2-209.89l.2.19-387.09.07h0l.26-.26c0,74.16,0,145.16,0,209.89l-.25-.24,387.12.24-387.12.25h-.24v-.25c0-64.73,0-135.73,0-209.89v-.27h.29l387.09.07h.19v.2C435.65,226.46,435.58,305.66,435.58,307.24Z" style="fill:#263238"></path></g></svg>