<svg viewBox="0 0 750 500" xmlns="http://www.w3.org/2000/svg"><path d="m102.34 101h14.11v63.25h-14.11z" fill="#e0e0e0"/><path d="m102.34 101h14.11v63.25h-14.11z" fill="#e0e0e0" transform="matrix(0 -1 1 0 -23.23 242.02)"/><path d="m161.92 132.78a5.21 5.21 0 0 1 -.1-.85c0-.62-.1-1.45-.18-2.5 0-.56-.08-1.17-.12-1.84s-.22-1.41-.34-2.2a39.3 39.3 0 0 0 -1.12-5.43 50.29 50.29 0 0 0 -5.86-13.96 52.26 52.26 0 0 0 -62.78-22.25 47.6 47.6 0 0 0 -13.21 7.11 58.23 58.23 0 0 0 -5.91 5 58.34 58.34 0 0 0 -5.11 6 50.34 50.34 0 0 0 -7.46 14.37 51.73 51.73 0 0 0 0 32.93 50.57 50.57 0 0 0 7.45 14.37 59.72 59.72 0 0 0 5.11 6.06 60.82 60.82 0 0 0 5.92 5 56.06 56.06 0 0 0 6.4 4.12 55.21 55.21 0 0 0 6.81 3 52.4 52.4 0 0 0 62.78-22.27 50.29 50.29 0 0 0 5.86-13.94 39.3 39.3 0 0 0 1.12-5.43c.12-.79.26-1.52.34-2.2s.08-1.28.12-1.84c.08-1 .14-1.88.18-2.5a5.21 5.21 0 0 1 .1-.85 5 5 0 0 1 0 .85c0 .62 0 1.46-.07 2.52 0 .55 0 1.17-.06 1.85s-.19 1.41-.3 2.22a36 36 0 0 1 -1 5.48 50 50 0 0 1 -5.74 14.16 52.92 52.92 0 0 1 -63.67 22.92 55.89 55.89 0 0 1 -6.95-3 57.37 57.37 0 0 1 -6.54-4.18 59.7 59.7 0 0 1 -6-5.13 59.77 59.77 0 0 1 -5.23-6.17 52 52 0 0 1 -7.63-14.67 52.87 52.87 0 0 1 0-33.63 51.45 51.45 0 0 1 7.63-14.67 60.63 60.63 0 0 1 5.22-6.16 62 62 0 0 1 6-5.13 49.12 49.12 0 0 1 13.49-7.22 53.32 53.32 0 0 1 28-2.24 53.06 53.06 0 0 1 35.72 25.16 49.84 49.84 0 0 1 5.74 14.15 36.34 36.34 0 0 1 1 5.49c.11.8.24 1.54.3 2.22s0 1.29.06 1.85c0 1.06.06 1.9.07 2.52a5 5 0 0 1 -.04.91z" fill="#e0e0e0"/><path d="m43.67 249.78s-11.86 4.09.23 29.43 20.58 38 20.58 38 2.11 5.87-2.8 6.64-15.62-1.24-18 4.68c-2.43 6.14 1.92 12.11 10.91 17.49s28.27 17.88 30 19 3.37 3.86.11 4.92-27.53 2.93-25.95 14.4 29.1 22.32 32.08 23.56 3.67 2.55 3.38 4.2-8.5 1.51-15.38 2.32-14.72 3-13.25 9.51 17.56 20.61 57.42 25.61l18.62 1.1 10.57-15.47c20.6-34.5 19.4-55.85 15.15-61s-10.77-.33-15.65 4.59-9.82 11.48-11.3 10.7-2.08-2.13-1.22-5.25 9.23-31.49 1.17-39.79-24.48 9.68-27.32 11.59-4-1.08-3.81-3.12 2.18-25 3.47-35.35-.68-17.54-7.01-19.4c-6.11-1.8-11.12 7.87-14.75 11.27s-7-1.87-7-1.87-4.66-14.47-17.2-39.54-23.29-18.07-23.29-18.07" fill="#ebebeb"/><path d="m142.52 455c-9.14-18.48-24.83-51.61-38.44-80s-26-54-35-72.56c-4.52-9.24-8.18-16.73-10.73-21.93-1.25-2.57-2.23-4.58-2.91-6l-.76-1.51c-.16-.35-.23-.54-.23-.54l.29.51.79 1.53c.7 1.38 1.72 3.37 3 5.92 2.61 5.14 6.34 12.61 10.9 21.85 9.15 18.53 21.57 44.17 35.17 72.53s29.24 61.52 38.29 80.05" fill="#e0e0e0"/><path d="m58.59 331.9a6 6 0 0 1 1.29.4c.82.28 2 .73 3.43 1.3 2.88 1.15 6.82 2.83 11.13 4.77l11 5 3.35 1.49a6.09 6.09 0 0 1 1.21.6 5.55 5.55 0 0 1 -1.29-.39c-.82-.29-2-.74-3.43-1.33-2.87-1.17-6.78-2.9-11.1-4.84l-11.03-4.9-3.35-1.47a6.39 6.39 0 0 1 -1.21-.63z" fill="#e0e0e0"/><path d="m91.33 344.3c-.15-.06 3-8.33 7-18.47s7.34-18.32 7.49-18.27-3 8.33-7 18.48-7.35 18.32-7.49 18.26z" fill="#e0e0e0"/><path d="m110.27 388.8a6.77 6.77 0 0 1 .79-1.13l2.29-3c1.92-2.5 4.57-6 7.36-9.9s5.19-7.58 6.91-10.23c.81-1.24 1.5-2.29 2-3.14a5.76 5.76 0 0 1 .81-1.11 7 7 0 0 1 -.61 1.23c-.43.78-1.07 1.89-1.89 3.24-1.63 2.71-4 6.4-6.79 10.34s-5.5 7.39-7.51 9.83c-1 1.21-1.85 2.19-2.44 2.85a5.83 5.83 0 0 1 -.92 1.02z" fill="#e0e0e0"/><path d="m78.19 384.1a5.81 5.81 0 0 1 1.27.06l3.45.37c2.9.33 6.9.83 11.32 1.42s8.42 1.16 11.31 1.6l3.42.55a5.34 5.34 0 0 1 1.24.28 5.81 5.81 0 0 1 -1.27-.06l-3.44-.37c-2.91-.33-6.91-.83-11.33-1.42s-8.42-1.16-11.31-1.6l-3.42-.55a5.34 5.34 0 0 1 -1.24-.28z" fill="#e0e0e0"/><path d="m89.92 425.52a8.68 8.68 0 0 1 1.63.08l4.41.46c3.73.41 8.86 1 14.53 1.71s10.81 1.37 14.52 1.88l4.39.64a8.79 8.79 0 0 1 1.6.31 8.3 8.3 0 0 1 -1.63-.09l-4.41-.45c-3.73-.41-8.86-1-14.54-1.71s-10.8-1.37-14.51-1.89l-4.39-.63a8.79 8.79 0 0 1 -1.6-.31z" fill="#e0e0e0"/><path d="m130.05 430.2a10.61 10.61 0 0 1 1-1.46c.72-1 1.65-2.29 2.77-3.86 2.33-3.26 5.54-7.77 8.93-12.86s6.37-9.76 8.49-13.17l2.52-4a10 10 0 0 1 1-1.44 9.16 9.16 0 0 1 -.78 1.56c-.54 1-1.34 2.4-2.36 4.13-2 3.46-4.94 8.18-8.35 13.27s-6.67 9.58-9.09 12.79c-1.21 1.6-2.21 2.88-2.92 3.75a9.62 9.62 0 0 1 -1.21 1.29z" fill="#e0e0e0"/><path d="m601.57 446.68c-27.48-16.82-35.52-50.66-36.34-81.45-.13-5.14-1-10.52 1.15-15.17s7.67-8.07 12.4-6.18c3.92 1.56 5.84 5.89 8.2 9.43a30 30 0 0 0 12.72 10.77c3.37 1.5 7.48 2.29 10.59.31 4.28-2.7 4.43-8.85 4.09-13.95q-.95-14.26-1.9-28.52c-.33-5.1-.66-10.31.63-15.25s4.53-9.65 9.3-11.3 11 .79 12.27 5.72c.55 2.05.26 4.23.53 6.34s1.4 4.4 3.45 4.87 4-1.1 5.46-2.69c5-5.46 8.13-12.32 11.07-19.12s5.77-13.75 10.21-19.66 10.78-10.76 18.07-11.62 15.34 3.19 17.62 10.25-1.47 14.64-5.69 20.73a114 114 0 0 1 -22.35 24c-1.54 1.24-3.21 2.58-3.71 4.51-.9 3.46 2.53 6.65 5.95 7.56 3.88 1 8 .4 12 .62s8.42 1.73 10.16 5.4c2.4 5.09-1.63 10.82-5.71 14.66a98 98 0 0 1 -27.87 18.41c-3.67 1.6-7.54 3-10.41 5.86s-4.42 7.52-2.37 11 6.81 4.35 10.69 3.39 7.28-3.32 10.94-5c6.85-3.07 15.94-3.13 20.8 2.66 3.19 3.81 3.78 9.34 2.58 14.18s-4 9.11-7 13.07c-10.44 13.87-24.19 25.35-40.11 32s-30.91 9.06-47.43 4.12" fill="#f5f5f5"/><path d="m608.34 426.94c3.59-15.79 8.95-32.76 15.18-50.32l4.65-13c1.54-4.26 3.07-8.48 4.81-12.52a230.66 230.66 0 0 1 11.37-22.63c4-7 8-13.54 11.78-19.61s7.48-11.65 11-16.6a181.27 181.27 0 0 1 18.5-22.08c2.38-2.42 4.28-4.25 5.59-5.46l1.5-1.38a4.33 4.33 0 0 1 .53-.44 3.07 3.07 0 0 1 -.46.51l-1.44 1.45c-1.26 1.26-3.13 3.12-5.46 5.58a192.33 192.33 0 0 0 -18.22 22.21c-3.51 5-7.14 10.55-10.92 16.63s-7.75 12.62-11.65 19.64a232.5 232.5 0 0 0 -11.27 22.56c-1.73 4-3.24 8.21-4.78 12.48l-4.65 13c-6.22 17.55-11.59 34.47-15.22 50.2" fill="#e0e0e0"/><path d="m633.25 351.06a10.93 10.93 0 0 1 -.63-2.15c-.35-1.39-.8-3.42-1.31-5.94-1-5-2.21-12.05-3.48-19.77s-2.56-14.7-3.66-19.71c-.54-2.5-1-4.53-1.34-5.92a10.41 10.41 0 0 1 -.42-2.2 10.56 10.56 0 0 1 .77 2.1c.45 1.37 1 3.37 1.64 5.87 1.27 5 2.66 12 3.93 19.7s2.36 14.53 3.21 19.8c.41 2.38.75 4.39 1 6a10.79 10.79 0 0 1 .29 2.22z" fill="#e0e0e0"/><path d="m698.11 334.84a14.52 14.52 0 0 1 -2.6.47c-1.67.25-4.09.6-7.08 1.13-6 1-14.16 2.7-23.12 4.95s-17 4.68-22.74 6.58c-2.88.93-5.2 1.75-6.8 2.31a14 14 0 0 1 -2.52.78 14.52 14.52 0 0 1 2.39-1.13c1.57-.66 3.85-1.58 6.72-2.6 5.71-2.07 13.73-4.58 22.72-6.86a231.37 231.37 0 0 1 23.25-4.69c3-.45 5.45-.7 7.14-.84a13.18 13.18 0 0 1 2.64-.1z" fill="#e0e0e0"/><path d="m609.07 425.68a3.18 3.18 0 0 1 -.5-.77l-1.26-2.31c-1.09-2-2.59-5-4.4-8.61-3.62-7.33-8.3-17.6-13.31-29s-9.59-21.71-13.05-29.1l-4.12-8.74-1.11-2.39a3 3 0 0 1 -.33-.86 3.48 3.48 0 0 1 .5.77c.34.63.75 1.39 1.26 2.31 1.09 2 2.59 4.95 4.4 8.61 3.62 7.33 8.3 17.6 13.31 29s9.59 21.72 13 29.11c1.7 3.59 3.09 6.54 4.12 8.74.45.95.81 1.74 1.11 2.38a3.17 3.17 0 0 1 .38.86z" fill="#e0e0e0"/><path d="m694.55 392.33a3.44 3.44 0 0 1 -.84.4l-2.48 1-9.15 3.58c-7.73 3-18.36 7.35-30.09 12.12s-22.41 9-30.21 11.87c-3.89 1.44-7.06 2.57-9.26 3.31l-2.54.83a3.54 3.54 0 0 1 -.91.23 3.62 3.62 0 0 1 .85-.41l2.48-1 9.15-3.59c7.73-3 18.35-7.34 30.09-12.12s22.41-9 30.2-11.87c3.9-1.43 7.06-2.56 9.26-3.3l2.54-.84a3.29 3.29 0 0 1 .91-.21z" fill="#e0e0e0"/><path d="m721.89 472c0 .14-154.88.26-345.87.26s-345.91-.09-345.91-.26 154.89-.23 345.89-.23 345.89.12 345.89.23z" fill="#263238"/><rect fill="#455a64" height="329.42" rx="14.57" width="498.15" x="128.4" y="136.79"/><path d="m108.93 444.94h539.71a0 0 0 0 1 0 0v11a17.8 17.8 0 0 1 -17.8 17.8h-504.11a17.8 17.8 0 0 1 -17.8-17.8v-11a0 0 0 0 1 0 0z" fill="#455a64"/><path d="m141.77 149.88h470.02v278.19h-470.02z" fill="#263238"/><path d="m328.37 441.85 6.7 10.65h94.24l6.22-10.65z" fill="#263238"/><rect fill="#ebebeb" height="267.89" rx="3.27" width="451.62" x="151.45" y="159.3"/><path d="m603.08 428.54h-451.82l.83-248.26h450.99z" fill="#fff"/><path d="m189.29 169.64a3.61 3.61 0 1 1 -3.61-3.61 3.61 3.61 0 0 1 3.61 3.61z" fill="#263238"/><path d="m167.43 169.64a3.61 3.61 0 1 1 -3.61-3.61 3.61 3.61 0 0 1 3.61 3.61z" fill="#263238"/><path d="m178.36 169.64a3.61 3.61 0 1 1 -3.6-3.61 3.61 3.61 0 0 1 3.6 3.61z" fill="#263238"/><path d="m606.13 441.93c0 .18-103 .32-230 .32s-230-.14-230-.32 103-.33 230.05-.33 229.95.15 229.95.33z" fill="#263238"/><path d="m151.45 383.47h451.7v44.93h-451.7z" fill="#407bff"/><path d="m151.45 383.47h451.7v44.93h-451.7z" fill="#fff" opacity=".7"/><circle cx="425.3" cy="406.12" fill="#407bff" r="16.68" transform="matrix(.16108708 -.9869402 .9869402 .16108708 -44.01 760.48)"/><path d="m425.3 409.87a3 3 0 0 1 -3-3v-6.55a3 3 0 0 1 6 0v6.55a3 3 0 0 1 -3 3zm0-11.94a2.39 2.39 0 0 0 -2.38 2.38v6.55a2.38 2.38 0 0 0 4.76 0v-6.55a2.39 2.39 0 0 0 -2.38-2.38z" fill="#fff"/><path d="m425.3 412a5.41 5.41 0 0 1 -4.22-1.67c-1.92-2.12-1.61-5.44-1.6-5.58a.32.32 0 1 1 .63.06s-.29 3.19 1.44 5.1a4.81 4.81 0 0 0 3.75 1.46 5 5 0 0 0 3.8-1.46c1.85-1.92 1.74-5.09 1.74-5.12a.31.31 0 0 1 .3-.33.34.34 0 0 1 .33.31c0 .14.11 3.47-1.91 5.58a5.69 5.69 0 0 1 -4.26 1.65z" fill="#fff"/><path d="m425.3 416.59a.32.32 0 0 1 -.32-.31v-4.61a.32.32 0 0 1 .32-.32.31.31 0 0 1 .31.32v4.61a.31.31 0 0 1 -.31.31z" fill="#fff"/><circle cx="336.71" cy="406.12" fill="#407bff" r="16.68" transform="matrix(.16108708 -.9869402 .9869402 .16108708 -118.33 673.04)"/><path d="m331.41 407.77a1.65 1.65 0 1 1 1.65-1.65 1.64 1.64 0 0 1 -1.65 1.65z" fill="#fff"/><path d="m336.53 407.77a1.65 1.65 0 1 1 0-3.29 1.65 1.65 0 0 1 0 3.29z" fill="#fff"/><path d="m342 407.77a1.65 1.65 0 1 1 1.65-1.65 1.65 1.65 0 0 1 -1.65 1.65z" fill="#fff"/><circle cx="381" cy="406.12" fill="#407bff" r="16.4"/><path d="m379.54 401.59a2.83 2.83 0 0 0 -4.24.86 1.69 1.69 0 0 0 .4 2.13c1.5 1.48 4.67 4.45 6 5.73a3.38 3.38 0 0 0 2.81.91 2.92 2.92 0 0 0 2-1.23c1.55-2.13-2.17-3.79-2.17-3.79l-1.62 1.71-3.72-3.66 1.66-1.83z" fill="#fff"/><path d="m571.63 223.62a17 17 0 0 1 -17-17 17 17 0 0 1 17-17 17 17 0 0 1 17 17 17 17 0 0 1 -17 17z" fill="#ebebeb"/><path d="m571 206.76a2.72 2.72 0 1 0 -1.65 0 4.72 4.72 0 0 0 -4 4.66h9.46a4.72 4.72 0 0 0 -3.81-4.66z" fill="#263238"/><path d="m576.34 207.56a.38.38 0 0 1 -.39-.39v-4.35a.39.39 0 0 1 .78 0v4.35a.38.38 0 0 1 -.39.39z" fill="#263238"/><path d="m578.52 205.39h-4.36a.4.4 0 0 1 -.39-.39.39.39 0 0 1 .39-.39h4.36a.39.39 0 0 1 .39.39.4.4 0 0 1 -.39.39z" fill="#263238"/><path d="m260.33 428.48-108.88-.52v-247.74h108.88z" fill="#fafafa"/><path d="m260.33 426.47c-.15 0-.26-55.13-.26-123.12s.11-123.13.26-123.13.26 55.12.26 123.13-.12 123.12-.26 123.12z" fill="#263238"/><path d="m257 380.84c0 .14-23.17.26-51.74.26s-51.76-.12-51.76-.26 23.17-.27 51.76-.27 51.74.12 51.74.27z" fill="#e0e0e0"/><path d="m233 244.59v2.41h-.25v-2.2h-.57v-.22z" fill="#e0e0e0"/><path d="m234.27 244.59v2.41h-.27v-2.2h-.57v-.22z" fill="#e0e0e0"/><path d="m234.85 245.36a.18.18 0 0 1 .19-.18.17.17 0 0 1 .18.18.18.18 0 0 1 -.18.19.19.19 0 0 1 -.19-.19zm0 1.48a.19.19 0 0 1 .19-.19.19.19 0 0 1 0 .38.19.19 0 0 1 -.19-.19z" fill="#e0e0e0"/><path d="m237.24 246.79v.21h-1.7v-.17l1-1c.27-.27.33-.44.33-.6s-.2-.46-.57-.46a.85.85 0 0 0 -.67.27l-.17-.15a1.09 1.09 0 0 1 .86-.35c.49 0 .8.25.8.66a1 1 0 0 1 -.4.76l-.82.81z" fill="#e0e0e0"/><path d="m239.2 246.3c0 .41-.29.73-.88.73a1.26 1.26 0 0 1 -.87-.31l.12-.2a1 1 0 0 0 .75.29c.41 0 .63-.21.63-.5s-.2-.51-.81-.51h-.52l.12-1.21h1.33v.22h-1.07l-.08.77h.31c.69 0 .97.29.97.72z" fill="#e0e0e0"/><path d="m235.49 357.71v2.43h-.25v-2.21h-.57v-.22z" fill="#e0e0e0"/><path d="m236.74 357.71v2.43h-.25v-2.21h-.57v-.22z" fill="#e0e0e0"/><path d="m237.33 358.49a.18.18 0 0 1 .18-.19.19.19 0 0 1 .19.19.2.2 0 0 1 -.19.19.19.19 0 0 1 -.18-.19zm0 1.47a.18.18 0 0 1 .18-.18.19.19 0 0 1 .19.18.2.2 0 0 1 -.19.2.19.19 0 0 1 -.18-.16z" fill="#e0e0e0"/><path d="m240.12 359.5h-.48v.64h-.25v-.64h-1.39v-.18l1.28-1.61h.28l-1.24 1.57h1v-.56h.25v.56h.48z" fill="#e0e0e0"/><path d="m242 359.42c0 .42-.29.74-.88.74a1.26 1.26 0 0 1 -.87-.31l.12-.2a1.09 1.09 0 0 0 .75.28c.41 0 .63-.2.63-.5s-.2-.5-.81-.5h-.52l.13-1.22h1.32v.22h-1.11l-.08.77h.32c.7 0 1 .3 1 .72z" fill="#e0e0e0"/><path d="m220.08 239.45h-48.56l-.14-21.12a21.26 21.26 0 0 1 21.26-21.41h27.44a21.27 21.27 0 0 1 21.27 21.27 21.27 21.27 0 0 1 -21.27 21.26z" fill="#ebebeb"/><path d="m242.8 417.42h-77a9.43 9.43 0 0 1 -9.42-9.42v-.41a9.43 9.43 0 0 1 9.42-9.42h77a9.43 9.43 0 0 1 9.42 9.42v.41a9.43 9.43 0 0 1 -9.42 9.42zm-77-18.66a8.84 8.84 0 0 0 -8.83 8.83v.41a8.84 8.84 0 0 0 8.83 8.83h77a8.84 8.84 0 0 0 8.83-8.83v-.41a8.84 8.84 0 0 0 -8.83-8.83z" fill="#e0e0e0"/><path d="m248.05 407.5a4.79 4.79 0 1 1 -4.79-4.78 4.78 4.78 0 0 1 4.79 4.78z" fill="#407bff"/><path d="m243.14 410.46a.15.15 0 0 1 -.13-.11l-.62-2.27-2.12-.75a.14.14 0 0 1 -.1-.14.14.14 0 0 1 .1-.13l5-1.79a.16.16 0 0 1 .16 0 .13.13 0 0 1 0 .16l-2.17 4.9a.14.14 0 0 1 -.12.13zm-2.39-3.27 1.81.64a.18.18 0 0 1 .09.1l.52 1.94 1.86-4.21z" fill="#fff"/><path d="m242.51 408.12a.16.16 0 0 1 -.11-.05.15.15 0 0 1 0-.21l2.8-2.56a.15.15 0 0 1 .2.22l-2.8 2.56a.14.14 0 0 1 -.09.04z" fill="#fff"/><g fill="#263238"><path d="m178.44 406.2h-.92v-.2h2.13v.24h-.93v2.39h-.28z"/><path d="m181.57 406.62-1 2.21a.67.67 0 0 1 -.66.51.68.68 0 0 1 -.48-.18l.13-.2a.46.46 0 0 0 .36.15c.17 0 .29-.08.41-.33l.08-.19-.88-2h.28l.74 1.68.75-1.68z"/><path d="m184 407.6a1 1 0 0 1 -1 1 .86.86 0 0 1 -.75-.39v1.1h-.25v-2.7h.25v.39a.85.85 0 0 1 .76-.41 1 1 0 0 1 .99 1.01zm-.27 0a.74.74 0 1 0 -.73.78.73.73 0 0 0 .68-.78z"/><path d="m186.22 407.69h-1.66a.74.74 0 0 0 .78.69.8.8 0 0 0 .61-.26l.15.17a1 1 0 0 1 -1.8-.69 1 1 0 0 1 1-1 .94.94 0 0 1 1 1zm-1.66-.2h1.44a.71.71 0 0 0 -1.41 0z"/><path d="m189.25 407.37v1.22h-.25v-.31a.73.73 0 0 1 -.68.33c-.45 0-.72-.23-.72-.57s.19-.56.76-.56h.64v-.12a.49.49 0 0 0 -.56-.53 1 1 0 0 0 -.66.24l-.12-.2a1.25 1.25 0 0 1 .8-.27.71.71 0 0 1 .79.77zm-.25.63v-.32h-.62c-.39 0-.51.15-.51.35s.18.37.5.37a.64.64 0 0 0 .63-.4z"/><path d="m194.22 407.45v1.14h-.22v-1.12c0-.41-.21-.63-.56-.63a.64.64 0 0 0 -.67.72v1h-.26v-1.12c0-.41-.21-.63-.57-.63a.64.64 0 0 0 -.67.72v1h-.27v-2h.25v.47a.81.81 0 0 1 .73-.38.7.7 0 0 1 .7.42.86.86 0 0 1 .78-.42.75.75 0 0 1 .76.83z"/><path d="m196.68 407.69h-1.68a.74.74 0 0 0 .78.69.8.8 0 0 0 .61-.26l.15.17a1 1 0 0 1 -1.8-.69 1 1 0 0 1 1-1 .94.94 0 0 1 1 1zm-1.66-.2h1.4a.68.68 0 0 0 -.7-.66.69.69 0 0 0 -.72.66z"/><path d="m197 408.37.12-.21a1.25 1.25 0 0 0 .71.22c.37 0 .53-.13.53-.32 0-.52-1.29-.11-1.29-.9 0-.32.28-.56.79-.56a1.33 1.33 0 0 1 .69.18l-.11.22a1 1 0 0 0 -.58-.17c-.36 0-.52.14-.52.33 0 .53 1.28.13 1.28.89 0 .34-.3.56-.81.56a1.32 1.32 0 0 1 -.81-.24z"/><path d="m198.79 408.37.12-.21a1.24 1.24 0 0 0 .7.22c.38 0 .53-.13.53-.32 0-.52-1.28-.11-1.28-.9 0-.32.28-.56.78-.56a1.34 1.34 0 0 1 .7.18l-.11.22a1 1 0 0 0 -.59-.17c-.35 0-.51.14-.51.33 0 .53 1.28.13 1.28.89 0 .34-.3.56-.81.56a1.32 1.32 0 0 1 -.81-.24z"/><path d="m202.4 407.37v1.22h-.26v-.31a.73.73 0 0 1 -.68.33c-.45 0-.72-.23-.72-.57s.19-.56.76-.56h.63v-.12a.49.49 0 0 0 -.56-.53 1 1 0 0 0 -.66.24l-.12-.2a1.25 1.25 0 0 1 .81-.27.71.71 0 0 1 .8.77zm-.27.63v-.32h-.62c-.38 0-.51.15-.51.35s.19.37.5.37a.63.63 0 0 0 .63-.4z"/><path d="m205 406.62v1.73a.87.87 0 0 1 -1 1 1.41 1.41 0 0 1 -.92-.3l.14-.21a1.17 1.17 0 0 0 .78.27c.5 0 .73-.22.73-.71v-.26a.89.89 0 0 1 -.78.39 1 1 0 1 1 0-1.92.9.9 0 0 1 .79.4v-.38zm-.26.94a.75.75 0 1 0 -.75.72.71.71 0 0 0 .71-.72z"/><path d="m207.43 407.69h-1.65a.73.73 0 0 0 .78.69.78.78 0 0 0 .6-.26l.15.17a1 1 0 0 1 -.76.32 1 1 0 0 1 -1-1 1 1 0 1 1 1.93 0s-.05.05-.05.08zm-1.65-.2h1.4a.7.7 0 0 0 -1.4 0z"/><path d="m207.81 408.41a.2.2 0 1 1 .4 0 .2.2 0 0 1 -.4 0z"/><path d="m208.61 408.41a.2.2 0 1 1 .4 0 .2.2 0 0 1 -.4 0z"/><path d="m209.4 408.41a.2.2 0 0 1 .2-.21.21.21 0 1 1 0 .41.2.2 0 0 1 -.2-.2z"/></g><path d="m165.73 409.44a1 1 0 1 1 -1.6-1.34l2.16-2.58a.67.67 0 0 1 1-.09.68.68 0 0 1 .08.95l-1.83 2.19a.4.4 0 0 1 -.48 0 .4.4 0 0 1 -.09-.48l1.4-1.69-.19-.16-1.35 1.62-.06.07a.63.63 0 0 0 .13.81.62.62 0 0 0 .81 0l1.79-2.14a.92.92 0 0 0 -.13-1.28.93.93 0 0 0 -1.29.09l-2.25 2.7a1.29 1.29 0 0 0 2 1.64l1.81-2.18-.19-.16z" fill="#e0e0e0"/><path d="m226.11 208.59c0 .09-9.18.16-20.5.16s-20.5-.07-20.5-.16 9.17-.16 20.5-.16 20.5.07 20.5.16z" fill="#263238"/><path d="m226.11 213.66c0 .09-9.18.16-20.5.16s-20.5-.07-20.5-.16 9.17-.16 20.5-.16 20.5.07 20.5.16z" fill="#263238"/><path d="m226.11 218.73c0 .09-9.18.16-20.5.16s-20.5-.07-20.5-.16 9.17-.16 20.5-.16 20.5.07 20.5.16z" fill="#263238"/><path d="m226.11 223.8c0 .09-9.18.16-20.5.16s-20.5-.07-20.5-.16 9.17-.16 20.5-.16 20.5.07 20.5.16z" fill="#263238"/><path d="m205.68 228.87a3.52 3.52 0 0 1 -.81.06l-2.2.06c-1.87 0-4.44 0-7.28 0s-5.41 0-7.27 0l-2.21-.06a3.38 3.38 0 0 1 -.8-.06 4.23 4.23 0 0 1 .8-.06l2.21-.05h7.27s5.41 0 7.28 0l2.2.05a4.42 4.42 0 0 1 .81.06z" fill="#263238"/><path d="m182.26 255.07h30a10.88 10.88 0 0 1 10.93 10.93v1.33a10.88 10.88 0 0 1 -10.88 10.88h-40.93a0 0 0 0 1 0 0v-12.21a10.88 10.88 0 0 1 10.88-10.93z" fill="#ebebeb"/><path d="m215.31 263.84c0 .09-8.07.17-18 .17s-18-.08-18-.17 8.07-.16 18-.16 18 .08 18 .16z" fill="#263238"/><path d="m201.27 269.47a5 5 0 0 1 -.86.06l-2.36.05c-2 0-4.75.05-7.79.05s-5.79 0-7.78-.05l-2.36-.05a5.07 5.07 0 0 1 -.87-.06 4.37 4.37 0 0 1 .87-.07h2.36 7.78s5.8 0 7.79 0h2.36a4.31 4.31 0 0 1 .86.07z" fill="#263238"/><path d="m173.55 327.5v2.43h-.25v-2.21h-.57v-.22z" fill="#e0e0e0"/><path d="m174.8 327.5v2.43h-.25v-2.21h-.55v-.22z" fill="#e0e0e0"/><path d="m175.38 328.28a.18.18 0 0 1 .19-.19.19.19 0 0 1 0 .38.18.18 0 0 1 -.19-.19zm0 1.48a.18.18 0 0 1 .19-.19.18.18 0 0 1 .18.19.19.19 0 1 1 -.37 0z" fill="#e0e0e0"/><path d="m177.72 329.23c0 .41-.3.72-.88.72a1.29 1.29 0 0 1 -.88-.31l.13-.2a1.05 1.05 0 0 0 .75.28c.4 0 .62-.19.62-.49s-.2-.48-.65-.48h-.18v-.18l.68-.85h-1.25v-.22h1.57v.18l-.69.86c.52.03.78.3.78.69z" fill="#e0e0e0"/><path d="m178.07 328.72c0-.78.4-1.24 1-1.24s1 .46 1 1.24-.41 1.23-1 1.23-1-.46-1-1.23zm1.68 0c0-.65-.29-1-.71-1s-.72.36-.72 1 .29 1 .72 1 .71-.36.71-1z" fill="#e0e0e0"/><path d="m169.33 298.2h63.18a10.88 10.88 0 0 1 10.88 10.88v1.33a10.88 10.88 0 0 1 -10.88 10.88h-52.3a10.88 10.88 0 0 1 -10.88-10.88v-12.21a0 0 0 0 1 0 0z" fill="#ebebeb" transform="matrix(-1 0 0 -1 412.72 619.49)"/><path d="m231.39 306.73c0 .09-11.38.16-25.42.16s-25.43-.07-25.43-.16 11.39-.16 25.43-.16 25.42.07 25.42.16z" fill="#263238"/><path d="m231.39 312.21c0 .09-11.38.16-25.42.16s-25.43-.07-25.43-.16 11.39-.16 25.43-.16 25.42.07 25.42.16z" fill="#263238"/><path d="m180.37 341.32h30a10.88 10.88 0 0 1 10.88 10.88v1.33a10.88 10.88 0 0 1 -10.88 10.88h-40.88a0 0 0 0 1 0 0v-12.2a10.88 10.88 0 0 1 10.88-10.89z" fill="#ebebeb"/><path d="m214.47 349.72c0 .09-8.54.16-19.08.16s-19.07-.07-19.07-.16 8.54-.16 19.07-.16 19.08.07 19.08.16z" fill="#263238"/><path d="m200.85 355.2a4.33 4.33 0 0 1 -1 .07l-2.63.05c-2.22 0-5.29.05-8.67.05s-6.46 0-8.68-.05l-2.63-.05a4.33 4.33 0 0 1 -1-.07 6.13 6.13 0 0 1 1-.06l2.63-.05h8.68s6.45 0 8.67 0l2.63.05a6.13 6.13 0 0 1 1 .06z" fill="#263238"/><path d="m718.49 183.64c-1.1-8.91-8.63-17.21-17.61-17.22-5.29 0-10.33 2.77-14 6.64a35.58 35.58 0 0 0 -3.54 4.2 37 37 0 0 0 -2.65-4.81c-2.79-4.51-7.18-8.22-12.38-9.26-8.79-1.76-17.81 4.9-20.65 13.41s-.47 18.07 4.19 25.73 12.74 17.67 27.53 22.67c10.2-1.3 23.86-10.35 29.94-17s10.28-15.46 9.17-24.36z" fill="#407bff"/><path d="m715.26 199.63h-.26l-.86-.06-3.32-.27-12.21-1.12.22-.13-5.08 13.25-.31.8-.2-.83c-1.55-6.43-3.28-13.64-5.11-21.23-.56-2.36-1.12-4.67-1.66-6.93l.52.1-9.35 12.79-.09.12h-.15l-21.4-2.23-6.07-.68-1.61-.2a4.24 4.24 0 0 1 -.55-.09 2.43 2.43 0 0 1 .56 0l1.61.12 6.09.53 21.46 2-.24.11 9.27-12.84.37-.51.15.62q.81 3.39 1.66 6.92l5.06 21.24h-.51l5.19-13.22.06-.15h.16l12.18 1.31 3.31.38.86.12z" fill="#fafafa"/><path d="m114.92 215.13c-2-5.75-8.19-10.19-14.15-8.92a13.32 13.32 0 0 0 -8.32 6.4 23.82 23.82 0 0 0 -1.75 3.29 26.74 26.74 0 0 0 -2.45-2.82 13.37 13.37 0 0 0 -9.54-4.38c-6.09.09-11.14 5.8-11.81 11.85s2.27 12.07 6.46 16.5a34.24 34.24 0 0 0 21.48 11.13c6.59-2.32 14.38-10.28 17.47-15.53s4.62-11.76 2.61-17.52z" fill="#407bff"/><path d="m115.06 226.22h-.2l-.58.09-2.25.29-8.26 1 .12-.12c-.43 2.75-.93 6-1.48 9.52l-.09.58-.25-.53-6.43-13.37-2.09-4.36h.36l-4.36 9.84v.09h-.1l-14.56 1.57-4.13.42-1.09.09a2.17 2.17 0 0 1 -.38 0 1.34 1.34 0 0 1 .37-.07l1.09-.15 4.11-.52 14.55-1.71-.15.1 4.33-9.85.17-.39.19.39 2.05 4.42c2.29 4.79 4.46 9.33 6.39 13.39l-.34.05 1.56-9.52v-.11h.1l8.28-.87 2.26-.22h.59z" fill="#fafafa"/><rect fill="#e0e0e0" height="44.89" rx="3.44" width="7.84" x="470.09" y="54.41"/><rect fill="#407bff" height="31.47" rx="3.44" width="7.84" x="470.09" y="67.82"/><rect fill="#e0e0e0" height="44.89" rx="3.44" width="7.84" x="482.94" y="54.41"/><rect fill="#407bff" height="24.52" rx="3.44" width="7.84" x="482.94" y="74.78"/><rect fill="#e0e0e0" height="44.89" rx="3.44" width="7.84" x="497.47" y="54.41"/><rect fill="#407bff" height="36.78" rx="3.44" width="7.84" x="497.47" y="62.52"/><path d="m474.13 99.3a9.28 9.28 0 0 0 1-.19 3.75 3.75 0 0 0 2.71-3.61c0-.77 0-1.59 0-2.48 0-1.78 0-3.81 0-6 0-4.48 0-9.81 0-15.72 0-3 0-6.06 0-9.28v-2.48a8.83 8.83 0 0 0 -.16-2.38 3.72 3.72 0 0 0 -7.1.2 12.66 12.66 0 0 0 -.11 2.41v2.43 9.29c0 5.91 0 11.23-.06 15.72v6 2.47a3.64 3.64 0 0 0 .64 1.89 3.83 3.83 0 0 0 2.28 1.56c.64.13 1 .1 1 .13a3.24 3.24 0 0 1 -1 0 3.91 3.91 0 0 1 -2.41-1.55 3.86 3.86 0 0 1 -.72-2c0-.77 0-1.59 0-2.48 0-1.78 0-3.81 0-6 0-4.49 0-9.81-.05-15.72 0-3 0-6.07 0-9.29v-3.68a4.79 4.79 0 0 1 .13-1.29 4 4 0 0 1 3.92-3.08 4.08 4.08 0 0 1 3.8 2.83 4.48 4.48 0 0 1 .18 1.3v3.7 9.28c0 5.91 0 11.24-.05 15.72v6 2.48a3.89 3.89 0 0 1 -2.91 3.71 2.87 2.87 0 0 1 -1.09.11z" fill="#263238"/><path d="m487 99.3a9.88 9.88 0 0 0 1-.19 3.75 3.75 0 0 0 2.18-1.68 3.7 3.7 0 0 0 .53-1.93c0-.77 0-1.59 0-2.48 0-1.78 0-3.81 0-6 0-4.48 0-9.81-.05-15.72 0-3 0-6.06 0-9.28v-2.48a8.83 8.83 0 0 0 -.17-2.38 3.71 3.71 0 0 0 -7.09.2 11.89 11.89 0 0 0 -.11 2.41v2.43 9.29c0 5.91 0 11.23-.05 15.72v6 2.47a3.64 3.64 0 0 0 .63 1.89 3.87 3.87 0 0 0 2.13 1.6c.63.13 1 .1 1 .13a3.24 3.24 0 0 1 -1 0 4 4 0 0 1 -2.42-1.55 3.86 3.86 0 0 1 -.71-2c0-.77 0-1.59 0-2.48 0-1.78 0-3.81 0-6 0-4.49 0-9.81 0-15.72 0-3 0-6.07 0-9.29v-3.72a4.78 4.78 0 0 1 .12-1.29 4.05 4.05 0 0 1 3.93-3.08 4.07 4.07 0 0 1 3.92 2.83 4.48 4.48 0 0 1 .18 1.3v3.7 9.28c0 5.91 0 11.24-.06 15.72v6 2.48a3.88 3.88 0 0 1 -.6 2 3.82 3.82 0 0 1 -2.36 1.73 2.82 2.82 0 0 1 -1 .09z" fill="#263238"/><path d="m501.51 99.3a9.28 9.28 0 0 0 1-.19 3.75 3.75 0 0 0 2.71-3.61c0-.77 0-1.59 0-2.48 0-1.78 0-3.81 0-6 0-4.48 0-9.81-.06-15.72 0-3 0-6.06 0-9.28v-2.48a8.83 8.83 0 0 0 -.16-2.38 3.72 3.72 0 0 0 -7.1.2 12.66 12.66 0 0 0 -.11 2.41v2.43 9.29c0 5.91 0 11.23-.06 15.72v6 2.47a3.64 3.64 0 0 0 .64 1.89 3.83 3.83 0 0 0 2.28 1.56c.64.13 1 .1 1 .13a3.24 3.24 0 0 1 -1 0 4 4 0 0 1 -2.42-1.55 3.86 3.86 0 0 1 -.71-2c0-.77 0-1.59 0-2.48 0-1.78 0-3.81 0-6 0-4.49 0-9.81-.05-15.72 0-3 0-6.07 0-9.29v-3.68a4.79 4.79 0 0 1 .13-1.29 4 4 0 0 1 3.92-3.08 4.1 4.1 0 0 1 4.1 2.84 5.29 5.29 0 0 1 .18 1.3v1.23 2.44 9.28c0 5.91 0 11.24-.05 15.72v6 2.48a3.89 3.89 0 0 1 -2.92 3.71 2.82 2.82 0 0 1 -1.32.13z" fill="#263238"/><path d="m487.71 25.38a4.24 4.24 0 0 1 .85 0l2.49.07c.55 0 1.16 0 1.84.09l2.2.3 2.56.37 2.87.71a46.48 46.48 0 0 1 13.89 6.08 49.93 49.93 0 0 1 14.38 14 48.37 48.37 0 0 1 8.28 29.58c-.08 1.13-.05 2.29-.22 3.44s-.35 2.29-.52 3.46a49.2 49.2 0 0 1 -4.67 13.67 52.61 52.61 0 0 1 -8.93 12.29 51.62 51.62 0 0 1 -12.87 9.24 46.71 46.71 0 0 1 -15.68 4.82 30.75 30.75 0 0 1 -4.19.35 37.11 37.11 0 0 1 -4.22.08 50.71 50.71 0 0 1 -8.47-1.07 49.55 49.55 0 0 1 -16.87-7.1h.52l-17.18 6.9-1 .41.23-1.07q2.61-9.45 5-18.36l.09.45a49.23 49.23 0 0 1 -9.17-21 44.59 44.59 0 0 1 -.67-10.75 35.1 35.1 0 0 1 .49-5.16q.19-1.27.39-2.52c.16-.82.41-1.62.6-2.43a49.1 49.1 0 0 1 19.27-27.89 46.82 46.82 0 0 1 11.4-6l2.6-.94 2.44-.62 2.23-.55c.71-.14 1.41-.21 2.05-.31 1.3-.17 2.44-.39 3.44-.44l2.53-.09h1.54a2.09 2.09 0 0 1 .52 0 2.75 2.75 0 0 1 -.52.07l-1.54.12-2.5.17c-1 .08-2.13.33-3.41.52a48.83 48.83 0 0 0 -39.06 36.23c-.19.79-.43 1.58-.58 2.39s-.24 1.64-.37 2.47a33.88 33.88 0 0 0 -.45 5.07 43.94 43.94 0 0 0 .68 10.57 48.38 48.38 0 0 0 9 20.52l.16.21-.07.25-5 18.37-.73-.65 17.17-6.91.27-.11.24.16a48.64 48.64 0 0 0 16.49 6.93 49.49 49.49 0 0 0 8.28 1 37.9 37.9 0 0 0 4.13-.08 30.77 30.77 0 0 0 4.09-.34 45.8 45.8 0 0 0 15.34-4.69 51 51 0 0 0 12.61-9 52 52 0 0 0 8.77-12 48.56 48.56 0 0 0 4.62-13.38c.17-1.14.35-2.27.52-3.39s.15-2.26.23-3.37a47.66 47.66 0 0 0 -8-29.1 49.47 49.47 0 0 0 -14-13.91 46.68 46.68 0 0 0 -13.67-6.17l-2.84-.75-2.61-.44-2.18-.36c-.67-.07-1.28-.09-1.83-.13l-2.47-.18a5.21 5.21 0 0 1 -.81-.1z" fill="#263238"/><path d="m439.37 358 4.32 4.32a2.57 2.57 0 0 0 1.76.73 2.49 2.49 0 0 0 2.5-2.5 2.57 2.57 0 0 0 -.73-1.76l-4.32-4.32a2.47 2.47 0 0 0 -3.53 0 2.49 2.49 0 0 0 -.74 1.76 2.6 2.6 0 0 0 .74 1.77z" fill="#fafafa"/><path d="m455.05 292.85a45.18 45.18 0 0 1 -9.68 0 45.18 45.18 0 0 1 9.68 0z" fill="#455a64"/><path d="m488.85 181.41c-1.71-5.19 1.38-23.8-2.69-23.83-5.2-.05-3.71 21-3.72 22.92s-2.73 1.86-2.63.16c.14-2.44 1-26.49-4.24-26.07-2.89.23-2.52 5.48-2.52 5.48s1.61 24.06-.85 24.18-3.34-13.92-3.54-18.86c-.2-4.73-2.19-6.61-4.37-5s-1.74 15.83-1.62 20.58.68 17.76-4.81 11.43-12-9.18-14.32-8.73-2.4 3.8-.05 4.89c1.9.88 4.64 3.32 6.62 5.24a30 30 0 0 1 4 5.44 26.15 26.15 0 0 1 3.31 8 16.18 16.18 0 0 0 8.19 10.48l-.26 8.82 25.35-2.2.49-16.68c.26-12.75 2.49-21.33 3.83-28.91 2.15-12.09.59-12.46-.86-12.39-3.16.11-3.63 20.11-5.31 15.05z" fill="#b78876"/><path d="m488.85 197.77a29.82 29.82 0 0 0 -3.48.87 13.41 13.41 0 0 0 -6.58 5.27 12.78 12.78 0 0 0 -1.17 2.34l-.15.38-.31-.26a20.85 20.85 0 0 0 -5.88-3.45c-1.6-.62-2.62-.83-2.6-.92a8.55 8.55 0 0 1 2.73.57 18.69 18.69 0 0 1 6.12 3.35l-.46.13a13 13 0 0 1 1.21-2.46 13.39 13.39 0 0 1 3.38-3.55 13.15 13.15 0 0 1 3.57-1.8 11.34 11.34 0 0 1 2.64-.51 3.29 3.29 0 0 1 .98.04z" fill="#aa6550"/><path d="m485.32 215.6a16.68 16.68 0 0 1 -6.15 1.72 16.88 16.88 0 0 1 -6.39-.15c0-.18 2.85 0 6.31-.45s6.18-1.29 6.23-1.12z" fill="#aa6550"/><path d="m417.28 216.36s13.21 6.75 20.16 16.47 27.94 39.86 27.94 39.86l-3-45.74 32.42-4.2s9.43 46.07 11.64 62c2.06 14.91 1.2 29.58-13.36 37.58-17.18 9.44-36.69-3.31-43.18-8.15-8.06-6-22.94-15.81-22.94-15.81z" fill="#e0e0e0"/><path d="m400.99 210.65-9.25-10.33-40.43-3.1-5.24 8.47 14.17 88.44-6.38 89.34h52.68z" fill="#407bff"/><path d="m356.3 362.22c1.39-1.48 3.67-3.53 5.7-3.57 14.56-.32 29.43-1.78 44-2.1l.56 26.92-7.09-3.32c-.4-3-.91-6.71-3.7-8-1.58-.75-3.43-.46-5.14-.12-5.26 1-10.48 2.4-15.83 2.73s-10.95-.44-15.44-3.37a9.4 9.4 0 0 1 -3.69-4 4.86 4.86 0 0 1 .63-5.17z" opacity=".3"/><path d="m391.74 200.32 25.9 16.76 5.48 17.98 5.24 56.06-5.78 57.37 9.98 34.98h-26.02l-.05-13.8-2.78-97.14-2.72-61.88z" fill="#e0e0e0"/><path d="m405.69 285.92a6.32 6.32 0 0 0 .43-.72c.28-.52.67-1.23 1.15-2.13s.94-2.13 1.55-3.5c.28-.69.52-1.45.8-2.25s.59-1.64.82-2.55c2.18-7.2 3.63-17.59 3.32-29.06 0-.89-.06-1.77-.12-2.64v-.15l-.14-.06-4.06-1.71.06.42 4.05-3.25.09-.07v-.1a35.23 35.23 0 0 0 -1.85-11.6c-1-3.39-2.13-6.31-3.11-8.71s-1.84-4.28-2.45-5.56c-.3-.64-.54-1.12-.71-1.45a3.28 3.28 0 0 0 -.28-.49 3.2 3.2 0 0 0 .2.52l.65 1.49c.56 1.29 1.37 3.19 2.31 5.6s2 5.34 3 8.72a35.31 35.31 0 0 1 1.76 11.44l.09-.17-4.06 3.25-.32.26.38.16 4.05 1.71-.15-.21c.06.85.09 1.73.12 2.61.31 11.42-1.07 21.77-3.16 29-.22.91-.52 1.75-.78 2.55s-.49 1.56-.76 2.25c-.58 1.37-1 2.58-1.47 3.52s-.8 1.63-1.06 2.16a4.94 4.94 0 0 0 -.35.72z" fill="#263238"/><path d="m423.88 322.42a6.71 6.71 0 0 0 .22-.76c.14-.54.32-1.27.55-2.18s.51-2.12.78-3.48.62-2.91.9-4.64.63-3.62.89-5.66.52-4.23.76-6.53c.42-4.61.7-9.7.7-15.05s-.32-10.43-.75-15c-.26-2.3-.48-4.49-.8-6.53s-.59-3.93-.9-5.66-.64-3.27-.92-4.63-.55-2.53-.79-3.48-.42-1.64-.56-2.18a3.5 3.5 0 0 0 -.23-.75 6.12 6.12 0 0 0 .13.77c.12.55.27 1.29.47 2.21s.46 2.12.71 3.49.58 2.91.84 4.64.59 3.61.84 5.65.51 4.21.75 6.51c.4 4.6.69 9.67.71 15s-.27 10.4-.66 15c-.23 2.3-.42 4.48-.72 6.52s-.54 3.93-.82 5.65-.58 3.28-.82 4.64-.49 2.54-.7 3.5-.34 1.65-.46 2.2a3.73 3.73 0 0 0 -.12.75z" fill="#263238"/><path d="m417.61 369.34a10.17 10.17 0 0 0 1.12 2.33 38.73 38.73 0 0 0 3.55 5.14 38.17 38.17 0 0 0 4.35 4.5 10.16 10.16 0 0 0 2.07 1.56 20 20 0 0 0 -1.83-1.82 57.14 57.14 0 0 1 -4.2-4.55 54 54 0 0 1 -3.63-5 19.81 19.81 0 0 0 -1.43-2.16z" fill="#263238"/><path d="m404.68 322.4c-2.74-1.43-6.09-.68-9 .43s-5.75 2.6-8.84 2.57c-4.2 0-10.15-1.57-12.34-5.14a48 48 0 0 1 -5.31-13.13c-3.34-15.37-4.1-28.86-7.44-44.24-1.82-8.36-4.13-18-7.23-26-3-7.73-5.8-15.73-8.16-23.68.42 18 .84 36.14 3.62 54 1.8 11.47 4.56 22.77 6.07 34.27 1.29 9.85 1.65 19.8 2 29.73l9.37 11.46 25.83.52 13.49-17.4z" opacity=".3"/><path d="m311.06 215.59a31.93 31.93 0 0 0 -19.6 22.7c-7.58 33.44-20.56 77.91-20.76 92.26-.26 18.27 7.73 30.78 18.16 33.09 8.25 1.82 83-2.27 83-2.27l3.54-31.2-60.59-5.57 8.29-46.33-8.21-64.17z" fill="#e0e0e0"/><path d="m314.91 214.1 16.75-6.84 19.13-10.34.18.56c-2.16 3.7-4.46 10.53-3.65 14.74l14.68 76.62-3.33 56-4.81 38.65h-48.23l17.49-41.17-8.61-77.32z" fill="#e0e0e0"/><path d="m323.61 273.59a1.87 1.87 0 0 0 -.14.51c-.07.4-.17.89-.29 1.49-.25 1.36-.59 3.21-1 5.47-.82 4.69-1.92 11.05-3.15 18.08s-2.23 13.41-3 18.11c-.35 2.27-.64 4.13-.86 5.5l-.2 1.5a1.64 1.64 0 0 0 0 .53 3 3 0 0 0 .13-.52c.09-.39.18-.88.31-1.48.25-1.36.59-3.21 1-5.47.84-4.62 2-11 3.17-18.08s2.26-13.47 3-18.11c.35-2.27.64-4.13.85-5.5.08-.61.14-1.1.19-1.5a3 3 0 0 0 -.01-.53z" fill="#263238"/><path d="m341.61 202.32s0 .06-.07.18-.09.34-.16.56c-.12.5-.34 1.22-.53 2.18a67.22 67.22 0 0 0 -1.28 8.25 93.59 93.59 0 0 0 -.32 12.58c.16 4.78.67 10.07 1.39 15.67v.18h.17l5.48 1-.19-.34c-.31.84-.64 1.75-.89 2.68a34.17 34.17 0 0 0 .63 18.58 58.68 58.68 0 0 0 6.43 13.85c2.28 3.7 4.35 6.55 5.77 8.53l1.66 2.25.44.58c.1.12.16.19.17.18a1.94 1.94 0 0 0 -.13-.21c-.1-.17-.24-.36-.4-.61l-1.58-2.31c-1.37-2-3.39-4.88-5.63-8.6a59.58 59.58 0 0 1 -6.29-13.79 33.94 33.94 0 0 1 -.58-18.32c.24-.91.56-1.8.86-2.62l.11-.29-.29-.05-5.48-1 .2.21c-.73-5.59-1.25-10.86-1.45-15.63a98.2 98.2 0 0 1 .21-12.53 75.49 75.49 0 0 1 1.13-8.24c.17-1 .36-1.69.45-2.2 0-.22.08-.41.11-.57a.87.87 0 0 0 .06-.15z" fill="#263238"/><path d="m341.61 280.91v-12.22s-.16-3 2.38-2.38 2.06 5.39 2.06 5.39.48 18.58-.63 18.42-1.54-1.59-1.54-1.59v-7.14z" fill="#407bff"/><path d="m331 281.67a85.93 85.93 0 0 0 13.1 0 85.93 85.93 0 0 0 -13.1 0z" fill="#263238"/><path d="m306.85 222.85a10.64 10.64 0 0 0 1.37.5 33.56 33.56 0 0 1 3.64 1.57 28.33 28.33 0 0 1 9.82 8.38 20.91 20.91 0 0 1 1.93 3.14 19.73 19.73 0 0 1 1.16 3.24 32.93 32.93 0 0 1 1 5.78c.14 1.66.17 3 .18 4a9.81 9.81 0 0 0 0 1.46 6.62 6.62 0 0 0 .16-1.46 38.74 38.74 0 0 0 0-4 30 30 0 0 0 -.88-5.87 19.44 19.44 0 0 0 -1.16-3.33 21.82 21.82 0 0 0 -2-3.23 27.21 27.21 0 0 0 -10.07-8.42 25 25 0 0 0 -3.73-1.44 7.2 7.2 0 0 0 -1.42-.32z" fill="#263238"/><path d="m371.88 361.37a4.35 4.35 0 0 1 0-.59c0-.42.09-1 .16-1.7.15-1.52.37-3.69.65-6.41.61-5.53 1.46-13.32 2.46-22.53l.21.27-22.5-1.91-38-3.35a19.85 19.85 0 0 0 -11.11 2.19 22.33 22.33 0 0 0 -2.65 1.66l-.65.5a1 1 0 0 1 -.23.15 15.15 15.15 0 0 1 3.44-2.49 19.68 19.68 0 0 1 11.23-2.38l38.05 3.2 22.5 1.95h.24v.24c-1.08 9.19-2 17-2.64 22.51l-.8 6.39c-.09.71-.17 1.27-.22 1.69a3.71 3.71 0 0 1 -.14.61z" fill="#263238"/><path d="m355.61 362.2a6.6 6.6 0 0 1 -.18-1.31c-.08-.85-.16-2.09-.22-3.62a96 96 0 0 1 2.1-23.75c.33-1.49.62-2.69.86-3.52a5.94 5.94 0 0 1 .41-1.26 6.84 6.84 0 0 1 -.21 1.31c-.19.94-.42 2.13-.7 3.54-.56 3-1.22 7.16-1.63 11.79s-.49 8.84-.47 11.88c0 1.45.05 2.66.06 3.61a6.21 6.21 0 0 1 -.02 1.33z" fill="#263238"/><path d="m364.19 352.42s.25-.13.74-.13a3.38 3.38 0 0 1 1.94.7 3.22 3.22 0 0 1 1.33 2.76 3.53 3.53 0 0 1 -2.15 3.06 3.48 3.48 0 0 1 -3.63-.86 3 3 0 0 1 -.72-3 3.09 3.09 0 0 1 1.15-1.71 1.34 1.34 0 0 1 .69-.32c0 .05-.22.16-.56.47a3.2 3.2 0 0 0 -.92 1.65 2.66 2.66 0 0 0 .7 2.54 3 3 0 0 0 3.11.71 3.09 3.09 0 0 0 1.85-2.6 2.87 2.87 0 0 0 -1.07-2.44 3.5 3.5 0 0 0 -1.74-.78 6.89 6.89 0 0 1 -.72-.05z" fill="#263238"/><path d="m351 196.66-.31.19-1 .55-3.69 2.09-14.26 7.89-24 10.06a25.78 25.78 0 0 0 -12.09 10 34.58 34.58 0 0 0 -3.82 7.73 40.3 40.3 0 0 0 -2.13 8.83c-4.44 19-9.48 40.81-14.37 64-1 5-2 9.92-3 14.79-.25 1.22-.45 2.44-.67 3.65s-.45 2.41-.6 3.62a39.56 39.56 0 0 0 -.37 7.2 36.13 36.13 0 0 0 3.18 13.58 25.83 25.83 0 0 0 3.58 5.75 20.23 20.23 0 0 0 5 4.28 21.37 21.37 0 0 0 12.22 3l12.16-.25c7.84-.19 15.15-.42 21.82-.65l31.6-1.15 8.59-.33 2.24-.07h.76l-.76.06-2.23.13-8.59.42c-7.46.35-18.25.83-31.59 1.32-6.67.25-14 .5-21.83.71l-12.17.28a21.82 21.82 0 0 1 -12.47-3.05 21.16 21.16 0 0 1 -5.14-4.37 26.93 26.93 0 0 1 -3.65-5.86 36.62 36.62 0 0 1 -3.24-13.77 39.65 39.65 0 0 1 .37-7.29c.15-1.23.39-2.43.6-3.64s.42-2.44.67-3.65c.92-4.88 1.92-9.82 3-14.8 4.89-23.18 9.95-45 14.43-64a40.78 40.78 0 0 1 2.12-8.89 34.33 34.33 0 0 1 3.89-7.81 26.09 26.09 0 0 1 12.3-10.11l24.06-10 14.32-7.77 3.78-2 1-.51z" fill="#263238"/><path d="m412.05 277.01h22.86v7.13h-22.86z" fill="#263238"/><path d="m519.45 290.12-76.05 81.12-74.18.46-1.76-3.37 73.12-79.22z" fill="#263238"/><path d="m447.57 289.11s4.94 0 6.41 1.72c1.71 2.06 5 6.7-2.18 18.51-2.86 4.73-16.89 21-22.66 37.67-5.39 15.56-2.93 20.7-2.93 20.7l53.52-1.71 1-1.93s23.27-63 17.11-75c-2.84-5.47-50.65-1.98-50.27.04z" fill="#e0e0e0"/><path d="m488.62 364.4-57.57.48c-.69-14.58 4.37-25.17 11.9-37.68 2.88-4.79 6.82-8.89 9.69-13.69a36.86 36.86 0 0 0 5.15-16.64c.15-2.34 0-4.87-1.43-6.72s-6.57-1.95-8.79-1a16.78 16.78 0 0 1 8.48-3.13c4.65-.39 42.71-.13 49.79-.07a21.83 21.83 0 0 1 5.05.82c5.16 2.67 6.22 9.7 5.49 14.76-.69 4.79-3.66 9.31-7.39 14.37a48.19 48.19 0 0 0 -3 4.52c-3.93 6.81-14.78 25.91-16.73 32.5a30.25 30.25 0 0 0 -.64 11.48z" fill="#fafafa"/><path d="m488.62 364.28-13.86.11-26.48.22-11.12.1h-3.72a9.66 9.66 0 0 1 -2.08 0c-.05 0-.28 0-.31 0s.08-1.07.07-1.19c0-.5 0-1 0-1.51q0-1.47.09-2.94a50.68 50.68 0 0 1 1.94-11.06c2.14-7.26 5.81-14 9.69-20.42 2.13-3.54 4.77-6.71 7.21-10a41.69 41.69 0 0 0 5.66-10.19 35.73 35.73 0 0 0 2.29-11.32c.07-2.48-.29-5.88-2.9-7a9.76 9.76 0 0 0 -3.75-.66c-.85 0-2.82-.11-3.55.48-.21.16-.1.22.05.18a1.61 1.61 0 0 0 .34-.24c.39-.26.8-.51 1.21-.73a17.33 17.33 0 0 1 4.45-1.67c3.1-.69 6.46-.49 9.62-.52 9.86-.08 19.73 0 29.6 0l11.39.07a26.62 26.62 0 0 1 5.34.51c3 .63 5 3.66 5.88 6.41a18.91 18.91 0 0 1 .5 9.27c-.76 3.91-2.91 7.41-5.14 10.65-2 2.92-4.09 5.74-5.87 8.82-1.22 2.15-2.44 4.29-3.65 6.45-2.89 5.16-5.73 10.36-8.37 15.67-2.27 4.55-4.46 9.06-4.81 14.22a30 30 0 0 0 .21 6.42c0 .16.27.09.24-.07a27.64 27.64 0 0 1 2.15-15.31c2.26-5.15 4.94-10.13 7.63-15.06q3.68-6.75 7.52-13.4c3.73-6.45 9.73-12.08 10.56-19.84.51-4.85-.61-12-5.7-14.17a15.11 15.11 0 0 0 -5.51-.81h-4.16c-9.69-.06-19.39-.11-29.08-.1-4.18 0-8.36 0-12.54.08-3.79.07-7.42.44-10.8 2.41a11.33 11.33 0 0 0 -1.33.88c-.09.07 0 .25.13.21a10.91 10.91 0 0 1 6.85-.1c3 1 3.35 4.6 3.23 7.35a36.88 36.88 0 0 1 -6.1 18.47c-1.78 2.7-3.84 5.21-5.77 7.81a79.63 79.63 0 0 0 -5 7.75 86.36 86.36 0 0 0 -7.24 15.27 52.06 52.06 0 0 0 -2.69 19.1.13.13 0 0 0 .13.13l19.45-.16 31-.26 7.11-.06a.13.13 0 1 0 -.01-.25z" fill="#263238"/><path d="m485.22 352.38c0 .15-10.15.26-22.68.26s-22.68-.11-22.68-.26 10.16-.26 22.68-.26 22.68.12 22.68.26z" fill="#263238"/><path d="m486.49 344.8c0 .14-10.15.26-22.68.26s-22.68-.12-22.68-.26 10.16-.26 22.68-.26 22.68.11 22.68.26z" fill="#263238"/><path d="m492.59 336.66c0 .14-10.16.26-22.68.26s-22.68-.12-22.68-.26 10.15-.26 22.68-.26 22.68.11 22.68.26z" fill="#263238"/><path d="m496.34 329.22c0 .14-10.15.26-22.68.26s-22.68-.12-22.68-.26 10.16-.26 22.68-.26 22.68.12 22.68.26z" fill="#263238"/><path d="m498.84 322.42c0 .14-10.15.26-22.67.26s-22.68-.12-22.68-.26 10.15-.26 22.68-.26 22.67.11 22.67.26z" fill="#263238"/><path d="m505 313.48c0 .15-10.15.26-22.68.26s-22.68-.11-22.68-.26 10.16-.26 22.68-.26 22.68.12 22.68.26z" fill="#263238"/><path d="m510.8 304.93c0 .14-10.15.26-22.68.26s-22.68-.12-22.68-.26 10.16-.26 22.68-.26 22.68.12 22.68.26z" fill="#263238"/><path d="m510.38 296.8c0 .14-10.15.26-22.67.26s-22.71-.12-22.71-.26 10.15-.26 22.68-.26 22.7.11 22.7.26z" fill="#263238"/><path d="m440.58 289.11a1.55 1.55 0 0 1 .31.22l.9.71 3.44 2.8.09.08-.08.09c-6.19 6.77-19.61 21.24-35.18 37.93-10.74 11.77-21.09 21.86-28.58 29.13-3.75 3.64-6.8 6.55-8.92 8.56l-2.46 2.3-.65.58-.23.19s.06-.08.19-.22l.62-.63 2.39-2.37 8.81-8.67c7.42-7.35 17.71-17.45 28.45-29.23 15.57-16.69 29.07-31.08 35.39-37.73v.17l-3.38-2.89-.86-.75a1.69 1.69 0 0 1 -.25-.27z" fill="#455a64"/><path d="m375.34 333.75h10.86s7.34-6.4 9-6.89c3.49-1.05 12.5-2.15 12.5-2.15l-6.15 6.68c-1.43 1.54-4.05 2.93-2.5 2.93h11.3s11.55-5.54 13.27-4.53c1.44.85 1.94 2.39.47 4.53s-11.6 7.2-12.77 7.59l-3.31 1 3.11 1 14.73-5.15c.95-.17 2.28-.33 2.71.23a2 2 0 0 1 -.08 2.85 62.54 62.54 0 0 1 -6.66 5.23s2.35 3.46.4 5.21-7.59 7-7.59 7-.59 2.92-2.34 4.28-21 1.36-22.39 1.36-9.15-4.47-9.15-4.47l-8.45-.63z" fill="#b78876"/><path d="m408.92 352.59a5.91 5.91 0 0 0 2.11.29 6.4 6.4 0 0 0 2.3-.41 13 13 0 0 0 2.51-1.33c1.67-1.09 3.16-2.09 4.23-2.84a9.48 9.48 0 0 0 1.68-1.28 10 10 0 0 0 -1.85 1c-1.12.67-2.64 1.64-4.31 2.72a13.51 13.51 0 0 1 -2.41 1.32 6.73 6.73 0 0 1 -2.16.48c-1.28.07-2.1-.02-2.1.05z" fill="#aa6550"/><path d="m408 359.8a2.4 2.4 0 0 0 1.47.82 5.41 5.41 0 0 0 4-.66 16.47 16.47 0 0 0 3.23-2.4c.74-.71 1.14-1.21 1.09-1.25a53.32 53.32 0 0 1 -4.54 3.25 5.52 5.52 0 0 1 -3.69.75 8.54 8.54 0 0 1 -1.56-.51z" fill="#aa6550"/><path d="m402.58 343.85a7.73 7.73 0 0 0 3.05-.24 7.62 7.62 0 0 0 2.89-1 16.63 16.63 0 0 0 -3 .55 15.34 15.34 0 0 0 -2.94.69z" fill="#aa6550"/><path d="m328.9 127.28a21.94 21.94 0 0 0 -30.13-8.28c-4.31 2.5-7.9 7-7.61 12 .27 4.7 3.77 8.49 7.07 11.84-5.26 2.19-7.89 8.85-6.17 14.27s7.14 9.25 12.8 9.77 11.37-1.94 15.46-5.9a31.09 31.09 0 0 0 8.08-14.78" fill="#263238"/><path d="m310.94 139.4a9.13 9.13 0 0 1 -2.88.73 13.61 13.61 0 0 1 -7.88-1.64 13.87 13.87 0 0 1 -4.31-3.61 13.38 13.38 0 0 1 -2.63-5.9 16 16 0 0 1 4.13-13.78 17.92 17.92 0 0 1 13.5-5.2 16.42 16.42 0 0 1 11 4.53 10.94 10.94 0 0 1 3.24 7.32 8.67 8.67 0 0 1 -.21 2.2c-.05.25-.13.43-.16.55s-.07.18-.08.18a12.34 12.34 0 0 0 .25-2.93 10.94 10.94 0 0 0 -3.3-7.06 16.13 16.13 0 0 0 -10.74-4.31 17.55 17.55 0 0 0 -13.11 5.08 15.59 15.59 0 0 0 -4 13.34 12.9 12.9 0 0 0 2.49 5.71 14 14 0 0 0 11.75 5.31 21.54 21.54 0 0 0 2.94-.52z" fill="#263238"/><path d="m317.4 143.76a3 3 0 0 1 -.69.44 12.27 12.27 0 0 1 -2 .91 17.14 17.14 0 0 1 -3.2.8 19.81 19.81 0 0 1 -4.05.14 18.78 18.78 0 0 1 -4-.75 17.54 17.54 0 0 1 -3.05-1.27 13.43 13.43 0 0 1 -1.87-1.2c-.41-.33-.62-.52-.6-.55s1 .62 2.64 1.42a19.5 19.5 0 0 0 3 1.14 19.6 19.6 0 0 0 7.82.59 19.79 19.79 0 0 0 3.15-.67c1.78-.54 2.8-1.09 2.85-1z" fill="#455a64"/><path d="m291.14 131.88a4.21 4.21 0 0 1 .4-1.2 6.91 6.91 0 0 1 2.12-2.74 10 10 0 0 1 4.87-1.64 24.09 24.09 0 0 1 6.27.3 33.07 33.07 0 0 1 10.71 3.69 27.73 27.73 0 0 1 2.9 1.85 5.06 5.06 0 0 1 1 .8 5.44 5.44 0 0 1 -1.09-.64c-.69-.42-1.69-1-3-1.68a35.81 35.81 0 0 0 -10.62-3.51 25 25 0 0 0 -6.13-.33 9.89 9.89 0 0 0 -4.7 1.46 6.92 6.92 0 0 0 -2.15 2.53 12.45 12.45 0 0 1 -.58 1.11z" fill="#455a64"/><path d="m321.68 151.94s0 .12-.14.34-.3.51-.54.9a16.54 16.54 0 0 1 -2.52 2.94 17.23 17.23 0 0 1 -4.82 3.12 17 17 0 0 1 -6.91 1.37 16.62 16.62 0 0 1 -6.87-1.51 12.81 12.81 0 0 1 -4.53-3.54 8.43 8.43 0 0 1 -1.67-3.5 5.65 5.65 0 0 1 -.13-1.05c0-.24 0-.36 0-.36s.06.5.3 1.36a9 9 0 0 0 1.77 3.32 12.88 12.88 0 0 0 4.44 3.34 16.53 16.53 0 0 0 6.68 1.42 17.12 17.12 0 0 0 6.71-1.29 17.4 17.4 0 0 0 4.76-3 24.22 24.22 0 0 0 3.47-3.86z" fill="#455a64"/><path d="m323.59 157.14a9.17 9.17 0 0 1 -1.1 1.33c-.74.82-1.84 2-3.3 3.33-.73.67-1.56 1.38-2.48 2.1a15.9 15.9 0 0 1 -11.51 3.69 14.26 14.26 0 0 1 -8.06-2.78 14.67 14.67 0 0 1 -4.23-5.55 12.87 12.87 0 0 1 -1.11-4.57 9.69 9.69 0 0 1 0-1.29 2 2 0 0 1 .07-.44 1.55 1.55 0 0 1 0 .45 9.27 9.27 0 0 0 .07 1.26 13.46 13.46 0 0 0 1.23 4.44 14.65 14.65 0 0 0 4.2 5.32 14 14 0 0 0 7.79 2.64 17 17 0 0 0 8.14-1.54 17.46 17.46 0 0 0 3.08-2c.92-.7 1.75-1.39 2.49-2 1.48-1.29 2.62-2.41 3.41-3.19a15.06 15.06 0 0 1 1.31-1.2z" fill="#455a64"/><path d="m332 126.68 1.46 1.15c-.59-2.48-3.37-4-5.91-3.78a8.56 8.56 0 0 0 -6.09 4.2 20.73 20.73 0 0 0 -2.45 7.22c-.78 4.2-1.17 8.68.5 12.6s6 7 10.12 6 6.43-5.51 7.05-9.71a23.57 23.57 0 0 0 -4.68-17.68z" fill="#407bff"/><path d="m326.27 145.7a6.36 6.36 0 0 1 -4 .86 8.42 8.42 0 0 1 -2.83-.63c-.73-.29-1-.84-.86-.85a3.47 3.47 0 0 0 1 .51 12.47 12.47 0 0 0 2.73.45 28.49 28.49 0 0 0 3.96-.34z" fill="#263238"/><path d="m328.3 138.28a21.33 21.33 0 0 1 -4.8.11 21.68 21.68 0 0 1 -4.78-.41 22.84 22.84 0 0 1 4.8-.11 23.23 23.23 0 0 1 4.78.41z" fill="#263238"/><path d="m326.7 130.35c0 .17-1.48 0-3.22-.2a7.72 7.72 0 0 0 -2.2.13c-.55.12-.88.26-.92.19s.24-.32.81-.55a5.63 5.63 0 0 1 2.34-.29 8.61 8.61 0 0 1 3.19.72z" fill="#263238"/><path d="m336.86 110.29c-.12-4.18 3.76-7.42 7.66-9s8.23-2.11 11.71-4.45c3.08-2.07 5.15-5.3 7.75-7.95a25.8 25.8 0 0 1 43.39 11.84c1.5 6 .48 13-4.22 17-5.46 4.6-13.56 3.58-20.55 2.15s-14.91-2.85-20.75 1.26c-3.52 2.48-5.54 6.51-7.7 10.24s-4.85 7.53-8.92 8.93-9.6-1-9.76-5.32" fill="#263238"/><path d="m337.14 112.59c.46 3.52-2.08 6.66-4.61 9.14s-5.38 5.11-5.83 8.62c-.52 4.11 2.47 8.15 1.6 12.19-.55 2.57-2.54 4.55-3.75 6.88a14.56 14.56 0 0 0 -.75 10.76c1 3.54 2.7 11.44 5.16 14.19 6.8 7.6 17.62 14.16 27.56 16.44s20.26 2.3 30.44 1.67c8.33-.51 17.91-.13 24.86-11.59 3.59-5.94 5.38-13.83 7.29-20.5 1.64-5.75 3.07-11.9 1.35-17.63-1-3.34-3-6.3-4-9.64-1.23-4.17-.78-8.64-1.28-13a29.72 29.72 0 0 0 -42.29-23.47" fill="#263238"/><path d="m351.31 208s0 .25.05.37z" fill="#b78876"/><path d="m411.22 127c-.78-11.95-8.74-26.61-20.65-25.32l-37.19 9.49a7 7 0 0 0 -6.25 7.12l4.08 87.71a11.8 11.8 0 0 0 1 4.32c2.76 6.08 11.94 21.55 31.86 15.29 4.88-1.53 7.11-6.87 8.07-12.35 0-.65.27-1.23.28-1.85a59 59 0 0 0 .15-12.32c.07-7.24.06-10.21.06-10.14s15.27-2.57 18.4-22.51c1.59-9.91 1.05-26.16.19-39.44z" fill="#b78876"/><path d="m405.23 140a2.55 2.55 0 0 1 -2.46 2.58 2.44 2.44 0 0 1 -2.64-2.3 2.55 2.55 0 0 1 2.45-2.58 2.45 2.45 0 0 1 2.65 2.3z" fill="#263238"/><path d="m407.71 135.46c-.32.33-2.26-1.1-5-1.09s-4.76 1.4-5.06 1.06c-.15-.15.18-.75 1.05-1.39a7.05 7.05 0 0 1 4.05-1.26 6.72 6.72 0 0 1 4 1.28c.83.64 1.12 1.25.96 1.4z" fill="#263238"/><path d="m378 140a2.54 2.54 0 0 1 -2.45 2.58 2.44 2.44 0 0 1 -2.64-2.3 2.54 2.54 0 0 1 2.45-2.58 2.44 2.44 0 0 1 2.64 2.3z" fill="#263238"/><path d="m380.67 136c-.32.33-2.26-1.1-5-1.08s-4.76 1.39-5.06 1.06c-.15-.15.17-.76 1-1.4a7.06 7.06 0 0 1 4.06-1.26 6.78 6.78 0 0 1 4 1.28c.87.68 1.16 1.28 1 1.4z" fill="#263238"/><path d="m390.7 156.41c0-.16 1.7-.46 4.47-.82.7-.07 1.36-.21 1.48-.69a3.61 3.61 0 0 0 -.47-2.08c-.67-1.7-1.36-3.48-2.09-5.35-2.9-7.61-5-13.86-4.7-14s2.91 6 5.81 13.57q1.05 2.82 2 5.38a4 4 0 0 1 .37 2.75 1.73 1.73 0 0 1 -1.15 1 4.6 4.6 0 0 1 -1.19.17c-2.79.21-4.52.22-4.53.07z" fill="#263238"/><path d="m392.67 189a50.71 50.71 0 0 1 -26.67-7.11s6.74 13.79 26.69 11.88z" fill="#aa6550"/><path d="m389.55 163a5 5 0 0 0 -4.45-1.83 4.55 4.55 0 0 0 -3.12 1.68 2.88 2.88 0 0 0 -.21 3.28 3.35 3.35 0 0 0 3.61.91 10.55 10.55 0 0 0 3.51-2.11 2.89 2.89 0 0 0 .78-.82.9.9 0 0 0 0-1" fill="#aa6550"/><path d="m382.61 158.33c.45 0 .46 3 3 5.07s5.74 1.78 5.76 2.2c0 .18-.71.58-2.05.62a7.4 7.4 0 0 1 -4.81-1.67 6.45 6.45 0 0 1 -2.34-4.25c-.1-1.25.23-1.99.44-1.97z" fill="#263238"/><path d="m381.9 131.21c-.27.75-3 .4-6.24.8s-5.84 1.28-6.27.61c-.19-.32.26-1 1.31-1.75a10.94 10.94 0 0 1 9.53-1.08c1.19.48 1.77 1.06 1.67 1.42z" fill="#263238"/><path d="m406.68 127.5c-.48.62-2.38 0-4.66 0s-4.2.43-4.65-.22c-.2-.32.11-.94.95-1.54a6.74 6.74 0 0 1 7.5.22c.81.59 1.07 1.23.86 1.54z" fill="#263238"/><path d="m339.47 176.73a17.69 17.69 0 0 0 21-19.57c-.62-4.89-3.26-9.88-1.56-14.51 2.24-6.12 10.83-8 13.11-14.12 1.33-3.56.14-7.71 1.64-11.19 1.41-3.28 4.85-5.16 8.21-6.38s6.95-2 9.76-4.23 4.57-6.32 2.76-9.39a188.79 188.79 0 0 0 -43.56 10.58c-3.25 1.22-6.67 2.68-8.59 5.57-2 3.06-1.94 7-1.77 10.68q1.25 26.85 2.5 53.7" fill="#263238"/><path d="m340.72 183.59a1.42 1.42 0 0 1 -.33-.21l-.88-.67c-.77-.61-1.91-1.5-3.3-2.74a34.9 34.9 0 0 1 -4.69-4.93 18.3 18.3 0 0 1 -3.73-8.21 12.47 12.47 0 0 1 2.57-10.48 39.33 39.33 0 0 1 4.65-4 10.84 10.84 0 0 0 3.62-4.94c1.47-4.07.82-8.77 1.39-13.58a27 27 0 0 1 5.65-13.74 18.57 18.57 0 0 1 5.91-4.83 36.68 36.68 0 0 1 7-2.35 16.19 16.19 0 0 0 6.12-3 24 24 0 0 0 4.45-4.9c2.5-3.55 4.35-7.34 6.74-10.5a22.36 22.36 0 0 1 3.93-4.17 15 15 0 0 1 4.65-2.54 10 10 0 0 1 8.86.88 8.16 8.16 0 0 1 3.14 6 6 6 0 0 1 -1.2 4.11 3.88 3.88 0 0 1 -.81.77c-.2.16-.31.23-.32.21s.08-.1.26-.27a4.59 4.59 0 0 0 .73-.82 5.9 5.9 0 0 0 1-4 7.84 7.84 0 0 0 -3.13-5.58 9.43 9.43 0 0 0 -8.37-.69 14.56 14.56 0 0 0 -4.43 2.47 22.4 22.4 0 0 0 -3.76 4.12c-2.31 3.11-4.13 6.89-6.66 10.54a24.89 24.89 0 0 1 -4.58 5.08 17.05 17.05 0 0 1 -6.4 3.19 36.27 36.27 0 0 0 -6.82 2.31 17.81 17.81 0 0 0 -5.64 4.61 26.32 26.32 0 0 0 -5.47 13.27c-.58 4.65.09 9.43-1.48 13.75a11.71 11.71 0 0 1 -3.89 5.25 40.16 40.16 0 0 0 -4.6 3.85 11.91 11.91 0 0 0 -2.5 9.9 18.17 18.17 0 0 0 3.51 8 37.82 37.82 0 0 0 4.52 5c1.36 1.26 2.46 2.2 3.19 2.85a9.2 9.2 0 0 1 1.1.99z" fill="#455a64"/><path d="m421.62 152.42a4.73 4.73 0 0 0 1.16-1.91 7.36 7.36 0 0 0 -1.14-5.85c-.69-1.11-1.62-2.21-2.56-3.46a12 12 0 0 1 -2.3-4.46 15.69 15.69 0 0 1 -.22-5.53c.21-1.91.59-3.85.84-5.83a22.73 22.73 0 0 0 -1.3-11.06 24.81 24.81 0 0 0 -4.77-7.81 22.71 22.71 0 0 0 -4.73-4c-1.24-.79-2-1.15-2-1.19a2.2 2.2 0 0 1 .55.22 14 14 0 0 1 1.51.8 21.39 21.39 0 0 1 4.9 3.93 24.5 24.5 0 0 1 4.95 7.89 22.91 22.91 0 0 1 1.37 11.29c-.25 2-.64 3.95-.85 5.82a15.22 15.22 0 0 0 .18 5.37 11.68 11.68 0 0 0 2.17 4.31c.92 1.25 1.85 2.38 2.54 3.53a7.42 7.42 0 0 1 1 6.11 3.92 3.92 0 0 1 -.89 1.47 2.05 2.05 0 0 1 -.41.36z" fill="#263238"/><path d="m602.87 383.82c-189.55 0-342.63.12-342.63.26s153.08.26 342.63.26z" fill="#263238"/><path d="m508.07 324.94h85.53v98h-85.53z" fill="#ebebeb"/><path d="m593.61 422.94s0-.17 0-.47 0-.78 0-1.37c0-1.21 0-3 0-5.3 0-4.64 0-11.41-.06-20 0-17.18-.07-41.65-.11-70.85l.23.23h-85.53l.26-.26v98l-.22-.22 62 .11 17.35.06h4.58 1.59-1.54-4.54l-17.3.05-62.16.12h-.22v-.22c0-28.17 0-61.86 0-98v-.26h.27 85.53.23v.23c-.05 29.26-.09 53.78-.12 71 0 8.58-.05 15.33-.06 20v5.25 1.34s-.18.56-.18.56z" fill="#263238"/><path d="m525.59 359.6c1-1.57 1.73-8.08 3.1-7.71 1.73.46-.71 7.37-.88 8s.74.87.87.3c.17-.83 2.12-8.94 3.82-8.32.94.34.33 2.06.33 2.06s-2.75 7.89-1.94 8.16 2.4-4.35 2.92-6 1.34-2 1.92-1.27-.88 5.45-1.35 7-1.87 5.87.55 4.27 4.87-2 5.59-1.6.45 1.49-.44 1.64a10.7 10.7 0 0 0 -2.69 1.14 10 10 0 0 0 -1.85 1.44 9 9 0 0 0 -1.84 2.36 5.63 5.63 0 0 1 -3.71 2.75l-.72 3-8.27-3.07 1.37-5.61a55.32 55.32 0 0 0 1.39-10c.4-4.24 1-4.22 1.43-4.06 1.06.33-.63 7.06.4 5.52z" fill="#ffbe9d"/><path d="m524.08 365.07a9.6 9.6 0 0 1 1.08.61 4.63 4.63 0 0 1 1.71 2.37 4.05 4.05 0 0 1 .18.88v.15l.13-.06a7.14 7.14 0 0 1 2.28-.61c.59-.06.95 0 .95-.07a2.71 2.71 0 0 0 -1-.06 6.57 6.57 0 0 0 -2.35.55l.14.09a4.58 4.58 0 0 0 -.18-.94 4.52 4.52 0 0 0 -.8-1.49 4.33 4.33 0 0 0 -1-.93 4.28 4.28 0 0 0 -.83-.42c-.19-.06-.31-.09-.31-.07z" fill="#eb996e"/><path d="m523.61 371.35a5.87 5.87 0 0 0 1.9 1.14 5.74 5.74 0 0 0 2.15.54c0-.06-1-.26-2.07-.73s-1.94-1-1.98-.95z" fill="#eb996e"/><path d="m521.2 412.82a9 9 0 0 0 4.94-2.09l13.34-11.27-.12 13-2.64.19.74 9.66h41.29v-.22a14.7 14.7 0 0 0 4.66-9c1-6.43 1.38-16.91 2.27-24.32.64-5.22-.51-12-5.15-14.44l-3.53-1.41-11.29-4.44-14.49.66-9.68 2.72c-2.68 1-5 4.23-6.65 6.6l-8.06 11.23c.09-1.84 3.42-12.9 3.64-13.39l-9.87-4.07s-10.17 22.61-8.8 32.38c1.1 8.12 9.4 8.21 9.4 8.21z" fill="#407bff"/><path d="m570.4 335.16a9.91 9.91 0 0 1 2.72 9.81v.08a33.89 33.89 0 0 1 -6 11.75c-.24.31-.62.65-1 .47s-.31-.43-.35-.7a28.12 28.12 0 0 1 .36-6.91 17.35 17.35 0 0 0 -.2-6.89 6.7 6.7 0 0 0 -4.56-4.8 7.3 7.3 0 0 0 -4.94.88c-1.52.78-2.86 1.86-4.31 2.76a9.4 9.4 0 0 1 -4.78 1.67 4.48 4.48 0 0 1 -4.19-2.42c-.67-1.57.22-3.74 1.9-4-1.53-.19-2.33-1.67-2.44-3.21 0 0 .1-2.61 3.88-2.43 0 0 .5-3.91 4.3-2.49 3.4 1.28 3.85 2.28 9.22 1.09 0 0 7.24-1.76 9.45 4.47z" fill="#263238"/><path d="m569.49 345.63-3.35 25.72a7.71 7.71 0 0 1 -9 6.6 7.73 7.73 0 0 1 -6.28-8.6c.26-1.94.46-3.55.48-3.75 0 0-6.47-1.47-6.1-8 .18-3.16 1.08-9.65 2-15.5a12.21 12.21 0 0 1 12.91-10.36h.63c6.72.91 9.76 7.14 8.71 13.89z" fill="#ffbe9d"/><path d="m551.31 365.5a15.26 15.26 0 0 0 8.69-1.83s-2.34 4.56-8.82 3.53z" fill="#eb996e"/><path d="m548 347c.11.13.85-.35 1.86-.27s1.7.62 1.82.51 0-.28-.35-.54a2.59 2.59 0 0 0 -1.45-.56 2.52 2.52 0 0 0 -1.49.37c-.32.18-.39.39-.39.49z" fill="#263238"/><path d="m557.69 347.52c.1.13.85-.35 1.85-.28s1.71.63 1.82.51 0-.27-.35-.53a2.52 2.52 0 0 0 -1.45-.56 2.42 2.42 0 0 0 -1.48.37c-.33.22-.45.43-.39.49z" fill="#263238"/><path d="m554.06 353.46a6.44 6.44 0 0 0 -1.61-.41c-.25 0-.49-.11-.52-.29a1.22 1.22 0 0 1 .22-.74l.89-1.91a32.85 32.85 0 0 0 2.06-5 33.31 33.31 0 0 0 -2.45 4.82c-.3.67-.59 1.3-.87 1.91a1.58 1.58 0 0 0 -.2 1 .64.64 0 0 0 .4.4 1.23 1.23 0 0 0 .43.09 6.19 6.19 0 0 0 1.65.13z" fill="#263238"/><path d="m557 354.36c-.16 0-.24 1.07-1.23 1.78s-2.14.51-2.15.66.24.23.73.28a2.76 2.76 0 0 0 1.8-.49 2.42 2.42 0 0 0 1-1.5c0-.45-.1-.73-.15-.73z" fill="#263238"/><path d="m558.23 342.31c.09.28 1.1.22 2.27.44s2.1.61 2.27.38-.07-.38-.44-.67a3.84 3.84 0 0 0 -1.65-.72 4 4 0 0 0 -1.8.09c-.45.17-.68.35-.65.48z" fill="#263238"/><path d="m549 342.51c.16.24.87.05 1.71.1s1.52.26 1.7 0 0-.35-.31-.58a2.31 2.31 0 0 0 -1.36-.47 2.36 2.36 0 0 0 -1.38.36c-.31.25-.43.47-.36.59z" fill="#263238"/><path d="m568.62 350.43c.12 0 4.59-1 4.13 3.44s-4.83 3.09-4.83 3 .7-6.44.7-6.44z" fill="#ffbe9d"/><path d="m569.46 355.28s.07.06.2.14a.78.78 0 0 0 .57.07 2 2 0 0 0 1.07-1.64 2.47 2.47 0 0 0 -.11-1.13.91.91 0 0 0 -.52-.66.4.4 0 0 0 -.48.17c-.07.12-.05.21-.08.22s-.09-.09 0-.27a.49.49 0 0 1 .2-.26.55.55 0 0 1 .44-.07 1.09 1.09 0 0 1 .74.77 2.54 2.54 0 0 1 .15 1.27 2 2 0 0 1 -1.33 1.81.84.84 0 0 1 -.7-.19c-.16-.12-.17-.22-.15-.23z" fill="#eb996e"/><path d="m545.89 340.64a9.46 9.46 0 0 0 8.52-1.32c1.68-1.23 3-3.09 5.07-3.56a5.36 5.36 0 0 1 4 .83 10.44 10.44 0 0 1 2.88 3c-1.49 3.24-.9 7-.28 10.51a1.82 1.82 0 0 0 .45 1.07 1.43 1.43 0 0 0 1.81-.27 5.52 5.52 0 0 0 1.41-2.83 18.29 18.29 0 0 0 .46-7.25 12.61 12.61 0 0 0 -3-6.56 11.9 11.9 0 0 0 -8.1-3.71 14.57 14.57 0 0 0 -8.66 2.43 8.59 8.59 0 0 0 -3 3" fill="#263238"/><path d="m561.27 350.76a.1.1 0 0 0 .13-.08.11.11 0 0 0 -.07-.15.11.11 0 0 0 -.14.09.11.11 0 0 0 .08.14z" fill="#eb996e"/><path d="m559.38 350.2a.14.14 0 0 0 .14-.11c0-.07 0-.15-.07-.16s-.12 0-.14.1a.13.13 0 0 0 .07.17z" fill="#eb996e"/><path d="m558.09 350.07c.06 0 .12-.05.14-.15s0-.19-.07-.2-.13.06-.15.16-.01.18.08.19z" fill="#eb996e"/><path d="m560.24 351.9c.06 0 .11 0 .11-.06s0-.07-.1-.08a.13.13 0 0 0 -.12.06s.05.08.11.08z" fill="#eb996e"/><path d="m558.51 351.37a.12.12 0 0 0 .13-.1.13.13 0 0 0 -.09-.15.12.12 0 0 0 -.13.11.12.12 0 0 0 .09.14z" fill="#eb996e"/><path d="m549.42 349.65a.13.13 0 0 0 .14-.09.11.11 0 0 0 -.07-.15.11.11 0 0 0 -.14.09.12.12 0 0 0 .07.15z" fill="#eb996e"/><path d="m548.12 349.44c.06 0 .12-.05.13-.12a.11.11 0 1 0 -.13.12z" fill="#eb996e"/><path d="m550.57 349.76a.11.11 0 0 0 .14-.07.11.11 0 1 0 -.14.07z" fill="#eb996e"/><path d="m549.51 351a.12.12 0 0 0 .16-.06.11.11 0 1 0 -.19-.1.11.11 0 0 0 .03.16z" fill="#eb996e"/><path d="m548.41 350.7a.1.1 0 0 0 .09-.11.1.1 0 0 0 -.12-.07.1.1 0 0 0 -.09.11.1.1 0 0 0 .12.07z" fill="#eb996e"/><path d="m555.39 335.56a4 4 0 0 1 -1.6 1.59 6.7 6.7 0 0 1 -9.6-2.49 3.93 3.93 0 0 1 -.62-2.17 21.15 21.15 0 0 0 .94 2 6.66 6.66 0 0 0 9.09 2.35c1.18-.66 1.72-1.35 1.79-1.28z" fill="#455a64"/><path d="m569.55 336.69a5.37 5.37 0 0 0 -2-2.26 6.32 6.32 0 0 0 -3.13-.91 15.73 15.73 0 0 0 -4.06.48 30.36 30.36 0 0 1 -4.12.76 8.13 8.13 0 0 1 -3.45-.37 5.18 5.18 0 0 1 -2-1.2 1.87 1.87 0 0 1 -.51-.68 6.87 6.87 0 0 0 2.63 1.53 8.41 8.41 0 0 0 3.29.24 33.93 33.93 0 0 0 4.06-.79 15.16 15.16 0 0 1 4.2-.45 6.4 6.4 0 0 1 3.3 1.08 4.51 4.51 0 0 1 1.55 1.75c.25.51.27.82.24.82z" fill="#455a64"/><path d="m571.67 342.11a4.86 4.86 0 0 1 -5.28-2.55 19.52 19.52 0 0 0 2.44 1.69 19.85 19.85 0 0 0 2.84.86z" fill="#455a64"/><path d="m571.12 345.06c0 .07-.39.05-1-.07a6.88 6.88 0 0 1 -2.18-.81 3.93 3.93 0 0 1 -1.59-1.76c-.23-.58-.18-1-.12-1s.16.34.45.81a4.63 4.63 0 0 0 1.53 1.48 11.93 11.93 0 0 0 2 .91c.59.22.93.38.91.44z" fill="#455a64"/><path d="m539.49 412.47c-.06 0-.11-6.59-.11-14.72s0-14.73.11-14.73.1 6.6.1 14.73-.04 14.72-.1 14.72z" fill="#263238"/><path d="m580.6 377.42a15.59 15.59 0 0 0 -2 0 9.23 9.23 0 0 0 -4.43 1.48 9.32 9.32 0 0 0 -3.09 3.49 18 18 0 0 0 -.73 1.83 2.77 2.77 0 0 1 .1-.53 7.67 7.67 0 0 1 .5-1.36 8.9 8.9 0 0 1 3.11-3.61 9 9 0 0 1 4.53-1.45 7.3 7.3 0 0 1 1.45.08 2.33 2.33 0 0 1 .56.07z" fill="#263238"/><path d="m526.72 388.26a5.58 5.58 0 0 1 -.05.62v1.69c0 1.42.31 3.38.41 5.57a10.8 10.8 0 0 1 -1 5.48 5.59 5.59 0 0 1 -1 1.38 3.09 3.09 0 0 1 -.47.4 7.86 7.86 0 0 0 1.34-1.85 11.11 11.11 0 0 0 1-5.4c-.1-2.17-.38-4.14-.35-5.58a13.46 13.46 0 0 1 .11-1.7c0-.2.06-.35.08-.45s-.08-.16-.07-.16z" fill="#263238"/><path d="m536.83 413.89.76 8.4h-4l-3.52-.06a25.24 25.24 0 0 1 -4 .11.45.45 0 0 1 -.18 0 3.62 3.62 0 0 1 -.62-.15c-.36-.13-.73-.36-.67-.76.17-1.2.89-1.3.89-1.3h.36v-.11c-.55 0-1 0-1.25 0s-.18 0-.19 0-1.4-.17-1.3-.91c.18-1.21.89-1.3.89-1.3l1.16-.08c-.56 0-1 0-1.29 0a.45.45 0 0 1 -.18 0s-1.41-.17-1.3-.91c.17-1.21.89-1.31.89-1.31l1-.06c-.46 0-.84 0-1 0s-.18 0-.19 0-1.4-.17-1.29-.91c.17-1.21.89-1.3.89-1.3s2.21-.16 3.73-.23c0 0 1.73-1.55 2.41-1.48 1 .11 6.91 2.29 6.91 2.29z" fill="#ffbe9d"/><path d="m529.38 419.83a8.62 8.62 0 0 1 -2 .18 7.38 7.38 0 0 1 -1.95-.06 8.29 8.29 0 0 1 2-.19 7.62 7.62 0 0 1 1.95.07z" fill="#eb996e"/><path d="m529.39 417.44a30.28 30.28 0 0 1 -5.6.2 15.81 15.81 0 0 1 2.79-.23 16 16 0 0 1 2.81.03z" fill="#eb996e"/><path d="m529.19 415a30.28 30.28 0 0 1 -5.6.2 15.81 15.81 0 0 1 2.79-.23 16 16 0 0 1 2.81.03z" fill="#eb996e" opacity=".78"/><path d="m525.72 412.74a4 4 0 0 0 .89.07l2.15.07 2.15.08a3.71 3.71 0 0 0 .89 0 3.55 3.55 0 0 0 -.88-.14c-.55-.05-1.31-.1-2.15-.13s-1.61 0-2.16 0a3.34 3.34 0 0 0 -.89.05z" fill="#eb996e"/><path d="m536.72 412.64h.14.4l1.55-.09 5.7-.35c4.82-.29 11.47-.71 18.81-1.08l3.94-.18h.09v-.1c.06-1.6.21-3.16.32-4.65s.25-2.93.37-4.29c.24-2.72.45-5.15.63-7.18s.33-3.64.42-4.77c0-.55.08-1 .11-1.29v-.33c0-.08 0-.11 0-.11a.66.66 0 0 0 0 .11v.33c0 .31-.08.73-.14 1.28-.11 1.13-.28 2.76-.48 4.77s-.42 4.45-.68 7.17c-.12 1.36-.25 2.8-.38 4.29s-.27 3.05-.34 4.67l.1-.1-3.94.17c-7.35.37-14 .82-18.81 1.15l-5.69.41-1.55.13h-.4z" fill="#263238"/></svg>