<svg xmlns="http://www.w3.org/2000/svg" xmlns:xlink="http://www.w3.org/1999/xlink" width="347" height="389" viewBox="0 0 347 389">
  <defs>
    <clipPath id="clip-path">
      <rect id="austin-distel-gUIJ0YszPig-unsplash" width="347" height="389" rx="8" transform="translate(509.5 3095)" fill="#225b83"/>
    </clipPath>
  </defs>
  <g id="how-we-work-ill-1" transform="translate(-509.5 -1778)">
    <rect id="austin-distel-gUIJ0YszPig-unsplash-2" data-name="austin-distel-gUIJ0YszPig-unsplash" width="347" height="389" rx="8" transform="translate(509.5 1778)" fill="#f26b1d"/>
    <text id="Identifying_the_project_scope" data-name="Identifying the 
project scope" transform="translate(539 2062)" fill="#fff" font-size="28" font-family="CircularStd-Bold, Circular Std" font-weight="700"><tspan x="0" y="0">Identifying the </tspan><tspan x="0" y="36">project scope</tspan></text>
    <text id="_01" data-name="01" transform="translate(539 2021)" fill="#fff" font-size="50" font-family="CircularStd-Bold, Circular Std" font-weight="700"><tspan x="0" y="0">01</tspan></text>
    <g id="Mask_Group_15" data-name="Mask Group 15" transform="translate(0 -1317)" clip-path="url(#clip-path)">
      <path id="Path_1235" data-name="Path 1235" d="M96,0A96,96,0,1,1,0,96,96,96,0,0,1,96,0Z" transform="translate(688 3062)" fill="#225b83"/>
    </g>
    <g id="noun_teamwork_220367" transform="translate(716.817 1788.56)">
      <g id="Group_668" data-name="Group 668" transform="translate(5 9.44)">
        <path id="Path_689" data-name="Path 689" d="M18.944,79.908c3.435,0,6.273-3.732,6.719-8.571a3.291,3.291,0,0,0-1.077.5s.768-4.554-.852-5.192A13.172,13.172,0,0,1,18.944,67.8a13.2,13.2,0,0,1-4.789-1.154c-1.62.638-.851,5.192-.851,5.192a3.259,3.259,0,0,0-1.079-.5C12.671,76.176,15.507,79.908,18.944,79.908Z" transform="translate(-3.38 3.389)" fill="none"/>
        <path id="Path_690" data-name="Path 690" d="M51.231,26.791c3.435,0,6.273-3.732,6.719-8.571a3.261,3.261,0,0,0-1.077.506s.768-4.554-.851-5.193a13.174,13.174,0,0,1-4.791,1.154,13.172,13.172,0,0,1-4.789-1.154c-1.62.639-.852,5.192-.852,5.193a3.261,3.261,0,0,0-1.077-.506C44.956,23.059,47.8,26.791,51.231,26.791Z" transform="translate(3.861 -8.522)" fill="none"/>
        <path id="Path_691" data-name="Path 691" d="M78.728,66.648c-1.618.638-.851,5.192-.851,5.192a3.266,3.266,0,0,0-1.077-.5c.444,4.839,3.283,8.571,6.719,8.571s6.272-3.732,6.717-8.571a3.279,3.279,0,0,0-1.077.5s.768-4.554-.852-5.192A13.162,13.162,0,0,1,83.519,67.8,13.165,13.165,0,0,1,78.728,66.648Z" transform="translate(11.101 3.389)" fill="none"/>
        <path id="Path_692" data-name="Path 692" d="M11.46,71.971c.006.075.012.147.018.219.49,5.54,3.732,9.821,7.656,9.821S26.3,77.73,26.791,72.19c.006-.072.012-.144.018-.219.036-.239.058-.484.072-.731.01-.169.016-.337.016-.509a8.815,8.815,0,0,0-.088-1.24,7.9,7.9,0,0,0-7.676-6.933,7.9,7.9,0,0,0-7.676,6.933,8.635,8.635,0,0,0-.088,1.24c0,.173.006.34.016.509C11.4,71.489,11.425,71.733,11.46,71.971Zm2.887-4.406a13.173,13.173,0,0,0,4.789,1.154,13.2,13.2,0,0,0,4.789-1.154c1.62.638.852,5.192.852,5.192a3.266,3.266,0,0,1,1.077-.5c-.446,4.839-3.283,8.571-6.719,8.571s-6.273-3.732-6.719-8.571a3.284,3.284,0,0,1,1.079.5S12.727,68.2,14.346,67.565Z" transform="translate(-3.572 2.472)" fill="#fff"/>
        <path id="Path_693" data-name="Path 693" d="M27.285,77.635a.437.437,0,0,1-.054-.007c-.143-.018-.286-.036-.432-.049,0,.016,0,.029,0,.044,0,.043-.01.083-.015.127a2.069,2.069,0,0,1-.212.7,51.447,51.447,0,0,1-4.635,7.545l-.3-4.247a2.494,2.494,0,0,0,1.012-.987,1.951,1.951,0,0,0,.268-.952,6.131,6.131,0,0,1-2.168.476c-.062,0-.125,0-.187,0s-.125,0-.187,0a6.14,6.14,0,0,1-2.168-.476,1.973,1.973,0,0,0,.268.952,2.489,2.489,0,0,0,1.014.987l-.3,4.247a51.672,51.672,0,0,1-4.636-7.545,2.1,2.1,0,0,1-.211-.7c0-.043-.012-.083-.015-.127,0-.015,0-.028,0-.044-.146.013-.289.031-.432.049a.382.382,0,0,1-.054.007A10.272,10.272,0,0,0,5,87.809c0,5.674,4.6,5.661,10.274,5.661h10.58c5.674,0,10.274.013,10.274-5.661A10.272,10.272,0,0,0,27.285,77.635Z" transform="translate(-5 5.84)" fill="#fff"/>
        <path id="Path_694" data-name="Path 694" d="M76.035,69.492a8.462,8.462,0,0,0-.089,1.24c0,.173.007.34.017.509.013.247.037.491.073.731,0,.075.011.147.018.219.488,5.54,3.73,9.821,7.658,9.821s7.167-4.281,7.655-9.821c.007-.072.015-.144.02-.219.034-.239.059-.484.073-.731.009-.169.016-.337.016-.509a8.636,8.636,0,0,0-.088-1.24,7.717,7.717,0,0,0-15.353,0Zm13.316,3.266a3.255,3.255,0,0,1,1.077-.5c-.446,4.839-3.283,8.571-6.717,8.571s-6.274-3.732-6.719-8.571a3.291,3.291,0,0,1,1.077.5s-.768-4.554.851-5.192a13.165,13.165,0,0,0,4.791,1.154A13.19,13.19,0,0,0,88.5,67.566C90.118,68.2,89.352,72.758,89.352,72.758Z" transform="translate(10.91 2.472)" fill="#fff"/>
        <path id="Path_695" data-name="Path 695" d="M91.859,77.635a.39.39,0,0,1-.053-.007c-.143-.018-.286-.036-.433-.049,0,.016,0,.029,0,.044,0,.043-.01.083-.015.127a2.04,2.04,0,0,1-.211.7,51.446,51.446,0,0,1-4.635,7.545l-.3-4.247a2.49,2.49,0,0,0,1.014-.987,1.964,1.964,0,0,0,.268-.952,6.131,6.131,0,0,1-2.168.476c-.064,0-.125,0-.186,0s-.126,0-.187,0a6.123,6.123,0,0,1-2.168-.476,1.948,1.948,0,0,0,.269.952,2.479,2.479,0,0,0,1.012.987l-.3,4.247a51.342,51.342,0,0,1-4.635-7.545,2.077,2.077,0,0,1-.212-.7c0-.043-.012-.083-.015-.127,0-.015,0-.028,0-.044-.146.013-.289.031-.432.049a.437.437,0,0,1-.054.007,10.273,10.273,0,0,0-8.843,10.174c0,5.674,4.6,5.661,10.274,5.661h10.58c5.674,0,10.274.013,10.274-5.661A10.27,10.27,0,0,0,91.859,77.635Z" transform="translate(9.481 5.84)" fill="#fff"/>
        <path id="Path_696" data-name="Path 696" d="M17.992,65.486a1.523,1.523,0,0,0,1.524-1.523v-9.9H95.524v9.9a1.523,1.523,0,1,0,3.046,0V52.545s0,0,0-.007a1.524,1.524,0,0,0-1.523-1.524H59.043V40.831a1.524,1.524,0,1,0-3.047,0V51.013h-38a1.524,1.524,0,0,0-1.524,1.524V63.963A1.523,1.523,0,0,0,17.992,65.486Z" transform="translate(-2.428 -2.742)" fill="#fff"/>
        <path id="Path_697" data-name="Path 697" d="M47.59,40.317H58.04c5.6,0,10.147.013,10.147-5.591a10.148,10.148,0,0,0-9.213-10.1c-.04,1.85-2.782,3.343-6.159,3.343s-6.119-1.494-6.158-3.343a10.149,10.149,0,0,0-9.214,10.1C37.443,40.33,41.986,40.317,47.59,40.317Z" transform="translate(2.275 -6.035)" fill="#fff"/>
        <path id="Path_698" data-name="Path 698" d="M43.746,18.856c0,.073.012.146.018.218.49,5.54,3.73,9.82,7.656,9.82s7.168-4.28,7.656-9.82c.007-.072.013-.146.02-.218.034-.24.058-.485.072-.731.01-.169.017-.339.017-.511a8.8,8.8,0,0,0-.088-1.24,7.716,7.716,0,0,0-15.352,0,8.61,8.61,0,0,0-.088,1.24c0,.171.006.34.016.511C43.689,18.371,43.712,18.616,43.746,18.856Zm2.887-4.407A13.163,13.163,0,0,0,51.422,15.6a13.183,13.183,0,0,0,4.791-1.154c1.618.639.851,5.192.851,5.193a3.261,3.261,0,0,1,1.077-.506c-.446,4.841-3.283,8.571-6.719,8.571s-6.273-3.732-6.719-8.571a3.261,3.261,0,0,1,1.077.506S45.013,15.087,46.633,14.448Z" transform="translate(3.669 -9.44)" fill="#fff"/>
      </g>
    </g>
  </g>
</svg>
