<svg xmlns="http://www.w3.org/2000/svg" xmlns:xlink="http://www.w3.org/1999/xlink" width="347" height="389" viewBox="0 0 347 389">
  <defs>
    <clipPath id="clip-path">
      <rect id="austin-distel-gUIJ0YszPig-unsplash" width="347" height="389" rx="8" transform="translate(509.5 3095)" fill="#6c63ff"/>
    </clipPath>
    <clipPath id="clip-path-2">
      <rect id="Rectangle_334" data-name="Rectangle 334" width="117" height="117" transform="translate(-0.159)" fill="#fff"/>
    </clipPath>
  </defs>
  <g id="process-ill-4" transform="translate(-509.5 -3095)">
    <rect id="austin-distel-gUIJ0YszPig-unsplash-2" data-name="austin-distel-gUIJ0YszPig-unsplash" width="347" height="389" rx="8" transform="translate(509.5 3095)" fill="#225b83"/>
    <text id="Design_Development" data-name="Design &amp; 
Development" transform="translate(539 3387)" fill="#fff" font-size="28" font-family="CircularStd-Bold, Circular Std" font-weight="700"><tspan x="0" y="0">Design &amp; </tspan><tspan x="0" y="36">Development</tspan></text>
    <text id="_04" data-name="04" transform="translate(539 3346)" fill="#fff" font-size="50" font-family="CircularStd-Bold, Circular Std" font-weight="700"><tspan x="0" y="0">04</tspan></text>
    <g id="Mask_Group_11" data-name="Mask Group 11" clip-path="url(#clip-path)">
      <circle id="Ellipse_126" data-name="Ellipse 126" cx="96" cy="96" r="96" transform="translate(688 3062)" fill="#f26b1d"/>
    </g>
    <g id="noun_projects_2473248" transform="translate(706.159 3075)">
      <g id="Group_685" data-name="Group 685" transform="translate(11 43)">
        <g id="Group_684" data-name="Group 684">
          <g id="Group_683" data-name="Group 683">
            <g id="Group_682" data-name="Group 682" clip-path="url(#clip-path-2)">
              <g id="Group_681" data-name="Group 681" transform="translate(6.186 16.385)">
                <g id="Group_670" data-name="Group 670" transform="translate(39.863 52.101)">
                  <g id="Group_669" data-name="Group 669" transform="translate(0)">
                    <rect id="Rectangle_328" data-name="Rectangle 328" width="42" height="31" transform="translate(-0.208 0.514)" fill="none"/>
                    <path id="Path_699" data-name="Path 699" d="M1011.029,1488.138l.874,3.636h-3.13v20.113h34.013v-20.113h-20.9l.921-3.682a.654.654,0,0,0,.276-.092h21.586a1.811,1.811,0,0,1,.966.276,1.66,1.66,0,0,1,.69.69,1.617,1.617,0,0,1,.23.921v23.933a1.617,1.617,0,0,1-.23.921,1.983,1.983,0,0,1-.69.69,1.812,1.812,0,0,1-.966.276h-14.636l1.519,2.209h7.364l1.2,2.163H1011.49l1.151-2.163h7.318l1.565-2.209h-14.636a1.661,1.661,0,0,1-.921-.276,1.438,1.438,0,0,1-.69-.69,1.66,1.66,0,0,1-.276-.921v-23.933a1.659,1.659,0,0,1,.276-.921,1.27,1.27,0,0,1,.69-.69,1.66,1.66,0,0,1,.921-.276h3.82A2.238,2.238,0,0,0,1011.029,1488.138Z" transform="translate(-1004.793 -1488)" fill="#fff" fill-rule="evenodd"/>
                  </g>
                </g>
                <g id="Group_672" data-name="Group 672" transform="translate(4.811 10.908)">
                  <g id="Group_671" data-name="Group 671" transform="translate(0)">
                    <rect id="Rectangle_329" data-name="Rectangle 329" width="37" height="46" transform="translate(-0.156 -0.293)" fill="none"/>
                    <path id="Path_700" data-name="Path 700" d="M246.372,605.7l1.887-11.138a1.356,1.356,0,0,1,.23-.6,1.437,1.437,0,0,1,.69-.69A1.66,1.66,0,0,1,250.1,593a.683.683,0,0,1,.322.046l26.511,4.372a1.356,1.356,0,0,1,.6.23,1.437,1.437,0,0,1,.69.69,1.66,1.66,0,0,1,.276.921.682.682,0,0,1-.046.322l-1.289,7.594-1.7-.46a1.013,1.013,0,0,0-.368-.046.925.925,0,0,0-.6.184.76.76,0,0,0-.46.46l-1.013,1.7,1.381-8.193-22.737-3.774-2.117,12.611C248.49,608.373,247.431,607.038,246.372,605.7Zm1.7,12.841-2.025,11.829,22.737,3.774,3.038-17.95,1.979,1.979a15.657,15.657,0,0,0-.138,2.071c0,.6.046,1.2.092,1.8l-3.176,3.176c-.092.092-.138.184-.23.276a1.47,1.47,0,0,0-.138.644,1.274,1.274,0,0,0,.138.6l2.716,4.787-.874,5.109a1.546,1.546,0,0,1-.23.644,1.981,1.981,0,0,1-1.611.967.683.683,0,0,1-.322-.046l-26.465-4.372a1.357,1.357,0,0,1-.6-.23,1.66,1.66,0,0,1-.69-.69,1.812,1.812,0,0,1-.276-.967.584.584,0,0,1,.046-.276l2.854-17.03C245.958,615.921,247.017,617.255,248.075,618.544Z" transform="translate(-241.859 -593)" fill="#fff" fill-rule="evenodd"/>
                  </g>
                </g>
                <g id="Group_674" data-name="Group 674" transform="translate(59.108 5.569)">
                  <g id="Group_673" data-name="Group 673" transform="translate(0)">
                    <rect id="Rectangle_330" data-name="Rectangle 330" width="42" height="42" transform="translate(-0.453 0.046)" fill="none"/>
                    <path id="Path_701" data-name="Path 701" d="M1436.954,504.385c0-.046.046-.092.092-.138a18.344,18.344,0,0,0,2.761,1.151,22.069,22.069,0,0,0,6.858,1.059h.322v0h.322l-.092,1.887.092-1.887h.276l-.23,1.887.23-1.887c.046,0,.046,0,.092.046l-.23,1.841.23-1.841h.046l-.23,1.841.23-1.841h.138l-.184,1.887.184-1.887h.184a1.773,1.773,0,0,1,.828.276,1.659,1.659,0,0,1,.69.69c0,.046.046.092.092.184a8.94,8.94,0,0,0,1.933,2.716,13.432,13.432,0,0,0,3.13,2.3,13.225,13.225,0,0,0,2.439,1.151,5.585,5.585,0,0,1-.46-.644,15.843,15.843,0,0,1-1.657-2.946,11.1,11.1,0,0,1-.552-1.611,6.84,6.84,0,0,1-.23-1.657,5.072,5.072,0,0,1,.092-.828,1.752,1.752,0,0,1,.23-.69,1.982,1.982,0,0,1,.69-.69c.046-.046.092-.046.184-.092a16.644,16.644,0,0,0,3.406-2.025,17.053,17.053,0,0,0,2.578-2.577,11.9,11.9,0,0,0,1.565-3.038,10.6,10.6,0,0,0,.6-3.406,11.974,11.974,0,0,0-.322-2.577,10.375,10.375,0,0,0-.921-2.347,9.971,9.971,0,0,0-1.473-2.163,11.024,11.024,0,0,0-1.979-1.887,17.112,17.112,0,0,0-5.385-2.808,21.644,21.644,0,0,0-6.858-1.059,22.067,22.067,0,0,0-6.858,1.059,17.766,17.766,0,0,0-5.339,2.762,16.174,16.174,0,0,0-2.025,1.933,9.789,9.789,0,0,0-1.427,2.163,10.375,10.375,0,0,0-.921,2.347,11.974,11.974,0,0,0-.322,2.577,11.207,11.207,0,0,0,.322,2.531,1.344,1.344,0,0,1,.092.414l-2.393.69a18.206,18.206,0,0,0-1.565-1.013,16.834,16.834,0,0,1-.23-2.623,13.975,13.975,0,0,1,1.657-6.72,13.894,13.894,0,0,1,1.933-2.808,14.147,14.147,0,0,1,2.531-2.439,21.064,21.064,0,0,1,6.536-3.452,27.4,27.4,0,0,1,16.017,0,21.847,21.847,0,0,1,6.582,3.452,17.879,17.879,0,0,1,2.531,2.393,22.249,22.249,0,0,1,1.933,2.854,21.155,21.155,0,0,1,1.243,3.222,14.561,14.561,0,0,1,.414,3.5,13.807,13.807,0,0,1-.782,4.6,15.748,15.748,0,0,1-2.117,4.1,17.379,17.379,0,0,1-3.314,3.314,17.047,17.047,0,0,1-3.038,1.933c0,.092.046.138.046.184.092.322.184.644.322,1.013a13.416,13.416,0,0,0,1.335,2.3,37.293,37.293,0,0,0,3.636,4.418,2.553,2.553,0,0,1,.276.368,1.617,1.617,0,0,1,.23.921,1.77,1.77,0,0,1-.23.967,2.464,2.464,0,0,1-.69.69,1.77,1.77,0,0,1-.967.23h-.046a17.276,17.276,0,0,1-4.695-.782,22.8,22.8,0,0,1-4.51-1.887,18.161,18.161,0,0,1-3.912-2.946,14.122,14.122,0,0,1-2.209-2.808h-.046a26.305,26.305,0,0,1-8.008-1.243,20.2,20.2,0,0,1-4.418-1.979Z" transform="translate(-1425.661 -477)" fill="#fff" fill-rule="evenodd"/>
                  </g>
                </g>
                <g id="Group_676" data-name="Group 676" transform="translate(34.365 19.745)">
                  <g id="Group_675" data-name="Group 675" transform="translate(0)">
                    <rect id="Rectangle_331" data-name="Rectangle 331" width="35" height="37" transform="translate(0.29 -0.13)" fill="none"/>
                    <path id="Path_702" data-name="Path 702" d="M916.933,809.21l-3.636,6.259-4.741-1.335a13.447,13.447,0,0,1-4.05,2.393l-1.335,5.063h-7.134l-1.2-5.017a15.147,15.147,0,0,1-4.326-2.531l-5.017,1.473-3.5-6.259,3.636-3.636a14.943,14.943,0,0,1,.092-4.741l-3.636-3.544,3.544-6.26,4.925,1.335a13.664,13.664,0,0,1,4.1-2.393L895.992,785l7.042.046,1.289,5.017a12.078,12.078,0,0,1,2.209,1.059,10.093,10.093,0,0,1,2.025,1.427V792.5l4.971-1.473,3.544,6.306-3.636,3.59a15.19,15.19,0,0,1-.092,4.787Zm-23.427-9.435a6.954,6.954,0,0,0,2.531,9.619,7.031,7.031,0,1,0-2.531-9.619Z" transform="translate(-881.956 -785)" fill="#fff" fill-rule="evenodd"/>
                  </g>
                </g>
                <g id="Group_678" data-name="Group 678" transform="translate(0 17.98)">
                  <g id="Group_677" data-name="Group 677" transform="translate(0 0)">
                    <rect id="Rectangle_332" data-name="Rectangle 332" width="22" height="27" transform="translate(-0.345 -0.365)" fill="none"/>
                    <path id="Path_703" data-name="Path 703" d="M141.575,757.781c-.138-.184-.276-.322-.414-.506-1.519-1.749,1.933-4.6,3.36-2.669.138.138.23.276.368.414Zm4.1-1.795,15.05,18.917c.46,1.749.967,3.544,1.427,5.293-1.519-.921-3.038-1.8-4.557-2.669-5.063-6.26-10.172-12.519-15.235-18.779Z" transform="translate(-140.489 -753.622)" fill="#fff" fill-rule="evenodd"/>
                  </g>
                </g>
                <g id="Group_680" data-name="Group 680" transform="translate(14.848)">
                  <g id="Group_679" data-name="Group 679">
                    <rect id="Rectangle_333" data-name="Rectangle 333" width="75" height="77" transform="translate(-0.193 -0.385)" fill="none"/>
                    <path id="Path_704" data-name="Path 704" d="M529.675,403.683c.875.506,1.749.921,2.623,1.335a34.925,34.925,0,0,1-1.979,6.214,38.52,38.52,0,0,1-4.741,8.377v-7.134a28.1,28.1,0,0,0,1.243-2.669,35.08,35.08,0,0,0,2.025-6.674Zm-20.666-40.641a9.345,9.345,0,0,0-1.2-.506,38.24,38.24,0,0,0-28.536,0,36.792,36.792,0,0,0-8.377,4.833l-4.879-.782a38.729,38.729,0,0,1,11.829-7.548,42.182,42.182,0,0,1,31.436,0,42.794,42.794,0,0,1,4.142,1.979A27.6,27.6,0,0,0,509.009,363.042Zm-47.5,49.386a36.388,36.388,0,0,0,6.352,8.745,35.773,35.773,0,0,0,11.414,7.548c.276.092.552.23.874.322v4.05c-.782-.276-1.565-.552-2.3-.874a39.437,39.437,0,0,1-12.657-8.377A38.744,38.744,0,0,1,457,411.691Z" transform="translate(-457 -356)" fill="#fff" fill-rule="evenodd"/>
                  </g>
                </g>
              </g>
            </g>
          </g>
        </g>
      </g>
    </g>
  </g>
</svg>
