<svg xmlns="http://www.w3.org/2000/svg" xmlns:xlink="http://www.w3.org/1999/xlink" width="347" height="389" viewBox="0 0 347 389">
  <defs>
    <clipPath id="clip-path">
      <rect id="austin-distel-gUIJ0YszPig-unsplash" width="347" height="389" rx="8" transform="translate(509.5 3095)" fill="#6c63ff"/>
    </clipPath>
  </defs>
  <g id="process-ill-2" transform="translate(-509.5 -2217)">
    <rect id="austin-distel-gUIJ0YszPig-unsplash-2" data-name="austin-distel-gUIJ0YszPig-unsplash" width="347" height="389" rx="8" transform="translate(509.5 2217)" fill="#225b83"/>
    <text id="Project_kickoff" data-name="Project kickoff" transform="translate(539 2537)" fill="#fff" font-size="28" font-family="CircularStd-Bold, Circular Std" font-weight="700"><tspan x="0" y="0">Project kickoff</tspan></text>
    <text id="_02" data-name="02" transform="translate(539 2496)" fill="#fff" font-size="50" font-family="CircularStd-Bold, Circular Std" font-weight="700"><tspan x="0" y="0">02</tspan></text>
    <g id="Mask_Group_14" data-name="Mask Group 14" transform="translate(0 -878)" clip-path="url(#clip-path)">
      <circle id="Ellipse_129" data-name="Ellipse 129" cx="96" cy="96" r="96" transform="translate(688 3062)" fill="#f26b1d"/>
    </g>
    <g id="noun_startup_2217258" transform="translate(728 2238.675)">
      <g id="Group_686" data-name="Group 686">
        <path id="Path_706" data-name="Path 706" d="M90.8,94.8,82.7,70.6V27.9a2.051,2.051,0,0,0-2.1-2.1h-19V19.3A16.425,16.425,0,0,0,57.8,8.9l-4.3-5a4.676,4.676,0,0,0-7,0l-4.3,5a15.879,15.879,0,0,0-3.8,10.4v6.5h-19a2.112,2.112,0,0,0-2.1,2.1V70.5L9.2,94.8a2.19,2.19,0,0,0,.3,1.9,2.227,2.227,0,0,0,1.7.9H88.9a1.965,1.965,0,0,0,1.7-.9A2.539,2.539,0,0,0,90.8,94.8ZM21.4,68.9v-19A4.163,4.163,0,0,1,25.8,52a2.365,2.365,0,0,0,1.3,1.1,2.016,2.016,0,0,0,1.7-.2,5.614,5.614,0,0,1,3.1-.9,5.864,5.864,0,0,1,5.7,4.5A2.433,2.433,0,0,0,38.9,58a2.091,2.091,0,0,0,1.9-.3,4.719,4.719,0,0,1,3-1,5.223,5.223,0,0,1,4.6,3.2,1.975,1.975,0,0,0,1.8,1.2h.1A1.889,1.889,0,0,0,52.1,60a5.8,5.8,0,0,1,5-3.3,6.874,6.874,0,0,1,2.4.5,2.1,2.1,0,0,0,2.7-.9,5.8,5.8,0,0,1,7.4-2.8,2.03,2.03,0,0,0,2.6-1.1A3.8,3.8,0,0,1,75.8,50a3.631,3.631,0,0,1,2.8,1.2V69.1H21.4ZM78.6,46.2a8.755,8.755,0,0,0-2.8-.6,8.192,8.192,0,0,0-6.5,3.3,9.973,9.973,0,0,0-9.8,3.8,9.623,9.623,0,0,0-7.2,1.1V44.5h2a3.336,3.336,0,0,0,3.1-2.3,24.814,24.814,0,0,1,3.5,1.3,3.4,3.4,0,0,0,3.1-.1,3.076,3.076,0,0,0,1.6-2.6l.5-5.2a8.224,8.224,0,0,0-1.5-5.5h14V46.2ZM41.3,30.4a2.121,2.121,0,0,0,1.2-1.9V19.3a11.525,11.525,0,0,1,2.9-7.7l4.3-5c.3-.3.5-.3.8,0l4.3,5a12.047,12.047,0,0,1,2.9,7.7v9.2a2.241,2.241,0,0,0,1.2,1.9l.7.3h0a4.616,4.616,0,0,1,2.6,4.4l-.4,4.2A29.634,29.634,0,0,0,56,37.6a2.155,2.155,0,0,0-1.7.5,1.99,1.99,0,0,0-.7,1.6v.7H46.9v-.7a2.36,2.36,0,0,0-.7-1.6,2.155,2.155,0,0,0-1.7-.5,24.067,24.067,0,0,0-5.8,1.7L38,35.2a4.3,4.3,0,0,1,2.6-4.4ZM35.4,30a8.5,8.5,0,0,0-1.5,5.6l.5,5.2A3.305,3.305,0,0,0,36,43.4a3.385,3.385,0,0,0,3.1.1,36.162,36.162,0,0,1,3.5-1.3,3.24,3.24,0,0,0,3.1,2.3h2.4v9.2a8.392,8.392,0,0,0-4.4-1.3,8.662,8.662,0,0,0-3.2.6,9.978,9.978,0,0,0-8.7-5.2,10.3,10.3,0,0,0-3.5.6,7.843,7.843,0,0,0-6.1-2.8,2.2,2.2,0,0,0-.8.1V30ZM14,93.4,20.9,73H79.2L86,93.4Z" fill="#fff"/>
        <path id="Path_707" data-name="Path 707" d="M60.8,81.1H39.2a2.1,2.1,0,0,0,0,4.2H60.8a2.112,2.112,0,0,0,2.1-2.1A2.258,2.258,0,0,0,60.8,81.1Z" fill="#fff"/>
        <circle id="Ellipse_125" data-name="Ellipse 125" cx="3.8" cy="3.8" r="3.8" transform="translate(46.2 19.2)" fill="#fff"/>
      </g>
    </g>
  </g>
</svg>
