<svg xmlns="http://www.w3.org/2000/svg" xmlns:xlink="http://www.w3.org/1999/xlink" width="347" height="389" viewBox="0 0 347 389">
  <defs>
    <clipPath id="clip-path">
      <rect id="austin-distel-gUIJ0YszPig-unsplash" width="347" height="389" rx="8" transform="translate(509.5 3095)" fill="#6c63ff"/>
    </clipPath>
  </defs>
  <g id="process-ill-3" transform="translate(-509.5 -2656)">
    <rect id="austin-distel-gUIJ0YszPig-unsplash-2" data-name="austin-distel-gUIJ0YszPig-unsplash" width="347" height="389" rx="8" transform="translate(509.5 2656)" fill="#225b83"/>
    <text id="Proof_of_Concept" data-name="Proof of Concept" transform="translate(539 2976)" fill="#fff" font-size="28" font-family="CircularStd-Bold, Circular Std" font-weight="700"><tspan x="0" y="0">Proof of Concept</tspan></text>
    <text id="_03" data-name="03" transform="translate(539 2930)" fill="#fff" font-size="50" font-family="CircularStd-Bold, Circular Std" font-weight="700"><tspan x="0" y="0">03</tspan></text>
    <g id="Mask_Group_12" data-name="Mask Group 12" transform="translate(0 -439)" clip-path="url(#clip-path)">
      <circle id="Ellipse_127" data-name="Ellipse 127" cx="96" cy="96" r="96" transform="translate(688 3062)" fill="#f26b1d"/>
    </g>
    <g id="noun_Project_1281269" transform="translate(725 2678.5)">
      <path id="Path_705" data-name="Path 705" d="M45.3,26.3H28.4a2.006,2.006,0,0,0-2,2V42.6a2.006,2.006,0,0,0,2,2H45.3a2.006,2.006,0,0,0,2-2V28.3A2.006,2.006,0,0,0,45.3,26.3Zm-2,14.3H30.4V30.3H43.3Zm28.5,2a2.006,2.006,0,0,1-2,2H56.7a2,2,0,0,1,0-4H69.9A1.988,1.988,0,0,1,71.8,42.6ZM54.7,28.3a2.006,2.006,0,0,1,2-2H69.9a2,2,0,0,1,0,4H56.7A2.006,2.006,0,0,1,54.7,28.3Zm17.1,7.1a2.006,2.006,0,0,1-2,2H56.7a2,2,0,0,1,0-4H69.9A1.988,1.988,0,0,1,71.8,35.4Zm23,55.1H72.9l-10.4-25H86.4a2.006,2.006,0,0,0,2-2V56.7a2.006,2.006,0,0,0-2-2h-.9V16.3h.9a2.006,2.006,0,0,0,2-2V7.5a2.006,2.006,0,0,0-2-2H13.6a2.006,2.006,0,0,0-2,2v6.8a2.006,2.006,0,0,0,2,2h1.3V54.8H13.6a2.006,2.006,0,0,0-2,2v6.8a2.006,2.006,0,0,0,2,2H36.7l-10.4,25H5.3a2,2,0,0,0,0,4H94.9a2.006,2.006,0,0,0,2-2A2.182,2.182,0,0,0,94.8,90.5Zm-26.2,0h-2l-10.4-25h2Zm-53-81H84.5v2.8H15.6Zm3.3,6.8H81.5V54.8H18.9ZM15.6,58.7H84.5v2.8H15.6ZM41,65.5h2l-10.4,25h-2Zm6.3,0h4.6l10.4,25H36.9Z" fill="#fff"/>
    </g>
  </g>
</svg>
