<svg xmlns="http://www.w3.org/2000/svg" xmlns:xlink="http://www.w3.org/1999/xlink" width="347" height="389" viewBox="0 0 347 389">
  <defs>
    <clipPath id="clip-path">
      <rect id="austin-distel-gUIJ0YszPig-unsplash" width="347" height="389" rx="8" transform="translate(509.5 3095)" fill="#6c63ff"/>
    </clipPath>
  </defs>
  <g id="process-ill-5" transform="translate(-509.5 -3534)">
    <rect id="austin-distel-gUIJ0YszPig-unsplash-2" data-name="austin-distel-gUIJ0YszPig-unsplash" width="347" height="389" rx="8" transform="translate(509.5 3534)" fill="#225b83"/>
    <text id="Maintanance_Support_Development" data-name="Maintanance &amp; 
Support Development" transform="translate(539 3818)" fill="#fff" font-size="28" font-family="CircularStd-Bold, Circular Std" font-weight="700"><tspan x="0" y="0">Maintanance &amp; </tspan><tspan x="0" y="36">Support Development</tspan></text>
    <text id="_05" data-name="05" transform="translate(539 3779)" fill="#fff" font-size="50" font-family="CircularStd-Bold, Circular Std" font-weight="700"><tspan x="0" y="0">05</tspan></text>
    <g id="Mask_Group_13" data-name="Mask Group 13" transform="translate(0 439)" clip-path="url(#clip-path)">
      <circle id="Ellipse_128" data-name="Ellipse 128" cx="96" cy="96" r="96" transform="translate(688 3062)" fill="#f26b1d"/>
    </g>
    <g id="Group_687" data-name="Group 687" transform="translate(-8219 -63)">
      <path id="Path_708" data-name="Path 708" d="M64.1,35.344H57.516a11.526,11.526,0,0,1-9.122-4.495,8.233,8.233,0,0,1-7.343,4.495H18V32.051a23.051,23.051,0,1,1,46.1,0ZM49.284,23.819a8.233,8.233,0,0,0,8.233,8.233h3.293a19.758,19.758,0,1,0-39.516,0H41.051a4.94,4.94,0,0,0,4.94-4.94V23.819Z" transform="translate(8952.404 3619.939)" fill="#fff"/>
      <path id="Path_709" data-name="Path 709" d="M26.526,41.112H18.754A3.754,3.754,0,0,1,15,37.357v-10.6A3.754,3.754,0,0,1,18.754,23h7.771ZM18.754,26.293a.477.477,0,0,0-.461.461v10.6a.477.477,0,0,0,.461.461h4.478V26.293Z" transform="translate(8950.465 3628.99)" fill="#fff"/>
      <path id="Path_710" data-name="Path 710" d="M49.771,41.112H42V23h7.771a3.754,3.754,0,0,1,3.754,3.754v10.6A3.754,3.754,0,0,1,49.771,41.112Zm-4.478-3.293h4.478a.477.477,0,0,0,.461-.461v-10.6a.477.477,0,0,0-.461-.461H45.293Z" transform="translate(8967.921 3628.99)" fill="#fff"/>
      <path id="Path_711" data-name="Path 711" d="M66.4,35.637H63.1V30.7a21.4,21.4,0,0,0-42.809,0v4.94H17V30.7a24.7,24.7,0,0,1,49.4,0Z" transform="translate(8951.758 3618)" fill="#fff"/>
      <path id="Path_712" data-name="Path 712" d="M39.758,56.693A16.35,16.35,0,0,1,29.879,53.4a13.056,13.056,0,0,1-1.1-.889,24.269,24.269,0,0,1-6.158-7.821A24.829,24.829,0,0,1,20,33.642V26.233H39.758a4.94,4.94,0,0,0,4.94-4.94V18h3.293a8.233,8.233,0,0,0,8.233,8.233h3.293v7.409a24.582,24.582,0,0,1-8.825,18.935,12.513,12.513,0,0,1-1.087.856,16.267,16.267,0,0,1-9.846,3.26ZM23.293,29.526v4.116a21.4,21.4,0,0,0,2.272,9.566,21.075,21.075,0,0,0,5.368,6.817,10.783,10.783,0,0,0,.889.724,13.172,13.172,0,0,0,15.839,0,7.756,7.756,0,0,0,.873-.708,21.273,21.273,0,0,0,7.689-16.4V29.526A11.526,11.526,0,0,1,47.1,25.031a8.233,8.233,0,0,1-7.343,4.495Z" transform="translate(8953.697 3625.758)" fill="#fff"/>
      <path id="Path_713" data-name="Path 713" d="M36.526,56.433,25,44.908V36l2.75,2.453a8.513,8.513,0,0,0,.84.692,13.172,13.172,0,0,0,15.839,0,7.755,7.755,0,0,0,.873-.708L48.051,36v8.941ZM28.293,43.557l8.233,8.233,8.233-8.233v-.708a16.712,16.712,0,0,1-16.465,0Z" transform="translate(8956.93 3637.395)" fill="#fff"/>
      <path id="Path_714" data-name="Path 714" d="M93.911,69.344H5V67.7A24.7,24.7,0,0,1,29.7,43h6.586V55.019l13.172-7.31,13.172,7.31V43h6.586a24.7,24.7,0,0,1,24.7,24.7ZM8.293,66.051H90.618a21.4,21.4,0,0,0-21.4-19.758H65.921V60.618L49.456,51.463,32.991,60.618V46.293H29.7A21.4,21.4,0,0,0,8.293,66.051Z" transform="translate(8944 3641.921)" fill="#fff"/>
      <path id="Path_715" data-name="Path 715" d="M22,62.822V46.176l6.586-6.586L41.165,52.169Zm3.293-15.3v9.7l10.472-5.812-7.179-7.179Z" transform="translate(8954.99 3639.716)" fill="#fff"/>
      <path id="Path_716" data-name="Path 716" d="M49.525,62.822,30.36,52.169,42.939,39.59l6.586,6.586ZM35.761,51.412l10.472,5.812v-9.7l-3.293-3.293Z" transform="translate(8960.396 3639.716)" fill="#fff"/>
      <path id="Path_717" data-name="Path 717" d="M48.465,41.879H33.647a1.646,1.646,0,1,1,0-3.293H48.465a4.94,4.94,0,0,0,4.94-4.94,1.647,1.647,0,1,1,3.293,0,8.233,8.233,0,0,1-8.233,8.233Z" transform="translate(8961.455 3634.809)" fill="#fff"/>
      <path id="Path_718" data-name="Path 718" d="M29.647,66.112A1.647,1.647,0,0,1,28,64.465V49.646a1.647,1.647,0,0,1,3.293,0V64.465A1.647,1.647,0,0,1,29.647,66.112Z" transform="translate(8958.869 3645.153)" fill="#fff"/>
      <path id="Path_719" data-name="Path 719" d="M35.647,66.112A1.647,1.647,0,0,1,34,64.465V49.646a1.647,1.647,0,0,1,3.293,0V64.465A1.647,1.647,0,0,1,35.647,66.112Z" transform="translate(8962.749 3645.153)" fill="#fff"/>
      <rect id="Rectangle_335" data-name="Rectangle 335" width="7" height="5" rx="1" transform="translate(8990 3672)" fill="#fff"/>
    </g>
  </g>
</svg>
