<svg height="578" viewBox="0 0 544.255 578" width="544.255" xmlns="http://www.w3.org/2000/svg" xmlns:xlink="http://www.w3.org/1999/xlink"><linearGradient id="a" gradientUnits="objectBoundingBox" x1="-83.542" x2="-82.619" y1="14.97" y2="15.862"><stop offset=".072" stop-color="#9ed7c4"/><stop offset=".973" stop-color="#729dae"/></linearGradient><linearGradient id="b" x1="-1.281" x2="2.448" xlink:href="#a" y1="-1.221" y2="2.383"/><linearGradient id="c" x1="-1.28" x2="2.447" xlink:href="#a" y1="-1.221" y2="2.383"/><linearGradient id="d" x1="0" x2="1" xlink:href="#a" y1=".5" y2=".5"/><filter id="e" filterUnits="userSpaceOnUse" height="89.444" width="120.057" x="126.769" y="417.012"><feOffset dy="6"/><feGaussianBlur result="blur" stdDeviation="3.5"/><feFlood flood-color="#191f49" flood-opacity=".451"/><feComposite in2="blur" operator="in"/><feComposite in="SourceGraphic"/></filter><linearGradient id="f" gradientUnits="objectBoundingBox" x1=".032" x2=".999" y1=".286" y2=".286"><stop offset=".12" stop-color="#d68e44"/><stop offset="1" stop-color="#ba5957"/></linearGradient><filter id="g" filterUnits="userSpaceOnUse" height="140.424" width="155.003" x="342.198" y="209.927"><feOffset dy="6"/><feGaussianBlur result="blur-2" stdDeviation="3.5"/><feFlood flood-color="#191f49" flood-opacity=".451"/><feComposite in2="blur-2" operator="in"/><feComposite in="SourceGraphic"/></filter><linearGradient id="h" x1="71.928" x2="67.833" xlink:href="#f" y1="38.591" y2="44.175"/><linearGradient id="i" x1="26.623" x2="25.147" xlink:href="#f" y1="14.591" y2="16.604"/><linearGradient id="j" x1="16.309" x2="15.429" xlink:href="#f" y1="9.127" y2="10.327"/><linearGradient id="k" x1="12.025" x2="11.393" xlink:href="#f" y1="6.858" y2="7.721"/><filter id="l" filterUnits="userSpaceOnUse" height="109.151" width="145.778" x="97.489" y="84.888"><feOffset dy="6"/><feGaussianBlur result="blur-3" stdDeviation="3.5"/><feFlood flood-color="#191f49" flood-opacity=".451"/><feComposite in2="blur-3" operator="in"/><feComposite in="SourceGraphic"/></filter><filter id="m" filterUnits="userSpaceOnUse" height="97.339" width="254.073" x="0" y="225.676"><feOffset dy="6"/><feGaussianBlur result="blur-4" stdDeviation="3.5"/><feFlood flood-color="#191f49" flood-opacity=".451"/><feComposite in2="blur-4" operator="in"/><feComposite in="SourceGraphic"/></filter><g transform="translate(-368.995 -108.213)"><path d="m692.546 674.592h-9.4a.232.232 0 1 1 0-.464h9.4a.232.232 0 0 1 0 .464zm-18.683 0h-9.277a.232.232 0 0 1 0-.464h9.277a.232.232 0 0 1 0 .464zm-18.555 0h-9.278a.232.232 0 1 1 0-.464h9.277a.232.232 0 0 1 0 .464zm-18.555 0h-9.277a.232.232 0 1 1 0-.464h9.277a.232.232 0 1 1 0 .464zm-18.555 0h-9.277a.232.232 0 0 1 0-.464h9.279a.232.232 0 0 1 0 .464zm-18.555 0h-9.277a.232.232 0 1 1 0-.464h9.277a.232.232 0 0 1 0 .464zm-18.555 0h-9.277a.232.232 0 0 1 0-.464h9.277a.232.232 0 0 1 0 .464zm-18.555 0h-9.277a.232.232 0 0 1 0-.464h9.277a.232.232 0 0 1 0 .464zm-18.555 0h-9.278a.232.232 0 1 1 0-.464h9.277a.232.232 0 0 1 0 .464zm-18.555 0h-9.277a.232.232 0 1 1 0-.464h9.277a.232.232 0 0 1 0 .464zm-18.555 0h-9.277a.232.232 0 1 1 0-.464h9.277a.232.232 0 1 1 0 .464zm-18.555 0h-9.277a.232.232 0 0 1 0-.464h9.277a.232.232 0 0 1 0 .464zm-18.546-.213h-.028a31.746 31.746 0 0 1 -8.991-2.407.229.229 0 0 1 -.121-.3.224.224 0 0 1 .3-.119 31.408 31.408 0 0 0 8.863 2.37.232.232 0 0 1 -.028.462zm231.929-1.13a.232.232 0 0 1 -.065-.455 32.994 32.994 0 0 0 8.357-3.794.232.232 0 1 1 .251.39 33.568 33.568 0 0 1 -8.483 3.851.25.25 0 0 1 -.065.008zm-248.706-6.149a.228.228 0 0 1 -.15-.056 30.772 30.772 0 0 1 -6.1-7.033.229.229 0 0 1 .072-.319.224.224 0 0 1 .319.072 30.357 30.357 0 0 0 6.009 6.927.232.232 0 0 1 -.15.408zm264.154-3.68a.224.224 0 0 1 -.154-.059.229.229 0 0 1 -.02-.325 26.925 26.925 0 0 0 4.818-7.785.243.243 0 0 1 .3-.13.232.232 0 0 1 .13.3 27.39 27.39 0 0 1 -4.9 7.918.227.227 0 0 1 -.175.083zm-273.862-11.783a.235.235 0 0 1 -.225-.174 29.853 29.853 0 0 1 -.915-7.339v-1.917a.232.232 0 1 1 .464 0v1.917a29.368 29.368 0 0 0 .9 7.224.231.231 0 0 1 -.165.282.227.227 0 0 1 -.059.007zm280.243-5.144a.232.232 0 0 1 -.232-.232v-9.277a.232.232 0 0 1 .464 0v9.277a.232.232 0 0 1 -.232.232zm-281.15-13.333a.232.232 0 0 1 -.232-.232v-9.277a.232.232 0 1 1 .464 0v9.277a.232.232 0 0 1 -.232.231zm281.15-5.222a.232.232 0 0 1 -.232-.232v-9.277a.232.232 0 0 1 .464 0v9.277a.232.232 0 0 1 -.232.231zm-281.15-13.338a.232.232 0 0 1 -.232-.232v-9.268a.232.232 0 1 1 .464 0v9.277a.232.232 0 0 1 -.232.223zm281.15-5.22a.232.232 0 0 1 -.232-.232v-9.279a.232.232 0 1 1 .464 0v9.279a.232.232 0 0 1 -.232.236zm-281.15-13.335a.232.232 0 0 1 -.232-.232v-9.273a.232.232 0 0 1 .464 0v9.277a.232.232 0 0 1 -.232.231zm281.15-5.22a.232.232 0 0 1 -.232-.232v-9.279a.232.232 0 1 1 .464 0v9.286a.232.232 0 0 1 -.232.228zm-281.15-13.335a.232.232 0 0 1 -.232-.232v-9.277a.232.232 0 0 1 .464 0v9.277a.232.232 0 0 1 -.232.235zm281.15-5.22a.232.232 0 0 1 -.232-.232v-9.279a.232.232 0 1 1 .464 0v9.279a.232.232 0 0 1 -.232.235zm-281.15-13.335a.232.232 0 0 1 -.232-.232v-9.277a.232.232 0 0 1 .464 0v9.277a.232.232 0 0 1 -.232.235zm281.15-5.222a.231.231 0 0 1 -.232-.232v-9.281a.232.232 0 0 1 .464 0v9.279a.231.231 0 0 1 -.232.237zm-281.15-13.333a.232.232 0 0 1 -.232-.232v-9.277a.232.232 0 1 1 .464 0v9.277a.232.232 0 0 1 -.232.234zm281.15-5.222a.231.231 0 0 1 -.232-.232v-9.276a.232.232 0 1 1 .464 0v9.279a.231.231 0 0 1 -.232.231zm-281.15-13.333a.232.232 0 0 1 -.232-.232v-9.277a.232.232 0 1 1 .464 0v9.277a.232.232 0 0 1 -.232.234zm281.15-5.222a.231.231 0 0 1 -.232-.232v-9.279a.232.232 0 1 1 .464 0v9.279a.231.231 0 0 1 -.232.229zm-281.15-13.333a.232.232 0 0 1 -.232-.232v-9.277a.232.232 0 0 1 .464 0v9.277a.232.232 0 0 1 -.232.233zm281.15-5.222a.231.231 0 0 1 -.232-.232v-9.279a.232.232 0 1 1 .464 0v9.279a.231.231 0 0 1 -.232.233zm-281.15-13.333a.232.232 0 0 1 -.232-.232v-9.277a.232.232 0 0 1 .464 0v9.277a.232.232 0 0 1 -.232.233zm281.15-5.222a.231.231 0 0 1 -.232-.232v-9.279a.232.232 0 0 1 .464 0v9.279a.231.231 0 0 1 -.232.233zm-281.15-13.333a.232.232 0 0 1 -.232-.232v-9.277a.232.232 0 0 1 .464 0v9.277a.232.232 0 0 1 -.232.232zm281.15-5.222a.231.231 0 0 1 -.232-.232v-9.279a.232.232 0 0 1 .464 0v9.279a.231.231 0 0 1 -.232.232zm-281.15-13.333a.232.232 0 0 1 -.232-.232v-9.273a.232.232 0 1 1 .464 0v9.277a.232.232 0 0 1 -.232.228zm281.15-5.222a.231.231 0 0 1 -.232-.232v-9.279a.232.232 0 1 1 .464 0v9.279a.231.231 0 0 1 -.232.232zm-281.15-13.333a.232.232 0 0 1 -.232-.232v-9.277a.232.232 0 1 1 .464 0v9.277a.232.232 0 0 1 -.232.232zm281.15-5.222a.231.231 0 0 1 -.232-.232v-9.279a.232.232 0 1 1 .464 0v9.283a.231.231 0 0 1 -.232.228zm-281.15-13.333a.232.232 0 0 1 -.232-.232v-9.277a.232.232 0 1 1 .464 0v9.277a.232.232 0 0 1 -.232.231zm281.15-5.222a.231.231 0 0 1 -.232-.232v-9.279a.232.232 0 0 1 .464 0v9.279a.231.231 0 0 1 -.232.231zm-281.15-13.333a.232.232 0 0 1 -.232-.232v-9.278a.232.232 0 1 1 .464 0v9.277a.232.232 0 0 1 -.232.232zm281.15-5.222a.231.231 0 0 1 -.232-.232v-9.279a.232.232 0 0 1 .464 0v9.279a.231.231 0 0 1 -.232.231zm-281.15-13.333a.232.232 0 0 1 -.232-.232v-9.277a.232.232 0 1 1 .464 0v9.277a.232.232 0 0 1 -.232.23zm281.15-5.222a.231.231 0 0 1 -.232-.232v-9.279a.232.232 0 0 1 .464 0v9.279a.231.231 0 0 1 -.232.23zm-281.15-13.333a.232.232 0 0 1 -.232-.232v-9.277a.232.232 0 1 1 .464 0v9.279a.232.232 0 0 1 -.232.228zm281.15-5.222a.232.232 0 0 1 -.232-.232v-9.276a.232.232 0 0 1 .464 0v9.279a.232.232 0 0 1 -.232.227zm-281.15-13.333a.232.232 0 0 1 -.232-.232v-9.277a.232.232 0 1 1 .464 0v9.277a.232.232 0 0 1 -.232.229zm281.15-5.222a.233.233 0 0 1 -.232-.232v-9.281a.232.232 0 0 1 .464 0v9.279a.233.233 0 0 1 -.232.231zm-281.15-13.333a.232.232 0 0 1 -.232-.232v-9.277a.232.232 0 1 1 .464 0v9.277a.232.232 0 0 1 -.232.229zm281.15-5.222a.232.232 0 0 1 -.232-.232v-9.279a.232.232 0 0 1 .464 0v9.279a.232.232 0 0 1 -.232.234zm-281.15-13.333a.232.232 0 0 1 -.232-.232v-9.277a.232.232 0 1 1 .464 0v9.277a.232.232 0 0 1 -.232.229zm281.15-5.222a.232.232 0 0 1 -.232-.232v-9.277a.232.232 0 0 1 .464 0v9.277a.232.232 0 0 1 -.232.229zm-281.15-13.333a.232.232 0 0 1 -.232-.232v-9.278a.232.232 0 1 1 .464 0v9.277a.232.232 0 0 1 -.232.229zm281.15-5.222a.232.232 0 0 1 -.232-.232v-9.277a.232.232 0 0 1 .464 0v9.277a.232.232 0 0 1 -.232.228zm-281.15-13.333a.232.232 0 0 1 -.232-.232v-9.283a.232.232 0 1 1 .464 0v9.279a.232.232 0 0 1 -.232.232zm281.15-5.222a.232.232 0 0 1 -.232-.232v-9.281a.232.232 0 0 1 .464 0v9.28a.232.232 0 0 1 -.232.229zm-281.15-13.333a.232.232 0 0 1 -.232-.232v-9.277a.232.232 0 1 1 .464 0v9.277a.232.232 0 0 1 -.232.232zm281.15-5.222a.232.232 0 0 1 -.232-.232v-9.279a.232.232 0 0 1 .464 0v9.279a.232.232 0 0 1 -.232.227zm-281.15-13.338a.232.232 0 0 1 -.232-.232v-9.279a.232.232 0 1 1 .464 0v9.279a.232.232 0 0 1 -.232.232zm281.15-5.222a.232.232 0 0 1 -.232-.232v-9.277a.232.232 0 1 1 .464 0v9.277a.232.232 0 0 1 -.232.232zm-281.15-13.333a.232.232 0 0 1 -.232-.232v-9.279a.232.232 0 1 1 .464 0v9.279a.232.232 0 0 1 -.232.231zm281.15-5.222a.232.232 0 0 1 -.232-.232v-9.277a.232.232 0 0 1 .464 0v9.277a.232.232 0 0 1 -.232.231zm-281.15-13.333a.232.232 0 0 1 -.232-.232v-9.279a.232.232 0 1 1 .464 0v9.281a.232.232 0 0 1 -.232.229zm281.15-5.222a.232.232 0 0 1 -.232-.232v-9.276a.232.232 0 0 1 .464 0v9.279a.232.232 0 0 1 -.232.228zm-281.15-13.333a.232.232 0 0 1 -.232-.232v-9.279a.232.232 0 1 1 .464 0v9.279a.232.232 0 0 1 -.232.231zm281.15-5.222a.232.232 0 0 1 -.232-.232v-8.006c0-.423-.005-.846-.018-1.266a.232.232 0 0 1 .224-.239h.006a.232.232 0 0 1 .234.225q.019.637.018 1.28v8.006a.232.232 0 0 1 -.232.231zm-281.1-13.332h-.013a.235.235 0 0 1 -.219-.245 29.709 29.709 0 0 1 2-9.093.234.234 0 0 1 .3-.13.231.231 0 0 1 .13.3 29.174 29.174 0 0 0 -1.973 8.948.232.232 0 0 1 -.223.219zm279.758-5.1a.237.237 0 0 1 -.224-.171 33.826 33.826 0 0 0 -3.557-8.466.232.232 0 0 1 .4-.238 34.34 34.34 0 0 1 3.608 8.581.231.231 0 0 1 -.163.284.234.234 0 0 1 -.062.006zm-273.1-11.886a.239.239 0 0 1 -.147-.054.23.23 0 0 1 -.031-.327 31.083 31.083 0 0 1 6.9-6.252.232.232 0 1 1 .258.386 30.664 30.664 0 0 0 -6.8 6.161.232.232 0 0 1 -.176.082zm263.664-3.791a.24.24 0 0 1 -.156-.059 29.414 29.414 0 0 0 -7.677-5 .231.231 0 1 1 .188-.423 29.911 29.911 0 0 1 7.8 5.077.232.232 0 0 1 -.156.4zm-248.447-6.349a.236.236 0 0 1 -.225-.165.233.233 0 0 1 .156-.288 32.1 32.1 0 0 1 9.214-1.349.232.232 0 1 1 0 .464 31.6 31.6 0 0 0 -9.078 1.329.214.214 0 0 1 -.067.009zm231.8-1.126h-.028a31.982 31.982 0 0 0 -3.658-.21h-5.586a.232.232 0 0 1 0-.464h5.586a32.528 32.528 0 0 1 3.712.213.232.232 0 0 1 -.026.462zm-18.55-.212h-9.277a.232.232 0 0 1 0-.464h9.277a.232.232 0 0 1 0 .464zm-18.555 0h-9.277a.232.232 0 0 1 0-.464h9.282a.232.232 0 0 1 0 .464zm-18.554 0h-9.279a.232.232 0 0 1 0-.464h9.279a.232.232 0 1 1 0 .464zm-18.555 0h-9.276a.232.232 0 0 1 0-.464h9.279a.232.232 0 0 1 0 .464zm-18.555 0h-9.279a.232.232 0 0 1 0-.464h9.279a.232.232 0 0 1 0 .464zm-18.556 0h-9.275a.232.232 0 1 1 0-.464h9.279a.232.232 0 0 1 0 .464zm-18.555 0h-9.279a.232.232 0 1 1 0-.464h9.279a.232.232 0 1 1 0 .464zm-18.555 0h-9.279a.232.232 0 0 1 0-.464h9.279a.232.232 0 0 1 0 .464zm-18.555 0h-9.279a.232.232 0 0 1 0-.464h9.279a.232.232 0 0 1 0 .464zm-18.555 0h-9.279a.232.232 0 0 1 0-.464h9.279a.232.232 0 0 1 0 .464zm-18.555 0h-9.279a.232.232 0 1 1 0-.464h9.279a.232.232 0 0 1 0 .464z" fill="#4738b3" transform="translate(57.456 11.621)"/><path d="m586.049 333.791a15.064 15.064 0 0 0 .872-8.755 10.637 10.637 0 0 0 -6.217-7.243c-4.487-2-10.051-.718-13.692 2.583a18.1 18.1 0 0 0 -5.5 13.228c-.043 4.912 1.67 9.282 4.276 13.45 2.539 4.057 6.825 9.635 9.8 13.543" fill="#d06288" transform="translate(159.606 178.527)"/><path d="m579.313 330.236a13.353 13.353 0 0 1 4.793-7.367 10.64 10.64 0 0 1 9.449-1.36c4.695 1.446 8.037 6.078 8.6 10.956a18.09 18.09 0 0 1 -4.567 13.577c-3.2 3.728-7.369 5.89-12.072 7.31-4.584 1.386-11.6 2.717-16.419 3.7" fill="#d06288" transform="translate(166.099 182.075)"/><path d="m627.881 284.72a7.109 7.109 0 1 1 7.109 7.109 7.11 7.11 0 0 1 -7.109-7.109z" fill="url(#a)" transform="translate(216.397 144.957)"/><path d="m666.671 214.641a1.76 1.76 0 1 1 -1.761-1.761 1.759 1.759 0 0 1 1.761 1.761z" fill="url(#b)" transform="translate(246.579 89.566)"/><g fill="url(#c)"><path d="m410.827 109.974a1.76 1.76 0 1 1 -1.761-1.761 1.76 1.76 0 0 1 1.761 1.761z" transform="translate(27.646)"/><path d="m656.288 309.489a5.888 5.888 0 1 1 -5.888-5.889 5.888 5.888 0 0 1 5.888 5.889z" opacity=".47" transform="translate(230.629 167.199)"/><path d="m427.6 392.459a5.888 5.888 0 1 1 -5.888-5.89 5.888 5.888 0 0 1 5.888 5.89z" opacity=".47" transform="translate(34.931 238.197)"/></g><g transform="translate(518.565 147.601)"><text fill="#fff" font-family="Montserrat-Bold, Montserrat" font-size="7" font-weight="700" letter-spacing=".1em" transform="translate(51.476 41.066)"><tspan x="0" y="0">LOREM</tspan><tspan font-family="Montserrat-Regular, Montserrat" font-weight="400" xml:space="preserve" y="0"> IPSUM</tspan></text><g fill="#4738b3"><path d="m487.267 658.01a30.956 30.956 0 0 1 -30.944-30.694l-3.958-465.1a31 31 0 0 1 30.695-31.216l183.168-1.559h.265a31 31 0 0 1 30.955 30.694l3.956 465.1a31 31 0 0 1 -30.694 31.221l-183.17 1.557zm179.226-527.644h-.258l-183.168 1.559a30.066 30.066 0 0 0 -29.775 30.285l3.958 465.1a30.028 30.028 0 0 0 30.016 29.773h.267l183.17-1.557a30.066 30.066 0 0 0 29.773-30.286l-3.956-465.1a30.069 30.069 0 0 0 -30.027-29.774z" transform="translate(-452.363 -129.438)"/><path d="m474.877 628.269a16.381 16.381 0 0 1 -16.36-16.225l-3.854-453.156a16.382 16.382 0 0 1 16.225-16.5l202.259-1.72h.139a16.385 16.385 0 0 1 16.364 16.226l3.856 453.156a16.385 16.385 0 0 1 -16.226 16.5l-202.26 1.718zm198.409-486.677h-.132l-202.259 1.72a15.455 15.455 0 0 0 -15.3 15.568l3.854 453.156a15.453 15.453 0 0 0 15.432 15.3h.135l202.261-1.718a15.457 15.457 0 0 0 15.3-15.57l-3.855-453.148a15.458 15.458 0 0 0 -15.436-15.308z" transform="translate(-450.397 -119.832)"/><path d="m509.518 139.9a2.8 2.8 0 0 1 -.024-5.606l34.57-.3a2.938 2.938 0 0 1 1.989.805 2.8 2.8 0 0 1 -1.941 4.8l-34.57.3zm34.57-4.973h-.017l-34.57.3a1.875 1.875 0 0 0 .017 3.75h.017l34.57-.3a1.875 1.875 0 0 0 -.017-3.75z" transform="translate(-405.854 -125.532)"/><path d="m547.175 142.018a4.558 4.558 0 0 1 -.041-9.115h.041a4.555 4.555 0 0 1 4.558 4.519 4.556 4.556 0 0 1 -4.519 4.6zm0-8.187h-.031a3.63 3.63 0 0 0 .031 7.26h.032a3.631 3.631 0 0 0 3.6-3.66 3.627 3.627 0 0 0 -3.63-3.6z" transform="translate(-375.131 -126.473)"/><path d="m483.762 142.557a4.558 4.558 0 0 1 -.039-9.115h.039a4.558 4.558 0 0 1 .037 9.115zm0-8.187h-.032a3.63 3.63 0 0 0 .032 7.26h.03a3.63 3.63 0 0 0 -.03-7.26z" transform="translate(-429.395 -126.012)"/><path d="m556.064 139.372a2.8 2.8 0 0 1 -.024-5.606h.024a2.8 2.8 0 0 1 .024 5.606zm0-4.678h-.017a1.875 1.875 0 0 0 .017 3.75h.017a1.875 1.875 0 0 0 -.017-3.75z" transform="translate(-366.022 -125.734)"/><path d="m490.936 139.926a2.8 2.8 0 0 1 -.024-5.606h.024a2.8 2.8 0 0 1 .024 5.606zm0-4.678h-.017a1.875 1.875 0 0 0 .017 3.75h.017a1.875 1.875 0 0 0 -.017-3.75z" transform="translate(-421.755 -125.26)"/><path d="m474.546 140.065a2.8 2.8 0 0 1 -.02-5.606 2.954 2.954 0 0 1 1.987.805 2.787 2.787 0 0 1 .837 1.974 2.8 2.8 0 0 1 -2.78 2.826zm0-4.678h-.015a1.877 1.877 0 0 0 -1.3 3.212 1.814 1.814 0 0 0 1.331.538 1.875 1.875 0 0 0 -.015-3.75z" transform="translate(-435.777 -125.141)"/><path d="m532.951 401.585h-.007l-10.2-.017a1.984 1.984 0 0 1 -1.976-1.98l.021-10.2a1.977 1.977 0 0 1 1.974-1.973h.006l10.2.017a1.98 1.98 0 0 1 1.974 1.982l-.02 10.2a1.971 1.971 0 0 1 -1.971 1.973zm-10.192-13.246a1.05 1.05 0 0 0 -1.047 1.047l-.021 10.2a1.055 1.055 0 0 0 1.05 1.052l10.207.017a1.03 1.03 0 0 0 .735-.3 1.043 1.043 0 0 0 .308-.742l.02-10.2a1.05 1.05 0 0 0 -1.049-1.052l-10.2-.017z" transform="translate(-393.831 91.317)"/><path d="m570.047 401.447-6.934-6.955 6.957-6.928.656.656-6.3 6.276 6.276 6.3z" transform="translate(-357.592 91.447)"/><path d="m576.094 392-12.626-.022v-.928l12.626.022z" transform="translate(-357.288 94.429)"/><path d="m479.656 400.848a1.259 1.259 0 0 1 -.609-.16 1.237 1.237 0 0 1 -.642-1.093l.019-10.086a1.247 1.247 0 0 1 1.909-1.058l8.091 5.057a1.249 1.249 0 0 1 -.005 2.121l-8.108 5.029a1.252 1.252 0 0 1 -.655.19zm.017-11.66a.348.348 0 0 0 -.158.041.316.316 0 0 0 -.163.28l-.019 10.086a.317.317 0 0 0 .167.282.312.312 0 0 0 .321-.007l8.109-5.031a.314.314 0 0 0 .152-.271.318.318 0 0 0 -.15-.273l-8.093-5.057a.307.307 0 0 0 -.167-.05z" transform="translate(-430.079 92.041)"/><g opacity=".15"><path d="m0 0h7.103v5.567h-7.103z" transform="matrix(.553 -.833 .833 .553 235.247 290.931)"/><path d="m582.675 286.224v.022a.034.034 0 0 0 .02.024l.009-.017-.011.015a.034.034 0 0 0 .048 0l-.019-.011c-.009-.009-.007-.02-.024-.028l-.006.007z" transform="translate(-340.856 4.728)"/><path d="m582.193 285.082.02.013c.009.007 0 .017.015.022l.006-.006.022.013a.035.035 0 0 0 -.015-.048l-.013.019.013-.019-.019-.007a.031.031 0 0 0 -.029.013z" transform="translate(-341.265 3.739)"/><path d="m581.2 287.138.011.03.024.013a.046.046 0 0 0 .031.009l.011-.032-.005-.011a.061.061 0 0 0 -.033-.037l-.024.007z" transform="translate(-342.117 5.486)"/><path d="m579.787 286.42-.006.015c0 .011.019.039.039.045a.034.034 0 0 0 .031-.011v-.026.007-.028c-.037-.03-.059-.009-.064-.002z" transform="translate(-343.329 4.884)"/><path d="m580.355 285.925h-.011a.064.064 0 0 0 -.039.026.07.07 0 0 0 0 .069l.021.013h.037l.019-.013.005-.007a.054.054 0 0 0 0-.074l-.011-.006z" transform="translate(-342.89 4.472)"/><path d="m580.539 286.478-.031.006a.044.044 0 0 0 -.006.033.048.048 0 0 0 .021.017l.026-.009c0-.007.019-.03 0-.046h-.013z" transform="translate(-342.713 4.942)"/><path d="m580.526 287.133v-.007l-.007.032a.047.047 0 0 0 .035.013.045.045 0 0 0 .026-.02v-.006l-.007-.024-.009-.013h-.033a.043.043 0 0 0 -.005.025z" transform="translate(-342.696 5.482)"/><path d="m579.668 285.528h-.026l-.011.007-.02.013v.028a.05.05 0 0 0 .041.013.038.038 0 0 0 .028-.015.035.035 0 0 0 -.012-.046z" transform="translate(-343.476 4.13)"/><path d="m579.836 285.941a.037.037 0 0 0 .009.048h.026a.042.042 0 0 0 .022-.017l.005-.009-.005-.022a.039.039 0 0 0 -.033-.013.038.038 0 0 0 -.024.013z" transform="translate(-343.285 4.471)"/><path d="m582.653 285.452a.041.041 0 0 0 -.033.011v.032a.057.057 0 0 0 .069-.011.025.025 0 0 0 0-.03h-.032z" transform="translate(-340.899 4.065)"/><path d="m581.839 284.921a.075.075 0 0 0 -.05-.05.079.079 0 0 0 -.072.017l-.013.028v.024.02.006a.1.1 0 0 0 .043.078.079.079 0 0 0 .071.009l.033-.035v-.028h.006a.072.072 0 0 0 -.018-.069z" transform="translate(-341.686 3.568)"/><path d="m582.142 285.783h-.011a.08.08 0 0 0 -.035.022.059.059 0 0 0 .011.071l.017.007h.037a.062.062 0 0 0 .033-.022v-.009-.017l-.008-.026-.009-.011-.015-.009h-.009z" transform="translate(-341.354 4.35)"/><path d="m581.044 284.281-.013.011a.073.073 0 0 0 0 .08l.009.009.02.009h.013a.069.069 0 0 0 .045-.03.061.061 0 0 0 .009-.05.073.073 0 0 0 -.039-.039h-.017z" transform="translate(-342.271 3.057)"/><path d="m580.748 284.737a.065.065 0 0 0 -.026.015l-.007.015v.035a.061.061 0 0 0 .013.024l.018.009h.035l.024-.013.007-.019v-.035a.044.044 0 0 0 -.015-.024l-.017-.007z" transform="translate(-342.529 3.453)"/><path d="m582.246 285.509-.024.013-.007.019v.037a.061.061 0 0 0 .035.037h.015l.022-.007.013-.009.015-.02v-.017l-.005-.028-.009-.015-.015-.009h-.015z" transform="translate(-341.247 4.112)"/><path d="m582.686 284.874h-.007a.037.037 0 0 0 -.041 0v.03l.009.013.033.006h.007a.052.052 0 0 0 .026-.019.025.025 0 0 0 0-.033l-.035.009z" transform="translate(-340.884 3.565)"/><path d="m581.238 283.84a.035.035 0 0 0 .007.052h.028a.04.04 0 0 0 .024-.009v-.033a.049.049 0 0 0 -.011-.022l-.019-.007a.059.059 0 0 0 -.029.019z" transform="translate(-342.089 2.667)"/><path d="m582.26 284.575a.042.042 0 0 0 .052-.006v-.026-.005a.048.048 0 0 0 -.028-.026h-.02a.038.038 0 0 0 -.004.063z" transform="translate(-341.22 3.263)"/><path d="m581.874 284.634-.011-.02-.015-.015a.058.058 0 0 0 -.076 0l-.007.018v.009a.048.048 0 0 0 .009.063l.009.006.017.006a.054.054 0 0 0 .067-.019.086.086 0 0 0 .011-.035z" transform="translate(-341.64 3.325)"/><path d="m582.041 284.733-.009.018v.03l.009.019a.079.079 0 0 0 .067.024.049.049 0 0 0 .041-.028l.006-.009v-.017l-.009-.026-.013-.013a.086.086 0 0 0 -.092.002z" transform="translate(-341.402 3.439)"/><path d="m582.087 284.061a.3.3 0 0 1 .041.085h.037a.114.114 0 0 0 -.017-.085.061.061 0 0 0 -.043-.03z" transform="translate(-341.355 2.851)"/><path d="m581.606 284.174v.026.006a.047.047 0 0 0 .028.026h.021l.007-.011a.038.038 0 0 0 0-.056h-.03a.034.034 0 0 0 -.026.009z" transform="translate(-341.769 2.962)"/><path d="m581.464 286.042a.073.073 0 0 0 -.044.007h-.02-.026-.007a.09.09 0 0 0 -.033.019l-.015.037v.028.015a.1.1 0 0 0 .045.05h.033l.022-.007.007-.007.032.006.03-.007.028-.026a.075.075 0 0 0 -.009-.1l-.033-.009z" transform="translate(-342.014 4.568)"/><path d="m580.818 286.063a.049.049 0 0 0 -.009.046.055.055 0 0 0 .03.032h.017.011.017l.018-.009.009-.013v-.011-.02-.011a.06.06 0 0 0 -.045-.031.058.058 0 0 0 -.048.017z" transform="translate(-342.451 4.566)"/><path d="m580.666 285.565a.1.1 0 0 0 -.017.046v.022l.009.02.017.019.033.024.035.007.026-.006.03-.02.03-.043.006-.035v-.028l-.022-.028a.1.1 0 0 0 -.147.022z" transform="translate(-342.586 4.129)"/><path d="m581.251 285.886-.022.007-.03.024a.1.1 0 0 0 0 .122v.007l.024.02.021.009h.031a.1.1 0 0 0 .054-.041.09.09 0 0 0 .011-.082.119.119 0 0 0 -.069-.069z" transform="translate(-342.132 4.438)"/><path d="m581.876 286.833v.035l.042.026.032-.015.006-.039a.085.085 0 0 0 .007-.045l-.019-.018a.058.058 0 0 0 -.05.033.041.041 0 0 1 -.018.023z" transform="translate(-341.538 5.201)"/><path d="m580.183 284.746v-.031l-.044.038h.031z" transform="translate(-343.024 3.437)"/><path d="m581.473 285.5-.005-.026-.021-.03-.015-.009-.03-.007-.033.006a.077.077 0 0 0 -.033.019l-.015.035v.03.015a.084.084 0 0 0 .045.048h.031l.022-.007.026-.019.015-.02z" transform="translate(-342.011 4.049)"/><path d="m581.716 285.572-.019-.009h-.028a.088.088 0 0 0 -.054.039.1.1 0 0 0 -.015.084l.02.028.022.015.031.006a.086.086 0 0 0 .065-.041.079.079 0 0 0 -.006-.1z" transform="translate(-341.774 4.159)"/><path d="m582.118 286.082a.035.035 0 0 0 .013.022l.03-.011a.038.038 0 0 0 .033-.015l.005-.011v-.019a.045.045 0 0 0 -.078.033z" transform="translate(-341.33 4.565)"/><path d="m581.9 286.162a.052.052 0 0 0 -.006.054.054.054 0 0 0 .043.031h.013l.019-.009.009-.007.015-.022v-.009-.022-.013a.057.057 0 0 0 -.046-.028.056.056 0 0 0 -.047.025z" transform="translate(-341.524 4.65)"/><path d="m580.828 286.711-.007.007a.032.032 0 0 0 -.006.03.037.037 0 0 0 .026.02h.009a.034.034 0 0 0 .022-.015.049.049 0 0 0 -.006-.052h-.035z" transform="translate(-342.445 5.137)"/><path d="m581.764 285.281-.019.013-.015.019a.144.144 0 0 0 0 .1l.017.024.017.013.022.009a.085.085 0 0 0 .082-.037.1.1 0 0 0 0-.1.1.1 0 0 0 -.089-.044z" transform="translate(-341.667 3.913)"/><path d="m580.464 285.1h-.009-.024l-.017.009-.008.009a.06.06 0 0 0 -.009.046.106.106 0 0 0 .048.056h.017.026l.015-.009v-.006a.079.079 0 0 0 .015-.059v-.008l-.006-.011-.005-.007a.063.063 0 0 0 -.043-.017z" transform="translate(-342.803 3.768)"/><path d="m581.251 285.392a.09.09 0 0 0 .046-.02l.015-.037v-.032l-.02-.035-.022-.015-.037-.006-.028.006-.03.028a.076.076 0 0 0 .007.1l.033.013z" transform="translate(-342.151 3.892)"/><path d="m582.8 284.059a.035.035 0 0 0 -.021.013l.017.013v.006c0 .011.022.009.024.007v-.007l.02.013a.03.03 0 0 0 -.009-.039.045.045 0 0 0 -.031-.006z" transform="translate(-340.761 2.874)"/><path d="m581.462 284.7-.032-.006-.024.006-.024.015-.013.017a.1.1 0 0 0 0 .132l.022.015.019.006h.028a.091.091 0 0 0 .056-.043.107.107 0 0 0 .017-.082.1.1 0 0 0 -.049-.06z" transform="translate(-341.99 3.418)"/><path d="m581.335 286.481a.053.053 0 0 0 -.026.013l-.007.019v.033a.067.067 0 0 0 .015.026l.019.006h.032l.026-.015.008-.017v-.035a.061.061 0 0 0 -.013-.024l-.019-.007z" transform="translate(-342.027 4.946)"/><path d="m580.554 284.223v-.015a.05.05 0 0 0 -.037-.039.035.035 0 0 0 -.039.013v.015a.05.05 0 0 0 .035.041.04.04 0 0 0 .041-.015z" transform="translate(-342.731 2.969)"/><path d="m580.02 285.624v.017a.08.08 0 0 0 .043.043l.022-.006a.042.042 0 0 0 -.015-.058.034.034 0 0 0 -.05.004z" transform="translate(-343.128 4.201)"/></g><path d="m557.188 262.36-90.931-.158v-.464l.158-90.465 90.929.156v.464zm-90-1.084 89.075.154.156-89.075-89.073-.152z" transform="translate(-440.474 -93.639)"/><path d="m0 0h127.283v.929h-127.283z" transform="matrix(.708 -.706 .706 .708 25.934 167.785)"/><path d="m0 0h.926v127.283h-.926z" transform="matrix(.708 -.706 .706 .708 26.075 78.425)"/><path d="m556.785 365.481h-.464l-90.467-.158v-.464l.124-72.769h.464l90.467.156v.464zm-90-1.086 89.075.158.124-71.379-89.075-.156z" transform="translate(-440.819 9.749)"/><path d="m0 0h115.448v.928h-115.448z" transform="matrix(.78084491 -.62472492 .62472492 .78084491 25.198 374.233)"/><path d="m0 0h.927v115.45h-.927z" transform="matrix(.6276506 -.77849517 .77849517 .6276506 25.333 302.666)"/><path d="m556.7 414.359h-.464l-90.467-.156v-.464l.126-72.771h.464l90.467.156v.464zm-90-1.084 89.075.156.126-71.379-89.075-.156z" transform="translate(-440.893 51.575)"/><path d="m0 0h115.45v.928h-115.45z" transform="matrix(.78084491 -.62472492 .62472492 .78084491 25.04 464.939)"/><path d="m555.807 414.208-89.878-72.462.584-.721 89.878 72.462z" transform="translate(-440.755 51.623)"/><path d="m562.08 166.036-59.062-.1.032-19.2 59.062.1zm-58.134-1.028 57.206.1.032-17.342-57.207-.1z" transform="translate(-409.017 -114.636)"/><path d="m604.253 173.634-80.244-.14v-.928l80.244.14z" transform="translate(-391.054 -92.531)"/><path d="m655.35 251.254-188.008-.326v-.928l188.008.326z" transform="translate(-439.546 -26.27)"/><path d="m655.339 257.193-188.008-.326v-.928l188.008.326z" transform="translate(-439.556 -21.188)"/><path d="m655.329 263.131-188.008-.326v-.928l188.008.326z" transform="translate(-439.564 -16.106)"/><path d="m655.318 269.07c-26.749-.048-161.261-.282-188.007-.327v-.928c26.747.044 161.259.278 188.007.327z" transform="translate(-439.572 -11.024)"/><path d="m655.309 275.009-188.009-.328v-.928l188.008.328z" transform="translate(-439.581 -5.943)"/><path d="m588.654 280.5-96.784-.169v-.931l96.784.169z" transform="translate(-418.557 -1.107)"/><path d="m604.246 177.41-80.246-.14v-.928l80.242.14z" transform="translate(-391.06 -89.3)"/><path d="m604.239 181.186h-.276l-79.963-.14v-.928l80.242.14z" transform="translate(-391.065 -86.069)"/><path d="m604.233 184.961-80.244-.139v-.928l80.244.139z" transform="translate(-391.072 -82.838)"/><path d="m604.226 188.737-80.242-.139v-.928l80.242.139z" transform="translate(-391.076 -79.607)"/><path d="m604.219 192.513-80.242-.139v-.928l80.242.139z" transform="translate(-391.081 -76.375)"/><path d="m548.765 196.593-24.558-.042v-.928l24.558.043z" transform="translate(-390.885 -72.801)"/><path d="m0 0h34.712v10.486h-34.712z" transform="matrix(.99999848 .00174533 -.00174533 .99999848 133.299 136.359)"/><path d="m581.869 213.639-33.182-.058.017-10.67 33.182.056zm-32.254-.984 31.326.054.017-8.817-31.327-.052z" transform="translate(-369.937 -66.565)"/><path d="m0 0h142.65v9.183h-142.65z" transform="matrix(1 .002 -.002 1 50.524 195.154)"/><path d="m0 0h57.122v6.531h-57.122z" transform="matrix(1 .002 -.002 1 129.366 315.813)"/><path d="m612.692 309.721-90.632-.158v-.928l90.632.158z" transform="translate(-392.722 23.906)"/><path d="m612.686 312.755-90.632-.158v-.928l90.632.158z" transform="translate(-392.727 26.503)"/><path d="m579.17 316.435-57.121-.1v-.928l57.121.1z" transform="translate(-392.732 29.701)"/><path d="m537.808 336.533-16.033-.026.028-16.032 16.03.026zm-15.106-.954 14.178.026.024-14.176-14.174-.026z" transform="translate(-392.966 34.038)"/><path d="m0 0h57.122v6.531h-57.122z" transform="matrix(.99999848 .00174533 -.00174533 .99999848 129.227 395.81)"/><path d="m612.618 352.829-90.633-.158v-.928l90.633.158z" transform="translate(-392.786 60.795)"/><path d="m612.612 355.863-90.632-.158v-.928l90.632.158z" transform="translate(-392.791 63.392)"/><path d="m579.095 359.544-57.121-.1v-.928l57.121.1z" transform="translate(-392.796 66.591)"/><path d="m537.731 379.642-16.03-.028.024-16.032 16.03.026zm-15.1-.956 14.174.028.024-14.178-14.174-.026z" transform="translate(-393.029 70.926)"/></g></g><g filter="url(#e)" transform="translate(369 108.21)"><path d="m0 0h99.057v68.444h-99.057z" fill="url(#d)" transform="translate(137.27 421.51)"/></g><path d="m675.084 363.02-5.62 64.831h-71.449l-12.725 20.915v-20.915h-19.079v-67.222z" fill="#946ccf" opacity=".45" transform="translate(163.624 216)"/><path d="m589.016 348.346 5.618 64.831h71.449l12.726 20.915v-20.915h19.081v-67.221z" fill="#946ccf" transform="translate(183.14 203.443)"/><path d="m614.213 366.778a3.317 3.317 0 1 1 -3.318-3.316 3.318 3.318 0 0 1 3.318 3.316z" fill="#ebebea" transform="translate(199.025 218.424)"/><path d="m625.085 366.778a3.317 3.317 0 1 1 -3.316-3.316 3.316 3.316 0 0 1 3.316 3.316z" fill="#ebebea" transform="translate(208.328 218.424)"/><path d="m635.956 366.778a3.316 3.316 0 1 1 -3.316-3.316 3.316 3.316 0 0 1 3.316 3.316z" fill="#ebebea" transform="translate(217.633 218.424)"/><g filter="url(#g)" transform="translate(369 108.21)"><path d="m692.464 228.658a3.493 3.493 0 0 1 2.821 5.35l-33.871 53.772-33.871 53.775a3.492 3.492 0 0 1 -6.044-.234l-29.634-56.221-29.634-56.219a3.492 3.492 0 0 1 3.223-5.118l63.5 2.448z" fill="url(#f)" transform="translate(-209.13 -9.33)"/></g><g opacity=".69"><path d="m466.295 154.263a7.642 7.642 0 1 1 -7.642 7.642 7.643 7.643 0 0 1 7.642-7.642z" fill="url(#h)" transform="translate(71.584 39.406)"/><path d="m454.5 182.051a31.981 31.981 0 0 1 31.943-31.941v-10.459a42.45 42.45 0 0 0 -42.4 42.4z" fill="url(#i)" transform="translate(59.08 26.902)"/><path d="m440.51 195.3a59.247 59.247 0 0 1 59.179-59.179v-11.952a71.21 71.21 0 0 0 -71.13 71.13z" fill="url(#j)" transform="translate(45.832 13.654)"/><path d="m426.424 208.141a86.207 86.207 0 0 1 86.108-86.109v-12.87a99.093 99.093 0 0 0 -98.981 98.979z" fill="url(#k)" transform="translate(32.989 .812)"/></g><path d="m580.318 393.372h-2.822" fill="none"/><g filter="url(#l)" transform="translate(369 108.21)"><path d="m0 0h124.778v88.151h-124.778z" fill="#4738b3" transform="translate(107.99 89.39)"/></g><path d="m440.31 214.357 24.783-23.8a3.852 3.852 0 0 1 4.825-.414l7.744 5.229a3.853 3.853 0 0 0 4.986-.577l20.352-22.017a3.855 3.855 0 0 1 6.181.713l22.953 40.446a3.855 3.855 0 0 1 -3.294 5.755l-85.8 1.3a3.853 3.853 0 0 1 -2.73-6.635z" fill="#29227f" opacity=".28" transform="translate(54.868 54.191)"/><path d="m462.213 174.4a5.169 5.169 0 1 1 -5.168-5.17 5.168 5.168 0 0 1 5.168 5.17z" fill="#29227f" opacity=".28" transform="translate(65.784 52.215)"/><path d="m547.471 237.429h-115.194v-78.176h115.194zm-113.339-1.856h111.484v-74.464h-111.483z" fill="#29227f" opacity=".28" transform="translate(49.014 43.676)"/><g transform="translate(379.495 338.389)"><g filter="url(#m)" transform="translate(-10.5 -230.18)"><path d="m0 0h233.073v76.339h-233.073z" fill="#eeeef3" transform="translate(10.5 230.18)"/></g><g fill="#29227f"><path d="m0 0h233.07v17.9h-233.07z" opacity=".1"/><path d="m23.298 32.371h182.624v1.856h-182.624z" opacity=".1"/><path d="m23.298 45.224h182.624v1.856h-182.624z" opacity=".1"/><path d="m23.298 58.078h182.624v1.856h-182.624z" opacity=".1"/></g><path d="m494.708 242.33-.312-.344 7.615-6.853.312.344z" fill="#4738b3" transform="translate(-277.325 -229.781)"/><path d="m502.366 242.336-8.1-6.853.3-.353 8.1 6.853z" fill="#4738b3" transform="translate(-277.433 -229.783)"/></g><path d="m453.638 380.139 19.394-18.168a3.072 3.072 0 0 1 3.776-.317l6.059 3.992a3.071 3.071 0 0 0 3.9-.44l15.933-16.806a3.057 3.057 0 0 1 4.834.544l17.963 30.872a2.939 2.939 0 0 1 -2.576 4.391l-67.146.991a2.932 2.932 0 0 1 -2.137-5.059z" fill="#29227f" opacity=".15" transform="translate(66.495 204.729)"/><ellipse cx="542.74" cy="552.861" fill="#29227f" opacity=".15" rx="4.045" ry="3.945"/><path d="m538.314 397.709h-90.55v-60.109h90.55zm-88.694-1.856h86.839v-56.4h-86.839z" fill="#29227f" opacity=".15" transform="translate(62.266 196.293)"/><path d="m375 305.338 1.636 91.136 107.721.016 5.27-100.579z" fill="#f0f3f5" transform="translate(0 160.618)"/><path d="m395.074 347.4s-4.547 38.391 11.762 38.811 35.222-4.467 35.222-4.467-30.169-2.4-31.872-7.432 2.411-22.452 2.411-22.452z" fill="#f0f3f5" transform="translate(16.679 204.676)"/><path d="m414.651 306.393-5.033 25.728-22.507 2.979 19.57 11.337-5.42 23.391 18.126-16.172 20.27 11.865-9.478-21.72 16.1-12.586-22.135-.721z" fill="#efd387" transform="translate(10.364 169.588)"/><path d="m691.382 132.764 6.707 80.923-95.472 9.656-13.675-88.673z" fill="#f0f3f5" transform="translate(183.076 21.009)"/><path d="m632.239 178.2s.583 26.817-10.709 26.021-24.028-5.434-24.028-5.434 20.994.354 22.506-3.008-.167-15.668-.167-15.668z" fill="#f0f3f5" transform="translate(190.401 59.893)"/><path d="m637.558 150.647a12.551 12.551 0 1 1 -13.417-11.621 12.549 12.549 0 0 1 13.417 11.621z" fill="#946ccf" transform="translate(203.225 26.339)"/><path d="m630.905 154.89h-1.982c-12.224 0-22.133 17.379-22.133 34.2l46.248-3.745c-2.583-18.281-9.907-30.455-22.133-30.455z" fill="#946ccf" transform="translate(198.349 39.942)"/><path d="m640.57 170.828a6.062 6.062 0 1 1 -6.063-6.061 6.061 6.061 0 0 1 6.063 6.061z" fill="#4738b3" transform="translate(216.881 48.394)"/><path d="m635.488 168.691h-2.052v-2.05h-1.066v2.05h-2.05v1.067h2.051v2.051h1.066v-2.051h2.052z" fill="#946ccf" transform="translate(218.484 49.998)"/></g></svg>