<svg xmlns="http://www.w3.org/2000/svg" xmlns:xlink="http://www.w3.org/1999/xlink" width="544.255" height="578" viewBox="0 0 544.255 578">
  <defs>
    <linearGradient id="linear-gradient" x1="-83.542" y1="14.97" x2="-82.619" y2="15.862" gradientUnits="objectBoundingBox">
      <stop offset="0.072" stop-color="#9ed7c4"/>
      <stop offset="0.973" stop-color="#729dae"/>
    </linearGradient>
    <linearGradient id="linear-gradient-2" x1="-1.281" y1="-1.221" x2="2.448" y2="2.383" xlink:href="#linear-gradient"/>
    <linearGradient id="linear-gradient-3" x1="-1.28" y1="-1.221" x2="2.447" y2="2.383" xlink:href="#linear-gradient"/>
    <linearGradient id="linear-gradient-4" x1="-1.28" y1="-1.221" x2="2.447" y2="2.383" xlink:href="#linear-gradient"/>
    <linearGradient id="linear-gradient-5" x1="-1.28" y1="-1.221" x2="2.447" y2="2.383" xlink:href="#linear-gradient"/>
    <linearGradient id="linear-gradient-6" x1="0" y1="0.5" x2="1" y2="0.5" xlink:href="#linear-gradient"/>
    <filter id="Rectangle_173" x="126.769" y="417.012" width="120.057" height="89.444" filterUnits="userSpaceOnUse">
      <feOffset dy="6" input="SourceAlpha"/>
      <feGaussianBlur stdDeviation="3.5" result="blur"/>
      <feFlood flood-color="#191f49" flood-opacity="0.451"/>
      <feComposite operator="in" in2="blur"/>
      <feComposite in="SourceGraphic"/>
    </filter>
    <linearGradient id="linear-gradient-7" x1="0.032" y1="0.286" x2="0.999" y2="0.286" gradientUnits="objectBoundingBox">
      <stop offset="0.12" stop-color="#d68e44"/>
      <stop offset="1" stop-color="#ba5957"/>
    </linearGradient>
    <filter id="Path_449" x="342.198" y="209.927" width="155.003" height="140.424" filterUnits="userSpaceOnUse">
      <feOffset dy="6" input="SourceAlpha"/>
      <feGaussianBlur stdDeviation="3.5" result="blur-2"/>
      <feFlood flood-color="#191f49" flood-opacity="0.451"/>
      <feComposite operator="in" in2="blur-2"/>
      <feComposite in="SourceGraphic"/>
    </filter>
    <linearGradient id="linear-gradient-8" x1="71.928" y1="38.591" x2="67.833" y2="44.175" xlink:href="#linear-gradient-7"/>
    <linearGradient id="linear-gradient-9" x1="26.623" y1="14.591" x2="25.147" y2="16.604" xlink:href="#linear-gradient-7"/>
    <linearGradient id="linear-gradient-10" x1="16.309" y1="9.127" x2="15.429" y2="10.327" xlink:href="#linear-gradient-7"/>
    <linearGradient id="linear-gradient-11" x1="12.025" y1="6.858" x2="11.393" y2="7.721" xlink:href="#linear-gradient-7"/>
    <filter id="Rectangle_174" x="97.489" y="84.888" width="145.778" height="109.151" filterUnits="userSpaceOnUse">
      <feOffset dy="6" input="SourceAlpha"/>
      <feGaussianBlur stdDeviation="3.5" result="blur-3"/>
      <feFlood flood-color="#191f49" flood-opacity="0.451"/>
      <feComposite operator="in" in2="blur-3"/>
      <feComposite in="SourceGraphic"/>
    </filter>
    <filter id="Rectangle_175" x="0" y="225.676" width="254.073" height="97.339" filterUnits="userSpaceOnUse">
      <feOffset dy="6" input="SourceAlpha"/>
      <feGaussianBlur stdDeviation="3.5" result="blur-4"/>
      <feFlood flood-color="#191f49" flood-opacity="0.451"/>
      <feComposite operator="in" in2="blur-4"/>
      <feComposite in="SourceGraphic"/>
    </filter>
  </defs>
  <g id="mobile-process" transform="translate(-368.995 -108.213)">
    <path id="Path_356" data-name="Path 356" d="M692.546,674.592h-9.4a.232.232,0,1,1,0-.464h9.4a.232.232,0,0,1,0,.464Zm-18.683,0h-9.277a.232.232,0,0,1,0-.464h9.277a.232.232,0,0,1,0,.464Zm-18.555,0H646.03a.232.232,0,1,1,0-.464h9.277a.232.232,0,0,1,0,.464Zm-18.555,0h-9.277a.232.232,0,1,1,0-.464h9.277a.232.232,0,1,1,0,.464Zm-18.555,0h-9.277a.232.232,0,0,1,0-.464H618.2a.232.232,0,0,1,0,.464Zm-18.555,0h-9.277a.232.232,0,1,1,0-.464h9.277a.232.232,0,0,1,0,.464Zm-18.555,0h-9.277a.232.232,0,0,1,0-.464h9.277a.232.232,0,0,1,0,.464Zm-18.555,0h-9.277a.232.232,0,0,1,0-.464h9.277a.232.232,0,0,1,0,.464Zm-18.555,0H534.7a.232.232,0,1,1,0-.464h9.277a.232.232,0,0,1,0,.464Zm-18.555,0h-9.277a.232.232,0,1,1,0-.464h9.277a.232.232,0,0,1,0,.464Zm-18.555,0h-9.277a.232.232,0,1,1,0-.464h9.277a.232.232,0,1,1,0,.464Zm-18.555,0h-9.277a.232.232,0,0,1,0-.464h9.277a.232.232,0,0,1,0,.464Zm-18.546-.213-.028,0a31.746,31.746,0,0,1-8.991-2.407.229.229,0,0,1-.121-.3.224.224,0,0,1,.3-.119,31.408,31.408,0,0,0,8.863,2.37.232.232,0,0,1-.028.462Zm231.929-1.13a.232.232,0,0,1-.065-.455A32.994,32.994,0,0,0,709.988,669a.232.232,0,1,1,.251.39,33.568,33.568,0,0,1-8.483,3.851A.25.25,0,0,1,701.691,673.249ZM452.99,667.1a.228.228,0,0,1-.15-.056,30.772,30.772,0,0,1-6.1-7.033.229.229,0,0,1,.072-.319.224.224,0,0,1,.319.072,30.357,30.357,0,0,0,6.009,6.927.232.232,0,0,1-.15.408Zm264.154-3.68a.224.224,0,0,1-.154-.059.229.229,0,0,1-.02-.325,26.925,26.925,0,0,0,4.818-7.785.243.243,0,0,1,.3-.13.232.232,0,0,1,.13.3,27.39,27.39,0,0,1-4.9,7.918A.227.227,0,0,1,717.143,663.422ZM443.282,651.637a.235.235,0,0,1-.225-.174,29.853,29.853,0,0,1-.915-7.339v-1.917a.232.232,0,1,1,.464,0v1.917a29.368,29.368,0,0,0,.9,7.224.231.231,0,0,1-.165.282A.227.227,0,0,1,443.282,651.637Zm280.243-5.144a.232.232,0,0,1-.232-.232v-9.277a.232.232,0,0,1,.464,0v9.277A.232.232,0,0,1,723.525,646.493Zm-281.15-13.333a.232.232,0,0,1-.232-.232v-9.277a.232.232,0,1,1,.464,0v9.277A.232.232,0,0,1,442.375,633.159Zm281.15-5.222a.232.232,0,0,1-.232-.232v-9.277a.232.232,0,0,1,.464,0v9.277A.232.232,0,0,1,723.525,627.937ZM442.375,614.6a.232.232,0,0,1-.232-.232V605.1a.232.232,0,1,1,.464,0v9.277A.232.232,0,0,1,442.375,614.6Zm281.15-5.22a.232.232,0,0,1-.232-.232v-9.279a.232.232,0,1,1,.464,0v9.279A.232.232,0,0,1,723.525,609.384Zm-281.15-13.335a.232.232,0,0,1-.232-.232V586.54a.232.232,0,0,1,.464,0v9.277A.232.232,0,0,1,442.375,596.048Zm281.15-5.22a.232.232,0,0,1-.232-.232v-9.279a.232.232,0,1,1,.464,0V590.6A.232.232,0,0,1,723.525,590.828Zm-281.15-13.335a.232.232,0,0,1-.232-.232v-9.277a.232.232,0,0,1,.464,0v9.277A.232.232,0,0,1,442.375,577.493Zm281.15-5.22a.232.232,0,0,1-.232-.232v-9.279a.232.232,0,1,1,.464,0v9.279A.232.232,0,0,1,723.525,572.273Zm-281.15-13.335a.232.232,0,0,1-.232-.232v-9.277a.232.232,0,0,1,.464,0v9.277A.232.232,0,0,1,442.375,558.938Zm281.15-5.222a.231.231,0,0,1-.232-.232V544.2a.232.232,0,0,1,.464,0v9.279A.231.231,0,0,1,723.525,553.716Zm-281.15-13.333a.232.232,0,0,1-.232-.232v-9.277a.232.232,0,1,1,.464,0v9.277A.232.232,0,0,1,442.375,540.382Zm281.15-5.222a.231.231,0,0,1-.232-.232V525.65a.232.232,0,1,1,.464,0v9.279A.231.231,0,0,1,723.525,535.16Zm-281.15-13.333a.232.232,0,0,1-.232-.232v-9.277a.232.232,0,1,1,.464,0v9.277A.232.232,0,0,1,442.375,521.827Zm281.15-5.222a.231.231,0,0,1-.232-.232v-9.279a.232.232,0,1,1,.464,0v9.279A.231.231,0,0,1,723.525,516.6Zm-281.15-13.333a.232.232,0,0,1-.232-.232v-9.277a.232.232,0,0,1,.464,0v9.277A.232.232,0,0,1,442.375,503.271Zm281.15-5.222a.231.231,0,0,1-.232-.232v-9.279a.232.232,0,1,1,.464,0v9.279A.231.231,0,0,1,723.525,498.049Zm-281.15-13.333a.232.232,0,0,1-.232-.232v-9.277a.232.232,0,0,1,.464,0v9.277A.232.232,0,0,1,442.375,484.716Zm281.15-5.222a.231.231,0,0,1-.232-.232v-9.279a.232.232,0,0,1,.464,0v9.279A.231.231,0,0,1,723.525,479.494ZM442.375,466.16a.232.232,0,0,1-.232-.232v-9.277a.232.232,0,0,1,.464,0v9.277A.232.232,0,0,1,442.375,466.16Zm281.15-5.222a.231.231,0,0,1-.232-.232v-9.279a.232.232,0,0,1,.464,0v9.279A.231.231,0,0,1,723.525,460.938Zm-281.15-13.333a.232.232,0,0,1-.232-.232V438.1a.232.232,0,1,1,.464,0v9.277A.232.232,0,0,1,442.375,447.605Zm281.15-5.222a.231.231,0,0,1-.232-.232v-9.279a.232.232,0,1,1,.464,0v9.279A.231.231,0,0,1,723.525,442.383ZM442.375,429.05a.232.232,0,0,1-.232-.232v-9.277a.232.232,0,1,1,.464,0v9.277A.232.232,0,0,1,442.375,429.05Zm281.15-5.222a.231.231,0,0,1-.232-.232v-9.279a.232.232,0,1,1,.464,0V423.6A.231.231,0,0,1,723.525,423.828Zm-281.15-13.333a.232.232,0,0,1-.232-.232v-9.277a.232.232,0,1,1,.464,0v9.277A.232.232,0,0,1,442.375,410.494Zm281.15-5.222a.231.231,0,0,1-.232-.232v-9.279a.232.232,0,0,1,.464,0v9.279A.231.231,0,0,1,723.525,405.272Zm-281.15-13.333a.232.232,0,0,1-.232-.232V382.43a.232.232,0,1,1,.464,0v9.277A.232.232,0,0,1,442.375,391.939Zm281.15-5.222a.231.231,0,0,1-.232-.232v-9.279a.232.232,0,0,1,.464,0v9.279A.231.231,0,0,1,723.525,386.717Zm-281.15-13.333a.232.232,0,0,1-.232-.232v-9.277a.232.232,0,1,1,.464,0v9.277A.232.232,0,0,1,442.375,373.383Zm281.15-5.222a.231.231,0,0,1-.232-.232v-9.279a.232.232,0,0,1,.464,0v9.279A.231.231,0,0,1,723.525,368.161Zm-281.15-13.333a.232.232,0,0,1-.232-.232v-9.277a.232.232,0,1,1,.464,0V354.6A.232.232,0,0,1,442.375,354.828Zm281.15-5.222a.232.232,0,0,1-.232-.232V340.1a.232.232,0,0,1,.464,0v9.279A.232.232,0,0,1,723.525,349.606Zm-281.15-13.333a.232.232,0,0,1-.232-.232v-9.277a.232.232,0,1,1,.464,0v9.277A.232.232,0,0,1,442.375,336.272Zm281.15-5.222a.233.233,0,0,1-.232-.232V321.54a.232.232,0,0,1,.464,0v9.279A.233.233,0,0,1,723.525,331.05Zm-281.15-13.333a.232.232,0,0,1-.232-.232v-9.277a.232.232,0,1,1,.464,0v9.277A.232.232,0,0,1,442.375,317.717Zm281.15-5.222a.232.232,0,0,1-.232-.232v-9.279a.232.232,0,0,1,.464,0v9.279A.232.232,0,0,1,723.525,312.5Zm-281.15-13.333a.232.232,0,0,1-.232-.232v-9.277a.232.232,0,1,1,.464,0v9.277A.232.232,0,0,1,442.375,299.162Zm281.15-5.222a.232.232,0,0,1-.232-.232v-9.277a.232.232,0,0,1,.464,0v9.277A.232.232,0,0,1,723.525,293.94Zm-281.15-13.333a.232.232,0,0,1-.232-.232V271.1a.232.232,0,1,1,.464,0v9.277A.232.232,0,0,1,442.375,280.606Zm281.15-5.222a.232.232,0,0,1-.232-.232v-9.277a.232.232,0,0,1,.464,0v9.277A.232.232,0,0,1,723.525,275.384Zm-281.15-13.333a.232.232,0,0,1-.232-.232V252.54a.232.232,0,1,1,.464,0v9.279A.232.232,0,0,1,442.375,262.051Zm281.15-5.222a.232.232,0,0,1-.232-.232V247.32a.232.232,0,0,1,.464,0V256.6A.232.232,0,0,1,723.525,256.829ZM442.375,243.5a.232.232,0,0,1-.232-.232v-9.277a.232.232,0,1,1,.464,0v9.277A.232.232,0,0,1,442.375,243.5Zm281.15-5.222a.232.232,0,0,1-.232-.232v-9.279a.232.232,0,0,1,.464,0v9.279A.232.232,0,0,1,723.525,238.273ZM442.375,224.94a.232.232,0,0,1-.232-.232v-9.279a.232.232,0,1,1,.464,0v9.279A.232.232,0,0,1,442.375,224.94Zm281.15-5.222a.232.232,0,0,1-.232-.232v-9.277a.232.232,0,1,1,.464,0v9.277A.232.232,0,0,1,723.525,219.718Zm-281.15-13.333a.232.232,0,0,1-.232-.232v-9.279a.232.232,0,1,1,.464,0v9.279A.232.232,0,0,1,442.375,206.384Zm281.15-5.222a.232.232,0,0,1-.232-.232v-9.277a.232.232,0,0,1,.464,0v9.277A.232.232,0,0,1,723.525,201.162Zm-281.15-13.333a.232.232,0,0,1-.232-.232v-9.279a.232.232,0,1,1,.464,0V187.6A.232.232,0,0,1,442.375,187.829Zm281.15-5.222a.232.232,0,0,1-.232-.232V173.1a.232.232,0,0,1,.464,0v9.279A.232.232,0,0,1,723.525,182.607Zm-281.15-13.333a.232.232,0,0,1-.232-.232v-9.279a.232.232,0,1,1,.464,0v9.279A.232.232,0,0,1,442.375,169.274Zm281.15-5.222a.232.232,0,0,1-.232-.232v-8.006c0-.423-.005-.846-.018-1.266a.232.232,0,0,1,.224-.239h.006a.232.232,0,0,1,.234.225q.019.637.018,1.28v8.006A.232.232,0,0,1,723.525,164.052Zm-281.1-13.332h-.013a.235.235,0,0,1-.219-.245,29.709,29.709,0,0,1,2-9.093.234.234,0,0,1,.3-.13.231.231,0,0,1,.13.3,29.174,29.174,0,0,0-1.973,8.948A.232.232,0,0,1,442.427,150.72Zm279.758-5.1a.237.237,0,0,1-.224-.171,33.826,33.826,0,0,0-3.557-8.466.232.232,0,0,1,.4-.238,34.34,34.34,0,0,1,3.608,8.581.231.231,0,0,1-.163.284A.234.234,0,0,1,722.185,145.617Zm-273.1-11.886a.239.239,0,0,1-.147-.054.23.23,0,0,1-.031-.327,31.083,31.083,0,0,1,6.9-6.252.232.232,0,1,1,.258.386,30.664,30.664,0,0,0-6.8,6.161A.232.232,0,0,1,449.087,133.731Zm263.664-3.791a.24.24,0,0,1-.156-.059,29.414,29.414,0,0,0-7.677-5,.231.231,0,1,1,.188-.423,29.911,29.911,0,0,1,7.8,5.077.232.232,0,0,1-.156.4ZM464.3,123.595a.236.236,0,0,1-.225-.165.233.233,0,0,1,.156-.288,32.1,32.1,0,0,1,9.214-1.349.232.232,0,1,1,0,.464,31.6,31.6,0,0,0-9.078,1.329A.214.214,0,0,1,464.3,123.595Zm231.8-1.126-.028,0a31.982,31.982,0,0,0-3.658-.21h-5.586a.232.232,0,0,1,0-.464h5.586a32.528,32.528,0,0,1,3.712.213.232.232,0,0,1-.026.462Zm-18.55-.212h-9.277a.232.232,0,0,1,0-.464h9.277a.232.232,0,0,1,0,.464Zm-18.555,0h-9.277a.232.232,0,0,1,0-.464H659a.232.232,0,0,1,0,.464Zm-18.554,0h-9.279a.232.232,0,0,1,0-.464h9.279a.232.232,0,1,1,0,.464Zm-18.555,0H612.61a.232.232,0,0,1,0-.464h9.279a.232.232,0,0,1,0,.464Zm-18.555,0h-9.279a.232.232,0,0,1,0-.464h9.279a.232.232,0,0,1,0,.464Zm-18.556,0H575.5a.232.232,0,1,1,0-.464h9.279a.232.232,0,0,1,0,.464Zm-18.555,0h-9.279a.232.232,0,1,1,0-.464h9.279a.232.232,0,1,1,0,.464Zm-18.555,0h-9.279a.232.232,0,0,1,0-.464h9.279a.232.232,0,0,1,0,.464Zm-18.555,0h-9.279a.232.232,0,0,1,0-.464h9.279a.232.232,0,0,1,0,.464Zm-18.555,0h-9.279a.232.232,0,0,1,0-.464h9.279a.232.232,0,0,1,0,.464Zm-18.555,0h-9.279a.232.232,0,1,1,0-.464H492a.232.232,0,0,1,0,.464Z" transform="translate(57.456 11.621)" fill="#4738b3"/>
    <g id="Group_284" data-name="Group 284" transform="translate(721.122 495.366)">
      <path id="Path_357" data-name="Path 357" d="M586.049,333.791a15.064,15.064,0,0,0,.872-8.755,10.637,10.637,0,0,0-6.217-7.243c-4.487-2-10.051-.718-13.692,2.583a18.1,18.1,0,0,0-5.5,13.228c-.043,4.912,1.67,9.282,4.276,13.45,2.539,4.057,6.825,9.635,9.8,13.543" transform="translate(-561.516 -316.839)" fill="#d06288"/>
      <path id="Path_358" data-name="Path 358" d="M579.313,330.236a13.353,13.353,0,0,1,4.793-7.367,10.64,10.64,0,0,1,9.449-1.36c4.695,1.446,8.037,6.078,8.6,10.956a18.09,18.09,0,0,1-4.567,13.577c-3.2,3.728-7.369,5.89-12.072,7.31-4.584,1.386-11.6,2.717-16.419,3.7" transform="translate(-555.023 -313.291)" fill="#d06288"/>
    </g>
    <path id="Path_359" data-name="Path 359" d="M627.881,284.72a7.109,7.109,0,1,1,7.109,7.109A7.11,7.11,0,0,1,627.881,284.72Z" transform="translate(216.397 144.957)" fill="url(#linear-gradient)"/>
    <path id="Path_360" data-name="Path 360" d="M666.671,214.641a1.76,1.76,0,1,1-1.761-1.761A1.759,1.759,0,0,1,666.671,214.641Z" transform="translate(246.579 89.566)" fill="url(#linear-gradient-2)"/>
    <path id="Path_361" data-name="Path 361" d="M410.827,109.974a1.76,1.76,0,1,1-1.761-1.761A1.76,1.76,0,0,1,410.827,109.974Z" transform="translate(27.646 0)" fill="url(#linear-gradient-3)"/>
    <path id="Path_362" data-name="Path 362" d="M656.288,309.489A5.888,5.888,0,1,1,650.4,303.6,5.888,5.888,0,0,1,656.288,309.489Z" transform="translate(230.629 167.199)" opacity="0.47" fill="url(#linear-gradient-4)"/>
    <path id="Path_363" data-name="Path 363" d="M427.6,392.459a5.888,5.888,0,1,1-5.888-5.89A5.888,5.888,0,0,1,427.6,392.459Z" transform="translate(34.931 238.197)" opacity="0.47" fill="url(#linear-gradient-5)"/>
    <g id="Group_384" data-name="Group 384" transform="translate(518.565 147.601)">
      <text id="LOREM_IPSUM" data-name="LOREM IPSUM" transform="translate(51.476 41.066)" fill="#fff" font-size="7" font-family="Montserrat-Bold, Montserrat" letter-spacing="0.1em" font-weight="700"><tspan x="0" y="0">LOREM</tspan><tspan y="0" xml:space="preserve" font-family="Montserrat-Regular, Montserrat" font-weight="400"> IPSUM</tspan></text>
      <g id="Group_383" data-name="Group 383">
        <g id="Group_300" data-name="Group 300">
          <g id="Group_293" data-name="Group 293">
            <g id="Group_285" data-name="Group 285">
              <path id="Path_364" data-name="Path 364" d="M487.267,658.01a30.956,30.956,0,0,1-30.944-30.694l-3.958-465.1A31,31,0,0,1,483.06,131l183.168-1.559h.265a31,31,0,0,1,30.955,30.694l3.956,465.1a31,31,0,0,1-30.694,31.221l-183.17,1.557ZM666.493,130.366h-.258l-183.168,1.559a30.066,30.066,0,0,0-29.775,30.285l3.958,465.1a30.028,30.028,0,0,0,30.016,29.773l.267,0,183.17-1.557a30.066,30.066,0,0,0,29.773-30.286l-3.956-465.1A30.069,30.069,0,0,0,666.493,130.366Z" transform="translate(-452.363 -129.438)" fill="#4738b3"/>
            </g>
            <g id="Group_286" data-name="Group 286" transform="translate(4.265 20.832)">
              <path id="Path_365" data-name="Path 365" d="M474.877,628.269a16.381,16.381,0,0,1-16.36-16.225l-3.854-453.156a16.382,16.382,0,0,1,16.225-16.5l202.259-1.72.139,0a16.385,16.385,0,0,1,16.364,16.226l3.856,453.156a16.385,16.385,0,0,1-16.226,16.5l-202.26,1.718ZM673.286,141.592l-.132,0-202.259,1.72a15.455,15.455,0,0,0-15.3,15.568l3.854,453.156a15.453,15.453,0,0,0,15.432,15.3h.135l202.261-1.718a15.457,15.457,0,0,0,15.3-15.57L688.722,156.9A15.458,15.458,0,0,0,673.286,141.592Z" transform="translate(-454.662 -140.664)" fill="#4738b3"/>
            </g>
            <g id="Group_287" data-name="Group 287" transform="translate(100.86 8.471)">
              <path id="Path_366" data-name="Path 366" d="M509.518,139.9a2.8,2.8,0,0,1-.024-5.606l34.57-.3a2.938,2.938,0,0,1,1.989.805,2.8,2.8,0,0,1-1.941,4.8l-34.57.3Zm34.57-4.973h-.017l-34.57.3a1.875,1.875,0,0,0,.017,3.75h.017l34.57-.3a1.875,1.875,0,0,0-.017-3.75Z" transform="translate(-506.714 -134.003)" fill="#4738b3"/>
            </g>
            <g id="Group_288" data-name="Group 288" transform="translate(167.486 6.43)">
              <path id="Path_367" data-name="Path 367" d="M547.175,142.018a4.558,4.558,0,0,1-.041-9.115h.041a4.555,4.555,0,0,1,4.558,4.519h0a4.556,4.556,0,0,1-4.519,4.6Zm0-8.187h-.031a3.63,3.63,0,0,0,.031,7.26h.032a3.631,3.631,0,0,0,3.6-3.66v0a3.627,3.627,0,0,0-3.63-3.6Z" transform="translate(-542.617 -132.903)" fill="#4738b3"/>
            </g>
            <g id="Group_289" data-name="Group 289" transform="translate(49.809 7.43)">
              <path id="Path_368" data-name="Path 368" d="M483.762,142.557a4.558,4.558,0,0,1-.039-9.115h.039a4.558,4.558,0,0,1,.037,9.115Zm0-8.187h-.032a3.63,3.63,0,0,0,.032,7.26h.03a3.63,3.63,0,0,0-.03-7.26Z" transform="translate(-479.204 -133.442)" fill="#4738b3"/>
            </g>
            <g id="Group_290" data-name="Group 290" transform="translate(187.24 8.032)">
              <path id="Path_369" data-name="Path 369" d="M556.064,139.372a2.8,2.8,0,0,1-.024-5.606h.024a2.8,2.8,0,0,1,.024,5.606Zm0-4.678h-.017a1.875,1.875,0,0,0,.017,3.75h.017a1.875,1.875,0,0,0-.017-3.75Z" transform="translate(-553.262 -133.766)" fill="#4738b3"/>
            </g>
            <g id="Group_291" data-name="Group 291" transform="translate(66.377 9.06)">
              <path id="Path_370" data-name="Path 370" d="M490.936,139.926a2.8,2.8,0,0,1-.024-5.606h.024a2.8,2.8,0,0,1,.024,5.606Zm0-4.678h-.017a1.875,1.875,0,0,0,.017,3.75h.017a1.875,1.875,0,0,0-.017-3.75Z" transform="translate(-488.132 -134.32)" fill="#4738b3"/>
            </g>
            <g id="Group_292" data-name="Group 292" transform="translate(35.969 9.318)">
              <path id="Path_371" data-name="Path 371" d="M474.546,140.065a2.8,2.8,0,0,1-.02-5.606,2.954,2.954,0,0,1,1.987.805,2.787,2.787,0,0,1,.837,1.974h0a2.8,2.8,0,0,1-2.78,2.826Zm0-4.678h-.015a1.877,1.877,0,0,0-1.3,3.212,1.814,1.814,0,0,0,1.331.538,1.875,1.875,0,0,0-.015-3.75Z" transform="translate(-471.746 -134.459)" fill="#4738b3"/>
            </g>
          </g>
          <g id="Group_299" data-name="Group 299" transform="translate(48.326 478.728)">
            <g id="Group_294" data-name="Group 294" transform="translate(78.607)">
              <path id="Path_372" data-name="Path 372" d="M532.951,401.585h-.007l-10.2-.017a1.984,1.984,0,0,1-1.976-1.98l.021-10.2a1.977,1.977,0,0,1,1.974-1.973h.006l10.2.017a1.98,1.98,0,0,1,1.974,1.982l-.02,10.2a1.971,1.971,0,0,1-1.971,1.973Zm-10.192-13.246a1.05,1.05,0,0,0-1.047,1.047l-.021,10.2a1.055,1.055,0,0,0,1.05,1.052l10.207.017h0a1.03,1.03,0,0,0,.735-.3,1.043,1.043,0,0,0,.308-.742l.02-10.2a1.05,1.05,0,0,0-1.049-1.052l-10.2-.017Z" transform="translate(-520.764 -387.411)" fill="#4738b3"/>
            </g>
            <g id="Group_297" data-name="Group 297" transform="translate(157.196 0.282)">
              <g id="Group_295" data-name="Group 295">
                <path id="Path_373" data-name="Path 373" d="M570.047,401.447l-6.934-6.955,6.957-6.928.656.656-6.3,6.276,6.276,6.3Z" transform="translate(-563.114 -387.563)" fill="#4738b3"/>
              </g>
              <g id="Group_296" data-name="Group 296" transform="translate(0.658 6.466)">
                <path id="Path_374" data-name="Path 374" d="M576.094,392l-12.626-.022v-.928l12.626.022Z" transform="translate(-563.468 -391.047)" fill="#4738b3"/>
              </g>
            </g>
            <g id="Group_298" data-name="Group 298" transform="translate(0 1.571)">
              <path id="Path_375" data-name="Path 375" d="M479.656,400.848a1.259,1.259,0,0,1-.609-.16,1.237,1.237,0,0,1-.642-1.093l.019-10.086a1.247,1.247,0,0,1,1.909-1.058l8.091,5.057a1.249,1.249,0,0,1-.005,2.121l-8.108,5.029A1.252,1.252,0,0,1,479.656,400.848Zm.017-11.66a.348.348,0,0,0-.158.041.316.316,0,0,0-.163.28l-.019,10.086a.317.317,0,0,0,.167.282.312.312,0,0,0,.321-.007l8.109-5.031a.314.314,0,0,0,.152-.271.318.318,0,0,0-.15-.273l-8.093-5.057A.307.307,0,0,0,479.672,389.188Z" transform="translate(-478.405 -388.258)" fill="#4738b3"/>
            </g>
          </g>
        </g>
        <g id="Group_343" data-name="Group 343" transform="translate(235.247 285.011)" opacity="0.15">
          <g id="Group_301" data-name="Group 301">
            <rect id="Rectangle_163" data-name="Rectangle 163" width="7.103" height="5.567" transform="matrix(0.553, -0.833, 0.833, 0.553, 0, 5.92)" fill="#4738b3"/>
          </g>
          <g id="Group_302" data-name="Group 302" transform="translate(6.568 5.941)">
            <path id="Path_376" data-name="Path 376" d="M582.675,286.224l0,.022a.034.034,0,0,0,.02.024l.009-.017,0,0-.011.015a.034.034,0,0,0,.048,0l-.019-.011h0c-.009-.009-.007-.02-.024-.028l-.006.007Z" transform="translate(-582.671 -286.224)" fill="#4738b3"/>
          </g>
          <g id="Group_303" data-name="Group 303" transform="translate(5.681 3.797)">
            <path id="Path_377" data-name="Path 377" d="M582.193,285.082l.02.013h0c.009.007,0,.017.015.022l.006-.006.022.013a.035.035,0,0,0-.015-.048l-.013.019h0l.013-.019-.019-.007A.031.031,0,0,0,582.193,285.082Z" transform="translate(-582.193 -285.069)" fill="#4738b3"/>
          </g>
          <g id="Group_304" data-name="Group 304" transform="translate(3.833 7.585)">
            <path id="Path_378" data-name="Path 378" d="M581.2,287.138l.011.03.024.013a.046.046,0,0,0,.031.009l.011-.032-.005-.011a.061.061,0,0,0-.033-.037l-.024.007Z" transform="translate(-581.197 -287.11)" fill="#4738b3"/>
          </g>
          <g id="Group_305" data-name="Group 305" transform="translate(1.205 6.28)">
            <path id="Path_379" data-name="Path 379" d="M579.787,286.42l-.006.015c0,.011.019.039.039.045a.034.034,0,0,0,.031-.011v-.026l0,.007,0-.028C579.814,286.392,579.792,286.413,579.787,286.42Z" transform="translate(-579.781 -286.407)" fill="#4738b3"/>
          </g>
          <g id="Group_306" data-name="Group 306" transform="translate(2.157 5.386)">
            <path id="Path_380" data-name="Path 380" d="M580.355,285.925h-.011a.064.064,0,0,0-.039.026.07.07,0,0,0,0,.069l.021.013h.037l.019-.013.005-.007a.054.054,0,0,0,0-.074l-.011-.006Z" transform="translate(-580.294 -285.925)" fill="#4738b3"/>
          </g>
          <g id="Group_307" data-name="Group 307" transform="translate(2.54 6.405)">
            <path id="Path_381" data-name="Path 381" d="M580.539,286.478l-.031.006a.044.044,0,0,0-.006.033.048.048,0,0,0,.021.017l.026-.009,0,0c0-.007.019-.03,0-.046l-.013,0Z" transform="translate(-580.5 -286.474)" fill="#4738b3"/>
          </g>
          <g id="Group_308" data-name="Group 308" transform="translate(2.577 7.576)">
            <path id="Path_382" data-name="Path 382" d="M580.526,287.133l0-.007-.007.032a.047.047,0,0,0,.035.013.045.045,0,0,0,.026-.02l0-.006-.007-.024-.009-.013-.033,0A.043.043,0,0,0,580.526,287.133Z" transform="translate(-580.52 -287.105)" fill="#4738b3"/>
          </g>
          <g id="Group_309" data-name="Group 309" transform="translate(0.886 4.645)">
            <path id="Path_383" data-name="Path 383" d="M579.668,285.528l-.026,0-.011.007-.02.013,0,.028a.05.05,0,0,0,.041.013.038.038,0,0,0,.028-.015A.035.035,0,0,0,579.668,285.528Z" transform="translate(-579.609 -285.526)" fill="#4738b3"/>
          </g>
          <g id="Group_310" data-name="Group 310" transform="translate(1.299 5.384)">
            <path id="Path_384" data-name="Path 384" d="M579.836,285.941a.037.037,0,0,0,.009.048h.026l0,0a.042.042,0,0,0,.022-.017l.005-.009-.005-.022a.039.039,0,0,0-.033-.013A.038.038,0,0,0,579.836,285.941Z" transform="translate(-579.831 -285.924)" fill="#4738b3"/>
          </g>
          <g id="Group_311" data-name="Group 311" transform="translate(6.474 4.504)">
            <path id="Path_385" data-name="Path 385" d="M582.653,285.452a.041.041,0,0,0-.033.011l0,.032a.057.057,0,0,0,.069-.011.025.025,0,0,0,0-.03l-.032,0Z" transform="translate(-582.62 -285.45)" fill="#4738b3"/>
          </g>
          <g id="Group_312" data-name="Group 312" transform="translate(4.767 3.425)">
            <path id="Path_386" data-name="Path 386" d="M581.839,284.921h0a.075.075,0,0,0-.05-.05.079.079,0,0,0-.072.017l-.013.028,0,.024v.02l0,.006a.1.1,0,0,0,.043.078.079.079,0,0,0,.071.009l.033-.035,0-.028h.006A.072.072,0,0,0,581.839,284.921Z" transform="translate(-581.7 -284.868)" fill="#4738b3"/>
          </g>
          <g id="Group_313" data-name="Group 313" transform="translate(5.487 5.122)">
            <path id="Path_387" data-name="Path 387" d="M582.142,285.783l-.011,0a.08.08,0,0,0-.035.022.059.059,0,0,0,.011.071l.017.007.037,0a.062.062,0,0,0,.033-.022l0-.009,0-.017-.008-.026-.009-.011-.015-.009-.009,0Z" transform="translate(-582.088 -285.783)" fill="#4738b3"/>
          </g>
          <g id="Group_314" data-name="Group 314" transform="translate(3.5 2.318)">
            <path id="Path_388" data-name="Path 388" d="M581.044,284.281l-.013.011a.073.073,0,0,0,0,.08l.009.009.02.009.013,0a.069.069,0,0,0,.045-.03.061.061,0,0,0,.009-.05.073.073,0,0,0-.039-.039l-.017,0Z" transform="translate(-581.018 -284.272)" fill="#4738b3"/>
          </g>
          <g id="Group_315" data-name="Group 315" transform="translate(2.939 3.177)">
            <path id="Path_389" data-name="Path 389" d="M580.748,284.737a.065.065,0,0,0-.026.015l-.007.015,0,.035a.061.061,0,0,0,.013.024l.018.009.035,0,.024-.013.007-.019,0-.035a.044.044,0,0,0-.015-.024l-.017-.007Z" transform="translate(-580.715 -284.735)" fill="#4738b3"/>
          </g>
          <g id="Group_316" data-name="Group 316" transform="translate(5.72 4.606)">
            <path id="Path_390" data-name="Path 390" d="M582.246,285.509l-.024.013-.007.019,0,.037a.061.061,0,0,0,.035.037h.015l.022-.007.013-.009.015-.02,0-.017-.005-.028-.009-.015-.015-.009-.015,0Z" transform="translate(-582.214 -285.505)" fill="#4738b3"/>
          </g>
          <g id="Group_317" data-name="Group 317" transform="translate(6.507 3.42)">
            <path id="Path_391" data-name="Path 391" d="M582.686,284.874l-.007,0a.037.037,0,0,0-.041,0l0,.03.009.013.033.006.007,0a.052.052,0,0,0,.026-.019.025.025,0,0,0,0-.033l-.035.009Z" transform="translate(-582.638 -284.866)" fill="#4738b3"/>
          </g>
          <g id="Group_318" data-name="Group 318" transform="translate(3.893 1.472)">
            <path id="Path_392" data-name="Path 392" d="M581.238,283.84a.035.035,0,0,0,.007.052l.028,0a.04.04,0,0,0,.024-.009v-.033a.049.049,0,0,0-.011-.022l-.019-.007A.059.059,0,0,0,581.238,283.84Z" transform="translate(-581.229 -283.816)" fill="#4738b3"/>
          </g>
          <g id="Group_319" data-name="Group 319" transform="translate(5.778 2.764)">
            <path id="Path_393" data-name="Path 393" d="M582.26,284.575a.042.042,0,0,0,.052-.006l0-.026,0-.005a.048.048,0,0,0-.028-.026l-.02,0A.038.038,0,0,0,582.26,284.575Z" transform="translate(-582.245 -284.512)" fill="#4738b3"/>
          </g>
          <g id="Group_320" data-name="Group 320" transform="translate(4.868 2.898)">
            <path id="Path_394" data-name="Path 394" d="M581.874,284.634l-.011-.02-.015-.015a.058.058,0,0,0-.076,0l-.007.018v.009l0,0a.048.048,0,0,0,.009.063l.009.006.017.006a.054.054,0,0,0,.067-.019.086.086,0,0,0,.011-.035Z" transform="translate(-581.755 -284.584)" fill="#4738b3"/>
          </g>
          <g id="Group_321" data-name="Group 321" transform="translate(5.383 3.146)">
            <path id="Path_395" data-name="Path 395" d="M582.041,284.733l-.009.018v.03l.009.019a.079.079,0,0,0,.067.024.049.049,0,0,0,.041-.028l.006-.009,0-.017-.009-.026-.013-.013A.086.086,0,0,0,582.041,284.733Z" transform="translate(-582.032 -284.718)" fill="#4738b3"/>
          </g>
          <g id="Group_322" data-name="Group 322" transform="translate(5.485 1.871)">
            <path id="Path_396" data-name="Path 396" d="M582.087,284.061a.3.3,0,0,1,.041.085h.037a.114.114,0,0,0-.017-.085.061.061,0,0,0-.043-.03Z" transform="translate(-582.087 -284.031)" fill="#4738b3"/>
          </g>
          <g id="Group_323" data-name="Group 323" transform="translate(4.588 2.112)">
            <path id="Path_397" data-name="Path 397" d="M581.606,284.174l0,.026,0,.006a.047.047,0,0,0,.028.026l.021,0,.007-.011a.038.038,0,0,0,0-.056l-.03,0A.034.034,0,0,0,581.606,284.174Z" transform="translate(-581.604 -284.161)" fill="#4738b3"/>
          </g>
          <g id="Group_324" data-name="Group 324" transform="translate(4.056 5.595)">
            <path id="Path_398" data-name="Path 398" d="M581.464,286.042v0a.073.073,0,0,0-.044.007l-.02,0-.026,0-.007,0a.09.09,0,0,0-.033.019l-.015.037,0,.028,0,.015a.1.1,0,0,0,.045.05l.033,0,.022-.007.007-.007.032.006.03-.007.028-.026a.075.075,0,0,0-.009-.1l-.033-.009Z" transform="translate(-581.317 -286.038)" fill="#4738b3"/>
          </g>
          <g id="Group_325" data-name="Group 325" transform="translate(3.109 5.59)">
            <path id="Path_399" data-name="Path 399" d="M580.818,286.063a.049.049,0,0,0-.009.046.055.055,0,0,0,.03.032h.017l.011,0v0l.017,0,.018-.009.009-.013,0-.011,0-.02,0-.011a.06.06,0,0,0-.045-.031A.058.058,0,0,0,580.818,286.063Z" transform="translate(-580.807 -286.035)" fill="#4738b3"/>
          </g>
          <g id="Group_326" data-name="Group 326" transform="translate(2.816 4.641)">
            <path id="Path_400" data-name="Path 400" d="M580.666,285.565a.1.1,0,0,0-.017.046l0,.022.009.02.017.019.033.024.035.007.026-.006.03-.02.03-.043.006-.035,0-.028-.022-.028A.1.1,0,0,0,580.666,285.565Z" transform="translate(-580.649 -285.523)" fill="#4738b3"/>
          </g>
          <g id="Group_327" data-name="Group 327" transform="translate(3.801 5.313)">
            <path id="Path_401" data-name="Path 401" d="M581.251,285.886l-.022.007-.03.024a.1.1,0,0,0,0,.122l0,.007.024.02.021.009.031,0a.1.1,0,0,0,.054-.041.09.09,0,0,0,.011-.082.119.119,0,0,0-.069-.069Z" transform="translate(-581.18 -285.886)" fill="#4738b3"/>
          </g>
          <g id="Group_328" data-name="Group 328" transform="translate(5.089 6.967)">
            <path id="Path_402" data-name="Path 402" d="M581.876,286.833l0,.035.042.026.032-.015.006-.039a.085.085,0,0,0,.007-.045l-.019-.018a.058.058,0,0,0-.05.033A.041.041,0,0,1,581.876,286.833Z" transform="translate(-581.874 -286.777)" fill="#4738b3"/>
          </g>
          <g id="Group_329" data-name="Group 329" transform="translate(1.866 3.141)">
            <path id="Path_403" data-name="Path 403" d="M580.183,284.746l0-.031-.044.038h.031Z" transform="translate(-580.137 -284.715)" fill="#4738b3"/>
          </g>
          <g id="Group_330" data-name="Group 330" transform="translate(4.063 4.469)">
            <path id="Path_404" data-name="Path 404" d="M581.473,285.5l-.005-.026-.021-.03-.015-.009-.03-.007-.033.006a.077.077,0,0,0-.033.019l-.015.035,0,.03,0,.015a.084.084,0,0,0,.045.048l.031,0,.022-.007.026-.019.015-.02Z" transform="translate(-581.321 -285.431)" fill="#4738b3"/>
          </g>
          <g id="Group_331" data-name="Group 331" transform="translate(4.576 4.707)">
            <path id="Path_405" data-name="Path 405" d="M581.716,285.572l-.019-.009-.028,0a.088.088,0,0,0-.054.039.1.1,0,0,0-.015.084l.02.028.022.015.031.006a.086.086,0,0,0,.065-.041.079.079,0,0,0-.006-.1Z" transform="translate(-581.597 -285.559)" fill="#4738b3"/>
          </g>
          <g id="Group_332" data-name="Group 332" transform="translate(5.541 5.588)">
            <path id="Path_406" data-name="Path 406" d="M582.118,286.082a.035.035,0,0,0,.013.022l.03-.011a.038.038,0,0,0,.033-.015l.005-.011,0-.019a.045.045,0,0,0-.078.033Z" transform="translate(-582.118 -286.034)" fill="#4738b3"/>
          </g>
          <g id="Group_333" data-name="Group 333" transform="translate(5.119 5.773)">
            <path id="Path_407" data-name="Path 407" d="M581.9,286.162a.052.052,0,0,0-.006.054.054.054,0,0,0,.043.031l.013,0,.019-.009.009-.007.015-.022,0-.009,0-.022,0-.013a.057.057,0,0,0-.046-.028A.056.056,0,0,0,581.9,286.162Z" transform="translate(-581.89 -286.134)" fill="#4738b3"/>
          </g>
          <g id="Group_334" data-name="Group 334" transform="translate(3.121 6.828)">
            <path id="Path_408" data-name="Path 408" d="M580.828,286.711l-.007.007a.032.032,0,0,0-.006.03.037.037,0,0,0,.026.02h.009a.034.034,0,0,0,.022-.015.049.049,0,0,0-.006-.052l-.035,0Z" transform="translate(-580.813 -286.702)" fill="#4738b3"/>
          </g>
          <g id="Group_335" data-name="Group 335" transform="translate(4.809 4.174)">
            <path id="Path_409" data-name="Path 409" d="M581.764,285.281l-.019.013-.015.019a.144.144,0,0,0,0,.1l.017.024.017.013.022.009a.085.085,0,0,0,.082-.037.1.1,0,0,0,0-.1.1.1,0,0,0-.089-.044Z" transform="translate(-581.723 -285.272)" fill="#4738b3"/>
          </g>
          <g id="Group_336" data-name="Group 336" transform="translate(2.345 3.86)">
            <path id="Path_410" data-name="Path 410" d="M580.464,285.1l-.009,0-.024,0-.017.009-.008.009a.06.06,0,0,0-.009.046.106.106,0,0,0,.048.056h.017l.026,0,.015-.009,0-.006a.079.079,0,0,0,.015-.059l0-.008-.006-.011-.005-.007a.063.063,0,0,0-.043-.017Z" transform="translate(-580.395 -285.103)" fill="#4738b3"/>
          </g>
          <g id="Group_337" data-name="Group 337" transform="translate(3.76 4.128)">
            <path id="Path_411" data-name="Path 411" d="M581.251,285.392a.09.09,0,0,0,.046-.02l.015-.037,0-.032-.02-.035-.022-.015-.037-.006-.028.006-.03.028a.076.076,0,0,0,.007.1l.033.013Z" transform="translate(-581.158 -285.247)" fill="#4738b3"/>
          </g>
          <g id="Group_338" data-name="Group 338" transform="translate(6.774 1.92)">
            <path id="Path_412" data-name="Path 412" d="M582.8,284.059a.035.035,0,0,0-.021.013l.017.013v.006c0,.011.022.009.024.007l0-.007.02.013a.03.03,0,0,0-.009-.039A.045.045,0,0,0,582.8,284.059Z" transform="translate(-582.782 -284.057)" fill="#4738b3"/>
          </g>
          <g id="Group_339" data-name="Group 339" transform="translate(4.109 3.1)">
            <path id="Path_413" data-name="Path 413" d="M581.462,284.7l-.032-.006-.024.006-.024.015-.013.017a.1.1,0,0,0,0,.132l.022.015.019.006h.028a.091.091,0,0,0,.056-.043.107.107,0,0,0,.017-.082A.1.1,0,0,0,581.462,284.7Z" transform="translate(-581.346 -284.693)" fill="#4738b3"/>
          </g>
          <g id="Group_340" data-name="Group 340" transform="translate(4.028 6.414)">
            <path id="Path_414" data-name="Path 414" d="M581.335,286.481a.053.053,0,0,0-.026.013l-.007.019,0,.033a.067.067,0,0,0,.015.026l.019.006h.032l.026-.015.008-.017,0-.035a.061.061,0,0,0-.013-.024l-.019-.007Z" transform="translate(-581.302 -286.479)" fill="#4738b3"/>
          </g>
          <g id="Group_341" data-name="Group 341" transform="translate(2.502 2.126)">
            <path id="Path_415" data-name="Path 415" d="M580.554,284.223l0-.015a.05.05,0,0,0-.037-.039.035.035,0,0,0-.039.013l0,.015a.05.05,0,0,0,.035.041A.04.04,0,0,0,580.554,284.223Z" transform="translate(-580.48 -284.168)" fill="#4738b3"/>
          </g>
          <g id="Group_342" data-name="Group 342" transform="translate(1.641 4.799)">
            <path id="Path_416" data-name="Path 416" d="M580.02,285.624l0,.017a.08.08,0,0,0,.043.043l.022-.006,0,0a.042.042,0,0,0-.015-.058A.034.034,0,0,0,580.02,285.624Z" transform="translate(-580.016 -285.609)" fill="#4738b3"/>
          </g>
        </g>
        <g id="Group_347" data-name="Group 347" transform="translate(25.783 77.634)">
          <g id="Group_344" data-name="Group 344">
            <path id="Path_417" data-name="Path 417" d="M557.188,262.36l-90.931-.158v-.464l.158-90.465,90.929.156v.464Zm-90-1.084,89.075.154.156-89.075-89.073-.152Z" transform="translate(-466.257 -171.273)" fill="#4738b3"/>
          </g>
          <g id="Group_345" data-name="Group 345" transform="translate(0.151 0.276)">
            <rect id="Rectangle_164" data-name="Rectangle 164" width="127.283" height="0.929" transform="matrix(0.708, -0.706, 0.706, 0.708, 0, 89.875)" fill="#4738b3"/>
          </g>
          <g id="Group_346" data-name="Group 346" transform="translate(0.292 0.137)">
            <rect id="Rectangle_165" data-name="Rectangle 165" width="0.926" height="127.283" transform="matrix(0.708, -0.706, 0.706, 0.708, 0, 0.654)" fill="#4738b3"/>
          </g>
        </g>
        <g id="Group_351" data-name="Group 351" transform="translate(25.035 301.84)">
          <g id="Group_348" data-name="Group 348">
            <path id="Path_418" data-name="Path 418" d="M556.785,365.481h-.464l-90.467-.158v-.464l.124-72.769h.464l90.467.156v.464Zm-90-1.086,89.075.158.124-71.379-89.075-.156Z" transform="translate(-465.854 -292.091)" fill="#4738b3"/>
          </g>
          <g id="Group_349" data-name="Group 349" transform="translate(0.163 0.271)">
            <rect id="Rectangle_166" data-name="Rectangle 166" width="115.448" height="0.928" transform="translate(0 72.122) rotate(-38.662)" fill="#4738b3"/>
          </g>
          <g id="Group_350" data-name="Group 350" transform="translate(0.298 0.104)">
            <rect id="Rectangle_167" data-name="Rectangle 167" width="0.927" height="115.45" transform="translate(0 0.722) rotate(-51.123)" fill="#4738b3"/>
          </g>
        </g>
        <g id="Group_355" data-name="Group 355" transform="translate(24.875 392.544)">
          <g id="Group_352" data-name="Group 352">
            <path id="Path_419" data-name="Path 419" d="M556.7,414.359h-.464l-90.467-.156v-.464l.126-72.771h.464l90.467.156v.464Zm-90-1.084,89.075.156.126-71.379-89.075-.156Z" transform="translate(-465.768 -340.969)" fill="#4738b3"/>
          </g>
          <g id="Group_353" data-name="Group 353" transform="translate(0.165 0.271)">
            <rect id="Rectangle_168" data-name="Rectangle 168" width="115.45" height="0.928" transform="translate(0 72.124) rotate(-38.662)" fill="#4738b3"/>
          </g>
          <g id="Group_354" data-name="Group 354" transform="translate(0.299 0.104)">
            <path id="Path_420" data-name="Path 420" d="M555.807,414.208l-89.878-72.462.584-.721,89.878,72.462Z" transform="translate(-465.929 -341.025)" fill="#4738b3"/>
          </g>
        </g>
        <g id="Group_356" data-name="Group 356" transform="translate(94.001 32.099)">
          <path id="Path_421" data-name="Path 421" d="M562.08,166.036l-59.062-.1.032-19.2,59.062.1Zm-58.134-1.028,57.206.1.032-17.342-57.207-.1Z" transform="translate(-503.018 -146.735)" fill="#4738b3"/>
        </g>
        <g id="Group_357" data-name="Group 357" transform="translate(132.955 80.035)">
          <path id="Path_422" data-name="Path 422" d="M604.253,173.634l-80.244-.14v-.928l80.244.14Z" transform="translate(-524.009 -172.566)" fill="#4738b3"/>
        </g>
        <g id="Group_358" data-name="Group 358" transform="translate(27.795 223.73)">
          <path id="Path_423" data-name="Path 423" d="M655.35,251.254l-188.008-.326V250l188.008.326Z" transform="translate(-467.341 -250)" fill="#4738b3"/>
        </g>
        <g id="Group_359" data-name="Group 359" transform="translate(27.775 234.751)">
          <path id="Path_424" data-name="Path 424" d="M655.339,257.193l-188.008-.326v-.928l188.008.326Z" transform="translate(-467.331 -255.939)" fill="#4738b3"/>
        </g>
        <g id="Group_360" data-name="Group 360" transform="translate(27.757 245.772)">
          <path id="Path_425" data-name="Path 425" d="M655.329,263.131l-188.008-.326v-.928l188.008.326Z" transform="translate(-467.321 -261.878)" fill="#4738b3"/>
        </g>
        <g id="Group_361" data-name="Group 361" transform="translate(27.739 256.792)">
          <path id="Path_426" data-name="Path 426" d="M655.318,269.07c-26.749-.048-161.261-.282-188.007-.327v-.928c26.747.044,161.259.278,188.007.327Z" transform="translate(-467.311 -267.816)" fill="#4738b3"/>
        </g>
        <g id="Group_362" data-name="Group 362" transform="translate(27.719 267.81)">
          <path id="Path_427" data-name="Path 427" d="M655.309,275.009,467.3,274.681v-.928l188.008.328Z" transform="translate(-467.3 -273.753)" fill="#4738b3"/>
        </g>
        <g id="Group_363" data-name="Group 363" transform="translate(73.313 278.298)">
          <path id="Path_428" data-name="Path 428" d="M588.654,280.5l-96.784-.169V279.4l96.784.169Z" transform="translate(-491.87 -279.405)" fill="#4738b3"/>
        </g>
        <g id="Group_364" data-name="Group 364" transform="translate(132.944 87.042)">
          <path id="Path_429" data-name="Path 429" d="M604.246,177.41,524,177.27v-.928l80.242.14Z" transform="translate(-524.004 -176.342)" fill="#4738b3"/>
        </g>
        <g id="Group_365" data-name="Group 365" transform="translate(132.932 94.049)">
          <path id="Path_430" data-name="Path 430" d="M604.239,181.186h-.276L524,181.046v-.928l80.242.14Z" transform="translate(-523.997 -180.118)" fill="#4738b3"/>
        </g>
        <g id="Group_366" data-name="Group 366" transform="translate(132.917 101.057)">
          <path id="Path_431" data-name="Path 431" d="M604.233,184.961l-80.244-.139v-.928l80.244.139Z" transform="translate(-523.989 -183.895)" fill="#4738b3"/>
        </g>
        <g id="Group_367" data-name="Group 367" transform="translate(132.908 108.063)">
          <path id="Path_432" data-name="Path 432" d="M604.226,188.737l-80.242-.139v-.928l80.242.139Z" transform="translate(-523.984 -187.67)" fill="#4738b3"/>
        </g>
        <g id="Group_368" data-name="Group 368" transform="translate(132.896 115.071)">
          <path id="Path_433" data-name="Path 433" d="M604.219,192.513l-80.242-.139v-.928l80.242.139Z" transform="translate(-523.977 -191.446)" fill="#4738b3"/>
        </g>
        <g id="Group_369" data-name="Group 369" transform="translate(133.323 122.822)">
          <path id="Path_434" data-name="Path 434" d="M548.765,196.593l-24.558-.042v-.928l24.558.043Z" transform="translate(-524.208 -195.623)" fill="#4738b3"/>
        </g>
        <g id="Group_370" data-name="Group 370" transform="translate(133.281 136.359)">
          <rect id="Rectangle_169" data-name="Rectangle 169" width="34.712" height="10.486" transform="translate(0.018 0) rotate(0.1)" fill="#4738b3"/>
        </g>
        <g id="Group_371" data-name="Group 371" transform="translate(178.75 136.346)">
          <path id="Path_435" data-name="Path 435" d="M581.869,213.639l-33.182-.058.017-10.67,33.182.056Zm-32.254-.984,31.326.054.017-8.817-31.327-.052Z" transform="translate(-548.687 -202.911)" fill="#4738b3"/>
        </g>
        <g id="Group_372" data-name="Group 372" transform="translate(50.508 195.154)">
          <rect id="Rectangle_170" data-name="Rectangle 170" width="142.65" height="9.183" transform="matrix(1, 0.002, -0.002, 1, 0.016, 0)" fill="#4738b3"/>
        </g>
        <g id="Group_373" data-name="Group 373" transform="translate(129.355 315.813)">
          <rect id="Rectangle_171" data-name="Rectangle 171" width="57.122" height="6.531" transform="matrix(1, 0.002, -0.002, 1, 0.011, 0)" fill="#4738b3"/>
        </g>
        <g id="Group_374" data-name="Group 374" transform="translate(129.338 332.541)">
          <path id="Path_436" data-name="Path 436" d="M612.692,309.721l-90.632-.158v-.928l90.632.158Z" transform="translate(-522.06 -308.635)" fill="#4738b3"/>
        </g>
        <g id="Group_375" data-name="Group 375" transform="translate(129.327 338.172)">
          <path id="Path_437" data-name="Path 437" d="M612.686,312.755l-90.632-.158v-.928l90.632.158Z" transform="translate(-522.054 -311.669)" fill="#4738b3"/>
        </g>
        <g id="Group_376" data-name="Group 376" transform="translate(129.316 345.109)">
          <path id="Path_438" data-name="Path 438" d="M579.17,316.435l-57.121-.1v-.928l57.121.1Z" transform="translate(-522.048 -315.408)" fill="#4738b3"/>
        </g>
        <g id="Group_377" data-name="Group 377" transform="translate(128.809 354.513)">
          <path id="Path_439" data-name="Path 439" d="M537.808,336.533l-16.033-.026.028-16.032,16.03.026Zm-15.106-.954,14.178.026.024-14.176-14.174-.026Z" transform="translate(-521.775 -320.475)" fill="#4738b3"/>
        </g>
        <g id="Group_378" data-name="Group 378" transform="translate(129.216 395.81)">
          <rect id="Rectangle_172" data-name="Rectangle 172" width="57.122" height="6.531" transform="translate(0.011 0) rotate(0.1)" fill="#4738b3"/>
        </g>
        <g id="Group_379" data-name="Group 379" transform="translate(129.199 412.539)">
          <path id="Path_440" data-name="Path 440" d="M612.618,352.829l-90.633-.158v-.928l90.633.158Z" transform="translate(-521.985 -351.744)" fill="#4738b3"/>
        </g>
        <g id="Group_380" data-name="Group 380" transform="translate(129.189 418.17)">
          <path id="Path_441" data-name="Path 441" d="M612.612,355.863l-90.632-.158v-.928l90.632.158Z" transform="translate(-521.98 -354.778)" fill="#4738b3"/>
        </g>
        <g id="Group_381" data-name="Group 381" transform="translate(129.177 425.107)">
          <path id="Path_442" data-name="Path 442" d="M579.095,359.544l-57.121-.1v-.928l57.121.1Z" transform="translate(-521.973 -358.516)" fill="#4738b3"/>
        </g>
        <g id="Group_382" data-name="Group 382" transform="translate(128.672 434.509)">
          <path id="Path_443" data-name="Path 443" d="M537.731,379.642l-16.03-.028.024-16.032,16.03.026Zm-15.1-.956,14.174.028.024-14.178-14.174-.026Z" transform="translate(-521.701 -363.583)" fill="#4738b3"/>
        </g>
      </g>
    </g>
    <g transform="matrix(1, 0, 0, 1, 369, 108.21)" filter="url(#Rectangle_173)">
      <rect id="Rectangle_173-2" data-name="Rectangle 173" width="99.057" height="68.444" transform="translate(137.27 421.51)" fill="url(#linear-gradient-6)"/>
    </g>
    <g id="Group_386" data-name="Group 386" transform="translate(729.835 549.399)">
      <path id="Path_444" data-name="Path 444" d="M675.084,363.02l-5.62,64.831H598.015L585.29,448.766V427.851H566.211V360.629Z" transform="translate(-566.211 -333.399)" fill="#946ccf" opacity="0.45"/>
      <path id="Path_445" data-name="Path 445" d="M589.016,348.346l5.618,64.831h71.449l12.726,20.915V413.177H697.89V345.956Z" transform="translate(-546.695 -345.956)" fill="#946ccf"/>
      <g id="Group_385" data-name="Group 385" transform="translate(76.769 32.487)">
        <path id="Path_446" data-name="Path 446" d="M614.213,366.778a3.317,3.317,0,1,1-3.318-3.316A3.318,3.318,0,0,1,614.213,366.778Z" transform="translate(-607.579 -363.462)" fill="#ebebea"/>
        <path id="Path_447" data-name="Path 447" d="M625.085,366.778a3.317,3.317,0,1,1-3.316-3.316A3.316,3.316,0,0,1,625.085,366.778Z" transform="translate(-598.276 -363.462)" fill="#ebebea"/>
        <path id="Path_448" data-name="Path 448" d="M635.956,366.778a3.316,3.316,0,1,1-3.316-3.316A3.316,3.316,0,0,1,635.956,366.778Z" transform="translate(-588.971 -363.462)" fill="#ebebea"/>
      </g>
    </g>
    <g transform="matrix(1, 0, 0, 1, 369, 108.21)" filter="url(#Path_449)">
      <path id="Path_449-2" data-name="Path 449" d="M692.464,228.658a3.493,3.493,0,0,1,2.821,5.35l-33.871,53.772-33.871,53.775a3.492,3.492,0,0,1-6.044-.234L591.865,285.1l-29.634-56.219a3.492,3.492,0,0,1,3.223-5.118l63.5,2.448Z" transform="translate(-209.13 -9.33)" fill="url(#linear-gradient-7)"/>
    </g>
    <g id="Group_389" data-name="Group 389" transform="translate(446.54 109.974)" opacity="0.69">
      <g id="Group_387" data-name="Group 387" transform="translate(83.697 83.695)">
        <path id="Path_450" data-name="Path 450" d="M466.295,154.263a7.642,7.642,0,1,1-7.642,7.642A7.643,7.643,0,0,1,466.295,154.263Z" transform="translate(-458.653 -154.263)" fill="url(#linear-gradient-8)"/>
      </g>
      <g id="Group_388" data-name="Group 388">
        <path id="Path_451" data-name="Path 451" d="M454.5,182.051a31.981,31.981,0,0,1,31.943-31.941V139.651a42.45,42.45,0,0,0-42.4,42.4Z" transform="translate(-387.46 -83.072)" fill="url(#linear-gradient-9)"/>
        <path id="Path_452" data-name="Path 452" d="M440.51,195.3a59.247,59.247,0,0,1,59.179-59.179h0V124.169h0a71.21,71.21,0,0,0-71.13,71.13Z" transform="translate(-400.708 -96.32)" fill="url(#linear-gradient-10)"/>
        <path id="Path_453" data-name="Path 453" d="M426.424,208.141a86.207,86.207,0,0,1,86.108-86.109h0V109.162h0a99.093,99.093,0,0,0-98.981,98.979Z" transform="translate(-413.551 -109.162)" fill="url(#linear-gradient-11)"/>
      </g>
    </g>
    <line id="Line_11" data-name="Line 11" x1="2.822" transform="translate(577.496 393.372)" fill="none"/>
    <g transform="matrix(1, 0, 0, 1, 369, 108.21)" filter="url(#Rectangle_174)">
      <rect id="Rectangle_174-2" data-name="Rectangle 174" width="124.778" height="88.151" transform="translate(107.99 89.39)" fill="#4738b3"/>
    </g>
    <path id="Path_454" data-name="Path 454" d="M440.31,214.357l24.783-23.8a3.852,3.852,0,0,1,4.825-.414l7.744,5.229a3.853,3.853,0,0,0,4.986-.577L503,172.778a3.855,3.855,0,0,1,6.181.713l22.953,40.446a3.855,3.855,0,0,1-3.294,5.755l-85.8,1.3A3.853,3.853,0,0,1,440.31,214.357Z" transform="translate(54.868 54.191)" fill="#29227f" opacity="0.28"/>
    <path id="Path_455" data-name="Path 455" d="M462.213,174.4a5.169,5.169,0,1,1-5.168-5.17A5.168,5.168,0,0,1,462.213,174.4Z" transform="translate(65.784 52.215)" fill="#29227f" opacity="0.28"/>
    <path id="Path_456" data-name="Path 456" d="M547.471,237.429H432.277V159.253H547.471Zm-113.339-1.856H545.616V161.109H434.133Z" transform="translate(49.014 43.676)" fill="#29227f" opacity="0.28"/>
    <g id="Group_391" data-name="Group 391" transform="translate(379.495 338.389)">
      <g transform="matrix(1, 0, 0, 1, -10.5, -230.18)" filter="url(#Rectangle_175)">
        <rect id="Rectangle_175-2" data-name="Rectangle 175" width="233.073" height="76.339" transform="translate(10.5 230.18)" fill="#eeeef3"/>
      </g>
      <rect id="Rectangle_176" data-name="Rectangle 176" width="233.07" height="17.9" fill="#29227f" opacity="0.1"/>
      <rect id="Rectangle_177" data-name="Rectangle 177" width="182.624" height="1.856" transform="translate(23.298 32.371)" fill="#29227f" opacity="0.1"/>
      <rect id="Rectangle_178" data-name="Rectangle 178" width="182.624" height="1.856" transform="translate(23.298 45.224)" fill="#29227f" opacity="0.1"/>
      <rect id="Rectangle_179" data-name="Rectangle 179" width="182.624" height="1.856" transform="translate(23.298 58.078)" fill="#29227f" opacity="0.1"/>
      <g id="Group_390" data-name="Group 390" transform="translate(216.836 5.347)">
        <path id="Path_457" data-name="Path 457" d="M494.708,242.33l-.312-.344,7.615-6.853.312.344Z" transform="translate(-494.161 -235.128)" fill="#4738b3"/>
        <path id="Path_458" data-name="Path 458" d="M502.366,242.336l-8.1-6.853.3-.353,8.1,6.853Z" transform="translate(-494.269 -235.13)" fill="#4738b3"/>
      </g>
    </g>
    <path id="Path_459" data-name="Path 459" d="M453.638,380.139l19.394-18.168a3.072,3.072,0,0,1,3.776-.317l6.059,3.992a3.071,3.071,0,0,0,3.9-.44L502.7,348.4a3.057,3.057,0,0,1,4.834.544l17.963,30.872a2.939,2.939,0,0,1-2.576,4.391l-67.146.991A2.932,2.932,0,0,1,453.638,380.139Z" transform="translate(66.495 204.729)" fill="#29227f" opacity="0.15"/>
    <ellipse id="Ellipse_74" data-name="Ellipse 74" cx="4.045" cy="3.945" rx="4.045" ry="3.945" transform="translate(538.695 548.916)" fill="#29227f" opacity="0.15"/>
    <path id="Path_460" data-name="Path 460" d="M538.314,397.709h-90.55V337.6h90.55Zm-88.694-1.856h86.839v-56.4H449.62Z" transform="translate(62.266 196.293)" fill="#29227f" opacity="0.15"/>
    <g id="Group_394" data-name="Group 394" transform="translate(375 456.529)">
      <g id="Group_393" data-name="Group 393">
        <g id="Group_392" data-name="Group 392">
          <path id="Path_461" data-name="Path 461" d="M375,305.338l1.636,91.136,107.721.016,5.27-100.579Z" transform="translate(-375 -295.911)" fill="#f0f3f5"/>
          <path id="Path_462" data-name="Path 462" d="M395.074,347.4s-4.547,38.391,11.762,38.811,35.222-4.467,35.222-4.467-30.169-2.4-31.872-7.432,2.411-22.452,2.411-22.452Z" transform="translate(-358.321 -251.853)" fill="#f0f3f5"/>
        </g>
      </g>
      <path id="Path_463" data-name="Path 463" d="M414.651,306.393l-5.033,25.728L387.111,335.1l19.57,11.337-5.42,23.391,18.126-16.172,20.27,11.865-9.478-21.72,16.1-12.586-22.135-.721Z" transform="translate(-364.636 -286.941)" fill="#efd387"/>
    </g>
    <g id="Group_399" data-name="Group 399" transform="translate(772.018 153.773)">
      <g id="Group_396" data-name="Group 396">
        <g id="Group_395" data-name="Group 395">
          <path id="Path_464" data-name="Path 464" d="M691.382,132.764l6.707,80.923-95.472,9.656L588.942,134.67Z" transform="translate(-588.942 -132.764)" fill="#f0f3f5"/>
          <path id="Path_465" data-name="Path 465" d="M632.239,178.2s.583,26.817-10.709,26.021-24.028-5.434-24.028-5.434,20.994.354,22.506-3.008-.167-15.668-.167-15.668Z" transform="translate(-581.617 -93.88)" fill="#f0f3f5"/>
        </g>
      </g>
      <g id="Group_398" data-name="Group 398" transform="translate(33.121 11.559)">
        <g id="Group_397" data-name="Group 397">
          <path id="Path_466" data-name="Path 466" d="M637.558,150.647a12.551,12.551,0,1,1-13.417-11.621A12.549,12.549,0,0,1,637.558,150.647Z" transform="translate(-601.914 -138.993)" fill="#946ccf"/>
          <path id="Path_467" data-name="Path 467" d="M630.905,154.89h-1.982c-12.224,0-22.133,17.379-22.133,34.2l46.248-3.745C650.455,167.064,643.131,154.89,630.905,154.89Z" transform="translate(-606.79 -125.39)" fill="#946ccf"/>
        </g>
        <path id="Path_468" data-name="Path 468" d="M640.57,170.828a6.062,6.062,0,1,1-6.063-6.061A6.061,6.061,0,0,1,640.57,170.828Z" transform="translate(-588.258 -116.938)" fill="#4738b3"/>
        <path id="Path_469" data-name="Path 469" d="M635.488,168.691h-2.052v-2.05h-1.066v2.05H630.32v1.067h2.051v2.051h1.066v-2.051h2.052Z" transform="translate(-586.655 -115.334)" fill="#946ccf"/>
      </g>
    </g>
  </g>
</svg>
